<?xml version="1.0" encoding="utf-8"?>
<!-- Generator: Adobe Illustrator 19.2.1, SVG Export Plug-In . SVG Version: 6.00 Build 0)  -->
<svg version="1.1" xmlns="http://www.w3.org/2000/svg" xmlns:xlink="http://www.w3.org/1999/xlink" x="0px" y="0px"
	 viewBox="0 0 107.2 150.2" width="171px" height="240px" style="enable-background:new 0 0 107.2 150.2;" xml:space="preserve">
<style type="text/css">
	.st0{fill:#FFFFFF;}
	.st1{fill:#C0AE72;}
	.st2{fill:#750069;}
	.st3{fill:#E6002D;}
</style>
<g id="ベース">
</g>
<g id="マーク等">
	<g>
		<path class="st0" d="M53.6,0L0,9.8l0.1,8.5c0.8,42.3,5,86.8,46.7,125.5l6.9,6.4l6.8-6.4c41.7-39.4,45.8-81.8,46.6-125.4l0.1-8.5
			L53.6,0z"/>
		<path d="M53.6,3.3L3.3,12.6l0.1,5.7C4.2,59.8,8.3,103.6,49,141.4l4.6,4.3l4.6-4.3C99,102.8,103,61.1,103.8,18.2l0.1-5.7L53.6,3.3z
			"/>
		<path class="st0" d="M53.6,6.7L6.7,15.3l0.1,2.8C7.5,59,11.5,102,51.3,138.9l2.3,2.1l2.3-2.2c39.8-37.6,43.8-78.6,44.5-120.7
			l0-2.8L53.6,6.7z"/>
		<path class="st1" d="M53.6,8.3L8.3,16.6l0,1.5c0.4,20.4,1.6,42.2,8,63.1c6.7,21.8,18.5,40.3,36,56.6l1.2,1.2l1.2-1.2
			c17.8-16.8,29.6-35.4,36.2-57c6.2-20.4,7.4-42.1,7.8-62.6l0-1.5L53.6,8.3z M53.6,136.5C16,101.6,10.9,62.1,10.1,18.1l43.5-8
			l43.5,8C96.3,62.1,91.7,100.4,53.6,136.5z"/>
		<path class="st0" d="M53.6,136.5l0-126.3l43.5,8C96.3,62.1,91.7,100.4,53.6,136.5z"/>
		<g>
			<path class="st2" d="M53.6,109.1C53.6,109.1,53.6,109.1,53.6,109.1l0-98.9h0l-43.5,8c0.8,44,5.9,83.5,43.5,118.4v-7.1
				c0,0,0,0,0,0c2.7,0,5.2-1,7.1-2.9c2-1.9,3.1-4.5,3.1-7.3C63.8,113.6,59.2,109.1,53.6,109.1z"/>
			<g>
				<path class="st1" d="M49.6,123.3c0.9,0.9,2.1,1.5,3.4,1.6c0-1.1,0-10.2,0-11.3c-1.3,0.1-2.4,0.7-3.4,1.6
					C49.6,115.7,49.6,122.8,49.6,123.3z"/>
				<path class="st1" d="M48.4,115.2l-1.7-1.7c-1.2,1.4-1.9,3.2-2.1,5.1h3.8V115.2z"/>
				<path class="st1" d="M58.8,116.4v2.2h3.8c-0.1-2-0.9-3.8-2.2-5.2c-0.5,0.5-1.4,1.4-1.6,1.6C58.8,115.2,58.8,116.4,58.8,116.4z"
					/>
				<path class="st1" d="M52.3,112.5c0,0,0.1,0,0.1,0c0.2,0,0.3-0.1,0.5-0.1c0.2,0,0.4,0,0.7,0c0.2,0,0.4,0,0.6,0
					c0.1,0,0.3,0,0.4,0.1c0,0,0.1,0,0.1,0c1.2,0.2,2.3,0.7,3.2,1.5c0.3-0.3,1.1-1.1,1.5-1.5c-1.6-1.4-3.7-2.3-5.9-2.3
					c-2.3,0-4.4,0.9-6,2.4c0.4,0.4,1.1,1.1,1.5,1.5C50,113.3,51.1,112.7,52.3,112.5z"/>
				<path class="st1" d="M54.2,124.9c1.3-0.1,2.4-0.7,3.4-1.6c0-0.5,0-7.6,0-8.1c-0.9-0.9-2.1-1.4-3.4-1.6V124.9z"/>
				<path class="st1" d="M48.4,123.4c0-0.2,0-1.3,0-1.3v-2.3h-3.8c0.1,1.9,0.9,3.7,2.1,5.2c0.5-0.5,1.1-1,1.4-1.4
					C48.3,123.5,48.4,123.5,48.4,123.4z"/>
				<path class="st1" d="M58.8,119.8v2.3c0,0,0,1.3,0,1.4c0,0,0,0,0,0c0.3,0.4,1.1,1.2,1.5,1.7c1.3-1.5,2.1-3.4,2.3-5.4H58.8z"/>
				<path class="st1" d="M54.8,126c0,0-0.1,0-0.1,0c-0.1,0-0.3,0-0.4,0.1c-0.2,0-0.4,0-0.6,0c-0.2,0-0.4,0-0.7,0
					c-0.2,0-0.3,0-0.5-0.1c0,0-0.1,0-0.1,0c-1.2-0.2-2.3-0.8-3.3-1.6c-0.4,0.4-1,1-1.5,1.4c1.7,1.5,3.8,2.4,6,2.4
					c2.2,0,4.2-0.8,5.8-2.2l-1.4-1.5C57.1,125.3,56,125.8,54.8,126z"/>
			</g>
		</g>
		<g>
			<path class="st0" d="M25.1,26.3c0,0-0.3-1.9-0.3-2c0-0.1,2.4-5.5,2.4-5.5l-0.3,0l-2.2,0.4l0,0.3c0.2,0.1,0.4,0.2,0.4,0.3
				c0,0,0,0.1,0,0.1c0,0.2,0,0.4-0.1,0.6c0,0-0.8,1.8-1.1,2.4c-0.3-0.3-2.5-2.8-2.5-2.8C21.2,20,20.8,20,20.2,20l-1.6,0.3l-0.2,0
				l-2.1,0.4l0,0.3c0.2,0,0.3,0.1,0.3,0.2c0.1,0.3-0.1,0.7-0.3,1.1l-0.1,0.3l0,0L15,25l-0.4-2l0-0.2c-0.1-0.5-0.2-1.3,0.2-1.5
				L14.8,21l-2.4,0.4l0,0.3c0.5,0.1,0.6,0.8,0.7,1.4l0,0.2l0.8,4.8l0,0.2c0.1,0.5,0.2,1.3-0.2,1.5l0.1,0.3l2.4-0.4l0-0.3
				c-0.5-0.1-0.6-0.8-0.7-1.4l0-0.2l-0.4-2.3l3.4,3.2c0.3,0.3,1,0.4,1.7,0.3l1.2-0.2l0-0.3c-0.7-0.2-1.2-0.5-1.7-0.9
				c0,0-2.7-2.4-3.1-2.8c0.1-0.2,1.8-3.4,2.3-4.2l0.2,0.1c0.6,0.2,0.9,0.6,1.4,1c0,0,2.5,2.8,2.7,3c0,0.1,0.3,1.8,0.3,1.8
				s0.1,0.4,0.1,0.4c0.1,0.5,0.1,1-0.2,1.3l0.1,0.3l2.4-0.4l0-0.3C25.2,27.4,25.2,27,25.1,26.3z"/>
			<path class="st0" d="M41.8,16l-0.3,0.2c-0.1,0.1-0.3,0.1-0.5,0.2c0,0-5.1,0.9-5.1,0.9c0,0-0.1,0-0.1,0l-0.5,0l-0.1,0.1l-0.2,1.9
				c-0.2-0.2-0.4-0.4-0.7-0.6c-1-0.7-2.3-1-3.6-0.8c-1.4,0.2-2.5,0.9-3.3,2c-0.7,1-1,2.2-0.8,3.4c0.5,2.6,2.9,4.2,5.6,3.7
				c2.7-0.5,4.5-2.9,4-5.5c-0.1-0.8-0.5-1.6-1.1-2.2l0.3-0.3c0.3-0.4,0.7-0.6,1.3-0.7c0,0,0.7-0.1,1-0.2c0,0.3,1,5.5,1,5.5
				s0.1,0.3,0.1,0.4c0.1,0.5,0.1,1.1-0.2,1.3l0.1,0.3l2.5-0.4l0-0.3c-0.6-0.2-0.7-0.6-0.8-1.3c0,0-1-5.5-1-5.7c0.2,0,1-0.2,1-0.2
				c0.6-0.1,0.9,0,1,0.2l0.2,0.4l0.1-0.5L41.8,16z M32.1,25.9c-1.9,0.3-3.4-1.3-3.7-2.9C28,21,29,19.5,30.9,19.2
				c2-0.3,3.4,1.3,3.7,3C34.8,24.1,33.9,25.5,32.1,25.9z"/>
			<path class="st0" d="M46.1,15.3c-1.4,0.2-2.5,0.9-3.3,2c-0.7,1-1,2.2-0.8,3.4c0.5,2.6,2.9,4.2,5.6,3.7c2.7-0.5,4.5-2.9,4-5.5
				c-0.2-1.2-0.9-2.2-1.9-2.9C48.7,15.3,47.4,15,46.1,15.3z M47.5,23.1c-1.9,0.3-3.4-1.3-3.7-2.9c-0.3-1.9,0.7-3.4,2.5-3.7
				c2-0.3,3.4,1.3,3.7,3C50.3,21.3,49.3,22.8,47.5,23.1z"/>
		</g>
		<g>
			<path d="M59.9,18.9c-0.8-0.6-1.6-1.1-1.5-1.8c0.2-0.9,1.4-0.8,1.6-0.7c0.7,0.1,1.3,0.5,1.7,1.1l0.2,0.3l0.3-1.9l-0.1,0
				c-0.6-0.3-1.2-0.5-1.8-0.6c-1.5-0.3-3.3,0-3.6,1.7c-0.3,1.5,0.9,2.3,2,3c0.9,0.6,1.6,1.1,1.5,1.9c-0.1,0.7-1.1,1-1.8,0.9
				c-0.9-0.2-1.8-0.7-2.4-1.4l-0.3-0.3l0.1,2.1l0.1,0c0.6,0.4,1.4,0.6,2.2,0.8c1.9,0.3,3.7-0.6,3.9-2.1
				C62.1,20.5,60.9,19.7,59.9,18.9z"/>
			<path d="M79.5,18.8l-2.2-0.4l-0.1,0.3c0.5,0.4,0.4,0.8,0.3,1.4c0,0-0.6,3.6-0.8,4.3c-0.4-0.7-3.3-6.1-3.3-6.1
				c0,0-0.1-0.3-0.1-0.3c0,0-0.1-0.3-0.1-0.3l0-0.1l-0.1-0.1l-1.8-0.3l-0.1,0.3c0.4,0.4,0.4,0.8,0.3,1.5l-0.9,4.9
				c-0.1,0.7-0.2,1.1-0.8,1.3l0,0l0,0c-0.5-0.4-0.7-1-0.8-1.7l0-0.2l-1.5-6.9l-0.1,0l-1.9-0.3l-0.1,0.3c0.1,0.1,0.2,0.1,0.2,0.2
				c0.1,0.2-0.1,0.5-0.3,0.7c0,0.1-3,4.8-3,4.8c0,0-0.1,0.2-0.1,0.2c-0.4,0.6-0.7,1.1-1.3,1.3l0,0.3l2.3,0.4l0.1-0.3
				C63,24.1,63,24,63,24c0,0,0-0.1,0-0.2c0-0.2,0.2-0.4,0.3-0.7c0,0,0.7-1.2,0.9-1.5c0.2,0,2.7,0.5,2.9,0.5c0,0.2,0.4,1.9,0.4,1.9
				c0.1,0.3,0.1,0.5,0.1,0.7c0,0.1-0.1,0.2-0.4,0.2l0,0.3l2.5,0.4l0,0l0.2,0l2.2,0.4l0.1-0.3c-0.5-0.4-0.4-0.8-0.3-1.5
				c0,0,0.7-3.7,0.8-4.4c0.4,0.7,3.1,5.7,3.1,5.7c0.4,0.8,0.7,1.3,1.6,1.8l0.2,0.1l1.2-7.1c0.1-0.7,0.2-1.1,0.8-1.3L79.5,18.8z
				 M66.8,20.9c-0.3-0.1-1.7-0.3-2-0.4c0.2-0.3,1.2-1.9,1.5-2.4C66.4,18.7,66.7,20.5,66.8,20.9z"/>
			<path d="M86.3,27.8l0.5-2.9l0.2-0.6l-0.1-0.1L85,23.9l-0.1,0.3c0.4,0.3,0.4,0.7,0.3,1.3c0,0-0.3,1.4-0.3,1.6
				c-0.5,0-1.1,0-1.6-0.1c-1.9-0.3-3.1-2.1-2.8-3.9c0.3-1.8,1.9-2.9,3.8-2.5c0.4,0.1,1.5,0.3,2,1.1l0.2,0.3l0.1-0.4l0.3-1.5l-0.1,0
				c-0.7-0.3-1.3-0.4-1.9-0.6c-3.1-0.6-5.5,0.9-6,3.5c-0.5,2.6,1.3,4.7,4.4,5.2c1,0.2,1.9,0.2,2.9,0.2l0.2,0l0-0.2L86.3,27.8z"/>
			<path d="M94.4,28.2l0-0.2l-1.5-6.9l-0.1,0l-1.9-0.3l-0.1,0.3c0.1,0.1,0.2,0.1,0.2,0.2c0.1,0.2-0.1,0.5-0.3,0.7l-3,4.8
				c0,0-0.1,0.2-0.1,0.2c-0.4,0.6-0.7,1.1-1.3,1.3l0,0.3l2.3,0.4l0.1-0.3c-0.2-0.1-0.3-0.3-0.3-0.4c0-0.2,0.1-0.4,0.3-0.7
				c0,0,0.7-1.2,0.9-1.5c0.2,0,2.7,0.5,2.9,0.5c0,0.2,0.4,1.9,0.4,1.9c0.1,0.3,0.1,0.5,0.1,0.7c0,0.1-0.1,0.2-0.4,0.2l0,0.3l2.5,0.4
				l0.1-0.3C94.7,29.5,94.5,28.9,94.4,28.2z M92.2,25.3c-0.3-0.1-1.7-0.3-2-0.4c0.2-0.3,1.2-1.9,1.5-2.4
				C91.8,23.2,92.2,25,92.2,25.3z"/>
		</g>
		<g>
			<path d="M51.2,28.6c0,0-0.9,0-1,0c0-0.2,0-1.4,0-1.6c0.2,0,0.9-0.1,0.9-0.1c0.5,0,0.8,0.1,1.1,0.3l0.2,0.2l0-0.3V26l-0.2,0
				l-0.3,0l-0.1,0h-3.1l0,0.2c0.4,0.1,0.4,0.7,0.4,1.1l0,0.1v3.6l0,0.1c0,0.4,0,1-0.4,1.1l0,0.2h1.8l0-0.2c-0.3-0.1-0.3-0.5-0.3-0.9
				c0-0.1,0-0.1,0-0.2l0-0.2c0,0,0-1.4,0-1.6c0.2,0,0.7,0,0.7,0c0.3,0,0.6,0,0.7,0.2l0.2,0.4l0-0.5v-1.2l-0.2,0L51.2,28.6z"/>
			<path d="M52.7,31.4c-0.4,0-0.7,0.3-0.7,0.7c0,0.4,0.3,0.7,0.7,0.7c0.4,0,0.7-0.3,0.7-0.7C53.4,31.7,53.1,31.4,52.7,31.4z"/>
			<path d="M57.5,31.8c-1.5,0-2.3-1.3-2.3-2.6c0-1.3,0.9-2.3,2.1-2.3c0.6,0,1.2,0.2,1.7,0.5l0.2,0.1v-1.4l-0.1,0
				c-0.7-0.2-1.3-0.2-1.8-0.2c-2.1,0-3.5,1.4-3.5,3.4c0,2.1,1.5,3.4,3.8,3.4c0.6,0,1.1-0.1,1.5-0.3l0,0l0.6-1.5l-0.3,0.2
				C59,31.5,58.3,31.8,57.5,31.8z"/>
			<path d="M60.9,31.4c-0.4,0-0.7,0.3-0.7,0.7c0,0.4,0.3,0.7,0.7,0.7c0.4,0,0.7-0.3,0.7-0.7C61.6,31.7,61.3,31.4,60.9,31.4z"/>
		</g>
		<g>
			<path d="M89.1,49.7c-2-3.2-1.9-9.6-1.2-13.5c-1.9,0.9-3.6,3.3-4.2,4.6c-0.8-1.5-2.3-4.1-5.9-6.6c-3.6-2.5-8.4-4.2-13.4-2.4
				c3.1,0.7,6.6,2.2,10,4.8c0,0,0,0.1,0,0.1C74.2,37.5,74,38.2,74,39c0,1.6,1.2,4.7,1.8,6.6C75,43.3,72.2,39.3,63,39
				c-3.7-0.1-5.6-1.9-6.7-5c-0.4,0.9-0.9,3.1-0.9,4.2c0,1.1,0.1,3,1.2,4.6c-0.2-0.2-0.4-0.4-0.6-0.6c-2.1-2.3-4.4-4-6.9-5.1
				c-3.2-1.4-8.1-1.3-11.6,0.5c0,0,0,0,0,0c0,0-1.5,0.8-2.3,1.6c0.3-1.1,1-2.7,2.3-3.8c-7-1.4-11.3,3.4-12.3,6.3
				c-0.3,1-0.5,2-0.5,3.1c0,1.5,0.4,3,1,4.2c-1-0.1-2,0.1-3.2,0.4c-3.4,1.1-5.2,4.1-5.5,6.5c0,0-0.4,1.8,0,3.8
				c-1.5,2.2-1.7,4.5-1.7,4.6c0,0-0.2,2.3,0.4,3.9c1-1.1,2.4-1.9,2.9-2l-0.2,1c0,0-0.2,1.7,0.1,2.7c1.7-1.5,3.8-2.2,4.2-2.3
				c0.7,4.8,4.3,6.6,5.4,7c-2.2,1.4-4.4,3.8-4.8,7.6l-0.1,1.6c0,4.8,2.6,8.1,5,10.2c1.6,1.8,8.4,6,9.9,7.8c1.4,1.8,2.8,4.6,3.2,8.2
				c0.9-1,2.1-3.9,2-5.9c1.9,1.8,4.3,3.6,10,3.7c5.6,0.1,9.2-4.4,10.7-8.5c-1,0.4-4,1.4-4,1.4c-0.1,0-3.4,1.1-7.1,0.6
				c-2.3-5.3-7.3-7.2-12.8-8.1c-2.5-0.4-6.7-1.5-9.6-3.8c-0.1-0.1-0.2-0.3-0.3-0.4c-0.9-1.2-1.3-2.7-1.3-4.2c0-0.6,0.1-1.2,0.2-1.8
				c0.1-0.5,0.3-0.9,0.5-1.3c0,0.2,0,0.4,0,0.6c0,0.8-0.1,4,1.9,6c1.5-0.4,3.4-1.8,4.1-3c0.5,3.6,3.4,6.4,9.1,8.3
				c-0.5-1.2-0.8-2.6-0.9-3c0.7,0.8,1.6,1.5,3,2c3.2,1.1,7.3,0.4,9.2-1c-0.5-0.2-1.8-0.8-2.2-1.1c1.7,0.4,3.8,0.8,7.2-0.6
				c1-0.4,1.8-1,2.3-1.7c-1.1,3.4-4.7,5.3-7.8,5.5c0,0-1.5,0.1-1.8,0.2c2.1,3.7,7.7,5.9,12.6,4.8c4.5-1,6.4-5.1,7.1-7
				c-0.2,2.5-1.2,5.7-2.5,7.9c4.5-0.7,10.7-4.7,11.5-10.8l0.1-1.7c0-2.8-0.9-5.4-2.8-7.8c1.9,0.8,3.5,2,5.6,3.9
				c0.4-5.2-1.9-7.9-2.7-8.9c4.5-2.2,8.6-7.2,9.2-12.4C92.5,56.3,90.9,52.4,89.1,49.7z M63.2,54.7c0.4,1.1,0.6,2,0.6,2.9
				c-0.4-0.1-0.9-0.2-0.9-0.2c-2.3-0.4-3.7-1.1-4.6-1.8c-0.8-1.1-1.8-2.9-2.4-4.4c2.6,0.5,5.2,1.5,6.9,2.8
				C63,54.2,63.1,54.5,63.2,54.7z M63.5,64.7c0,1-0.3,1.8-0.5,2.3c-0.4-0.2-0.7-0.5-1-0.7c-1.2-1.5-2-3.1-2-3.8c0.7,0,2,0.2,3.4,0.9
				C63.4,63.8,63.5,64.3,63.5,64.7z M43.2,67.5c-0.1-0.3-0.1-0.5-0.1-0.8c0-1.9,1.6-2.6,1.6-2.6l1.5-0.6c0.6-0.2,1.2-0.4,1.7-0.6
				C47,64.6,45.2,66.7,43.2,67.5z M49.4,55.2C49.4,55.2,49.4,55.2,49.4,55.2c-0.9,0.9-3.7,2-5-0.7c-0.7-1.4-0.2-3.3,0.4-4.2
				c1.4-2,3.5-3.3,6.2-3.7c-1.4,0.7-2.8,1.8-4.2,3.4c0.4,0.1,2.4,0.1,5.5,0.7C51.2,53,50.2,54.5,49.4,55.2z M50.6,69.5
				c1.7-2.4,3.2-6.6,3.9-11.6c0.8,4.6,2.4,8.4,3.7,10.2c0,0,1.8,2.4,2.4,3.2c-0.2,0.6-0.4,1-2.1,1.6c-1.5,0.5-2.5,1.3-3.2,2.4
				c0.2-1.2,0.6-2,0.6-2c0,0,0.3-0.5,0.3-0.5S54,69.4,50.6,69.5z M56.1,81.1c-0.3-0.2-0.5-0.4-0.6-0.6c0.6-0.1,1.4-0.2,1.4-0.2
				c0.9-0.1,4.5,0.2,5.7,1.7c0.1,0.1,0.2,0.3,0.3,0.4l-0.3,0C62.6,82.5,58.8,82.9,56.1,81.1z M85.7,60.2c-0.3,1.8-1.2,3.5-2.4,5
				c0-1.1,0.1-2.7-0.9-5c0.1-0.8,0.2-2.4,0.2-2.4c0-3.3-1.4-6.2-2.3-7.8c1.1,0.8,3.2,2.3,3.7,3.1c1.3,1.6,1.9,3.3,1.9,5.3
				C85.8,58.9,85.8,59.6,85.7,60.2z"/>
			<path class="st1" d="M62.7,83.1c-0.1,0-7.9,0.9-9.4-5.2c-0.9-3.6,0.5-6.4,0.5-6.4l0.1-0.2l-0.1-0.1c0,0-1.9-2.2-4.8-0.5
				c-1.8,1.1-2.9,0.9-3.3,0.8c0.4-0.4,1.2-1.5,2.8-3.7c2.4-3.3,3.7-7.7,4.2-14.8c0,0,0-1.1,0-2.1c-0.2,0.5-0.7,1.5-1,2.1
				c-0.3,0.6-0.9,1.7-2,2.6l-0.1,0.1c-1.1,1-2.6,1.6-3.7,1.9c-0.5,0.1-1,0.3-1.6,0.4c0.9,0.3,2.5,0.6,3.2,0.6
				c-1.1,0.6-2.3,1.5-3,2.8c2-0.7,3.6-1.2,4.4-1.1c0.1,0,0.3,0.1,0.3,0.5c0,0,0,0,0,0c0,1.9-3.3,6.7-6.9,7.5
				c-0.8-0.8-1.3-1.9-1.3-3.2c0-1,0.3-2.2,1.2-3.3c1.5-2,2.2-3.9,2.2-6.1c0-0.1,0-0.2,0-0.3l0-0.2l-0.2-0.1C43.2,55,42.4,54,42,52.9
				c-0.1-0.5-0.2-0.9-0.2-1.4c0-1,0.3-2.1,1-3.1c2.7-3.9,7.5-5,14.3-3.3l0.7,0.2l-0.5-0.6c-2.5-3.4-5.3-5.7-8.4-7
				C45,35.9,38.3,36.5,35.5,40c-2,2.5-2.4,5.2-2.4,6.9c0,0.2,0,0.3,0,0.4c-0.8-1.4-1.2-2.8-1.2-4.4c0-0.6,0.1-1.2,0.2-1.8
				c0.6-3.5,2.9-5,3.8-5.6c-5.2-0.3-9,3.7-10,6.4c-0.3,0.9-0.5,1.9-0.5,2.9c0,1.8,0.5,3.6,1.7,5c-1-0.3-2.4-0.4-4.3,0.2
				c-3.1,1-4.9,3.8-5.1,6l-0.1,0.5l0.5-0.3c2.5-1.4,6.1-1.8,8.4-0.8c1.1,0.4,1.9,1.1,2.7,1.8c-1.9-0.9-5.6-2-9.5,0.6
				c-3.3,2.4-3.6,6.3-3.6,6.5l0,0.6l0.5-0.3c0,0,2.7-1.9,4.7-2.1c-0.8,1-1.4,2.1-1.6,3.3l-0.1,0.5l0.5-0.2c3.3-1.4,6.7-0.3,7.8,1.6
				c-1.3,0.5-2.8,0.1-3.9-0.5l-0.5-0.3l0.1,0.5c0.3,1.8,1.7,5.9,7.8,6.3c-2.4,0.9-6.6,3.3-7.2,8.6c-0.1,0.5-0.1,1.1-0.1,1.6
				c0,6.7,5.3,10.4,7.7,12l1.5,1c2.9,1.9,6.7,4.3,7.9,8.5c0.5-1.9,0.2-3.6-0.1-4.4c2.3,2.4,5.1,4.8,10.9,4.9c5,0,8.4-3.8,8.6-4
				l0.7-0.8l-1,0.3c-0.1,0-8.8,3-14.1-2.7c1.9,0.5,3.6,1.4,5,2.3c-0.6-2.8-4.1-5.9-11.1-7.1c-3.3-0.6-9.1-2.1-11.8-6
				c-0.9-1.4-1.4-2.9-1.4-4.6c0-0.6,0.1-1.3,0.2-1.9c1.4-4.7,4.7-5.7,6.2-6c-1.1,1-3.1,3.2-3.1,6.9c0,0.7,0.1,1.5,0.2,2.3l0.2,0.8
				l0.3-0.7c0.5-1,1.5-3.2,2.5-4.2c0,0.4,0,0.7,0,0.7c0,1.6-0.2,4-0.6,5c1.8-1.4,2.6-2.9,3.3-4.3c0,0.5-0.1,1-0.1,1.4
				c0,3.6,1.3,6,5.7,7.6l0.5,0.2l-0.2-0.5c-0.4-1.2-0.5-2.5-0.5-3.6c0-0.4,0-0.8,0.1-1.1c0.5,2.2,1.4,3.8,3.9,4.6
				c2.9,1,6,0.5,7.2-0.2l0.4-0.2l-0.8-0.4c-1.1-0.6-3.5-1.7-4.4-4.4c-0.4-1.2-0.6-2.4-0.6-3.3c0-0.2,0-0.4,0-0.5
				c0.3,1.4,0.9,3.2,2.4,4.8c2.7,2.8,6.1,3.4,9.4,1.7c3.2-1.7,3.8-4.6,3.8-4.7l0.1-0.4L62.7,83.1z"/>
			<path class="st1" d="M87.6,50.6c-0.6-1.1-1.1-2-1.3-3.2c-0.4-2.4-0.5-4.3-0.5-5.7c0-1.5,0.1-2.5,0.2-3c-0.9,0.7-2.1,2.8-2.6,5.4
				c-0.7-3-2.2-6.8-5.8-9.4c-3.3-2.4-7-3.6-10.7-2.9c0.5,0.1,10.4,2.2,11.8,11c-1.5-1.2-3.3-4.3-3.6-5.9c-1.6,5,3.3,10.8,6.9,13.4
				c3.1,2.2,4.6,4.8,4.6,8c0,0.6-0.1,1.3-0.2,1.9c-0.7,4.1-3.8,7.4-8.4,9.3c2.4-2,3.4-4.4,3.5-8c-0.5,1-2.8,3.2-3.7,3.8
				c0.9-1.5,2.8-5,2.9-8.8c0-0.1,0-0.2,0-0.3c0-4.8-3-8.7-3.1-8.9l-0.5-0.7c0,0,0,0.9,0,1.1c0,1.2-0.2,5.9-3,8.8
				c0.6-1.8,1.1-4.1,1.1-6.4c0-2.1-0.4-4.1-1.4-5.6c-2.2-3.3-5.4-4.8-10.7-5c-4.8-0.2-6.2-3.2-6.2-3.3l-0.3-0.6l-0.2,0.7
				c0,0-0.2,0.7-0.2,1.8c0,1.9,0.6,4.9,4.2,7.1c1.6,1,2.9,2,3.8,2.9c-2.7-1.9-8.5-4.1-15,0.8c5.4-0.8,13.3,1.9,14.7,5.5
				c0.4,1.2,0.7,2.2,0.7,3.2c0,1.4-0.5,2.4-1.4,3.3l-0.2,0.2l0.2,0.2c0.9,1.2,1.2,2.4,1.2,3.5c0,1.5-0.6,2.7-0.9,3.2
				c-3.1-1.6-5.4-5.4-5.4-6.9c0-0.1,0-0.1,0-0.2c0-0.3,0.2-0.4,0.3-0.4c0.7-0.1,2.5,0.2,4.2,1.1c-0.5-1.2-1.7-2.2-2.9-2.8
				c0.7-0.1,2.4-0.3,3.3-0.6c-3.1-0.6-4.5-1.6-5.4-2.4l-0.1-0.1c-1.1-0.9-2.4-3-2.9-4.7c-0.1,1.1,0,3.1,0.1,3.4
				c0.6,6,2,10.6,4.1,13.5c1.1,1.5,1.9,2.6,2.6,3.4c0,0.1,0,0.2,0,0.2c-0.2,0.8-0.4,1.4-2.6,2.1c-2.3,0.8-3.4,2.2-3.5,4.6l0,0.3
				l0.3,0c1.4-0.1,5.1,0.4,7.3,2.9c1.5,1.7,2,4,1.3,6.9c-0.9,4-5,6.3-8.5,6.5l-0.6,0l0.5,0.4c1.8,1.6,5.3,2.8,9.2,1.8
				c4.4-1.1,6.2-5.2,6.8-6.9c0.4-1.2,0.6-2.8,0.6-4.5c0-1.1-0.1-2.2-0.3-3.1c1.3,1.4,2,3.6,2.3,6.8c0,0.4,0,0.9,0,1.3
				c0,2.9-0.6,5.8-1.4,7.3c2.4-0.8,7-4.6,7.7-10.3c0.1-0.6,0.1-1.1,0.1-1.7c0-3.3-1.3-6.2-4.1-8.9c3.4,0.9,5.3,2.1,6.6,3.2l0.6,0.5
				l-0.2-0.8c-0.7-3.2-3.8-5.4-5.8-6.3c5.1-0.8,11.7-5.4,12.3-13c0.1-0.7,0.1-1.4,0.1-2C89.8,54.4,88.6,52.3,87.6,50.6z"/>
			<path class="st3" d="M52.8,78c-0.2-0.9-0.3-1.8-0.3-2.6c0-2.1,0.6-3.6,0.8-4c-0.4-0.4-1.8-1.5-4-0.2c-2.9,1.7-4.1,0.6-4.2,0.6
				L45,71.6l0.2-0.2c0,0,0.9-1,3-3.9c2.2-3,3.6-7.8,4.1-14.2c-0.6,1.1-1.2,2.1-2.1,2.7l-0.1,0.1c-0.8,0.7-1.7,1.4-3.7,1.9
				c1,0.1,2.8,0.4,2.8,0.4s-2.4,1.1-3.1,2c1.1-0.4,2.3-0.6,2.9-0.5c0.5,0.1,0.7,0.5,0.7,1.1c0,2.1-3.5,7.3-7.5,8.1l-0.1,0L42.1,69
				c-0.9-0.9-1.6-2.2-1.6-3.7c0-1.2,0.4-2.4,1.2-3.6c1.4-1.9,2.1-3.8,2.1-5.8c0,0,0-0.1,0-0.1c-1-0.5-1.9-1.5-2.3-2.7
				c-0.2-0.5-0.2-1-0.2-1.6c0-1.2,0.4-2.3,1.1-3.4c2.7-3.9,7.5-5.1,14.1-3.6c-2.4-3-4.9-5.1-7.8-6.3C45,36.4,38.6,37,35.9,40.3
				c-2.8,3.4-2.4,7.6-2.2,8.5c-1.5-1.6-2.3-3.9-2.3-5.9c0-0.6,0.1-1.2,0.2-1.9c0.5-2.7,1.8-4.2,2.9-5c-4.1,0.6-7.2,3.7-8,6.1
				c-0.3,0.8-0.4,1.8-0.4,2.7c0,2.1,0.6,4,2.6,6.1c-1.9-0.8-3.1-1.2-5.6-0.4c-2.7,0.8-4.2,3.1-4.7,5.1c2.6-1.3,6.1-1.6,8.4-0.6
				c1.6,0.7,3.2,1.9,3.9,3.6c-1-0.5-5.7-3.6-10.7-0.2c-2.4,1.7-3.1,4.4-3.3,5.5c1-0.7,3.3-2.1,5.1-1.9l0.5,0l-0.4,0.4
				c-0.9,0.9-1.4,2-1.8,3.1c3.5-1.3,7.2,0.1,8.2,2.3l0.1,0.2l-0.2,0.1c-1.3,0.7-2.9,0.4-4.2-0.2c0.6,2.3,2.4,5.4,9,5.6
				c-0.6,0.4-7.7,2-8.5,8.9c-0.1,0.5-0.1,1-0.1,1.5c0,6.4,5,9.8,7.5,11.6l1.4,1c2.7,1.8,6,4,7.5,7.3c0-0.1,0-0.2,0-0.4
				c0-1.5-0.7-3-1.4-4c-0.6-0.9-1.1-1.4-1.6-1.9c0.7,0.4,2,1.5,2.6,2.2c2.5,2.6,5,5.5,11.3,5.6c3.4,0,6.2-2,7.4-3.1
				c-2.7,0.6-9.8,1.8-14.2-3.8l-0.4-0.5l0.7,0.1c1.8,0.3,3.4,1,4.6,1.7c-1.4-2-4.2-4.3-10-5.3c-3.3-0.6-9.4-2.1-12.2-6.2
				c-1-1.4-1.5-3.1-1.5-4.9c0-0.7,0.1-1.4,0.2-2.1c1.9-6.6,7.5-6.4,7.6-6.4l0.9,0l-0.7,0.5c-0.2,0.1-3.5,2.2-3.5,6.9
				c0,0.4,0,0.9,0.1,1.4c0.8-1.7,1.8-3.4,2.7-4l0.4-0.3l0,1.8c0,1.2,0,2.4-0.2,3.4c1.2-1.4,2-2.5,3-4.7c-0.1,1.3-0.1,2.1-0.1,3.4
				c0,3.3,1.2,5.4,4.9,6.9c-0.3-1.1-0.4-2.2-0.4-3.2c0-1.1,0.2-2.3,0.5-3.1c0.6,3.3,1.4,5.2,4.1,6.1c2.6,0.9,5.1,0.5,6.3,0.1
				c-1.2-0.6-3.6-1.9-4.6-4.6c-0.5-1.3-0.5-2.6-0.5-3.3c0-0.6,0.3-2.5,0.5-3.2c0,0.4,0.2,4.1,2.7,6.8c2.6,2.7,5.7,3.3,8.8,1.6
				c2.4-1.3,3.2-3.2,3.5-4C60.7,83.7,54.2,83.7,52.8,78z"/>
			<path class="st3" d="M85.2,41.7c0-0.5,0-0.9,0-1.2c-0.6,1.1-1.5,2.7-1.8,6c-0.4-2.2-1.8-8.2-6.3-11.4c-2.6-1.8-5.2-2.8-7.9-3
				c3.2,1.1,9.2,4.1,9.9,11.2l0.1,0.5l-0.4-0.2c-1.3-0.7-2.8-2.8-3.6-4.4c0.3,3.7,3.5,8.3,7,10.7c3.3,2.3,4.8,5,4.8,8.4
				c0,0.7-0.1,1.3-0.2,2.1c-0.8,4.8-4.5,8.7-10.9,10.2c3.4-2.1,4.6-4.9,4.9-7.4c-1.4,1.6-2.7,2.7-3.8,3.1l-0.8,0.3l0.5-0.7
				c0,0,3.2-4.6,3.3-9.3c0-0.1,0-0.2,0-0.3c0-3.5-1.7-6.6-2.6-7.9c-0.1,1.9-0.5,6.8-4,9.4l-0.8,0.6l0.4-0.9c0.8-1.9,1.4-4.6,1.4-7.3
				c0-2-0.4-3.9-1.3-5.3c-2.1-3.1-5.2-4.5-10.3-4.8c-3.8-0.2-5.6-2-6.3-3c0,0.3-0.1,0.7-0.1,1.1c0,1.8,0.6,4.5,3.9,6.6
				c2.3,1.4,5.5,4.1,5.6,5.7c-0.2-0.3-6.4-7.3-15.5-2.1c5.3-0.2,12.3,2.2,13.7,5.9c0.5,1.2,0.7,2.4,0.7,3.4c0,1.4-0.5,2.6-1.5,3.5
				c0.9,1.2,1.2,2.5,1.2,3.6c0,2.1-1.1,3.7-1.1,3.7l-0.1,0.2l-0.2-0.1c-3.3-1.6-6.1-6-5.9-7.8c0.1-0.5,0.3-0.8,0.7-0.8
				c0.7-0.1,1.9,0.1,2.9,0.5c-0.7-0.7-2.2-1.6-3.1-2c1-0.1,1.8-0.3,2.8-0.4c-2-0.6-2.9-1.2-3.7-1.9L57,56c-0.8-0.7-1.5-1.6-2.1-2.7
				c0.5,6.4,1.9,11.2,4.1,14.2c1.1,1.5,2,2.6,2.6,3.5l0.1,0.1l-0.1,0.4c-0.3,1-0.6,1.7-2.9,2.5c-2,0.7-3,1.9-3.1,3.8
				c1.7-0.1,5.3,0.6,7.5,3.1c1.2,1.3,1.7,2.9,1.7,4.8c0,0.8-0.1,1.6-0.3,2.5c-0.9,4-4.8,6.4-8.4,6.9c1.8,1.3,4.8,2.2,8.2,1.3
				c4.2-1.1,5.9-4.9,6.4-6.5c0.7-2.2,0.9-6.5-0.2-8.6c2.4,1.2,3.4,4.1,3.7,8.1c0,0.4,0.1,0.9,0.1,1.3c0,2.5-0.5,5-0.9,6.3
				c1.8-1.1,5.6-4.7,6.2-9.4c0.1-0.5,0.1-1.1,0.1-1.6c0-3.5-1.5-6.4-4.6-9.2l-0.7-0.7l1,0.2c3.6,0.8,5.6,1.9,7,3
				c-1.2-3.2-5.4-5.4-6.6-5.8C79.4,73,88.4,69,89.2,60.5c0.1-0.7,0.1-1.4,0.1-2c0-4-1.1-5.9-2.1-7.6c-0.6-1.1-1.2-2.1-1.4-3.3
				C85.3,45,85.2,43.1,85.2,41.7z"/>
		</g>
	</g>
</g>
<g id="タイトル">
</g>
</svg>
