<svg height="316.227766" viewBox="0 0 200 200" width="316.227766" xmlns="http://www.w3.org/2000/svg"><path d="m-.2-.1h200v200h-200z" fill="none"/><g fill="#ae4b96"><path d="m42.4 76.52-1.82-.6.62-.84a1.41 1.41 0 0 0 .27-.46c0-.07-.06-.12-.18-.17a.44.44 0 0 0 -.36 0 1.92 1.92 0 0 0 -.4.43l-1.78 2.33a1.79 1.79 0 0 0 -.34.55c0 .09.05.17.2.22a.4.4 0 0 0 .39.02 2.78 2.78 0 0 0 .5-.56l.49-.66 1.86.62-.14.21a5.4 5.4 0 0 1 -1 1.17 2.56 2.56 0 0 1 -1.19.42 3.68 3.68 0 0 1 -1.62-.2 2.71 2.71 0 0 1 -1.25-.72.89.89 0 0 1 -.22-.9 4.81 4.81 0 0 1 .8-1.23l1.21-1.44a7.48 7.48 0 0 1 .67-.72 1.85 1.85 0 0 1 .67-.36 2.64 2.64 0 0 1 .95-.12 3.86 3.86 0 0 1 1.08.2 2.81 2.81 0 0 1 1.1.61.88.88 0 0 1 .31.72 3 3 0 0 1 -.5 1zm5.91-.52-2.72 5.4-2-.66 1.41-2.44-.56-.19-1.44 2.43-2-.66 3.37-5.21 1.7.57-.97 1.76.53.18 1-1.72zm2.38.8-2.31 5.56-2-.67 2.62-5.48zm4.49 1.5-1.57 5.81-1.74-.58-.07-3.15-1 2.8-1.66-.56 2.24-5.62 1.42.48.2 2.69.74-2.36zm.68.23 2.84.95-.17 1.06-1.17-.39-.21 1.05 1.13.38-.19 1.13-1.16-.39-.27 1.38 1.41.47-.22 1.36-3.44-1.15zm7 4.06-1.68-.59v-.42a.72.72 0 0 0 0-.39.32.32 0 0 0 -.2-.15.27.27 0 0 0 -.25 0 .41.41 0 0 0 -.11.29.93.93 0 0 0 0 .46 1.86 1.86 0 0 0 .47.53 7.71 7.71 0 0 1 1.46 1.53 2.75 2.75 0 0 1 .26 1.49 2 2 0 0 1 -.23 1 1 1 0 0 1 -.76.36 3.15 3.15 0 0 1 -1.3-.18 3.87 3.87 0 0 1 -1.33-.74 1.91 1.91 0 0 1 -.64-.94 3.41 3.41 0 0 1 0-1.2l.06-.41 1.75.58-.09.79a1.2 1.2 0 0 0 0 .51.43.43 0 0 0 .26.2.26.26 0 0 0 .3-.05.61.61 0 0 0 .13-.37 1.36 1.36 0 0 0 -.11-.81 7.2 7.2 0 0 0 -.82-.87 11 11 0 0 1 -.84-.87 1.55 1.55 0 0 1 -.29-.59 1.9 1.9 0 0 1 0-.8 1.44 1.44 0 0 1 .34-.84 1 1 0 0 1 .68-.23 2.93 2.93 0 0 1 1.05.19 4.18 4.18 0 0 1 1.12.55 1.86 1.86 0 0 1 .6.65 2.5 2.5 0 0 1 .11 1zm.75-1.47 2.84 1v1.14l-1.17-.39v1.12l1.13.38.06 1.21-1.16-.39v1.48l1.41.47.08 1.46-3.45-1.16zm-22.67-9.45a13.58 13.58 0 1 1 25.52 8.55l.84.28a16.67 16.67 0 0 0 1.32-2.11c4.39-8.35 1.06-19-8.3-22.14s-18.42 3.38-20 12.68a17.66 17.66 0 0 0 -.21 2.48zm.64 9.64-5.82-2-3.4 4.69 1.74.58-24.35 35.18q3.27-.42 6.52-.54l20.78-33.67 1.75.58zm.84.28-23.56 37.58c1.95 0 3.9.09 5.84.26l3.74-6.94 1.56.51-3 6.67q2.58.31 5.13.84l14.13-37.63zm-7.79 21.74-1.34-.45c2.11-3.89 5.05-9.17 8.38-15-2.4 5.12-4.79 10.41-7.04 15.45zm3.46 18.67 12.8-37.61-2.66-.89-15 37.21q2.43.58 4.86 1.29zm18.11-27.39c.37-2 .59-3.37.68-4.25a8.84 8.84 0 0 0 0-2.2 3 3 0 0 0 -.64-1.51 3.32 3.32 0 0 0 -1.58-1l-2.66-.87-12 37.87q2.41.82 4.72 1.8l4.74-18.6 1 .34a2.16 2.16 0 0 0 2.23-.45 6.24 6.24 0 0 0 1.62-2.69 42.7 42.7 0 0 0 1.31-5.43zm-3.81 3.57q-.35.6-.81.45a1.22 1.22 0 0 1 -.24-.11l2.14-8.38a.83.83 0 0 1 .64.69 7 7 0 0 1 -.3 2.08l-.63 2.69a12.47 12.47 0 0 1 -.8 2.58zm4.89 22.51 1.47-12.62 2.32.78.69-8.29-2-.69.76-6.48 2 .65.46-5.6-4.53-1.44-7 40.82a67 67 0 0 1 8.17 5.49l.89-11.5zm9.21-31-2.66-.89-2.83 45.58c1.72 1.42 3.38 2.93 5 4.51z"/><path d="m93.2 86.81a6.78 6.78 0 0 0 2.73-.52 4.4 4.4 0 0 0 1.86-1.47 4.29 4.29 0 0 0 .82-2.11 39.31 39.31 0 0 0 .13-3.93v-3.16c0-1.89 0-3.22-.13-4a4.45 4.45 0 0 0 -2.75-3.56 7 7 0 0 0 -2.66-.49 6.78 6.78 0 0 0 -2.73.52 4.4 4.4 0 0 0 -2.69 3.58c-.08.77-.13 2.08-.13 3.93v3.16a38.83 38.83 0 0 0 .14 4 4.46 4.46 0 0 0 .85 2.11 4.31 4.31 0 0 0 1.9 1.45 7 7 0 0 0 2.66.49zm-.75-14.09a4 4 0 0 1 .2-1.71.64.64 0 0 1 .57-.3.57.57 0 0 1 .59.36 6 6 0 0 1 .19 1.65v8.47a9.08 9.08 0 0 1 -.14 2.06.59.59 0 0 1 -.62.44.58.58 0 0 1 -.61-.38 8.31 8.31 0 0 1 -.13-2z"/><path d="m83 89.6a6.23 6.23 0 0 0 -5-.23 3.73 3.73 0 0 0 -1.51 1.17 3.31 3.31 0 0 0 -.65 1.53 20 20 0 0 0 -.11 2.4v4.32a11 11 0 0 0 .37 3.21 3 3 0 0 0 1.45 1.7 5.75 5.75 0 0 0 2.78.61 4.85 4.85 0 0 0 2.74-.73 3.32 3.32 0 0 0 1.43-1.68 11.22 11.22 0 0 0 .32-3.25v-.58h-3.82v1.93a5.38 5.38 0 0 1 -.13 1.55.54.54 0 0 1 -.56.33.56.56 0 0 1 -.58-.33 5 5 0 0 1 -.13-1.41v-6.89a5.28 5.28 0 0 1 .13-1.46.57.57 0 0 1 .6-.34.53.53 0 0 1 .55.28 4.66 4.66 0 0 1 .12 1.39v2.57h3.84v-1.4a9.91 9.91 0 0 0 -.34-3.05 3.2 3.2 0 0 0 -1.5-1.64z"/><path d="m79 86.42h4.44v-6.67l3.56-11.75h-4.4c-.63 2.88-1.07 5.3-1.34 7.27q-.16-1.89-1.19-7.27h-4.41l3.34 11.75z"/><path d="m126.57 86.42.45-3c.22-1.3.39-2.54.51-3.71a61 61 0 0 0 1.47 6.71h4.45l-2.54-10.28 1.66-8.14h-4l-1 5c-.13-.77-.29-1.6-.49-2.5-.25-1.18-.42-2-.5-2.54h-4.68l1.74 8.16-1.74 10.3z"/><path d="m120 90.62a6.92 6.92 0 0 0 -.13 4.42 3.28 3.28 0 0 0 .78 1.18 16.84 16.84 0 0 0 1.89 1.38 11.74 11.74 0 0 1 1.8 1.34 2.76 2.76 0 0 1 .36 1.71 1.64 1.64 0 0 1 -.19.89.61.61 0 0 1 -.57.31.58.58 0 0 1 -.53-.24 2.4 2.4 0 0 1 -.15-1.07v-1.8h-3.57v1a7.74 7.74 0 0 0 .33 2.56 2.89 2.89 0 0 0 1.43 1.49 5.53 5.53 0 0 0 2.64.59 5.6 5.6 0 0 0 2.46-.51 2.94 2.94 0 0 0 1.43-1.25 5.49 5.49 0 0 0 .37-2.33 5.67 5.67 0 0 0 -.67-3.15 10.82 10.82 0 0 0 -3.23-2.5 3 3 0 0 1 -1.09-.9 2.52 2.52 0 0 1 -.2-1.12 1.64 1.64 0 0 1 .18-.86.59.59 0 0 1 .53-.28.49.49 0 0 1 .45.21 2 2 0 0 1 .14 1v1.09h3.54v-.58a6.43 6.43 0 0 0 -.34-2.5 2.69 2.69 0 0 0 -1.4-1.22 6.11 6.11 0 0 0 -2.55-.48 5.71 5.71 0 0 0 -2.34.44 2.94 2.94 0 0 0 -1.37 1.18z"/><path d="m136.19 101.08h-2.82v-3.25h2.4v-2.81h-2.4v-2.8h2.56v-2.96h-6.4v14.78h6.66z"/><path d="m104.54 78.04 2.49 8.38h4.21v-18.44h-4.01v8.3l-2.69-8.3h-4.01v18.44h4.01z"/><path d="m96.58 89.26h3.84v14.78h-3.84z"/><path d="m101.97 104.04h3.21v-6.72l2 6.72h3.37v-14.78h-3.22v6.65l-2.15-6.65h-3.21z"/><path d="m149.54 89.26-2 14.78h4l.23-2.66h1.37l.21 2.66h3.93l-2.2-14.78zm2.2 9.5q.15-2 .74-6.21c.19 2.47.39 4.54.58 6.21z"/><path d="m146.05 104.04v-11.82h2.28v-2.96h-8.4v2.96h2.27v11.82z"/><path d="m173.11 90.22a2.81 2.81 0 0 0 -1.27-.72 9.34 9.34 0 0 0 -2.42-.24h-3.87v14.74h3.85v-6h1a5.1 5.1 0 0 0 2-.34 2 2 0 0 0 1.07-1 5.25 5.25 0 0 0 .29-2.06v-1.21a10.24 10.24 0 0 0 -.15-2 2.44 2.44 0 0 0 -.5-1.17zm-2.49 4a1.92 1.92 0 0 1 -.21 1.09.88.88 0 0 1 -.73.26h-.28v-3.78a1.49 1.49 0 0 1 1 .22 1.45 1.45 0 0 1 .24 1z"/><path d="m178.78 97.83h2.4v-2.81h-2.4v-2.8h2.56v-2.96h-6.4v14.78h6.66v-2.96h-2.82z"/><path d="m91.19 94.54h-1.14v-5.28h-3.85v14.78h3.85v-6.21h1.14v6.21h3.85v-14.78h-3.85z"/><path d="m182.71 89.26h3.84v14.78h-3.84z"/><path d="m117.95 78.67h3v-3.5h-3v-3.5h3.21v-3.69h-8v18.44h8.31v-3.69h-3.52z"/><path d="m118.75 101.08h-2.82v-3.25h2.4v-2.81h-2.4v-2.8h2.57v-2.96h-6.41v14.78h6.66z"/></g><path d="m114.42 128.12a1.44 1.44 0 0 0 -1.08-.52.78.78 0 0 0 -.82.86c0 .52.35.74 1 1.08a2.61 2.61 0 0 1 1.78 2.46 2.49 2.49 0 0 1 -2.58 2.69 3.39 3.39 0 0 1 -2.36-.93l1-1.41a1.93 1.93 0 0 0 1.34.62.79.79 0 0 0 .81-.84c0-.54-.39-.81-1.1-1.17a2.42 2.42 0 0 1 -1.66-2.39 2.48 2.48 0 0 1 2.56-2.63 2.83 2.83 0 0 1 2.12.84z" fill="#cc88b7"/><path d="m116.39 134.43v-8.3h4v1.65h-2.22v1.63h2v1.59h-2v1.79h2.36v1.68z" fill="#cc88b7"/><path d="m124.3 131.41h-.81v3h-1.84v-8.3h2.58a2.38 2.38 0 0 1 2.54 2.6 2.44 2.44 0 0 1 -2.47 2.7zm-.21-3.7h-.6v2.17h.6c.51 0 .92-.4.92-1.11s-.41-1.06-.92-1.06z" fill="#cc88b7"/><path d="m130.31 127.72v6.71h-1.84v-6.71h-1.47v-1.59h4.89v1.59z" fill="#cc88b7"/><path d="m132.57 134.43v-8.3h4v1.65h-2.22v1.63h2v1.59h-2v1.79h2.36v1.68z" fill="#cc88b7"/><path d="m143.55 134.43.07-5.7h-.05l-1.4 5.7h-1.32l-1.35-5.7.06 5.7h-1.7v-8.3h2.37l1.34 5.35h.05l1.3-5.35h2.51v8.3z" fill="#cc88b7"/><path d="m149.62 134.43h-2.75v-8.3h2.48c1 0 2.45.34 2.45 2.13a1.85 1.85 0 0 1 -1 1.82 1.89 1.89 0 0 1 1.32 2 2.25 2.25 0 0 1 -2.5 2.35zm-.37-6.74h-.64v1.79h.65a.83.83 0 0 0 .89-.91.81.81 0 0 0 -.9-.88zm0 3.16h-.68v2h.71a.91.91 0 0 0 1-1 1 1 0 0 0 -.99-1z" fill="#cc88b7"/><path d="m153.25 134.43v-8.3h4v1.65h-2.25v1.63h2v1.59h-2v1.79h2.36v1.68z" fill="#cc88b7"/><path d="m162 134.43-1.11-3.31h-.55v3.31h-1.84v-8.3h2.67a2.27 2.27 0 0 1 2.54 2.5 2.09 2.09 0 0 1 -1.17 2.1l1.42 3.7zm-1.07-6.73h-.59v2.1h.55a1 1 0 0 0 1-1.07.9.9 0 0 0 -.99-1.03z" fill="#cc88b7"/><path d="m164.32 102.84v-.12l-.32-2.72v-.12l-.19-1.85v-.03-.23-.06-.18h-.2l.12-.57v-.07-.17-.07-.17-.07-.17l.18-.83v-.06h-.46l.12-.57v-.08-.16-.08-.16-.08-.16l.18-.83v-.07h-.46l.12-.57v-.07-.17-.07-.17-.07-.17l.59-.87v-.06h-.46l.12-.57v-.08-.16-.08-.16-.08-.16l.18-.83v-.06h-.46l.12-.58v-.07-.17-.07-.17-.07-.17l.18-.83v-.07h-.46l.12-.57v-.07-.17-.07-.17-.07-.17l.17-.83v-.06h-.46l.12-.57v-.08-.16-.08-.16-.08-.16l.18-.83v-.06h-.46l.12-.58v-.07-.17-.07-.17-.07-.17l.99-.9v-.07h-.94v-.5h-.3v-.13h-.14v-.19h-.42v-.52-.11-1.78-.12-.12h-.2v-.7h.09v-.31h-.52v-2.63a.15.15 0 0 0 -.15-.15.15.15 0 0 0 -.15.15v2.63h-.52v.31h.09v.7h-.5v.12 1.18.11.77.11.34h-.42v.19h.08v.13h-.3v.5h-.93v.09l.17.82v.17.07.17.07.17.07l.12.58h-.45v.06l.39.82v.16.08.16.08.16.08l.12.57h-.45v.06l.17.83v.17.07.17.07.17.07l.12.57h-.45v.07l.17.83v.17.07.17.07.17.07l.12.58h-.45v.06l.17.83v.16.08.16.08.16.08l.12.57h-.45v.15l.17.83v.17.07.17.07.17.07l.12.57h-.45v.07l.97.81v.16.08.16.08.16.08l.12.57h-.45v.06l.17.83v.17.07.17.07.17.07l.12.57h-.2v.18.06.23.06l-.19 1.85v.12l-.28 2.68v.12.31l-.1.89h6.08l-.09-.89z" fill="#f7b52d"/><path d="m84.55 115.88c0 1.48 0 2.53-.1 3.15a3.57 3.57 0 0 1 -.66 1.7 3.49 3.49 0 0 1 -1.49 1.17 5.35 5.35 0 0 1 -2.19.41 5.73 5.73 0 0 1 -2.13-.38 3.59 3.59 0 0 1 -2.21-2.86 31.87 31.87 0 0 1 -.11-3.19v-2.53c0-1.48 0-2.54.11-3.15a3.53 3.53 0 0 1 .66-1.7 3.43 3.43 0 0 1 1.49-1.17 5.35 5.35 0 0 1 2.19-.42 5.54 5.54 0 0 1 2.13.39 3.49 3.49 0 0 1 1.52 1.17 3.58 3.58 0 0 1 .69 1.69c.07.6.1 1.67.1 3.19zm-3.84-4.88a4.92 4.92 0 0 0 -.11-1.32.46.46 0 0 0 -.47-.28.5.5 0 0 0 -.46.23 3.2 3.2 0 0 0 -.16 1.37v6.9a6.91 6.91 0 0 0 .1 1.59.46.46 0 0 0 .49.3.47.47 0 0 0 .5-.34 7 7 0 0 0 .11-1.66z" fill="#ae4b96"/><path d="m86 107.23h3.87a9.3 9.3 0 0 1 2.41.24 2.7 2.7 0 0 1 1.27.71 2.49 2.49 0 0 1 .58 1.13 10.17 10.17 0 0 1 .15 2v1.29a5.22 5.22 0 0 1 -.3 2.06 2 2 0 0 1 -1.07 1 5.1 5.1 0 0 1 -2 .34h-1v6h-3.91zm3.84 2.52v3.76h.28a.88.88 0 0 0 .74-.26 1.88 1.88 0 0 0 .2-1.08v-1.17a1.48 1.48 0 0 0 -.23-1 1.52 1.52 0 0 0 -1-.25z" fill="#ae4b96"/><path d="m95.37 107.23h6.41v3h-2.57v2.77h2.41v2.81h-2.41v3.25h2.79v3h-6.63z" fill="#ae4b96"/><path d="m111.72 107.23v14.77h-3.37l-2-6.71v6.71h-3.21v-14.77h3.21l2.16 6.65v-6.65z" fill="#ae4b96"/><path d="m124.4 119.48v2.52h-8.12v-2.1q3.6-5.91 4.28-7.3a5.46 5.46 0 0 0 .68-2.19 1.67 1.67 0 0 0 -.2-.9.71.71 0 0 0 -.63-.29.69.69 0 0 0 -.63.32 2.91 2.91 0 0 0 -.2 1.31v1.4h-3.31v-.53a12.29 12.29 0 0 1 .13-2 3.54 3.54 0 0 1 .63-1.41 3.22 3.22 0 0 1 1.31-1 5.51 5.51 0 0 1 5.25.73 3.69 3.69 0 0 1 1.13 2.76 6.51 6.51 0 0 1 -.64 2.69 55 55 0 0 1 -3.74 6z" fill="#ae4b96"/><path d="m134.53 112.23v4.93a11.75 11.75 0 0 1 -.18 2.44 3.47 3.47 0 0 1 -.76 1.44 3.18 3.18 0 0 1 -1.39.95 5.17 5.17 0 0 1 -1.81.3 6.8 6.8 0 0 1 -2.2-.31 3 3 0 0 1 -1.4-1 4.18 4.18 0 0 1 -.74-1.37 8.75 8.75 0 0 1 -.22-2.28v-5.15a10 10 0 0 1 .35-3 3 3 0 0 1 1.4-1.63 5 5 0 0 1 2.53-.61 5.24 5.24 0 0 1 2.18.43 3.75 3.75 0 0 1 1.43 1 3.36 3.36 0 0 1 .64 1.38 12.82 12.82 0 0 1 .17 2.48zm-3.69-1.23a5.46 5.46 0 0 0 -.11-1.48.5.5 0 0 0 -.53-.29.53.53 0 0 0 -.55.31 4.81 4.81 0 0 0 -.13 1.46v7.21a5.48 5.48 0 0 0 .12 1.55.66.66 0 0 0 1.08 0 4.85 4.85 0 0 0 .12-1.39z" fill="#ae4b96"/><path d="m141.54 107.23v14.77h-3.69v-7.92a13.27 13.27 0 0 0 -.08-2.06.76.76 0 0 0 -.45-.53 4.67 4.67 0 0 0 -1.65-.18h-.36v-1.72a6.71 6.71 0 0 0 4.06-2.36z" fill="#ae4b96"/><path d="m143 118.08h3.69v1.3a.69.69 0 0 0 .22.45.77.77 0 0 0 .54.18.61.61 0 0 0 .46-.17.71.71 0 0 0 .21-.45c0-.18 0-.55 0-1.1v-2.36a1.83 1.83 0 0 1 -.82.89 2.82 2.82 0 0 1 -1.36.3 3 3 0 0 1 -1.79-.55 2.35 2.35 0 0 1 -1-1.31 8.12 8.12 0 0 1 -.21-2.07v-1.19a15.73 15.73 0 0 1 .13-2.31 3 3 0 0 1 .63-1.4 3.29 3.29 0 0 1 1.42-1 5.63 5.63 0 0 1 2.1-.36 6.2 6.2 0 0 1 2.42.41 3.24 3.24 0 0 1 1.47 1.19 3.47 3.47 0 0 1 .61 1.62c.05.56.08 1.66.08 3.28v2.06c0 1.75 0 2.93-.07 3.52a3.33 3.33 0 0 1 -.64 1.69 3.41 3.41 0 0 1 -1.52 1.19 5.86 5.86 0 0 1 -2.22.4 5.56 5.56 0 0 1 -2.55-.51 3 3 0 0 1 -1.42-1.41 5.36 5.36 0 0 1 -.38-2.29zm3.69-4.61c0 .62.08 1 .24 1.15a.75.75 0 0 0 .5.22.6.6 0 0 0 .56-.28 2.24 2.24 0 0 0 .18-1.09v-2.68a2.91 2.91 0 0 0 -.17-1.27.59.59 0 0 0 -.56-.3.71.71 0 0 0 -.49.23c-.17.15-.26.57-.26 1.25z" fill="#ae4b96"/><path d="m78.79 125.82a2.35 2.35 0 0 1 1.95.88 7.71 7.71 0 0 1 0 7 2.32 2.32 0 0 1 -1.94.88 2.45 2.45 0 0 1 -2-1 7.82 7.82 0 0 1 .07-6.91 2.35 2.35 0 0 1 1.92-.85zm0 1.36a.82.82 0 0 0 -.53.19 1.3 1.3 0 0 0 -.36.68 9.51 9.51 0 0 0 -.17 2.14 9.35 9.35 0 0 0 .15 2.07 1.37 1.37 0 0 0 .39.75.78.78 0 0 0 .52.19.83.83 0 0 0 .54-.19 1.35 1.35 0 0 0 .36-.68 13.94 13.94 0 0 0 0-4.21 1.43 1.43 0 0 0 -.39-.75.78.78 0 0 0 -.51-.19z" fill="#cc88b7"/><path d="m82.61 132.14 1.59-.14a1.54 1.54 0 0 0 .41.93 1.13 1.13 0 0 0 .81.32 1.09 1.09 0 0 0 .85-.39 1.44 1.44 0 0 0 .35-1 1.4 1.4 0 0 0 -.33-1 1.06 1.06 0 0 0 -.81-.36 3 3 0 0 0 -.76.12l.18-1.33a1.46 1.46 0 0 0 1-.29 1.06 1.06 0 0 0 .35-.82.9.9 0 0 0 -.26-.69.92.92 0 0 0 -.68-.25 1 1 0 0 0 -.72.29 1.34 1.34 0 0 0 -.36.85l-1.51-.26a3.38 3.38 0 0 1 .47-1.24 2.22 2.22 0 0 1 .89-.73 3 3 0 0 1 1.28-.26 2.54 2.54 0 0 1 1.94.77 2 2 0 0 1 .6 1.42 2 2 0 0 1 -1.23 1.8 2 2 0 0 1 1.17.71 2 2 0 0 1 .44 1.32 2.57 2.57 0 0 1 -.82 1.93 2.83 2.83 0 0 1 -2 .79 2.8 2.8 0 0 1 -1.93-.67 2.66 2.66 0 0 1 -.92-1.82z" fill="#cc88b7"/><path d="m90.06 131.44v-1.64h3.23v1.64z" fill="#cc88b7"/><path d="m98 125.82a2.32 2.32 0 0 1 1.94.88 7.67 7.67 0 0 1 0 7 2.33 2.33 0 0 1 -1.94.88 2.46 2.46 0 0 1 -2-1 7.86 7.86 0 0 1 .08-6.91 2.34 2.34 0 0 1 1.92-.85zm0 1.36a.78.78 0 0 0 -.53.19 1.18 1.18 0 0 0 -.36.68 9 9 0 0 0 -.17 2.14 9.35 9.35 0 0 0 .15 2.07 1.44 1.44 0 0 0 .38.75.78.78 0 0 0 .53.19.8.8 0 0 0 .53-.19 1.21 1.21 0 0 0 .36-.68 8.89 8.89 0 0 0 .17-2.14 9.48 9.48 0 0 0 -.15-2.07 1.44 1.44 0 0 0 -.38-.75.8.8 0 0 0 -.53-.19z" fill="#cc88b7"/><path d="m103.4 129.79a1.84 1.84 0 0 1 -.93-.73 2 2 0 0 1 -.29-1 2.11 2.11 0 0 1 .67-1.58 3.22 3.22 0 0 1 3.8 0 2.07 2.07 0 0 1 .67 1.58 1.83 1.83 0 0 1 -.31 1.06 1.87 1.87 0 0 1 -.87.71 2.34 2.34 0 0 1 1.09.84 2.28 2.28 0 0 1 .37 1.27 2.54 2.54 0 0 1 -.76 1.92 2.72 2.72 0 0 1 -2 .75 3.05 3.05 0 0 1 -2-.62 2.38 2.38 0 0 1 -.91-2 2.45 2.45 0 0 1 .34-1.28 2.2 2.2 0 0 1 1.13-.92zm.18 2a1.54 1.54 0 0 0 .35 1.06 1.14 1.14 0 0 0 .87.38 1.1 1.1 0 0 0 .84-.37 1.5 1.5 0 0 0 .33-1 1.39 1.39 0 0 0 -.33-1 1.15 1.15 0 0 0 -.86-.36 1 1 0 0 0 -.9.41 1.52 1.52 0 0 0 -.3.9zm.16-3.67a1.06 1.06 0 0 0 .27.77 1 1 0 0 0 .74.27 1 1 0 0 0 1-1 1 1 0 0 0 -1-1 1 1 0 0 0 -1 1z" fill="#cc88b7"/></svg>