<svg height="308.78607" viewBox="0 0 42.689999 40.98" width="323.848805" xmlns="http://www.w3.org/2000/svg" xmlns:xlink="http://www.w3.org/1999/xlink"><clipPath id="a"><path d="m0 841.89h595.276v-841.89h-595.276z"/></clipPath><g clip-path="url(#a)" fill-rule="evenodd" transform="matrix(1.25 0 0 -1.25 -288.3457825 601.8682825)"><path d="m251.125 462.706h1.294l-1.558-1.586-1.798-1.824-.144-.072-.12-.096-.144-.072h-.048-.024v-.024l-.048-.049h-.096-.048-.024v-.023l-.143-.048-.336-.048h-3.501-3.212l.599-1.369h2.11 3.98 2.446l.191.025.096.023h.12l.192.048.239.072.192.12.216.145.192.168.096.095.048.048v.025h.024.048l2.134 2.113 1.846 1.873.264.264.287.168.312.095.36-.024h1.198.815l4.46 4.467h-2.422-4.675-2.949-.504l-.431-.12-.408-.193-.335-.336-2.038-2.041-1.99-1.992-.096-.049-.048-.024-.024-.048-.144-.12-.287-.168-.336-.096-.336-.024h-2.302-3.764-1.966l.959-2.209h3.333 3.788l.384.049.191.047.216.048.384.241.192.143.216.145 1.702 1.777.287.239.144.096.168.048.288.096z" fill="#2c5ba3"/><path d="m264.119 466.499-3.524-3.529-.288-.529-.143-.264-.121-.287-.311-.53-.288-.551-.671-1.009-.36-.48-.335-.505-.408-.431-.384-.456-.407-.433-.12-.096-.096-.12-.192-.24-.24-.192-.12-.096-.095-.12-.432-.433-.456-.384-.239-.192-.12-.096-.096-.12-1.007-.696-1.007-.624-1.055-.528-.527-.216-.504-.24-1.103-.361-.551-.144-.528-.144-.575-.096-.551-.096-.576-.073-.288-.023-.263-.048h-.48l-1.031.071-.935.145-.48.12-.431.12-.839.288-.432.193-.384.191-.743.456-.695.553-.335.312-.288.288-.6.72-.263.385-.216.359-.24.409-.192.408-.311.841-.264.936-.096.48-.048.48-.072 1.032v.529l.048.504h-5.73l-.048-.672.024-.672.024-.649.072-.648.072-.601.144-.624.143-.599.192-.601.192-.553.24-.551.239-.529.312-.528.312-.481.359-.503.36-.481.432-.479.407-.409.456-.408.455-.385.504-.36.504-.311.527-.289 1.127-.528 1.175-.385.623-.168.647-.143.648-.097.695-.095.719-.073.743-.048 1.631.097.815.096.815.12.767.168.816.192.767.239.815.265.767.313.767.336 1.535.768.719.456.767.48.72.505.767.528.336.311.359.288.336.313.359.288.312.336.336.313.311.335.336.313.599.72.576.72.551.769.552.768.479.84.48.84.096.24.048.122.071.095.24.432.432.889.384.96.383.96.36 1.009z" fill="#6dbb50"/><path d="m231.848 462.897h2.445 4.628 2.949l.096.024h.119l.24.025.216.048.24.048.384.24.168.144.191.144 2.038 2.041 1.99 1.993.264.288.335.168.336.096h.384 2.277 3.765 1.966l-.983 2.209h-3.285-3.788-.456l-.407-.144-.384-.216-.311-.337-1.775-1.776-.311-.216-.288-.144-.288-.073h-.288-1.27l1.558 1.562 1.822 1.824.216.216.264.144.287.096h.36 3.549 3.212l-.623 1.321h-2.11-4.004-2.421-.456l-.431-.144-.408-.264-.384-.384-2.11-2.089-1.87-1.897-.288-.192-.287-.144h-.096-.048-.024v-.025l-.144-.047-.336-.024h-1.174-.791z" fill="#6dbb50"/><path d="m231.32 463.546 3.525 3.554.528 1.128.599 1.081.647 1.032.336.504.383.456.767.937.84.864.887.84.959.745.959.72 1.007.624 1.031.552 1.079.433 1.055.384 1.103.264 1.126.192 1.175.096h.456l.983-.024.48-.048.479-.096.887-.216.887-.312.791-.36.36-.216.384-.264.695-.553.671-.648.288-.312.288-.361.479-.744.408-.792.167-.408.168-.456.24-.889.072-.456.072-.504.048-1.033v-1.08h5.754v1.368l-.048.673-.048.624-.096.648-.12.601-.143.6-.168.576-.216.576-.24.552-.263.529-.288.504-.671.985-.36.48-.384.432-.455.456-.432.408-.479.409-.48.336-.527.336-.528.288-.551.288-.552.216-.599.24-.6.192-.647.169-.623.119-.696.12-.671.073-.719.071h-.719l-1.655-.071-1.606-.217-1.607-.36-1.558-.504-1.558-.624-1.511-.793-1.51-.936-1.439-1.081-.743-.552-.695-.624-.672-.624-.623-.697-.623-.672-.576-.744-.575-.744-.504-.817-.527-.792-.48-.864-.455-.865-.408-.936-.407-.937-.36-.984-.36-1.008-.288-1.057z" fill="#2c5ba3"/></g></svg>