<svg height="234.520788" viewBox="0 0 59.814179 32.907044" width="426.401433" xmlns="http://www.w3.org/2000/svg"><g fill="#a72c31" transform="matrix(.43093478923 0 0 -.43093478923 -192.33179426628 72.27207028387)"><path d="m0 0c-1.275-1.439-2.748-2.846-4.446-4.197-9.742-7.747-20.271-11.866-20.301-11.877l-.301-.119-.309.102c-.027.008-9.168 2.938-20.515 11.894l-.014.012-.002.001v.001c-1.311 1.037-2.515 2.158-3.606 3.348-.251.275-.497.554-.738.835h2.435c.943-.991 1.959-1.921 3.042-2.777l.015-.011.003-.002c9.882-7.799 17.989-10.893 19.635-11.476 1.762.724 10.949 4.662 19.53 11.486 1.135.904 2.163 1.833 3.094 2.78zm-38.865 51.039v.001c5.464 1.287 10.423 6.006 12.791 8.26l.292.277.624.592.623-.592.271-.26c2.571-2.449 8.249-7.86 14.296-8.532 1.423-.159 2.872-.054 4.311.419h.003c1.45.477 2.898 1.328 4.306 2.663l.661.624 7.329-7.815.497-.528-.405-.598-.004-.006c-.347-.513-.657-1.141-.929-1.858-.28-.74-.521-1.578-.72-2.485-1.028-4.713-.862-11.088.83-15.298l.003-.007.067-.17v-.002c.355-.919.656-1.975.873-3.136.216-1.149.351-2.413.378-3.762.135-6.813-2.522-15.74-11.678-23.023-9.743-7.747-20.271-11.865-20.301-11.877l-.301-.119-.309.102c-.027.008-9.169 2.939-20.515 11.894l-.014.012-.002.001v.002c-1.311 1.036-2.515 2.157-3.606 3.347-1.103 1.202-2.1 2.48-2.982 3.815-4.551 6.879-6.102 15.295-3.779 22.852l.019.06h.001c.256.836.476 1.756.658 2.732.183.98.326 2.005.427 3.045.508 5.324-.049 11.152-1.899 13.881l-.407.598.495.528 6.717 7.156.622.662.661-.627c1.652-1.565 3.352-2.468 5.045-2.88 1.69-.412 3.394-.339 5.047.052zm.408-1.763h-.001v-.001c-1.908-.451-3.89-.531-5.883-.046-1.754.428-3.499 1.29-5.189 2.72l-5.644-6.013c1.788-3.254 2.332-9.121 1.822-14.437-.105-1.105-.254-2.184-.446-3.208-.192-1.027-.429-2.013-.709-2.926v-.004l-.019-.06c-2.16-7.03-.701-14.883 3.559-21.322.831-1.255 1.768-2.457 2.804-3.587 1.044-1.139 2.183-2.202 3.408-3.169l.015-.011.003-.002c9.882-7.798 17.989-10.893 19.635-11.476 1.762.724 10.949 4.662 19.53 11.486 8.621 6.857 11.124 15.209 10.997 21.571-.024 1.236-.149 2.399-.349 3.464-.197 1.053-.466 1.999-.781 2.815v-.002l-.066.169c-1.821 4.537-2.012 11.34-.918 16.346.214.984.482 1.908.797 2.739.223.591.472 1.134.742 1.62l-5.634 6.008c-1.407-1.193-2.855-1.988-4.307-2.467-1.7-.56-3.407-.685-5.075-.498-6.381.71-12.143 5.981-14.993 8.688-2.596-2.463-7.607-7.058-13.295-8.397" transform="translate(503.769 107.541)"/><path d="m0 0v.444h.21c.169 0 .305.029.389.083.09.063.132.194.132.402v3.041c0 .296-.042.479-.124.548-.079.059-.312.099-.688.099v.446c.747.017 1.329.184 1.75.471h.443v-4.575c0-.181.031-.322.092-.403.068-.075.196-.112.416-.112h.204v-.444zm5.575 3.656c0-.462.049-.784.139-.987.082-.192.226-.278.444-.278.198 0 .349.074.442.248.093.162.136.464.136.899 0 .6-.043 1.002-.157 1.204-.101.215-.247.331-.45.331-.115 0-.214-.051-.311-.127-.096-.073-.162-.187-.194-.338-.034-.155-.049-.479-.049-.952m1.061-1.535c-.092-.066-.211-.108-.339-.157-.124-.02-.265-.061-.397-.061-.476 0-.889.172-1.232.475-.342.317-.509.744-.509 1.264 0 .625.208 1.085.603 1.403s.848.468 1.345.468c.586 0 1.058-.201 1.433-.602.368-.407.56-1.014.56-1.813 0-.967-.235-1.741-.737-2.32-.486-.581-1.115-.887-1.909-.887-.388 0-.674.068-.881.193-.188.113-.281.269-.281.443 0 .13.044.229.137.312.092.086.203.125.344.125.098 0 .191-.035.274-.068.074-.057.175-.147.269-.285.131-.167.282-.247.459-.247.253 0 .444.117.581.392.131.253.223.712.28 1.365m3.57-.421c0-.479.045-.819.153-1.04.098-.206.256-.307.474-.307.176 0 .314.083.394.251.096.161.144.463.144.93 0 .617-.057 1.014-.161 1.201-.099.172-.25.265-.444.265-.117 0-.234-.037-.327-.12-.096-.091-.159-.211-.198-.35-.027-.139-.035-.418-.035-.83m.074 1.57c.241.125.497.192.787.192.453 0 .854-.137 1.197-.432.341-.295.509-.719.509-1.274 0-.599-.205-1.061-.609-1.392-.388-.319-.841-.473-1.32-.473-.564 0-1.034.203-1.421.609-.388.419-.582 1.005-.582 1.76 0 .567.093 1.113.295 1.623.194.516.508.92.953 1.197.432.3.913.433 1.408.433.324 0 .602-.057.822-.176.212-.122.329-.264.329-.464 0-.114-.051-.21-.142-.317-.094-.097-.215-.143-.352-.143-.176 0-.36.124-.541.366-.116.167-.278.255-.466.255-.238 0-.43-.15-.579-.446-.141-.284-.244-.722-.288-1.318m4.52-.517c0-.878.033-1.487.106-1.85.081-.37.244-.539.505-.539.223 0 .366.149.45.431.066.304.101.933.101 1.912 0 .934-.035 1.569-.111 1.881-.092.314-.247.485-.477.485-.212 0-.359-.162-.443-.456-.093-.308-.131-.925-.131-1.864m-1.407 0c0 .903.173 1.591.542 2.059.377.478.855.701 1.451.701.576 0 1.058-.223 1.438-.695.377-.462.56-1.134.56-2.019 0-1.007-.183-1.732-.55-2.195-.362-.478-.851-.713-1.442-.713-.426 0-.804.116-1.114.374-.325.262-.548.584-.686.964-.14.396-.199.91-.199 1.524m-13.392-2.753v.444h.209c.169 0 .305.029.388.084.091.062.133.193.133.4v3.042c0 .296-.042.479-.125.548-.077.059-.311.099-.688.099v.446c.748.016 1.33.184 1.751.471h.443v-4.575c0-.181.031-.322.092-.403.068-.075.197-.112.416-.112h.204v-.444zm5.574 3.656c0-.462.049-.784.139-.987.082-.192.226-.278.444-.278.198 0 .349.074.442.248.093.162.135.464.135.899 0 .6-.042 1.002-.156 1.204-.101.215-.247.331-.45.331-.115 0-.214-.051-.311-.127-.096-.073-.162-.187-.194-.338-.033-.155-.049-.479-.049-.952m1.061-1.535c-.092-.066-.211-.108-.339-.157-.124-.02-.265-.061-.397-.061-.476 0-.89.172-1.232.475-.341.317-.509.744-.509 1.264 0 .625.208 1.085.603 1.404.394.318.848.468 1.345.468.586 0 1.058-.203 1.433-.603.367-.407.56-1.014.56-1.813 0-.967-.235-1.741-.737-2.32-.487-.581-1.115-.887-1.909-.887-.388 0-.674.068-.881.193-.188.113-.281.269-.281.444 0 .129.044.228.137.311.092.086.203.125.343.125.1 0 .192-.036.275-.068.073-.057.175-.147.269-.285.131-.167.283-.247.459-.247.252 0 .444.117.581.392.131.252.223.711.28 1.365m3.57-.42c0-.48.046-.82.153-1.041.098-.206.255-.307.474-.307.176 0 .314.083.395.251.094.161.143.464.143.93 0 .617-.057 1.013-.161 1.201-.099.172-.25.266-.444.266-.117 0-.234-.038-.327-.121-.095-.092-.159-.211-.197-.351-.028-.138-.036-.417-.036-.828m.074 1.569c.241.125.497.191.787.191.453 0 .854-.136 1.197-.431.341-.295.509-.719.509-1.274 0-.599-.205-1.061-.609-1.392-.388-.319-.842-.473-1.32-.473-.564 0-1.034.202-1.421.609-.388.42-.581 1.005-.581 1.76 0 .567.092 1.112.294 1.623.194.516.508.92.953 1.196.432.301.913.435 1.408.435.324 0 .602-.058.822-.178.212-.121.329-.263.329-.463 0-.114-.051-.21-.142-.317-.094-.097-.215-.143-.353-.143-.175 0-.359.125-.54.366-.116.167-.278.255-.466.255-.238 0-.43-.15-.579-.447-.141-.284-.244-.72-.288-1.317m4.521-.517c0-.879.031-1.487.105-1.85.082-.37.245-.539.505-.539.223 0 .366.149.45.431.066.304.102.931.102 1.912 0 .934-.036 1.569-.112 1.88-.092.315-.247.486-.477.486-.212 0-.359-.162-.442-.456-.093-.308-.131-.925-.131-1.864m-1.408 0c0 .903.173 1.591.542 2.059.377.478.856.702 1.45.702.578 0 1.06-.224 1.44-.696.376-.462.559-1.134.559-2.019 0-1.006-.183-1.731-.551-2.195-.361-.478-.85-.713-1.441-.713-.426 0-.804.116-1.114.374-.324.263-.548.584-.686.964-.14.396-.199.909-.199 1.524" transform="translate(470.009 104.227)"/><path d="m0 0h-14.23v5.657h-4.953v-5.657h-14.245v-4.414h14.245v-9.008h4.953v9.008h14.23zm-21.728-15.521v9.007h-11.705v-4.402h6.754v-9.015h3.827v-3.197h-4.367v-4.407h4.367v-3.204h-7.342v7.585h-4.964v-11.989h17.261v19.622zm18.496-7.633v-7.583h-7.338v3.202h4.362v4.407h-4.362v3.198h3.829v9.014h6.742v4.402h-11.694v-9.007h-3.84v-19.622h17.265v11.989" transform="translate(495.372 149.543)"/><path d="m0 0h5.034v-13.163c0-2.088.063-3.445.185-4.064.215-.994.731-1.793 1.538-2.392.814-.606 1.922-.906 3.327-.906 1.429 0 2.508.282 3.233.854.726.567 1.161 1.268 1.307 2.095.15.831.22 2.207.22 4.13v13.446h5.034v-12.766c0-2.919-.134-4.98-.406-6.185-.274-1.206-.773-2.219-1.504-3.051-.732-.826-1.713-1.487-2.932-1.981-1.225-.492-2.827-.736-4.801-.736-2.38 0-4.186.267-5.416.805-1.232.537-2.201 1.233-2.915 2.089-.714.853-1.184 1.753-1.411 2.692-.331 1.393-.493 3.448-.493 6.169zm-40.619-24.305v20.191h-7.397v4.114h19.815v-4.114h-7.379v-20.191zm14.057 0v24.305h7.536l4.522-16.58 4.471 16.58h7.553v-24.305h-4.674v19.133l-4.951-19.133h-4.848l-4.935 19.133v-19.133" fill-rule="evenodd" transform="translate(564.953 159.988)"/><path d="m0 0v7.6h4.353v1.547h-11.682v-1.547h4.361v-7.6zm12.112 9.147h-3.138l-5.725-9.147h3.149l1.212 2.077h5.877l1.282-2.077h3.23zm-3.589-5.529 1.986 3.395 2.025-3.395zm13.928 5.529h-2.9684v-9.1469h2.9684zm5.795-9.147v3.45h1.934c1.345 0 2.371.044 3.08.131.521.07 1.033.215 1.538.434.505.218.921.518 1.248.901.328.383.492.855.492 1.417 0 .728-.284 1.322-.852 1.781s-1.273.758-2.116.896c-.548.091-1.724.137-3.529.137h-4.763v-9.147zm1.434 7.6c1.069 0 1.781-.022 2.135-.063.482-.055.879-.189 1.194-.406.314-.215.471-.491.471-.823 0-.271-.112-.508-.337-.712-.223-.204-.532-.352-.927-.449-.394-.095-1.176-.143-2.346-.143h-1.624v2.596zm20.474-7.6v1.541h-8.212v2.489h7.38v1.542h-7.38v2.028h7.932v1.547h-10.9v-9.147zm5.396 9.147h-2.9677v-9.1469h2.9677zm0-9.147v9.147" transform="translate(526.774 119.54)"/><path d="m0 0v1.573h-5.125v7.683h-2.061v-9.256zm-14.916 3.692 1.379 3.463 1.407-3.463zm2.493 5.642h-2.18l-3.976-9.334h2.187l.843 2.12h4.08l.891-2.12h2.243zm-9.736-7.405c-.394-.318-.865-.477-1.412-.477-.743 0-1.347.249-1.811.75-.464.502-.697 1.342-.697 2.522 0 1.112.237 1.916.708 2.413.47.496 1.084.745 1.842.745.547 0 1.013-.14 1.395-.42.383-.281.635-.662.756-1.147l2.041.446c-.232.747-.581 1.321-1.045 1.719-.78.676-1.794 1.012-3.043 1.012-1.43 0-2.584-.43-3.461-1.288-.878-.861-1.317-2.066-1.317-3.619 0-1.47.436-2.628 1.31-3.474.873-.848 1.987-1.27 3.342-1.27 1.096 0 2 .247 2.712.741.713.495 1.223 1.251 1.529 2.27l-1.998.579c-.172-.683-.456-1.184-.851-1.502m-7.645 7.405h-2.061v-9.3336h2.061zm-9.318-1.58c.841 0 1.405-.029 1.693-.089.385-.076.702-.224.953-.439.251-.217.447-.518.585-.904.14-.387.21-.94.21-1.662s-.07-1.291-.21-1.709c-.138-.418-.319-.719-.538-.9-.221-.183-.498-.314-.834-.39-.254-.06-.67-.088-1.245-.088h-1.54v6.181zm-2.987-7.754h3.879c.762 0 1.369.065 1.825.197.608.178 1.091.426 1.448.745.474.42.838.97 1.094 1.649.208.556.314 1.217.314 1.987 0 .874-.113 1.609-.337 2.205-.221.597-.547 1.101-.973 1.512-.427.412-.941.7-1.54.861-.445.118-1.093.178-1.943.178h-3.767zm-1.741 0v1.573h-5.703v2.539h5.125v1.573h-5.125v2.069h5.509v1.58h-7.57v-9.334zm-17.757 0v7.346l2.02-7.346h1.985l2.026 7.346v-7.346h1.914v9.334h-3.092l-1.831-6.367-1.852 6.367h-3.084v-9.334" transform="translate(582.966 107.872)"/><path d="m0 0v2.942l2.814 4.068h-1.78l-1.765-2.773-1.802 2.773h-1.812l2.805-4.059v-2.951zm-6.814 0v5.824h2.265v1.186h-6.083v-1.186h2.271v-5.824zm-4.743 7.01h-1.5455v-7.01h1.5455zm-8.094-6.52c.52-.41 1.263-.614 2.23-.614.666 0 1.221.085 1.666.256.446.17.79.43 1.034.781s.365.727.365 1.129c0 .443-.101.816-.305 1.117-.203.301-.485.538-.846.712-.36.174-.916.342-1.668.505-.752.162-1.225.319-1.42.468-.153.118-.231.261-.231.426 0 .182.083.327.246.435.254.169.606.253 1.055.253.435 0 .762-.078.98-.237.217-.157.358-.416.424-.776l1.546.061c-.024.644-.279 1.161-.765 1.546-.485.385-1.208.578-2.169.578-.589 0-1.091-.082-1.506-.244-.416-.162-.735-.4-.957-.71-.22-.311-.331-.645-.331-1.002 0-.554.235-1.025.705-1.411.334-.273.916-.505 1.744-.693.644-.146 1.057-.249 1.237-.305.265-.087.451-.189.557-.305s.159-.257.159-.423c0-.258-.127-.484-.379-.676-.253-.193-.627-.289-1.124-.289-.47 0-.844.108-1.12.325-.278.216-.462.556-.552 1.018l-1.504-.134c.102-.785.412-1.382.929-1.791m-6.708 5.334h1.205c.626 0 1.002-.007 1.128-.024.25-.037.445-.13.582-.275.138-.145.206-.335.206-.571 0-.21-.051-.386-.156-.526s-.248-.239-.433-.296c-.185-.058-.648-.087-1.389-.087h-1.143zm0-5.824v2.927h.312c.355 0 .615-.026.778-.079.164-.053.319-.15.465-.292s.418-.485.814-1.031l1.117-1.525h1.849l-.934 1.368c-.369.546-.662.924-.88 1.139-.218.213-.494.409-.828.588.671.088 1.177.304 1.515.647s.506.776.506 1.303c0 .414-.111.783-.334 1.105s-.52.545-.891.671c-.37.127-.965.189-1.783.189h-3.253v-7.01zm-2.862 0v1.181h-4.278v1.909h3.844v1.181h-3.844v1.553h4.131v1.186h-5.676v-7.01zm-9.353 0 2.741 7.01h-1.639l-1.875-5.187-1.937 5.187h-1.677l2.737-7.01zm-5.076 7.01h-1.5463v-7.01h1.5463zm-7.77-7.01v4.572l3.086-4.572h1.551v7.01h-1.435v-4.681l-3.134 4.681h-1.504v-7.01zm-9.185 3.271c0-.785.05-1.377.152-1.779.068-.271.214-.53.432-.777.22-.247.518-.449.896-.603s.933-.232 1.664-.232c.605 0 1.096.072 1.472.214.376.141.676.332.901.571.224.239.378.532.462.88.083.347.126.941.126 1.783v3.682h-1.547v-3.877c0-.557-.022-.952-.067-1.191-.046-.239-.18-.441-.403-.606-.223-.164-.552-.245-.991-.245-.432 0-.772.086-1.021.26s-.407.404-.473.691c-.038.177-.057.569-.057 1.171v3.797h-1.546" transform="translate(580.05 97.805)"/><path d="m516.655 163.711h68.459v.20004h-68.459z"/><path d="m516.655 131.619h68.459v.20016h-68.459z"/><path d="m516.655 95.147h68.459v.20004h-68.459z"/></g><path d="m646.17401 880.06917c.006-1.1404.11191-1.54589.2359-.90109.12398.6448.11928 1.57785-.0105 2.07345-.12974.49559-.23118-.032-.22543-1.17236z" fill="#500" transform="matrix(1.00000000167 0 0 1.00000000167 -229.64954 -433.70630373333)"/></svg>