<?xml version="1.0"?>
<svg xmlns="http://www.w3.org/2000/svg" viewBox="0 0 180 88.6">
<path fill="#38B035" transform="matrix(0.35277777,0,0,-0.35277777,65.170734,166.67719)" d="M-184.7,321.8l26.1,31.2c10.2,12.1,25.2,19.1,40.9,19.1h17.1c15.8,0,30.8,7,40.9,19.1l52.2,62.3 c10.2,12.1,25.2,19.1,41,19.1h175.7L183,441.3c-10.1-12.1-25.1-19.1-41-19.1H125c-15.8,0-30.7-7-40.9-19.1l-52.3-62.3 C21.8,328.8,6.7,321.8-9,321.8H-184.7z"/>
<path fill="#007AB0" transform="matrix(0.35277777,0,0,-0.35277777,66.874015,168.14788)" d="M-73.2,225.5l26.1,31.2c10.2,12.1,25.1,19.1,40.9,19.1h17.1c15.8,0,30.8,7,40.9,19.1l52.3,62.3 c10.2,12.1,25.1,19.1,40.9,19.1h175.7l-26.1-31.2C284.4,333,269.4,326,253.6,326h-17.1c-15.8,0-30.7-7-40.9-19.1l-52.3-62.3 c-10.1-12.1-25.1-19.1-40.9-19.1H-73.2z"/>
</svg>
