<?xml version="1.0" encoding="UTF-8" standalone="no"?>
<!-- Generator: Adobe Illustrator 21.0.0, SVG Export Plug-In . SVG Version: 6.00 Build 0)  -->

<svg
   xmlns:dc="http://purl.org/dc/elements/1.1/"
   xmlns:cc="http://creativecommons.org/ns#"
   xmlns:rdf="http://www.w3.org/1999/02/22-rdf-syntax-ns#"
   xmlns:svg="http://www.w3.org/2000/svg"
   xmlns="http://www.w3.org/2000/svg"
   xmlns:sodipodi="http://sodipodi.sourceforge.net/DTD/sodipodi-0.dtd"
   xmlns:inkscape="http://www.inkscape.org/namespaces/inkscape"
   version="1.1"
   id="authense"
   x="0px"
   y="0px"
   viewBox="0 0 199.59999 256.5"
   width="159.67999"
   height="205.2"
   xml:space="preserve"
   sodipodi:docname="Tokyo_Verdy_logo.svg"
   inkscape:version="0.92.4 (5da689c313, 2019-01-14)"><metadata
   id="metadata37"><rdf:RDF><cc:Work
       rdf:about=""><dc:format>image/svg+xml</dc:format><dc:type
         rdf:resource="http://purl.org/dc/dcmitype/StillImage" /><dc:title></dc:title></cc:Work></rdf:RDF></metadata><defs
   id="defs35" /><sodipodi:namedview
   pagecolor="#ffffff"
   bordercolor="#666666"
   borderopacity="1"
   objecttolerance="10"
   gridtolerance="10"
   guidetolerance="10"
   inkscape:pageopacity="0"
   inkscape:pageshadow="2"
   inkscape:window-width="1366"
   inkscape:window-height="705"
   id="namedview33"
   showgrid="false"
   fit-margin-top="1"
   fit-margin-right="1"
   fit-margin-bottom="1"
   fit-margin-left="1"
   inkscape:zoom="1.9666667"
   inkscape:cx="103.48729"
   inkscape:cy="71.810377"
   inkscape:window-x="-8"
   inkscape:window-y="-8"
   inkscape:window-maximized="1"
   inkscape:current-layer="authense" />
<style
   type="text/css"
   id="style2">
	.st0{fill:#AA9767;}
	.st1{fill:#006937;}
</style>


<g
   id="g53"
   transform="translate(-50.15,-21.75)"><g
     id="g26">
	<path
   id="path4"
   d="m 123.6,38.6 c -3.6,-1.4 -6.1,-5 -6.1,-10 v -5 h -6.1 v 5.1 c 0,7.6 4.7,13.8 10.9,15.4 -1.7,2.9 -4.9,4.8 -8.9,4.8 h -1.8 v 5.7 h 2 c 9.4,0 16.2,-6.5 16.2,-15.5 V 23.6 h -6.1 c -0.1,0 -0.1,15 -0.1,15 z"
   class="st0"
   inkscape:connector-curvature="0"
   style="fill:#aa9767" />
	<polygon
   id="polygon6"
   points="97.1,23.6 91.1,23.6 91.1,54.7 97.1,54.7 97.1,41.3 103.1,41.3 103.1,54.7 109.2,54.7 109.2,36 103.4,36 110,23.6 103.5,23.6 97.1,36.9 "
   class="st0"
   style="fill:#aa9767" />
	<polygon
   id="polygon8"
   points="57.6,54.7 63.6,54.7 63.6,29.4 69.6,29.4 69.6,23.6 51.7,23.6 51.7,29.4 57.6,29.4 "
   class="st0"
   style="fill:#aa9767" />
	<path
   id="path10"
   d="m 242.4,23.6 v 15 c -3.6,-1.4 -6.1,-5 -6.1,-10 v -5 h -6.1 v 5.1 c 0,7.6 4.7,13.8 10.9,15.4 -1.7,2.9 -4.9,4.8 -8.9,4.8 h -1.9 v 5.7 h 2 c 9.4,0 16.2,-6.5 16.2,-15.5 V 23.6 Z m 3.6,15.5 c 0,7.3 -5.9,13.1 -13.4,13.1 v -1.3 c 5.5,0 10.1,-3.4 11.6,-8.5 -6.5,-0.9 -11.5,-6.5 -11.5,-13.9 v -2.7 h 1.2 v 2.8 c 0,6.7 4.6,12 10.6,12.7 0.2,-0.9 0.3,-1.6 0.3,-2.5 V 25.6 h 1.2 z"
   class="st1"
   inkscape:connector-curvature="0"
   style="fill:#006937" />
	<path
   id="path12"
   d="m 79.6,23 c -5.2,0 -8.9,3.8 -8.9,8.9 V 46 c 0,5.2 3.8,8.9 8.9,8.9 5.1,0 8.9,-3.8 8.9,-8.9 V 31.9 C 88.6,26.8 84.8,23 79.6,23 Z m 3,23 c 0,2.1 -1.3,3.3 -3,3.3 -1.7,0 -3,-1.3 -3,-3.3 V 32 c 0,-2.1 1.3,-3.3 3,-3.3 1.7,0 3,1.3 3,3.3 z"
   class="st0"
   inkscape:connector-curvature="0"
   style="fill:#aa9767" />
	<path
   id="path14"
   d="m 190.6,40.5 v 14.1 h 6.1 V 40.5 c 0,-6.6 4.2,-11 9.6,-11 v -5.9 c -8.7,0 -15.7,6.9 -15.7,16.9 z m 13.5,-14.2 v 1.1 c -5.6,1.1 -9.9,6.1 -9.9,13 V 52.2 H 193 V 40.5 c 0,-7.8 4.7,-13.3 11.1,-14.2 z"
   class="st1"
   inkscape:connector-curvature="0"
   style="fill:#006937" />
	<path
   id="path16"
   d="m 214.3,27 h -2.5 v 24 h 2.5 c 6.7,0 12,-5.3 12,-12 0,-6.7 -5.3,-12 -12,-12 z m 0,21.5 v -19 c 5.3,0 9.6,4.1 9.6,9.4 0,5.3 -4.2,9.6 -9.6,9.6 z"
   class="st1"
   inkscape:connector-curvature="0"
   style="fill:#006937" />
	<path
   id="path18"
   d="m 170.4,39.1 c 0,8.7 6.9,15.6 15.6,15.6 h 2.5 V 48.8 H 186 c -4.2,0 -7.8,-3.1 -9.1,-6.9 H 186 V 36 h -9.1 c 1.3,-3.8 4.9,-6.7 9.1,-6.7 h 2.5 V 23.6 H 186 c -8.6,0 -15.6,6.9 -15.6,15.5 z m 15.9,-12.2 c -6.8,0 -11.8,5.2 -12.3,11.5 h 9.8 v 1.2 H 174 c 0.3,6.4 5.6,11.6 12.3,11.6 v 1.1 c -7.6,0 -13.5,-6.1 -13.5,-13.1 0,-7.3 6,-13 13.5,-13 z"
   class="st1"
   inkscape:connector-curvature="0"
   style="fill:#006937" />
	<path
   id="path20"
   d="m 214.3,23.6 h -6.1 v 31.1 h 6.1 c 8.7,0 15.6,-6.9 15.6,-15.6 0,-8.6 -6.9,-15.5 -15.6,-15.5 z m 0,28.5 h -3.6 V 26 h 3.6 c 7.4,0 13.1,5.7 13.1,13 0,7.3 -5.9,13.1 -13.1,13.1 z"
   class="st1"
   inkscape:connector-curvature="0"
   style="fill:#006937" />
	<path
   id="path22"
   d="m 141.1,23 c -5.2,0 -8.9,3.8 -8.9,8.9 V 46 c 0,5.2 3.8,8.9 8.9,8.9 5.2,0 8.9,-3.8 8.9,-8.9 V 31.9 c 0,-5.1 -3.8,-8.9 -8.9,-8.9 z m 3,23 c 0,2.1 -1.3,3.3 -3,3.3 -1.8,0 -3,-1.3 -3,-3.3 V 32 c 0,-2.1 1.3,-3.3 3,-3.3 1.7,0 3,1.3 3,3.3 z"
   class="st0"
   inkscape:connector-curvature="0"
   style="fill:#aa9767" />
	<path
   id="path24"
   d="m 165.3,23.6 -3.8,18.7 -3.8,-18.7 h -6.3 l 7.4,31 h 5.2 l 7.5,-31 c -0.1,0 -6.2,0 -6.2,0 z m -3,28.6 h -1.6 l -6.4,-26.6 h 1.3 l 6.1,25 5.9,-24.9 h 1.3 z"
   class="st1"
   inkscape:connector-curvature="0"
   style="fill:#006937" />
</g><path
     id="path28"
     d="M 150.3,277 C 108.7,260.5 51.4,225.9 51.4,164.3 V 61.6 h 196.7 v 102.7 c 0.1,61.6 -57,96.2 -97.8,112.7"
     class="st0"
     inkscape:connector-curvature="0"
     style="fill:#aa9767" /><path
     id="path30"
     d="m 230.2,127.6 c 4,0 7.5,-3.4 7.5,-7.5 v 0 h -25.5 c -0.1,-1.2 -0.2,-2.3 -0.4,-3.4 l 17.8,-3.1 c 4,-0.8 6.7,-4.6 6.1,-8.7 v 0 l -25.5,4.5 c -0.3,-1.2 -0.6,-2.2 -1,-3.1 l 17.5,-6.4 c 3.8,-1.4 5.9,-5.7 4.5,-9.6 v 0 l -24.5,8.9 c -0.4,-1.1 -1,-2.1 -1.4,-2.9 L 221.6,87 c 3.6,-2.1 4.8,-6.6 2.7,-10.2 l -1.5,1 -39.3,22.7 c 4.6,6.5 7.4,14.5 7.4,23.2 0,11.4 -4.7,21.6 -12.3,29 L 158.2,104 c -1,-2.4 -2.5,-3.5 -4.9,-3.7 h -9.4 c -1.3,0 -2.4,0.4 -3.7,1.3 l -14.1,9.2 c -1.3,1 -2.1,2.1 -2.1,3 v 2.2 h 18.1 l -20.4,36.6 c -7.6,-7.4 -12.3,-17.7 -12.3,-29 0,-8.7 2.7,-16.6 7.4,-23.2 L 77.5,77.7 76,76.7 c -2.1,3.6 -0.9,8.1 2.7,10.2 L 95,96.3 c -0.5,1.1 -1,2 -1.4,2.9 L 69.1,90.3 v 0 c -1.7,3.9 0.4,8.1 4.3,9.7 l 17.5,6.4 c -0.3,1.1 -0.8,2.2 -1,3.1 l -25.6,-4.3 v 0 c -0.8,4 2.1,7.9 6.1,8.7 l 17.8,3.1 c -0.2,1.2 -0.3,2.3 -0.4,3.4 H 62.4 v 0 c 0,4 3.4,7.5 7.5,7.5 h 17.8 c 0,1.2 0.1,2.4 0.2,3.5 l -24.8,4.3 v 0 c 0.8,4 4.6,6.7 8.7,6.1 l 17.3,-3 c 0.2,1.2 0.5,2.4 0.9,3.5 l -23.3,8.2 v 0 c 1.4,3.8 5.7,5.9 9.6,4.5 l 16.2,-5.9 c 0.4,1.2 1,2.3 1.4,3.3 l -21.3,12.3 v 0 c 2.1,3.6 6.6,4.8 10.2,2.7 L 97.3,159 c 0.6,1.1 1.3,2.1 2.1,3 l -18.5,15.5 v 0 c 2.6,3.1 7.4,3.6 10.5,1 l 12.5,-10.7 c 0.9,1 1.6,1.8 2.5,2.6 l -15.5,18.1 v 0 c 3.1,2.6 7.8,2.3 10.5,-1 L 111.9,175 c 1.1,0.8 2,1.5 3,2.3 L 103,198.2 v 0 c 3.6,2.1 8.1,0.9 10.2,-2.7 l 8,-13.9 c 1.2,0.6 2.3,1.2 3.4,1.6 l -14.5,40.2 v 0 c 3.8,1.4 8.1,-0.6 9.6,-4.5 l 12,-33 c 1.3,0.4 2.4,0.8 3.6,1.1 l -10.2,57.6 v 0 c 4,0.8 7.9,-2 8.7,-6.1 l 8.9,-50.3 c 1.3,0.1 2.5,0.3 3.8,0.3 V 259 c 0,2.7 1.5,5.2 3.8,6.4 2.3,-1.3 3.8,-3.7 3.8,-6.4 v -70.7 c 1.3,-0.1 2.5,-0.2 3.8,-0.3 l 8.5,50.3 c 0.8,4 4.6,6.7 8.7,6.1 v 0 l -10.2,-57.6 c 1.3,-0.3 2.4,-0.6 3.6,-1.1 l 12,33 c 1.4,3.8 5.7,5.9 9.6,4.5 v 0 L 175.6,183 c 1.2,-0.5 2.3,-1.1 3.4,-1.6 l 8,13.9 c 2.1,3.6 6.6,4.8 10.2,2.7 v 0 L 185,177.5 c 1.1,-0.8 2.1,-1.4 3,-2.3 l 10.5,12.5 c 2.6,3.1 7.4,3.6 10.5,1 v 0 l -15.3,-18.2 c 1,-0.9 1.7,-1.7 2.5,-2.6 l 12.7,10.6 c 3.1,2.6 7.8,2.3 10.5,-1 v 0 l -18.6,-15.7 c 0.8,-1.1 1.3,-2.1 2.1,-3 l 14.5,8.4 c 3.6,2.1 8.1,0.9 10.2,-2.7 v 0 l -21.3,-12.3 c 0.5,-1.2 1.1,-2.2 1.4,-3.3 l 16.2,5.9 c 3.8,1.4 8.1,-0.6 9.6,-4.5 v 0 l -23.2,-8.5 c 0.3,-1.2 0.6,-2.3 0.9,-3.5 l 17.3,3 c 4,0.8 7.9,-2.1 8.7,-6.1 v 0 l -24.8,-4.3 c 0.1,-1.2 0.2,-2.4 0.2,-3.5 h 17.6 z m -91.9,-21.8 h 15.1 l -9.7,6.1 z"
     class="st1"
     inkscape:connector-curvature="0"
     style="fill:#006937" /></g>
</svg>