<?xml version="1.0" encoding="UTF-8" standalone="no"?>
<!-- Created with Inkscape (http://www.inkscape.org/) -->
<svg
   xmlns:dc="http://purl.org/dc/elements/1.1/"
   xmlns:cc="http://web.resource.org/cc/"
   xmlns:rdf="http://www.w3.org/1999/02/22-rdf-syntax-ns#"
   xmlns:svg="http://www.w3.org/2000/svg"
   xmlns="http://www.w3.org/2000/svg"
   xmlns:sodipodi="http://sodipodi.sourceforge.net/DTD/sodipodi-0.dtd"
   xmlns:inkscape="http://www.inkscape.org/namespaces/inkscape"
   width="447"
   height="183.2"
   id="svg2"
   sodipodi:version="0.32"
   inkscape:version="0.44.1"
   version="1.0"
   sodipodi:docbase="C:\Documents and Settings\Matthew\Desktop"
   sodipodi:docname="Tokyo_region_shadow_picture.svg">
  <defs
     id="defs4" />
  <sodipodi:namedview
     id="base"
     pagecolor="#ffffff"
     bordercolor="#666666"
     borderopacity="1.0"
     gridtolerance="10000"
     guidetolerance="10"
     objecttolerance="10"
     inkscape:pageopacity="0.0"
     inkscape:pageshadow="2"
     inkscape:zoom="0.70710678"
     inkscape:cx="550.62272"
     inkscape:cy="138.69384"
     inkscape:document-units="px"
     inkscape:current-layer="layer1"
     inkscape:window-width="1440"
     inkscape:window-height="844"
     inkscape:window-x="-4"
     inkscape:window-y="-4" />
  <metadata
     id="metadata7">
    <rdf:RDF>
      <cc:Work
         rdf:about="">
        <dc:format>image/svg+xml</dc:format>
        <dc:type
           rdf:resource="http://purl.org/dc/dcmitype/StillImage" />
      </cc:Work>
    </rdf:RDF>
  </metadata>
  <g
     inkscape:label="Layer 1"
     inkscape:groupmode="layer"
     id="layer1">
    <g
       id="g1885"
       transform="translate(-147.0782,-427.0925)"
       style="fill:black;fill-opacity:1">
      <path
         style="fill:black;fill-opacity:1"
         d="M 374.92895,591.63208 C 360.70382,576.55958 355.00874,572.43879 342.8675,568.43336 C 326.00493,562.87037 321.1526,562.40078 321.1526,566.3319 C 321.1526,567.85491 319.2954,567.24381 317.02549,564.9739 C 313.92034,561.86876 309.31936,561.11545 298.44498,561.93176 C 283.29788,563.06881 278.54403,560.21152 273.73327,547.07885 C 272.34342,543.28477 270.13163,542.50403 263.60142,543.5024 C 253.36555,545.06731 248.78628,543.61215 248.78628,538.79454 C 248.78628,536.78078 246.75098,535.1288 244.26339,535.12349 C 241.77579,535.11818 236.1545,532.9271 231.77162,530.25444 C 227.38875,527.58177 219.82905,524.55309 214.9723,523.52402 C 210.11555,522.49495 202.07124,519.18588 197.09605,516.17052 C 185.33056,509.0397 165.65732,488.80535 167.53532,485.76668 C 168.33869,484.4668 167.17729,481.58457 164.95444,479.36172 C 162.73159,477.13887 160.91289,471.80527 160.91289,467.50928 C 160.91289,461.87198 159.47448,459.32224 155.74387,458.34666 C 152.9009,457.60321 150.57484,456.06267 150.57484,454.92324 C 150.57484,453.7838 149.90341,451.1018 149.08276,448.96322 C 146.93724,443.3721 157.08285,434.3372 165.50684,434.3372 C 169.455,434.3372 175.29208,432.51135 178.47812,430.27975 C 183.85397,426.51436 184.96505,426.65388 193.91413,432.21814 C 199.21789,435.51584 206.46491,438.46447 210.01861,438.77064 C 225.31478,440.08849 243.45706,443.90347 246.63854,446.47111 C 251.98439,450.78552 266.87786,453.35192 266.87786,449.95869 C 266.87786,447.91961 268.57695,447.99749 272.69301,450.22524 C 275.89134,451.95627 286.01078,453.5705 295.18064,453.8124 C 305.06062,454.07303 312.25578,455.4602 312.84147,457.21726 C 313.38506,458.84804 318.09426,460.3407 323.30636,460.53428 C 329.32145,460.75768 330.65883,461.29536 326.96775,462.00629 C 320.3709,463.2769 320.15907,463.83472 323.73556,470.51745 C 325.4059,473.63852 328.98684,475.26789 333.87067,475.12903 C 341.21374,474.92025 349.58223,480.49622 349.58223,485.59774 C 349.58223,492.43612 412.56956,479.99946 419.35716,471.82089 C 422.98713,467.44704 428.19092,469.29535 425.29402,473.92958 C 422.39531,478.56673 422.12249,483.44292 424.76174,483.44292 C 426.05746,483.44292 427.11757,485.18746 427.11757,487.31969 C 427.11757,492.63833 430.33632,492.18221 438.58365,485.69486 C 443.77803,481.60896 446.32845,480.9439 448.49489,483.11034 C 453.08855,487.70401 459.98385,486.52263 461.45694,480.88952 C 462.19593,478.06368 465.76359,474.62507 469.38511,473.24817 C 475.94667,470.75347 491.44697,471.04244 495.86622,473.74185 C 497.14519,474.52308 502.84376,475.57163 508.52968,476.07195 C 517.14053,476.82966 518.87101,476.19379 518.88732,472.26599 C 518.9105,466.68038 526.75641,461.38818 529.186,465.31934 C 530.07541,466.75842 534.73642,467.93585 539.54382,467.93585 C 544.35122,467.93585 548.96669,469.03958 549.80043,470.38858 C 550.63414,471.73758 554.58464,472.42767 558.57929,471.92212 C 562.57394,471.41657 569.8109,472.85279 574.66141,475.11371 C 586.26856,480.52406 585.97901,480.1676 582.33405,484.5595 C 578.9173,488.67645 580.9784,494.83376 584.95136,492.37834 C 586.2746,491.56052 587.35728,494.88823 587.35728,499.77325 C 587.35728,504.65828 589.10183,510.10296 591.23405,511.87255 C 596.74748,516.44829 596.05827,520.45462 588.64954,526.89644 C 585.09583,529.98635 582.18826,535.14996 582.18826,538.37113 C 582.18826,545.30846 573.49595,551.51088 566.76682,549.37514 C 563.20401,548.24435 561.39424,549.67614 559.57172,555.06743 L 557.13674,562.27052 L 552.09134,554.04283 C 546.97703,545.7028 542.42366,545.62694 541.76937,553.87086 C 541.55113,556.62052 543.21597,558.39375 546.01575,558.39375 C 552.02709,558.39375 554.45069,564.94001 549.85227,568.75637 C 544.78637,572.96068 536.27532,569.57763 532.16041,561.72406 C 530.23557,558.05038 527.94135,556.25782 527.03706,557.721 C 526.13636,559.17834 527.69838,563.29335 530.50821,566.86547 C 535.15044,572.76709 537.53873,579.74067 538.05951,588.9143 C 538.16514,590.77504 539.33424,591.62834 540.65749,590.81052 C 541.98076,589.9927 543.71861,590.38371 544.51942,591.67943 C 545.3202,592.97515 544.16384,594.73045 541.94966,595.5801 C 539.73551,596.42975 538.64782,598.29617 539.53253,599.72769 C 540.41726,601.15921 539.90948,602.33045 538.4041,602.33045 C 536.89873,602.33045 535.66705,601.30852 535.66705,600.05949 C 535.66705,595.61967 520.45702,591.58695 506.88885,592.42938 C 498.92039,592.92413 493.05073,592.19519 492.96444,590.70015 C 492.51773,582.96243 464.71278,561.30438 453.83801,560.22348 C 449.80289,559.82241 441.84929,557.06981 436.16336,554.1066 C 423.09886,547.29806 413.03845,544.09345 415.0754,547.3893 C 415.91565,548.74883 413.73523,551.39602 410.23004,553.27194 C 406.72485,555.14786 403.85697,558.23072 403.85697,560.12274 C 403.85697,564.6279 401.12984,564.46755 394.10837,559.54954 C 389.68175,556.449 387.34677,556.19949 383.8414,558.45242 C 379.86693,561.00683 379.84443,561.20206 383.66002,560.02634 C 386.05578,559.28813 388.38184,559.54061 388.82904,560.58742 C 389.27627,561.63422 394.06407,565.19025 399.46862,568.48971 C 408.87777,574.23395 409.10691,574.69664 404.86428,579.38472 C 400.72134,583.96261 400.12486,584.00145 395.68394,579.98246 C 393.0717,577.61842 390.93441,576.93057 390.93441,578.4539 C 390.93441,579.97724 392.27859,581.67167 393.92149,582.2193 C 398.11431,583.61691 399.49542,610.10327 395.37124,610.0221 C 393.64174,609.98806 384.44269,601.71255 374.92895,591.63208 z "
         id="path1887" />
    </g>
  </g>
</svg>
