<?xml version="1.0" encoding="UTF-8" standalone="no"?>
<!-- Created with Inkscape (http://www.inkscape.org/) -->
<svg
   xmlns:dc="http://purl.org/dc/elements/1.1/"
   xmlns:cc="http://creativecommons.org/ns#"
   xmlns:rdf="http://www.w3.org/1999/02/22-rdf-syntax-ns#"
   xmlns:svg="http://www.w3.org/2000/svg"
   xmlns="http://www.w3.org/2000/svg"
   xmlns:sodipodi="http://sodipodi.sourceforge.net/DTD/sodipodi-0.dtd"
   xmlns:inkscape="http://www.inkscape.org/namespaces/inkscape"
   id="svg2443"
   sodipodi:version="0.32"
   inkscape:version="0.46"
   width="102"
   height="108.889"
   xml:space="preserve"
   sodipodi:docname="Tokyo 2016.svg"
   version="1.0"
   inkscape:output_extension="org.inkscape.output.svg.inkscape"><metadata
     id="metadata2448"><rdf:RDF><cc:Work
         rdf:about=""><dc:format>image/svg+xml</dc:format><dc:type
           rdf:resource="http://purl.org/dc/dcmitype/StillImage" /></cc:Work></rdf:RDF></metadata><defs
     id="defs2446"><inkscape:perspective
       sodipodi:type="inkscape:persp3d"
       inkscape:vp_x="0 : 526.18109 : 1"
       inkscape:vp_y="0 : 1000 : 0"
       inkscape:vp_z="744.09448 : 526.18109 : 1"
       inkscape:persp3d-origin="372.04724 : 350.78739 : 1"
       id="perspective2450" /><clipPath
       clipPathUnits="userSpaceOnUse"
       id="clipPath2460"><path
         d="M 89.229,589.3077 L 485.3409,589.3077 L 485.3409,165.9037 L 89.229,165.9037"
         id="path2462" /></clipPath><clipPath
       clipPathUnits="userSpaceOnUse"
       id="clipPath2468"><path
         d="M 128.84,546.9574 L 128.84,208.2438 L 445.7223,208.2438 L 445.7223,546.9574"
         id="path2470" /></clipPath><linearGradient
       x1="0"
       y1="0"
       x2="1"
       y2="0"
       gradientUnits="userSpaceOnUse"
       gradientTransform="matrix(32.63506,20.39246,20.39246,-32.63506,201.3166,391.9182)"
       spreadMethod="pad"
       id="linearGradient2526"><stop
         style="stop-opacity:1;stop-color:#19ae48"
         offset="0"
         id="stop2528" /><stop
         style="stop-opacity:1;stop-color:#ffffff"
         offset="0.89999"
         id="stop2530" /><stop
         style="stop-opacity:1;stop-color:#ffffff"
         offset="0.89999"
         id="stop2532" /><stop
         style="stop-opacity:1;stop-color:#ffffff"
         offset="1"
         id="stop2534" /></linearGradient><linearGradient
       x1="0"
       y1="0"
       x2="1"
       y2="0"
       gradientUnits="userSpaceOnUse"
       gradientTransform="matrix(32.6333,20.39129,20.39129,-32.6333,197.3573,398.2483)"
       spreadMethod="pad"
       id="linearGradient2548"><stop
         style="stop-opacity:1;stop-color:#231f20"
         offset="0"
         id="stop2550" /><stop
         style="stop-opacity:1;stop-color:#ffffff"
         offset="0.89"
         id="stop2552" /><stop
         style="stop-opacity:1;stop-color:#ffffff"
         offset="0.89"
         id="stop2554" /><stop
         style="stop-opacity:1;stop-color:#ffffff"
         offset="1"
         id="stop2556" /></linearGradient><linearGradient
       x1="0"
       y1="0"
       x2="1"
       y2="0"
       gradientUnits="userSpaceOnUse"
       gradientTransform="matrix(-1.3e-6,30.70016,30.70016,1.3e-6,209.6073,399.791)"
       spreadMethod="pad"
       id="linearGradient2570"><stop
         style="stop-opacity:1;stop-color:#f9a91e"
         offset="0"
         id="stop2572" /><stop
         style="stop-opacity:1;stop-color:#ffffff"
         offset="0.84999"
         id="stop2574" /><stop
         style="stop-opacity:1;stop-color:#ffffff"
         offset="0.84999"
         id="stop2576" /><stop
         style="stop-opacity:1;stop-color:#ffffff"
         offset="1"
         id="stop2578" /></linearGradient><linearGradient
       x1="0"
       y1="0"
       x2="1"
       y2="0"
       gradientUnits="userSpaceOnUse"
       gradientTransform="matrix(-1.1e-6,24.74471,24.74471,1.1e-6,204.4931,405.4599)"
       spreadMethod="pad"
       id="linearGradient2592"><stop
         style="stop-opacity:1;stop-color:#0b8ed8"
         offset="0"
         id="stop2594" /><stop
         style="stop-opacity:1;stop-color:#ffffff"
         offset="0.82999"
         id="stop2596" /><stop
         style="stop-opacity:1;stop-color:#ffffff"
         offset="0.82999"
         id="stop2598" /><stop
         style="stop-opacity:1;stop-color:#ffffff"
         offset="1"
         id="stop2600" /></linearGradient><linearGradient
       x1="0"
       y1="0"
       x2="1"
       y2="0"
       gradientUnits="userSpaceOnUse"
       gradientTransform="matrix(32.6333,20.39129,20.39129,-32.6333,205.4734,385.2688)"
       spreadMethod="pad"
       id="linearGradient2614"><stop
         style="stop-opacity:1;stop-color:#ed1c24"
         offset="0"
         id="stop2616" /><stop
         style="stop-opacity:1;stop-color:#ffffff"
         offset="0.89999"
         id="stop2618" /><stop
         style="stop-opacity:1;stop-color:#ffffff"
         offset="0.89999"
         id="stop2620" /><stop
         style="stop-opacity:1;stop-color:#ffffff"
         offset="1"
         id="stop2622" /></linearGradient><linearGradient
       x1="0"
       y1="0"
       x2="1"
       y2="0"
       gradientUnits="userSpaceOnUse"
       gradientTransform="matrix(16.72454,10.45053,10.45053,-16.72454,230.7863,491.8098)"
       spreadMethod="pad"
       id="linearGradient2638"><stop
         style="stop-opacity:1;stop-color:#ffffff"
         offset="0"
         id="stop2640" /><stop
         style="stop-opacity:1;stop-color:#0b8ed8"
         offset="0.82999"
         id="stop2642" /><stop
         style="stop-opacity:1;stop-color:#0b8ed8"
         offset="0.82999"
         id="stop2644" /><stop
         style="stop-opacity:1;stop-color:#0b8ed8"
         offset="1"
         id="stop2646" /></linearGradient><linearGradient
       x1="0"
       y1="0"
       x2="1"
       y2="0"
       gradientUnits="userSpaceOnUse"
       gradientTransform="matrix(22.93529,14.33143,14.33143,-22.93529,234.4795,485.5102)"
       spreadMethod="pad"
       id="linearGradient2662"><stop
         style="stop-opacity:1;stop-color:#ffffff"
         offset="0"
         id="stop2664" /><stop
         style="stop-opacity:1;stop-color:#f9a91e"
         offset="0.81999"
         id="stop2666" /><stop
         style="stop-opacity:1;stop-color:#f9a91e"
         offset="0.81999"
         id="stop2668" /><stop
         style="stop-opacity:1;stop-color:#f9a91e"
         offset="1"
         id="stop2670" /></linearGradient><linearGradient
       x1="0"
       y1="0"
       x2="1"
       y2="0"
       gradientUnits="userSpaceOnUse"
       gradientTransform="matrix(-1.7e-6,39.46769,39.46769,1.7e-6,263.7365,471.0868)"
       spreadMethod="pad"
       id="linearGradient2684"><stop
         style="stop-opacity:1;stop-color:#ffffff"
         offset="0"
         id="stop2686" /><stop
         style="stop-opacity:1;stop-color:#19ae48"
         offset="0.89999"
         id="stop2688" /><stop
         style="stop-opacity:1;stop-color:#19ae48"
         offset="0.89999"
         id="stop2690" /><stop
         style="stop-opacity:1;stop-color:#19ae48"
         offset="1"
         id="stop2692" /></linearGradient><linearGradient
       x1="0"
       y1="0"
       x2="1"
       y2="0"
       gradientUnits="userSpaceOnUse"
       gradientTransform="matrix(19.98879,34.62112,34.62112,-19.98879,243.9633,473.3742)"
       spreadMethod="pad"
       id="linearGradient2706"><stop
         style="stop-opacity:1;stop-color:#ffffff"
         offset="0"
         id="stop2708" /><stop
         style="stop-opacity:1;stop-color:#231f20"
         offset="0.89999"
         id="stop2710" /><stop
         style="stop-opacity:1;stop-color:#231f20"
         offset="0.89999"
         id="stop2712" /><stop
         style="stop-opacity:1;stop-color:#231f20"
         offset="1"
         id="stop2714" /></linearGradient><linearGradient
       x1="0"
       y1="0"
       x2="1"
       y2="0"
       gradientUnits="userSpaceOnUse"
       gradientTransform="matrix(-1.7e-6,39.22471,39.22471,1.7e-6,272.9089,471.33)"
       spreadMethod="pad"
       id="linearGradient2728"><stop
         style="stop-opacity:1;stop-color:#ffffff"
         offset="0"
         id="stop2730" /><stop
         style="stop-opacity:1;stop-color:#ed1c24"
         offset="0.89999"
         id="stop2732" /><stop
         style="stop-opacity:1;stop-color:#ed1c24"
         offset="0.89999"
         id="stop2734" /><stop
         style="stop-opacity:1;stop-color:#ed1c24"
         offset="1"
         id="stop2736" /></linearGradient><linearGradient
       x1="0"
       y1="0"
       x2="1"
       y2="0"
       gradientUnits="userSpaceOnUse"
       gradientTransform="matrix(32.6333,20.39129,20.39129,-32.6333,249.1081,458.5178)"
       spreadMethod="pad"
       id="linearGradient2756"><stop
         style="stop-opacity:1;stop-color:#ffffff"
         offset="0"
         id="stop2758" /><stop
         style="stop-opacity:1;stop-color:#0b8ed8"
         offset="0.95"
         id="stop2760" /><stop
         style="stop-opacity:1;stop-color:#0b8ed8"
         offset="0.95"
         id="stop2762" /><stop
         style="stop-opacity:1;stop-color:#0b8ed8"
         offset="1"
         id="stop2764" /></linearGradient><linearGradient
       x1="0"
       y1="0"
       x2="1"
       y2="0"
       gradientUnits="userSpaceOnUse"
       gradientTransform="matrix(32.63175,20.39032,20.39032,-32.63175,271.5106,422.6722)"
       spreadMethod="pad"
       id="linearGradient2778"><stop
         style="stop-opacity:1;stop-color:#ffffff"
         offset="0"
         id="stop2780" /><stop
         style="stop-opacity:1;stop-color:#ed1c24"
         offset="0.95"
         id="stop2782" /><stop
         style="stop-opacity:1;stop-color:#ed1c24"
         offset="0.95"
         id="stop2784" /><stop
         style="stop-opacity:1;stop-color:#ed1c24"
         offset="1"
         id="stop2786" /></linearGradient><linearGradient
       x1="0"
       y1="0"
       x2="1"
       y2="0"
       gradientUnits="userSpaceOnUse"
       gradientTransform="matrix(31.66839,19.78841,19.78841,-31.66839,255.4155,450.584)"
       spreadMethod="pad"
       id="linearGradient2800"><stop
         style="stop-opacity:1;stop-color:#ffffff"
         offset="0"
         id="stop2802" /><stop
         style="stop-opacity:1;stop-color:#f9a91e"
         offset="0.81999"
         id="stop2804" /><stop
         style="stop-opacity:1;stop-color:#f9a91e"
         offset="0.81999"
         id="stop2806" /><stop
         style="stop-opacity:1;stop-color:#f9a91e"
         offset="1"
         id="stop2808" /></linearGradient><linearGradient
       x1="0"
       y1="0"
       x2="1"
       y2="0"
       gradientUnits="userSpaceOnUse"
       gradientTransform="matrix(32.6333,20.39129,20.39129,-32.6333,259.9749,441.1307)"
       spreadMethod="pad"
       id="linearGradient2822"><stop
         style="stop-opacity:1;stop-color:#ffffff"
         offset="0"
         id="stop2824" /><stop
         style="stop-opacity:1;stop-color:#231f20"
         offset="0.95"
         id="stop2826" /><stop
         style="stop-opacity:1;stop-color:#231f20"
         offset="0.95"
         id="stop2828" /><stop
         style="stop-opacity:1;stop-color:#231f20"
         offset="1"
         id="stop2830" /></linearGradient><linearGradient
       x1="0"
       y1="0"
       x2="1"
       y2="0"
       gradientUnits="userSpaceOnUse"
       gradientTransform="matrix(32.6333,20.39129,20.39129,-32.6333,265.6895,431.9887)"
       spreadMethod="pad"
       id="linearGradient2844"><stop
         style="stop-opacity:1;stop-color:#ffffff"
         offset="0"
         id="stop2846" /><stop
         style="stop-opacity:1;stop-color:#19ae48"
         offset="0.95"
         id="stop2848" /><stop
         style="stop-opacity:1;stop-color:#19ae48"
         offset="0.95"
         id="stop2850" /><stop
         style="stop-opacity:1;stop-color:#19ae48"
         offset="1"
         id="stop2852" /></linearGradient><linearGradient
       x1="0"
       y1="0"
       x2="1"
       y2="0"
       gradientUnits="userSpaceOnUse"
       gradientTransform="matrix(32.63175,20.39032,20.39032,-32.63175,166.5578,447.5443)"
       spreadMethod="pad"
       id="linearGradient2868"><stop
         style="stop-opacity:1;stop-color:#0b8ed8"
         offset="0"
         id="stop2870" /><stop
         style="stop-opacity:1;stop-color:#ffffff"
         offset="0.89999"
         id="stop2872" /><stop
         style="stop-opacity:1;stop-color:#ffffff"
         offset="0.89999"
         id="stop2874" /><stop
         style="stop-opacity:1;stop-color:#ffffff"
         offset="1"
         id="stop2876" /></linearGradient><linearGradient
       x1="0"
       y1="0"
       x2="1"
       y2="0"
       gradientUnits="userSpaceOnUse"
       gradientTransform="matrix(32.63,20.38935,20.38935,-32.63,184.8338,418.295)"
       spreadMethod="pad"
       id="linearGradient2892"><stop
         style="stop-opacity:1;stop-color:#ed1c24"
         offset="0"
         id="stop2894" /><stop
         style="stop-opacity:1;stop-color:#ffffff"
         offset="0.89999"
         id="stop2896" /><stop
         style="stop-opacity:1;stop-color:#ffffff"
         offset="0.89999"
         id="stop2898" /><stop
         style="stop-opacity:1;stop-color:#ffffff"
         offset="1"
         id="stop2900" /></linearGradient><linearGradient
       x1="0"
       y1="0"
       x2="1"
       y2="0"
       gradientUnits="userSpaceOnUse"
       gradientTransform="matrix(31.66683,19.78744,19.78744,-31.66683,171.9607,441.0471)"
       spreadMethod="pad"
       id="linearGradient2916"><stop
         style="stop-opacity:1;stop-color:#f9a91e"
         offset="0"
         id="stop2918" /><stop
         style="stop-opacity:1;stop-color:#ffffff"
         offset="0.90999"
         id="stop2920" /><stop
         style="stop-opacity:1;stop-color:#ffffff"
         offset="0.90999"
         id="stop2922" /><stop
         style="stop-opacity:1;stop-color:#ffffff"
         offset="1"
         id="stop2924" /></linearGradient><linearGradient
       x1="0"
       y1="0"
       x2="1"
       y2="0"
       gradientUnits="userSpaceOnUse"
       gradientTransform="matrix(32.6333,20.39129,20.39129,-32.6333,175.6235,433.0375)"
       spreadMethod="pad"
       id="linearGradient2940"><stop
         style="stop-opacity:1;stop-color:#231f20"
         offset="0"
         id="stop2942" /><stop
         style="stop-opacity:1;stop-color:#ffffff"
         offset="0.89999"
         id="stop2944" /><stop
         style="stop-opacity:1;stop-color:#ffffff"
         offset="0.89999"
         id="stop2946" /><stop
         style="stop-opacity:1;stop-color:#ffffff"
         offset="1"
         id="stop2948" /></linearGradient><linearGradient
       x1="0"
       y1="0"
       x2="1"
       y2="0"
       gradientUnits="userSpaceOnUse"
       gradientTransform="matrix(32.63175,20.39032,20.39032,-32.63175,180.2439,425.6358)"
       spreadMethod="pad"
       id="linearGradient2964"><stop
         style="stop-opacity:1;stop-color:#19ae48"
         offset="0"
         id="stop2966" /><stop
         style="stop-opacity:1;stop-color:#ffffff"
         offset="0.89999"
         id="stop2968" /><stop
         style="stop-opacity:1;stop-color:#ffffff"
         offset="0.89999"
         id="stop2970" /><stop
         style="stop-opacity:1;stop-color:#ffffff"
         offset="1"
         id="stop2972" /></linearGradient></defs><sodipodi:namedview
     inkscape:window-height="744"
     inkscape:window-width="1280"
     inkscape:pageshadow="2"
     inkscape:pageopacity="0.0"
     guidetolerance="10.0"
     gridtolerance="10.0"
     objecttolerance="10.0"
     borderopacity="1.0"
     bordercolor="#666666"
     pagecolor="#ffffff"
     id="base"
     showgrid="false"
     inkscape:zoom="3.5120976"
     inkscape:cx="37.142929"
     inkscape:cy="51.291412"
     inkscape:window-x="-4"
     inkscape:window-y="-4"
     inkscape:current-layer="g2452" /><g
     id="g2452"
     inkscape:groupmode="layer"
     inkscape:label="Evaluation Report"
     transform="matrix(1.25,0,0,-1.25,0,1052.3625)"><g
       id="g2456"
       transform="matrix(0.2524597,0,0,0.2524597,-31.726908,703.00563)"><g
         id="g2458"
         clip-path="url(#clipPath2460)"><g
           id="g2464"><g
             id="g2466"
             clip-path="url(#clipPath2468)"><path
               d="M 279.2085,240.4849 C 276.2933,251.4414 266.2833,259.546 254.4208,259.546 C 253.9792,259.546 253.601,259.507 253.1689,259.4915 L 252.9656,257.1512 C 252.9656,257.1512 252.5192,254.8264 252.5229,254.8264 C 253.1469,254.8906 253.7796,254.9178 254.4208,254.9178 C 263.0926,254.9178 270.5559,249.6341 273.7703,242.1171 C 273.7703,242.1171 275.1144,241.4926 276.7987,241.0063 C 278.4866,240.5316 279.2085,240.4849 279.2085,240.4849"
               style="fill:#f9a91e;fill-opacity:1;fill-rule:evenodd;stroke:none"
               id="path2472" /><path
               d="M 277.8216,234.7674 C 276.2079,235.0748 275.3957,235.4074 275.3957,235.4074 C 275.4317,234.9327 275.4451,234.3744 275.4451,233.892 C 275.4451,222.3013 266.0125,212.868 254.4208,212.868 C 242.8254,212.868 233.3996,222.3013 233.3996,233.892 C 233.3996,242.4887 238.5109,249.8228 245.9231,253.0717 C 245.9231,253.0717 246.4616,254.6552 246.7199,255.5832 C 246.9736,256.5208 247.3166,258.5149 247.3166,258.5149 C 236.5731,255.4528 228.7734,245.6032 228.7734,233.892 C 228.7734,219.7489 240.2834,208.2438 254.4208,208.2438 C 268.5611,208.2438 280.0711,219.7489 280.0711,233.892 C 280.0711,234.0865 280.0672,234.2752 280.0596,234.4561 C 280.0596,234.4561 279.049,234.5359 277.8216,234.7674"
               style="fill:#f9a91e;fill-opacity:1;fill-rule:evenodd;stroke:none"
               id="path2474" /><path
               d="M 335.92,240.3993 C 332.9864,251.3325 322.9382,259.546 311.093,259.546 C 310.3691,259.546 309.6511,259.507 308.948,259.4545 C 308.948,259.4545 309.005,258.6452 308.8151,257.2309 C 308.6251,255.8088 308.2774,254.7272 308.2774,254.7272 C 309.2027,254.8478 310.1355,254.9178 311.093,254.9178 C 319.9232,254.9178 327.4147,249.5407 330.5254,241.8078 C 330.5254,241.8078 331.7082,241.3039 333.5583,240.8098 C 335.2294,240.3604 335.92,240.3993 335.92,240.3993"
               style="fill:#19ae48;fill-opacity:1;fill-rule:evenodd;stroke:none"
               id="path2476" /><path
               d="M 334.638,234.5242 C 333.1926,234.746 332.0817,235.0456 332.0817,235.0456 C 332.1031,234.6623 332.1187,234.2772 332.1187,233.892 C 332.1187,222.3013 322.6798,212.868 311.093,212.868 C 299.4984,212.868 290.064,222.3013 290.064,233.892 C 290.064,242.1093 294.6692,249.1984 301.5578,252.6592 C 301.5578,252.6592 302.2837,254.3089 302.5533,255.6513 C 302.827,256.9975 302.975,258.2659 302.975,258.2659 C 292.8796,254.8186 285.4476,245.1442 285.4476,233.892 C 285.4476,219.7489 296.947,208.2438 311.093,208.2438 C 325.2339,208.2438 336.7429,219.7489 336.7429,233.892 C 336.7429,234.0262 336.739,234.1546 336.7351,234.2927 C 336.7351,234.2927 335.8228,234.3433 334.638,234.5242"
               style="fill:#19ae48;fill-opacity:1;fill-rule:evenodd;stroke:none"
               id="path2478" /><path
               d="M 234.1423,235.9716 C 244.8743,239.0395 252.5686,248.8579 252.5686,260.5595 C 252.5686,274.7026 241.0586,286.2038 226.9183,286.2038 C 212.7791,286.2038 201.2719,274.7026 201.2719,260.5595 C 201.2719,246.4184 212.7791,234.9133 226.9183,234.9133 C 227.3628,234.9133 227.6649,234.9269 228.1058,234.9503 C 228.1058,234.9503 228.1664,236.0105 228.3118,237.0824 C 228.4534,238.1563 228.7734,239.6212 228.7734,239.6212 C 228.1163,239.555 227.5966,239.5336 226.9183,239.5336 C 215.3295,239.5336 205.8961,248.9649 205.8961,260.5595 C 205.8961,272.1502 215.3295,281.5912 226.9183,281.5912 C 238.509,281.5912 247.9397,272.1502 247.9397,260.5595 C 247.9397,251.9589 242.8445,244.6208 235.4228,241.372 C 235.4228,241.372 235.0771,240.6425 234.5841,238.6543 C 234.2126,237.1816 234.1423,235.9716 234.1423,235.9716"
               style="fill:#0b8ed8;fill-opacity:1;fill-rule:evenodd;stroke:none"
               id="path2480" /><path
               d="M 285.041,237.4054 C 285.153,238.201 285.4799,239.7107 285.4799,239.7107 C 284.5889,239.5978 283.6825,239.5336 282.7592,239.5336 C 274.0592,239.5336 266.7097,244.6092 263.5151,252.1612 C 263.5151,252.1612 261.8215,252.9277 260.5858,253.3129 C 259.3564,253.7 257.9441,253.949 257.9441,253.949 C 260.8128,242.9147 270.8419,234.9133 282.7592,234.9133 C 283.4508,234.9133 284.1442,234.9366 284.8262,234.9989 C 284.927,236.6758 284.9003,236.3879 285.041,237.4054 M 290.9038,236.2381 C 301.0678,239.6523 308.4047,249.2645 308.4047,260.5595 C 308.4047,274.7026 296.8957,286.2038 282.7592,286.2038 C 268.6133,286.2038 257.1118,274.7026 257.1118,260.5595 C 257.1118,260.3805 257.1329,260.33 257.1366,260.1549 C 257.1366,260.1549 258.0258,260.0654 259.4335,259.8066 C 260.5182,259.6082 261.7968,259.1199 261.7968,259.1199 C 261.7608,259.6218 261.7371,260.0479 261.7371,260.5595 C 261.7371,272.1502 271.1619,281.5912 282.7592,281.5912 C 294.3463,281.5912 303.7768,272.1502 303.7768,260.5595 C 303.7768,252.3869 299.0881,245.2842 292.2602,241.8097 C 292.2602,241.8097 291.6579,240.304 291.3672,239.1445 C 291.0786,237.9812 290.9038,236.2381 290.9038,236.2381"
               style="fill:#231f20;fill-opacity:1;fill-rule:evenodd;stroke:none"
               id="path2482" /><path
               d="M 319.1425,252.5795 C 322.2886,244.9341 329.827,239.5336 338.6008,239.5336 C 350.1856,239.5336 359.6189,248.9649 359.6189,260.5595 C 359.6189,272.1502 350.1856,281.5912 338.6008,281.5912 C 327.0023,281.5912 317.577,272.1502 317.577,260.5595 C 317.577,260.1996 317.6226,259.7444 317.6301,259.3923 C 317.6301,259.3923 316.4162,259.7444 315.3961,259.9136 C 313.8039,260.1801 312.9528,260.1841 312.9528,260.1841 C 312.9528,260.2833 312.9453,260.4681 312.9453,260.5595 C 312.9453,274.7026 324.45,286.2038 338.6008,286.2038 C 352.7399,286.2038 364.2392,274.7026 364.2392,260.5595 C 364.2392,246.4184 352.7399,234.9133 338.6008,234.9133 C 326.6949,234.9133 316.6498,243.0704 313.7775,254.0774 C 313.7775,254.0774 315.1927,253.8887 316.3269,253.5911 C 317.292,253.3421 319.1425,252.6456 319.1425,252.6456"
               style="fill:#ed1c24;fill-opacity:1;fill-rule:evenodd;stroke:none"
               id="path2484" /><path
               d="M 338.1592,299.7885 L 338.7934,299.7885 L 338.7934,309.7451 L 338.1592,309.7451 L 338.1592,299.7885 z M 343.6588,309.1984 L 347.7733,309.1984 L 347.7733,299.8138 L 348.4075,299.8138 L 348.4075,309.1984 L 352.5143,309.1984 L 352.5143,309.7451 L 343.6588,309.7451 L 343.6588,309.1984 M 363.498,309.7451 L 359.5372,304.7512 L 355.5647,309.7451 L 354.7768,309.7451 L 359.1909,304.2435 L 359.1909,299.7885 L 359.829,299.7885 L 359.829,304.2435 L 364.2392,309.7451 L 363.498,309.7451 M 327.8388,300.1484 C 325.0024,300.1484 323.4286,301.7475 323.4286,304.724 C 323.4286,307.6635 325.0919,309.389 327.8388,309.389 C 329.6189,309.389 330.9145,308.7996 331.2452,307.4903 L 331.9397,307.4903 C 331.5759,309.3073 329.648,309.9221 327.8797,309.9221 C 324.3371,309.9221 322.7635,307.5759 322.7635,304.724 C 322.7635,301.6347 324.4013,299.6115 327.7591,299.6115 C 329.8542,299.6115 331.644,300.2476 332.1595,302.23 L 331.4709,302.23 C 331.039,300.6464 329.401,300.1484 327.8388,300.1484 M 291.7777,309.1984 L 295.8831,309.1984 L 295.8831,299.8138 L 296.5214,299.8138 L 296.5214,309.1984 L 300.6309,309.1984 L 300.6309,309.7451 L 291.7777,309.7451 L 291.7777,309.1984 M 305.1541,304.7726 L 310.8251,304.7726 L 310.8251,305.3037 L 305.1541,305.3037 L 305.1541,309.2062 L 311.0417,309.2062 L 311.0417,309.7451 L 304.5216,309.7451 L 304.5216,299.7885 L 311.1425,299.7885 L 311.1425,300.3312 L 305.1541,300.3312 L 305.1541,304.7726 M 237.5211,300.3838 L 230.2258,309.7451 L 229.3121,309.7451 L 229.3121,299.7885 L 229.9237,299.7885 L 229.9237,309.1575 L 237.219,299.7885 L 238.1281,299.7885 L 238.1281,309.7451 L 237.5211,309.7451 L 237.5211,300.3838 M 216.4989,303.3602 L 219.4104,309.1984 L 222.2791,303.3602 L 216.4989,303.3602 M 219.0655,309.8306 L 214.0339,299.7885 L 214.7453,299.7885 L 216.2396,302.8272 L 222.5546,302.8272 L 224.0724,299.7885 L 224.8067,299.7885 L 219.758,309.8306 L 219.0655,309.8306 M 281.4541,303.3602 L 284.3665,309.1984 L 287.2372,303.3602 L 281.4541,303.3602 M 284.0208,309.8306 L 278.9844,299.7885 L 279.7083,299.7885 L 281.1957,302.8272 L 287.5107,302.8272 L 289.0287,299.7885 L 289.7601,299.7885 L 284.7104,309.8306 L 284.0208,309.8306 M 206.3453,300.1484 C 203.5062,300.1484 201.9331,301.7475 201.9331,304.724 C 201.9331,307.6635 203.6021,309.389 206.3453,309.389 C 208.1255,309.389 209.4221,308.7996 209.7593,307.4903 L 210.4479,307.4903 C 210.0888,309.3073 208.153,309.9221 206.3891,309.9221 C 202.8478,309.9221 201.2719,307.5759 201.2719,304.724 C 201.2719,301.6347 202.9144,299.6115 206.2665,299.6115 C 208.3611,299.6115 210.1544,300.2476 210.6637,302.23 L 209.9768,302.23 C 209.5503,300.6464 207.9051,300.1484 206.3453,300.1484 M 248.3111,300.3312 L 245.0967,300.3312 L 245.0967,309.2062 L 248.2294,309.2062 C 251.4002,309.2062 252.7917,307.7938 252.7917,304.8504 C 252.7917,302.1755 251.441,300.3312 248.3111,300.3312 M 248.2673,309.7451 L 244.4601,309.7451 L 244.4601,299.7885 L 248.3111,299.7885 C 251.6889,299.7885 253.4596,301.6113 253.4596,304.8504 C 253.4596,308.1459 251.8124,309.7451 248.2673,309.7451 M 259.2463,299.7885 L 259.8809,299.7885 L 259.8809,309.7451 L 259.2463,309.7451 L 259.2463,299.7885 M 270.4087,300.3312 L 267.1914,300.3312 L 267.1914,309.2062 L 270.327,309.2062 C 273.4978,309.2062 274.8913,307.7938 274.8913,304.8504 C 274.8913,302.1755 273.5414,300.3312 270.4087,300.3312 M 270.3649,309.7451 L 266.5607,309.7451 L 266.5607,299.7885 L 270.4087,299.7885 C 273.7865,299.7885 275.5543,301.6113 275.5543,304.8504 C 275.5543,308.1459 273.9119,309.7451 270.3649,309.7451"
               style="fill:#231f20;fill-opacity:1;fill-rule:nonzero;stroke:none"
               id="path2486" /><path
               d="M 141.5183,326.0456 L 141.5183,345.8458 L 128.84,345.8458 L 128.84,347.7718 L 156.2769,347.7718 L 156.2769,345.8458 L 143.5378,345.8458 L 143.5378,326.0456"
               style="fill:#231f20;fill-opacity:1;fill-rule:nonzero;stroke:none"
               id="path2488" /><path
               d="M 205.1,339.0369 L 221.3727,326.0456 L 218.3017,326.0456 L 203.2373,338.0779 L 205.1,339.0369 z M 194.7622,326.0456 L 192.7456,326.0456 L 192.7456,347.7718 L 194.7622,347.7718 L 194.7622,326.0456"
               style="fill:#231f20;fill-opacity:1;fill-rule:nonzero;stroke:none"
               id="path2490" /><path
               d="M 222.9316,347.7718 L 235.5492,333.5801 L 248.1648,347.7718 L 250.7068,347.7718 L 236.5447,331.7553 L 236.5447,326.0456 L 234.5555,326.0456 L 234.5555,331.7553 L 220.3868,347.7718"
               style="fill:#231f20;fill-opacity:1;fill-rule:nonzero;stroke:none"
               id="path2492" /><path
               d="M 391.4534,340.4474 L 398.6903,347.7718 L 401.6667,347.7718 L 401.6667,326.0456 L 399.6494,326.0456 L 399.6494,346.0657 L 392.7899,339.1089"
               style="fill:#231f20;fill-opacity:1;fill-rule:nonzero;stroke:none"
               id="path2494" /><path
               d="M 172.8965,327.8548 C 161.4824,327.8548 159.7849,330.022 159.7849,336.9028 C 159.7849,343.7915 161.4824,345.9645 172.8965,345.9645 C 184.3076,345.9645 186.0069,343.7915 186.0069,336.9028 C 186.0069,330.022 184.3076,327.8548 172.8965,327.8548 z M 172.8965,347.7718 C 160.598,347.7718 157.7646,345.4781 157.7646,336.9028 C 157.7646,328.3333 160.598,326.0456 172.8965,326.0456 C 185.1959,326.0456 188.0255,328.3333 188.0255,336.9028 C 188.0255,345.4781 185.1959,347.7718 172.8965,347.7718"
               style="fill:#231f20;fill-opacity:1;fill-rule:nonzero;stroke:none"
               id="path2496" /><path
               d="M 266.0981,327.8548 C 254.6906,327.8548 252.9913,330.022 252.9913,336.9028 C 252.9913,343.7915 254.6906,345.9645 266.0981,345.9645 C 277.5139,345.9645 279.2161,343.7915 279.2161,336.9028 C 279.2161,330.022 277.5139,327.8548 266.0981,327.8548 z M 266.0981,347.7718 C 253.8043,347.7718 250.9774,345.4781 250.9774,336.9028 C 250.9774,328.3333 253.8043,326.0456 266.0981,326.0456 C 278.3992,326.0456 281.23,328.3333 281.23,336.9028 C 281.23,345.4781 278.3992,347.7718 266.0981,347.7718"
               style="fill:#231f20;fill-opacity:1;fill-rule:nonzero;stroke:none"
               id="path2498" /><path
               d="M 372.0695,327.8548 C 360.6597,327.8548 358.9594,330.022 358.9594,336.9028 C 358.9594,343.7915 360.6597,345.9645 372.0695,345.9645 C 383.4831,345.9645 385.1834,343.7915 385.1834,336.9028 C 385.1834,330.022 383.4831,327.8548 372.0695,327.8548 z M 372.0695,347.7718 C 359.7745,347.7718 356.9401,345.4781 356.9401,336.9028 C 356.9401,328.3333 359.7745,326.0456 372.0695,326.0456 C 384.3702,326.0456 387.2007,328.3333 387.2007,336.9028 C 387.2007,345.4781 384.3702,347.7718 372.0695,347.7718"
               style="fill:#231f20;fill-opacity:1;fill-rule:nonzero;stroke:none"
               id="path2500" /><path
               d="M 422.9903,337.4067 C 432.5578,337.4067 434.5284,336.8134 434.5284,332.6833 C 434.5284,328.4229 432.1103,327.9695 422.5331,327.9695 C 414.3488,327.9695 410.6915,328.5765 410.6915,332.9128 C 410.6915,336.4651 413.6874,337.4067 422.9903,337.4067 z M 422.9903,339.3268 C 415.4557,339.3268 411.6466,338.5798 410.4327,335.7395 C 410.423,336.0936 410.4172,336.4885 410.4172,336.9028 C 410.4172,343.9899 412.9579,345.8458 424.1634,345.8458 L 435.2171,345.8458 L 435.2171,347.7718 L 424.8851,347.7718 C 411.6019,347.7718 408.394,345.7466 408.394,336.9028 C 408.394,328.3567 409.4659,326.0456 422.5331,326.0456 C 433.013,326.0456 436.6684,326.6992 436.6684,332.6833 C 436.6684,338.5428 433.4643,339.3268 422.9903,339.3268"
               style="fill:#231f20;fill-opacity:1;fill-rule:nonzero;stroke:none"
               id="path2502" /><path
               d="M 340.515,336.5293 C 348.709,336.5293 352.2828,336.541 352.2828,342.278 C 352.2828,347.8749 348.7869,347.7718 340.7018,347.7718 L 326.8253,347.7718 L 326.8253,345.8458 L 340.515,345.8458 C 348.7947,345.8458 350.1409,345.5521 350.1409,342.278 C 350.1409,338.7179 348.7713,338.4611 340.515,338.4611 L 337.0425,338.4611 C 328.368,338.4611 325.7106,337.7141 325.7106,332.2475 L 325.7106,326.0456 L 352.2633,326.0456 L 352.2633,327.9695 L 327.8524,327.9695 L 327.8524,332.2475 C 327.8524,335.6811 328.938,336.5293 337.2896,336.5293"
               style="fill:#231f20;fill-opacity:1;fill-rule:nonzero;stroke:none"
               id="path2504" /><path
               d="M 194.4003,332.5743 L 219.0075,347.7718 L 215.7645,347.7718 L 194.3842,334.6812"
               style="fill:#231f20;fill-opacity:1;fill-rule:nonzero;stroke:none"
               id="path2506" /><path
               d="M 148.085,383.9883 C 149.4176,383.1847 154.9138,379.9113 164.8308,379.9113 C 177.1729,379.9113 189.3022,384.3188 200.9061,392.4862 L 198.5116,396.3247 C 187.8299,388.8149 176.2867,384.2087 164.3445,384.2087 C 156.5999,384.2087 150.0057,386.5397 147.5454,388.3474 C 147.5245,388.0198 147.5074,387.6959 147.5074,387.3757 C 147.5131,386.2072 147.7117,385.075 148.085,383.9883"
               style="fill:#231f20;fill-opacity:1;fill-rule:nonzero;stroke:none"
               id="path2508" /><path
               d="M 161.434,386.9302 C 173.5318,386.9302 185.4247,391.1676 196.812,399.0348 L 194.4155,402.8782 C 183.9353,395.6485 172.6296,391.2256 160.9476,391.2256 C 156.4518,391.2256 152.4945,391.9656 148.7747,393.4428 C 148.2569,392.1242 147.8922,390.8182 147.6908,389.551 C 148.2341,389.3164 153.9582,386.9302 161.434,386.9302"
               style="fill:#f9a91e;fill-opacity:1;fill-rule:nonzero;stroke:none"
               id="path2510" /><path
               d="M 158.0418,393.9453 C 169.8758,394.0497 181.5206,398.1162 192.6915,405.6375 L 190.2957,409.4799 C 180.0121,402.5665 168.9599,398.3423 157.5508,398.2397 C 155.5635,398.2236 153.5831,398.386 151.6595,398.7129 C 150.7152,397.3507 149.9211,395.9836 149.2894,394.631 C 151.9132,394.1674 154.8169,393.9157 158.0418,393.9453"
               style="fill:#0b8ed8;fill-opacity:1;fill-rule:nonzero;stroke:none"
               id="path2512" /><path
               d="M 167.7394,377.1928 C 161.4653,377.1395 154.7437,378.3649 150.0341,381.4959 L 149.5849,381.0436 C 150.5528,379.653 155.519,373.1215 170.9445,373.1215 C 181.1341,373.1215 192.9156,377.5062 204.8806,386.1199 L 202.5467,389.8625 C 191.6941,382.1075 179.9172,377.2953 167.7394,377.1928"
               style="fill:#19ae48;fill-opacity:1;fill-rule:nonzero;stroke:none"
               id="path2514" /><g
               id="g2516"><g
                 id="g2518"><g
                   id="g2524"><path
                     d="M 232.7175,414.1905 L 230.2858,418.0851 C 222.1299,407.0435 212.74,397.1501 202.5467,389.8625 L 204.8806,386.1199 C 214.2827,392.8899 223.7912,402.2712 232.7175,414.1905"
                     style="fill:url(#linearGradient2526);stroke:none"
                     id="path2536" /></g></g></g><g
               id="g2538"><g
                 id="g2540"><g
                   id="g2546"><path
                     d="M 228.7487,420.5377 L 226.3588,424.3659 C 218.1603,413.3584 208.7315,403.5098 198.5116,396.3247 L 200.9061,392.4862 C 210.618,399.3235 219.9613,408.7932 228.7487,420.5377"
                     style="fill:url(#linearGradient2548);stroke:none"
                     id="path2558" /></g></g></g><g
               id="g2560"><g
                 id="g2562"><g
                   id="g2568"><path
                     d="M 224.8104,426.8441 L 222.4168,430.6752 C 214.1545,419.7245 204.6822,409.954 194.4155,402.8782 L 196.812,399.0348 C 206.5772,405.7706 215.9698,415.1661 224.8104,426.8441"
                     style="fill:url(#linearGradient2570);stroke:none"
                     id="path2580" /></g></g></g><g
               id="g2582"><g
                 id="g2584"><g
                   id="g2590"><path
                     d="M 190.2957,409.4799 L 192.6915,405.6375 C 201.7193,411.7159 210.4337,420.0523 218.6997,430.3834 C 216.5378,430.1042 214.429,429.8011 212.3801,429.4782 C 205.5986,421.6596 198.1725,414.7803 190.2957,409.4799"
                     style="fill:url(#linearGradient2592);stroke:none"
                     id="path2602" /></g></g></g><g
               id="g2604"><g
                 id="g2606"><g
                   id="g2612"><path
                     d="M 236.9635,407.3987 L 234.3361,411.6048 C 226.1214,400.6326 216.665,390.841 206.4573,383.6045 L 209.1638,379.2768 C 218.8394,386.2072 228.1723,395.6854 236.9635,407.3987"
                     style="fill:url(#linearGradient2614);stroke:none"
                     id="path2624" /></g></g></g><path
               d="M 238.8463,546.9574 L 230.7,546.9574 C 232.7697,536.0962 234.2573,525.9445 235.1065,516.3107 L 241.316,514.6474 C 241.0586,524.9481 240.2056,535.6697 238.8463,546.9574"
               style="fill:#0b8ed8;fill-opacity:1;fill-rule:nonzero;stroke:none"
               id="path2626" /><g
               id="g2628"><g
                 id="g2630"><g
                   id="g2636"><path
                     d="M 235.0228,480.9733 L 238.7551,475.0079 C 240.8952,487.6807 241.656,500.7788 241.316,514.6474 L 235.1065,516.3107 C 236.2047,503.7928 236.2264,492.1498 235.0228,480.9733"
                     style="fill:url(#linearGradient2638);stroke:none"
                     id="path2648" /></g></g></g><path
               d="M 250.6146,546.9574 L 242.4702,546.9574 C 243.8884,535.2014 244.7375,524.176 244.9029,513.6862 L 250.9128,512.076 C 251.3896,523.2469 251.2225,534.8376 250.6146,546.9574"
               style="fill:#f9a91e;fill-opacity:1;fill-rule:nonzero;stroke:none"
               id="path2650" /><g
               id="g2652"><g
                 id="g2654"><g
                   id="g2660"><path
                     d="M 241.0158,471.386 L 241.5858,470.4779 C 242.8672,470.5662 244.1573,470.6479 245.4651,470.722 C 248.6274,483.9665 250.303,497.6717 250.9128,512.076 L 244.9029,513.6862 C 245.1346,498.6664 243.9586,484.7501 241.0158,471.386"
                     style="fill:url(#linearGradient2662);stroke:none"
                     id="path2672" /></g></g></g><g
               id="g2674"><g
                 id="g2676"><g
                   id="g2682"><path
                     d="M 256.844,471.2691 C 258.4865,471.3329 260.145,471.386 261.8254,471.4335 C 265.8197,484.0871 268.6343,497.2034 270.6252,510.7415 L 264.5896,510.7415 C 263.1799,496.9412 260.6883,483.843 256.844,471.2691"
                     style="fill:url(#linearGradient2684);stroke:none"
                     id="path2694" /></g></g></g><g
               id="g2696"><g
                 id="g2698"><g
                   id="g2704"><path
                     d="M 248.6626,470.9006 C 250.2498,470.986 251.8532,471.0677 253.4862,471.1362 C 257.0446,483.8591 259.3356,497.0363 260.7064,510.7415 L 254.7219,510.7415 C 253.9944,496.7351 252.0698,483.5609 248.6626,470.9006"
                     style="fill:url(#linearGradient2706);stroke:none"
                     id="path2716" /></g></g></g><g
               id="g2718"><g
                 id="g2720"><g
                   id="g2726"><path
                     d="M 265.0312,471.5171 C 266.7534,471.558 268.5002,471.5912 270.2709,471.6187 C 274.6043,484.3636 278.1086,497.5435 280.7967,510.7415 L 274.4932,510.7415 C 272.3436,497.3382 269.1786,484.1784 265.0312,471.5171"
                     style="fill:url(#linearGradient2728);stroke:none"
                     id="path2738" /></g></g></g><path
               d="M 266.0097,546.9574 C 266.1893,534.3199 265.7617,522.2837 264.5896,510.7415 L 270.6252,510.7415 C 272.3597,522.5002 273.4598,534.5802 274.157,546.9574"
               style="fill:#19ae48;fill-opacity:1;fill-rule:nonzero;stroke:none"
               id="path2740" /><path
               d="M 254.2441,546.9574 C 255.1087,534.2106 255.3194,522.1981 254.7219,510.7415 L 260.7064,510.7415 C 261.8633,522.4148 262.3621,534.4691 262.3961,546.9574"
               style="fill:#231f20;fill-opacity:1;fill-rule:nonzero;stroke:none"
               id="path2742" /><path
               d="M 277.778,546.9574 C 277.5139,534.8205 276.4073,522.6864 274.4932,510.7415 L 280.7967,510.7415 C 283.2742,522.9088 285.0562,535.0845 286.1505,546.9574"
               style="fill:#ed1c24;fill-opacity:1;fill-rule:nonzero;stroke:none"
               id="path2744" /><g
               id="g2746"><g
                 id="g2748"><g
                   id="g2754"><path
                     d="M 241.5858,470.4779 L 244.3784,466.0114 C 255.0336,466.6659 266.6005,467.0193 279.1439,467.0193 C 282.442,467.0193 285.7857,466.9861 289.1786,466.9235 L 286.2151,471.671 C 284.2601,471.6852 282.3127,471.6918 280.3732,471.6918 C 266.2292,471.6918 253.3304,471.2691 241.5858,470.4779"
                     style="fill:url(#linearGradient2756);stroke:none"
                     id="path2766" /></g></g></g><g
               id="g2768"><g
                 id="g2770"><g
                   id="g2776"><path
                     d="M 265.3353,432.4733 C 280.6751,432.0866 296.778,430.7682 313.1429,428.5691 L 309.6093,434.2296 C 293.5274,436.0392 277.9224,436.9721 262.4162,437.1401"
                     style="fill:url(#linearGradient2778);stroke:none"
                     id="path2788" /></g></g></g><g
               id="g2790"><g
                 id="g2792"><g
                   id="g2798"><path
                     d="M 246.6468,462.3763 L 249.525,457.7768 C 257.6677,458.1454 266.327,458.3448 275.5305,458.3448 C 281.7581,458.3448 288.1984,458.2061 294.7869,457.9544 L 291.6826,462.9272 C 286.6635,463.0459 281.684,463.1095 276.7513,463.1095 C 265.9679,463.1095 255.953,462.8568 246.6468,462.3763"
                     style="fill:url(#linearGradient2800);stroke:none"
                     id="path2810" /></g></g></g><g
               id="g2812"><g
                 id="g2814"><g
                   id="g2820"><path
                     d="M 251.8153,454.1054 L 254.7762,449.3664 C 259.7166,449.5107 264.8441,449.5839 270.1589,449.5839 C 280.0141,449.5839 290.2426,449.2125 300.6801,448.5161 L 297.3935,453.7786 C 288.6411,454.2118 279.9686,454.4408 271.3843,454.4408 C 264.5449,454.4408 258.0258,454.3258 251.8153,454.1054"
                     style="fill:url(#linearGradient2822);stroke:none"
                     id="path2832" /></g></g></g><g
               id="g2834"><g
                 id="g2836"><g
                   id="g2842"><path
                     d="M 257.1033,445.6447 L 260.162,440.7489 C 261.5509,440.7592 262.9576,440.765 264.3701,440.765 C 278.0895,440.765 292.34,440.0544 306.8203,438.6971 L 303.2639,444.3831 C 290.7823,445.2694 278.2776,445.7139 265.5992,445.7139 C 262.7088,445.7139 259.877,445.6855 257.1033,445.6447"
                     style="fill:url(#linearGradient2844);stroke:none"
                     id="path2854" /></g></g></g><path
               d="M 128.84,412.2793 L 129.7433,412.3581 C 130.9972,425.8629 140.5143,439.8919 164.7482,450.3589 L 162.3763,454.1492 C 136.7717,442.5023 128.84,426.7519 128.84,412.2793"
               style="fill:#0b8ed8;fill-opacity:1;fill-rule:nonzero;stroke:none"
               id="path2856" /><g
               id="g2858"><g
                 id="g2860"><g
                   id="g2866"><path
                     d="M 200.6412,465.5222 C 184.8566,462.5549 172.2922,458.6611 162.3763,454.1492 L 164.7482,450.3589 C 174.8676,454.7275 187.5545,458.476 203.2772,461.3028"
                     style="fill:url(#linearGradient2868);stroke:none"
                     id="path2878" /></g></g></g><path
               d="M 170.9445,370.8588 C 154.1815,370.8588 145.2448,378.5017 145.2448,387.3216 C 145.2448,397.2548 155.196,412.0674 182.4525,422.0215 L 179.8859,426.1337 C 150.9537,415.5394 140.5143,399.4091 140.5143,387.3463 C 140.5143,381.2982 144.3747,365.8794 171.3956,365.8794 C 184.2601,365.8794 196.9821,370.5606 209.1638,379.2768 L 206.4573,383.6045 C 195.3084,375.7052 183.2581,370.8588 170.9445,370.8588"
               style="fill:#ed1c24;fill-opacity:1;fill-rule:nonzero;stroke:none"
               id="path2880" /><g
               id="g2882"><g
                 id="g2884"><g
                   id="g2890"><path
                     d="M 222.3275,430.8205 L 219.6563,435.095 C 203.6353,433.1706 190.5115,430.0255 179.8859,426.1337 L 182.4525,422.0215 C 193.0088,425.8714 206.1564,428.9957 222.3275,430.8205"
                     style="fill:url(#linearGradient2892);stroke:none"
                     id="path2902" /></g></g></g><path
               d="M 131.5586,404.5633 L 132.4629,404.645 C 133.8051,419.0977 143.8427,433.3433 169.0123,443.5244 L 166.5121,447.5282 C 139.4722,436.0412 131.5586,419.8234 131.5586,404.5633"
               style="fill:#f9a91e;fill-opacity:1;fill-rule:nonzero;stroke:none"
               id="path2904" /><g
               id="g2906"><g
                 id="g2908"><g
                   id="g2914"><path
                     d="M 205.2776,458.1073 C 189.3145,455.4353 176.583,451.8114 166.5121,447.5282 L 169.0123,443.5244 C 179.3282,447.6965 192.1765,451.1883 208.0115,453.7292"
                     style="fill:url(#linearGradient2916);stroke:none"
                     id="path2926" /></g></g></g><path
               d="M 134.282,396.8509 L 135.1863,396.9279 C 136.6035,412.2441 147.5322,426.6286 173.4161,436.4808 L 170.9454,440.4362 C 143.1037,429.2142 134.282,412.7703 134.282,396.8509"
               style="fill:#231f20;fill-opacity:1;fill-rule:nonzero;stroke:none"
               id="path2928" /><g
               id="g2930"><g
                 id="g2932"><g
                   id="g2938"><path
                     d="M 210.069,450.4387 C 194.0935,448.0079 181.2234,444.5788 170.9454,440.4362 L 173.4161,436.4808 C 183.9543,440.4913 196.9698,443.7524 212.8332,446.0161"
                     style="fill:url(#linearGradient2940);stroke:none"
                     id="path2950" /></g></g></g><path
               d="M 137.0044,389.1378 L 137.9011,389.2147 C 139.3592,404.928 150.8008,419.6932 177.8654,429.3605 L 175.3158,433.4441 C 146.3638,422.4699 137.0044,405.6262 137.0044,389.1378"
               style="fill:#19ae48;fill-opacity:1;fill-rule:nonzero;stroke:none"
               id="path2952" /><g
               id="g2954"><g
                 id="g2956"><g
                   id="g2962"><path
                     d="M 214.8716,442.7437 C 198.8069,440.6053 185.7809,437.41 175.3158,433.4441 L 177.8654,429.3605 C 188.5869,433.1914 201.7516,436.2225 217.7214,438.1889"
                     style="fill:url(#linearGradient2964);stroke:none"
                     id="path2974" /></g></g></g><path
               d="M 286.2151,471.671 L 289.1786,466.9235 C 317.3111,466.4141 348.5068,463.8618 377.8239,460.1534 L 377.8239,466.2747 C 347.4854,469.5071 315.9223,471.442 286.2151,471.671"
               style="fill:#0b8ed8;fill-opacity:1;fill-rule:nonzero;stroke:none"
               id="path2976" /><path
               d="M 309.6093,434.2296 L 313.1429,428.5691 C 334.6224,425.6843 356.5588,421.2844 377.8239,415.5032 L 377.8239,421.9464 C 353.6134,427.796 331.1752,431.7998 309.6093,434.2296"
               style="fill:#ed1c24;fill-opacity:1;fill-rule:nonzero;stroke:none"
               id="path2978" /><path
               d="M 291.6826,462.9272 L 294.7869,457.9544 C 321.2171,456.9323 350.1039,453.9315 377.8239,449.5619 L 377.8239,455.8238 C 348.8589,459.7288 319.6401,462.2498 291.6826,462.9272"
               style="fill:#f9a91e;fill-opacity:1;fill-rule:nonzero;stroke:none"
               id="path2980" /><path
               d="M 297.3935,453.7786 L 300.6801,448.5161 C 325.944,446.8348 352.4306,443.2471 377.8239,438.3665 L 377.8239,444.6947 C 350.5494,449.2943 323.6309,452.4763 297.3935,453.7786"
               style="fill:#231f20;fill-opacity:1;fill-rule:nonzero;stroke:none"
               id="path2982" /><path
               d="M 303.2639,444.3831 L 306.8203,438.6971 C 330.3114,436.4884 354.4149,432.5673 377.8239,427.1842 L 377.8239,433.8801 C 352.3334,439.1492 327.8466,442.6334 303.2639,444.3831"
               style="fill:#19ae48;fill-opacity:1;fill-rule:nonzero;stroke:none"
               id="path2984" /><path
               d="M 445.7223,456.4175 C 424.8598,460.3756 401.7154,463.727 377.8239,466.2747 L 377.8239,460.1534 C 400.5073,457.2819 422.074,453.715 440.2304,449.864"
               style="fill:#0b8ed8;fill-opacity:1;fill-rule:nonzero;stroke:none"
               id="path2986" /><path
               d="M 409.6974,413.479 C 398.702,416.6459 388.1053,419.4606 377.8239,421.9464 L 377.8239,415.5032 C 386.8837,413.0364 395.8306,410.3215 404.5654,407.3617"
               style="fill:#ed1c24;fill-opacity:1;fill-rule:nonzero;stroke:none"
               id="path2988" /><path
               d="M 436.8979,445.8954 C 417.658,449.7681 397.8051,453.1261 377.8239,455.8238 L 377.8239,449.5619 C 396.5037,446.623 414.6504,443.06 431.1668,439.0618"
               style="fill:#f9a91e;fill-opacity:1;fill-rule:nonzero;stroke:none"
               id="path2990" /><path
               d="M 427.6515,434.8745 C 410.9677,438.6002 394.3306,441.9058 377.8239,444.6947 L 377.8239,438.3665 C 393.1556,435.4218 408.0846,432.0059 422.0974,428.2547"
               style="fill:#231f20;fill-opacity:1;fill-rule:nonzero;stroke:none"
               id="path2992" /><path
               d="M 418.6812,424.1787 C 404.6821,427.9024 391.1149,431.1359 377.8239,433.8801 L 377.8239,427.1842 C 389.8777,424.4077 401.7504,421.2455 413.2672,417.7336"
               style="fill:#19ae48;fill-opacity:1;fill-rule:nonzero;stroke:none"
               id="path2994" /><path
               d="M 244.1847,404.8094 L 240.1534,402.29 L 198.1725,469.4739 L 202.2028,471.993"
               style="fill:#0b8ed8;fill-opacity:1;fill-rule:nonzero;stroke:none"
               id="path2996" /><path
               d="M 251.0944,409.1303 L 247.0629,406.6093 L 205.081,473.795 L 209.1161,476.3112"
               style="fill:#f9a91e;fill-opacity:1;fill-rule:nonzero;stroke:none"
               id="path2998" /><path
               d="M 258.0038,413.4467 L 253.9735,410.9294 L 211.9926,478.1105 L 216.0268,480.6313"
               style="fill:#231f20;fill-opacity:1;fill-rule:nonzero;stroke:none"
               id="path3000" /><path
               d="M 264.9164,417.765 L 260.882,415.2488 L 218.9069,482.4277 L 222.9382,484.9487"
               style="fill:#19ae48;fill-opacity:1;fill-rule:nonzero;stroke:none"
               id="path3002" /><path
               d="M 271.8268,422.0814 L 267.7937,419.5621 L 225.8164,486.7459 L 229.8479,489.2669"
               style="fill:#ed1c24;fill-opacity:1;fill-rule:nonzero;stroke:none"
               id="path3004" /><path
               d="M 320.1969,336.9028 C 320.1969,327.5319 312.5956,319.9331 303.2182,319.9331 C 293.8447,319.9331 286.2454,327.5319 286.2454,336.9028 C 286.2454,346.2855 293.8447,353.886 303.2182,353.886 C 312.5956,353.886 320.1969,346.2855 320.1969,336.9028"
               style="fill:#ed1c24;fill-opacity:1;fill-rule:evenodd;stroke:none"
               id="path3006" /><path
               d="M 428.1884,304.8135 L 428.1884,299.7885 L 427.6923,299.7885 L 427.6923,304.8135 L 425.957,304.8135 L 425.957,305.2162 L 429.9237,305.2162 L 429.9237,304.8135"
               style="fill:#231f20;fill-opacity:1;fill-rule:nonzero;stroke:none"
               id="path3008" /><path
               d="M 436.1918,299.7885 L 436.1918,304.8135 L 434.1452,299.7885 L 433.6705,299.7885 L 431.6143,304.8135 L 431.6143,299.7885 L 431.1551,299.7885 L 431.1551,305.2162 L 431.9605,305.2162 L 433.9254,300.3741 L 435.8688,305.2162 L 436.6684,305.2162 L 436.6684,299.7885"
               style="fill:#231f20;fill-opacity:1;fill-rule:nonzero;stroke:none"
               id="path3010" /></g></g></g></g></g></svg>