<?xml version="1.0" encoding="UTF-8" standalone="no"?>
<svg id="Layer_2" enable-background="new 0 0 694 1367" height="441.27899" viewBox="0 0 226.00022 441.27899" width="226.00021" xmlns="http://www.w3.org/2000/svg" xmlns:xlink="http://www.w3.org/1999/xlink">
   <linearGradient id="lg1">
      <stop id="stop71" offset=".7" stop-color="#db0010"/>
      <stop id="stop73" offset=".85" stop-color="#e4916e"/>
      <stop id="stop75" offset="1" stop-color="#e4916e" stop-opacity="0"/>
   </linearGradient>
   <linearGradient id="SVGID_1_" gradientUnits="userSpaceOnUse" x1="188.8049" x2="613.12842" xlink:href="#lg1" y1="657.59613" y2="233.2726"/>
   <linearGradient id="SVGID_2_" gradientUnits="userSpaceOnUse" x1="64.839302" x2="533.63452" y1="533.63062" y2="64.835403">
      <stop id="stop80" offset=".6" stop-color="#cc000c"/>
      <stop id="stop82" offset=".8" stop-color="#e4916e"/>
      <stop id="stop84" offset="1" stop-color="#e4916e" stop-opacity="0"/>
   </linearGradient>
   <linearGradient id="SVGID_3_" gradientUnits="userSpaceOnUse" x1="297.46552" x2="644.46558" xlink:href="#lg1" y1="766.25677" y2="419.25681"/>
   <g id="g3013" transform="matrix(.93533636 0 0 .93533636 2 1.999899)">
      <path id="circle3015" d="m54.08 380.29c-16.43 0-29.81 13.38-29.81 29.81 0 16.43 13.38 29.81 29.81 29.81 16.43 0 29.81-13.38 29.81-29.81 0-16.44-13.38-29.81-29.81-29.81zm0 5.24c13.6 0 24.57 10.97 24.57 24.57 0 13.6-10.97 24.57-24.57 24.57-13.6 0-24.57-10.97-24.57-24.57 0-13.6 10.97-24.57 24.57-24.57z" fill="#0885c2"/>
      <path id="circle3017" d="m118.67 380.29c-16.43 0-29.81 13.38-29.81 29.81 0 16.43 13.38 29.81 29.81 29.81 16.43 0 29.81-13.38 29.81-29.81.01-16.44-13.37-29.81-29.81-29.81zm0 5.24c13.6 0 24.57 10.97 24.57 24.57 0 13.6-10.97 24.57-24.57 24.57-13.6 0-24.57-10.97-24.57-24.57.01-13.6 10.97-24.57 24.57-24.57z"/>
      <path id="circle3019" d="m183.27 380.29c-16.43 0-29.81 13.38-29.81 29.81 0 16.43 13.38 29.81 29.81 29.81 16.43 0 29.81-13.38 29.81-29.81 0-16.44-13.38-29.81-29.81-29.81zm0 5.24c13.6 0 24.57 10.97 24.57 24.57 0 13.6-10.97 24.57-24.57 24.57-13.6 0-24.57-10.97-24.57-24.57 0-13.6 10.97-24.57 24.57-24.57z" fill="#ed334e"/>
      <path id="circle3021" d="m86.38 407.89c-16.43 0-29.81 13.38-29.81 29.81 0 16.43 13.38 29.81 29.81 29.81 16.43 0 29.81-13.38 29.81-29.81 0-16.43-13.38-29.81-29.81-29.81zm0 5.24c13.6 0 24.57 10.97 24.57 24.57 0 13.6-10.97 24.57-24.57 24.57-13.6 0-24.57-10.97-24.57-24.57 0-13.6 10.97-24.57 24.57-24.57z" fill="#fbb132"/>
      <path id="circle3023" d="m150.97 407.89c-16.43 0-29.81 13.38-29.81 29.81 0 16.43 13.38 29.81 29.81 29.81 16.43 0 29.81-13.38 29.81-29.81 0-16.43-13.38-29.81-29.81-29.81zm0 5.24c13.6 0 24.57 10.97 24.57 24.57 0 13.6-10.97 24.57-24.57 24.57-13.6 0-24.57-10.97-24.57-24.57 0-13.6 10.97-24.57 24.57-24.57z" fill="#1c8b3c"/>
      <path id="path3025" d="m77.93 392.21l-4.2 3.15c6.56 8.74 6.56 20.74 0 29.48l4.2 3.15c7.94-10.6 7.94-25.19 0-35.78z" fill="#0885c2"/>
      <path id="path3027" d="m142.52 392.21l-4.2 3.15c6.56 8.74 6.56 20.74 0 29.48l4.2 3.15c7.95-10.6 7.95-25.19 0-35.78zm-38.59 37.54l-3.15 4.2c5.16 3.87 11.44 5.96 17.89 5.96v-5.24c-5.31 0-10.48-1.73-14.74-4.92z"/>
      <path id="path3029" d="m168.53 429.75l-3.15 4.2c5.16 3.87 11.44 5.96 17.89 5.96v-5.24c-5.32 0-10.49-1.73-14.74-4.92z" fill="#ed334e"/>
   </g>
   <g id="g29" fill="#c28b4c" transform="matrix(.31988504 0 0 .31988504 2 2)">
      <path id="path2630" d="m-396.9 427.36h-14.12v-74.79h-20.55v-13.13h55.22v13.13h-20.55z" transform="translate(460.3107 638.1045)"/>
      <path id="path2634" d="m-241.05 427.36h-16.84l-21.05-37.89-7.92 11.14v26.75h-14.12v-87.91h14.12v39.38h.5l26.75-39.62h16.1l-25.75 38.14z" transform="translate(482.342 638.1045)"/>
      <path id="path2638" d="m-199.68 427.36h-14.12v-37.64l-23.28-50.02h14.61l15.6 34.42h.5l15.6-34.42h14.61l-23.28 50.02z" transform="translate(488.2209 638.1045)"/>
      <path id="path2642" d="m-46.93 427.36h-49.28v-12.63l.25-.25 32.69-42.1c1.49-1.98 2.72-4.21 2.72-8.17 0-7.18-5.7-11.39-10.65-11.39-3.22 0-5.94.99-7.92 2.97-1.98 1.98-3.22 5.2-3.47 9.91v.74h-13.62v-.74c0-7.43 2.72-14.61 7.18-19.56 4.46-4.71 10.15-7.18 16.84-7.18 7.68 0 13.62 2.48 18.08 7.18 4.71 4.71 6.93 10.9 6.93 18.33 0 6.19-1.73 11.14-6.19 16.84l-24.76 32.19.25.25h30.96v13.61z" transform="translate(509.8312 638.1045)"/>
      <path id="path2646" d="m72.92 427.36h-49.28v-12.63l.25-.25 32.69-42.1c1.49-1.98 2.72-4.21 2.72-8.17 0-7.18-5.7-11.39-10.65-11.39-3.22 0-5.94.99-7.92 2.97-1.98 1.98-3.22 5.2-3.47 9.91v.74h-13.62v-.74c0-7.43 2.72-14.61 7.18-19.56 4.46-4.71 10.15-7.18 16.84-7.18 7.43 0 13.62 2.48 18.08 7.18 4.71 4.71 6.93 10.9 6.93 18.33 0 6.19-1.73 11.14-6.19 16.84l-24.76 32.19.25.25h30.96v13.61z" transform="translate(526.7658 638.1045)"/>
      <path id="path2650" d="m-146.16 343.43c-8.17 0-14.12 6.19-14.12 14.61v31.7c0 9.16 5.7 15.35 14.12 15.35 8.42 0 14.12-6.19 14.12-15.35v-31.7c0-8.42-5.95-14.61-14.12-14.61m0 75.28c-16.1 0-27.49-11.14-27.49-26.75v-36.16c0-15.6 11.39-26.5 27.49-26.5 16.1 0 27.49 10.9 27.49 26.5v36.4c.25 15.37-11.39 26.51-27.49 26.51" transform="translate(495.7912 647.3599)"/>
      <path id="path2654" d="m-340.25 343.43c-8.17 0-14.12 6.19-14.12 14.61v31.7c0 9.16 5.7 15.35 14.12 15.35 8.42 0 14.12-6.19 14.12-15.35v-31.7c0-8.42-5.95-14.61-14.12-14.61m0 75.28c-16.1 0-27.49-11.14-27.49-26.75v-36.16c0-15.6 11.39-26.5 27.49-26.5 16.34 0 27.49 10.9 27.49 26.5v36.4c0 15.37-11.64 26.51-27.49 26.51" transform="translate(468.3234 647.3599)"/>
      <path id="path2658" d="m-7.54 343.43c-9.16 0-10.9 6.93-10.9 12.88v35.91c0 8.67 3.71 12.88 10.9 12.88 7.43 0 10.9-4.21 10.9-12.88v-35.92c-.01-5.94-1.99-12.87-10.9-12.87m0 75.28c-9.16 0-24.52-5.45-24.52-25.51v-38.14c0-15.35 9.91-25.51 24.52-25.51 14.61 0 24.52 10.15 24.52 25.51v38.14c-.26 20.31-15.61 25.51-24.52 25.51" transform="translate(515.3713 647.3599)"/>
      <path id="path2662" d="m109.53 343.43c-9.16 0-10.9 6.93-10.9 12.88v35.91c0 8.67 3.71 12.88 10.9 12.88 7.43 0 10.9-4.21 10.9-12.88v-35.92c-.01-5.94-1.99-12.87-10.9-12.87m0 75.28c-9.16 0-24.52-5.45-24.52-25.51v-38.14c0-15.35 9.91-25.51 24.52-25.51 14.61 0 24.52 10.15 24.52 25.51v38.14c-.25 20.31-15.61 25.51-24.52 25.51" transform="translate(531.9338 647.3599)"/>
   </g>
   <g id="g63" fill="#c28b4c" transform="matrix(.31988504 0 0 .31988504 2 2)">
      <path id="path31" d="m75.91 940.33h19.13v6.7h-26.36v-46.23h7.23z"/>
      <path id="path33" d="m100.27 900.8l8.6 18.49 8.66-18.49h8.35l-13.4 26.93v19.3h-7.23v-19.3l-13.4-26.93z"/>
      <path id="path35" d="m152.55 932.6l8.4-31.8h10.92v46.23h-6.98v-32.96l-9.85 32.96h-5.11l-9.66-32.75v32.75h-6.98v-46.23h10.85z"/>
      <path id="path37" d="m190.43 930.14v16.88h-7.23v-46.22h14.64c9.91 0 15.83 5.09 15.83 14.61 0 9.38-5.86 14.74-15.83 14.74h-7.41zm6.67-6.69c6.61 0 9.35-2.75 9.35-8.04 0-5.02-2.74-7.84-9.35-7.84h-6.67v15.88z"/>
      <path id="path39" d="m228.44 947.03h-7.23v-46.23h7.23z"/>
      <path id="path41" d="m318.42 900.8v6.77h-12.34v39.46h-7.23v-39.46h-12.4v-6.77z"/>
      <path id="path43" d="m386.77 947.03l-8.29-18.76h-8.35v18.76h-7.23v-46.23h14.64c9.91 0 15.83 4.62 15.83 13.8 0 6.37-2.8 10.45-7.79 12.4l9.16 20.03zm-9.72-25.46c6.11 0 9.1-1.74 9.1-6.97 0-5.23-2.99-7.04-9.1-7.04h-6.92v14h6.92z"/>
      <path id="path45" d="m446.02 919.76h16.45v-18.96h7.23v46.23h-7.23v-20.57h-16.45v20.57h-7.23v-46.23h7.23z"/>
      <path id="path47" d="m516.81 947.03l-8.29-18.76h-8.35v18.76h-7.23v-46.23h14.64c9.91 0 15.83 4.62 15.83 13.8 0 6.37-2.8 10.45-7.79 12.4l9.16 20.03zm-9.72-25.46c6.11 0 9.1-1.74 9.1-6.97 0-5.23-2.99-7.04-9.1-7.04h-6.92v14h6.92z"/>
      <path id="path49" d="m558.06 900.8v6.77h-19.13v12.19h17.26v6.7h-17.26v13.87h19.13v6.7h-26.36v-46.23z"/>
      <path id="path51" d="m574.63 940.33h19.13v6.7h-26.36v-46.23h7.23z"/>
      <path id="path53" d="m598.12 947.03l14.96-46.23h6.85l14.96 46.23h-7.67l-2.93-9.58h-15.52l-2.93 9.58zm12.65-16.28h11.47l-5.73-18.69z"/>
      <path id="path55" d="m640.37 900.8l8.6 18.49 8.66-18.49h8.35l-13.4 26.93v19.3h-7.23v-19.3l-13.4-26.93z"/>
      <path id="path2654_1_" d="m44.85 907.69c-4.34 0-7.49 3.29-7.49 7.75v16.82c0 4.86 3.02 8.15 7.49 8.15 4.47 0 7.49-3.29 7.49-8.15v-16.82c0-4.47-3.16-7.75-7.49-7.75m0 39.94c-8.54 0-14.59-5.91-14.59-14.19v-19.18c0-8.28 6.04-14.06 14.59-14.06 8.67 0 14.59 5.78 14.59 14.06v19.32c-.01 8.14-6.18 14.05-14.59 14.05"/>
      <path id="path2654_2_" d="m338.39 907.69c-4.34 0-7.49 3.29-7.49 7.75v16.82c0 4.86 3.02 8.15 7.49 8.15 4.47 0 7.49-3.29 7.49-8.15v-16.82c0-4.47-3.16-7.75-7.49-7.75m0 39.94c-8.54 0-14.59-5.91-14.59-14.19v-19.18c0-8.28 6.04-14.06 14.59-14.06 8.67 0 14.59 5.78 14.59 14.06v19.32c-.01 8.14-6.18 14.05-14.59 14.05"/>
      <path id="path59" d="m253.27 940.4c-4.47 0-7.49-3.29-7.49-8.15v-16.82c0-4.47 3.15-7.75 7.49-7.75 4.24 0 7.34 3.14 7.48 7.45h7.11v-.88c0-8.28-5.91-14.06-14.59-14.06-8.54 0-14.59 5.78-14.59 14.06v19.18c0 8.28 6.04 14.19 14.59 14.19 8.41 0 14.59-5.91 14.59-14.06v-.88h-7.11c-.18 4.63-3.15 7.72-7.48 7.72z"/>
      <path id="path61" d="m415.65 940.4c-4.47 0-7.49-3.29-7.49-8.15v-16.82c0-4.47 3.15-7.75 7.49-7.75 4.24 0 7.34 3.14 7.48 7.45h7.11v-.88c0-8.28-5.91-14.06-14.59-14.06-8.54 0-14.59 5.78-14.59 14.06v19.18c0 8.28 6.04 14.19 14.59 14.19 8.41 0 14.59-5.91 14.59-14.06v-.88h-7.11c-.18 4.63-3.15 7.72-7.48 7.72z"/>
   </g>
   <g id="g69" fill="#c28b4c" transform="matrix(.31988504 0 0 .31988504 2 2)">
      <path id="path65" d="m576.56 695.26v2.65h-7.14v20.81h-2.92v-20.81h-7.14v-2.65z"/>
      <path id="path67" d="m591.21 709.88l7-14.62h2.89v23.46h-2.92v-17.2l-5.71 12.31h-2.62l-5.61-12.21v17.1h-2.92v-23.46h2.86z"/>
   </g>
   <g id="g100" transform="matrix(.31988504 0 0 .31988504 2 2)">
      <polygon id="polygon78" fill="url(#SVGID_1_)" points="554 174.15 672.25 292.4 247.93 716.72 129.68 598.47"/>
      <polygon id="polygon87" fill="url(#SVGID_2_)" points="468.8 0 598.47 129.67 129.68 598.47 0 468.79"/>
      <polygon id="polygon96" fill="url(#SVGID_3_)" points="594.93 369.72 694 468.79 347 815.79 247.93 716.72"/>
      <path id="path98" d="m580.01 582.78l-233.01 233.01-347-347 35.51-35.51c0 0 81.75 185.46 229.38 185.46 92.15 0 156.44-60.36 234.99-60.36 44.31 0 80.13 24.4 80.13 24.4z" fill="#c28b4c"/>
   </g>
</svg>
