<?xml version="1.0" encoding="utf-8"?>
<!-- Generator: Adobe Illustrator 15.0.0, SVG Export Plug-In . SVG Version: 6.00 Build 0)  -->
<!DOCTYPE svg PUBLIC "-//W3C//DTD SVG 1.1//EN" "http://www.w3.org/Graphics/SVG/1.1/DTD/svg11.dtd">
<svg version="1.1" id="Layer_1" xmlns="http://www.w3.org/2000/svg" xmlns:xlink="http://www.w3.org/1999/xlink" x="0px" y="0px"
	 width="118px" height="67.788px" viewBox="0 0 118 67.788" enable-background="new 0 0 118 67.788" xml:space="preserve">
<path fill="#34519B" d="M32.802,50.921c-0.061-0.908-0.341-1.62-0.715-1.95c-0.421-0.322-0.746-0.117-0.95,0.621
	c-0.072,0.385-0.136,0.775-0.19,1.163c-0.204,1.455-0.287,2.937-0.265,4.432c0.014,1.03,0.098,2.485,0.139,2.987
	c0.074,0.875,2.179,1.245,2.165-0.112c0.026-0.352,0.02-1.526-0.011-2.875C32.94,53.677,32.875,51.951,32.802,50.921"/>
<path fill="#34519B" d="M28.559,55.183c-0.654,1.073-1.602,2.001-2.689,2.647c-1.717,1.048-3.881,1.633-6.1,1.792
	c-0.862,0.064-1.732,0.061-2.588,0.001c-1.197-0.087-2.37-0.292-3.451-0.612c-0.048,0.18-0.056,0.397-0.075,0.611
	c-0.02,0.229-0.039,0.464-0.16,0.626c-0.089,0.12-0.255,0.195-0.441,0.235c-0.383,0.085-0.614,0.111-0.988,0.046
	c-0.39-0.07-0.594-0.478-0.731-0.906c-0.158-0.494-0.208-1.087-0.269-1.542c-1.397-0.702-2.995-1.843-4.251-2.894
	c-1.049-0.878-1.783-1.704-2.127-2.16c-0.559-0.747-0.658-1.551-0.037-2.274c0.201-0.236,0.388-0.383,0.819-0.67
	c2.123-1.417,5.875-1.853,5.875-1.853c0.058-1.642,0.375-4.045,0.646-4.817c0.239-0.694,0.768-0.407,1.079,0.039
	c0.312,0.449,0.473,1.047,0.577,1.859c0.104,0.811,0.115,2.656,0.115,2.656c3.064-0.023,5.686,0.267,7.544,1.562
	c0.562,0.394,0.985,0.748,1.217,1.225c0.238,0.489,0.236,0.967,0.135,1.35c-0.219,0.832-1.183,1.453-2.086,1.494
	c-1.069,0.045-1.286-0.355-1.069-0.517c0.241-0.181,0.662-0.197,1.056-0.639c0.283-0.314,0.089-0.855-0.324-1.001
	c-0.388-0.208-1.194-0.468-2.242-0.687c-1.182-0.248-2.667-0.444-4.201-0.459v0.459l0.003,4.434l0.003,1.839
	c1.739,0.751,5.392,0.601,8.099-0.007c1.483-0.498,2.579-1.125,3.353-1.833c1.391-1.287,1.743-2.844,1.432-4.431
	c-0.57-2.916-3.371-5.919-6.012-7.459c-5.093-3.21-12.035-6.014-19.295-4.529c-0.411,0.083-0.338,0.318-0.065,0.357
	c0.423,0.055,1.307,0.166,1.128,0.643c-0.147,0.391-1.737,0.236-2.07-0.02c-0.335-0.258-0.464-0.644-0.297-1.057
	c0.417-1.047,2.1-1.875,4.564-2.036c7.657-0.502,15.269,2.687,20.044,6.767c1.541,1.318,4.156,4.212,4.706,7.33
	c0.135,0.774,0.147,1.567-0.006,2.362C29.239,53.837,28.953,54.536,28.559,55.183z M10.997,55.188l0.214-4.434l0.014-0.281
	c-1.034,0.024-2.244,0.115-3.323,0.281c-0.94,0.145-1.784,0.346-2.334,0.614c-0.555,0.252-0.73,0.605-0.406,1.016
	c0.789,1.032,2.27,2.046,3.636,2.804c0.813,0.452,1.585,0.814,2.148,1.039L10.997,55.188z"/>
<path fill="#34519B" d="M32.836,47.075c-0.842,0.067-1.507,0.083-2.378-0.225c-0.179,0.164-0.179,0.828-0.682,0.828
	c-0.354,0.093-0.939-0.445-0.741-1.749c-0.638-0.539-1.056-1.763-0.555-2.822c0.385-1.178,2.414-3.253,5.167-3.503
	c1.461-0.163,2.167,0.104,2.432,1.016c0.12-0.014,1.961,0.074,2.155,1.179C38.795,44.481,34.865,46.821,32.836,47.075
	 M32.965,41.561c-1.276-0.133-2.539,0.78-2.98,1.458c-0.413,0.5-0.5,1.06-0.145,1.464C31.116,42.636,32.965,41.561,32.965,41.561
	 M36.126,41.917c-1.857,0.073-3.382,1.704-4.608,3.377c1.154,0.308,2.21-0.019,2.948-0.256c0.825-0.33,1.884-0.92,2.331-1.769
	C37.01,42.821,37.202,41.904,36.126,41.917"/>
<path fill="#34519B" d="M41.244,50.754c0.676-0.052,1.365-0.128,2.082-0.204c0.977-0.106,1.499-1.078,0.383-1.404
	c-2.785-0.819-8.142-0.488-9.44,1.605c-0.125,0.199-0.217,0.416-0.269,0.65c-0.059,0.486-0.44,1.768,1.798,2.004
	c0.99,0.235,4.747-0.191,6.5,1.268c0.205,0.184,0.25,0.36,0.208,0.513c-0.037,0.141-0.157,0.251-0.276,0.339
	c-1.013,0.755-3.358,1.489-6.045,1.018c-0.604-0.106-1.047-0.443-0.909-0.901c0.058-0.231,0.2-0.378,0.363-0.457
	c0.197-0.101,0.424-0.114,0.563-0.08c0.115,0,0.264,0.033,0.439,0.08c1.078,0.294,3.164,1.315,4.437,0.189
	c0.056-0.068,0.085-0.131,0.096-0.189c0.068-0.405-0.878-0.643-2.059-0.928c-0.399-0.086-2.826-0.667-4.123,0.417
	c-0.147,0.137-0.268,0.307-0.351,0.506c-0.259,0.603-0.15,1.415,0.517,2.042c2.547,2.627,6.723,1.389,7.744,0.618
	c1.065-0.801,1.083-1.649,1.139-2.23c0.016-0.142,0.017-0.286,0.016-0.425c-0.01-0.895-0.392-1.698-1.347-2.193
	c-1.77-0.825-4.315-0.521-6.706-0.957c-0.406-0.074-0.622-0.375,0.115-0.587C37.854,50.944,39.51,50.88,41.244,50.754"/>
<path fill="#34519B" d="M54.385,55.188c0.188-0.424,0.308-0.768,0.288-0.909c-0.017-0.24-0.115-0.669-0.209-0.908
	c-0.089-0.353,0.634-0.386,0.942-0.55c0.331-0.543,0.518-1.147,0.752-1.737c-0.288-0.106-0.646-0.2-0.971-0.327
	c-0.474-0.18-1.349-0.824-0.521-1.17c0.992-0.417,5.882-0.918,6.677-0.657c0.612,0.284,1.015,0.828,1.299,1.415
	c0.038,0.168-0.003,0.302-0.094,0.408c-0.117,0.141-0.329,0.225-0.521,0.252c-1.271,0.26-2.641,0.234-4.006,0.234
	c-0.188,0.449-0.329,0.927-0.471,1.396c0,0-0.123,0.112,0.211,0.088c1.257,0.007,2.167,0.066,2.855,0.207
	c0.36,0.074,0.267,1.159,0.086,1.264c-0.428,0.25-3.115,0.152-3.718,0.274c-0.119,0.226-0.22,0.468-0.315,0.719
	c-0.157,0.425-0.326,0.871-0.461,1.311c-0.037,0.118,0.083,0.127,0.158,0.118c1.487-0.092,4.02-0.947,4.37-0.518
	c0.344,0.426,0.716,0.996,0.339,1.267c-0.859,0.658-2.529,1.846-4.095,2.091C55.085,59.751,52.99,58.303,54.385,55.188"/>
<path fill="#34519B" d="M66.844,56.783c0.139-0.375,0.456-0.957,0.85-1.596c0.929-1.499,2.307-3.314,2.946-3.524
	c0.529-0.324,0.708,1.269,0.397,2.079c-0.112,0.381-0.374,0.919-0.859,1.442C69.527,55.887,68.47,56.558,66.844,56.783
	 M64.636,55.188c-0.06,0.082-0.124,0.164-0.184,0.249c-0.048-0.081-0.085-0.163-0.117-0.249c-0.473-1.276,0.878-2.979,1.641-4.434
	c0.158-0.3,0.231-0.462,0.381-0.859c0.326-0.863,0.521-1.934-0.79-0.759c-1.456,1.305-2.886,4.107-2.913,6.047
	c-0.009,0.714,0.138,1.416,0.51,2.047c-0.296,0.79-1.64,4.982-1.967,6.686c-0.236,1.243-0.341,1.734-0.007,2.485
	c0.317,0.702,1.903,2.085,2.05,0.964c0,0,0.322-2.94,2.036-7.744c0.034-0.098,0.069-0.194,0.106-0.294
	c0.964,0.024,2.076-0.16,2.875-0.447c1.794-0.646,3.154-2.193,3.829-3.693c0.646-1.44,0.552-3.336-0.057-4.434
	c-0.517-0.936-1.349-1.395-2.217-0.894c-0.438,0.269-0.856,0.565-1.252,0.894C67.061,51.983,65.808,53.597,64.636,55.188"/>
<path fill="#34519B" d="M46.522,58.146c-0.024,0.346-0.328,0.753-0.73,0.73c-0.424-0.046-0.945-0.326-1.048-1.146
	c-0.098-0.805-0.098-1.677-0.029-2.542c0.13-1.654,0.513-3.291,0.951-4.439c0.143-0.377,0.296-0.697,0.448-0.948
	c0.213-0.332,0.589-0.431,0.873-0.198c0.332,0.271,0.667,0.739,0.968,1.153c0.991,1.365,1.778,2.958,2.902,4.391
	c0.376,0.475,0.425,0.132,0.426-0.11c0.002-2.297-0.858-5.451-1.374-7.191c-0.125-0.421-0.07-0.753,0.401-0.611
	c1.048,0.57,1.902,1.938,2.44,3.522c0.492,1.442,0.691,3.065,0.597,4.433c-0.113,1.58-1.494,4.441-3.396,2.275
	c-0.708-0.88-1.112-1.586-1.468-2.275c-0.404-0.789-0.975-1.846-1.315-2.38c-0.111-0.17-0.237-0.195-0.274,0.129
	C46.878,53.152,46.599,57.091,46.522,58.146"/>
<path fill="#8DC5EB" d="M102.896,10.125c4.173,4.949,6.683,11.34,6.683,18.318c0,5.581-1.604,10.785-4.379,15.174
	c-1.422,0-2.664-0.663-3.357-1.659c-0.687,1.024-1.84,1.659-3.28,1.659c-1.414,0-2.55-0.714-3.243-1.71
	c-0.687,1.024-1.945,1.71-3.387,1.71c-1.319,0-2.395-0.619-3.095-1.507c3.785-2.5,6.281-6.794,6.281-11.672
	c0-3.013-0.95-5.8-2.57-8.083c2.971,1.533,6.446,1.448,8.974-0.528C104.875,19.2,105.404,14.157,102.896,10.125 M62.959,6.569
	C67.889,2.466,74.225,0,81.137,0c6.915,0,13.25,2.466,18.18,6.568c-3.093-1.866-6.864-1.915-9.562,0.196
	c-3.4,2.656-3.872,7.736-1.262,11.791c-2.139-1.329-4.652-2.097-7.356-2.097c-2.7,0-5.212,0.768-7.35,2.097
	c2.604-4.055,2.134-9.135-1.265-11.791C69.825,4.653,66.052,4.702,62.959,6.569 M52.696,28.443c0-6.979,2.512-13.37,6.685-18.318
	c-2.504,4.032-1.983,9.075,1.375,11.701c2.53,1.976,6.003,2.061,8.973,0.528c-1.616,2.283-2.57,5.071-2.57,8.083
	c0,4.875,2.5,9.167,6.284,11.668c-0.701,0.892-1.777,1.511-3.098,1.511c-1.44,0-2.701-0.686-3.386-1.71
	c-0.691,0.996-1.83,1.71-3.244,1.71c-1.441,0-2.593-0.635-3.28-1.659c-0.691,0.996-1.938,1.659-3.353,1.659
	C54.301,39.228,52.696,34.024,52.696,28.443"/>
<path fill="#34519B" d="M81.958,50.813c-3.068-0.603-3.607-1.042-3.607-2.185c0-1.585,1.32-2.344,2.784-2.344
	c2.083,0,3.586,1.682,3.929,3.606l0.26,0.102l1.021-3.486c-1.684-0.443-3.365-0.862-5.11-0.862c-2.504,0-6.169,0.821-6.169,3.966
	c0,2.727,1.881,3.387,4.347,3.85c3.486,0.661,4.369,1.041,4.33,2.604c0,1.945-1.784,2.564-3.408,2.564
	c-2.307,0-4.23-2.024-4.551-4.228l-0.3-0.121l-1.103,3.729c1.905,0.942,4.189,1.261,6.295,1.261c2.725,0,6.349-1.342,6.349-4.59
	C87.024,52.037,85.023,51.414,81.958,50.813"/>
<path fill="#34519B" d="M99.248,54.999c-1.223,1.545-3.225,3.241-5.381,3.241c-1.681,0-2.073-0.644-2.073-2.341v-2.477h1.004
	c1.747,0,3.226,0.56,3.546,1.797h0.272v-4.228h-0.319c-0.51,1.546-2.057,1.851-3.499,1.851h-1.004v-4.295h1.613
	c1.716,0,3.414,0.866,4.669,2.378h0.373l-0.796-2.988c-1.63,0-3.379,0.068-7.351,0.068c-0.764,0-1.579-0.068-2.496-0.068v0.271
	c0.796,0.171,1,0.782,1,1.903v5.533c0,1.528-0.067,2.886-1.392,2.953v0.341c1.02,0,1.988-0.069,2.887-0.069
	c3.294,0,5.635,0.069,7.979,0.069l1.237-3.822L99.248,54.999z"/>
<path fill="#34519B" d="M111.284,56.595l-4.411-8.283c-0.104-0.204-0.376-0.645-0.492-0.645c-0.022,0-0.042,0.004-0.06,0.02
	c-0.605,0.021-1.207,0.045-1.732,0.045c-0.883,0-1.885-0.07-2.852-0.07v0.271c0.831,0.176,2.423,1.055,3.127,2.366l-2.982,5.653
	c-0.886,1.663-1.952,2.579-2.445,2.681v0.307c0.695,0,1.407-0.07,2.037-0.07c0.631,0,1.412,0.07,2.103,0.07v-0.341
	c-0.762-0.151-1.29-0.508-1.29-1.357c0-0.339,0.188-0.866,0.41-1.394l0.642-1.323h3.6l0.835,1.597
	c0.319,0.609,0.574,1.254,0.574,1.644c0,0.647-0.372,0.715-0.915,0.834v0.341c0.951,0,1.916-0.07,2.764-0.07
	c0.871,0,1.953,0.07,2.889,0.07v-0.393C112.557,58.447,112.086,58.071,111.284,56.595 M103.611,53.948l1.51-3.075l1.546,3.075
	H103.611z"/>
<path fill="#34519B" d="M45.161,34.617c0.009-1.485,0.516-2.153,1.285-2.15c0.771,0.005,1.271,0.679,1.263,2.162
	c-0.008,1.484-0.517,2.154-1.287,2.151C45.654,36.776,45.153,36.101,45.161,34.617 M43.788,34.611
	c-0.006,1.56,1.283,2.386,2.634,2.392c1.351,0.008,2.65-0.803,2.659-2.366c0.007-1.563-1.283-2.387-2.633-2.393
	C45.097,32.236,43.796,33.047,43.788,34.611 M40.933,33.474c-0.216-0.279-0.396-0.574-0.394-0.716c0-0.231,0.223-0.305,0.405-0.339
	l0.003-0.092c-0.401-0.001-0.854,0.024-1.22,0.022c-0.363-0.001-0.777-0.033-1.175-0.035l-0.001,0.112
	c0.372,0.081,0.844,0.782,1.031,1.048l0.973,1.413l-0.004,0.617c-0.003,0.63-0.035,1.189-0.544,1.214v0.14
	c0.383,0.002,0.784-0.024,1.153-0.023c0.372,0.003,0.771,0.033,1.156,0.035l0.001-0.14c-0.51-0.031-0.536-0.59-0.532-1.223
	l0.001-0.726l0.932-1.312c0.29-0.41,0.76-0.821,1.245-1.002l0.001-0.125c-0.31-0.003-0.666,0.024-0.956,0.021
	c-0.278,0-0.6-0.03-0.916-0.031v0.11c0.231,0.036,0.475,0.151,0.475,0.417c0,0.196-0.171,0.496-0.376,0.795l-0.528,0.781
	L40.933,33.474z M33.661,35.439c-0.003,0.629-0.033,1.19-0.495,1.216l-0.003,0.14l2.199,0.012v-0.14
	c-0.448-0.031-0.474-0.394-0.47-1.22l0.002-0.512c0.002-0.25,0.085-0.386,0.281-0.384c0.359,0.003,0.522,0.473,0.643,0.738
	l0.629,1.467c0.014,0.035,0.047,0.056,0.083,0.056l1.66,0.009v-0.063c-0.419-0.218-0.683-0.739-1.014-1.356
	c-0.503-0.926-1.039-1.097-1.873-1.102l1.26-1.036c0.434-0.328,0.891-0.617,1.403-0.812l0.001-0.139
	c-0.321-0.004-0.658,0.023-0.973,0.022c-0.317-0.001-0.649-0.031-0.974-0.034l-0.001,0.126c0.218,0.051,0.335,0.121,0.335,0.331
	c0,0.126-0.191,0.426-0.331,0.552l-1.125,1.016l0.005-1.135c0.003-0.602,0.087-0.712,0.381-0.782v-0.111
	c-0.342-0.002-0.677,0.024-0.994,0.023c-0.314-0.002-0.649-0.032-0.971-0.033l-0.001,0.111c0.272,0.036,0.356,0.149,0.354,0.785
	L33.661,35.439z M28.901,34.532c0.009-1.485,0.516-2.153,1.286-2.149c0.77,0.004,1.271,0.678,1.264,2.162
	c-0.007,1.485-0.516,2.155-1.286,2.15C29.396,36.69,28.896,36.016,28.901,34.532 M27.531,34.525
	c-0.008,1.562,1.283,2.385,2.635,2.394c1.349,0.006,2.65-0.805,2.658-2.366c0.006-1.561-1.283-2.388-2.634-2.395
	C28.838,32.152,27.538,32.964,27.531,34.525 M22.104,33.501c0.282-0.355,0.929-0.988,1.419-0.985c0.294,0,0.375,0.197,0.375,0.456
	l-0.013,2.442c-0.003,0.63-0.034,1.189-0.635,1.215l-0.001,0.14c0.478,0.003,0.875-0.024,1.246-0.02
	c0.37,0.001,0.77,0.031,1.189,0.033v-0.14c-0.544-0.031-0.57-0.59-0.568-1.22l0.014-2.444c0.004-0.259,0.086-0.455,0.381-0.453
	c0.489,0.003,1.131,0.643,1.408,1.001h0.153l-0.356-1.247l-4.396-0.023l-0.372,1.244H22.104z"/>
<path fill="#243066" d="M116.595,56.889c0.232-0.171,0.323-0.279,0.305-0.585c-0.025-0.528-0.379-0.595-0.737-0.595h-1.044v2.333
	h0.302V57.04h0.762c0.49,0,0.358,0.429,0.383,0.709c0.01,0.09,0.022,0.183,0.066,0.292h0.362v-0.076
	c-0.105-0.079-0.119-0.186-0.128-0.481C116.858,57.1,116.837,57.04,116.595,56.889 M116.169,56.773h-0.749v-0.8h0.745
	c0.188,0,0.478,0.049,0.434,0.446C116.568,56.719,116.37,56.773,116.169,56.773"/>
<path fill="#243066" d="M115.959,54.854c-1.129,0-2.041,0.915-2.041,2.043c0,1.125,0.912,2.041,2.041,2.041
	c1.126,0,2.041-0.916,2.041-2.041C118,55.769,117.085,54.854,115.959,54.854 M115.959,58.728c-1.015,0-1.835-0.819-1.835-1.83
	c0-1.013,0.82-1.834,1.835-1.834c1.007,0,1.828,0.822,1.828,1.834C117.787,57.909,116.966,58.728,115.959,58.728"/>
</svg>
