<svg height="214.476106" viewBox="0 0 300 137.94003" width="466.252404" xmlns="http://www.w3.org/2000/svg"><path d="m0 0c3.064 2.535 6.999 4.06 11.295 4.06s8.234-1.525 11.298-4.06c-1.922 1.153-4.267 1.182-5.943-.122-2.111-1.643-2.404-4.785-.784-7.292-1.329.822-2.89 1.298-4.571 1.298-1.679 0-3.239-.476-4.569-1.298 1.623 2.507 1.329 5.649-.783 7.292-1.678 1.304-4.02 1.275-5.943.122" fill="#9fd8f7" transform="matrix(3.431579875 0 0 -3.431579875 143.56525359079 22.98999242837)"/><path d="m0 0c0 4.315 1.562 8.268 4.151 11.33-1.555-2.494-1.23-5.613.856-7.236 1.571-1.223 3.73-1.274 5.576-.328-1.005-1.411-1.595-3.136-1.595-4.998 0-2.932 1.468-5.522 3.71-7.085-.281-.359-.99-.832-1.906-.832-1.125 0-1.591.366-1.938.833-.036.049-.097.18-.13.229 0 0-.099-.111-.185-.229-.469-.651-1.254-.833-1.988-.833-.645 0-1.361.233-1.698.813l-.134.203-.14-.201c-.227-.347-.54-.529-.986-.66-.225-.067-.943-.286-1.258.078-1.399 2.521-2.335 5.834-2.335 8.916" fill="#9fd8f7" transform="matrix(3.431579875 0 0 -3.431579875 121.68790241371 69.41343445134)"/><path d="m0 0c-.313-.364-1.031-.145-1.257-.077-.444.131-.759.313-.988.659l-.135.202-.137-.203c-.335-.581-1.053-.813-1.698-.813-.732 0-1.518.181-1.988.832-.087.119-.186.229-.186.229-.033-.049-.091-.179-.128-.229-.349-.467-.814-.832-1.942-.832-.913 0-1.624.473-1.905.831 2.244 1.563 3.713 4.153 3.713 7.086 0 1.861-.59 3.586-1.596 4.997 1.846-.946 4.006-.895 5.577.328 2.087 1.623 2.41 4.742.855 7.236 2.592-3.062 4.153-7.015 4.153-11.33 0-3.082-.938-6.395-2.338-8.916" fill="#9fd8f7" transform="matrix(3.431579875 0 0 -3.431579875 235.21520257632 100.0104300908)"/><g fill="#004190"><path d="m0 0c-.027.394-.149.702-.312.846-.183.139-.324.05-.414-.27-.031-.168-.058-.335-.083-.503-.089-.629-.124-1.271-.114-1.92.006-.447.042-1.075.061-1.293.03-.379.947-.54.94.048.009.153.008.661-.005 1.245-.013.655-.042 1.402-.073 1.847" transform="matrix(3.431579875 0 0 -3.431579875 48.98061749617 94.09197055407)"/><path d="m0 0 .092 1.919.007.123c-.449-.011-.976-.05-1.446-.123-.409-.06-.776-.148-1.016-.265-.24-.108-.318-.261-.176-.439.343-.447.988-.886 1.581-1.215.354-.194.69-.352.936-.45zm7.64.002c-.283-.463-.695-.867-1.166-1.145-.75-.456-1.691-.707-2.656-.776-.376-.03-.755-.03-1.128-.003-.522.04-1.03.128-1.501.266-.021-.076-.024-.171-.032-.263-.009-.101-.016-.203-.07-.273-.039-.052-.111-.083-.191-.103-.167-.034-.267-.046-.431-.016-.169.028-.259.204-.318.389-.068.215-.091.473-.12.669-.604.304-1.3.797-1.846 1.253-.457.379-.778.738-.925.936-.244.323-.286.673-.018.983.087.104.17.167.358.291.924.613 2.557.804 2.557.804.024.711.161 1.752.279 2.087.106.299.334.175.469-.019.136-.194.206-.453.253-.803.046-.353.05-1.151.05-1.151 1.333.009 2.474-.116 3.282-.678.246-.169.429-.323.531-.531.102-.211.102-.418.058-.582-.096-.36-.515-.63-.909-.647-.463-.022-.559.152-.465.224.106.078.288.084.46.276.122.137.04.37-.141.434-.168.09-.52.201-.975.295-.514.109-1.16.194-1.829.202l.001-.202.002-1.919v-.796c.757-.328 2.346-.26 3.526.002.644.214 1.121.487 1.457.794.608.555.76 1.232.624 1.918-.249 1.264-1.469 2.565-2.616 3.232-2.217 1.389-5.237 2.603-8.396 1.96-.18-.036-.148-.137-.028-.154.183-.024.568-.073.49-.278-.064-.169-.756-.103-.902.009-.144.11-.199.277-.128.456.182.452.914.812 1.986.882 3.331.217 6.645-1.163 8.721-2.93.671-.571 1.81-1.825 2.048-3.176.058-.335.065-.679-.002-1.022-.062-.311-.187-.615-.359-.895" transform="matrix(3.431579875 0 0 -3.431579875 16.41972869424 100.42908283555)"/><path d="m0 0c-.809-.033-1.473-.738-2.005-1.462.502-.134.962.009 1.281.111.359.142.821.399 1.017.765.091.195.174.593-.293.586m-1.378.154c-.554.06-1.103-.338-1.295-.631-.179-.216-.219-.459-.062-.635.555.799 1.357 1.266 1.357 1.266m-.055-2.387c-.367-.029-.654-.038-1.035.095-.077-.068-.077-.356-.296-.356-.153-.042-.409.192-.323.757-.278.233-.457.763-.24 1.222.167.51 1.05 1.408 2.247 1.517.636.069.944-.045 1.059-.44.052.006.853-.033.937-.511.244-1.161-1.465-2.176-2.349-2.284" transform="matrix(3.431579875 0 0 -3.431579875 53.94268199542 80.70676381996)"/><path d="m0 0c.296.022.595.054.906.088.424.048.652.468.167.609-1.212.354-3.542.21-4.109-.696-.052-.086-.092-.179-.116-.281-.025-.21-.192-.765.784-.868.429-.103 2.064.083 2.828-.55.088-.079.108-.155.09-.221-.016-.061-.068-.111-.122-.148-.438-.326-1.46-.646-2.628-.44-.263.044-.456.19-.396.39.026.1.086.163.158.198.085.043.184.05.245.033.049 0 .114-.015.191-.033.469-.127 1.376-.571 1.929-.082.025.029.039.055.043.082.03.175-.382.277-.896.4-.174.038-1.229.289-1.794-.179-.064-.061-.116-.132-.152-.22-.112-.262-.065-.612.225-.884 1.107-1.138 2.924-.601 3.368-.269.464.348.471.715.496.967.008.061.008.125.008.185-.005.387-.172.734-.587.948-.77.358-1.876.227-2.918.415-.177.032-.271.162.05.256.757.217 1.476.246 2.23.3" transform="matrix(3.431579875 0 0 -3.431579875 61.57966300723 93.84215153917)"/><path d="m0 0c.083.183.134.333.127.392-.007.106-.05.291-.092.396-.039.152.277.165.41.238.143.235.226.495.327.752-.124.047-.281.086-.422.14-.207.08-.586.358-.226.509.43.179 2.558.396 2.904.282.268-.121.443-.357.566-.613.017-.072-.002-.13-.04-.177-.052-.06-.143-.096-.227-.109-.553-.111-1.149-.102-1.744-.102-.082-.194-.143-.398-.205-.603 0 0-.054-.048.093-.036.546-.004.942-.029 1.243-.092.154-.032.116-.5.037-.546-.188-.109-1.356-.066-1.618-.121-.052-.095-.095-.201-.137-.31-.069-.184-.141-.377-.2-.567-.017-.052.035-.055.069-.052.645.039 1.749.41 1.9.225.152-.187.312-.431.148-.549-.375-.286-1.101-.799-1.781-.906-.826-.128-1.736.5-1.132 1.849" transform="matrix(3.431579875 0 0 -3.431579875 81.19972094254 100.42908283555)"/><path d="m0 0c-.025-.036-.052-.07-.078-.109-.022.037-.039.073-.053.109-.204.553.384 1.291.715 1.919.068.132.101.202.165.375.142.373.229.836-.342.326-.634-.563-1.257-1.778-1.269-2.618-.004-.309.06-.611.224-.886-.129-.343-.714-2.16-.857-2.897-.105-.537-.15-.75-.002-1.075.137-.304.828-.904.892-.418 0 0 .138 1.274.885 3.355.015.043.031.083.045.126.42-.011.903.069 1.252.194.78.279 1.371.948 1.665 1.599.281.625.24 1.445-.024 1.919-.224.406-.586.606-.964.389-.191-.115-.372-.245-.546-.388-.653-.534-1.197-1.232-1.708-1.92m.96-.691c.062.162.2.414.372.691.404.649 1.002 1.436 1.28 1.525.231.139.31-.548.174-.898-.049-.167-.162-.398-.375-.626-.284-.305-.74-.595-1.451-.692" transform="matrix(3.431579875 0 0 -3.431579875 96.50799876492 100.42908283555)"/><path d="m0 0c-.011-.148-.144-.326-.32-.314-.183.019-.409.139-.454.494-.042.351-.042.726-.013 1.102.057.715.222 1.424.414 1.921.061.165.128.302.195.413.092.142.256.186.38.085.143-.118.291-.32.421-.5.429-.59.773-1.28 1.262-1.9.164-.206.186-.057.186.048.001.995-.374 2.36-.598 3.112-.054.184-.031.329.174.268.456-.251.828-.841 1.062-1.528.215-.624.302-1.328.26-1.919-.049-.686-.652-1.924-1.478-.985-.307.381-.484.685-.637.985-.176.343-.426.799-.574 1.03-.048.075-.102.086-.119-.056-.006-.093-.13-1.797-.161-2.256" transform="matrix(3.431579875 0 0 -3.431579875 69.46543355998 104.82768191932)"/><path d="m0 0h.723v.916l1.025 1.591h-.747l-.589-1.052-.572 1.052h-.838l.998-1.591z" transform="matrix(3.431579875 0 0 -3.431579875 93.56953691796 85.21757556565)"/><path d="m0 0-.007 1.101h-.724v-2.507h.724v1.333l.868-1.333h.895l-.972 1.402.902 1.105h-.857z" transform="matrix(3.431579875 0 0 -3.431579875 83.77718058666 80.39174478744)"/><path d="m0 0c0 .394-.102.831-.593.831s-.593-.437-.593-.831c0-.371.102-.81.593-.81.491 0 .593.439.593.81m-.593-1.296c-.865 0-1.353.478-1.353 1.307 0 .826.488 1.305 1.353 1.305.864 0 1.352-.479 1.352-1.305 0-.829-.488-1.307-1.352-1.307" transform="matrix(3.431579875 0 0 -3.431579875 77.07976614462 80.95349441297)"/><path d="m0 0c0 .394-.102.831-.594.831s-.593-.437-.593-.831c0-.371.101-.81.593-.81.492 0 .594.439.594.81m-.594-1.296c-.863 0-1.352.478-1.352 1.307 0 .826.489 1.305 1.352 1.305.866 0 1.354-.479 1.354-1.305 0-.829-.488-1.307-1.354-1.307" transform="matrix(3.431579875 0 0 -3.431579875 106.02891712811 80.95349441297)"/><path d="m0 0h.723v2.021h.816v.486h-2.339v-.486h.8z" transform="matrix(3.431579875 0 0 -3.431579875 64.88976495466 85.21757556565)"/><path d="m0 0v.477c.153.059.364.132.56.166.366.063.918-.055 1.206.013.534.127.813.441.813.441-.941-.164-1.386.924-2.124 1.025-.422.059-.721-.051-.721-.051v-2.071c0-.984-.778-4.021-1.522-5.206l.014 4.06.34.367.001.983h-.229s-.691 1.017-1.243 5.154c0 0-.003.013-.008.031v.595c.154.06.361.133.557.168.368.062.92-.056 1.208.013.533.125.813.441.813.441-.94-.165-1.386.924-2.121 1.023-.427.06-.726-.05-.726-.05v-2.19c-.006-.018-.009-.031-.009-.031-.552-4.137-1.23-5.154-1.23-5.154h-.228v-.983l.364-.367v-1.373h-1.018v3.352l.564.818v2.521h.731s-.843 1.439-1.212 3.611c0 0 0 .125-.094.125-.097 0-.112-.125-.112-.125-.366-2.14-1.019-3.219-1.019-3.219v3.305l.421.798v.676h-.629v1.479h.611c-1.146 1.778-2.147 9.802-2.147 10.708v.538c.157.077.336.145.493.162.889.096 1.317-1.023 2.478-.332 0 0-.952.228-1.314.93 0 0 .781.113.983.711 0 0-.738-.057-1.193.208-.366.215-.602.529-1.142.587-.425.048-.722-.05-.722-.05v-2.754c0-.906-1.001-8.93-2.149-10.708h.611v-1.479h-.654v-.612l.375-.823v-5.586l-.968 3.891h-3.486l-1.233-5.533c-.509 1.6-.852 3.503-.852 3.503s-.038.128-.153.128c-.117 0-.142-.128-.142-.128-.343-2.656-1.325-4.647-1.653-5.412h.403v-.775l.444-.707v-1.253h-1.066s-1.864 3.388-1.982 4.393v.336c.152.06.362.133.557.166.367.065.919-.055 1.207.014.533.126.811.441.811.441-.94-.165-1.383.924-2.121 1.025-.423.056-.722-.052-.722-.052v-1.9c-.055-.944-1.322-3.955-1.914-4.665h.986v-2.436h-1.42v-1.909s.439.118.649-.562c.211-.679-1.263-6.495-1.263-6.495h27.482c-.997 3.206-1.344 6.112-1.173 6.624.13.388.559.433.559.433v1.909h-1.367v.941h.708c-.778 1.194-1.868 4.717-1.868 5.701" transform="matrix(3.431579875 0 0 -3.431579875 276.23186107455 83.54948458841)"/><path d="m0 0h2.141v1.601h-2.141v1.213h2.258v1.602h-4.155v-7.268h4.155v1.599h-2.258z" transform="matrix(3.431579875 0 0 -3.431579875 46.59910106292 127.32374694787)"/><path d="m0 0c.744-.522 1.646-.831 2.566-.831.736 0 1.502.203 2.073.685.374.317.579.735.679 1.188.054.253.077.511.077.768 0 1.176-.785 1.687-1.802 1.987l-.484.144c-.33.105-.842.27-.842.693 0 .405.463.609.813.609.465 0 .911-.194 1.258-.482l.756 1.464c-.649.367-1.549.598-2.286.598-1.463 0-2.518-.964-2.518-2.439 0-1.405.785-1.716 1.977-2.053.406-.116 1.151-.298 1.151-.83 0-.192-.067-.347-.177-.461-.178-.186-.466-.27-.743-.27-.363 0-.7.103-1.011.27-.242.132-.466.299-.673.48z" transform="matrix(3.431579875 0 0 -3.431579875 67.43393827398 134.92433948669)"/><path d="m0 0h1.571v1.602h-5.039v-1.602h1.57v-5.666h1.898z" transform="matrix(3.431579875 0 0 -3.431579875 181.82256498522 117.66865381157)"/><path d="m0 0v-1.811h.184c.619 0 1.317.116 1.317.908 0 .789-.698.903-1.317.903zm4.174-5.82h-2.362l-1.812 2.794v-2.794h-1.898v7.267h2.838c1.443 0 2.537-.683 2.537-2.236 0-1.003-.562-1.871-1.599-2.055z" transform="matrix(3.431579875 0 0 -3.431579875 13.77363745263 117.13708836262)"/><path d="m0 0v-1.811h.183c.62 0 1.317.116 1.317.908 0 .789-.697.903-1.317.903zm4.173-5.82h-2.362l-1.811 2.794v-2.794h-1.9v7.267h2.839c1.444 0 2.536-.683 2.536-2.236 0-1.003-.563-1.871-1.598-2.055z" transform="matrix(3.431579875 0 0 -3.431579875 145.53876890323 117.13708836262)"/><path d="m0 0c-2.102 0-4.041-1.543-4.041-3.741 0-2.351 1.694-4.009 4.041-4.009 2.341 0 4.037 1.658 4.037 4.009 0 2.198-1.935 3.741-4.037 3.741m0-1.832c1.131 0 2.061-.915 2.061-1.918 0-1.254-.93-2.168-2.061-2.168-1.135 0-2.066.914-2.066 2.168 0 1.003.931 1.918 2.066 1.918" transform="matrix(3.431579875 0 0 -3.431579875 111.85573975586 111.34529530223)"/><path d="m0 0h-.563v.595h.56c.141 0 .357-.036.325-.33-.024-.225-.174-.265-.322-.265m.321-.088c.169.132.24.212.227.437-.022.394-.285.446-.555.446h-.78v-1.74h.224v.747h.572c.369 0 .267-.322.286-.528.008-.065.018-.139.05-.219h.272v.056c-.08.059-.091.14-.095.359-.005.287-.025.332-.201.442" transform="matrix(3.431579875 0 0 -3.431579875 295.30559776744 131.58165125678)"/><path d="m0 0c-.757 0-1.373.61-1.373 1.364 0 .753.616 1.367 1.373 1.367s1.373-.614 1.373-1.367c0-.754-.616-1.364-1.373-1.364m0 2.886c-.844 0-1.53-.683-1.53-1.522 0-.84.686-1.52 1.53-1.52s1.527.68 1.527 1.52c0 .839-.683 1.522-1.527 1.522" transform="matrix(3.431579875 0 0 -3.431579875 294.75997656732 136.57597260685)"/></g></svg>