<?xml version="1.0" encoding="UTF-8" standalone="no"?>
<svg xmlns:dc="http://purl.org/dc/elements/1.1/" xmlns:cc="http://creativecommons.org/ns#" xmlns:rdf="http://www.w3.org/1999/02/22-rdf-syntax-ns#" xmlns:svg="http://www.w3.org/2000/svg" xmlns="http://www.w3.org/2000/svg" version="1.1" id="svg21343" width='516.30635px' height='193.68346px' viewBox="0 0 58.692555 22.017504">
  <g id="g21345" fill="#ffefdc">
    <path id="path21347" transform="matrix(1.25 0 0-1.25 36.09 16.304)" d="m0 0c2.254 0 3.518-.738 3.518-1.445 0-.532-.455-1.073-1.616-1.073-1.618 0-3.312.944-3.312 2.2l.023.229c.421.057.881.089 1.387.089m-3.063-1.114c0-.882-.739-1.945-1.577-1.945-.306 0-.494.16-.494.429 0 .527.535 1.456 1.922 2.057.109-.16.149-.351.149-.541m-4.69-2.525c-.149 0-.265.093-.265.277 0 .653 1.059 1.871 2.234 2.59-.049-1.119-1.076-2.867-1.969-2.867m-1.614 3.321c0-.702-.489-1.237-1.218-1.571l-.018.214c0 .619.487 1.285 1.151 1.773.056-.129.085-.268.085-.416m-4.081 8.505c-.594 0-1.17.285-1.17.95 0 .879 1.236 1.404 2.409 1.404.898 0 1.549-.262 1.791-.674-.55-.796-1.453-1.68-3.03-1.68m15.22 2.316c1.173 0 2.346-.524 2.346-1.403 0-.664-.513-.95-1.105-.95-1.648 0-2.559.965-3.102 1.786.338.351 1.043.567 1.861.567m12.46-4.485l.026.206c0 .785-.83 1.604-2.582 1.604-2.183 0-3.907-.784-6.578-.784-3.242 0-5.4 1.043-5.4 2.408 0 .129.04.251.114.362.554-.849 1.516-1.888 3.256-1.888 1.039 0 1.353.501 1.353 1.151 0 .838-.862 1.63-2.683 1.63-.841 0-1.541-.262-1.914-.636-.161.255-.286.491-.388.669-.272.479-.867 1.507-2.137 1.507-1.149 0-1.893-.833-2.01-1.767-.316.143-.671.227-1.049.235-.191.84-.909 1.524-1.973 1.524-1.272 0-1.867-.984-2.139-1.462-.114-.201-.259-.473-.449-.766-.29.425-.943.732-1.853.732-1.82 0-2.748-.792-2.748-1.629 0-.65.379-1.152 1.417-1.152 1.644 0 2.592.926 3.16 1.744l.032-.217c0-1.364-1.927-2.201-5.169-2.201-2.67 0-4.834.54-7.02.54-1.752 0-2.584-.819-2.584-1.604l.024-.2c-1.6-.27-3.01-1.077-3.01-2.687 0-2.059 3.02-4.591 6.699-4.591 4.581 0 8.196 2.124 10.308 2.124.792 0 1.309-.257 1.545-.645-.719-.529-1.211-1.264-1.211-1.884 0-.101.009-.195.027-.28-.553-.231-1.225-.353-1.923-.353-1.138 0-1.775.467-1.775 1 0 .252.219.475.59.475.428 0 .705-.296.807-.399l.085.062c-.083.118-.407.441-.878.441-.49 0-.786-.279-.786-.701 0-.461.547-1.101 1.77-1.101.813 0 1.546.171 2.143.444.132-.399.459-.605.846-.605.752 0 1.336.514 1.625.936l-.07.058c-.274-.416-.968-.913-1.537-.889-.324 0-.634.178-.75.553.897.441 1.454 1.115 1.454 1.763 0 .177-.034.351-.107.514.529.33 1.138.544 1.695.544 1.038 0 1.686-.482 1.727-1.408-1.356-.69-2.543-1.936-2.543-2.696 0-.216.086-.471.504-.471 1.08 0 2.312 1.983 2.312 3.119l-.0001.03c.475.254.957.416 1.387.416.414 0 .676-.111.836-.276-1.467-.626-2.096-1.593-2.096-2.125 0-.322.19-.556.668-.556 1.032 0 1.915 1.154 1.915 2.103 0 .216-.055.415-.18.575.38.145.814.265 1.313.35l-.006-.119c0-1.033 1.462-2.366 3.61-2.366 1.269 0 1.81.554 1.81 1.137 0 1.133-1.912 1.598-3.732 1.598-.492 0-.946-.031-1.365-.086.172.492.722.837 1.638.837 2.321 0 6.02-2.129 10.161-2.129 3.683 0 6.839 2.537 6.839 4.596 0 1.56-1.438 2.397-3.052 2.681" />
    <path id="path21349" transform="matrix(1.25 0 0-1.25 22.766 18.799)" d="m0 0l.018-.003.011-.013.028.054-.019.004-.001.014-.028-.056m-3.852.587c0-.426.527-1.028 1.698-1.028.59 0 1.163.096 1.684.272-.457-.131-.967-.2-1.498-.2-1.269 0-1.848.559-1.848 1.078l.032.173c-.042-.085-.068-.183-.068-.295m9.196-1.194c0-.243.116-.395.344-.454-.151.082-.239.231-.239.427 0 .443.328 1.051 1.021 1.574-.806-.565-1.126-1.201-1.126-1.547m8.904 1.158c0-.32-.163-.672-.567-.9.462.21.646.555.646.866 0 .657-.715 1.088-1.694 1.318 1.055-.287 1.615-.795 1.615-1.284m-3.741 11.341l.009.092c.355.369 1.071.59 1.914.59 1.173 0 2.419-.518 2.419-1.478 0-.632-.452-1.023-1.179-1.023-1.319 0-2.355.595-3.163 1.819m-14.542-.759c0 .925 1.263 1.477 2.483 1.477.901 0 1.594-.265 1.855-.71l-.004-.079c-.796-1.152-1.808-1.711-3.09-1.711-.573 0-1.244.267-1.244 1.023m10.05 1.334l-.037-.055-.066-.003c-.319.144-.663.221-1.02.229l-.07.057c-.203.89-.95 1.467-1.902 1.467-1.262 0-1.831-.999-2.075-1.426l-.081-.145c-.099-.175-.221-.394-.37-.623l-.061-.034-.062.032c-.299.438-.97.7-1.792.7-1.837 0-2.673-.807-2.673-1.556 0-.706.463-1.077 1.342-1.077 1.287 0 2.3.559 3.1 1.711l.071.03.06-.05.035-.239c0-1.424-1.96-2.274-5.243-2.274-1.406 0-2.66.147-3.873.29-1.085.128-2.112.249-3.142.249-1.725 0-2.511-.792-2.511-1.53l.023-.183-.001-.057-.049-.033c-.887-.149-2.952-.703-2.952-2.614 0-.994.725-2.118 1.938-3.01 1.328-.972 2.992-1.51 4.687-1.51 2.718 0 5.104.755 7.02 1.36 1.298.41 2.421.765 3.287.765.768 0 1.341-.241 1.608-.679l.011-.039-.03-.059-.005-.004.046.007.047-.042c.061-.14.092-.29.092-.445 0-.323-.103-.621-.294-.887.264.303.413.634.413.955 0 .171-.034.334-.1.483l-.007.031.035.062c.572.358 1.189.556 1.734.556 1.102 0 1.758-.539 1.8-1.478v-.004l-.04-.064c-1.333-.679-2.503-1.909-2.503-2.632 0-.242.122-.366.359-.388-.12.051-.195.167-.195.322 0 .674 1.06 1.913 2.269 2.652h.076l.036-.063-.0001-.004c-.026-.605-.361-1.456-.821-2.086.543.67.946 1.598.946 2.214v.03l.038.065c.528.282 1 .425 1.422.425.398 0 .697-.1.89-.299l.02-.05-.0001-.016-.008-.001.075-.029c.107-.156.162-.351.162-.582 0-.491-.225-1.04-.57-1.443.413.407.682.986.682 1.501 0 .21-.055.389-.165.53l-.015.045.003.02.043.049c.404.154.85.272 1.329.353l.061-.02.024-.056-.006-.115c0-.314.157-.673.442-1.014-.203.283-.323.601-.323.946l.026.245.057.055-.009.005-.018.046.005.024c.197.563.818.886 1.707.886 1.01 0 2.248-.389 3.688-.84 1.93-.604 4.117-1.288 6.474-1.288 3.643 0 6.765 2.486 6.765 4.522 0 1.879-2.092 2.45-2.991 2.608l-.049.033-.011.057.025.189c0 .738-.784 1.53-2.509 1.53-1.029 0-1.956-.175-2.937-.361-1.096-.207-2.232-.422-3.641-.422-3.223 0-5.474 1.02-5.474 2.481 0 .141.043.277.127.403l.062.032.06-.033c.815-1.247 1.861-1.855 3.196-1.855.86 0 1.279.353 1.279 1.078 0 .775-.807 1.555-2.609 1.555-.784 0-1.48-.229-1.863-.612l-.06-.023-.054.035-.307.525-.083.147c-.272.477-.838 1.469-2.073 1.469-1.185 0-1.835-.882-1.937-1.702" />
  </g>
  <g id="g21351" fill="#b8b49c">
    <path id="path21353" transform="matrix(1.25 0 0-1.25 19.833 17.819)" d="m0 0c-.103.103-.379.4-.807.4-.371 0-.59-.224-.59-.475 0-.539.637-1 1.775-1 1.697 0 3.258.718 3.258 1.973 0 .673-.573 1.188-1.696 1.188-2.112 0-5.727-2.124-10.308-2.124-3.684 0-6.699 2.532-6.699 4.592 0 2.042 2.272 2.792 4.32 2.792 1.444 0 1.892-.448 1.892-.747 0-.34-.415-.613-1.078-.613-1.252 0-2.145.765-2.145 1.455 0 .785.832 1.603 2.584 1.603 2.181 0 4.345-.539 7.01-.539 3.242 0 5.168.836 5.168 2.201 0 .624-.747 1.051-1.895 1.051-1.173 0-2.409-.525-2.409-1.404 0-.664.576-.95 1.17-.95 2.263 0 3.138 1.823 3.576 2.59.272.479.867 1.462 2.139 1.462 1.251 0 2.025-.947 2.025-1.979 0-1.117-.898-1.971-1.969-1.971-.843 0-1.739.598-1.739 1.654 0 .819.547 1.538 1.485 1.538.777 0 1.2-.418 1.2-1.079 0-.567-.337-.875-.649-.875-.225 0-.438.131-.438.377 0 .545 1.197.813 1.996.813 1.565 0 2.714-1.295 2.714-2.69 0-1.521-1.208-2.72-2.677-2.72-1.412 0-2.348.966-2.348 2.221 0 1.131.95 1.959 1.949 1.959.953 0 1.719-.679 1.719-1.523 0-.861-.588-1.275-1.213-1.275-.493 0-.798.31-.798.703 0 .356.286.53.518.53.287 0 .455-.214.462-.422l-.078-.001c-.03.186-.162.333-.38.333-.21 0-.396-.159-.396-.411 0-.302.258-.535.63-.535.543 0 .945.451.945 1.042 0 .657-.565 1.362-1.489 1.362-.844 0-1.587-.598-1.587-1.625 0-1.184.911-2.058 2.106-2.058 1.343 0 2.347.889 2.347 2.343 0 1.346-1.167 2.524-2.781 2.524-.779 0-1.49-.17-1.49-.555 0-.133.113-.257.267-.257.225 0 .501.204.501.684 0 .63-.355.952-1.056.952-.534 0-1.158-.454-1.158-1.309 0-.896.675-1.507 1.369-1.507 1.015 0 1.746.719 1.746 1.733 0 1.027-.607 1.844-1.757 1.844-1.143 0-1.734-.886-2-1.363-.406-.713-1.321-2.724-3.743-2.724-1.038 0-1.417.501-1.417 1.151 0 .838.928 1.63 2.748 1.63 1.255 0 2.023-.582 2.023-1.256 0-1.519-2.032-2.456-5.359-2.456-3.068 0-5.225.532-7.189.532-1.45 0-2.229-.554-2.229-1.296 0-.828 1.237-1.311 2.259-1.311.485 0 .663.165.663.325 0 .396-.928.636-1.896.636-2.08 0-3.924-.885-3.924-2.324 0-2.196 3.117-4.563 6.655-4.564 4.227-.0001 7.722 2.084 10.257 2.084 1.265 0 1.813-.658 1.813-1.364 0-1.093-1.589-2.26-3.711-2.26-1.223 0-1.77.64-1.77 1.102 0 .421.296.701.786.701.471 0 .795-.324.878-.442" />
    <path id="path21355" transform="matrix(1.25 0 0-1.25 42.718 7.865)" d="m0 0c-3.327 0-5.77 1.18-5.77 2.7 0 .672.949 1.255 2.204 1.255 1.82 0 2.682-.792 2.682-1.63 0-.649-.313-1.15-1.352-1.15-2.421 0-3.336 2.01-3.742 2.723-.272.477-.862 1.409-2 1.409-1.151 0-1.757-.863-1.757-1.889 0-1.014.731-1.733 1.745-1.733.694 0 1.37.611 1.37 1.507 0 .855-.651 1.52-1.199 1.503-.674-.019-.901-.48-.901-1.11 0-.48.442-.937.76-.937.184 0 .361.128.34.326-.041.383-.818.868-1.598.868l-.039.09c.799 0 1.737-.411 1.792-.944.027-.244-.134-.517-.476-.505-.5.018-.925.548-.925 1.115 0 .5.204 1.22 1.039 1.24.959.024 1.507-.864 1.507-1.685 0-1.054-.896-1.653-1.739-1.653-1.071 0-1.967.855-1.967 1.972 0 1.032.771 2.024 2.025 2.024 1.271 0 1.865-1.029 2.137-1.507.439-.769 1.312-2.59 3.577-2.59.593 0 1.105.285 1.105.95 0 .879-1.172 1.403-2.345 1.403-1.149 0-2.074-.426-2.074-1.052 0-1.364 2.158-2.408 5.399-2.408 2.671 0 4.395.784 6.578.784 1.752 0 2.582-.818 2.582-1.603 0-.69-.892-1.455-2.144-1.455-.664 0-1.078.273-1.078.613 0 .299.447.747 1.892.747 2.047 0 4.356-.816 4.356-2.792 0-2.06-3.156-4.597-6.838-4.597-4.141 0-7.84 2.129-10.162 2.129-1.12 0-1.694-.515-1.694-1.188 0-1.255 1.694-2.199 3.313-2.199 1.16 0 1.615.54 1.615 1.072 0 .708-1.264 1.446-3.518 1.446-3.829 0-5.133-1.807-5.133-2.631 0-.269.187-.429.494-.429.838 0 1.576 1.063 1.576 1.946 0 .445-.212.912-1.064.912-1.587 0-3.89-2.197-3.89-3.161 0-.183.115-.276.264-.276.915 0 1.972 1.835 1.972 2.947 0 .985-.658 1.499-1.731 1.499-1.392 0-3.09-1.325-3.09-2.482 0-.61.388-.892.798-.892.568-.023 1.262.474 1.537.89l.069-.058c-.289-.423-.873-.937-1.625-.937-.501 0-.906.347-.906 1.012 0 1.114 1.586 2.597 3.229 2.597 1.466 0 1.988-.787 1.988-1.586 0-1.135-1.233-3.118-2.313-3.118-.418 0-.504.254-.504.47 0 1.093 2.455 3.195 4.337 3.195.865 0 1.189-.429 1.189-.954 0-.95-.883-2.104-1.915-2.104-.479 0-.668.235-.668.557 0 .831 1.531 2.722 5.397 2.722 1.82 0 3.732-.466 3.732-1.598 0-.583-.541-1.138-1.81-1.138-2.148 0-3.609 1.334-3.609 2.366 0 .707.634 1.382 1.9 1.382 2.46 0 6.307-2.102 10.124-2.102 3.683 0 6.676 2.389 6.676 4.584 0 1.516-1.966 2.305-3.945 2.305-.967 0-1.896-.241-1.896-.637 0-.159.178-.324.665-.324 1.02 0 2.258.482 2.258 1.31 0 .742-.78 1.297-2.229 1.297-1.964 0-3.504-.813-6.572-.813" />
  </g>
  <g id="g21357" fill="#55532c">
    <path id="path21359" transform="matrix(1.25 0 0-1.25 49.552 12.947)" d="m0 0c0-.25 0-.449.013-.558l.101-.143.118-.001.022-.023-.042-.024c-.09 0-.223.007-.333.007-.091 0-.223-.007-.27-.007l-.041.026.025.021.074.001.076.143c.013.109.013.308.013.558v1.108l-.375-.005c-.162-.003-.224-.022-.267-.084l-.045-.081-.032-.027-.022.024.056.272.033.05.113-.032c.051-.005.103-.013.208-.013h.972c.206 0 .244.026.288.026l.02-.031-.008-.288-.027-.033-.028.043-.003.03c-.001.082-.071.138-.322.144l-.317.005" />
    <path id="path21361" transform="matrix(1.25 0 0-1.25 46.894 11.374)" d="m0 0c.589 0 1.027-.372 1.027-.981 0-.588-.413-1.071-1.043-1.071-.716 0-1.014.557-1.014 1.028 0 .424.308 1.024 1.03 1.024m.054-1.934c.23 0 .707.132.707.879 0 .616-.374.946-.78.946-.427 0-.748-.282-.748-.843 0-.598.359-.982.821-.982" />
    <path id="path21363" transform="matrix(1.25 0 0-1.25 43.489 12.583)" d="m0 0l-.018-.017v-.274c0-.25 0-.445.013-.555l.103-.144.096-.001.027-.021-.038-.028c-.048 0-.179.007-.329.007-.104 0-.228-.007-.266-.007l-.037.028.025.021.073.001.076.144c.013.11.013.305.013.555v.462c0 .408 0 .469-.005.553l-.112.149-.085.007-.025.026.042.023c.042 0 .175-.007.3-.007.126 0 .238.007.278.007l.04-.025-.022-.024-.065-.007c-.071-.013-.092-.058-.098-.149-.004-.084-.004-.095-.004-.503v-.103l.018-.018h1.015l.018.018v.103c0 .408 0 .419-.005.503-.006.091-.027.136-.097.149l-.066.007-.02.024.039.025c.04 0 .153-.007.278-.007.125 0 .259.007.3.007l.042-.023-.026-.026-.083-.007-.114-.149c-.004-.084-.004-.145-.004-.553v-.462c0-.25 0-.445.012-.555l.077-.144.074-.001.025-.021-.038-.028c-.038 0-.162.007-.267.007-.148 0-.28-.007-.328-.007l-.036.028.025.021.097.001.102.144c.013.11.013.305.013.555v.274l-.018.017" />
    <path id="path21365" transform="matrix(1.25 0 0-1.25 53.36 12.949)" d="m0 0c0-.385.012-.556.059-.602.041-.042.108-.061.313-.061.139 0 .242.003.304.08l.069.157.026.033.025-.029-.04-.271c-.019-.06-.026-.072-.164-.072-.19 0-.429.016-.719.016-.105 0-.229-.007-.268-.007l-.039.027.027.021.073.011.076.143c.013.11.013.305.013.556v.461c0 .409 0 .47-.004.553l-.114.15-.083.007-.026.025.042.024c.041 0 .175-.008.299-.008.126 0 .239.008.279.008l.04-.026-.021-.023-.065-.007c-.072-.014-.092-.058-.098-.15-.005-.083-.005-.095-.005-.503" />
    <path id="path21367" transform="matrix(1.25 0 0-1.25 51.35 12.947)" d="m0 0c0-.385.001-.558.058-.604.041-.042.195-.061.399-.061.14 0 .242.003.305.08l.068.157.027.033.024-.029-.04-.271c-.018-.06-.026-.072-.164-.072-.189 0-.514.016-.805.016-.105 0-.228-.007-.267-.007l-.039.027.027.022.073.001.076.143c.013.11.013.306.013.556v.461c0 .409 0 .47-.005.553l-.113.15-.084.007-.026.025.042.024c.042 0 .175-.008.299-.008l.696.002.109.013.045.013.018-.021-.023-.125-.014-.172-.026-.029-.027.029-.013.099c-.025.044-.052.075-.186.088l-.425.009-.022-.026v-.722l.022-.027.483.006.122.037.045.035.02-.023-.02-.156-.012-.177-.023-.033-.025.029-.001.08c-.005.045-.034.084-.137.094l-.443.015-.022-.025" />
    <path id="path21369" transform="matrix(1.25 0 0-1.25 5.612 12.947)" d="m0 0c0-.25 0-.449.013-.558l.101-.143.118-.001.021-.023-.042-.024c-.088 0-.223.007-.334.007l-.268-.007-.042.026.025.021.075.001.076.143c.013.109.013.308.013.558v1.108l-.375-.005c-.162-.003-.225-.022-.267-.084l-.045-.081-.033-.027-.022.024.057.272.033.05.114-.032c.051-.005.101-.013.205-.013h.974c.207 0 .244.026.287.026l.021-.031-.008-.288-.028-.033-.028.043-.003.03c-.008.082-.07.138-.321.144l-.317.005" />
    <path id="path21371" transform="matrix(1.25 0 0-1.25 7.953 11.374)" d="m0 0c.588 0 1.027-.372 1.027-.981 0-.588-.413-1.071-1.043-1.071-.716 0-1.014.557-1.014 1.028 0 .424.308 1.024 1.03 1.024m.054-1.934c.23 0 .707.132.707.879 0 .616-.374.946-.779.946-.428 0-.749-.282-.749-.843 0-.598.36-.982.821-.982" />
    <path id="path21373" transform="matrix(1.25 0 0-1.25 15.336 11.374)" d="m0 0c.589 0 1.028-.372 1.028-.981 0-.588-.413-1.071-1.044-1.071-.716 0-1.014.557-1.014 1.028 0 .424.308 1.024 1.03 1.024m.054-1.934c.231 0 .708.132.708.879 0 .616-.375.946-.781.946-.427 0-.748-.282-.748-.843 0-.598.36-.982.821-.982" />
    <path id="path21375" transform="matrix(1.25 0 0-1.25 12.714 13.05)" d="m0 0c0 .142-.037.199-.071.275-.019.041-.358.605-.449.743-.066.095-.131.16-.178.192l-.113.042-.026.025.03.024c.048 0 .135-.008.275-.008.123 0 .198.008.232.008l.033-.022-.039-.033-.033-.048.033-.089.47-.796c0 0 .366.644.422.74l.045.12-.043.073-.038.032.035.023.203-.008c.119 0 .204.008.254.008l.033-.023-.033-.026-.12-.036-.14-.134c-.086-.104-.452-.707-.5-.82-.038-.095-.038-.176-.038-.262v-.224c0-.042 0-.141.008-.251l.106-.143.11-.001.029-.023-.033-.026c-.041 0-.207.007-.342.007-.132 0-.236-.007-.274-.007l-.038.026.025.023.076.001.081.143c.008.11.008.209.008.251" />
    <path id="path21377" transform="matrix(1.25 0 0-1.25 9.866 12.369)" d="m0 0c0 .408 0 .469-.005.553l-.112.149-.084.007-.027.026.042.023c.042 0 .176-.007.299-.007.126 0 .239.007.281.007l.039-.025-.022-.024-.065-.007c-.071-.013-.092-.057-.097-.149-.006-.084-.006-.134-.006-.542v-.157h.011c.045.05.506.52.6.622l.136.181-.036.051-.023.027.034.023c.034 0 .101-.007.213-.007.093 0 .21.007.25.007l.04-.022-.03-.027-.143-.03c-.103-.041-.18-.112-.29-.227l-.542-.564c0 0 .582-.62.694-.739.164-.175.239-.223.379-.278l.173-.042.033-.022-.044-.027h-.257c-.216 0-.315.075-.462.213-.115.105-.597.629-.723.784h-.013v-.238c0-.251 0-.446.013-.556l.103-.144.097-.001.025-.021-.036-.028c-.049 0-.179.008-.329.008-.103 0-.227-.008-.267-.008l-.037.028.025.021.074.001.076.144c.013.11.013.305.013.556" />
  </g>
  <g id="g21379" fill="#e28d37">
    <path id="path21381" transform="matrix(1.25 0 0-1.25 24.07 9.554)" d="m0 0c-.077.12-.433-.158-.542-.292-.109-.137-.056-.213-.009-.255.196.263.374.417.551.547m.674-.432c.108.101.2.274.061.361-.327.209-.757-.347-1.026-.614.222-.11.623.034.681.067.056.033.177.085.284.186m-.023.58c.026-.017.255.072.39-.206.122-.252-.337-.649-.703-.835-.234-.11-.495-.124-.759-.055-.107-.048-.093-.214-.236-.147-.024.027-.086.198-.013.289-.17.139-.161.41-.092.574.196.33.551.561.908.615.283.043.46-.039.505-.235" />
    <path id="path21383" transform="matrix(1.25 0 0-1.25 39.1 12.804)" d="m0 0c-.03-.65-.317-.734-.378-.751-.149-.043-.252.056-.349.211-.094.158-.319.836-.385.835-.102-.0001-.237-.846-.24-.911-.002-.067-.028-.172-.129-.165-.101.007-.172.074-.176.174.009.541.246 1.274.277 1.378l.238.185c.204.051.597-1.043.709-1.045l.033.075c.015.158.007.49-.031.74-.032.219-.088.388-.082.425l.208-.031c.061-.067.337-.409.305-1.12" />
    <path id="path21385" transform="matrix(1.25 0 0-1.25 36.21 12.548)" d="m0 0c-.046.193-.141.758-.339.689-.167-.059-.292-.471-.315-.723.214-.031.455.02.654.034m.416-.892c-.167-.186-.242-.17-.346-.128-.085.035-.016.469-.049.693-.248-.033-.596-.098-.728-.097-.029 0-.059-.135-.058-.248.002-.168.026-.36-.05-.368-.177-.016-.305.191-.314.337-.009.147.054.33.032.358l-.044.054c-.045.101-.087.354-.069.36l.051.008.166-.065c.029.065.074.451.369.863.087.12.446.263.551.142.331-.199.52-.797.549-.985.026-.182.104-.74-.06-.924" />
    <path id="path21387" transform="matrix(1.25 0 0-1.25 34.401 13.77)" d="m0 0c-.114-.066-.322-.229-.738-.057-.208.084-.318.35-.199.703.052.155.298.812.341 1.019.05.246-.036.352-.02.377.066.123.321-.213.336-.367.041-.445-.212-1.027-.242-1.182-.041-.217.168-.14.268-.123.103.017.326.128.422.07.096-.06.02-.331-.168-.44" />
    <path id="path21389" transform="matrix(1.25 0 0-1.25 32.919 12.509)" d="m0 0c.074.123.108.444-.049.412-.183-.036-.691-.873-.694-.95l.307.058c.076.036.234.144.436.48m-.502-.877c-.202-.11-.414-.096-.422-.126-.286-1.059-.199-1.583-.247-1.612-.098-.061-.383.14-.389.219-.044.568.138 1.223.229 1.543.003.008-.094.038-.225.271-.061.107-.09.332-.04.553.063.271.61.977.708.992.076.012.064-.153.027-.251-.059-.151-.19-.277-.278-.411-.088-.133-.222-.379-.145-.556.052-.118.089-.162.132-.13.08.062.184.738 1.047 1.193.191.101.331-.304.315-.551-.053-.832-.584-1.064-.712-1.134" />
    <path id="path21391" transform="matrix(1.25 0 0-1.25 29.927 11.894)" d="m0 0c-.025-.08-.065-.124-.11-.215-.041-.085.47-.034.617-.081l.019-.221-.742-.088-.129-.395c.079-.046.725.162.824.092.151-.107.145-.192.078-.259-.063-.063-.92-.529-1.15-.295-.157.161-.196.233-.179.461.017.241.157.358.138.396-.048.093-.037.23-.001.287l.14.026.14.339-.24.093c-.036.048-.161.209.022.21.449.004 1.035.113 1.188.081.121-.024.352-.248.241-.34-.217-.148-.595-.028-.847-.091" />
    <path id="path21393" transform="matrix(1.25 0 0-1.25 28.621 13.298)" d="m0 0c-.137-.205-.278-.18-.387-.119-.298.169-.478 1.019-.619 1l-.111-1.081c-.068-.049-.112-.137-.255-.008l-.021.535c.027.389.07 1.052.259 1.148.155.078.348-.282.437-.405.089-.124.351-.701.428-.689.088.014.009.506-.002.618-.04.448-.291.809-.178.892.082.06.423-.303.505-.63.048-.196.257-.801-.056-1.266" />
    <path id="path21395" transform="matrix(1.25 0 0-1.25 26.423 11.673)" d="m0 0c-.475-.009-1.196-.061-1.278-.116-.072-.046-.078-.072.085-.125.274-.091 1.143.018 1.369-.427.053-.139.05-.399-.05-.582-.113-.207-.614-.328-.966-.293-.246.025-.747.172-.766.556.011.154.045.272.316.353.308.088.962-.1 1-.218.024-.075-.357-.196-.537-.14-.149.044-.442.316-.595.06-.037-.111.051-.161.132-.189.473-.11 1.141.031 1.216.207.074.178-.197.233-.335.29-.403.167-.952.02-1.201.201-.14.175-.051.333.002.436.221.353 1.055.327 1.266.319.189-.005.577-.017.6-.104.042-.177-.158-.199-.258-.228" />
    <path id="path21397" transform="matrix(1.25 0 0-1.25 23.933 13.592)" d="m0 0c-.073-.036-.303.026-.28.121-.06.566.006 1.189.073 1.668.034.098.21.182.279-.168.044-.681.053-.87.044-1.451 0 0 .004-.111-.116-.17" />
    <path id="path21399" transform="matrix(1.25 0 0-1.25 40.22 13.91)" d="m0 0c.322-.028.66.12.783.232.472.426.373.815.249 1.027-.386.659-1.322.796-1.6.684-.281-.111-.285-.205-.273-.277.017-.112.107-.133.135-.11l.018.079.133.114c.315.042.703-.216.811-.292.452-.331.542-.767.473-.907-.067-.141-.458-.188-.775-.112 0 0-.018.377.007.889.003.071-.051.13-.152.101-.176-.049-.233-.741-.233-.773l-.131.122-.159-.032c-.001-.026-.116-.276.074-.465l.204-.145c.028-.152.08-.322.227-.302.119.019.166-.011.209.167" />
    <path id="path21401" transform="matrix(1.25 0 0-1.25 19.679 13.747)" d="m0 0c.294-.096.591-.152.854-.152.995 0 2.038.586 2.038 1.505 0 1.23-2.197 2.8-4.211 2.8-.586 0-.909-.085-1.016-.153l-.244-.292c0-.158.183-.165.264-.165l.187.088-.076.077-.188.035c0 .07.446.117.827.117 2.209 0 3.954-1.546 3.954-2.512 0-.58-.504-1.108-1.489-1.108-.312 0-.619.044-.906.115-.007.245-.017.764-.02 1.225l.171.002c.41 0 1.125-.118 1.125-.258 0-.147-.17-.201-.239-.232l.04-.07.14-.032c.158 0 .421.17.421.386 0 .311-.45.651-1.382.651-.072 0-.168-.005-.277-.013 0 .191.003.34.007.405.019.199-.082.439-.146.515-.063.077-.141.083-.181-.035-.041-.117-.1-.457-.106-.556-.002-.027-.009-.174-.019-.384-.6-.094-1.293-.291-1.293-.617 0-.352.574-.826 1.262-1.145l.001-.175c.012-.122.022-.314.269-.314.157 0 .209.131.224.292m-.51.515c-.646.253-1.096.618-1.096.833 0 .152.576.206 1.12.225-.013-.34-.024-.733-.024-1.058" />
  </g>
  <path id="path21403" transform="matrix(1.25 0 0-1.25 42.04 13.359)" fill="#b8b49c" d="m0 0l.211-.055.162-.159.058-.216-.056-.214-.16-.159-.215-.057-.214.057-.159.159-.06.214.061.216.161.159.211.055m0-.053l-.186-.049-.139-.139-.051-.189.05-.187.139-.139.187-.051.187.051.14.139.05.187-.051.189-.14.139-.186.049m-.229-.127h.219l.154-.027.061-.106-.026-.077-.082-.049.083-.15.037-.05.027-.011v-.022h-.147l-.125.225h-.028v-.12l.015-.066.059-.017v-.022h-.257v.022l.048.012.016.071v.286l-.012.063-.042.017v.021m.173-.237l.035-.0001.067.028.028.08-.026.078-.08.025h-.024v-.21" />
</svg>
