<svg version="1.1" xmlns="http://www.w3.org/2000/svg" xmlns:xlink="http://www.w3.org/1999/xlink" x="0px"
	 y="0px" viewBox="0 0 121.1 44.1" style="enable-background:new 0 0 121.1 44.1;" xml:space="preserve">
<style type="text/css">
	.st0{fill:#1f5fa8;}
</style>
<path id="logo_tdl.svg" class="st0" d="M24.4,24.7v-0.6C24.6,24,24.8,24,25,24c0.4-0.1,0.9,0,1.2,0c0.3-0.1,0.6-0.2,0.8-0.4
	c-0.9,0.2-1.4-0.9-2.1-1c-0.2,0-0.5,0-0.7,0v2.2c-0.2,1.8-0.7,3.6-1.5,5.2v-4.1l0.3-0.4v-1h-0.2c0,0-0.7-1-1.3-5.2l0,0v-0.8
	c0.2-0.1,0.4-0.1,0.6-0.2c0.4-0.1,0.9,0.1,1.2,0c0.3-0.1,0.6-0.2,0.8-0.4c-0.9,0.2-1.4-0.9-2.1-1c-0.2,0-0.5,0-0.7,0v2.4l0,0
	c-0.6,4.2-1.2,5.2-1.2,5.2h-0.2v1l0.4,0.4v1.4h-1v-3.4l0.6-0.8v-2.5h0.7c-0.6-1.1-1-2.4-1.2-3.6c0-0.1,0-0.1-0.1-0.1
	S19.2,17,19.2,17c-0.2,1.1-0.5,2.2-1,3.2v-3.3l0.4-0.8v-0.7H18v-1.5h0.6c-1.2-1.8-2.2-9.9-2.2-10.8V2.3c0.2-0.1,0.3-0.1,0.5-0.2
	c0.9-0.1,1.3,1,2.5,0.3c-0.5-0.1-1-0.5-1.3-0.9c0.4-0.1,0.8-0.3,1-0.7c-0.4,0-0.8,0-1.2-0.2c-0.3-0.3-0.7-0.5-1.1-0.6
	c-0.2,0-0.5,0-0.7,0v3c0,0.9-1,9-2.2,10.8h0.6v1.5h-0.7V16l0.4,0.8v5.6l-1-3.9H9.5l-1.2,5.6c-0.3-1.2-0.6-2.3-0.9-3.5
	c0-0.1-0.1-0.1-0.2-0.1s-0.1,0.1-0.1,0.1c-0.3,1.9-0.8,3.7-1.7,5.4h0.4v0.8l0.4,0.7v1.2h-1c-0.8-1.4-1.5-2.9-2-4.4v-0.5
	c0.2-0.1,0.4-0.1,0.6-0.2c0.4-0.1,0.9,0.1,1.2,0s0.6-0.2,0.8-0.4c-0.9,0.2-1.4-0.9-2.1-1c-0.2,0-0.5,0-0.7,0v2c-0.4,1.7-1,3.3-2,4.8
	h1v2.5H0.6v1.9c0,0,0.4-0.1,0.7,0.6S0,40.4,0,40.4h27.6c-1-3.2-1.4-6.1-1.2-6.6c0.1-0.2,0.3-0.4,0.6-0.4v-1.9h-1.4v-1h0.7
	C25.4,28.7,24.7,26.7,24.4,24.7z M33.6,24.9h3.8V14.8h2.7v-3.4h-9.2v3.4h2.7V24.9z M48,22.8V17c0-1.1-0.9-2.1-2.1-2.1l0,0h-4.3
	c-1.1,0-2.1,0.9-2.1,2.1l0,0v5.8c0,1.1,0.9,2.1,2.1,2.1h4.3C47.1,24.9,48,24,48,22.8L48,22.8z M44.6,21.9h-1.7v-4h1.7V21.9z
	 M55.7,19.6l2.7-4.7h-4l-2.1,3.5v-6.2H49v12.7h3.3v-4.1l2.5,4.1h4L55.7,19.6z M60.7,25.6l-1.7,3h6.7c1.1,0,2.1-0.9,2.1-2.1l0,0V14.9
	h-3.4v7h-1.7v-7h-3.3v7.9c0,1.1,0.9,2.1,2.1,2.1h2l0.9-1.6v2.3L60.7,25.6L60.7,25.6z M70.8,24.9h4.3c1.1,0,2.1-0.9,2.1-2.1V17
	c0-1.1-0.9-2.1-2.1-2.1l0,0h-4.3c-1.1,0-2.1,0.9-2.1,2.1l0,0v5.8C68.8,24,69.7,24.9,70.8,24.9L70.8,24.9z M72.2,17.9h1.7v4h-1.7
	V17.9z M38.7,26.9H31v13.5h7.3h0.5c1.1,0,2.1-0.9,2.1-2.1l0,0v-0.1V29C40.8,27.9,39.8,26.9,38.7,26.9L38.7,26.9z M36.9,37h-2.1v-6.6
	h2.1V37z M41.8,40.4h3.4v-10h-3.4V40.4z M41.8,29.9h3.4v-1.2h-3.4V29.9z M53.2,30.5h-4.9c-1.1,0-2.1,0.9-2.1,2.1l0,0v0.1v1.8v0.1
	c0,1.1,0.9,2.1,2.1,2.1l0,0h0.1h2.9v0.8h-5.4l1.7,3h4.8h0.1c1.1,0,2.1-0.9,2.1-2.1l0,0V38v-2v-0.1c0-1.1-0.9-2.1-2.1-2.1l0,0h-3
	v-0.6h5.3L53.2,30.5z M62,30.5h-2.1L59,32.1v-1.6h-3.4v10H59v-7.2h1.7v7.2h3.4v-7.9C64.1,31.4,63.1,30.5,62,30.5L62,30.5L62,30.5z
	 M68.5,36.6h5.1v-4.1c0-1.1-0.9-2.1-2.1-2.1l0,0h-4.3c-1.1,0-2.1,0.9-2.1,2.1l0,0v5.8c0,1.1,0.9,2.1,2.1,2.1l0,0H72l1.7-3h-5.2V36.6
	L68.5,36.6z M70.2,33.2v1.2h-1.6v-1.2H70.2L70.2,33.2z M84.1,40.4h3.3V27.7h-3.3V40.4z M94.8,30.5h-4.9l-1.6,2.8h5.2v0.6h-3
	c-1.1,0-2.1,0.9-2.1,2.1v0.3v1.8v0.4c0,1.1,0.9,2.1,2.1,2.1l0,0h0.7h1.4l1-1.7v1.7H97v-7.3v-0.6C96.9,31.4,95.9,30.5,94.8,30.5
	L94.8,30.5L94.8,30.5z M91.8,37.5v-1.1h1.7v1.2L91.8,37.5L91.8,37.5z M104.3,30.5h-2.1l-0.9,1.6v-1.6h-3.4v10h3.4v-7.2h1.7v7.2h3.4
	v-7.9C106.4,31.4,105.5,30.5,104.3,30.5L104.3,30.5z M112.7,27.7v2.8h-3.2c-1.1,0-2.1,0.9-2.1,2.1V33v4.9v0.4c0,1.1,0.9,2.1,2.1,2.1
	l0,0h0.5h1.7l1-1.7v1.7h3.4V27.7H112.7L112.7,27.7z M110.8,37.7v-4.5h1.8v4.5H110.8L110.8,37.7z M83,30.5h-3.4v7h-1.7v-7h-3.3V38
	v0.4c0,1.1,0.9,2.1,2.1,2.1l0,0h1.9l1-1.7v2.4H76l-1.7,3H81c1.1,0,2.1-0.9,2.1-2.1L83,30.5L83,30.5z M119.7,38.3
	c0.2-0.1,0.3-0.4,0.3-0.6c0-0.3-0.3-0.6-0.6-0.6c-0.1,0-0.1,0-0.2,0h-1.1v2.4h0.3v-1h0.8c0.5,0,0.4,0.4,0.4,0.7c0,0.1,0,0.2,0.1,0.3
	h0.4v-0.1c-0.1-0.1-0.2-0.3-0.1-0.5C120,38.7,119.9,38.4,119.7,38.3L119.7,38.3z M119.2,38.2h-0.8v-0.8h0.8c0.2,0,0.4,0.1,0.4,0.4
	C119.7,38,119.5,38.2,119.2,38.2C119.3,38.2,119.2,38.2,119.2,38.2L119.2,38.2z M119,36.2c-1.2,0-2.1,0.9-2.1,2.1
	c0,1.2,0.9,2.1,2.1,2.1c1.1,0,2.1-0.9,2.1-2.1C121.1,37.2,120.2,36.2,119,36.2L119,36.2L119,36.2z M119,40.2c-1,0-1.9-0.8-1.9-1.9
	c0-1,0.8-1.9,1.9-1.9c1,0,1.9,0.8,1.9,1.9S120,40.2,119,40.2L119,40.2z"/>
</svg>
