<?xml version="1.0" encoding="UTF-8" standalone="no"?>
<!-- Created with Inkscape (http://www.inkscape.org/) -->

<svg
   xmlns:dc="http://purl.org/dc/elements/1.1/"
   xmlns:cc="http://creativecommons.org/ns#"
   xmlns:rdf="http://www.w3.org/1999/02/22-rdf-syntax-ns#"
   xmlns:svg="http://www.w3.org/2000/svg"
   xmlns="http://www.w3.org/2000/svg"
   xmlns:sodipodi="http://sodipodi.sourceforge.net/DTD/sodipodi-0.dtd"
   xmlns:inkscape="http://www.inkscape.org/namespaces/inkscape"
   id="svg4148"
   version="1.1"
   inkscape:version="0.91 r13725"
   width="199.80003"
   height="198"
   viewBox="0 0 199.80003 198"
   sodipodi:docname="logo.svg">
  <metadata
     id="metadata4154">
    <rdf:RDF>
      <cc:Work
         rdf:about="">
        <dc:format>image/svg+xml</dc:format>
        <dc:type
           rdf:resource="http://purl.org/dc/dcmitype/StillImage" />
        <dc:title></dc:title>
      </cc:Work>
    </rdf:RDF>
  </metadata>
  <defs
     id="defs4152">
    <inkscape:perspective
       id="perspective10"
       inkscape:persp3d-origin="372.04724 : 350.78738 : 1"
       inkscape:vp_z="744.09447 : 526.18109 : 1"
       inkscape:vp_y="0 : 999.99999 : 0"
       inkscape:vp_x="0 : 526.18108 : 1"
       sodipodi:type="inkscape:persp3d" />
    <inkscape:perspective
       sodipodi:type="inkscape:persp3d"
       inkscape:vp_x="0 : 526.18108 : 1"
       inkscape:vp_y="0 : 999.99999 : 0"
       inkscape:vp_z="744.09447 : 526.18109 : 1"
       inkscape:persp3d-origin="372.04724 : 350.78738 : 1"
       id="perspective2390" />
  </defs>
  <sodipodi:namedview
     pagecolor="#ffffff"
     bordercolor="#666666"
     borderopacity="1"
     objecttolerance="10"
     gridtolerance="10"
     guidetolerance="10"
     inkscape:pageopacity="0"
     inkscape:pageshadow="2"
     inkscape:window-width="1858"
     inkscape:window-height="1053"
     id="namedview4150"
     showgrid="false"
     showguides="true"
     inkscape:guide-bbox="true"
     inkscape:zoom="1"
     inkscape:cx="46.879344"
     inkscape:cy="-35.500224"
     inkscape:window-x="-8"
     inkscape:window-y="-8"
     inkscape:window-maximized="1"
     inkscape:current-layer="g4265"
     fit-margin-top="0"
     fit-margin-left="-0.2"
     fit-margin-right="0"
     fit-margin-bottom="0" />
  <g
     id="g4265"
     transform="matrix(0.12675631,0,0,0.12675631,-7864.3505,-330.0195)">
    <path
       style="fill:#2e4571;fill-opacity:1"
       d="m 44082.634,1453.2666 c -70.451,-4.9469 -124.853,-10.0405 -149.192,-13.9685 -9.289,-1.4992 -31.246,-4.8889 -48.793,-7.533 -17.546,-2.644 -39.08,-6.4607 -47.854,-8.4814 -8.773,-2.0209 -23.357,-4.9127 -32.41,-6.4259 -9.051,-1.5134 -17.235,-3.2329 -18.188,-3.8211 -0.951,-0.5879 -10.435,-3.1036 -21.074,-5.5899 -35.004,-8.1804 -50.568,-12.2888 -54.475,-14.3793 -2.118,-1.1338 -9.859,-3.5858 -17.2,-5.4491 -15.376,-3.9015 -56.715,-17.7544 -67.773,-22.7112 -4.129,-1.8506 -15.143,-6.2941 -24.476,-9.8747 -9.332,-3.5804 -19.466,-7.7755 -22.519,-9.3222 -3.054,-1.5469 -11.463,-5.4503 -18.688,-8.6745 -16.386,-7.3124 -34.1,-16.4629 -40.637,-20.9917 -2.739,-1.898 -5.833,-3.451 -6.874,-3.451 -1.04,0 -6.114,-2.7446 -11.276,-6.0992 -11.931,-7.7539 -25.266,-16.2031 -33.915,-21.4892 -3.718,-2.2719 -8.448,-5.4902 -10.512,-7.1518 -2.065,-1.6619 -10.448,-8.0735 -18.632,-14.2484 -27.745,-20.9359 -64.846,-58.2291 -77.254,-77.6532 -1.966,-3.0793 -4.702,-6.8796 -6.077,-8.4448 -4.423,-5.0316 -22.43,-35.2015 -23.721,-39.7409 -0.686,-2.415 -3.221,-8.1911 -5.634,-12.8358 -2.413,-4.6446 -6.648,-16.0451 -9.412,-25.3345 -2.762,-9.2893 -6.194,-19.8454 -7.625,-23.458 -1.431,-3.6124 -3.472,-13.1741 -4.535,-21.2478 -2.428,-18.4442 -2.493,-83.31655 -0.104,-104.48648 2.47,-21.89516 14.694,-66.71626 22.731,-83.35301 1.975,-4.08675 3.59,-8.15693 3.59,-9.04495 0,-2.46589 12.595,-26.93079 21.509,-41.78116 2.478,-4.1286 5.944,-10.0062 7.702,-13.06136 4.018,-6.98219 23.273,-32.89399 27.247,-36.66337 1.634,-1.55162 7.546,-8.27201 13.136,-14.93424 5.589,-6.66224 13.5,-15.10708 17.579,-18.76634 4.078,-3.65923 8.748,-7.91975 10.375,-9.46797 18.836,-17.91676 61.681,-50.63076 82.334,-62.86718 1.742,-1.03213 5.814,-3.77671 9.048,-6.09904 3.234,-2.32233 6.692,-4.22242 7.683,-4.22242 0.993,0 3.818,-1.55968 6.28,-3.46577 4.733,-3.66582 29.38,-17.2667 42.007,-23.18184 4.129,-1.93387 9.197,-4.48496 11.26,-5.66912 4.71,-2.70199 12.588,-6.49578 23.458,-11.29657 4.645,-2.05133 13.512,-6.16736 19.705,-9.1467 6.193,-2.97935 12.287,-5.41672 13.544,-5.41631 1.256,0 12.556,-4.22171 25.111,-9.38243 12.555,-5.16074 24.193,-9.38835 25.865,-9.39472 1.671,-0.006 5.572,-1.37352 8.669,-3.03812 3.096,-1.6646 11.118,-4.55076 17.828,-6.41368 6.708,-1.8629 20.642,-6.07473 30.965,-9.3596 10.32,-3.28486 25.52,-7.47581 33.778,-9.31323 8.257,-1.8374 19.236,-4.67113 24.397,-6.29717 13.603,-4.28611 50.81,-12.47836 56.803,-12.50665 2.818,-0.0132 10.191,-1.58617 16.385,-3.49521 6.193,-1.90905 15.951,-3.99745 21.685,-4.64089 9.673,-1.0853 11.159,-0.69757 20.566,5.36229 22.243,14.33059 24.723,27.19424 5.242,27.19424 -5.868,0 -17.571,3.67417 -53.122,16.67777 -21.571,7.88948 -35.374,13.45989 -37.533,15.14656 -1.033,0.80623 -5.255,2.49598 -9.383,3.75495 -4.129,1.25897 -12.152,4.45136 -17.829,7.0942 -5.676,2.64286 -13.699,6.32012 -17.828,8.17178 -16.265,7.29522 -73.002,35.75266 -77.647,38.94518 -2.708,1.86218 -7.67,4.48028 -11.024,5.81776 -3.354,1.33766 -6.099,3.11708 -6.099,3.95443 0,0.83736 -1.9,2.08625 -4.222,2.77516 -3.901,1.15731 -8.468,3.80919 -22.807,13.24377 -2.996,1.97139 -8.291,5.27351 -11.765,7.33781 -9.422,5.59817 -26.019,17.3534 -42.381,30.01898 -8.005,6.19684 -17.277,13.21336 -20.604,15.59219 -9.694,6.93134 -34.095,29.53386 -49.468,45.82003 -8.429,8.92957 -29.226,35.47058 -33.601,42.87953 -19.26,32.62395 -23.111,40.42397 -29.145,59.05551 -10.464,32.30698 -13.855,53.30142 -13.778,85.31358 0.06,24.36019 0.848,32.44283 4.855,49.73081 7.454,32.1614 20.162,61.2851 38.486,88.2016 19.758,29.0244 63.714,72.335 96.229,94.8181 3.612,2.4981 7.413,5.2274 8.445,6.0652 3.53,2.8659 30.388,19.7891 37.719,23.7664 4.025,2.1846 12.387,6.8589 18.58,10.3875 6.193,3.5285 13.512,6.9419 16.263,7.585 2.752,0.6433 5.44,2.3051 5.973,3.6928 0.532,1.3879 3.77,3.1194 7.194,3.8478 3.424,0.7286 10.025,3.2628 14.671,5.6314 17.272,8.809 29.226,14.041 32.08,14.041 1.617,0 6.817,1.9631 11.556,4.3624 10.561,5.3469 83.382,28.9962 111.185,36.1087 40.68,10.4066 64.098,15.7833 76.942,17.6668 8.257,1.2107 19.236,3.3755 24.396,4.8105 5.162,1.4353 16.562,3.5418 25.335,4.6813 8.774,1.1397 21.019,2.8326 27.211,3.7622 14.851,2.2294 37.928,4.6692 88.826,9.3906 51.158,4.7456 115.777,5.0863 157.013,0.8279 15.482,-1.5987 37.017,-3.7363 47.854,-4.7503 10.838,-1.0139 23.927,-2.6439 29.088,-3.6222 5.16,-0.9781 19.094,-3.1265 30.963,-4.774 11.871,-1.6475 24.96,-4.1393 29.089,-5.5374 4.129,-1.3981 15.107,-3.9216 24.395,-5.6078 9.291,-1.6861 19.424,-3.8808 22.521,-4.8769 3.097,-0.9964 11.964,-3.4206 19.704,-5.3875 7.742,-1.9667 19.564,-5.2859 26.273,-7.3759 6.709,-2.0901 19.376,-5.9707 28.15,-8.6236 8.772,-2.6529 18.484,-6.0027 21.581,-7.444 3.096,-1.441 11.963,-4.8929 19.704,-7.6705 7.742,-2.7778 19.142,-7.5009 25.335,-10.496 6.193,-2.9951 12.098,-5.4453 13.121,-5.445 1.879,0 38.904,-17.4627 44.117,-20.8082 1.548,-0.9937 7.037,-3.9448 12.197,-6.5578 12.323,-6.2393 21.395,-11.6239 26.956,-15.9981 2.484,-1.953 5.149,-3.551 5.925,-3.551 0.775,0 6.638,-3.5891 13.028,-7.9757 6.391,-4.3866 13.05,-8.8202 14.797,-9.8522 6.417,-3.789 48.448,-38.3798 58.496,-48.1412 9.736,-9.4593 30.509,-32.0927 33.38,-36.3712 0.716,-1.0672 4.891,-6.2856 9.278,-11.5964 4.387,-5.3108 7.975,-10.4008 7.975,-11.3112 0,-0.9105 1.479,-3.3282 3.285,-5.373 4.403,-4.985 9.248,-13.0362 13.998,-23.2629 2.158,-4.6446 5.228,-10.448 6.822,-12.8964 7.301,-11.2078 20.364,-53.45529 22.918,-74.12638 3.181,-25.72729 1.346,-91.83953 -2.976,-107.2086 -1.741,-6.19285 -3.949,-14.63774 -4.909,-18.76633 -3.194,-13.75962 -17.615,-49.94674 -24.305,-60.99054 -0.937,-1.54819 -2.475,-4.50389 -3.415,-6.56819 -0.941,-2.06431 -3.895,-6.66186 -6.563,-10.21694 -2.671,-3.55491 -4.855,-7.27721 -4.855,-8.27143 0,-0.99445 -3.247,-6.10825 -7.216,-11.36434 -3.97,-5.25606 -8.403,-11.33525 -9.853,-13.5093 -10.435,-15.65205 -49.456,-55.267 -76.762,-77.93128 -9.805,-8.13839 -19.162,-16.05177 -20.792,-17.58517 -5.07,-4.77134 -49.218,-35.56273 -65.533,-45.70649 -16.744,-10.41171 -35.88,-21.93597 -44.061,-26.53614 -4.589,-2.58035 -14.92,-8.44754 -22.958,-13.03816 -8.038,-4.59064 -19.26,-10.74047 -24.936,-13.66631 -5.677,-2.92581 -11.588,-6.03626 -13.137,-6.91205 -15.127,-8.55734 -119.666,-59.47586 -125.734,-61.24224 -2.58,-0.75116 -6.705,-2.93856 -9.167,-4.86088 -2.461,-1.9223 -5.509,-3.4951 -6.773,-3.4951 -1.264,0 -7.273,-2.44539 -13.353,-5.43417 -12.228,-6.01119 -41.048,-19.61945 -57.032,-26.92919 -5.677,-2.59617 -16.8,-7.77703 -24.719,-11.51301 -7.918,-3.73598 -15.204,-6.79269 -16.191,-6.79269 -0.986,0 -2.73,-1.13005 -3.877,-2.51121 -1.146,-1.38119 -5.66,-3.58268 -10.031,-4.89223 -4.37,-1.30958 -11.77,-4.36031 -16.443,-6.77945 -4.673,-2.41914 -10.607,-5.28253 -13.188,-6.36308 -2.58,-1.08056 -5.958,-2.66882 -7.505,-3.52945 -1.549,-0.86067 -5.349,-2.82393 -8.446,-4.36281 -3.097,-1.53892 -7.319,-3.67292 -9.383,-4.74222 -12.854,-6.6587 -43.917,-21.08305 -47.854,-22.22127 -2.58,-0.74613 -5.535,-2.01642 -6.567,-2.82289 -2.283,-1.78242 -18.522,-10.67691 -26.274,-14.38956 -3.096,-1.48301 -7.741,-3.93862 -10.321,-5.45689 -2.581,-1.51829 -8.914,-4.83621 -14.075,-7.37315 -12.402,-6.09653 -41.244,-21.53621 -50.669,-27.12433 -4.129,-2.44774 -11.729,-6.87514 -16.89,-9.8387 -5.16,-2.96353 -12.761,-7.46266 -16.889,-9.99805 -4.129,-2.53539 -10.885,-6.40748 -15.014,-8.60468 -4.128,-2.19718 -7.928,-4.60809 -8.444,-5.35755 -0.516,-0.7495 -3.586,-2.71851 -6.821,-4.37564 -7.706,-3.94715 -63.79,-41.58022 -67.51,-45.3006 -1.583,-1.58357 -3.603,-2.87921 -4.488,-2.87921 -0.884,0 -2.725,-1.05561 -4.088,-2.3458 -1.364,-1.29018 -7.538,-6.14597 -13.721,-10.79063 -16.099,-12.09335 -41.762,-32.92879 -51.703,-41.97545 -4.687,-4.26542 -11.022,-9.89938 -14.075,-12.51995 -7.524,-6.45582 -46.618,-47.250866 -57.503,-60.004288 -20.812,-24.384857 -39.53,-49.764946 -51.189,-69.410228 -3.982,-6.708954 -8.272,-13.4648388 -9.534,-15.0130501 -5.955,-7.3017131 -34.635,-67.5152319 -34.654,-72.7555679 0,-1.786417 -1.369,-5.781478 -3.029,-8.877923 -4.558,-8.50374 -11.805,-30.293343 -14.98,-45.039173 -1.556,-7.22501 -4.031,-16.51434 -5.503,-20.64295 -1.47,-4.12858 -3.954,-17.00936 -5.518,-28.62396 -1.564,-11.61459 -3.683,-24.70409 -4.708,-29.0878 -2.855,-12.21357 -4.376,-91.59464 -2.166,-113.06171 4.935,-47.94358 18.698,-99.73083 32.169,-121.04276 0.978,-1.54824 3.066,-5.77065 4.639,-9.38316 3.91,-8.97638 11.039,-21.3332 15.801,-27.38712 2.172,-2.762 3.949,-5.75239 3.949,-6.64534 0,-0.89296 1.291,-3.10139 2.867,-4.90766 1.577,-1.80627 8.121,-9.61444 14.544,-17.35151 22.361,-26.93782 43.335,-45.59849 74.987,-66.71648 22.168,-14.79042 68.503,-38.41967 81.191,-41.40468 3.097,-0.72847 7.319,-2.36197 9.383,-3.63001 2.065,-1.26796 8.398,-3.74218 14.075,-5.49805 5.677,-1.756 12.855,-4.31182 15.952,-5.67977 3.096,-1.36787 11.118,-3.52744 17.827,-4.799 6.709,-1.27156 14.459,-3.44599 17.222,-4.83202 2.765,-1.3861 13.32,-3.78022 23.459,-5.32042 10.138,-1.54019 21.304,-3.6387 24.813,-4.66343 3.509,-1.02474 10.687,-2.30763 15.951,-2.85093 5.264,-0.54324 14.638,-1.80367 20.831,-2.80092 33.419,-5.38143 45.203,-6.15209 78.975,-5.16497 19.524,0.57072 38.034,1.55556 41.131,2.18857 3.095,0.63295 14.496,2.82065 25.334,4.86145 24.492,4.61219 53.716,12.0532 56.796,14.46168 1.275,0.99674 6.492,2.83199 11.594,4.07821 5.103,1.24623 12.703,3.80097 16.889,5.67712 4.189,1.87622 9.725,4.02087 12.306,4.76592 2.58,0.74505 7.332,2.86687 10.558,4.71518 3.227,1.8483 8.465,3.93123 11.642,4.62861 3.174,0.69747 7.713,2.74451 10.083,4.54903 2.371,1.80451 7.266,4.42857 10.879,5.83125 8.199,3.18348 28.004,13.75704 49.431,26.39048 6.028,3.55412 13.628,8.0203 16.89,9.92481 3.261,1.90451 7.618,4.94547 9.683,6.75772 2.064,1.81223 5.019,3.76121 6.568,4.33107 3.595,1.32326 34.393,24.10805 45.436,33.61426 37.682,32.43972 57.696,54.66818 66.146,73.46639 1.478,3.28831 3.98,8.08997 5.56,10.67034 3.941,6.43698 14.221,29.03689 14.221,31.26283 0,0.99637 1.59,5.137 3.532,9.20143 1.942,4.06443 4.472,11.61227 5.624,16.77302 1.152,5.16074 3.762,15.29454 5.798,22.51957 2.551,9.04928 3.721,19.05323 3.759,32.15353 l 0.06,19.01712 -7.217,6.51927 c -5.646,5.10125 -10.033,7.0661 -20.173,9.03316 -15.035,2.91677 -16.292,2.83654 -33.125,-2.11338 -19.42,-5.71113 -31.39,-14.76341 -44.388,-33.57147 -13.499,-19.53253 -17.808,-24.28095 -37.95,-41.82886 -10.265,-8.94295 -13.569,-10.79062 -19.3,-10.79062 -13.517,0 -19.868,12.7022 -13.466,26.92754 4.36,9.68617 6.662,29.15919 5.664,47.94164 -1.033,19.48902 -1.336,20.45729 -7.069,22.57775 -10.475,3.87523 -32.685,-9.58716 -40.863,-24.76915 -2.905,-5.39583 -5.317,-11.09054 -5.358,-12.65486 -0.04,-1.5643 -1.748,-5.78673 -3.794,-9.38316 -2.046,-3.59641 -5.439,-9.91687 -7.54,-14.04544 -2.1,-4.12861 -4.582,-8.77325 -5.514,-10.32149 -0.931,-1.54821 -3.584,-6.61514 -5.894,-11.25978 -2.309,-4.64468 -5.458,-10.97832 -6.997,-14.07476 -2.872,-5.77897 -17.805,-27.80991 -22.259,-32.84103 -4.679,-5.28532 -35.328,-35.27424 -40.031,-39.16973 -29.22,-24.20078 -51.714,-38.91672 -82.224,-53.79044 -21.863,-10.65814 -31.847,-14.34132 -56.647,-20.89781 -26.823,-7.0915 -55.271,-7.00815 -92.893,0.27213 -14.45,2.79624 -27.117,5.70354 -28.149,6.46071 -1.033,0.75712 -5.677,2.45915 -10.322,3.78223 -4.644,1.32308 -11.77,4.00436 -15.834,5.95846 -4.065,1.95407 -8.123,3.55285 -9.018,3.55285 -2.117,0 -15.348,6.46163 -24.879,12.151 -4.128,2.46444 -10.039,5.68897 -13.135,7.16568 -3.098,1.47667 -7.24,4.49041 -9.206,6.69715 -1.966,2.20675 -4.318,4.01226 -5.226,4.01226 -2.857,0 -30.268,23.71104 -38.115,32.96923 -4.128,4.87145 -8.834,10.2134 -10.457,11.87104 -1.624,1.65763 -6.811,8.92525 -11.527,16.15028 -26.002,39.82635 -35.875,79.98753 -31.57,128.4118 2.29,25.75988 7.654,53.41617 13.492,69.57285 2.051,5.67682 4.808,14.12167 6.126,18.76631 3.556,12.5323 24.721,54.95339 34.331,68.8118 2.028,2.92333 4.246,6.5819 4.929,8.1301 0.684,1.54824 4.196,6.61514 7.803,11.25982 3.608,4.64465 8.569,11.40054 11.027,15.01305 2.457,3.612509 6.473,8.723493 8.923,11.357714 2.451,2.634228 6.834,7.928442 9.74,11.764919 22.658,29.911791 89.902,91.200481 133.586,121.752974 1.032,0.722308 5.357,4.311364 9.611,7.975685 4.254,3.66432 8.577,6.662408 9.608,6.662408 1.03,0 6.115,3.377938 11.3,7.506526 5.185,4.128591 10.363,7.50653 11.505,7.50653 1.143,0 2.078,0.787585 2.078,1.750165 0,0.962598 1.834,2.332634 4.077,3.044534 2.244,0.7119 5.637,2.745569 7.54,4.519286 1.904,1.773717 8.915,6.413842 15.579,10.311399 6.665,3.89756 13.086,8.25442 14.272,9.68192 1.184,1.42749 3.105,2.61893 4.27,2.64764 1.164,0.0287 5.433,2.56217 9.487,5.62989 4.054,3.06774 8.488,5.5777 9.853,5.5777 1.363,0 2.481,0.68806 2.481,1.52906 0,0.84098 3.166,3.02802 7.037,4.8601 3.87,1.83206 12.748,7.08032 19.728,11.66276 6.98,4.58245 14.58,9.14928 16.889,10.14849 4.309,1.86419 5.886,2.7964 19.776,11.67801 4.437,2.83841 8.56,5.16074 9.16,5.16074 0.6,0 8.791,4.42033 18.203,9.82295 25.298,14.52216 47.262,26.30555 72.09,38.67635 4.855,2.41912 10.095,5.47918 11.643,6.80011 1.548,1.32093 5.927,3.40039 9.731,4.62108 3.804,1.22069 7.181,2.80531 7.506,3.52138 0.721,1.58768 28.047,15.37973 30.47,15.37795 0.95,-7.2e-4 3.061,1.18132 4.691,2.62673 1.629,1.4454 27.03,14.74146 56.447,29.5468 29.416,14.80534 53.905,27.36892 54.421,27.91904 0.516,0.55016 4.739,2.62027 9.384,4.60027 4.644,1.98 10.687,5.12351 13.426,6.98557 2.74,1.86207 6.038,3.38558 7.33,3.38558 1.291,0 5.116,2.11121 8.498,4.69159 3.384,2.58036 6.982,4.69157 7.998,4.69157 1.014,0 7.616,3.06914 14.669,6.82028 7.052,3.75116 25.068,13.14804 40.034,20.88194 14.965,7.73392 28.478,15.11407 30.026,16.40035 1.548,1.2863 5.97,3.35158 9.826,4.58951 3.857,1.23794 7.538,3.10355 8.183,4.14583 0.644,1.04227 4.667,3.52025 8.94,5.50661 4.272,1.98638 11.569,5.83139 16.214,8.54449 4.644,2.71309 12.667,7.21021 17.828,9.99359 5.16,2.78336 16.139,8.69844 24.396,13.14459 8.257,4.44615 16.524,9.65448 18.37,11.57405 1.846,1.91959 4.427,3.49014 5.735,3.49014 1.307,0 8.874,4.22243 16.814,9.38316 7.941,5.16074 15.218,9.38316 16.171,9.38316 0.955,0 4.123,1.99567 7.04,4.4348 2.918,2.43914 7.21,5.03093 9.538,5.75957 2.328,0.72862 6.55,3.27509 9.383,5.65878 2.833,2.38372 9.617,6.9676 15.076,10.18641 5.46,3.21881 10.949,6.70562 12.199,7.74848 5.324,4.44233 32.639,22.69471 36.369,24.30186 2.239,0.96484 4.773,2.90299 5.63,4.30698 0.857,1.40402 4.543,4.36271 8.191,6.57487 3.648,2.21216 9.137,6.25465 12.198,8.98331 3.062,2.72866 7.814,6.39108 10.559,8.1387 5.451,3.46833 36.531,28.35637 44.815,35.8873 2.838,2.58038 11.272,10.18075 18.74,16.8897 17.206,15.45481 48.08,49.25933 61.702,67.55874 5.763,7.74111 10.968,14.49697 11.567,15.01307 0.599,0.51607 2.686,3.68287 4.637,7.03736 1.95,3.35447 4.117,6.09904 4.812,6.09904 0.696,0 3.092,3.58906 5.325,7.97569 2.232,4.38663 6.564,12.1981 9.625,17.35885 3.061,5.16075 6.842,12.33886 8.404,15.95137 1.562,3.6125 4.016,8.70156 5.454,11.30915 3.109,5.64039 11.124,26.46013 16.235,42.17486 2.014,6.19288 5.348,20.97137 7.409,32.84107 2.06,11.86971 4.564,26.22589 5.563,31.90272 2.611,14.81938 2.259,41.38573 -0.781,58.9677 -1.44,8.33751 -3.626,24.1868 -4.855,35.22065 -1.947,17.47087 -5.305,32.03899 -15.962,69.24604 -1.356,4.7368 -4.176,12.3664 -6.267,16.9547 -2.09,4.5884 -4.427,10.8468 -5.193,13.9075 -1.216,4.8549 -18.94,40.8916 -29.846,60.6827 -5.993,10.8753 -26.888,41.5759 -35.617,52.3332 -1.054,1.2979 -4.027,4.9483 -6.608,8.1119 -12.913,15.8335 -54.755,56.9517 -71.457,70.2234 -10.392,8.2573 -22,17.5466 -25.795,20.643 -3.795,3.0964 -8.252,6.4744 -9.904,7.5065 -1.652,1.0322 -6.621,4.4101 -11.041,7.5066 -18.522,12.9727 -56.24,36.2616 -64.713,39.9574 -3.063,1.3361 -6.019,3.0261 -6.569,3.7555 -1.352,1.7957 -28.667,15.3931 -31.024,15.444 -1.032,0.023 -3.989,1.692 -6.568,3.7102 -2.581,2.0183 -5.972,3.6886 -7.535,3.7116 -1.563,0.023 -6.208,1.8508 -10.321,4.0618 -8.901,4.7841 -48.249,21.0804 -62.84,26.0256 -5.677,1.924 -16.232,5.7582 -23.458,8.5206 -7.224,2.7624 -18.202,6.3286 -24.396,7.9249 -6.193,1.5962 -14.684,4.3826 -18.868,6.192 -4.184,1.8094 -12.421,4.1795 -18.303,5.2668 -5.884,1.0874 -12.171,2.7404 -13.974,3.6733 -4.942,2.5574 -47.982,12.9726 -66.536,16.1012 -8.989,1.5153 -17.891,3.5839 -19.783,4.5968 -1.892,1.0126 -10.583,2.8038 -19.314,3.9803 -8.73,1.1767 -21.361,3.3471 -28.07,4.8235 -6.71,1.4764 -18.954,3.4782 -27.211,4.4483 -8.258,0.9703 -22.692,3.0685 -32.077,4.6629 -9.386,1.5944 -29.231,3.7614 -44.101,4.8156 -14.87,1.0542 -29.57,2.3352 -32.667,2.8465 -33.494,5.5322 -186.454,8.4663 -241.147,4.6257 z m 33.51,-227.1034 c -16.145,-0.8267 -36.836,-2.7657 -45.977,-4.3091 -9.141,-1.5435 -23.376,-3.3773 -31.634,-4.0753 -8.256,-0.6979 -23.577,-3.2957 -34.044,-5.7731 -10.466,-2.4773 -21.614,-4.5041 -24.773,-4.5041 -3.158,0 -10.64,-1.3502 -16.626,-3.0007 -5.984,-1.6503 -16.793,-4.56 -24.018,-6.4662 -34.447,-9.0873 -42.461,-11.3966 -58.176,-16.764 -9.29,-3.1729 -19.423,-6.9691 -22.519,-8.4361 -15.576,-7.3795 -27.229,-12.2559 -29.441,-12.3191 -1.354,-0.039 -8.373,-3.3624 -15.598,-7.3857 -7.226,-4.0236 -17.36,-9.5853 -22.519,-12.3595 -9.248,-4.9708 -33.616,-20.6236 -37.806,-24.2842 -1.183,-1.0328 -4.935,-3.989 -8.339,-6.5693 -8.963,-6.7946 -31.584,-29.4397 -40.302,-40.3475 -29.412,-36.7954 -45.116,-79.02822 -47.107,-126.67274 -1.08,-25.87837 -0.33,-32.41679 6.672,-58.17558 3.382,-12.4402 10.312,-29.30367 15.425,-37.53267 0.961,-1.54822 3.072,-5.77063 4.69,-9.38319 11.205,-25.02242 52.256,-73.44233 89.877,-106.01276 33.305,-28.83408 38.854,-33.11243 41.586,-32.06432 1.596,0.61309 2.514,2.16318 2.038,3.44454 -0.902,2.42687 -1.815,6.36649 -10.105,43.61594 -4.506,20.24979 -5.007,26.20792 -4.956,59.1139 0.05,31.38214 0.595,38.33168 3.856,48.79245 2.091,6.70896 4.845,16.84274 6.12,22.51957 1.276,5.67682 4.316,13.94055 6.756,18.36376 2.439,4.42322 4.436,8.81923 4.436,9.76904 0,0.94953 1.899,4.51214 4.222,7.9165 14.865,21.79203 30.889,34.32438 43.887,34.32438 4.401,0 9.099,-1.09823 10.441,-2.44034 1.952,-1.95323 2.506,-30.62346 2.774,-143.56237 l 0.336,-141.12197 9.048,-8.03346 c 10.774,-9.56671 37.025,-27.51819 44.266,-30.27101 2.828,-1.07513 9.076,-3.74708 13.885,-5.93786 4.808,-2.1906 13.462,-4.70041 19.229,-5.57736 5.768,-0.87695 12.598,-2.12396 15.178,-2.77122 2.58,-0.64706 13.342,-2.4873 23.915,-4.08901 15.432,-2.33771 19.783,-2.44955 22.051,-0.56673 2.486,2.06355 2.826,27.50111 2.826,211.49435 0,193.24436 0.239,209.38816 3.148,212.29876 4.732,4.7339 50.456,4.6739 53.93,-0.071 2.535,-3.4641 4.846,-159.02561 4.85,-326.48649 0,-48.55727 0.722,-84.31425 1.714,-84.92735 0.942,-0.5825 2.3,-4.52642 3.015,-8.76442 1.333,-7.88637 9.849,-18.49462 19.707,-24.54865 7.13,-4.37833 106.064,-3.34115 119.908,1.25708 5.223,1.73481 9.944,3.87671 10.489,4.75972 1.88,3.04202 1.01,636.82911 -0.877,637.99461 -2.738,1.6924 -102.093,1.6481 -135.458,-0.06 z m 189.114,-15.3846 c -2.023,-7.548 -1.344,-616.87872 0.691,-620.68223 1.496,-2.79443 2.943,-3.19325 7.178,-1.97847 2.919,0.83677 13.265,2.09966 22.993,2.8064 26.314,1.91172 47.552,4.60507 59.548,7.55175 5.877,1.44351 14.063,3.05459 18.191,3.58044 4.129,0.52582 14.685,2.59555 23.459,4.59943 8.773,2.00386 20.334,4.18563 25.694,4.84846 5.358,0.663 12.823,2.49178 16.586,4.0644 3.763,1.57242 11.625,3.73338 17.467,4.80194 13.494,2.46702 65.763,19.31316 78.372,25.25869 5.264,2.48185 10.463,4.51257 11.552,4.51257 1.089,0 5.228,1.58858 9.196,3.53013 3.967,1.94156 18.193,8.8106 31.61,15.26453 21.2,10.1963 33.862,17.45041 53.485,30.63789 2.58,1.73418 7.903,5.29452 11.829,7.91186 8.66,5.77328 53.853,50.08431 53.853,52.80206 0,1.06441 2.624,5.21835 5.831,9.23078 3.207,4.01242 6.598,8.98436 7.536,11.04867 0.938,2.06427 4.621,9.21313 8.183,15.88605 3.563,6.67312 6.996,14.69572 7.628,17.82801 0.633,3.13248 2.798,10.23364 4.813,15.78061 8.066,22.20596 8.182,84.32022 0.2,108.14234 -2.074,6.19294 -4.374,14.21552 -5.111,17.82808 -1.571,7.69078 -18.258,42.50941 -25.765,53.75611 -2.856,4.2784 -5.192,8.2802 -5.192,8.8931 0,1.5952 -15.805,22.4999 -27.831,36.8123 -16,19.0405 -64.655,65.64 -68.559,65.6622 -2.915,0.019 -3.32,-0.9954 -2.434,-6.0792 0.586,-3.3544 2.429,-22.0826 4.097,-41.6179 3.18,-37.2515 2.592,-51.2382 -3.752,-89.27715 -4.584,-27.48084 -16.317,-65.74951 -22.442,-73.18866 -1.275,-1.54824 -3.49,-5.77064 -4.922,-9.38313 -1.433,-3.61257 -10.651,-14.5908 -20.484,-24.39622 -13.633,-13.59492 -21.22,-19.50572 -31.953,-24.89353 -7.741,-3.88616 -15.521,-7.05296 -17.289,-7.03738 -1.769,0.0187 -7.68,-1.73641 -13.137,-3.89341 -9.963,-3.93776 -47.796,-9.16007 -66.623,-9.19609 -7.83,-0.0187 -10.182,0.72079 -11.767,3.68068 -1.35,2.52308 -1.943,58.98421 -1.866,177.54839 0.106,164.9333 -0.06,173.9812 -3.247,176.4295 -1.848,1.4195 -9.272,4.3363 -16.497,6.4819 -7.224,2.1455 -15.682,5.0589 -18.793,6.4741 -10.867,4.9427 -45.505,9.2932 -89.365,11.224 -21.421,0.9432 -21.855,0.8815 -22.963,-3.254 z m 87.02,-1102.43612 c -4.645,-0.37061 -18.156,-1.94259 -30.026,-3.4933 -11.869,-1.55072 -28.759,-3.71658 -37.533,-4.81302 -8.772,-1.096456 -16.795,-2.658134 -17.828,-3.470415 -1.032,-0.812282 -8.21,-2.513637 -15.951,-3.780813 -7.741,-1.267157 -17.03,-3.525665 -20.642,-5.018882 -3.613,-1.493236 -12.058,-4.301241 -18.767,-6.240045 -14.915,-4.31008 -48.871,-17.873685 -56.299,-22.488268 -1.548,-0.961776 -7.038,-3.898484 -12.198,-6.526027 -5.161,-2.627495 -12.762,-6.828485 -16.89,-9.335473 -4.128,-2.507012 -10.04,-6.005155 -13.136,-7.773659 -7.223,-4.124657 -11.896,-7.684595 -35.251,-26.8505358 -20.199,-16.5762899 -26.448,-22.6241442 -41.691,-40.3502472 -5.161,-6.001298 -10.374,-11.968439 -11.584,-13.260272 -6.891,-7.353711 -34.905,-49.715766 -38.186,-57.742503 -1.568,-3.84001 -3.891,-8.02021 -5.16,-9.28932 -1.268,-1.26915 -2.307,-3.01834 -2.307,-3.88708 0,-0.86878 -2.534,-6.99829 -5.631,-13.62118 -3.096,-6.62286 -5.629,-12.95101 -5.629,-14.0625 0,-1.1115 -1.286,-3.98355 -2.858,-6.3823 -1.571,-2.39878 -4.022,-9.92697 -5.445,-16.72936 -1.423,-6.8024 -3.981,-15.15499 -5.683,-18.56134 -4.442,-8.88843 -5.786,-20.85255 -2.636,-23.45625 1.402,-1.15741 8.61,-2.60015 16.02,-3.2061 12.832,-1.04927 13.654,-0.87331 17.246,3.69296 2.074,2.63708 5.24,8.75724 7.035,13.60033 10.125,27.31378 42.914,75.53288 67.256,98.90305 19.498,18.72056 58.276,49.711644 62.202,49.711644 0.733,0 3.944,1.94142 7.138,4.314267 3.194,2.372854 12.303,7.441322 20.242,11.263257 7.939,3.821936 14.916,7.72694 15.504,8.677777 0.588,0.950829 3.803,2.307076 7.146,3.013922 3.342,0.706824 8.873,2.983477 12.29,5.059195 3.417,2.075745 8.906,4.4720762 12.198,5.3251896 3.292,0.8531144 11.053,3.259076 17.245,5.3466141 25.758,8.6825778 41.608,13.2987333 45.662,13.2987333 2.369,0 14.599,2.132789 27.177,4.739514 26.464,5.484658 79.679,10.244347 114.726,10.261572 40.041,0.01974 90.071,-4.416411 116.45,-10.325419 7.224,-1.618474 18.477,-3.699998 25.004,-4.625593 6.528,-0.9256453 16.239,-3.3198799 21.581,-5.3204749 5.343,-2.0006524 17.314,-5.9658568 26.603,-8.8115783 9.29,-2.845721 19.423,-6.4795248 22.52,-8.0751188 3.097,-1.595573 6.896,-3.469069 8.445,-4.163334 1.548,-0.694265 11.011,-5.261006 21.028,-10.148339 16.678,-8.136656 24.688,-12.729162 39.741,-22.78509 2.975,-1.987324 6.775,-4.45806 8.445,-5.490506 3.23,-1.996913 4.572,-3.095231 25.246,-20.642383 26.129,-22.178433 46.654,-45.690739 65.322,-74.829459 8.591,-13.4087 27.88,-53.0795 27.88,-57.33714 0,-1.0852 2.237,-7.55971 4.971,-14.38782 4.945,-12.35391 12.127,-19.50298 19.607,-19.52049 5.581,-0.0131 14.522,5.72384 25.018,16.05383 12.387,12.19049 12.858,15.26231 5.766,37.60864 -2.581,8.13014 -4.697,15.6368 -4.703,16.68145 0,1.04468 -1.181,4.1401 -2.611,6.87871 -1.429,2.73863 -3.625,8.22778 -4.881,12.1981 -2.598,8.20847 -10.246,25.56625 -14.345,32.55333 -1.514,2.58037 -4.068,7.64727 -5.676,11.25979 -1.608,3.61251 -3.56,6.99045 -4.338,7.50653 -0.777,0.516057 -3.154,4.372728 -5.281,8.570387 -2.129,4.197634 -5.197,8.734576 -6.821,10.082088 -1.623,1.347519 -2.952,3.241787 -2.952,4.209482 0,3.644821 -26.003,36.149142 -44.1,55.126563 -4.129,4.329303 -15.952,14.7743923 -26.274,23.211292 -10.321,8.4369 -20.205,16.521982 -21.962,17.966857 -1.757,1.444877 -5.769,3.957626 -8.914,5.583859 -3.145,1.626254 -5.718,3.722713 -5.718,4.658801 0,0.936088 -1.9,2.287261 -4.222,3.002648 -2.323,0.715336 -7.601,3.548641 -11.728,6.296215 -10.529,7.005918 -59.125,30.478064 -68.498,33.084594 -2.581,0.717492 -8.309,2.926736 -12.729,4.909398 -4.422,1.98268 -12.849,4.494179 -18.729,5.581141 -5.88,1.086945 -12.854,3.095373 -15.5,4.463176 -2.646,1.367802 -10.263,3.432489 -16.928,4.588195 -6.665,1.155706 -19.717,3.709294 -29.008,5.674654 -48.835,10.33221 -127.697,15.65534 -175.465,11.84388 z m 50.341,-152.625814 c -1.729,-1.008734 -4.099,-4.731519 -5.269,-8.272862 -1.712,-5.189953 -1.571,-7.509022 0.729,-11.956237 3.159,-6.109886 6.316,-7.848848 14.252,-7.848848 6.792,0 14.154,10.700706 12.339,17.93372 -2.529,10.072773 -13.513,15.126039 -22.051,10.144227 z m 69.186,-5.638992 c -14.601,-2.453087 -14.436,-2.036711 -14.436,-36.39881 0,-45.662804 -3.565,-58.561884 -21.448,-77.581314 -4.153,-4.41708 -8.294,-9.35706 -9.201,-10.97769 -0.907,-1.62065 -1.519,-13.62831 -1.362,-26.68372 0.341,-28.0567 1.357,-30.3407 16.685,-37.49756 9.424,-4.40009 12.878,-4.95704 30.34,-4.89454 17.139,0.0613 21.077,0.70278 30.255,4.92795 5.802,2.67154 11.14,5.8122 11.861,6.97919 2.079,3.36301 19.253,11.44861 23.972,11.28612 4.016,-0.1383 8.306,-2.5342 27.454,-15.3347 l 7.721,-5.16075 98.27,0 c 110.529,0 101.814,-1.19634 106.492,14.61818 2.035,6.88204 1.922,9.50401 -0.778,18.072 -1.738,5.51213 -5.259,13.11657 -7.826,16.89875 -2.567,3.78219 -4.667,7.56722 -4.667,8.41119 0,6.79497 -47.174,54.68236 -78.775,79.9651 -41.104,32.886195 -47.781,35.623234 -86.907,35.623234 -28.167,0 -30.833,-0.975647 -28.206,-10.321471 0.726,-2.580371 1.367,-11.819715 1.426,-20.531882 0.106,-15.579781 0.2,-15.893851 5.737,-19.097931 3.097,-1.7917 12.172,-4.15509 20.168,-5.25199 20.436,-2.80375 44.239,-16.67404 44.509,-25.93601 0.1,-3.19544 -9.616,-16.90994 -13.069,-18.46042 -5.819,-2.61326 -41.931,-3.16308 -55.136,-0.83954 -12.761,2.24537 -34.869,12.39973 -38.208,17.55046 -0.783,1.20648 -1.478,16.12761 -1.548,33.15802 -0.15,37.179312 -3.324,60.622129 -8.914,65.830348 -3.367,3.137503 -6.563,3.57643 -24.629,3.384323 -11.416,-0.121415 -24.818,-0.90283 -29.78,-1.736537 z m -196.848,-15.160647 c -1.08,-0.67124 -2.045,-12.623975 -2.272,-28.149483 -0.339,-23.192894 -0.998,-28.470204 -4.684,-37.571534 -5.283,-13.03745 -15.918,-23.82701 -25.731,-26.10354 -4.005,-0.92912 -32.615,-1.71362 -63.58,-1.74336 -55.621,-0.0535 -56.358,-0.1049 -61.139,-4.26719 -15.758,-13.7137 -27.106,-43.46748 -20.96,-54.95165 3.094,-5.7815 8.022,-9.29882 19.232,-13.72734 10.185,-4.02396 11.752,-4.0765 118.953,-3.98821 l 108.631,0.0895 10.001,4.73078 c 8.415,3.98131 10.157,5.68026 10.99,10.7244 1.194,7.21182 2.721,64.22923 2.996,111.81979 0.266,46.034918 4.671,42.147513 -49.13,43.366076 -22.786,0.516073 -42.274,0.413355 -43.307,-0.228238 z"
       id="path4159"
       inkscape:connector-curvature="0"
       sodipodi:nodetypes="ssscscscssccscsscssscsssssssssscsssssscscsscscssssscsssssssssscsccsscsssssssccccsscssscccsscscssscccccccccscsccccssccsccccccsssscccsccscssscscccccsssssssssssssssssssssscsssssssssssssscssssssssssssscscscsscscsssscsccccssssscsssccsscccsssscsssssssssssssssssssssssssssssssssssssssscccccscccscssscccscsccscsscccsccccscsscsscsccscssccccsscsscsscccccscsccccccsssccsccsssccsccccssssssssccsssssssscsccscscsssscccssscccccccssssccscscscsscsccscssssccssccscccccscccscssssscssssssssscsssssssssssssscsssssssssssscsscssssssccsccccscsssscscsccssssscccsccsscssssscsscsccsssscccsccscscsscccsssssscscsscc" />
    <path
       style="fill:#005396;fill-opacity:1"
       d="m 62049.46,3384.6007 0,-773.137 780.946,0 780.947,0 0,773.137 0,773.137 -780.947,0 -780.946,0 z m 1460.37,-15.6189 0,-663.8046 -679.424,0 -679.423,0 0,663.8046 0,663.8045 679.423,0 679.424,0 z m -1194.849,512.1726 0,-512.0719 0,-512.0719 -116.135,-128.1354 636.226,-0.2696 637.782,0 -59.606,62.3902 -59.607,62.3901 0,516.4071 0,516.407 59.924,61.579 59.926,61.5789 -638.482,0 -638.482,0 z m 434.492,-268.7145 c 45.687,-107.4927 65.164,-132.3738 95.967,-122.5972 18.381,5.834 40.369,35.543 55.046,74.3757 21.832,57.7649 72.972,171.93 75.765,169.1373 7.355,-7.355 -54.091,-220.3235 -76.212,-264.1431 -23.068,-45.6988 -24.488,-53.1492 -20.687,-108.5914 7.294,-106.4367 36.507,-133.2544 128.542,-118.0037 78.565,13.0187 82.905,19.9051 88.296,140.0997 3.824,85.2765 7.412,105.9216 25.097,144.4063 11.348,24.6974 22.113,44.9044 23.922,44.9044 1.808,0 0.399,-14.9356 -3.132,-33.1902 -3.532,-18.2547 -6.587,-98.2041 -6.791,-177.6654 -0.494,-193.4624 -6.15,-202.9424 -136.976,-229.5906 -76.772,-15.6376 -95.103,-28.6729 -112.335,-79.8823 -16.68,-49.5689 -36.728,-81.0003 -51.664,-81.0003 -14.935,0 -34.984,31.4314 -51.664,81.0003 -7.412,22.0255 -21.662,46.0849 -31.668,53.4653 -10.004,7.3804 -48.569,19.9113 -85.698,27.8465 -127.573,27.2646 -129.211,30.4492 -132.794,258.3091 l -2.745,174.5602 19.085,-41.8307 c 15.871,-34.7856 19.842,-58.5891 23.577,-141.3326 5.321,-117.9062 10.1,-126.0027 82.221,-139.335 60.858,-11.2503 100.548,-0.337 117.417,32.2857 6.606,12.7755 14.115,50.4893 16.683,83.8083 4.383,56.8324 3.181,63.5333 -19.427,108.3202 -20.386,40.3854 -57.128,162.0947 -75.08,248.7065 -7.787,37.5668 6.472,10.7142 55.255,-104.063 z"
       id="path4173"
       inkscape:connector-curvature="0"
       sodipodi:nodetypes="cccccccccccccccccccccccccccccccccscscsssscsccsssccsscsssccsss" />
  </g>
</svg>
