<svg enable-background="new 0 0 480.8884 206.9345" height="207.289049" viewBox="0 0 480.8884 206.9345" width="482.418151" xmlns="http://www.w3.org/2000/svg"><path d="m0 119.607h35.7192v86.1358h112.0668v-86.1358h35.7268v-118.7453h-183.5128z"/><path d="m.0023 132.0628h22.4525v16.2935h-22.4525z"/><path d="m.0023 160.757h22.4525v16.2935h-22.4525z"/><path d="m.0023 189.4516h22.4525v16.2935h-22.4525z"/><path d="m161.055 132.0628h22.4525v16.2935h-22.4525z"/><path d="m161.055 160.757h22.4525v16.2935h-22.4525z"/><path d="m161.055 189.4516h22.4525v16.2935h-22.4525z"/><path d="m231.3146 13.4199c.6399-2.1912 1.3552-4.0133 2.1234-5.4287.7679-1.3929 1.6337-2.4922 2.605-3.2679.9639-.7753 2.0632-1.3249 3.2679-1.6337 1.2422-.3235 2.6578-.4894 4.2389-.4894h2.0329v44.0617h-6.0158v1.5588h22.1436v-1.5588h-6.0158v-44.0617h2.0329c1.5737 0 3.0043.1659 4.2316.4894 1.2047.3088 2.3189.8584 3.2828 1.6337.9637.7757 1.8371 1.875 2.5976 3.2679.7679 1.4154 1.4832 3.2376 2.1232 5.4287l.0678.2335h1.4154v-12.6116h-41.6146v12.6116h1.4079z"/><path d="m318.5526 6.6185c-2.304-2.1084-4.9846-3.7573-7.9434-4.8943-2.9667-1.1442-6.0085-1.7242-9.0277-1.7242-2.8159 0-5.7373.5873-8.6888 1.7541-2.929 1.1599-5.6321 2.8387-7.9963 4.9921-2.3793 2.1535-4.3444 4.7812-5.8653 7.8078-1.5135 3.0344-2.2815 6.4751-2.2815 10.2099 0 3.426.6928 6.6557 2.0556 9.6075 1.3552 2.9439 3.1923 5.534 5.4586 7.71 2.2665 2.176 4.9168 3.9076 7.9135 5.1576 2.9816 1.25 6.1438 1.8901 9.4041 1.8901 3.2902 0 6.4678-.6553 9.4342-1.9504 2.9591-1.295 5.6093-3.0868 7.8756-5.3308 2.2589-2.2362 4.0811-4.8713 5.4287-7.8377 1.3403-2.9669 2.0179-6.1443 2.0179-9.442 0-3.772-.7229-7.2132-2.1535-10.2398-1.4304-3.0119-3.3277-5.6019-5.6317-7.7099m-9.5773 39.2051c-1.7619 1.1595-4.2541 1.7468-7.3938 1.7468-2.4019 0-4.48-.3465-6.1967-1.0239-1.6792-.67-3.0871-1.8672-4.1562-3.5616-1.0843-1.7164-1.8899-4.0735-2.4095-7.0096-.5119-2.9439-.7755-6.7164-.7755-11.2113 0-3.4333.1581-6.6033.4593-9.4494.2936-2.8235.9186-5.2932 1.8598-7.3409.926-2.0257 2.2964-3.6144 4.0581-4.7362 1.7771-1.1144 4.1863-1.6792 7.1606-1.6792 3.1773 0 5.6996.6103 7.4992 1.8074 1.7845 1.2045 3.1473 2.846 4.0282 4.8938.8959 2.0708 1.4455 4.4949 1.6337 7.2132.1958 2.7256.2936 5.6544.2936 8.704 0 3.3658-.1204 6.5353-.3539 9.4117-.2335 2.846-.8132 5.346-1.7091 7.4163-.8807 2.0405-2.2286 3.6668-3.9978 4.8189"/><path d="m355.9381 46.655h-6.0084v-22.2269l16.9261 22.2269h-5.5492v1.5583h22.4674v-1.5583h-4.2088l-22.347-29.0632 14.283-14.9912h5.4138v-1.5583h-13.7111v1.5583h6.159l-19.373 20.2618h-.0602v-20.2618h6.0084v-1.5583h-22.1439v1.5583h6.0085v44.0544h-6.0085v1.5583h22.1439z"/><path d="m402.8051 28.8352v17.8221h-6.016v1.5583h22.2117v-1.5583h-6.0762v-20.3142l12.4838-23.7402h5.8124v-1.5583h-13.1311v1.5583h5.4738l-11.5048 21.8202-12.7547-21.8202h4.9242v-1.5583h-21.6846v1.5583h5.233z"/><path d="m478.7276 14.3285c-1.4306-3.0119-3.3281-5.602-5.6245-7.71-2.304-2.1084-4.9846-3.7573-7.9434-4.8943-2.9743-1.1442-6.0085-1.7242-9.0353-1.7242-2.8083 0-5.7373.5873-8.6812 1.7541-2.9366 1.1521-5.632 2.8387-8.0038 4.9921-2.3794 2.1535-4.3444 4.7812-5.8577 7.8078-1.5209 3.0344-2.2891 6.4751-2.2891 10.2099 0 3.426.6928 6.6635 2.0556 9.6075s3.1999 5.5418 5.4662 7.71c2.2589 2.176 4.9168 3.9076 7.9059 5.1576 2.9892 1.25 6.1514 1.8901 9.4041 1.8901 3.2904 0 6.4678-.6553 9.4418-1.9504 2.9591-1.295 5.6093-3.0868 7.8683-5.3308 2.2587-2.2435 4.0884-4.8713 5.4285-7.8377 1.3479-2.9669 2.0255-6.1443 2.0255-9.442-.0001-3.7798-.7303-7.2205-2.1609-10.2397m-15.2019 31.4951c-1.7693 1.1595-4.2541 1.7468-7.4014 1.7468-2.3943 0-4.4724-.3465-6.1967-1.0239-1.679-.6627-3.0795-1.8672-4.1562-3.5616-1.0767-1.7164-1.8823-4.0735-2.4019-7.0096-.5119-2.9517-.7755-6.7238-.7755-11.2113 0-3.426.1505-6.6033.4517-9.4494.2937-2.8235.9262-5.2932 1.8598-7.3409.9336-2.0179 2.2964-3.6144 4.0657-4.7362 1.7771-1.1144 4.179-1.6792 7.153-1.6792 3.1774 0 5.6996.6103 7.4992 1.8074 1.7845 1.2045 3.1473 2.846 4.0358 4.8938.8883 2.0708 1.438 4.4949 1.6337 7.2132.1958 2.756.2936 5.6847.2936 8.704 0 3.3506-.1204 6.5206-.3615 9.4117-.2332 2.846-.8132 5.3382-1.7015 7.4163-.8882 2.0405-2.2358 3.6668-3.9978 4.8189"/><path d="m229.8883 58.2073h3.7948v22.7613h-3.7948z"/><path d="m245.0343 58.2436-3.7722-.0377v22.7686h3.7948v-14.4939l7.5895 14.4939h3.795v-22.7686h-3.795v14.5844z"/><path d="m271.8067 80.9709v-18.9742h5.6922v-3.7871h-15.1793v3.7871h5.6923v18.9742z"/><path d="m298.7329 62.0004v-3.795h-15.1717v22.7691h15.1717v-3.795h-11.3843v-5.0748h9.2083v-3.7946h-9.2083v-6.3097z"/><path d="m321.8437 61.9995-3.7948-3.795h-12.0093v22.7687h3.8024v-9.4871h3.8625l3.4108 9.4871h4.111l-3.3355-9.4871 3.9529-3.7945zm-3.7947 4.1259-1.5133 1.5662h-6.6936v-5.6921h6.6332l1.5738 1.5735v2.5524z"/><path d="m332.9826 66.4783 7.5896 14.4939h3.7948v-22.7686h-3.7948v14.5844l-7.6197-14.5467-3.7646-.0377v22.7686h3.7947z"/><path d="m356.0489 58.2073-5.4965 22.7613h3.8926l.9564-3.795h5.391l.9485 3.795h3.9078l-5.5039-22.7613zm.3162 15.1791 1.7318-7.0248 1.7769 7.0248z"/><path d="m377.7838 80.9709v-18.9742h5.6846v-3.7871h-15.1717v3.7871h5.6923v18.9742z"/><path d="m389.5408 58.2073h3.8024v22.7613h-3.8024z"/><path d="m400.3033 62.0004v15.1791l3.7948 3.795h7.4388l3.9455-3.795v-15.1791l-3.7948-3.795h-7.5896zm9.8182 0 1.5662 1.5735v12.0472l-1.5135 1.5584h-4.4949l-1.5811-1.5735v-12.0321l1.5811-1.5735z"/><path d="m422.8861 58.2063v22.7613h3.7948v-14.4865l7.5895 14.4865h3.7948v-22.7613h-3.7948v14.5845l-7.6196-14.5541z"/><path d="m454.1689 77.1805.9639 3.7872h3.9002l-5.5041-22.7613h-4.0884l-5.5038 22.7613h3.9002l.9561-3.7872zm-2.6803-10.8198 1.7693 7.0248h-3.5085z"/><path d="m464.7681 58.2063v22.7613h12.9806v-3.7871h-9.1934v-18.9742z"/><path d="m229.8506 181.1796h2.7633c1.2574 0 1.9726.5423 1.9726 1.551v17.9351c0 1.1746-.625 2.1006-2.1307 2.1006h-2.6052v3.102h15.3448v-3.102h-2.093c-1.9352 0-2.6505-.5873-2.6505-2.1833v-7.5822h1.7242c2.5901 0 3.727 1.1291 3.727 4.1034v1.5965h3.1022v-14.0049h-3.1022v1.0845c0 2.1457-.798 4.1185-3.4784 4.1185h-1.9729v-8.7191h4.6985c5.6996 0 7.2056 1.4683 8.0489 8.3423h3.102v-11.4443h-26.4506z"/><path d="m263.5859 181.1796h1.8823c2.1836 0 2.6804.5423 2.6804 2.3492v16.3009c0 2.5147-.7904 2.9366-2.2134 2.9366h-2.3492v3.102h27.6629v-11.7384h-3.1098c-.3688 6.2421-1.8823 8.6364-5.7373 8.6364h-8.3802v-9.7655h2.2213c2.5149 0 3.6443 1.295 3.6443 4.6907v1.0092h3.0944v-14.0049h-3.0944v.5574c0 3.3883-1.1294 4.6456-3.6443 4.6456h-2.2213v-8.7191h7.3713c5.6169 0 6.1215 2.2587 6.7462 7.9586h3.1098v-11.0606h-27.6629v3.1019z"/><path d="m305.4388 184.7683c0-2.0106 1.7619-3.727 5.4512-3.727 5.9558 0 9.3892 3.0119 9.9765 8.6286h3.102v-11.3542h-2.8536l-.9187 2.477c-2.4319-1.9802-5.5716-3.3129-8.7189-3.3129-5.8729 0-11.0606 2.176-11.0606 8.8395 0 11.6929 18.6878 7.0022 18.6878 13.2894 0 2.7633-1.5887 3.7647-5.4889 3.7647-4.9843 0-7.6348-3.2601-8.6362-7.8304h-3.0193v10.556h2.432l1.3856-2.1006c2.093 1.4756 4.7734 2.9361 7.9659 2.9361 5.0597 0 10.383-2.5069 10.383-8.4177 0-11.9866-18.6878-6.5804-18.6878-13.7485"/><path d="m332.4238 189.5215h3.102v-1.8897c0-4.4425 2.3116-6.4526 6.9648-6.4526v20.0807c0 1.0841-.4216 1.5055-1.7242 1.5055h-3.1774v3.1024h15.6761v-3.1024h-3.1925c-1.295 0-1.7166-.4214-1.7166-1.5055v-20.0807c4.6456 0 6.9572 2.0101 6.9572 6.4526v1.8897h3.0944v-11.4448h-25.9837v11.4448z"/><path d="m366.6221 181.1796h2.3492c1.6264 0 2.1383.8359 2.1383 1.8897v18.191c0 1.0841-.6703 1.506-2.3943 1.506h-2.0933v3.102h14.8404v-3.102h-2.4395c-1.423 0-2.048-.7155-2.048-2.0556v-17.5205c0-1.5887 1.295-2.0106 2.6429-2.0106h1.8447v-3.102h-14.8404z"/><path d="m418.4158 181.1796v-3.102h-13.4098v3.102h2.5599c1.2123 0 2.003.2863 2.003 1.0464 0 .5046-.1656.9187-.4067 1.6342l-5.6619 15.2467h-.0829l-5.2029-15.2467c-.2031-.5423-.4141-1.0469-.4141-1.7169 0-.6774.5423-.9637 1.7996-.9637h2.605v-3.102h-14.8402v3.102h1.167c1.5963 0 2.477.2863 3.1473 2.221l8.2145 22.4677h5.7449l8.2145-22.0913c.7527-2.0551 1.6261-2.5974 3.599-2.5974z"/><path d="m442.2184 200.5007-8.3802-22.4226h-5.8729l-7.9962 22.4226c-.7229 1.9651-2.1836 2.2661-4.4046 2.2661v3.1025h13.0709v-3.1025h-3.2677c-.7982 0-1.3403-.1728-1.3403-.7601 0-.3768.0903-.625.1657-.881l1.3853-4.1939h9.5172l1.378 4.1939c.0827.256.1657.6323.1657 1.0087 0 .4219-.3238.6324-1.2953.6324h-3.3127v3.1025h14.5842v-3.1025c-2.2137 0-3.6443-.301-4.3971-2.2661m-15.4277-6.6635 3.3582-10.1042h.0827l3.6443 10.1042z"/><path d="m469.1576 202.8008h-6.8292v-19.7342c0-1.4609.625-1.8902 2.4772-1.8902h2.3341v-3.102h-15.3296v3.102h2.4393c1.6641 0 2.2061.5423 2.2061 1.807v17.9351c0 1.4232-.7904 1.8447-1.9651 1.8447h-2.6804v3.102h26.187v-11.9415h-3.0946c-.3763 6.498-1.4305 8.8771-5.7448 8.8771"/><path d="m243.4314 137.9268h28.6416v-12.6419h-28.6416v-21.5491h28.6416v-12.6267h-42.4354v76.6942h13.7938z"/><path d="m298.4356 91.1031h13.7938v76.7016h-13.7938z"/><path d="m354.1001 91.1031h-13.7938v76.7016h46.8478v-12.8528h-33.054z"/><path d="m442.2906 120.2794-23.6046-29.1763h-12.3708v76.7016h13.7938v-54.1062l20.4047 25.3592h3.5161l20.1411-25.3215v54.0685h13.8464v-76.7016h-12.2577z"/></svg>