<?xml version="1.0" encoding="UTF-8" standalone="no"?>
<!-- Created with Inkscape (http://www.inkscape.org/) -->

<svg
   xmlns:dc="http://purl.org/dc/elements/1.1/"
   xmlns:cc="http://creativecommons.org/ns#"
   xmlns:rdf="http://www.w3.org/1999/02/22-rdf-syntax-ns#"
   xmlns:svg="http://www.w3.org/2000/svg"
   xmlns="http://www.w3.org/2000/svg"
   xmlns:sodipodi="http://sodipodi.sourceforge.net/DTD/sodipodi-0.dtd"
   xmlns:inkscape="http://www.inkscape.org/namespaces/inkscape"
   width="83.070671"
   height="121"
   viewBox="0 0 21.979114 32.014583"
   version="1.1"
   id="svg4968"
   inkscape:version="0.92.0 r15299"
   sodipodi:docname="tokyo marathon.svg">
  <defs
     id="defs4962">
    <clipPath
       id="clipPath2504"
       clipPathUnits="userSpaceOnUse">
      <path
         inkscape:connector-curvature="0"
         id="path2502"
         d="m 413.456,646.339 c -16.999,0 -30.779,-13.78 -30.779,-30.777 v 0 c 0,-16.997 13.78,-30.776 30.779,-30.776 v 0 c 16.994,0 30.774,13.779 30.774,30.776 v 0 c 0,16.997 -13.78,30.777 -30.774,30.777 z" />
    </clipPath>
    <clipPath
       id="clipPath2512"
       clipPathUnits="userSpaceOnUse">
      <path
         inkscape:connector-curvature="0"
         id="path2510"
         d="M 361.449,667.566 H 465.73 V 563.284 H 361.449 Z" />
    </clipPath>
    <clipPath
       id="clipPath2516"
       clipPathUnits="userSpaceOnUse">
      <path
         inkscape:connector-curvature="0"
         id="path2514"
         d="M 361.449,563.284 H 465.73 V 667.566 H 361.449 Z" />
    </clipPath>
    <clipPath
       id="clipPath2574"
       clipPathUnits="userSpaceOnUse">
      <path
         inkscape:connector-curvature="0"
         id="path2572"
         d="M 361.397,637.126 H 465.51 V 593.687 H 361.397 Z" />
    </clipPath>
    <clipPath
       id="clipPath2578"
       clipPathUnits="userSpaceOnUse">
      <path
         inkscape:connector-curvature="0"
         id="path2576"
         d="M 361.397,593.687 H 465.51 v 43.439 H 361.397 Z" />
    </clipPath>
    <clipPath
       id="clipPath2636"
       clipPathUnits="userSpaceOnUse">
      <path
         inkscape:connector-curvature="0"
         id="path2634"
         d="M 361.396,667.689 H 465.58 V 563.504 H 361.396 Z" />
    </clipPath>
    <clipPath
       id="clipPath2640"
       clipPathUnits="userSpaceOnUse">
      <path
         inkscape:connector-curvature="0"
         id="path2638"
         d="M 361.396,563.504 H 465.58 V 667.689 H 361.396 Z" />
    </clipPath>
    <clipPath
       id="clipPath2698"
       clipPathUnits="userSpaceOnUse">
      <path
         inkscape:connector-curvature="0"
         id="path2696"
         d="m 391.78,667.618 h 43.65 V 563.504 h -43.65 z" />
    </clipPath>
    <clipPath
       id="clipPath2702"
       clipPathUnits="userSpaceOnUse">
      <path
         inkscape:connector-curvature="0"
         id="path2700"
         d="m 391.78,563.504 h 43.65 v 104.114 h -43.65 z" />
    </clipPath>
    <clipPath
       id="clipPath2444"
       clipPathUnits="userSpaceOnUse">
      <path
         inkscape:connector-curvature="0"
         id="path2442"
         d="m 382.677,556.339 h 61.553 v 90 h -61.553 z" />
    </clipPath>
  </defs>
  <sodipodi:namedview
     id="base"
     pagecolor="#ffffff"
     bordercolor="#666666"
     borderopacity="1.0"
     inkscape:pageopacity="0.0"
     inkscape:pageshadow="2"
     inkscape:zoom="4.4416668"
     inkscape:cx="41.035332"
     inkscape:cy="59.999999"
     inkscape:document-units="mm"
     inkscape:current-layer="layer1"
     showgrid="false"
     fit-margin-top="0"
     fit-margin-left="0"
     fit-margin-right="0"
     fit-margin-bottom="0"
     units="px"
     inkscape:window-width="1280"
     inkscape:window-height="744"
     inkscape:window-x="-4"
     inkscape:window-y="-4"
     inkscape:window-maximized="1" />
  <metadata
     id="metadata4965">
    <rdf:RDF>
      <cc:Work
         rdf:about="">
        <dc:format>image/svg+xml</dc:format>
        <dc:type
           rdf:resource="http://purl.org/dc/dcmitype/StillImage" />
        <dc:title></dc:title>
      </cc:Work>
    </rdf:RDF>
  </metadata>
  <g
     inkscape:label="Layer 1"
     inkscape:groupmode="layer"
     id="layer1"
     transform="translate(-1.6159487,-132.69375)">
    <g
       id="g2438"
       transform="matrix(0.35277777,0,0,-0.35277777,-133.2517,360.84007)">
      <g
         id="g2440"
         clip-path="url(#clipPath2444)">
        <g
           id="g2446"
           transform="translate(419.279,563.4048)">
          <path
             d="m 0,0 h -5.231 c -0.122,0 -0.222,-0.099 -0.222,-0.223 v -0.808 c 0,-0.124 0.1,-0.224 0.222,-0.224 h 1.935 v -5.49 c 0,-0.119 0.104,-0.224 0.223,-0.224 h 0.917 c 0.119,0 0.224,0.105 0.224,0.224 v 5.49 H 0 c 0.123,0 0.224,0.1 0.224,0.224 v 0.808 C 0.224,-0.097 0.126,0 0,0"
             style="fill:#231f20;fill-opacity:1;fill-rule:nonzero;stroke:none"
             id="path2448"
             inkscape:connector-curvature="0" />
        </g>
        <g
           id="g2450"
           transform="translate(398.0834,558.8646)">
          <path
             d="m 0,0 h -1.866 l 0.923,2.073 z m -0.668,4.511 c -0.03,0.06 -0.08,0.128 -0.201,0.128 h -0.097 c -0.089,0 -0.159,-0.044 -0.202,-0.129 l -3.064,-6.631 c -0.034,-0.071 -0.031,-0.148 0.008,-0.209 0.039,-0.062 0.11,-0.098 0.193,-0.098 h 0.858 c 0.21,0 0.293,0.155 0.318,0.219 l 0.474,1.042 H 0.516 L 0.99,-2.21 c 0.067,-0.134 0.144,-0.218 0.319,-0.218 h 0.855 c 0.084,0 0.154,0.036 0.194,0.097 0.039,0.061 0.043,0.137 0.009,0.21 z"
             style="fill:#231f20;fill-opacity:1;fill-rule:nonzero;stroke:none"
             id="path2452"
             inkscape:connector-curvature="0" />
        </g>
        <g
           id="g2454"
           transform="translate(405.2948,561.2307)">
          <path
             d="m 0,0 c 0,-0.525 -0.43,-0.967 -0.938,-0.967 h -1.57 v 1.886 h 1.57 C -0.43,0.919 0,0.498 0,0 m 1.353,0.02 c 0,1.187 -0.98,2.154 -2.186,2.154 h -2.815 c -0.124,0 -0.224,-0.1 -0.224,-0.222 V -4.57 c 0,-0.123 0.1,-0.224 0.224,-0.224 h 0.905 c 0.12,0 0.223,0.105 0.223,0.224 v 2.475 h 1.036 l 1.3,-2.59 c 0.012,-0.025 0.063,-0.109 0.189,-0.109 h 1.036 c 0.087,0 0.16,0.039 0.2,0.105 0.041,0.069 0.041,0.158 0,0.234 l -1.332,2.467 c 0.892,0.373 1.444,1.138 1.444,2.008"
             style="fill:#231f20;fill-opacity:1;fill-rule:nonzero;stroke:none"
             id="path2456"
             inkscape:connector-curvature="0" />
        </g>
        <g
           id="g2458"
           transform="translate(411.6234,558.8646)">
          <path
             d="m 0,0 h -1.867 l 0.924,2.073 z m -0.67,4.512 c -0.034,0.063 -0.083,0.127 -0.2,0.127 h -0.099 c -0.09,0 -0.16,-0.045 -0.2,-0.129 l -3.065,-6.631 c -0.033,-0.071 -0.03,-0.148 0.009,-0.209 0.039,-0.062 0.109,-0.098 0.191,-0.098 h 0.858 c 0.147,0 0.264,0.08 0.321,0.219 l 0.472,1.042 H 0.516 L 0.987,-2.21 c 0.067,-0.134 0.144,-0.218 0.319,-0.218 h 0.857 c 0.083,0 0.154,0.036 0.193,0.098 0.039,0.061 0.042,0.138 0.009,0.209 z"
             style="fill:#231f20;fill-opacity:1;fill-rule:nonzero;stroke:none"
             id="path2460"
             inkscape:connector-curvature="0" />
        </g>
        <g
           id="g2462"
           transform="translate(426.0914,563.4048)">
          <path
             d="M 0,0 H -0.906 C -1.03,0 -1.13,-0.099 -1.13,-0.223 v -2.574 h -3.138 v 2.574 C -4.268,-0.099 -4.369,0 -4.493,0 h -0.914 c -0.119,0 -0.224,-0.104 -0.224,-0.223 v -6.521 c 0,-0.119 0.105,-0.225 0.224,-0.225 h 0.914 c 0.124,0 0.225,0.102 0.225,0.225 v 2.681 h 3.138 v -2.681 c 0,-0.123 0.1,-0.225 0.224,-0.225 H 0 c 0.119,0 0.225,0.106 0.225,0.225 v 6.521 C 0.225,-0.104 0.119,0 0,0"
             style="fill:#231f20;fill-opacity:1;fill-rule:nonzero;stroke:none"
             id="path2464"
             inkscape:connector-curvature="0" />
        </g>
        <g
           id="g2466"
           transform="translate(431.0291,562.1495)">
          <path
             d="m 0,0 c 1.207,0 2.228,-1.025 2.228,-2.239 0,-1.223 -0.999,-2.218 -2.228,-2.218 -1.224,0 -2.219,0.995 -2.219,2.218 C -2.219,-1.005 -1.224,0 0,0 m 0,1.354 c -1.97,0 -3.573,-1.611 -3.573,-3.593 0,-2.003 1.569,-3.572 3.573,-3.572 1.976,0 3.583,1.603 3.583,3.572 0,1.982 -1.607,3.593 -3.583,3.593"
             style="fill:#231f20;fill-opacity:1;fill-rule:nonzero;stroke:none"
             id="path2468"
             inkscape:connector-curvature="0" />
        </g>
        <g
           id="g2470"
           transform="translate(441.337,563.4048)">
          <path
             d="M 0,0 H -0.906 C -1.031,0 -1.13,-0.097 -1.13,-0.223 V -4.21 l -4.046,4.297 -0.011,0.011 h -0.261 c -0.121,0 -0.223,-0.097 -0.223,-0.212 v -6.63 c 0,-0.119 0.104,-0.225 0.223,-0.225 h 0.896 c 0.123,0 0.224,0.102 0.224,0.225 v 4.151 l 4.064,-4.462 0.011,-0.011 H 0 c 0.121,0 0.223,0.097 0.223,0.213 v 6.63 C 0.223,-0.104 0.119,0 0,0"
             style="fill:#231f20;fill-opacity:1;fill-rule:nonzero;stroke:none"
             id="path2472"
             inkscape:connector-curvature="0" />
        </g>
        <g
           id="g2474"
           transform="translate(392.7132,563.5431)">
          <path
             d="m 0,0 h -0.094 c -0.101,0 -0.189,-0.024 -0.279,-0.142 -0.075,-0.098 -2.994,-3.86 -3.196,-4.121 h -0.005 c -0.204,0.264 -3.12,4.024 -3.194,4.122 C -6.86,-0.024 -6.947,0 -7.049,0 h -0.094 c -0.121,0 -0.224,-0.098 -0.224,-0.214 v -6.63 c 0,-0.119 0.105,-0.223 0.224,-0.223 h 0.898 c 0.123,0 0.224,0.1 0.224,0.223 v 3.774 c 0.342,-0.443 2.04,-2.64 2.081,-2.689 0.072,-0.085 0.156,-0.163 0.275,-0.163 h 0.187 c 0.12,0 0.204,0.078 0.277,0.163 0.04,0.049 1.742,2.253 2.081,2.691 v -3.776 c 0,-0.123 0.1,-0.223 0.223,-0.223 H 0 c 0.119,0 0.224,0.104 0.224,0.223 v 6.63 C 0.224,-0.098 0.121,0 0,0"
             style="fill:#231f20;fill-opacity:1;fill-rule:nonzero;stroke:none"
             id="path2476"
             inkscape:connector-curvature="0" />
        </g>
        <g
           id="g2478"
           transform="translate(387.9991,577.0948)">
          <path
             d="m 0,0 h -3.398 c -0.188,0 -0.323,0.154 -0.323,0.323 v 1.394 c 0,0.17 0.135,0.322 0.323,0.322 h 9.024 c 0.185,0 0.322,-0.152 0.322,-0.322 V 0.323 C 5.948,0.154 5.811,0 5.626,0 H 2.228 v -9.535 c 0,-0.169 -0.155,-0.322 -0.325,-0.322 H 0.323 C 0.153,-9.857 0,-9.704 0,-9.535 Z"
             style="fill:#231f20;fill-opacity:1;fill-rule:nonzero;stroke:none"
             id="path2480"
             inkscape:connector-curvature="0" />
        </g>
        <g
           id="g2482"
           transform="translate(401.0168,569.2776)">
          <path
             d="M 0,0 C 2.141,0 3.908,1.75 3.908,3.892 3.908,6.031 2.141,7.816 0,7.816 -2.139,7.816 -3.89,6.031 -3.89,3.892 -3.89,1.75 -2.139,0 0,0 m 0,10.022 c 3.399,0 6.116,-2.733 6.116,-6.13 0,-3.4 -2.717,-6.102 -6.116,-6.102 -3.397,0 -6.098,2.702 -6.098,6.102 0,3.397 2.701,6.13 6.098,6.13"
             style="fill:#231f20;fill-opacity:1;fill-rule:nonzero;stroke:none"
             id="path2484"
             inkscape:connector-curvature="0" />
        </g>
        <g
           id="g2486"
           transform="translate(409.4011,578.7241)">
          <path
             d="M 0,0 C 0,0.22 0.17,0.407 0.408,0.407 H 1.904 C 2.123,0.407 2.31,0.22 2.31,0 v -4.587 l 4.281,4.824 c 0.067,0.086 0.169,0.17 0.323,0.17 h 1.698 c 0.323,0 0.492,-0.358 0.272,-0.612 l -4.433,-4.994 4.756,-5.693 c 0.17,-0.221 0.034,-0.593 -0.307,-0.593 H 7.049 c -0.169,0 -0.271,0.067 -0.305,0.117 L 2.31,-5.895 v -5.184 c 0,-0.221 -0.187,-0.406 -0.406,-0.406 H 0.408 C 0.17,-11.485 0,-11.3 0,-11.079 Z"
             style="fill:#231f20;fill-opacity:1;fill-rule:nonzero;stroke:none"
             id="path2488"
             inkscape:connector-curvature="0" />
        </g>
        <g
           id="g2490"
           transform="translate(423.7303,572.9651)">
          <path
             d="m 0,0 -3.874,5.673 c -0.135,0.221 0,0.493 0.273,0.493 h 1.731 c 0.136,0 0.22,-0.084 0.273,-0.152 L 1.121,2.106 3.839,6.014 c 0.05,0.068 0.137,0.152 0.27,0.152 h 1.752 c 0.271,0 0.408,-0.272 0.271,-0.493 L 2.207,0.016 v -5.422 c 0,-0.168 -0.152,-0.32 -0.322,-0.32 H 0.322 C 0.136,-5.726 0,-5.574 0,-5.406 Z"
             style="fill:#231f20;fill-opacity:1;fill-rule:nonzero;stroke:none"
             id="path2492"
             inkscape:connector-curvature="0" />
        </g>
        <g
           id="g2494"
           transform="translate(436.5132,569.2776)">
          <path
             d="M 0,0 C 2.141,0 3.908,1.75 3.908,3.892 3.908,6.031 2.141,7.816 0,7.816 -2.14,7.816 -3.891,6.031 -3.891,3.892 -3.891,1.75 -2.14,0 0,0 m 0,10.022 c 3.397,0 6.116,-2.733 6.116,-6.13 0,-3.4 -2.719,-6.102 -6.116,-6.102 -3.398,0 -6.099,2.702 -6.099,6.102 0,3.397 2.701,6.13 6.099,6.13"
             style="fill:#231f20;fill-opacity:1;fill-rule:nonzero;stroke:none"
             id="path2496"
             inkscape:connector-curvature="0" />
        </g>
      </g>
    </g>
    <g
       id="g2498"
       transform="matrix(0.35277777,0,0,-0.35277777,-133.2517,360.84007)">
      <g
         id="g2500"
         clip-path="url(#clipPath2504)">
        <g
           id="g2506">
          <g
             id="g2508" />
          <g
             id="g2566">
            <g
               clip-path="url(#clipPath2512)"
               id="g2564">
              <g
                 id="g2562">
                <g
                   id="g2560">
                  <g
                     clip-path="url(#clipPath2516)"
                     id="g2558">
                    <g
                       transform="translate(455.278,647.3568)"
                       id="g2520">
                      <path
                         d="M 0,0 -73.62,-73.618"
                         style="fill:none;stroke:#83ac33;stroke-width:1.81299996;stroke-linecap:butt;stroke-linejoin:miter;stroke-miterlimit:4;stroke-dasharray:none;stroke-opacity:1"
                         id="path2518"
                         inkscape:connector-curvature="0" />
                    </g>
                    <g
                       transform="translate(458.6174,644.0149)"
                       id="g2524">
                      <path
                         d="M 0,0 -73.617,-73.619"
                         style="fill:none;stroke:#c7e44e;stroke-width:0.58600003;stroke-linecap:butt;stroke-linejoin:miter;stroke-miterlimit:4;stroke-dasharray:none;stroke-opacity:1"
                         id="path2522"
                         inkscape:connector-curvature="0" />
                    </g>
                    <g
                       transform="translate(451.9335,650.6988)"
                       id="g2528">
                      <path
                         d="M 0,0 -73.618,-73.618"
                         style="fill:none;stroke:#e03522;stroke-width:0.88;stroke-linecap:butt;stroke-linejoin:miter;stroke-miterlimit:4;stroke-dasharray:none;stroke-opacity:1"
                         id="path2526"
                         inkscape:connector-curvature="0" />
                    </g>
                    <g
                       transform="translate(461.9604,640.6725)"
                       id="g2532">
                      <path
                         d="M 0,0 -73.617,-73.619"
                         style="fill:none;stroke:#13a6e7;stroke-width:1.75999999;stroke-linecap:butt;stroke-linejoin:miter;stroke-miterlimit:4;stroke-dasharray:none;stroke-opacity:1"
                         id="path2530"
                         inkscape:connector-curvature="0" />
                    </g>
                    <g
                       transform="translate(465.3023,637.3285)"
                       id="g2536">
                      <path
                         d="M 0,0 -73.618,-73.617"
                         style="fill:none;stroke:#bfbbb7;stroke-width:1.20899999;stroke-linecap:butt;stroke-linejoin:miter;stroke-miterlimit:4;stroke-dasharray:none;stroke-opacity:1"
                         id="path2534"
                         inkscape:connector-curvature="0" />
                    </g>
                    <g
                       transform="translate(448.5926,654.0428)"
                       id="g2540">
                      <path
                         d="M 0,0 -73.619,-73.619"
                         style="fill:none;stroke:#109d9b;stroke-width:1.65199995;stroke-linecap:butt;stroke-linejoin:miter;stroke-miterlimit:4;stroke-dasharray:none;stroke-opacity:1"
                         id="path2538"
                         inkscape:connector-curvature="0" />
                    </g>
                    <g
                       transform="translate(445.2486,657.3842)"
                       id="g2544">
                      <path
                         d="M 0,0 -73.617,-73.619"
                         style="fill:none;stroke:#fdda88;stroke-width:1.17400002;stroke-linecap:butt;stroke-linejoin:miter;stroke-miterlimit:4;stroke-dasharray:none;stroke-opacity:1"
                         id="path2542"
                         inkscape:connector-curvature="0" />
                    </g>
                    <g
                       transform="translate(438.5648,664.0691)"
                       id="g2548">
                      <path
                         d="M 0,0 -73.618,-73.619"
                         style="fill:none;stroke:#f5783f;stroke-width:2.49799991;stroke-linecap:butt;stroke-linejoin:miter;stroke-miterlimit:4;stroke-dasharray:none;stroke-opacity:1"
                         id="path2546"
                         inkscape:connector-curvature="0" />
                    </g>
                    <g
                       transform="translate(441.9062,660.7256)"
                       id="g2552">
                      <path
                         d="M 0,0 -73.617,-73.618"
                         style="fill:none;stroke:#71c32d;stroke-width:1.28999996;stroke-linecap:butt;stroke-linejoin:miter;stroke-miterlimit:4;stroke-dasharray:none;stroke-opacity:1"
                         id="path2550"
                         inkscape:connector-curvature="0" />
                    </g>
                    <g
                       transform="translate(435.2208,667.4111)"
                       id="g2556">
                      <path
                         d="M 0,0 -73.616,-73.619"
                         style="fill:none;stroke:#997776;stroke-width:0.44;stroke-linecap:butt;stroke-linejoin:miter;stroke-miterlimit:4;stroke-dasharray:none;stroke-opacity:1"
                         id="path2554"
                         inkscape:connector-curvature="0" />
                    </g>
                  </g>
                </g>
              </g>
            </g>
          </g>
        </g>
        <g
           id="g2568">
          <g
             id="g2570" />
          <g
             id="g2628">
            <g
               clip-path="url(#clipPath2574)"
               id="g2626">
              <g
                 id="g2624">
                <g
                   id="g2622">
                  <g
                     clip-path="url(#clipPath2578)"
                     id="g2620">
                    <g
                       transform="translate(465.5101,636.8325)"
                       id="g2582">
                      <path
                         d="M 0,0 H -104.113"
                         style="fill:none;stroke:#c61f32;stroke-width:0.58600003;stroke-linecap:butt;stroke-linejoin:miter;stroke-miterlimit:4;stroke-dasharray:none;stroke-opacity:1"
                         id="path2580"
                         inkscape:connector-curvature="0" />
                    </g>
                    <g
                       transform="translate(465.5101,617.9248)"
                       id="g2586">
                      <path
                         d="M 0,0 H -104.113"
                         style="fill:none;stroke:#ed0e57;stroke-width:1.57200003;stroke-linecap:butt;stroke-linejoin:miter;stroke-miterlimit:4;stroke-dasharray:none;stroke-opacity:1"
                         id="path2584"
                         inkscape:connector-curvature="0" />
                    </g>
                    <g
                       transform="translate(465.5101,594.2913)"
                       id="g2590">
                      <path
                         d="M 0,0 H -104.113"
                         style="fill:none;stroke:#638d3b;stroke-width:1.20899999;stroke-linecap:butt;stroke-linejoin:miter;stroke-miterlimit:4;stroke-dasharray:none;stroke-opacity:1"
                         id="path2588"
                         inkscape:connector-curvature="0" />
                    </g>
                    <g
                       transform="translate(465.5101,603.7444)"
                       id="g2594">
                      <path
                         d="M 0,0 H -104.113"
                         style="fill:none;stroke:#c9eaba;stroke-width:1.87600005;stroke-linecap:butt;stroke-linejoin:miter;stroke-miterlimit:4;stroke-dasharray:none;stroke-opacity:1"
                         id="path2592"
                         inkscape:connector-curvature="0" />
                    </g>
                    <g
                       transform="translate(465.5101,627.3784)"
                       id="g2598">
                      <path
                         d="M 0,0 H -104.113"
                         style="fill:none;stroke:#47c1bc;stroke-width:1.45099998;stroke-linecap:butt;stroke-linejoin:miter;stroke-miterlimit:4;stroke-dasharray:none;stroke-opacity:1"
                         id="path2596"
                         inkscape:connector-curvature="0" />
                    </g>
                    <g
                       transform="translate(465.5101,632.1052)"
                       id="g2602">
                      <path
                         d="M 0,0 H -104.113"
                         style="fill:none;stroke:#fdda04;stroke-width:2.41799998;stroke-linecap:butt;stroke-linejoin:miter;stroke-miterlimit:4;stroke-dasharray:none;stroke-opacity:1"
                         id="path2600"
                         inkscape:connector-curvature="0" />
                    </g>
                    <g
                       transform="translate(465.5101,613.1985)"
                       id="g2606">
                      <path
                         d="M 0,0 H -104.113"
                         style="fill:none;stroke:#00acee;stroke-width:1.17400002;stroke-linecap:butt;stroke-linejoin:miter;stroke-miterlimit:4;stroke-dasharray:none;stroke-opacity:1"
                         id="path2604"
                         inkscape:connector-curvature="0" />
                    </g>
                    <g
                       transform="translate(465.5101,608.4717)"
                       id="g2610">
                      <path
                         d="M 0,0 H -104.113"
                         style="fill:none;stroke:#c5ad02;stroke-width:0.88;stroke-linecap:butt;stroke-linejoin:miter;stroke-miterlimit:4;stroke-dasharray:none;stroke-opacity:1"
                         id="path2608"
                         inkscape:connector-curvature="0" />
                    </g>
                    <g
                       transform="translate(465.5101,622.6521)"
                       id="g2614">
                      <path
                         d="M 0,0 H -104.113"
                         style="fill:none;stroke:#b3d72a;stroke-width:2.41799998;stroke-linecap:butt;stroke-linejoin:miter;stroke-miterlimit:4;stroke-dasharray:none;stroke-opacity:1"
                         id="path2612"
                         inkscape:connector-curvature="0" />
                    </g>
                    <g
                       transform="translate(465.5101,599.0176)"
                       id="g2618">
                      <path
                         d="M 0,0 H -104.113"
                         style="fill:none;stroke:#ec935d;stroke-width:2.33699989;stroke-linecap:butt;stroke-linejoin:miter;stroke-miterlimit:4;stroke-dasharray:none;stroke-opacity:1"
                         id="path2616"
                         inkscape:connector-curvature="0" />
                    </g>
                  </g>
                </g>
              </g>
            </g>
          </g>
        </g>
        <g
           id="g2630">
          <g
             id="g2632" />
          <g
             id="g2690">
            <g
               clip-path="url(#clipPath2636)"
               id="g2688">
              <g
                 id="g2686">
                <g
                   id="g2684">
                  <g
                     clip-path="url(#clipPath2640)"
                     id="g2682">
                    <g
                       transform="translate(438.5642,567.0538)"
                       id="g2644">
                      <path
                         d="M 0,0 -73.619,73.619"
                         style="fill:none;stroke:#d5cfb6;stroke-width:1.75999999;stroke-linecap:butt;stroke-linejoin:miter;stroke-miterlimit:4;stroke-dasharray:none;stroke-opacity:1"
                         id="path2642"
                         inkscape:connector-curvature="0" />
                    </g>
                    <g
                       transform="translate(451.934,580.4246)"
                       id="g2648">
                      <path
                         d="M 0,0 -73.619,73.617"
                         style="fill:none;stroke:#ec008c;stroke-width:1.49100006;stroke-linecap:butt;stroke-linejoin:miter;stroke-miterlimit:4;stroke-dasharray:none;stroke-opacity:1"
                         id="path2646"
                         inkscape:connector-curvature="0" />
                    </g>
                    <g
                       transform="translate(455.2755,583.7665)"
                       id="g2652">
                      <path
                         d="M 0,0 -73.619,73.619"
                         style="fill:none;stroke:#f7af0c;stroke-width:1.81299996;stroke-linecap:butt;stroke-linejoin:miter;stroke-miterlimit:4;stroke-dasharray:none;stroke-opacity:1"
                         id="path2650"
                         inkscape:connector-curvature="0" />
                    </g>
                    <g
                       transform="translate(465.3029,593.7933)"
                       id="g2656">
                      <path
                         d="M 0,0 -73.618,73.618"
                         style="fill:none;stroke:#e3ea15;stroke-width:0.78600001;stroke-linecap:butt;stroke-linejoin:miter;stroke-miterlimit:4;stroke-dasharray:none;stroke-opacity:1"
                         id="path2654"
                         inkscape:connector-curvature="0" />
                    </g>
                    <g
                       transform="translate(461.9609,590.4504)"
                       id="g2660">
                      <path
                         d="M 0,0 -73.618,73.618"
                         style="fill:none;stroke:#d9e718;stroke-width:1.75999999;stroke-linecap:butt;stroke-linejoin:miter;stroke-miterlimit:4;stroke-dasharray:none;stroke-opacity:1"
                         id="path2658"
                         inkscape:connector-curvature="0" />
                    </g>
                    <g
                       transform="translate(458.6169,587.1079)"
                       id="g2664">
                      <path
                         d="M 0,0 -73.617,73.619"
                         style="fill:none;stroke:#b3d72a;stroke-width:0.58600003;stroke-linecap:butt;stroke-linejoin:miter;stroke-miterlimit:4;stroke-dasharray:none;stroke-opacity:1"
                         id="path2662"
                         inkscape:connector-curvature="0" />
                    </g>
                    <g
                       transform="translate(448.5916,577.0821)"
                       id="g2668">
                      <path
                         d="M 0,0 -73.618,73.617"
                         style="fill:none;stroke:#86bf62;stroke-width:1.17400002;stroke-linecap:butt;stroke-linejoin:miter;stroke-miterlimit:4;stroke-dasharray:none;stroke-opacity:1"
                         id="path2666"
                         inkscape:connector-curvature="0" />
                    </g>
                    <g
                       transform="translate(441.9047,570.3956)"
                       id="g2672">
                      <path
                         d="M 0,0 -73.615,73.62"
                         style="fill:none;stroke:#a59f89;stroke-width:1.28999996;stroke-linecap:butt;stroke-linejoin:miter;stroke-miterlimit:4;stroke-dasharray:none;stroke-opacity:1"
                         id="path2670"
                         inkscape:connector-curvature="0" />
                    </g>
                    <g
                       transform="translate(435.2208,563.7118)"
                       id="g2676">
                      <path
                         d="M 0,0 -73.617,73.618"
                         style="fill:none;stroke:#00accf;stroke-width:0.58600003;stroke-linecap:butt;stroke-linejoin:miter;stroke-miterlimit:4;stroke-dasharray:none;stroke-opacity:1"
                         id="path2674"
                         inkscape:connector-curvature="0" />
                    </g>
                    <g
                       transform="translate(445.2486,573.7391)"
                       id="g2680">
                      <path
                         d="M 0,0 -73.617,73.618"
                         style="fill:none;stroke:#70cff5;stroke-width:2.41799998;stroke-linecap:butt;stroke-linejoin:miter;stroke-miterlimit:4;stroke-dasharray:none;stroke-opacity:1"
                         id="path2678"
                         inkscape:connector-curvature="0" />
                    </g>
                  </g>
                </g>
              </g>
            </g>
          </g>
        </g>
        <g
           id="g2692">
          <g
             id="g2694" />
          <g
             id="g2752">
            <g
               clip-path="url(#clipPath2698)"
               id="g2750">
              <g
                 id="g2748">
                <g
                   id="g2746">
                  <g
                     clip-path="url(#clipPath2702)"
                     id="g2744">
                    <g
                       transform="translate(406.363,563.5045)"
                       id="g2706">
                      <path
                         d="M 0,0 V 104.114"
                         style="fill:none;stroke:#e42124;stroke-width:2.29699993;stroke-linecap:butt;stroke-linejoin:miter;stroke-miterlimit:4;stroke-dasharray:none;stroke-opacity:1"
                         id="path2704"
                         inkscape:connector-curvature="0" />
                    </g>
                    <g
                       transform="translate(392.1831,563.5045)"
                       id="g2710">
                      <path
                         d="M 0,0 V 104.114"
                         style="fill:none;stroke:#925d2b;stroke-width:0.80599999;stroke-linecap:butt;stroke-linejoin:miter;stroke-miterlimit:4;stroke-dasharray:none;stroke-opacity:1"
                         id="path2708"
                         inkscape:connector-curvature="0" />
                    </g>
                    <g
                       transform="translate(420.5439,563.5045)"
                       id="g2714">
                      <path
                         d="M 0,0 V 104.114"
                         style="fill:none;stroke:#f36327;stroke-width:1.46700001;stroke-linecap:butt;stroke-linejoin:miter;stroke-miterlimit:4;stroke-dasharray:none;stroke-opacity:1"
                         id="path2712"
                         inkscape:connector-curvature="0" />
                    </g>
                    <g
                       transform="translate(425.2702,563.5045)"
                       id="g2718">
                      <path
                         d="M 0,0 V 104.114"
                         style="fill:none;stroke:#32734c;stroke-width:1.16900003;stroke-linecap:butt;stroke-linejoin:miter;stroke-miterlimit:4;stroke-dasharray:none;stroke-opacity:1"
                         id="path2716"
                         inkscape:connector-curvature="0" />
                    </g>
                    <g
                       transform="translate(429.9969,563.5045)"
                       id="g2722">
                      <path
                         d="M 0,0 V 104.114"
                         style="fill:none;stroke:#fff200;stroke-width:1.75999999;stroke-linecap:butt;stroke-linejoin:miter;stroke-miterlimit:4;stroke-dasharray:none;stroke-opacity:1"
                         id="path2720"
                         inkscape:connector-curvature="0" />
                    </g>
                    <g
                       transform="translate(434.7243,563.5045)"
                       id="g2726">
                      <path
                         d="M 0,0 V 103.882"
                         style="fill:none;stroke:#bfaca6;stroke-width:1.40999997;stroke-linecap:butt;stroke-linejoin:miter;stroke-miterlimit:4;stroke-dasharray:none;stroke-opacity:1"
                         id="path2724"
                         inkscape:connector-curvature="0" />
                    </g>
                    <g
                       transform="translate(396.9095,563.5045)"
                       id="g2730">
                      <path
                         d="M 0,0 V 104.114"
                         style="fill:none;stroke:#97c8d3;stroke-width:2.0150001;stroke-linecap:butt;stroke-linejoin:miter;stroke-miterlimit:4;stroke-dasharray:none;stroke-opacity:1"
                         id="path2728"
                         inkscape:connector-curvature="0" />
                    </g>
                    <g
                       transform="translate(411.0898,563.5045)"
                       id="g2734">
                      <path
                         d="M 0,0 V 104.114"
                         style="fill:none;stroke:#d18120;stroke-width:0.88;stroke-linecap:butt;stroke-linejoin:miter;stroke-miterlimit:4;stroke-dasharray:none;stroke-opacity:1"
                         id="path2732"
                         inkscape:connector-curvature="0" />
                    </g>
                    <g
                       transform="translate(415.8171,563.5045)"
                       id="g2738">
                      <path
                         d="M 0,0 V 104.114"
                         style="fill:none;stroke:#cbc614;stroke-width:1.45099998;stroke-linecap:butt;stroke-linejoin:miter;stroke-miterlimit:4;stroke-dasharray:none;stroke-opacity:1"
                         id="path2736"
                         inkscape:connector-curvature="0" />
                    </g>
                    <g
                       transform="translate(401.6362,563.5045)"
                       id="g2742">
                      <path
                         d="M 0,0 V 104.114"
                         style="fill:none;stroke:#1c63b7;stroke-width:1.08800006;stroke-linecap:butt;stroke-linejoin:miter;stroke-miterlimit:4;stroke-dasharray:none;stroke-opacity:1"
                         id="path2740"
                         inkscape:connector-curvature="0" />
                    </g>
                  </g>
                </g>
              </g>
            </g>
          </g>
        </g>
      </g>
    </g>
  </g>
</svg>
