<svg height="204.205779" viewBox="0 0 1000 416.867" width="489.702107" xmlns="http://www.w3.org/2000/svg"><g clip-rule="evenodd" fill-rule="evenodd" transform="matrix(1.1604818 0 0 1.1604818 -73.073507 -.000597)"><path d="m871.954 105.949c-12.634 0-25.267-.037-37.901.039-1.937.012-2.675-.566-2.963-2.529-.682-4.666-1.961-9.193-4.133-13.423-4.583-8.926-12.099-13.142-21.921-13.056-8.277.073-15.388 3.159-20.454 9.945-8.424 11.285-4.656 26.968 7.998 33.781 6.021 3.242 12.642 4.432 19.264 5.592 9.593 1.679 19.199 3.274 28.515 6.236 14.979 4.762 28.142 12.665 39.749 23.164 20.294 18.357 34.938 40.482 43.843 66.377 1.248 3.63 1.211 3.643-2.681 3.643-23.654 0-47.309-.021-70.963.037-2.039.004-3.167-.433-4.084-2.513-2.306-5.229-6.377-9.076-10.943-12.4-7.768-5.653-16.548-8.532-26.04-9.334-17.567-1.485-34.528-5.171-50.191-13.627-11.021-5.951-21.791-12.316-30.807-21.152-13.568-13.301-21.609-29.563-24.411-48.244-4.738-31.598 4.09-59.43 24.462-83.725 12.062-14.383 26.934-24.772 44.974-30.38 12.743-3.96 25.779-5.148 39.037-3.913 22.728 2.117 43.185 10.089 61.177 24.159 12.298 9.617 20.813 22.161 27.218 36.233 6.141 13.489 9.964 27.646 11.992 42.307.349 2.521.156 2.778-2.43 2.78-12.77.006-25.538.003-38.307.003z" fill="#0b2fa9"/><path d="m325.897 60.674c0-14.785-.003-29.57.009-44.355 0-.651-.3-1.562.288-1.893.767-.432 1.301.46 1.835.902 37.319 30.988 74.629 61.986 111.937 92.988 16.225 13.483 32.455 26.96 48.639 40.493 1.467 1.227 2.416 1.237 3.938.012 30.983-24.943 62.019-49.823 93.035-74.724 24.888-19.979 49.765-39.973 74.654-59.949.55-.441 1.102-1.322 1.838-.962.735.36.357 1.34.358 2.039.017 29.1.005 58.199.038 87.297.003 1.54-.422 2.603-1.662 3.602-14.552 11.71-29.059 23.476-43.576 35.228-30.133 24.393-60.264 48.786-90.396 73.177-9.87 7.99-19.768 15.947-29.593 23.991-1.44 1.179-2.395 1.066-3.797-.036-18.483-14.541-37.011-29.024-55.524-43.526-24.014-18.811-48.023-37.628-72.039-56.439-12.536-9.819-25.057-19.659-37.643-29.415-1.699-1.317-2.409-2.68-2.394-4.881.106-14.517.055-29.034.055-43.549z" fill="#0b2fa9"/><path d="m336.071 4.597h316.105c-.041 1.067-.914 1.357-1.472 1.804-13.677 10.975-27.376 21.924-41.068 32.878-38.669 30.933-77.339 61.863-115.999 92.804-4.229 3.385-4.256 3.474-8.363-.011-17.675-14.994-35.316-30.027-52.972-45.044-16.428-13.971-32.859-27.939-49.288-41.91-15.354-13.058-30.707-26.118-46.06-39.177-.346-.295-.772-.534-.883-1.344z" fill="#f00"/><g fill="#0b2fa9"><path d="m729.595 246.872c11.491 0 22.983.03 34.475-.031 1.797-.01 2.574.455 2.853 2.386 2.621 18.233 17.204 31.367 35.544 32.441 5.756.337 11.419.207 16.993-1.193 13.215-3.318 21.631-11.883 26.308-24.431 1.105-2.968 2.011-6.011 2.329-9.155.191-1.879.896-2.484 2.773-2.473 11.29.072 22.58.035 33.87.035 12.163 0 24.327-.003 36.49.005 2.485.001 2.698.263 2.361 2.659-2.554 18.221-7.404 35.777-15.529 52.326-7.693 15.67-17.818 29.43-32.467 39.356-11.381 7.711-24.004 12.565-37.386 15.498-13.479 2.952-27.085 3.73-40.843 2.53-18.914-1.65-36.849-6.631-53.646-15.495-17.824-9.408-32.028-22.517-40.953-40.862-5.432-11.17-8.636-22.971-9.923-35.316-.524-5.018-.838-10.036-.701-15.081.083-3.086.187-3.197 3.179-3.198 11.424-.003 22.848-.001 34.273-.001z"/><path d="m216.431 236.295v118.949c0 .673-.052 1.349.005 2.015.13 1.522-.605 2.076-2.036 1.941-.267-.024-.537 0-.806 0-22.245 0-44.489 0-66.732-.002-2.822-.001-2.835-.01-2.835-2.745-.003-80.24-.003-160.48 0-240.721 0-2.735.013-2.744 2.835-2.745 22.244-.003 44.488-.003 66.732 0 2.828 0 2.835.01 2.835 2.947.003 40.121.002 80.241.002 120.361z"/><path d="m176.807 30.72h109.473c.672 0 1.347.041 2.016-.004 1.336-.089 2.058.409 1.932 1.84-.03.334.001.672.001 1.008.001 20.765.002 41.531-.001 62.296 0 2.815-.011 2.828-2.752 2.828-73.923.002-147.846.002-221.768 0-2.721 0-2.736-.013-2.736-2.641-.005-20.9-.005-41.8 0-62.7.001-2.613.017-2.625 2.751-2.625 37.027-.003 74.055-.002 111.084-.002z"/><path d="m324.688 243.946c0-36.556-.002-73.112.012-109.668 0-.852-.412-2.078.293-2.476.926-.521 1.619.657 2.316 1.201 21.674 16.891 43.326 33.812 65.006 50.696 1.119.873 1.576 1.82 1.575 3.235-.027 55.91-.034 111.819.021 167.728.002 2.129-.765 2.562-2.7 2.557-21.167-.055-42.334-.033-63.502-.035-3.016-.001-3.02-.006-3.02-3.166-.001-36.691-.001-73.382-.001-110.072z"/><path d="m662.442 244.378c0 36.488.001 72.977 0 109.466 0 3.336-.002 3.339-3.251 3.339-21.033.002-42.066.003-63.1-.001-2.814 0-2.827-.01-2.827-2.751-.003-55.708.005-111.415-.035-167.123-.001-1.731.567-2.821 1.925-3.876 21.636-16.833 43.23-33.716 64.844-50.578.616-.481 1.265-1.453 1.994-1.126.9.405.433 1.562.433 2.378.02 36.757.017 73.514.017 110.272z"/></g></g></svg>