<svg width="215" height="75" viewBox="0 0 215 75" fill="none" xmlns="http://www.w3.org/2000/svg">
<g clip-path="url(#clip0_149_38)">
<path d="M8.46478 45.5623L9.41587 47.2631V44.9194C14.6426 41.6481 23.9806 39.4713 34.6373 39.4713C44.6411 39.4713 53.4906 41.3918 58.86 44.3335C54.044 40.4478 44.5373 37.7991 33.5997 37.7991C25.0268 37.7991 17.3359 39.4266 12.0919 41.998V40.1427C16.869 36.7086 25.0614 34.4382 34.3692 34.4382C43.677 34.4382 51.342 36.5621 56.1753 39.8131C51.8392 35.5205 43.2836 32.5951 33.4354 32.5951C30.6426 32.5951 27.958 32.8311 25.4375 33.2664C26.0601 28.746 27.8628 24.7464 30.2665 22.8015C27.4305 24.3151 24.6853 28.567 23.8855 33.5634C22.8782 33.775 21.9012 34.0191 20.9631 34.2958C21.4516 30.1253 23.2457 26.3658 25.684 24.5918C22.7788 25.9874 19.9731 30.0846 19.437 34.78C18.2481 35.1869 17.1284 35.6467 16.0865 36.1471C18.0795 27.6433 25.7877 21.3123 34.8102 21.3123C38.8999 21.3123 42.687 22.6143 45.791 24.8277L46.1153 24.9132C42.6265 22.2685 38.2212 20.6898 33.4268 20.6898C22.995 20.6898 14.3875 28.1682 13.1338 37.8275C12.3989 38.3239 11.7201 38.8488 11.1192 39.3981L11.8801 42.0957C10.341 42.8688 9.01382 43.7232 7.95032 44.6468L8.45613 45.5542L8.46478 45.5623Z" fill="#BFBEBE"/>
<path d="M34.0148 62.4193C33.5004 62.4193 32.9859 62.4234 32.4758 62.4315H32.4715C31.9613 62.4397 31.4555 62.4519 30.954 62.4681V51.6655C29.7046 51.7225 28.4855 51.8079 27.288 51.9178V62.6594C26.994 62.6797 26.7 62.7041 26.406 62.7285C26.3585 62.7285 26.3153 62.7367 26.2677 62.7407C25.9694 62.7652 25.6754 62.7936 25.3771 62.8181V52.2514H24.3396C23.5441 52.3572 22.7573 52.4793 21.9921 52.6095V63.2046C21.6765 63.2493 21.3609 63.2941 21.0453 63.3389C20.9934 63.347 20.9372 63.3551 20.8854 63.3633C20.5698 63.4121 20.2542 63.4609 19.9429 63.5097V52.9879C18.9832 53.1832 18.0493 53.3947 17.1458 53.6226V64.0224C16.7913 64.0957 16.4411 64.1689 16.091 64.2462L16.0477 64.2543C15.7062 64.3316 15.3647 64.4089 15.0274 64.4903V54.2044C14.3444 54.4079 13.6829 54.6194 13.0388 54.8392V65.0071C12.7102 65.0966 12.3817 65.1902 12.0618 65.2878L12.0315 65.2959C11.7116 65.3895 11.396 65.4872 11.089 65.5848V55.5553C10.6221 55.7384 10.1682 55.9296 9.72724 56.1249V66.0446C9.44623 66.1423 9.17387 66.244 8.90152 66.3457L8.84964 66.366C8.5816 66.4678 8.31789 66.5695 8.0585 66.6753V56.9102C7.77317 57.0566 7.49216 57.2031 7.2198 57.3496V67.0252C6.97338 67.131 6.7356 67.2368 6.49783 67.3466C6.48054 67.3548 6.45892 67.3629 6.44163 67.371C6.20385 67.4809 5.9704 67.5948 5.73695 67.7047V58.2122C5.53809 58.3383 5.34354 58.4644 5.15332 58.5946V68.0058C4.46162 68.3679 3.81314 68.7422 3.21654 69.1287H3.2079C3.09117 69.206 2.97877 69.2834 2.86637 69.3607L2.8534 69.3688C2.74532 69.442 2.63724 69.5153 2.53348 69.5926L2.51186 69.6089C2.40811 69.6821 2.30868 69.7553 2.21357 69.8286C2.20492 69.8367 2.19195 69.8448 2.1833 69.853C2.08819 69.9222 1.99308 69.9954 1.9023 70.0686C1.88933 70.0768 1.87636 70.089 1.86339 70.0971C1.77693 70.1663 1.69046 70.2355 1.604 70.3046C1.58671 70.3168 1.57374 70.329 1.55644 70.3412C1.4743 70.4063 1.39649 70.4755 1.31867 70.5406C1.30138 70.5569 1.27976 70.5732 1.26247 70.5894C1.18897 70.6545 1.11548 70.7196 1.04631 70.7847C1.02469 70.8051 1.00308 70.8214 0.981462 70.8417C0.912291 70.9027 0.847443 70.9678 0.782596 71.0289C0.76098 71.0492 0.735041 71.0736 0.713425 71.094C0.648577 71.155 0.588053 71.216 0.527529 71.2771C0.505913 71.3015 0.479974 71.3218 0.458358 71.3462C0.397833 71.4073 0.341632 71.4724 0.281108 71.5334C0.259492 71.5578 0.237876 71.5782 0.21626 71.6026C0.138443 71.688 0.064949 71.7735 -0.00854492 71.8589L0.523205 72.6157L0.531852 72.6279L1.16736 73.5312L2.19627 74.9959V72.8761L2.17466 72.8476C2.17466 72.8476 2.18763 72.8313 2.19627 72.8273V72.7662C2.24815 72.7296 2.30003 72.6971 2.35623 72.6605C7.14631 67.7535 20.4833 64.2218 36.1937 64.2218C48.1775 64.2218 58.778 66.2765 65.2627 69.4298C59.1627 65.2471 47.4556 62.4152 34.0105 62.4152L34.0148 62.4193Z" fill="#BFBEBE"/>
<path d="M29.0212 41.6847V46.5429C29.6567 46.5063 30.3009 46.4778 30.9494 46.4534V41.6847C30.9494 41.1843 30.5171 40.7774 29.9853 40.7774C29.4536 40.7774 29.0212 41.1843 29.0212 41.6847Z" fill="#BFBEBE"/>
<path d="M24.5078 42.1283V46.9335C25.1433 46.8603 25.7875 46.7952 26.4359 46.7341V42.1283C26.4359 41.6278 26.0036 41.2209 25.4719 41.2209C24.9401 41.2209 24.5078 41.6278 24.5078 42.1283Z" fill="#BFBEBE"/>
<path d="M20.8418 42.4497V47.4502C21.3001 47.3729 21.7626 47.2997 22.2295 47.2346V42.4537C22.2295 42.0916 21.9183 41.8027 21.5378 41.8027C21.1574 41.8027 20.8461 42.0957 20.8461 42.4537L20.8418 42.4497Z" fill="#BFBEBE"/>
<path d="M17.1541 43.1658V48.1745C17.5561 48.085 17.9625 47.9955 18.3732 47.91V43.1658C18.3732 42.8484 18.1008 42.5921 17.7636 42.5921C17.4264 42.5921 17.1541 42.8484 17.1541 43.1658Z" fill="#BFBEBE"/>
<path d="M14.2621 44.065V48.9109C14.5647 48.8255 14.8717 48.74 15.1829 48.6586V44.065C15.1829 43.8249 14.9754 43.6337 14.7247 43.6337C14.4739 43.6337 14.2664 43.829 14.2664 44.065H14.2621Z" fill="#BFBEBE"/>
<path d="M12.1351 44.8259V49.566C12.3124 49.505 12.4896 49.448 12.6712 49.3911V44.8259C12.6712 44.6875 12.5502 44.5736 12.4032 44.5736C12.2562 44.5736 12.1351 44.6875 12.1351 44.8259Z" fill="#BFBEBE"/>
<path d="M10.3971 45.7088V50.1926C10.5009 50.1519 10.6003 50.1153 10.7041 50.0746V45.7088C10.7041 45.6274 10.6349 45.5623 10.5485 45.5623C10.462 45.5623 10.3928 45.6274 10.3928 45.7088H10.3971Z" fill="#BFBEBE"/>
<path d="M19.5923 31.6593C19.7696 31.1344 19.9771 30.6258 20.2062 30.1375C19.8647 30.2881 19.5275 30.4427 19.1946 30.6014C18.879 31.1263 18.5893 31.6674 18.3213 32.2248C18.732 32.0336 19.16 31.8464 19.5923 31.6633V31.6593Z" fill="#BFBEBE"/>
<path d="M24.2484 30.0317C24.4472 29.4865 24.6677 28.9617 24.9055 28.4571C24.1835 28.6565 23.4788 28.8762 22.7958 29.1122C22.5796 29.6086 22.3851 30.1253 22.2122 30.6583C22.8736 30.4346 23.5523 30.223 24.2484 30.0277V30.0317Z" fill="#BFBEBE"/>
<path d="M27.093 29.3523C28.0009 29.1692 28.926 29.0186 29.8728 28.9006C30.0371 28.3961 30.2143 27.9038 30.4046 27.4277C29.4664 27.5213 28.5413 27.6556 27.6421 27.8265C27.4432 28.3147 27.2616 28.8274 27.093 29.3523Z" fill="#BFBEBE"/>
<path d="M2.06646 57.5164L2.6717 58.4197L3.64874 59.8844V57.7646L3.62712 57.7361C3.62712 57.7361 3.64009 57.7198 3.64874 57.7158V57.6547C3.69629 57.6181 3.74817 57.5856 3.80005 57.549C8.36532 52.642 21.0668 49.1103 36.0293 49.1103C47.4425 49.1103 57.5414 51.165 63.7149 54.3183C57.9045 50.1356 46.7551 47.3037 33.9499 47.3037C18.7971 47.3037 5.96596 51.2667 1.552 56.7433L2.05781 57.5001L2.06646 57.5123V57.5164Z" fill="#BFBEBE"/>
<path d="M39.9891 20.4131V20.055C38.463 18.7774 36.2236 17.862 33.7162 17.862C31.2088 17.862 28.6494 18.3787 26.972 19.4732V21.1618C28.5154 19.7906 30.811 19.0216 33.7248 19.0216C36.0594 19.0216 38.3593 19.5098 39.9891 20.4131Z" fill="#BFBEBE"/>
<path d="M29.7691 12.9876V17.862C29.8945 17.8294 30.0198 17.8009 30.1452 17.7725V12.9876C30.1452 12.8899 30.0587 12.8085 29.955 12.8085C29.8512 12.8085 29.7648 12.8899 29.7648 12.9876H29.7691Z" fill="#BFBEBE"/>
<path d="M33.6556 10.6806C35.3071 10.6806 36.9369 11.1689 38.0912 12.0721V11.7141C37.0104 10.4365 35.4238 9.521 33.6513 9.521C31.8788 9.521 30.0631 10.0377 28.8785 11.1322V12.8208C29.9723 11.4496 31.5978 10.6806 33.66 10.6806H33.6556Z" fill="#BFBEBE"/>
<path d="M36.7381 9.57386C36.4744 8.41426 35.6184 7.47437 34.4943 7.08783C34.7019 6.53448 34.8272 5.82651 34.8272 5.05751C34.8272 3.69853 34.4381 2.53892 33.8934 2.07508C34.0966 1.86351 34.2263 1.52986 34.2263 1.1596C34.2263 0.516736 33.8415 0 33.3617 0C32.8818 0 32.497 0.520805 32.497 1.1596C32.497 1.53393 32.6267 1.86351 32.8299 2.07508C32.2852 2.53892 31.8961 3.69853 31.8961 5.05751C31.8961 5.82651 32.0215 6.53041 32.2247 7.08376C31.1439 7.44995 30.3052 8.32881 30.0026 9.42332C31.079 8.86589 32.3846 8.59328 33.6427 8.59328C34.7753 8.59328 35.8345 8.96761 36.7294 9.57386H36.7381Z" fill="#BFBEBE"/>
<path d="M30.9363 12.2512V17.6179C31.187 17.5772 31.4378 17.5446 31.6928 17.5121V12.2471C31.6928 12.0518 31.5242 11.8931 31.3167 11.8931C31.1092 11.8931 30.9406 12.0518 30.9406 12.2471L30.9363 12.2512Z" fill="#BFBEBE"/>
<path d="M32.5835 11.9826V17.4348C32.8861 17.4144 33.1844 17.4022 33.4827 17.3981V11.9826C33.4827 11.7466 33.2795 11.5594 33.0331 11.5594C32.7867 11.5594 32.5835 11.7507 32.5835 11.9826Z" fill="#BFBEBE"/>
<path d="M71.2415 19.5098L69.3264 14.5418H67.2512V13.6833H76.2996V14.5418H73.5674L79.0967 29.2098L83.8738 14.5418H80.7309V13.6833H87.1724V14.5418H85.0973L78.3748 34.5318H77.0865L71.8381 21.0478L66.1834 34.5318H64.9254L57.6365 14.5418H55.6262V13.6833H64.8V14.5418H61.9726L67.0005 29.5313L71.2415 19.5058V19.5098Z" fill="#3F67B1"/>
<path d="M91.1541 26.6953H85.802L84.0166 31.3866H86.0917V32.0539H81.4486V31.3866H83.0352L89.2173 15.8154H90.2203L96.2338 31.3866H97.8204V32.0539H90.8299V31.3866H92.8358L91.1498 26.6953H91.1541ZM86.0441 26.028H90.9077L88.5602 19.4976L86.0441 26.028Z" fill="#3F67B1"/>
<path d="M107.794 28.628C107.794 26.443 106.034 25.9833 102.93 25.2224C100.047 24.5104 98.2398 23.6356 98.2398 20.5759C98.2398 18.1834 99.9993 15.8154 103.492 15.8154C105.498 15.8154 106.67 16.5274 107.427 16.5274C107.794 16.5274 107.889 16.3647 108.062 16.0676H108.43L108.602 20.7142H108.066C107.21 18.0247 106.112 16.5274 103.376 16.5274C101.223 16.5274 100.004 17.6545 100.004 19.2169C100.004 21.0112 101.789 21.6093 104.037 22.183C106.726 22.8503 109.489 23.5868 109.489 27.151C109.489 30.1863 107.409 32.3957 103.795 32.3957C101.499 32.3957 100.03 31.704 99.3249 31.704C98.9574 31.704 98.8623 31.9563 98.6635 32.3957H98.2484L98.0063 27.1063H98.5684C99.3984 29.8446 100.864 31.6836 103.799 31.6836C106.121 31.6836 107.807 30.463 107.807 28.6239L107.794 28.628Z" fill="#3F67B1"/>
<path d="M117.521 15.8154V16.4827H115.714V23.2897H122.653V16.4827H120.846V15.8154H127.568V16.4827H125.761V31.2483H127.568V31.9156H120.846V31.2483H122.653V24.1198H115.714V31.2483H117.521V31.9156H110.799V31.2483H112.606V16.4827H110.799V15.8154H117.521Z" fill="#3F67B1"/>
<path d="M135.212 15.8154V16.4827H133.5V31.2483H135.212V31.9156H128.688V31.2483H130.4V16.4827H128.688V15.8154H135.212Z" fill="#3F67B1"/>
<path d="M150.07 32.0295H148.631L139.003 17.0563V31.2483H140.715V31.9156H136.439V31.2483H138.151V16.4826H136.439V15.8154H141.839L149.219 27.4074V16.4826H147.507V15.8154H151.782V16.4826H150.07V32.0295Z" fill="#3F67B1"/>
<path d="M163.632 30.1213V26.2803H161.557V25.613H168.132V26.2803H166.667V32.1475H166.278C166.083 31.8261 165.884 31.5738 165.348 31.5738C164.492 31.5738 162.733 32.4038 160.606 32.4038C155.742 32.4038 152.591 29.9422 152.591 24.2378C152.591 18.5333 156.183 15.8195 160.805 15.8195C162.88 15.8195 164.324 16.5315 165.106 16.5315C165.448 16.5315 165.547 16.3687 165.694 16.0717H166.083L166.256 20.877H165.72C164.89 18.0939 163.299 16.5315 160.783 16.5315C157.705 16.5315 155.945 18.692 155.945 24.1686C155.945 28.9983 157.606 31.6918 160.809 31.6918C162.179 31.6918 163.204 31.1181 163.645 30.1294L163.632 30.1213Z" fill="#3F67B1"/>
<path d="M182.278 20.7142H181.69C180.908 16.9872 179.758 16.4827 176.974 16.4827H176.68V31.2483H178.928V31.9156H171.302V31.2483H173.55V16.4827H173.234C170.45 16.4827 169.3 17.036 168.517 20.7142H167.929L168.176 15.8154H182.032L182.278 20.7142Z" fill="#3F67B1"/>
<path d="M190.829 15.8154C195.593 15.8154 198.455 18.8303 198.455 23.9814C198.455 29.1325 195.766 32.3998 190.609 32.3998C185.451 32.3998 182.788 29.454 182.788 24.2093C182.788 18.9646 185.966 15.8154 190.829 15.8154ZM190.708 16.5274C186.848 16.5274 186.164 19.4936 186.164 24.2093C186.164 28.51 186.899 31.6836 190.661 31.6836C194.422 31.6836 195.062 28.7378 195.062 24.0709C195.062 19.404 194.4 16.5274 190.712 16.5274H190.708Z" fill="#3F67B1"/>
<path d="M213.288 32.0295H211.848L202.221 17.0563V31.2483H203.933V31.9156H199.657V31.2483H201.369V16.4826H199.657V15.8154H205.057L212.436 27.4074V16.4826H210.724V15.8154H215V16.4826H213.288V32.0295Z" fill="#3F67B1"/>
<path d="M80.8823 46.2946L78.9671 41.3267H76.892V40.4681H85.9404V41.3267H83.2081L88.7375 55.9906L93.5146 41.3267H90.3716V40.4681H96.8132V41.3267H94.738L88.0155 61.3166H86.7272L81.4789 47.8326L75.8242 61.3166H74.5661L67.2772 41.3267H65.267V40.4681H74.4407V41.3267H71.6134L76.6412 56.3161L80.8823 46.2906V46.2946Z" fill="#3F67B1"/>
<path d="M108.365 42.8403L108.611 47.2101H108.023C107.362 43.9429 105.97 43.5075 102.987 43.5075H101.033V50.3838H102.204C104.063 50.3838 104.699 49.6473 105.088 47.438H105.624V54.2451H105.036C104.573 51.7835 104.059 51.1162 101.958 51.1162H101.028V58.2691H103.203C106.622 58.2691 108.066 57.0729 108.654 54.1067H109.169L108.974 58.9364H96.1215V58.2691H97.9285V43.5035H96.1215V42.8362H108.365V42.8403Z" fill="#3F67B1"/>
<path d="M122.731 42.8403L122.977 47.2101H122.389C121.728 43.9429 120.336 43.5075 117.353 43.5075H115.399V50.3838H116.57C118.429 50.3838 119.065 49.6473 119.454 47.438H119.99V54.2451H119.402C118.939 51.7835 118.425 51.1162 116.324 51.1162H115.394V58.2691H117.569C120.988 58.2691 122.432 57.0729 123.02 54.1067H123.535L123.34 58.9364H110.487V58.2691H112.295V43.5035H110.487V42.8362H122.731V42.8403Z" fill="#3F67B1"/>
<path d="M131.481 42.8402V43.5075H129.769V50.6605L130.525 50.4774L136.634 43.4628H134.628V42.8402H139.418V43.4628H137.78L132.89 49.1225L139.098 58.322H140.443V58.9445H133.746V58.322H135.406L130.642 51.3277L129.76 51.5108V58.2732H131.472V58.9404H124.948V58.2732H126.66V43.5075H124.948V42.8402H131.472H131.481Z" fill="#3F67B1"/>
<path d="M214.045 37.917V36.4685H62.1759L62.7163 37.917H214.045Z" fill="#EC1D24"/>
</g>
<defs>
<clipPath id="clip0_149_38">
<rect width="215" height="75" fill="white"/>
</clipPath>
</defs>
</svg>
