<svg height="212.408068" viewBox="0 0 406.16 183.51" width="470.791909" xmlns="http://www.w3.org/2000/svg"><path d="m337.09 182.94c2.02 0 5.4-2.42 7.42-5.65.66-1.06.15-2.17-.86-1.06-1.26 1.36-2.88 2.62-4.54 2.52-1.57-.05-2.83-2.42-.91-7.93 2.83-7.98 4.75-8.88 5.65-8.93.86-.05 2.63 2.22 3.69 2.47.86.2 1.57-.1 1.97-.86.45-.86.2-3.38-4.04-3.58-4.44-.2-9.19 4.95-11.51 12.52-2.27 7.42.2 10.5 3.13 10.5m-8.63-23.78c-2.48 0-5.81 1.76-8.94 5.25-1.01 1.16-.25 1.97.71 1.11.91-.86 2.57-2.12 3.43-2.62 1.06-.66 1.77-.15 1.46.81-.25.76-1.01 2.62-1.56 3.89l-3.43 7.88c-.96 2.22-1.87 4.44-2.07 5.05-.46 1.57.35 2.37 1.61 2.37 2.37 0 5.71-1.97 8.89-5.5 1.01-1.16.25-1.97-.71-1.11-1.01.91-2.83 2.27-3.74 2.83-1.06.66-1.82.15-1.46-.81.25-.71 1.01-2.32 1.52-3.48l3.48-7.88c1.01-2.32 2.17-4.8 2.37-5.45.4-1.51-.35-2.32-1.56-2.32m2.22-6.71c1.41.1 2.78-1.01 2.98-2.52.2-1.57-.76-2.88-2.17-2.98-1.46-.15-2.83 1.01-3.03 2.57-.2 1.51.76 2.78 2.22 2.93m-24.43 25.04 5.65-15.04h4.09c.91 0 1.36-.25 1.56-.91.35-.86.15-1.26-.76-1.26h-4.09l1.97-5.25c.25-.71 0-1.06-.4-1.06h-2.12c-.56 0-.76.15-1.01.86l-2.07 5.45h-3.28c-.45 0-.81-.1-1.11 1.26-.1.66.05.91.66.91h2.88l-4.9 12.77c-.76 1.97-1.82 4.54-2.02 5.6-.3 1.77.76 2.47 2.07 2.22 2.57-.45 6.26-3.13 9.54-7.32.91-1.21.15-1.97-.76-1.01-1.21 1.16-3.18 2.98-4.39 3.79-1.31.86-1.97.25-1.51-1.01m-18.28 5.4c2.37 0 5.7-1.97 8.89-5.5 1.01-1.16.25-1.97-.71-1.11-1.01.91-2.83 2.27-3.74 2.83-1.11.71-1.87.15-1.51-.86.25-.66 1.16-2.53 1.72-3.64l2.98-6.01c1.61-3.28 1.92-4.75 1.92-5.91 0-2.17-1.11-3.28-3.38-3.28-3.18 0-5.7 2.52-9.54 7.98-1.06 1.46-1.77 2.57-3.18 4.39-.45.56-.81.51-.55-.15l1.97-4.9c.91-2.32 1.61-4.34 1.61-5.35 0-1.31-.56-1.92-1.97-1.92-1.72 0-3.89.91-7.67 5.7-1.36 1.77-.05 1.97.45 1.42.76-.76 2.37-2.47 3.48-3.43 1.06-1.01 2.07-.66 1.67.51-.05.3-.35 1.16-.96 2.67l-6.01 14.69c-.81 2.02 3.03 2.47 3.69.96 2.07-4.75 6.61-10.75 8.48-13.43 2.73-3.89 5.1-6.56 6.82-6.56.91 0 1.31.51 1.31 1.46 0 .51-.3 1.62-.71 2.42l-4.24 9.04c-1.16 2.42-2.32 4.95-2.52 5.6-.51 1.57.35 2.37 1.72 2.37m-39.02-4.9c-.3-2.22 1.72-5.6 3.38-7.88 2.88-3.79 6.41-6.92 8.69-6.92 1.56 0 2.37.66 2.52 1.62.3 1.82-2.63 7.17-5.2 9.49-3.18 2.93-5.75 5.05-7.52 5.05-1.26 0-1.77-.51-1.87-1.36m10.7-2.07c-.96 1.82-2.02 3.89-2.27 5-.35 1.77.61 2.22 1.97 2.02 2.62-.35 6.71-2.78 9.84-7.12.91-1.26.05-1.97-.81-1.01-1.01 1.16-3.43 3.23-4.49 3.94-1.36.91-1.97.66-1.56-.4.2-.61.96-2.42 7.67-17.17.3-.71-.71-.91-3.03-1.36-.71-.15-1.11.61-2.32 3.13-1.01-1.11-2.12-1.77-4.19-1.72-3.69.1-8.23 3.43-12.02 8.53-2.98 4.09-3.89 6.92-3.33 9.95.3 1.77 1.77 3.03 3.74 3.08 2.78.1 5.55-2.52 8.33-5.4l1.82-1.87c.51-.51.96-.2.66.4m-28.27-.71c-.76 1.97-1.82 4.54-2.02 5.6-.3 1.77.76 2.47 2.07 2.22 2.73-.45 6.61-3.13 10-7.52.91-1.21.15-1.97-.76-1.01-1.26 1.21-3.28 3.13-4.55 3.99-1.31.86-1.97.25-1.51-1.01l12.32-32.61c.2-.51.1-1.21-.61-1.16-.81.05-5.45.4-7.22.81-.4.1-.61.71-.15.86l2.73 1.01c.56.2.61.45.25 1.36l-10.55 27.47zm-12.57 2.27 5.65-15.04h4.09c.91 0 1.36-.25 1.57-.91.35-.86.15-1.26-.76-1.26h-4.09l1.97-5.25c.25-.71 0-1.06-.4-1.06h-2.12c-.56 0-.76.15-1.01.86l-2.07 5.45h-3.28c-.45 0-.81-.1-1.11 1.26-.1.66.05.91.66.91h2.88l-4.9 12.77c-.76 1.97-1.82 4.54-2.02 5.6-.3 1.77.76 2.47 2.07 2.22 2.57-.45 6.26-3.13 9.54-7.32.91-1.21.15-1.97-.76-1.01-1.21 1.16-3.18 2.98-4.39 3.79-1.31.86-1.97.25-1.51-1.01m-16.21-24.89c.4-.61.81-.3.76.15-.15 2.22-.4 6.31-.61 9.9-.05.91-.1 1.92-.15 2.98h-9.84c4.6-6.06 9.44-12.42 9.84-13.02m-.76 26.2c-.05.71-.35 1.16-1.11 1.36l-2.57.76c-.71.2-1.01 1.51.1 1.46 2.52-.15 4.65-.35 5.76-.35 1.66 0 4.49.35 5.8.4 1.16.05 1.11-1.01.15-1.26-2.57-.61-3.64-1.56-3.58-2.57l.1-2.12c.05-1.57 1.21-24.54 1.46-27.97.2-2.52-2.67-2.42-3.89-.91l-2.42 3.08c-2.93 3.69-14.79 18.98-20.55 26.15-1.56 1.92-4.19 3.79-6.16 4.29-.96.25-.86 1.26.2 1.26.86 0 3.38-.3 5.25-.3s5.3.15 6.16.2 1.16-.91.05-1.21c-2.37-.71-3.53-1.16-3.53-1.82 0-.71.56-1.46 1.87-3.28 1.01-1.41 3.43-4.6 6.11-8.13h11.41c-.25 4.84-.56 9.95-.61 10.95m-42.81-17.42c.86.05 1.26 1.06.86 2.17-1.06 3.13-4.74 5.75-7.47 6.41 2.57-6.82 5.05-8.63 6.61-8.58m-.91 15.9c.66-1.06.15-2.17-.86-1.06-1.26 1.36-2.98 2.83-4.75 2.47-1.21-.2-2.32-2.27-.56-7.42 4.24-.2 9.24-2.62 10.5-6.61 1.06-3.43-1.21-4.74-3.03-4.79-4.39-.2-9.29 4.9-11.61 12.57-2.27 7.42.25 10.5 3.03 10.5 2.02 0 5.4-2.62 7.27-5.65m-20.65-32.01c.35-.86-2.73-1.87-3.23-.81l-1.21 2.42-6.87 19.39-5.35 14.69c-.91 2.42 2.52 2.57 3.28 1.11 5.25-9.84 7.22-12.07 9.14-14.79 2.22-3.23 4.29-5.15 5.76-5.15 1.11 0 1.76.61 1.76 1.97 0 1.82-.86 4.64-2.57 9.44-2.27 6.26-3.13 7.93-3.89 7.98-.71.05-2.22-1.82-3.03-2.02-.86-.2-1.57.1-1.97.86-.4.71-.15 2.98 3.28 3.13 4.09.2 7.57-3.99 10-10.7 1.67-4.55 2.07-6.87 2.07-8.53 0-3.23-1.52-4.75-3.99-4.75-2.88 0-5.3 2.17-8.33 6.36-1.42 1.97-3.23 4.75-4.04 5.96-.46.61-.81.51-.56-.15l2.12-5.45 7.62-20.95zm-33.42 33.27c-.25.71-.66 1.41-1.62 1.72-1.61.51-2.12.56-3.13.81-1.51.35-1.26 1.62-.2 1.57 1.92-.1 4.39-.35 6.36-.35 2.42 0 6.71.2 7.37.25 1.21.1 1.36-1.36.35-1.51-.71-.1-1.87-.3-2.98-.46-1.31-.15-1.72-.71-1.41-1.77.66-1.76 8.33-24.08 9.89-28.67 2.37.3 4.44.51 5.8.61 4.29.25 8.38-.15 11.16-6.11.25-.56-1.21-.56-1.46-.05-1.31 2.78-3.74 3.69-8.08 3.53-4.24-.15-13.08-2.58-19.69-2.58-8.28 0-12.92 5.1-12.92 11.11 0 3.38 2.22 5.55 5.2 5.45 1.47-.05 2.63-.76 2.88-2.17.2-1.21-.66-1.97-1.87-1.72-2.93.61-3.94-1.41-3.94-2.93 0-3.74 3.18-6.51 9.84-6.51 1.71 0 5.05.4 8.58.81-4.49 13.48-9.04 25.95-10.15 28.98" fill="#231f20"/><g fill="#3f67b1"><path d="m39.79 15.77-4.88-13.45h-5.28v-2.32h23.06v2.32h-6.97l14.09 39.71 12.17-39.71h-8.01v-2.32h16.41v2.32h-5.29l-17.13 54.13h-3.28l-13.37-36.51-14.41 36.51h-3.2l-18.58-54.13h-5.12v-2.32h23.38v2.32h-7.21l12.81 40.59z"/><path d="m90.54 35.23h-13.64l-4.55 12.71h5.29v1.81h-11.83v-1.81h4.05l15.76-42.17h2.55l15.32 42.17h4.05v1.81h-17.81v-1.81h5.11zm-13.02-1.81h12.39l-5.98-17.69-6.42 17.69z"/><path d="m132.95 40.46c0-5.92-4.48-7.16-12.39-9.22-7.35-1.93-11.96-4.3-11.96-12.58 0-6.48 4.48-12.89 13.39-12.89 5.11 0 8.1 1.93 10.03 1.93.93 0 1.18-.44 1.62-1.25h.93l.44 12.58h-1.37c-2.18-7.29-4.98-11.34-11.96-11.34-5.48 0-8.6 3.05-8.6 7.29 0 4.86 4.55 6.48 10.28 8.03 6.85 1.81 13.89 3.8 13.89 13.45 0 8.22-5.29 14.2-14.51 14.2-5.85 0-9.59-1.87-11.4-1.87-.93 0-1.18.69-1.68 1.87h-1.06l-.62-14.33h1.43c2.12 7.41 5.85 12.39 13.33 12.39 5.92 0 10.21-3.3 10.21-8.28z"/><path d="m157.74 5.77v1.81h-4.61v18.43h17.69v-18.43h-4.61v-1.81h17.13v1.81h-4.61v39.98h4.61v1.81h-17.13v-1.81h4.61v-19.31h-17.69v19.31h4.61v1.81h-17.13v-1.81h4.61v-39.98h-4.61v-1.81z"/><path d="m202.82 5.77v1.81h-4.36v39.98h4.36v1.81h-16.63v-1.81h4.36v-39.98h-4.36v-1.81z"/><path d="m240.69 49.68h-3.67l-24.54-40.55v38.43h4.36v1.81h-10.9v-1.81h4.36v-39.98h-4.36v-1.81h13.76l18.81 31.39v-29.58h-4.36v-1.81h10.9v1.81h-4.36z"/><path d="m275.25 44.51v-10.4h-5.29v-1.81h16.75v1.81h-3.74v15.88h-1c-.5-.87-1-1.56-2.37-1.56-2.18 0-6.66 2.24-12.08 2.24-12.39 0-20.43-6.66-20.43-22.11s9.16-22.8 20.93-22.8c5.29 0 8.97 1.93 10.96 1.93.87 0 1.12-.44 1.5-1.25h1l.44 13.02h-1.37c-2.12-7.54-6.17-11.77-12.58-11.77-7.85 0-12.33 5.85-12.33 20.68 0 13.08 4.23 20.37 12.39 20.37 3.49 0 6.1-1.56 7.22-4.24z"/><path d="m322.77 19.04h-1.5c-1.99-10.09-4.92-11.46-12.02-11.46h-.75v39.98h5.73v1.81h-19.43v-1.81h5.73v-39.98h-.81c-7.1 0-10.03 1.49-12.02 11.46h-1.5l.62-13.27h35.31l.62 13.27z"/><path d="m344.57 5.77c12.15 0 19.43 8.16 19.43 22.11s-6.85 22.8-19.99 22.8-19.93-7.97-19.93-22.17 8.1-22.73 20.49-22.73zm-.31 1.93c-9.84 0-11.58 8.03-11.58 20.8 0 11.65 1.87 20.24 11.46 20.24s11.21-7.97 11.21-20.62-1.68-20.43-11.09-20.43z"/><path d="m401.8 49.68h-3.67l-24.54-40.55v38.43h4.36v1.81h-10.9v-1.81h4.36v-39.98h-4.36v-1.81h13.76l18.81 31.39v-29.58h-4.36v-1.81h10.9v1.81h-4.36z"/><path d="m64.36 88.3-4.88-13.45h-5.28v-2.32h23.06v2.32h-6.97l14.09 39.71 12.17-39.71h-8.01v-2.32h16.41v2.32h-5.29l-17.13 54.13h-3.28l-13.37-36.51-14.41 36.51h-3.2l-18.58-54.13h-5.12v-2.32h23.38v2.32h-7.21l12.81 40.59z"/><path d="m134.4 78.96.62 11.83h-1.49c-1.68-8.84-5.23-10.03-12.83-10.03h-4.98v18.62h2.99c4.73 0 6.35-1.99 7.35-7.97h1.37v18.44h-1.49c-1.18-6.66-2.49-8.47-7.85-8.47h-2.37v19.37h5.54c8.72 0 12.39-3.24 13.89-11.27h1.31l-.5 13.08h-32.76v-1.81h4.61v-39.99h-4.61v-1.81h31.2z"/><path d="m171.02 78.96.62 11.83h-1.49c-1.68-8.84-5.23-10.03-12.83-10.03h-4.98v18.62h2.99c4.73 0 6.35-1.99 7.35-7.97h1.37v18.44h-1.49c-1.18-6.66-2.49-8.47-7.85-8.47h-2.37v19.37h5.54c8.72 0 12.39-3.24 13.89-11.27h1.31l-.5 13.08h-32.76v-1.81h4.61v-39.99h-4.61v-1.81h31.2z"/><path d="m193.31 78.96v1.81h-4.36v19.37l1.93-.5 15.57-19h-5.11v-1.68h12.21v1.68h-4.17l-12.46 15.32 15.82 24.91h3.42v1.68h-17.07v-1.68h4.24l-12.15-18.93-2.24.5v18.31h4.36v1.81h-16.63v-1.81h4.36v-39.99h-4.36v-1.81h16.63z"/></g><path d="m403.73 65.62v-3.92h-387.05l1.38 3.92z" fill="#ec1d24"/><g fill="#231f20"><path d="m237.77 100.91c-.73-1.78-1.11-2.1-1.91-2.29l-.51-.13c-.16-.16-.19-.64.1-.76.99.06 1.88.1 2.83.1s1.91-.03 2.77-.1c.25.13.29.6.06.76l-.73.13c-.45.06-.7.25-.7.45s.16.8.51 1.65l1.97 4.87c.29.73.57 1.3.57 1.37.1-.06.35-.6.73-1.53l1.56-3.85c.41-1.02.45-1.43.29-1.85-.29-.7-.76-.95-1.46-1.11l-.51-.13c-.22-.19-.16-.67.1-.76.79.06 1.81.1 2.64.1.99 0 1.94-.03 3.02-.1.29.1.29.6.1.76l-.67.13c-1.27.25-1.21.35-.83 1.46.35 1.05 2.07 5.09 2.42 5.95.19.48.32.83.41.89.06-.06.22-.38.45-.89.41-.92 1.69-4.3 2.16-5.63.25-.73.32-1.15.32-1.37 0-.19-.19-.35-.57-.41l-.8-.13c-.25-.16-.19-.67.03-.76.92.06 1.72.1 2.51.1.6 0 1.37-.03 2.07-.1.25.13.29.6.1.76l-.64.13c-.76.16-1.05.6-1.72 2-.86 1.78-2.39 5.6-2.99 7.22-.45 1.15-.83 2.07-1.08 2.9-.13.1-.25.13-.41.13-.13 0-.25-.03-.35-.13-.19-.57-.76-2.23-1.31-3.5l-1.53-3.66c-.22-.57-.7-1.62-.73-1.62s-.48.99-.7 1.56l-1.65 3.98c-.57 1.37-1.02 2.51-1.27 3.25-.1.1-.22.13-.38.13-.13 0-.29-.03-.38-.13-.19-.67-.7-1.97-.96-2.64l-2.93-7.19z"/><path d="m259.5 101.23c0-1.24 0-1.4-.86-1.97l-.29-.19c-.13-.13-.13-.48.03-.57.73-.25 2.55-1.08 3.28-1.56.16 0 .29.06.32.19-.06 1.11-.13 2.64-.13 3.95v5.73c0 2.29.06 2.61 1.21 2.77l.67.1c.22.16.16.7-.06.8-.95-.06-1.88-.1-2.99-.1s-2.1.03-2.99.1c-.22-.1-.29-.64-.06-.8l.67-.1c1.18-.16 1.21-.48 1.21-2.77v-5.57zm2.64-9.07c0 1.15-.8 1.65-1.69 1.65-.99 0-1.62-.73-1.62-1.59 0-1.05.76-1.72 1.72-1.72s1.59.76 1.59 1.65z"/><path d="m270.29 99.16c-.54 0-.57.1-.57.76v5.95c0 1.85.22 3.53 2.32 3.53.32 0 .6-.06.86-.16.29-.1.7-.45.79-.45.25 0 .38.35.32.54-.57.67-1.72 1.46-3.34 1.46-2.74 0-3.31-1.53-3.31-3.44v-7.29c0-.86-.03-.92-.67-.92h-.89c-.19-.13-.22-.48-.1-.67.92-.29 1.72-.7 2.04-.99.41-.38 1.02-1.24 1.34-1.88.16-.06.54-.06.67.16v1.43c0 .57.03.6.57.6h3.53c.38.29.32 1.15.03 1.34h-3.6z"/><path d="m277.14 92.42c0-1.88-.03-2.07-.99-2.64l-.32-.19c-.16-.1-.16-.54 0-.64.8-.25 2.29-.73 3.44-1.34.13 0 .25.06.32.19-.03.95-.1 2.55-.1 3.95v6.68c0 .29.03.54.13.6 1.15-.89 2.67-1.65 4.3-1.65 3.02 0 4.1 1.88 4.1 4.1v5.31c0 2.29.06 2.64 1.21 2.77l.86.1c.22.16.16.7-.06.8-1.15-.06-2.07-.1-3.18-.1s-2.1.03-2.96.1c-.22-.1-.29-.64-.06-.8l.64-.1c1.18-.19 1.21-.48 1.21-2.77v-4.55c0-2.04-.99-3.4-3.02-3.4-1.08 0-1.91.38-2.48.86s-.67.64-.67 1.75v5.35c0 2.29.06 2.61 1.21 2.77l.67.1c.22.13.16.7-.06.8-.95-.06-1.88-.1-2.99-.1s-2.1.03-3.12.1c-.22-.1-.29-.64-.06-.8l.79-.1c1.18-.13 1.21-.48 1.21-2.77v-14.38z"/></g></svg>