<?xml version="1.0" encoding="UTF-8" standalone="no"?>
<!-- Created with Inkscape (http://www.inkscape.org/) -->

<svg
   xmlns:dc="http://purl.org/dc/elements/1.1/"
   xmlns:cc="http://creativecommons.org/ns#"
   xmlns:rdf="http://www.w3.org/1999/02/22-rdf-syntax-ns#"
   xmlns:svg="http://www.w3.org/2000/svg"
   xmlns="http://www.w3.org/2000/svg"
   version="1.1"
   width="174"
   height="174"
   id="svg5304">
  <defs
     id="defs5306" />
  <metadata
     id="metadata5309">
    <rdf:RDF>
      <cc:Work
         rdf:about="">
        <dc:format>image/svg+xml</dc:format>
        <dc:type
           rdf:resource="http://purl.org/dc/dcmitype/StillImage" />
        <dc:title></dc:title>
      </cc:Work>
    </rdf:RDF>
  </metadata>
  <g
     transform="translate(-346.76443,-403.02812)"
     id="layer1">
    <path
       d="m 464.52595,414.0957 c 20.25723,8.18954 36.11764,23.76998 44.6608,43.88282 17.61973,41.51348 -1.81825,89.61925 -43.33763,107.24488 -20.12462,8.53137 -42.3563,8.73176 -62.61059,0.54518 -20.26902,-8.1748 -36.12354,-23.76409 -44.6726,-43.87987 -4.34378,-10.22292 -6.54219,-20.97039 -6.54219,-31.93889 0,-10.48519 2.0157,-20.79947 5.99701,-30.65402 8.19248,-20.25134 23.77293,-36.1147 43.89166,-44.65197 20.11873,-8.53432 42.35041,-8.71998 62.61354,-0.54813 m -63.88956,-2.45185 0,0 c -20.91441,8.88796 -37.1196,25.36722 -45.6333,46.43192 -4.14045,10.24355 -6.23866,20.96744 -6.23866,31.87405 0,11.40464 2.28977,22.57647 6.80742,33.20902 8.88206,20.91735 25.37311,37.12254 46.4437,45.63035 21.0647,8.51075 44.17751,8.30741 65.1037,-0.56876 43.17261,-18.32699 63.39153,-68.34533 45.06454,-111.52088 -8.87912,-20.90556 -25.37312,-37.10487 -46.44076,-45.61856 -21.07353,-8.5137 -44.1834,-8.31036 -65.10664,0.56286"
       id="path342"
       style="fill:#00483a;fill-opacity:1;fill-rule:nonzero;stroke:none" />
    <path
       d="M 504.47902,459.97359 z M 365.3984,518.99482 c -16.03133,-37.75319 1.65618,-81.4975 39.40937,-97.51704 37.76793,-16.02839 81.52403,1.65323 97.54946,39.39463 7.76518,18.28279 7.94494,38.50171 0.50393,56.92595 -7.44986,18.4154 -21.62462,32.83476 -39.9133,40.59404 -37.75908,16.02249 -81.52107,-1.65323 -97.54946,-39.39758 m 38.51056,-99.64179 c -38.92902,16.52347 -57.15287,61.62632 -40.63235,100.5406 16.52936,38.91723 61.644,57.13814 100.57007,40.62056 18.85449,-8.00387 33.46834,-22.87116 41.14806,-41.85238 3.7485,-9.28579 5.6198,-19.01362 5.6198,-28.73262 0,-10.16103 -2.05106,-20.32206 -6.13552,-29.9556 -16.52936,-38.91723 -61.64104,-57.14108 -100.57006,-40.62056"
       id="path346"
       style="fill:#00483a;fill-opacity:1;fill-rule:nonzero;stroke:none" />
    <path
       d="m 464.52595,414.0957 c 20.25723,8.18954 36.11764,23.76998 44.6608,43.88282 17.61973,41.51348 -1.81825,89.61925 -43.33763,107.24488 -20.12462,8.53137 -42.3563,8.73176 -62.61059,0.54518 -20.26902,-8.1748 -36.12354,-23.76409 -44.6726,-43.87987 -4.34378,-10.22292 -6.54219,-20.97039 -6.54219,-31.93889 0,-10.48519 2.0157,-20.79947 5.99701,-30.65402 8.19248,-20.25134 23.77293,-36.1147 43.89166,-44.65197 20.11873,-8.53432 42.35041,-8.71998 62.61354,-0.54813 m -63.88956,-2.45185 0,0 c -20.91441,8.88796 -37.1196,25.36722 -45.6333,46.43192 -4.14045,10.24355 -6.23866,20.96744 -6.23866,31.87405 0,11.40464 2.28977,22.57647 6.80742,33.20902 8.88206,20.91735 25.37311,37.12254 46.4437,45.63035 21.0647,8.51075 44.17751,8.30741 65.1037,-0.56876 43.17261,-18.32699 63.39153,-68.34533 45.06454,-111.52088 -8.87912,-20.90556 -25.37312,-37.10487 -46.44076,-45.61856 -21.07353,-8.5137 -44.1834,-8.31036 -65.10664,0.56286"
       id="path350"
       style="fill:#00483a;fill-opacity:1;fill-rule:nonzero;stroke:none" />
    <path
       d="m 503.39838,460.39972 c 16.31424,38.38973 -1.60608,82.72343 -40.01938,99.02882 -38.40152,16.29655 -82.747,-1.61787 -99.0524,-40.01938 -16.30244,-38.39268 1.61787,-82.72343 40.01644,-99.02882 38.41036,-16.29656 82.75584,1.62081 99.05534,40.01938"
       id="path354"
       style="fill:#ddf1f7;fill-opacity:1;fill-rule:nonzero;stroke:none" />
    <path
       d="M 504.47902,459.97359 z M 365.3984,518.99482 c -16.03133,-37.75319 1.65618,-81.4975 39.40937,-97.51704 37.76793,-16.02839 81.52403,1.65323 97.54946,39.39463 7.76518,18.28279 7.94494,38.50171 0.50393,56.92595 -7.44986,18.4154 -21.62462,32.83476 -39.9133,40.59404 -37.75908,16.02249 -81.52107,-1.65323 -97.54946,-39.39758 m 38.51056,-99.64179 c -38.92902,16.52347 -57.15287,61.62632 -40.63235,100.5406 16.52936,38.91723 61.644,57.13814 100.57007,40.62056 18.85449,-8.00387 33.46834,-22.87116 41.14806,-41.85238 3.7485,-9.28579 5.6198,-19.01362 5.6198,-28.73262 0,-10.16103 -2.05106,-20.32206 -6.13552,-29.9556 -16.52936,-38.91723 -61.64104,-57.14108 -100.57006,-40.62056"
       id="path358"
       style="fill:#00483a;fill-opacity:1;fill-rule:nonzero;stroke:none" />
    <path
       d="m 389.1675,506.6003 c 0.20334,0.39194 1.52062,2.92926 1.7328,3.33888 -0.42141,0.31237 -9.20917,6.95771 -9.20917,6.95771 0,0 10.51172,-3.33003 11.00975,-3.48622 0.21218,0.40668 1.62376,3.13259 1.83594,3.53043 -0.39784,0.32711 -15.64823,12.87221 -16.24351,13.3614 -0.30353,-0.58054 -1.94792,-3.75439 -2.16305,-4.16402 0.42436,-0.31237 10.03431,-7.37912 10.03431,-7.37912 0,0 -11.43411,3.57168 -11.93508,3.71903 -0.2004,-0.37721 -1.19057,-2.28093 -1.38801,-2.66698 0.41552,-0.32121 9.82508,-7.5412 9.82508,-7.5412 0,0 -11.32507,3.53042 -11.82605,3.68367 -0.20334,-0.39784 -1.64144,-3.17385 -1.94498,-3.74261 0.74558,-0.21218 19.78278,-5.46952 20.27197,-5.61097"
       id="path362"
       style="fill:#00483a;fill-opacity:1;fill-rule:nonzero;stroke:none" />
    <path
       d="m 386.05907,489.27586 c 0.0796,0.63948 0.54224,4.39683 0.60707,4.88602 -0.46856,0.10314 -2.73475,0.61591 -2.73475,0.61591 l 0.38899,3.16206 c 0,0 2.35755,0.0589 2.81727,0.0648 0.053,0.46267 0.43026,3.50685 0.50688,4.12276 -0.73969,-0.0354 -20.31323,-0.9106 -20.84368,-0.93418 -0.0648,-0.4774 -0.6719,-5.40762 -0.73084,-5.89387 0.50982,-0.15618 19.27885,-5.80841 19.98906,-6.02353 m -14.12171,8.36929 8.29268,0.12967 -0.23576,-2.15716 -8.05692,2.02749 z"
       id="path366"
       style="fill:#00483a;fill-opacity:1;fill-rule:nonzero;stroke:none" />
    <path
       d="m 388.64177,480.62483 z m -17.79949,2.68171 c -1.35559,-0.26522 -2.50784,-1.04616 -3.25637,-2.17778 -0.89586,-1.35264 -1.16404,-3.10902 -0.76915,-5.07168 0.35069,-1.70333 1.22593,-3.10017 2.48427,-3.93121 1.04027,-0.69253 2.27503,-0.93712 3.48033,-0.69548 0,0 1.19646,0.24165 1.78584,0.35953 -0.10609,0.52456 -0.70431,3.50096 -0.8104,4.01078 -0.43026,-0.0796 -1.3998,-0.27701 -1.3998,-0.27701 -0.86345,-0.17682 -1.65617,0.37131 -1.83594,1.27897 -0.16797,0.83987 0.19155,1.84183 1.19351,2.04812 2.2102,0.45088 2.83495,-0.26523 4.88897,-2.61393 l 0.16797,-0.19155 c 1.87131,-2.14537 4.6149,-3.15912 7.17284,-2.63456 1.35854,0.27111 2.51669,1.055 3.27994,2.20136 0.88114,1.32906 1.14931,3.02355 0.7721,4.87423 -0.44204,2.18368 -1.35264,3.78681 -2.63751,4.63847 -0.98427,0.64833 -2.14537,0.83988 -3.44497,0.5835 0,0 -1.41158,-0.29175 -2.04517,-0.41552 0.10609,-0.51866 0.71021,-3.49507 0.81336,-4.01078 0.43025,0.0914 1.47052,0.30059 1.47052,0.30059 1.01964,0.19744 1.85951,-0.43615 2.09527,-1.59135 0.12082,-0.60707 0.0619,-1.0992 -0.18271,-1.47347 -0.23281,-0.34184 -0.60707,-0.56875 -1.13163,-0.67779 -1.73574,-0.35069 -2.74065,0.66601 -4.73867,2.68171 l -0.59233,0.59233 c -1.88899,1.91257 -4.28779,2.69645 -6.76027,2.19252"
       id="path370"
       style="fill:#00483a;fill-opacity:1;fill-rule:nonzero;stroke:none" />
    <path
       d="m 379.08604,449.19724 c 0.53634,0.32711 17.10696,10.25828 17.6433,10.58539 -0.27996,0.46857 -2.18073,3.62473 -2.45775,4.0933 -0.51571,-0.30943 -6.66596,-4.00194 -6.66596,-4.00194 l -1.98919,3.3153 c 0,0 6.14436,3.68956 6.66303,4.00194 -0.27702,0.46561 -2.1719,3.63357 -2.4548,4.09624 -0.54224,-0.32416 -17.10696,-10.26123 -17.6433,-10.58245 0.2829,-0.46856 2.18073,-3.62473 2.46363,-4.09329 0.51866,0.31237 7.36734,4.41451 7.36734,4.41451 l 1.99508,-3.30941 c 0,0 -6.85752,-4.11392 -7.37618,-4.42924 0.27406,-0.46562 2.17484,-3.62473 2.4548,-4.09035"
       id="path374"
       style="fill:#00483a;fill-opacity:1;fill-rule:nonzero;stroke:none" />
    <path
       d="m 389.28361,438.60978 c 0.42436,0.46267 13.60306,14.58439 14.02741,15.05295 -0.39489,0.36247 -3.09428,2.87916 -3.48917,3.25047 -0.4332,-0.45677 -13.606,-14.58438 -14.03036,-15.05 0.39489,-0.35952 3.09428,-2.87915 3.49212,-3.25342"
       id="path378"
       style="fill:#00483a;fill-opacity:1;fill-rule:nonzero;stroke:none" />
    <path
       d="m 408.81118,426.46428 c 0.29175,0.55698 9.07362,17.75529 9.36242,18.31226 -0.47741,0.24754 -3.18859,1.63555 -3.5098,1.79174 -0.31238,-0.25049 -9.60701,-7.62962 -9.60701,-7.62962 0,0 4.79761,9.39483 5.07757,9.94296 -0.47151,0.2446 -3.25637,1.66797 -3.73672,1.91551 -0.27995,-0.56286 -9.07361,-17.77002 -9.35652,-18.33288 0.48035,-0.24165 3.37425,-1.71512 3.69841,-1.88604 0.32121,0.27111 9.5628,7.96556 9.5628,7.96556 0,0 -4.92138,-9.63648 -5.20134,-10.18461 0.46857,-0.24164 3.24458,-1.65617 3.71019,-1.89488"
       id="path382"
       style="fill:#00483a;fill-opacity:1;fill-rule:nonzero;stroke:none" />
    <path
       d="m 421.02034,439.64298 -1.52357,-12.21799 c -0.10314,-0.83399 0.24755,-1.83595 0.95776,-2.75244 1.13162,-1.45284 2.94988,-2.43122 4.98621,-2.68761 2.00097,-0.24165 3.95774,0.24755 5.37521,1.35265 0.92829,0.72494 1.51767,1.62081 1.62082,2.48132 0,0 0.30648,2.41648 0.39489,3.17385 -0.53929,0.0619 -4.37031,0.54518 -4.91549,0.60706 -0.0619,-0.51276 -0.31827,-2.56678 -0.31827,-2.56678 -0.0884,-0.722 -0.76915,-1.14046 -1.65618,-1.03437 -0.88703,0.11493 -1.47052,0.70432 -1.37622,1.40863 l 1.35264,10.88009 c 0.0796,0.6719 0.74558,1.27897 1.84773,1.14046 0.71316,-0.0913 1.07858,-0.38604 1.26719,-0.6218 0,0 0.31532,-0.43025 0.24164,-0.94302 -0.0589,-0.50982 -0.29469,-2.40175 -0.29469,-2.40175 0,0 -1.10215,0.13556 -1.50294,0.1886 -0.0589,-0.4774 -0.27701,-2.19252 -0.333,-2.66697 0.56581,-0.0737 5.67874,-0.70727 6.24456,-0.77799 0.0737,0.59233 1.15814,9.31231 1.22887,9.90465 -0.48625,0.0619 -2.29566,0.29174 -2.60804,0.32711 -0.16208,-0.23281 -0.94891,-1.37917 -0.94891,-1.37917 l -0.2446,0.49803 c -0.333,0.65717 -1.94203,1.80647 -3.40371,1.98624 -3.63946,0.45382 -6.11194,-1.62671 -6.3919,-3.8988"
       id="path386"
       style="fill:#00483a;fill-opacity:1;fill-rule:nonzero;stroke:none" />
    <path
       d="m 440.78101,422.08072 c 0.60118,0.11493 11.48421,2.23672 12.07949,2.3546 -0.0972,0.50098 -0.59528,3.06776 -0.69253,3.56579 -0.53929,-0.10314 -3.65125,-0.71021 -3.65125,-0.71021 0,0 -3.11196,15.99597 -3.23574,16.62072 -0.53634,-0.1002 -4.15517,-0.81041 -4.68562,-0.9165 0.12082,-0.61591 3.23573,-16.61188 3.23573,-16.61188 0,0 -3.20626,-0.63359 -3.74261,-0.73673 0.0972,-0.50393 0.59234,-3.06776 0.69253,-3.56579"
       id="path390"
       style="fill:#00483a;fill-opacity:1;fill-rule:nonzero;stroke:none" />
    <path
       d="m 463.07134,432.98173 c 0,0 -0.43025,0.0825 -0.6778,0.55402 -0.25049,0.47151 -5.23375,9.78088 -5.23375,9.78088 -0.33301,0.63064 -0.0354,1.37622 0.70726,1.77406 0.40963,0.21512 0.83988,0.27406 1.20235,0.16797 0,0 0.35069,-0.0766 0.6778,-0.56286 0.32711,-0.47446 5.23081,-9.78383 5.23081,-9.78383 0.0943,-0.16798 0.13556,-0.34479 0.13556,-0.5334 0,-0.47445 -0.30354,-0.94596 -0.85462,-1.23476 -0.39488,-0.22102 -0.82514,-0.27701 -1.18761,-0.16208 m -7.10211,15.6718 c -1.77111,-0.94891 -3.06482,-2.41649 -3.55696,-4.03435 -0.36247,-1.17288 -0.26817,-2.3163 0.26228,-3.30941 l 5.55497,-10.39384 c 1.30255,-2.43417 4.78877,-3.01767 7.94494,-1.33791 3.14733,1.6827 4.59133,4.9037 3.28878,7.34376 l -5.55202,10.38795 c -0.53929,0.99312 -1.43516,1.70627 -2.60509,2.06285 -1.61787,0.48919 -3.5658,0.23281 -5.3369,-0.71905"
       id="path394"
       style="fill:#00483a;fill-opacity:1;fill-rule:nonzero;stroke:none" />
    <path
       d="m 464.25954,433.14351 0.006,0 -0.006,0 z"
       id="path398"
       style="fill:#00483a;fill-opacity:1;fill-rule:nonzero;stroke:none" />
    <path
       d="m 479.61779,439.27461 c 0.36837,0.40373 2.55205,2.79959 2.80549,3.07366 -0.17682,0.3772 -5.16304,11.32507 -5.16304,11.32507 0,0 8.00093,-7.29661 8.45771,-7.70624 0.35953,0.38605 2.4548,2.68172 2.81138,3.0766 -0.46562,0.42142 -14.74058,13.42919 -15.20914,13.86239 -0.36247,-0.39489 -2.40764,-2.64635 -2.6434,-2.91747 0.15914,-0.37131 4.81824,-11.26613 4.81824,-11.26613 0,0 -7.7917,7.09622 -8.24847,7.51763 -0.36248,-0.40078 -2.47543,-2.71413 -2.82906,-3.10607 0.45972,-0.41552 14.74057,-13.43213 15.20029,-13.85944"
       id="path402"
       style="fill:#00483a;fill-opacity:1;fill-rule:nonzero;stroke:none" />
    <path
       d="m 492.26015,455.13473 c 0.25638,0.46266 1.78289,3.22689 2.04222,3.69251 -0.48624,0.26817 -3.57168,1.98034 -3.82217,2.11 -0.26523,-0.11788 -3.60705,-1.57956 -3.79271,-1.66207 -0.0501,-0.0884 -0.20039,-0.35363 -0.38605,-0.69548 0.88408,0.17682 3.44497,0.69253 3.44497,0.69253 0,0 -0.93713,-1.69743 -1.16109,-2.10116 0.46267,-0.25639 3.20626,-1.77406 3.67483,-2.03633"
       id="path406"
       style="fill:#00483a;fill-opacity:1;fill-rule:nonzero;stroke:none" />
    <path
       d="m 478.17262,476.91022 z m 6.33885,-0.23281 c 1.70333,-0.51866 2.10412,-1.87719 2.92042,-4.609 l 0.23281,-0.79568 c 0.76915,-2.58151 2.51962,-4.40272 4.93906,-5.12472 1.31139,-0.39489 2.69939,-0.25638 3.90174,0.38605 1.42042,0.7721 2.48427,2.19547 3.06776,4.11982 0.1945,0.67779 0.30059,1.34675 0.30059,1.99802 0,0.94302 -0.22102,1.84183 -0.64243,2.63751 -0.59234,1.09626 -1.56188,1.89782 -2.74065,2.25146 0,0 -1.16994,0.34773 -1.74754,0.51866 -0.15324,-0.50393 -1.01964,-3.41256 -1.17288,-3.91648 0.41552,-0.12672 1.35854,-0.40373 1.35854,-0.40373 0.68369,-0.21218 1.09921,-0.80746 1.09921,-1.48526 0,-0.17092 -0.0236,-0.34774 -0.0707,-0.51866 -0.25343,-0.82219 -1.04616,-1.5324 -2.02454,-1.24066 -2.16305,0.64833 -2.37523,1.56483 -3.07071,4.60017 l -0.0589,0.26228 c -0.64243,2.76127 -2.59035,4.95379 -5.08346,5.70232 -1.32907,0.39489 -2.72297,0.25638 -3.94006,-0.39784 -1.40274,-0.75736 -2.43416,-2.12179 -2.9764,-3.94005 -0.29764,-0.99312 -0.44204,-1.91846 -0.44204,-2.76128 0,-0.97544 0.19155,-1.84184 0.58055,-2.56678 0.55991,-1.03732 1.48525,-1.75932 2.76422,-2.13358 0,0 1.37622,-0.42141 1.99508,-0.60707 0.15029,0.51276 1.02553,3.4155 1.17582,3.92237 -0.42435,0.12966 -1.4381,0.4332 -1.4381,0.4332 -0.45088,0.13261 -0.80157,0.41257 -1.00491,0.79862 -0.1385,0.25049 -0.20333,0.53929 -0.20333,0.85461 0,0.22691 0.0354,0.47446 0.11198,0.73084 0.34184,1.14046 1.11394,1.59724 2.16894,1.28486"
       id="path410"
       style="fill:#00483a;fill-opacity:1;fill-rule:nonzero;stroke:none" />
    <path
       d="m 410.29084,531.96929 c 0.0118,0.12083 4.10803,1.95677 4.11687,1.96266 -0.12672,0.009 -6.73964,14.73468 -6.73964,14.73468 l -0.0413,0.10314 c 0,0 4.20233,1.88899 4.21707,1.88899 -0.11788,0.009 -1.67976,3.48622 -1.67976,3.48622 -0.006,-0.11788 -8.22784,-3.81039 -8.23374,-3.81333 0.12083,0 8.33689,-18.30342 8.36046,-18.36236"
       id="path414"
       style="fill:#00483a;fill-opacity:1;fill-rule:nonzero;stroke:none" />
    <path
       d="m 425.10037,541.67178 c 0.11198,-0.71316 -0.15029,-1.10805 -0.77504,-1.2495 -0.48035,-0.11493 -1.13457,-0.0589 -1.31139,0.84872 l -0.18566,0.85461 -1.94792,10.26418 c -0.17682,0.90176 0.40962,1.20824 0.90471,1.27602 0.59528,0.0943 0.96365,-0.15029 1.14341,-0.75736 0,0 2.15126,-11.08932 2.17189,-11.23667 m -4.05793,15.62171 c -1.59724,-0.30943 -3.01766,-1.22593 -3.90469,-2.53142 -0.63064,-0.93123 -0.90471,-1.95971 -0.74263,-2.82317 l 2.26914,-11.85257 c 0.16503,-0.85756 0.79273,-1.71512 1.72985,-2.34871 1.30255,-0.88113 2.96462,-1.21414 4.56775,-0.90765 1.58546,0.30648 2.99704,1.21119 3.87817,2.50784 0.63654,0.94596 0.9106,1.9715 0.74558,2.832 l -2.26914,11.85847 c -0.37721,1.99508 -3.20038,3.84575 -6.27403,3.26521"
       id="path418"
       style="fill:#00483a;fill-opacity:1;fill-rule:nonzero;stroke:none" />
    <path
       d="m 424.25018,540.51717 0,0 -0.0147,-0.009 0.0147,0.009 z"
       id="path422"
       style="fill:#00483a;fill-opacity:1;fill-rule:nonzero;stroke:none" />
    <path
       d="m 443.35605,537.42672 0.25638,3.48623 -3.05303,0.2328 1.29371,16.66198 c 0,0 -4.54123,0.26227 -4.55007,0.26227 0.009,0 -1.27602,-16.52936 -1.27602,-16.52936 l -3.25637,0.23576 -0.25049,-3.54517 10.83589,-0.80451 z"
       id="path426"
       style="fill:#00483a;fill-opacity:1;fill-rule:nonzero;stroke:none" />
    <path
       d="m 456.5536,532.95357 1.18172,3.06481 -2.9263,1.15225 6.27992,15.49794 c 0,0 -4.25833,1.61492 -4.26127,1.61492 0.003,0 -6.07069,-15.44489 -6.07069,-15.44489 l -3.11491,1.23476 -1.18467,-3.1267 10.0962,-3.99309 z"
       id="path430"
       style="fill:#00483a;fill-opacity:1;fill-rule:nonzero;stroke:none" />
    <path
       d="m 466.40698,525.72179 1.93613,2.76128 -3.54221,2.6375 2.57856,3.65126 2.555,-1.75048 2.14537,3.05892 -2.37229,1.63849 2.72887,3.85754 3.76913,-2.65814 2.15715,3.05892 -7.35555,5.32217 -11.94687,-16.27298 7.34671,-5.30448 z"
       id="path434"
       style="fill:#00483a;fill-opacity:1;fill-rule:nonzero;stroke:none" />
    <path
       d="m 474.9304,521.44962 c -0.34185,0.43614 -0.78683,0.99901 -0.78683,0.99901 l 3.81922,3.05302 0.91061,-0.97838 c 0.35952,-0.48035 0.30353,-0.91355 -0.17682,-1.28487 0,0 -2.07464,-1.57366 -2.48427,-1.93613 -0.41257,-0.35069 -0.94596,-0.29175 -1.28191,0.14735 m -2.47248,-2.73476 0,0 c 1.26423,-1.60903 2.0157,-1.85952 3.13848,-1.99508 0.85756,-0.10609 1.67386,0.12967 2.41355,0.71611 l 3.48622,2.70234 c 0.75147,0.59233 1.0049,1.57366 0.71021,2.76128 l -0.0589,0.2387 0.22397,-0.11493 c 1.10805,-0.58939 2.20136,-0.61296 2.90862,-0.0648 0.006,0 6.00586,4.42924 6.00586,4.42924 l -2.68171,3.24458 -5.74358,-4.2819 c -0.35068,-0.26817 -0.90766,-0.28585 -1.36738,0.30648 l -0.70726,0.89292 6.38306,5.10704 -2.888,3.53632 -15.84567,-12.48616 4.02257,-4.99211 z"
       id="path438"
       style="fill:#00483a;fill-opacity:1;fill-rule:nonzero;stroke:none" />
    <path
       d="m 480.94215,501.62794 c 0.2328,0.19744 9.19443,7.82116 9.19443,7.82116 l 8.0304,3.29763 -1.55598,4.0314 -8.05987,-3.11196 -12.05591,-0.52456 1.49115,-3.78681 7.7416,0.65128 c 0,0 -6.36538,-4.48819 -6.37717,-4.48819 0.0796,0 1.32907,-3.20626 1.59135,-3.88995"
       id="path442"
       style="fill:#00483a;fill-opacity:1;fill-rule:nonzero;stroke:none" />
    <path
       d="m 432.73175,481.90587 c -2.62572,-3.75735 -5.00684,-7.51469 -3.97246,-14.11288 0.53634,-3.45675 5.69937,-4.95674 8.43118,-2.38407 3.10607,2.9322 5.34279,3.15322 8.26026,2.59036 3.95479,-0.75736 6.83689,2.499 6.17383,5.40173 -0.65717,2.87916 -9.79562,10.15514 -9.79562,10.15514 -3.887,3.8988 -0.88702,5.0481 0.6336,3.69251 0.6719,-0.60707 3.887,-4.10803 8.0746,-6.13847 6.14731,-2.98819 10.10209,2.13653 8.10112,5.79073 -1.95676,3.55106 -2.90273,5.84378 -1.39684,9.31232 2.51963,5.81136 -7.77991,10.52056 -11.85847,3.62768 -0.25049,-0.45089 -2.41354,-4.33495 -3.81923,-4.33495 -0.61886,0 -1.07858,0.23871 -1.31728,0.67191 -0.37131,0.69547 -0.10609,1.78289 0.73968,3.06775 3.05008,4.59133 4.27895,11.52252 4.27895,13.64432 0,1.388 -0.1945,2.45774 -1.60608,2.74654 0,0 -1.23476,0.3389 -2.1159,0.39489 -0.46856,0.0324 -0.79272,-0.25344 -0.81925,-0.96954 -0.0206,-0.71905 0.0589,-1.72101 0.12967,-2.66109 0.25638,-3.30056 -0.28291,-14.13644 -4.04025,-14.13644 -0.76326,0 -1.29665,0.17976 -1.6326,0.55107 -0.5835,0.64538 -0.46856,1.7829 -0.32711,3.23868 l 0.1444,3.17385 c -0.20039,3.94006 -1.4941,6.33297 -3.95184,7.31724 -2.41354,0.9666 -5.49898,-1.69154 -7.34966,-4.57953 -1.1493,-1.80942 -2.31629,-2.02455 -3.79271,-2.31335 -3.1208,-0.59233 -4.71215,-0.97249 -5.19544,-3.25636 -0.26817,-1.23182 0.28585,-2.72886 1.55893,-4.22001 1.91845,-2.24262 7.52647,-3.24458 9.9459,-3.50096 3.0825,-0.31827 5.27502,-0.64833 4.45282,-1.99213 -1.02848,-1.69449 -3.22984,-1.39979 -5.97344,-0.85166 -1.76521,0.35068 -7.76517,1.43515 -10.95965,0.58644 -3.43613,-0.91355 -5.01274,-3.10313 -4.33789,-5.99997 0.39194,-1.64144 2.25146,-3.26815 3.71019,-4.30547 1.45579,-1.02553 2.54321,-3.68367 2.53437,-5.29859 0,-1.30844 0,-2.79369 0.52455,-4.10803 0.97839,-2.44595 3.86049,-2.79369 6.9253,-0.70137 1.94203,1.33791 5.1984,7.37324 6.12963,9.22391 1.09331,2.17779 3.17385,5.75537 4.34083,5.35164 0.66896,-0.22986 1.87425,-0.78684 -0.82809,-4.67384"
       id="path446"
       style="fill:#00483a;fill-opacity:1;fill-rule:nonzero;stroke:none" />
  </g>
</svg>
