<svg enable-background="new 0 0 82 73.021" height="298.369553" viewBox="0 0 82 73.021" width="335.154841" xmlns="http://www.w3.org/2000/svg"><path d="m13.224 47.021c-.243 1.756-1.13 3.549-2.609 3.549-.941 0-1.641-.573-1.641-3.514v-3.461c0-3.943.498-4.267 1.493-4.267 1.372 0 2.232 2.062 2.582 3.586h.43v-4.411h-.349l-.727.555c-.134.108-.242.234-.403.234-.242 0-.417-.197-.659-.305-.672-.305-1.076-.484-1.802-.484-2.717 0-4.895 2.726-4.895 6.383 0 4.018 2.071 6.581 5.043 6.581 2.125 0 3.712-1.542 3.954-4.446zm-6.456-6.453c-2.299 5.479.124 8.773.124 8.773-2.967-3.706-.866-8.032-.124-8.773z" fill="#fff"/><path d="m19.047 41.731h-2.284l-2.251 7.704c-.174.588-.437 1.395-.787 1.395h-.251v.369h2.099v-.369h-.295c-.284 0-.722-.301-.416-1.326l.438-1.461h2.207l.776 2.787h-.787v.369h4.853v-.369h-.601zm-3.65 5.943.994-3.471 1.005 3.471zm3.42 3.027-2.039-6.797.124-.803 2.348 7.6z" fill="#fff"/><path d="m28.521 41.731h-5.618v.369h.831v8.73h-.853v.369h5.159v-.369h-1.017v-3.512h1.498c2.35 0 3.137-1.475 3.137-2.814 0-1.311-.787-2.773-3.137-2.773zm-3.833 8.857h-.371v-8.104h.371zm3.538-5.154c0 1.092-.306 1.517-.787 1.517h-.416v-4.851h.35c.677 0 .853.738.853 1.367zm1.096-.046c0 .514-.468.983-.626 1.128-.033.029-.053.047-.053.047.018-.009.035-.025.053-.047.099-.132.183-.504.221-.949.07-.814 0-1.869 0-2.094 0-.371.035-.68-.212-.989.309 0 .618.68.618 1.051-.001.369-.001 1.42-.001 1.853z" fill="#fff"/><path d="m32.464 42.1h.831v8.73h-.831v.369h5.049v-.369h-.831v-8.73h.831v-.368h-5.049zm1.431.384h.371v8.104h-.371z" fill="#fff"/><path d="m38.256 41.731-.055 3.483h.339c.251-1.339.753-2.979 2.033-3.115v8.73h-1.005v.369h5.366v-.368h-.994v-8.73c1.279.137 1.781 1.776 2.033 3.115h.339l-.056-3.483h-8zm3.181 8.857h-.371v-8.104h.371z" fill="#fff"/><path d="m52.529 41.731h-2.284l-2.252 7.704c-.175.588-.437 1.395-.787 1.395h-.252v.369h2.1v-.369h-.295c-.285 0-.721-.301-.416-1.326l.438-1.461h2.207l.777 2.787h-.787v.369h4.853v-.369h-.601zm-3.652 5.943.995-3.471 1.005 3.471zm3.633 3.027-2.039-6.797.123-.803 2.348 7.6z" fill="#fff"/><path d="m61.04 50.83h-.502v-8.73h.961v-.368h-5.137v.368h.832v8.73h-.832v.369h7.477v-3.758h-.316c-.329 1.707-.832 3.389-2.483 3.389zm-2.861-.242h-.37v-8.104h.37z" fill="#fff"/><path d="m71.702 43.758-2.854-1.865c-.561-.376-1.482-.771-1.482-1.738 0-.808.656-1.166 1.188-1.166 1.764 0 3.049 1.686 3.75 3.622h.377l-.113-4.106h-.32l-1.512.735c-.699-.431-1.453-.735-2.236-.735-1.959 0-3.428 1.506-3.428 4.125 0 1.953 1.035 3.514 3.064 4.68l1.063.609c.629.357 1.537.807 1.537 1.864 0 .896-.754 1.2-1.342 1.2-1.902 0-3.273-1.846-3.973-3.961h-.447l.098 4.446h.35l1.512-.843c.67.466 1.469.843 2.236.843 2.029 0 4.197-.95 4.197-4.017-.001-1.668-.771-3.101-1.665-3.693zm-.362 5.739c.186-1.112-1.576-2.226-3.893-3.8-2.316-1.576-1.76-3.894-1.482-4.543-.186.742 0 2.133.557 3.152.555 1.02 3.102 2.398 3.707 2.965.742.696 1.391 1.391 1.111 2.226z" fill="#fff"/><path d="m54.891 30.741-.883-.322v-1.343c-.08-.535-.809-.343-1.141-.61-.593-5.062-4.32-9.831-9.447-12.03-.238-.124-.188-1.266-.188-1.266s-.646-.447-1.561-.646v-.944c-.194-.168-.747-.323-.747-.323v-1.64s.568-.098.72-.306v-1.373s-.523-.14-.748-.211c-.001-.001-.005-.004-.005-.004l-.117-2.153c-.125-.149-.546-.245-.546-.245l-.559-1.17.334-.187-.011-.608s-.36-.324-.523-1.374c-.138-.038-.238-.321-.285-.276 0 .001 0 .003-.001.001 0 .001 0 .002 0 0-.045-.05-.147.237-.286.275-.163 1.05-.523 1.374-.523 1.374l-.012.608.335.187-.559 1.17s-.423.096-.546.245l-.119 2.152s-.004.003-.005.004c-.224.071-.747.211-.747.211v1.374c.151.208.72.306.72.306v1.64s-.552.155-.746.323v.944c-.916.199-1.561.646-1.561.646s.049 1.143-.187 1.266c-5.128 2.2-8.856 6.969-9.449 12.03-.332.267-1.061.075-1.141.61v1.343l-.882.322v2.162l-1.007.472c-.009.415-.054.72-.098 1.038-.031.229-.061.464-.075.751h2.111c-.02-.15-.041-.253-.061-.289 2.402-.674 4.957-1.235 7.428-1.489.626-.093 1.512-.182 2.537-.257v.004c.024-.003.05-.006.074-.009 1.439-.103 3.144-.177 4.794-.192h.011c1.651.015 3.355.089 4.794.192.024.003.05.006.074.009 0-.001 0-.003 0-.004 1.024.075 1.91.164 2.536.257 2.472.254 5.027.815 7.428 1.489-.021.04-.04.143-.053.289h1.834c0-.004.001-.009.002-.015.014-.597.108-1.16.094-1.775l-1.006-.472v-2.161zm-4.429-3.911c-.497-.214-.886-.289-1.112-.353l.354-.144c-.267-1.973-1.26-4.531-2.726-6.742.647.546 3.005 4.125 3.484 7.239zm-2.874-4.291c-.139.037-.27-.052-.345-.155-.034-.114.042-.19.136-.24.154-.038.27.052.345.154.079.128-.073.177-.136.241zm-.062 3.509c-.497-.117-.886-.115-1.113-.136l.355-.214c-.151-1.079-.833-4.084-2.219-6.902.321.225 2.497 4.232 2.977 7.252zm-2.967-4.593c.154-.037.27.053.345.155.079.127-.072.178-.136.241-.139.038-.27-.053-.345-.155-.033-.114.042-.19.136-.241zm-.119 4.142c-.484-.089-.863-.14-1.088-.146l.364-.239c-.087-1.086-.586-4.229-1.791-7.006.302.21 2.218 4.354 2.515 7.391zm-2.484-4.056c-.139.037-.27-.053-.345-.155-.033-.115.042-.19.136-.241.153-.037.27.052.345.155.078.127-.074.177-.136.241zm-2.773-10.871c.378 0 1.026.061 1.363.298-.061.127-.209.102-.307.153v1.942l-.508-.049c-.063-.064-.216-.189-.216-.278l-.081-.694.002-.382s-.099-.042-.254-.038c-.157-.004-.252.038-.252.038v.382l-.08.694c0 .089-.154.214-.217.278l-.507.049v-1.942c-.099-.051-.246-.025-.307-.153.336-.237.972-.298 1.364-.298zm.673 3.559-.695-.056-.695.056c-.19-.192-.085-.448.099-.465l.596-.036.596.036c.185.017.288.273.099.465zm-3.976 2.077c.519-.283 1.955-.73 3.322-.74 1.367-.008 2.894.416 3.322.74.054.041.173.053.123.069-1.064-.214-2.321-.44-3.445-.435s-2.381.221-3.444.435c-.051-.016.062-.037.122-.069zm3.798 1.695c.273.174 1.614 4.199 1.49 7.302-.472-.025-.844-.025-1.068 0l.397-.298c.064-1.113 0-4.297-.819-7.004zm-.504 3.428c-.147.037-.26-.053-.313-.155-.01-.115.08-.19.185-.241.161-.038.26.053.313.154.053.128-.109.178-.185.242zm-1.384 3.576.397.298c-.223-.025-.596-.025-1.068 0-.125-3.103 1.217-7.128 1.49-7.302-.819 2.707-.883 5.891-.819 7.004zm-1.114-3.619c-.075.102-.206.192-.346.155-.062-.063-.213-.114-.135-.241.075-.103.192-.192.346-.155.093.05.168.126.135.241zm-.315-3.18c-1.205 2.777-1.704 5.919-1.791 7.006l.364.239c-.224.006-.604.056-1.088.146.297-3.037 2.213-7.181 2.515-7.391zm-2.498 3.49c-.075.102-.206.192-.345.155-.063-.063-.214-.114-.136-.241.075-.102.191-.192.345-.155.094.051.169.127.136.241zm-2.345 4.002.356.214c-.229.021-.616.019-1.113.136.479-3.02 2.656-7.027 2.976-7.251-1.386 2.817-2.067 5.822-2.219 6.901zm-.821-3.159c-.062-.063-.214-.113-.136-.241.076-.103.192-.192.346-.154.094.05.168.126.135.24-.074.102-.205.192-.345.155zm.611-2.948c-1.466 2.211-2.459 4.769-2.727 6.742l.357.144c-.229.064-.617.139-1.114.353.48-3.114 2.837-6.693 3.484-7.239zm-3.233 8.064c2.061-.594 6.549-1.507 11.127-1.546 4.578-.037 9.066.952 11.126 1.546.223.064.581.221.412.283-3.563-.88-7.773-1.304-11.539-1.281-3.766.022-7.975.401-11.538 1.281-.168-.062.19-.219.412-.283zm-.603 1.241c2.171-.594 6.904-1.507 11.73-1.545 4.826-.037 9.558.951 11.73 1.545.235.065.613.221.434.284-3.756-.88-8.193-1.304-12.164-1.282-3.969.022-8.408.401-12.164 1.282-.179-.062.199-.219.434-.284zm24.525 1.125v1.093l-.785-.131v-1.092zm-1.823-.384v1.093l-.828-.15v-1.093zm-1.89-.332v1.093l-.932-.13v-1.093zm-2.075-.31v1.093l-.994-.114v-1.092zm-2.136-.229v1.093l-.993-.057v-1.093zm-2.136-.149v1.093l-.993-.037v-1.093zm-2.136-.086v1.093h-.993v-1.093zm-2.135.05v1.093l-.994.037v-1.093zm-2.137.128v1.093l-.993.057v-1.093zm-2.135.173v1.092l-.994.114v-1.093zm-2.136.293v1.093l-.932.13v-1.093zm-1.995.312v1.093l-.828.15v-1.093zm-2.65.534.784-.13v1.092l-.784.131zm25.821 2.14c-4.087-.958-8.914-1.419-13.232-1.395s-9.146.437-13.231 1.395c-.194-.068.215-.238.471-.309 2.363-.647 7.511-1.639 12.76-1.681s10.396 1.034 12.759 1.681c.256.07.667.24.473.309z" fill="#fff"/><path d="m39.426 33.651h-.484c-.196 0-.354.159-.354.354v1.159h1.192v-1.159c-.001-.195-.159-.354-.354-.354z" fill="#fff"/><path d="m42.179 33.676-.483-.025c-.196-.01-.355.14-.355.336v1.177h1.193v-1.115c0-.195-.159-.362-.355-.373z" fill="#fff"/><path d="m44.932 33.971-.482-.026c-.197-.01-.355.14-.355.335v.884h1.193v-.821c0-.195-.16-.362-.356-.372z" fill="#fff"/><path d="m48.042 34.644c0-.195-.159-.372-.354-.395l-.485-.055c-.195-.022-.354.118-.354.313v.657h1.192v-.52z" fill="#fff"/><path d="m50.433 35.089c0-.195-.138-.373-.31-.395l-.423-.055c-.171-.022-.31.118-.31.313v.212h1.042v-.075z" fill="#fff"/><path d="m36.672 33.651-.484.025c-.195.011-.354.177-.354.373v1.115h1.192v-1.177c0-.196-.159-.346-.354-.336z" fill="#fff"/><path d="m33.918 33.945-.484.026c-.195.01-.354.177-.354.373v.821h1.192v-.885c0-.195-.159-.345-.354-.335z" fill="#fff"/><path d="m31.518 34.507c0-.195-.158-.335-.354-.313l-.484.056c-.196.023-.354.199-.354.395v.52h1.191v-.658z" fill="#fff"/><path d="m28.977 34.952c0-.195-.139-.335-.31-.313l-.423.055c-.171.022-.309.199-.309.395v.075h1.042z" fill="#fff"/><g fill="#bb8748"><path d="m77.422 34.204h-16.007l3.543-3.188 4.65 2.217c.33.166.689.18.963.038l2.643-1.029c.408-.185.549-.444.49-.899-.002-.012-1.346-6.276-1.514-7.059l5.619-6.254c.547-.53.764-1.028.592-1.358-.084-.161-.336-.409-1.078-.264-.939.183-5.92 1.218-6.83 1.408l-2.16-7.291c-.104-.501-.705-.755-1.193-.45l-3.221 2.17c-.201.14-.254.26-.334.486 0 0-2.551 6.995-2.607 7.155l-5.068 1.156c-.604.175-1.166.655-1.189.675.004-.004-.816.637-1.152.9-.268-.502-.566-.999-.892-1.486l11.652-14.692.133-.002c.363.008.527-.096.775-.414l1.602-2.315c.281-.521.148-.905-.078-1.191l-1.99-2.198c-.267-.279-.405-.319-.866-.319l-2.961.016c-.383.044-.626.189-.773.397l-1.467 2.026c-.297.376-.484.743-.164.963l.195.213c-3.799 4.679-7.264 8.947-10.426 12.841-.788-.604-1.717-1.184-2.908-1.73l-.033-.588-.165-.229c-.31-.427-.851-.742-1.317-.946-.01-.279-.111-.521-.27-.725.057-.069.272-.391.272-.391v-3l-.863-.648-.124-1.719-.016-.069c-.08-.361-.23-.648-.438-.854l-.202-1.38-.341-.024c-.037-.212-.125-.457-.338-.674-.091-.093-.196-.169-.311-.229-.376-.764-1.14-1.765-1.943-1.874-1.015-.137-1.833 1.052-2.213 1.88-.111.058-.211.132-.301.222-.213.217-.301.462-.339.674-.176.013-.341.025-.341.026l-.201 1.378c-.208.206-.357.494-.438.854l-.016.07-.123 1.718-.864.648v3.001s.217.322.274.391c-.159.204-.261.446-.271.726-.465.203-1.007.519-1.317.945l-.166.229-.032.588c-1.182.542-2.105 1.117-2.891 1.716-3.159-3.891-6.619-8.153-10.414-12.827l.194-.213c.32-.22.134-.586-.163-.963l-1.467-2.026c-.148-.208-.393-.353-.774-.397l-2.96-.016c-.459 0-.6.04-.865.318l-1.99 2.198c-.227.286-.358.671-.078 1.191l1.6 2.315c.249.318.413.422.777.414l.133.002 11.638 14.672c-.32.477-.614.963-.878 1.454-.367-.287-1.09-.852-1.086-.848-.023-.021-.586-.5-1.189-.675l-5.067-1.156c-.059-.16-2.639-7.251-2.639-7.251-.032-.136-.194-.331-.304-.39l-3.119-2.102c-.707-.427-1.161 0-1.294.381l-2.161 7.291c-.909-.189-5.89-1.225-6.829-1.408-.743-.145-.995.104-1.079.264-.174.33.045.829.591 1.359l5.62 6.254c-.168.783-1.514 7.047-1.516 7.059-.113.444.083.714.491.899l2.658 1.035-.015-.006c.272.142.634.127.964-.038l4.649-2.217 3.543 3.188h-16.008c-.541.015-.7.385-.691 1.065v17.676c0 .492.391.971.892.891 1.562-.26 2.664.01 2.673.965 0 .492.399.892.892.892l11.897-.005c-.138.184-.259.348-.364.495-8.677 1.56-14.816 4.499-14.816 4.499-.694.156-.533.717-.533 1.385l.13 7.045c-.002-.228-.018.32.275.469l3.171 1.266c.427.16.678.067.953-.153 8.03-4.64 13.484-7.104 13.484-7.104l3.887-4.88 2.268-2.982h6.131c-.743.186-2.415.744-2.415.744-4.273 1.61-4.126 3.713-4.126 3.713l.649 6.688c.031.74.297 1.782 1.312 2.798 2.472 2.472 8.002 3.353 12.354 3.353s9.881-.881 12.353-3.353c1.015-1.015 1.28-2.056 1.312-2.797l.67-6.647s.188-2.392-4.127-3.713c0 0-1.672-.558-2.415-.744h6.131l2.808 3.328 3.607 4.493s5.455 2.464 13.484 7.104c.275.221.527.313.953.153l3.172-1.266c.291-.148.277-.696.275-.469l.129-7.045c0-.668.16-1.229-.531-1.385 0 0-5.701-2.887-14.818-4.499-.104-.146-.225-.309-.359-.491l12 .001c.492 0 .893-.399.893-.892.008-.955 1.068-1.225 2.629-.965.502.08.893-.398.893-.891v-17.676c.006-.68-.155-1.05-.696-1.065zm-25.998 24.843c.527.526.793 1.094.793 1.687 0 .017-.648 6.009-.648 6.009 0 .615-.277 1.205-.823 1.751-1.808 1.809-6.396 2.978-11.689 2.978s-9.88-1.169-11.688-2.978c-.546-.546-.824-1.136-.824-1.751 0 0-.648-5.992-.648-6.009 0-3.071 6.78-4.728 13.16-4.728 5.578 0 10.547 1.222 12.367 3.041zm25.729-6.082c-1.611-.2-3.293 0-3.453 1.767h-13.778l1.943 2.393c5.322.89 9.098 2.028 14.43 4.354l.195.085-.164 7.252c-.086.035-2.832 1.124-2.832 1.124l-.135-.077c-8.098-4.68-13.305-7.029-13.357-7.053l-6.404-8.077h-28.801l-6.406 8.077c-.051.023-5.259 2.373-13.357 7.053l-.134.077s-2.745-1.089-2.832-1.124l-.165-7.252.197-.085c5.332-2.325 9.108-3.464 14.43-4.354l1.942-2.393h-13.368c-.202-1.706-1.624-2.147-3.745-1.786v-17.782h17.951l-5.67-5.101-5.331 2.53-2.77-1.096 1.6-7.444-6.162-6.862 7.547 1.557 2.37-7.998 3.197 2.158 2.788 7.66 5.723 1.325 1.948 1.473-5.152 3.417 2.196 5.638.479-.203.002-2.146c.254-.295.86-.425.86-.425v-1.566c.234-.441.93-.294 1.234-.549.229-2.095 1.208-4.381 2.729-6.461l-12.362-15.587-.589-.008-1.601-2.315 1.99-2.199c.063 0 3.111.014 3.111.014.042.059 1.466 2.026 1.466 2.026-.087.086-.549.541-.549.541l11.574 14.255c1.028-.895 2.2-1.693 3.954-2.43l.05-.894c.281-.388 1.091-.739 1.496-.832v-.634c0-.278.52-.503.714-.561l.008-.313c-.473-.208-.722-.58-.722-.58v-2.254s.428-.352.822-.484l.158-2.196c.042-.187.168-.562.44-.415-.027-.388.033-.696.097-1.125.883-.062-.003-1.025.869-1.031.08-.441.885-1.786 1.359-1.722.475.064 1.28 1.28 1.36 1.722.873.005-.014.969.87 1.031.063.428.124.736.097 1.125.272-.147.398.228.439.415l.158 2.196c.393.132.821.484.821.484v2.256s-.25.372-.722.58l.007.313c.195.057.715.282.715.561v.634c.405.093 1.215.444 1.496.832l.051.894c1.763.741 2.938 1.544 3.97 2.445l11.587-14.272s-.463-.455-.551-.541c0 0 1.424-1.968 1.467-2.026 0 0 3.047-.013 3.109-.014l1.99 2.199-1.6 2.315-.59.008-12.376 15.606c1.512 2.074 2.485 4.353 2.715 6.441.303.254 1 .107 1.234.549v1.566s.605.13.859.425l.002 2.146.561.237 2.209-5.671-5.152-3.417 1.947-1.473 5.725-1.325 2.787-7.66 3.197-2.158 2.369 7.998 7.549-1.557-6.162 6.862 1.598 7.444-2.768 1.096-5.332-2.53-5.67 5.101h18.004zm-55.177-23.99c-.223.112-.452.266-.629.47l-.036.043-.932-2.394c.452-.3 2.242-1.487 3.453-2.291-.236.672-.416 1.343-.527 1.999-.375.081-.914.257-1.218.831l-.101.307c-.059.386-.033.73-.01 1.035zm34.403-1.036-.101-.307c-.304-.574-.843-.75-1.218-.831-.116-.683-.305-1.38-.555-2.08 1.209.802 3.107 2.063 3.574 2.372l-.962 2.469-.102-.118c-.176-.204-.405-.357-.628-.47.026-.304.049-.648-.008-1.035z"/><path d="m14.733 1.818.618.953 2.33.01-.628-.953z"/><path d="m70.514 61.641s-3.795-1.662-7.541-2.465l-.148 3.844s5.863 2.773 7.6 3.881z"/><path d="m63.661 1.818-2.319.01-.629.953 2.33-.01z"/><path d="m7.881 61.641.089 5.259c1.736-1.107 7.6-3.881 7.6-3.881l-.148-3.844c-3.747.804-7.541 2.466-7.541 2.466z"/><path d="m59.811 33.583 6.578-5.998 5.418 2.519-1.349-6.281 4.818-5.365-5.897 1.215-1.89-6.385-2.668 7.341-7.001 1.63 5.097 3.392z"/><path d="m13.639 20.629-2.668-7.341-1.892 6.385-5.897-1.215 4.818 5.365-1.348 6.281 5.418-2.519 6.578 5.998-3.106-7.932 5.097-3.392z"/><ellipse cx="39.165" cy="59.922" rx="6.966" ry="1.599"/><path d="m6.768 40.568c-.742.74-2.843 5.066.124 8.773 0 .001-2.423-3.294-.124-8.773z"/><path d="m16.778 43.904 2.039 6.797h.433l-2.348-7.599z"/><path d="m50.471 43.904 2.039 6.797h.432l-2.348-7.599z"/><path d="m24.316 42.484h.371v8.104h-.371z"/><path d="m33.895 42.484h.371v8.104h-.371z"/><path d="m41.066 42.484h.371v8.104h-.371z"/><path d="m57.809 42.484h.37v8.104h-.37z"/><path d="m28.704 42.483c.247.31.212.618.212.989 0 .225.07 1.279 0 2.094-.038.445-.123.817-.221.949.159-.145.626-.614.626-1.128 0-.433 0-1.483 0-1.854.001-.37-.308-1.05-.617-1.05z"/><path d="m28.695 46.516c-.018.021-.035.038-.053.047.001 0 .021-.018.053-.047z"/><path d="m67.448 45.697c2.316 1.574 4.078 2.688 3.893 3.8.279-.835-.369-1.53-1.111-2.226-.605-.566-3.152-1.945-3.707-2.965-.557-1.02-.742-2.41-.557-3.152-.278.65-.835 2.967 1.482 4.543z"/><path d="m28.192 38.977c-.242-.078-.684-.156-.952-.199-.257-.045-.478-.107-.478-.338 0-.26.405-.385.694-.385.458 0 .831.314.91.636h.168v-.694h-.164l-.194.113c-.215-.098-.457-.173-.71-.173-.599 0-1.104.339-1.104.785 0 .593.51.749 1.021.848.505.099 1.015.126 1.015.463 0 .247-.253.526-.836.526-.531 0-.878-.318-1.02-.68h-.19v.762h.19l.268-.149c.222.126.453.185.726.185.857 0 1.231-.475 1.231-.934-.002-.456-.26-.664-.575-.766z"/><path d="m19.839 38.113h.206c.168 0 .231.095.168.22l-.741 1.512-.547-1.009.248-.463c.121-.225.152-.26.263-.26h.189v-.117h-3.635v.117h.294l1.373 2.563h.152l.658-1.118.641 1.118h.137l1.114-2.303c.116-.235.179-.26.294-.26h.2v-.117h-1.015v.117zm-1.74 1.77-.962-1.77h.552l.693 1.287zm.42-1.77h.638l-.315.58z"/><path d="m32.34 40.499v.118h1.75v-.118h-.437v-2.386h.437v-.117h-1.75v.117h.431v1.104h-1.158v-1.104h.431v-.117h-1.698v.117h.384v2.386h-.384v.118h1.704v-.118h-.437v-1.165h1.158v1.165z"/><path d="m23.303 37.937h-.205l-1.241 2.448c-.058.118-.289.114-.416.114v.118h1.089v-.118c-.074 0-.474.032-.474-.066 0-.035.047-.149.106-.267l.136-.283h1.078l.285.616h-.405v.118h1.667v-.118h-.316zm-.936 1.829.478-.961.469.961z"/><path d="m55.231 37.937c-.684 0-1.797.452-1.797 1.343 0 .773.771 1.396 1.797 1.396 1.031 0 1.805-.623 1.805-1.396 0-.891-1.116-1.343-1.805-1.343zm.764 1.648c0 .817-.043.974-.764.974-.72 0-.756-.156-.756-.974v-.659c0-.714.178-.871.756-.871.58 0 .764.157.764.871z"/><path d="m58.59 38.113h.173c.315 0 .269.051.269.244v1.938c0 .114-.01.196-.189.204h-.253v.118h1.156v-.118h-.3c-.132-.008-.205-.046-.205-.145v-2.013l2.251 2.334h.121v-2.448c0-.079.084-.114.236-.114h.221v-.117h-1.109v.117h.146c.132 0 .348.035.348.114v1.321l-1.478-1.553h-1.387z"/><path d="m49.407 40.499v.118h1.746v-.118h-.432v-2.386c.721-.039.895.26 1.068.734h.141l-.053-.852h-3.196l-.054.852h.143c.174-.475.348-.773 1.068-.734v2.386z"/><path d="m45.553 39.734h.453v.494c0 .196-.147.33-.494.33-.3 0-.469-.023-.559-.2-.104-.212-.104-.468-.104-.698v-.793c0-.135.011-.271.053-.389.089-.244.284-.424.72-.424.406 0 .795.295.937.698h.185v-.757h-.185l-.179.137c-.236-.117-.525-.196-.814-.196-.895 0-1.746.628-1.746 1.409 0 .683.73 1.33 1.65 1.33.637 0 .9-.109 1.109-.238.064-.04.343-.24.343-.299v-.404h.315v-.117h-1.684z"/><path d="m41.148 38.113h.148c.132 0 .347.035.347.114v1.321l-1.477-1.553h-1.388v.117h.173c.316 0 .268.051.268.244v1.938c0 .114-.01.196-.189.204h-.252v.118h1.157v-.118h-.3c-.131-.008-.205-.046-.205-.145v-2.013l2.25 2.334h.122v-2.448c0-.079.084-.114.236-.114h.221v-.117h-1.11v.118z"/><path d="m35.586 38.113h.391v2.386h-.391v.118h1.715v-.118h-.442v-2.386h.442v-.117h-1.715z"/></g><path d="m73.565 62.05-.037 6.355 1.596-.634.123-5.41c-2.338-.98-4.342-1.721-6.32-2.313 3.995 1.448 4.638 2.002 4.638 2.002z" fill="#005488"/><path d="m57.227 54.731 1.734 2.147 1.221.224-1.921-2.371z" fill="#005488"/><path d="m28.696 18.967c.11-.11.22-.217.33-.325l-12.139-14.985-.965-.004 12.562 15.535c.071-.074.14-.149.212-.221z" fill="#005488"/><path d="m3.147 62.361.124 5.41 1.595.634-.036-6.355s.643-.554 4.639-2.002c-1.979.593-3.984 1.333-6.322 2.313z" fill="#005488"/><path d="m18.213 57.102 1.219-.224 1.736-2.147h-1.035z" fill="#005488"/><path d="m49.897 19.205 12.576-15.552-.966.004-12.152 15.001c.104.103.209.204.313.309.079.078.153.158.229.238z" fill="#005488"/><path d="m27.334 62.41.595 4.697c2.377 2.236 5.645 2.459 5.645 2.459l1.694-.555c-.404-.159-2.016-.715-2.016-.715l3.306-1.27-2.016-.476 4.032-1.587c-6.291.002-10.192-1.919-11.24-2.553z" fill="#005488"/><path d="m43.735 65.6 3.063.529-3.063 2.115 2.203.266-1.702 1.144s3.342-.403 6.165-2.546l.584-4.76c-1.049.635-2.412 1.295-5.477 1.93z" fill="#005488"/><path d="m76.295 35.919h-73.942v16.08h.972c1.623 0 2.202 1.106 2.257 1.22l.254.578s67.022-.008 67.018 0l.266-.527c.029-.051.699-1.271 2.271-1.271h.904zm-.904 15.119c-2.219 0-3.123 1.79-3.123 1.79h-65.809s-.8-1.79-3.134-1.79c0 0 .01-12.386 0-14.158h72.066z" fill="#005488"/><path d="m39.174 21.429c.076-.063.237-.113.185-.241-.054-.102-.152-.192-.313-.154-.104.05-.195.125-.185.241.054.101.166.191.313.154z" fill="#005488"/><path d="m41.747 21.145c-.094.05-.169.125-.136.241.075.102.206.192.345.155.063-.063.215-.114.136-.241-.076-.103-.192-.192-.345-.155z" fill="#005488"/><path d="m44.768 21.851c.063-.063.215-.114.136-.241-.075-.102-.19-.192-.345-.155-.094.051-.169.126-.136.241.076.102.206.193.345.155z" fill="#005488"/><path d="m47.724 22.298c-.075-.103-.19-.192-.345-.154-.094.05-.17.126-.136.24.075.103.206.192.345.155.063-.064.215-.113.136-.241z" fill="#005488"/><path d="m40.1 25.303c.224-.025.596-.025 1.068 0 .125-3.103-1.217-7.128-1.49-7.302.819 2.707.883 5.891.819 7.004z" fill="#005488"/><path d="m44.44 25.597c-.297-3.037-2.213-7.181-2.515-7.391 1.205 2.777 1.704 5.919 1.791 7.006l-.364.239c.225.006.604.056 1.088.146z" fill="#005488"/><path d="m46.413 25.912c.228.021.616.019 1.113.136-.479-3.02-2.656-7.027-2.977-7.251 1.386 2.818 2.067 5.823 2.219 6.902z" fill="#005488"/><path d="m49.35 26.477c.227.064.615.139 1.112.353-.479-3.114-2.837-6.693-3.483-7.239 1.466 2.211 2.459 4.769 2.726 6.742z" fill="#005488"/><path d="m36.33 21.541c.14.037.271-.053.346-.155.033-.115-.042-.19-.135-.241-.154-.037-.271.052-.346.155-.078.127.073.177.135.241z" fill="#005488"/><path d="m33.382 21.61c-.079.127.073.178.136.241.139.038.271-.053.345-.155.033-.115-.042-.19-.136-.241-.154-.037-.27.053-.345.155z" fill="#005488"/><path d="m31.043 22.384c.033-.114-.042-.19-.135-.24-.154-.038-.271.052-.346.154-.079.128.074.177.136.241.139.037.27-.053.345-.155z" fill="#005488"/><path d="m37.119 25.303c.472-.025.845-.025 1.068 0l-.397-.298c-.064-1.113 0-4.297.82-7.004-.274.174-1.615 4.199-1.491 7.302z" fill="#005488"/><path d="m34.934 25.451-.364-.239c.087-1.086.586-4.229 1.791-7.006-.302.209-2.218 4.354-2.515 7.391.485-.09.864-.14 1.088-.146z" fill="#005488"/><path d="m31.874 25.912-.356-.214c.152-1.079.833-4.084 2.219-6.902-.32.225-2.497 4.232-2.976 7.251.497-.116.885-.114 1.113-.135z" fill="#005488"/><path d="m28.938 26.477-.357-.144c.268-1.973 1.261-4.531 2.727-6.742-.646.546-3.004 4.125-3.483 7.239.496-.214.883-.289 1.113-.353z" fill="#005488"/><path d="m27.038 29.18c3.756-.88 8.195-1.259 12.164-1.282 3.97-.022 8.408.401 12.164 1.282.18-.063-.198-.219-.434-.284-2.172-.594-6.904-1.582-11.73-1.545-4.826.038-9.559.951-11.73 1.545-.235.065-.613.222-.434.284z" fill="#005488"/><path d="m27.664 27.938c3.563-.88 7.772-1.259 11.538-1.281 3.765-.023 7.975.401 11.539 1.281.169-.062-.189-.219-.412-.283-2.061-.594-6.549-1.583-11.126-1.546-4.578.039-9.066.952-11.127 1.546-.223.064-.581.221-.412.283z" fill="#005488"/><path d="m39.202 15.94c1.124-.006 2.38.221 3.445.435.05-.016-.069-.028-.123-.069-.428-.324-1.955-.748-3.322-.74-1.367.01-2.803.457-3.322.74-.06.032-.174.053-.123.069 1.064-.214 2.321-.43 3.445-.435z" fill="#005488"/><path d="m25.971 32.161c4.086-.958 8.914-1.371 13.231-1.395 4.318-.024 9.145.437 13.232 1.395.194-.068-.217-.238-.473-.309-2.363-.647-7.51-1.722-12.759-1.681s-10.397 1.034-12.76 1.681c-.256.07-.666.24-.471.309z" fill="#005488"/><path d="m69.934 18.748-2.369-7.998-3.197 2.158-2.787 7.66-5.725 1.325-1.947 1.473 5.152 3.417-2.209 5.671-.561-.237-.002-2.146c-.254-.295-.859-.425-.859-.425v-1.566c-.234-.441-.932-.294-1.234-.549-.229-2.088-1.203-4.367-2.715-6.441l12.377-15.606.59-.008 1.6-2.315-1.99-2.199c-.063 0-3.109.014-3.109.014-.043.059-1.467 2.026-1.467 2.026.088.086.551.541.551.541l-11.588 14.27c-1.031-.9-2.207-1.704-3.97-2.445l-.051-.894c-.281-.388-1.091-.739-1.496-.832v-.634c0-.278-.52-.503-.715-.561l-.007-.313c.472-.208.722-.58.722-.58v-2.254s-.428-.352-.822-.484l-.158-2.196c-.041-.187-.167-.562-.439-.415.027-.388-.033-.696-.097-1.125-.884-.062.003-1.025-.87-1.031-.08-.441-.885-1.658-1.36-1.722-.474-.064-1.279 1.28-1.359 1.722-.872.005.014.969-.869 1.031-.064.428-.124.736-.097 1.125-.272-.147-.398.228-.44.415l-.158 2.196c-.394.132-.822.484-.822.484v2.256s.25.372.722.58l-.008.313c-.195.057-.714.282-.714.561v.634c-.405.093-1.215.444-1.496.832l-.05.894c-1.754.737-2.926 1.535-3.954 2.43l-11.574-14.257s.462-.455.549-.541c0 0-1.424-1.968-1.466-2.026 0 0-3.047-.013-3.111-.014l-1.99 2.199 1.601 2.315.589.008 12.363 15.586c-1.52 2.08-2.5 4.367-2.729 6.461-.304.254-1 .107-1.234.549v1.566s-.606.13-.86.425l-.002 2.146-.479.203-2.196-5.638 5.152-3.417-1.948-1.473-5.723-1.325-2.788-7.66-3.197-2.158-2.37 7.998-7.547-1.557 6.162 6.862-1.6 7.444 2.77 1.096 5.331-2.53 5.67 5.101h-17.952v17.781c2.122-.361 3.543.08 3.745 1.786h13.368l-1.942 2.393c-5.322.89-9.099 2.028-14.43 4.354l-.197.085.165 7.252c.086.035 2.832 1.124 2.832 1.124l.134-.077c8.098-4.68 13.306-7.029 13.357-7.053l6.406-8.077h28.801l6.404 8.077c.053.023 5.26 2.373 13.357 7.053l.135.077s2.746-1.089 2.832-1.124l.164-7.252-.195-.085c-5.332-2.325-9.107-3.464-14.43-4.354l-1.943-2.393h13.779c.16-1.767 1.842-1.967 3.453-1.767v-17.799h-18.004l5.67-5.101 5.332 2.53 2.768-1.096-1.598-7.444 6.162-6.862zm-65.104 43.302.036 6.355-1.595-.634-.124-5.41c2.338-.98 4.342-1.721 6.322-2.313-3.996 1.448-4.639 2.002-4.639 2.002zm3.14 4.85-.089-5.26s3.794-1.662 7.54-2.465l.148 3.844c0 .001-5.863 2.774-7.599 3.881zm67.277-4.539-.123 5.41-1.596.634.037-6.355s-.643-.554-4.639-2.002c1.979.593 3.983 1.333 6.321 2.313zm-12.274-3.185c3.746.803 7.541 2.465 7.541 2.465l-.09 5.26c-1.736-1.107-7.6-3.881-7.6-3.881zm-1.631-57.348 2.318-.01-.617.953-2.33.01zm.165 1.829.966-.004-12.576 15.552c-.076-.08-.15-.16-.229-.238-.104-.105-.209-.206-.313-.309zm-46.774-1.839 2.32.01.628.953-2.33-.01zm1.189 1.835.965.004 12.139 14.985c-.109.108-.219.214-.33.325-.072.072-.142.147-.212.221zm2.726 29.93-6.578-5.999-5.418 2.519 1.348-6.28-4.818-5.366 5.896 1.216 1.892-6.385 2.668 7.341 7 1.63-5.097 3.392zm.784 23.295-1.219.224 1.92-2.37h1.035zm40.75.224-1.221-.224-1.734-2.146h1.034zm16.113-21.183v16.08h-.904c-1.572 0-2.242 1.22-2.271 1.271l-.266.527c.004-.008-67.018 0-67.018 0l-.254-.578c-.055-.113-.634-1.22-2.257-1.22h-.972v-16.08zm-25.862-.755h-1.042v-.212c0-.195.139-.335.31-.313l.423.055c.172.022.31.199.31.395v.075zm-2.391 0h-1.192v-.657c0-.195.158-.335.354-.313l.485.055c.194.023.354.199.354.395v.52zm-2.754 0h-1.193v-.884c0-.195.158-.345.355-.335l.482.026c.196.01.355.177.355.373v.82zm-2.754 0h-1.193v-1.177c0-.196.159-.346.355-.336l.483.025c.195.011.354.177.354.373v1.115zm-2.755 0h-1.192v-1.159c0-.195.159-.354.354-.354h.484c.195 0 .354.159.354.354zm-2.753 0h-1.192v-1.115c0-.196.159-.362.354-.373l.484-.025c.195-.01.354.14.354.336zm-2.754 0h-1.192v-.821c0-.195.16-.362.354-.373l.484-.026c.195-.01.354.14.354.335zm-2.754 0h-1.191v-.52c0-.195.158-.372.354-.395l.484-.055c.196-.022.354.118.354.313v.657zm-2.541 0h-1.042v-.075c0-.195.138-.373.309-.395l.423-.055c.171-.022.31.118.31.313zm24.99 0c.013-.146.031-.25.053-.289-2.4-.674-4.956-1.235-7.428-1.489-.626-.093-1.512-.182-2.536-.257v.004c-.024-.003-.05-.006-.074-.009-1.438-.103-3.143-.177-4.794-.192h-.011c-1.651.015-3.355.089-4.794.192-.024.003-.05.006-.074.009 0-.001 0-.003 0-.004-1.025.075-1.91.164-2.537.257-2.472.254-5.026.815-7.428 1.489.02.036.041.139.061.289h-2.111c.015-.288.044-.522.075-.751.044-.318.089-.624.098-1.038l1.007-.472v-2.162l.882-.322v-1.343c.08-.535.809-.343 1.141-.61.593-5.062 4.321-9.831 9.449-12.03.236-.124.187-1.266.187-1.266s.646-.447 1.561-.646v-.944c.194-.168.746-.323.746-.323v-1.64s-.569-.098-.72-.306v-1.373s.523-.14.747-.211c.001-.001.005-.004.005-.004l.119-2.152c.124-.149.546-.245.546-.245l.559-1.17-.335-.187.012-.608s.36-.324.523-1.374c.139-.038.24-.326.286-.275 0 .003 0 .002 0 0 .001.002.001 0 .001-.001.046-.044.147.238.285.276.163 1.05.523 1.374.523 1.374l.012.608-.334.187.559 1.17s.421.096.546.245l.119 2.152s.003.003.005.004c.224.071.748.211.748.211v1.374c-.151.208-.72.306-.72.306v1.64s.553.155.747.323v.944c.914.199 1.561.646 1.561.646s-.051 1.143.188 1.266c5.127 2.2 8.854 6.969 9.447 12.03.332.267 1.061.075 1.141.61v1.343l.883.322v2.162l1.006.472c.015.615-.08 1.178-.094 1.775-.001.005-.002.011-.002.015h-1.836zm17.84-5.06-5.418-2.519-6.578 5.999 3.105-7.932-5.097-3.392 7.001-1.63 2.668-7.341 1.891 6.385 5.896-1.216-4.818 5.366z" fill="#231f20"/><path d="m39.057 56.006c-6.38 0-13.16 1.656-13.16 4.728 0 .017.648 6.009.648 6.009 0 .615.277 1.205.824 1.751 1.809 1.809 6.396 2.978 11.688 2.978s9.881-1.169 11.689-2.978c.546-.546.823-1.136.823-1.751 0 0 .648-5.992.648-6.009 0-.593-.266-1.16-.793-1.687-1.82-1.819-6.789-3.041-12.367-3.041zm-2.5 11.021-3.306 1.27s1.612.556 2.016.715l-1.694.555s-3.268-.223-5.645-2.459l-.595-4.697c1.048.634 4.949 2.555 11.239 2.555l-4.032 1.587zm-4.358-7.105c0-.883 3.119-1.6 6.966-1.6s6.966.717 6.966 1.6-3.119 1.599-6.966 1.599c-3.848 0-6.966-.716-6.966-1.599zm18.202 7.185c-2.823 2.143-6.165 2.546-6.165 2.546l1.702-1.144-2.203-.266 3.063-2.115-3.063-.528 1.773-1.322c3.064-.635 4.428-1.295 5.477-1.93z" fill="#231f20"/><path d="m19.156 38.113h-.637l.322.58z" fill="#231f20"/><path d="m18.382 39.4-.693-1.287h-.552l.962 1.77z" fill="#231f20"/><path d="m16.392 44.203-.995 3.471h2z" fill="#231f20"/><path d="m49.873 44.203-.996 3.471h2z" fill="#231f20"/><path d="m22.845 38.805-.478.961h.946z" fill="#231f20"/><path d="m6.459 52.828h65.809s.904-1.79 3.123-1.79v-14.158h-72.066c.01 1.772 0 14.158 0 14.158 2.334 0 3.134 1.79 3.134 1.79zm22.062-5.51h-1.498v3.512h1.017v.369h-5.159v-.369h.853v-8.73h-.831v-.368h5.618c2.35 0 3.137 1.462 3.137 2.772 0 1.34-.787 2.814-3.137 2.814zm40.677.6-1.063-.609c-2.029-1.166-3.064-2.727-3.064-4.68 0-2.619 1.469-4.125 3.428-4.125.783 0 1.537.305 2.236.735l1.512-.735h.32l.113 4.106h-.377c-.701-1.937-1.986-3.622-3.75-3.622-.531 0-1.188.358-1.188 1.166 0 .967.922 1.362 1.482 1.738l2.854 1.865c.895.592 1.664 2.025 1.664 3.693 0 3.066-2.168 4.017-4.197 4.017-.768 0-1.566-.377-2.236-.843l-1.512.843h-.35l-.098-4.446h.447c.699 2.115 2.07 3.961 3.973 3.961.588 0 1.342-.304 1.342-1.2.001-1.057-.907-1.507-1.536-1.864zm-5.676-.477h.316v3.758h-7.477v-.369h.832v-8.73h-.832v-.368h5.137v.368h-.961v8.73h.502c1.652 0 2.155-1.682 2.483-3.389zm-4.932-6.942h.252c.18-.008.189-.09.189-.204v-1.938c0-.193.047-.244-.269-.244h-.172v-.117h1.388l1.478 1.553v-1.321c0-.079-.216-.114-.348-.114h-.146v-.117h1.109v.117h-.221c-.152 0-.236.035-.236.114v2.448h-.121l-2.251-2.334v2.013c0 .099.073.137.205.145h.3v.118h-1.157zm-3.359-2.562c.689 0 1.805.452 1.805 1.343 0 .773-.773 1.396-1.805 1.396-1.025 0-1.797-.623-1.797-1.396 0-.891 1.113-1.343 1.797-1.343zm-6.55.059h3.196l.053.852h-.14c-.174-.475-.348-.773-1.068-.734v2.386h.432v.118h-1.746v-.118h.432v-2.386c-.721-.039-.895.26-1.068.734h-.143zm-.688 11.44 2.252-7.704h2.284l2.7 9.099h.601v.369h-4.853v-.37h.787l-.777-2.787h-2.207l-.438 1.461c-.305 1.025.131 1.326.416 1.326h.295v.369h-2.1v-.369h.252c.351 0 .613-.807.788-1.394zm-2.428-11.499c.289 0 .578.079.814.196l.179-.137h.185v.757h-.185c-.142-.403-.53-.698-.937-.698-.436 0-.631.18-.72.424-.042.117-.053.254-.053.389v.793c0 .23 0 .486.104.698.09.177.259.2.559.2.347 0 .494-.134.494-.33v-.494h-.453v-.117h1.684v.117h-.315v.404c0 .059-.278.259-.343.299-.209.129-.473.238-1.109.238-.92 0-1.65-.647-1.65-1.33 0-.782.851-1.409 1.746-1.409zm-6.787 2.562h.252c.179-.008.189-.09.189-.204v-1.938c0-.193.048-.244-.268-.244h-.173v-.117h1.388l1.477 1.553v-1.321c0-.079-.215-.114-.347-.114h-.148v-.117h1.11v.117h-.221c-.152 0-.236.035-.236.114v2.448h-.122l-2.25-2.334v2.013c0 .099.074.137.205.145h.3v.118h-1.157v-.119zm-.522 1.232h8l.056 3.483h-.339c-.252-1.339-.754-2.979-2.033-3.115v8.73h.994v.369h-5.366v-.368h1.005v-8.73c-1.279.137-1.782 1.776-2.033 3.115h-.339zm-.742.369h-.831v8.73h.831v.369h-5.049v-.369h.831v-8.73h-.831v-.368h5.049zm-1.928-1.601h.39v-2.386h-.39v-.117h1.714v.117h-.441v2.386h.441v.118h-1.714zm-5.24 0h.384v-2.386h-.384v-.117h1.698v.117h-.431v1.104h1.157v-1.104h-.43v-.117h1.75v.117h-.437v2.386h.437v.118h-1.75v-.118h.431v-1.165h-1.157v1.165h.437v.118h-1.704v-.118zm-3.995-.62h.19c.142.361.489.68 1.02.68.583 0 .836-.279.836-.526 0-.337-.51-.364-1.015-.463-.511-.099-1.021-.255-1.021-.848 0-.446.505-.785 1.104-.785.253 0 .495.075.71.173l.194-.113h.164v.694h-.168c-.079-.321-.452-.636-.91-.636-.289 0-.694.125-.694.385 0 .23.221.293.478.338.269.043.71.121.952.199.315.103.573.311.573.766 0 .459-.374.934-1.231.934-.273 0-.504-.059-.726-.185l-.268.149h-.19v-.762zm-4.91.62c.127 0 .358.004.416-.114l1.241-2.448h.205l1.304 2.563h.316v.118h-1.667v-.118h.405l-.285-.616h-1.078l-.136.283c-.059.117-.106.231-.106.267 0 .099.4.066.474.066v.118h-1.089zm-5.451-2.503h3.634v.117h-.189c-.111 0-.142.035-.263.26l-.248.463.547 1.009.741-1.512c.063-.125 0-.22-.168-.22h-.206v-.117h1.015v.117h-.2c-.115 0-.179.024-.294.26l-1.114 2.303h-.137l-.641-1.118-.658 1.118h-.152l-1.373-2.563h-.294zm-1.478 11.44 2.251-7.704h2.284l2.7 9.099h.601v.369h-4.853v-.37h.787l-.776-2.787h-2.207l-.438 1.461c-.306 1.025.131 1.326.416 1.326h.295v.369h-2.099v-.369h.251c.351 0 .614-.807.788-1.394zm-4.973-10.932c.726 0 1.13.18 1.802.484.242.107.417.305.659.305.161 0 .269-.126.403-.234l.727-.555h.349v4.411h-.43c-.35-1.524-1.21-3.586-2.582-3.586-.995 0-1.493.323-1.493 4.267v3.461c0 2.94.7 3.514 1.641 3.514 1.479 0 2.367-1.793 2.609-3.549h.417c-.242 2.904-1.829 4.446-3.954 4.446-2.973 0-5.043-2.563-5.043-6.581 0-3.658 2.178-6.383 4.895-6.383z" fill="#231f20"/><path d="m27.374 42.1h-.35v4.851h.416c.48 0 .787-.425.787-1.517v-1.967c-.001-.629-.176-1.367-.853-1.367z" fill="#231f20"/><path d="m55.231 40.559c.721 0 .764-.156.764-.974v-.659c0-.714-.184-.871-.764-.871-.578 0-.756.157-.756.871v.659c0 .817.036.974.756.974z" fill="#231f20"/><path d="m37.82 10.968c.061.127.208.102.307.153v1.942l.507-.049c.063-.064.217-.189.217-.278l.08-.694v-.382s.096-.042.252-.038c.156-.004.254.038.254.038l-.002.382.081.694c0 .089.153.214.216.278l.508.049v-1.942c.098-.051.247-.025.307-.153-.337-.237-.985-.298-1.363-.298-.393 0-1.029.061-1.364.298z" fill="#231f20"/><path d="m39.757 13.764-.596-.036-.596.036c-.184.018-.289.273-.099.465l.695-.056.695.056c.189-.192.086-.448-.099-.465z" fill="#231f20"/><path d="m38.808 28.531h.993v1.093h-.993z" fill="#231f20"/><path d="m40.944 29.674.993.036v-1.093l-.993-.036z" fill="#231f20"/><path d="m43.08 29.802.993.057v-1.093l-.993-.057z" fill="#231f20"/><path d="m45.215 29.974.994.114v-1.093l-.994-.113z" fill="#231f20"/><path d="m47.352 30.268.932.129v-1.092l-.932-.13z" fill="#231f20"/><path d="m49.346 30.58.828.15v-1.093l-.828-.15z" fill="#231f20"/><path d="m51.211 30.983.786.131v-1.093l-.786-.13z" fill="#231f20"/><path d="m36.672 29.71.994-.036v-1.093l-.994.036z" fill="#231f20"/><path d="m34.536 29.859.993-.057v-1.093l-.993.057z" fill="#231f20"/><path d="m32.4 30.088.994-.114v-1.092l-.994.113z" fill="#231f20"/><path d="m30.326 30.397.932-.129v-1.093l-.932.13z" fill="#231f20"/><path d="m28.435 30.73.828-.15v-1.093l-.828.15z" fill="#231f20"/><path d="m26.613 31.114.784-.131v-1.092l-.784.13z" fill="#231f20"/><path d="m78.84 67.17h.545v1.644h.198v-1.644h.574v-.198h-1.317z" fill="#231f20"/><path d="m81.682 66.972-.473 1.499-.472-1.499h-.317v1.842h.198v-1.565l.494 1.565h.197l.494-1.565v1.565h.197v-1.842z" fill="#231f20"/></svg>