<?xml version="1.0" encoding="UTF-8" standalone="no"?>
<svg xmlns:rdf="http://www.w3.org/1999/02/22-rdf-syntax-ns#" xmlns="http://www.w3.org/2000/svg" height="232.01591" width="196.66088" version="1.1" xmlns:cc="http://creativecommons.org/ns#" xmlns:dc="http://purl.org/dc/elements/1.1/" viewBox="0 0 196.66088 232.01591"><circle cx="98.33038" cy="133.68461" r="98.33132" transform="translate(-50.17502 207.7561) rotate(-80.17312)"/><path d="M192.10318,134.85969A93.77406,93.77406,0,1,1,98.32794,41.07918a93.78045,93.78045,0,0,1,93.77524,93.78051" fill="#3a7c4a"/><path d="M83.56362,180.4822,43.53768,58.78121A93.90981,93.90981,0,0,0,10.641,101.61228l56.496,79.75883H72.4652c.91469-1.23958,5.44372.56245,6.65647,0" fill="#fff"/><path d="M121.2927,147.63545l-2.21979,11.09843,5.77256,5.32429,8.87627,9.32428,51.66341-73.38726a93.953,93.953,0,0,0-32.077-41.08823L127.8258,132.53861Z" fill="#fff"/><path d="M152.80962,184.03523l36.60393-27.12154a93.19712,93.19712,0,0,0,2.68963-22.054V134.82l-54.831,48.772Z" fill="#fff"/><path d="M92.09527,130.01945l16.293-4.24912,8.49587-82.85307a94.75381,94.75381,0,0,0-18.55622-1.83808,93.53308,93.53308,0,0,0-19.8742,2.13614l9.23062,91.83562Z" fill="#fff"/><path d="M37.83957,183.14632l16.871-.44328L4.59874,136.48467A92.67351,92.67351,0,0,0,7.07,156.28943Z" fill="#fff"/><polyline points="95.283 69.846 91.756 222.735 97.788 222.735 99.499 222.735 105.521 222.735 101.991 69.846" fill="#000c00"/><polyline points="102.356 72.713 101.241 40.926 98.716 40.926 98.559 40.926 96.036 40.926 95.276 71.714" fill="#000c00"/><path d="M100.956,99.22307,98.52314,71.69562,95.70223,99.20124A10.85833,10.85833,0,0,1,100.956,99.22307Z" fill="#000c00" fill-rule="evenodd"/><path d="M132.96646,153.87181s1.60552-5.08542-5.3156-5.74547v-4.75421c2.40473.15942,3.09081-3.65563.86076-5.24326.19783-2.83748-1.09174-4.48168-3.49647-5.75231-.86077-11.89211-10.44575-18.41232-16.52926-20.03967a4.34723,4.34723,0,0,0-3.15474-3.61723v-2.92482c3.04162-1.71758,2.84142-6.36762-2.33528-7.78058L100.65533,71.5312a1.87729,1.87729,0,0,0-3.738-.0242L94.18642,98.09529c-6.49443,1.52344-5.51054,6.30317-2.62808,8.20044v2.54337c-1.42321.18994-3.35757,1.78941-3.255,3.57855-.91707.40592-15.41437,5.43372-17.15616,20.60265,0,0-4.56007,1.47451-3.23445,5.007-2.17586.78606-2.80276,5.64024,1.01756,5.8407l.0384,3.9037s-5.04806,1.5466-6.03984,3.729a9.03379,9.03379,0,0,0-.1439,3.53488c-4.02577,1.64682-3.8895,7.54013-.10259,7.3039L62.654,176.2073l.88392,9.15986,65.25364-.88892,4.43695.44591-.05656-22.61277C137.38763,162.71835,138.81347,156.01978,132.96646,153.87181Z" fill="#fff"/><path d="M130.82112,155.7333l-.02552-2.05143.01263-.7387c0-1.90227-2.77434-3.246-6.70778-4.19019v-6.62412c1.1612.19783,2.48444-.60112,2.29161-1.6442a2.53,2.53,0,0,0-1.13041-1.56448,4.75164,4.75164,0,0,0-.30806-2.83511,2.77852,2.77852,0,0,0-1.4311-1.66866,2.46972,2.46972,0,0,0-.83736-.47379A24.71218,24.71218,0,0,0,109.886,115.45427v-.005l-.01026-.00263a24.54239,24.54239,0,0,0-4.07444-1.73417c0-.01026.00763-.0192.00763-.03078a4.75435,4.75435,0,0,0-3.05977-3.7919c-.00237-.77711-.01789-4.48825-.02052-5.2551a2.28654,2.28654,0,0,0,1.24853-1.75573c.00526-.06682.00789-.131.00789-.19783a2.13965,2.13965,0,0,0-.59611-1.47083c-.8734-.95074-2.65649-1.46583-5.01229-1.45162-2.61782.0192-5.34349.36488-5.73652,2.81433a1.90047,1.90047,0,0,0-.02841.33936,2.293,2.293,0,0,0,1.33587,1.96251V109.868c-1.937.81946-3.15474,2.51127-3.15474,3.81373,0,.01553.00526.02315.00526.03736A24.70792,24.70792,0,0,0,73.88078,134.2662a6.44252,6.44252,0,0,0-1.80861,1.13173,1.97334,1.97334,0,0,0-.56008.43407,3.65153,3.65153,0,0,0-.46248,3.115,3.06941,3.06941,0,0,0-1.74442,1.68391c-.30832,1.27826.94285,2.21216,2.86458,1.32062v6.99031c-3.65326.9339-6.12455,2.16586-6.39183,3.74823l-.036.60112-.005,2.27109c-1.58763.86208-3.422,2.23268-3.00585,3.69825.35462,1.22933,1.45663,1.37954,2.92114,1.01992l-.06945,8.262.95837.00763-.04893,4.28647c.05919-.05392.12075-.10391.1823-.15652v5.02754l3.96658-1.30246v-6.85694c.02842-.02315.0592-.045.09261-.06919l-.01026-11.46436c.31857-.14521.67819-.28648,1.06359-.43169l.01552,13.58891h-.02078v5.58263l3.96421-1.056v-9.61708c.05656-.03341.11286-.06682.17205-.10023l.02052-9.60181c.5806-.1389,1.17935-.27228,1.801-.40355l-.03341,12.9123H77.6419v3.52725l3.96395-.57165v-7.92948h-.0513l.005-8.66029q1.11-.18863,2.24794-.35962l-.005,6.85431q1.187-.54338,2.3558-1.02755V167.547l3.23445-.44827v-6.275h-.00526l-.03341-6.65384c.85551-.0976,1.70838-.18494,2.54863-.262l.02315,4.7066q1.36416-.4317,2.68727-.79395v5.01728l3.689-.08839v-5.83175c.02315-.00658.04893-.01158.07708-.01684v-3.42439c.89918-.03341,1.75205-.05156,2.54837-.04761v2.97243a65.9513,65.9513,0,0,1,17.63915-.76816c4.83235.73475,8.47009,1.74678,10.09639,2.88614v8.92494h.352l-.00526,1.13936,1.62893.00894.03078-8.27594c1.26669.10918,2.52785-.30332,2.78224-1.39375C133.778,157.53033,132.29826,156.45122,130.82112,155.7333ZM94.99063,111.15754l.58586-.172h0a9.48943,9.48943,0,0,1,2.4868-.226v-7.4812a9.1945,9.1945,0,0,0-2.83879.41223l-.16968-.06419c-.31069-.12075-.81684-.37119-.81684-.72949a.56085.56085,0,0,1,.005-.06419c.11575-.70266.69372-1.42453,4.14389-1.44637,2.16586-.0142,3.386.46748,3.80742.9247a.53287.53287,0,0,1,.16442.37014.35454.35454,0,0,1-.00263.05393c-.03078.36461-.614.60112-.72949.6461l-.52667.2002.02315,7.41833.578.172a3.662,3.662,0,0,1,2.34291,2.05642,24.37538,24.37538,0,0,0-11.47856-.01157A3.78175,3.78175,0,0,1,94.99063,111.15754ZM73.54668,136.64015c.01552-.01158.036-.02447.05156-.03867a1.17478,1.17478,0,0,1,.11286-.0834h0a3.15206,3.15206,0,0,1,.3341-.19546c.02315-.01131.04367-.02288.06682-.03314.095-.04762.20046-.09524.30832-.14522.01289-.00658.02315-.00894.03341-.01421.2465-.10785.53429-.21966.85287-.33146a.81707.81707,0,0,1,.08471-.02815c.131-.04762.262-.09129.40329-.13627.03867-.014.08234-.02552.12338-.03841a84.25577,84.25577,0,0,1,22.37127-2.94034c10.25318.0192,18.32761,1.354,22.225,2.59335a.06974.06974,0,0,1,.02815.00394c.041.01421.07445.0271.11549.03868.02315.00894.05419.01657.07971.02814h0a9.14616,9.14616,0,0,1,1.8215.77212,1.99023,1.99023,0,0,1,.32884.44564v-.01158a.10137.10137,0,0,1,.01552.036,1.70791,1.70791,0,0,1,.15153.34042.71139.71139,0,0,1,.02552.07576,2.22612,2.22612,0,0,1,.06945.30043.27.27,0,0,1,.01026.0413,2.21525,2.21525,0,0,1,.02578.30937c.00263.01947.00263.04236.00763.06419v.24281c-.14653-.04735-.29017-.095-.43933-.13995-.0976-.04761-.20809-.10023-.3441-.15547a12.68063,12.68063,0,0,0-1.801-.73608c-.01026-.00236-.02052-.01157-.03078-.01394-6.77986-2.21716-20.41113-2.3045-22.41757-2.3045-8.09758,0-17.50051,1.14331-22.55884,2.82328-.07708.01946-.15679.03867-.23387.06182a.06165.06165,0,0,1,.01552-.02578c-.1439.045-.28017.086-.40855.12838-.53692.14127-1.11752.30332-1.69549.49089A1.89791,1.89791,0,0,1,73.54668,136.64015Zm14.20687,1.63761c.74265-.07708,1.43874-.13863,2.08615-.18888v5.27562c.37777-.12575.75791-.24913,1.24354-.402.83235-.25965,1.42821-.44065,2.10141-.63216V145.322H96.085v-7.62616h-.04367a.20329.20329,0,0,1,.00263-.03341,19.46445,19.46445,0,0,1,2.05274-.06919v3.21236a58.70043,58.70043,0,0,1,19.63771-1.635,14.0237,14.0237,0,0,1,4.74,1.59026v7.6351c-9.34374-1.8728-23.322-1.90621-24.198-1.90621-3.23945,0-6.87456.10654-10.51257.34041v-8.46246C87.76381,138.337,87.75618,138.30854,87.75355,138.27776Zm-6.36342.95311c.66268-.131,1.32562-.25308,1.98329-.36225v6.95322l1.937-.68345v1.87043c-1.29983.1026-2.5844.22466-3.84583.36461v-7.71875A1.28216,1.28216,0,0,0,81.39013,139.23087Zm-3.82031.92864v7.6714c-.40828.08077-.79105.15785-1.14067.231l-.01263.00263v-7.54513C76.79139,140.39338,77.17942,140.27658,77.56982,140.15951Zm51.09333,14.6091c-5.23563-2.76171-19.60429-4.216-30.50226-4.216-13.48763,0-25.68806,1.6392-30.34573,3.94606v-1.50529h.00789l-.00789.04736c.61164-1.51555,11.91789-4.46616,30.46122-4.46616,18.66434,0,29.40552,2.69227,30.38677,4.24912Z" fill="#000c00" fill-rule="evenodd"/><path d="M88.37019,124.66175c.63189-.06682,1.22538-.12075,1.7752-.16179v4.49456c.32384-.10917.64742-.212,1.061-.34041.70924-.22361,1.21513-.37882,1.7881-.54087v2.54994h2.47391v-6.49837H95.43a.064.064,0,0,1,.00527-.0271,16.99719,16.99719,0,0,1,1.74679-.05919v2.7362a50.01688,50.01688,0,0,1,16.72972-1.39243,11.92593,11.92593,0,0,1,4.036,1.35376v6.50363c-7.96421-1.59394-19.86658-1.62235-20.61423-1.62235-2.75908,0-5.85726.0926-8.95571.29043v-7.20893A.671.671,0,0,0,88.37019,124.66175Zm-5.42057.81315c.56244-.1118,1.13278-.217,1.69023-.30963v5.92435l1.64945-.58323V132.098q-1.66485.133-3.27549.312v-6.57545A1.04592,1.04592,0,0,0,82.94962,125.4749Zm-3.25761.79132v6.53441c-.34436.06682-.67056.13364-.96862.1952l-.01289.00263v-6.42787C79.0317,126.46405,79.36054,126.36382,79.692,126.26622Z" fill="#fff" fill-rule="evenodd"/><path d="M74.6642,73.00466c1.48241-15.13551-13.75965-25.93588-13.75965-25.93588L50.39567,53.151s22.8248,4.8092,19.412,20.74655a146.56909,146.56909,0,0,0-58.473,26.06031L8.388,101.80248,2.84906,123.91805l2.95823-2.57546S24.44585,89.22428,68.455,78.41629C54.85445,118.03894.10023,149.85393,19.0842,192.1044l16.66159,13.59681C11.13289,167.12057,58.92889,130.026,73.84737,77.22694" fill="#000c00"/><path d="M121.99641,73.00466c-1.48477-15.13551,13.75729-25.93588,13.75729-25.93588L146.26258,53.151s-22.8248,4.81315-19.408,20.74655a146.54411,146.54411,0,0,1,58.46773,26.06031l2.9506,1.84465,5.539,22.11557-2.96218-2.57546s-18.63593-32.11831-62.64371-42.9263c13.60049,39.62265,68.35208,71.43764,49.36811,113.68811L161.5804,205.70121C186.1933,167.12057,137.732,130.026,122.81351,77.22694" fill="#000c00"/><path d="M5.937,214.865" fill="none" stroke="#e49844" stroke-width="1.98251"/><path d="M48.33293,190.39365H41.24239l-5.923,39.2512h5.78282l1.14593-7.5325h5.08148l1.142,7.5325h5.82149Zm-3.54409,15.30361,1.7752,11.13316H43.03416C43.0431,216.79175,44.78884,205.69726,44.78884,205.69726Z" fill="#fff" stroke="#3a7c4a" stroke-width="0.25054"/><polygon points="24.812 190.394 15.947 190.394 11.951 194.388 11.951 225.65 15.947 229.645 24.812 229.645 28.807 225.65 28.807 218.024 22.686 218.024 22.686 223.602 17.994 223.602 17.994 196.436 22.686 196.436 22.686 201.937 28.807 201.937 28.807 194.388 24.812 190.394" fill="#fff" stroke="#3a7c4a" stroke-width="0.25054"/><rect x="83.74067" y="190.39365" width="6.15927" height="39.2512" fill="#fff" stroke="#3a7c4a" stroke-width="0.25054"/><polygon points="156.327 223.6 156.327 190.396 150.166 190.396 150.166 229.642 166.202 229.642 166.202 223.6 156.327 223.6" fill="#fff" stroke="#3a7c4a" stroke-width="0.25054"/><path d="M128.79048,229.64485h9.052l3.99341-3.991V194.38838l-3.99341-3.99473h-9.052l-3.99894,3.99473v31.26543Zm2.04616-6.04247V196.43086h4.88128v27.17152Z" fill="#fff" stroke="#3a7c4a" stroke-width="0.25054"/><path d="M66.15176,229.64485V215.76814H72.7722l4-3.995V194.38838l-4-4H60.06431v39.25646Zm.07445-19.91419V196.42823h4.50746v13.30243Z" fill="#fff" stroke="#3a7c4a" stroke-width="0.25054"/><polygon points="186.728 229.645 190.644 225.723 190.644 211.09 186.728 207.094 178.965 207.094 178.965 196.431 184.607 196.431 184.607 202.015 190.721 202.015 190.721 194.388 186.728 190.394 176.919 190.394 172.925 194.388 172.925 209.067 176.919 213.058 184.607 213.058 184.607 223.602 178.965 223.602 178.965 218.649 172.925 218.649 172.925 225.654 176.919 229.645 186.728 229.645" fill="#fff" stroke="#3a7c4a" stroke-width="0.25054"/><polygon points="110.725 229.645 110.725 196.431 117.945 196.431 117.945 190.394 97.387 190.394 97.387 196.431 104.681 196.431 104.681 229.645 110.725 229.645" fill="#fff" stroke="#3a7c4a" stroke-width="0.25054"/><path d="M46.31755,187.98129H39.22674L33.30265,227.2325H39.0881l1.14594-7.53382h5.0841l1.13936,7.53382H52.279ZM42.7774,203.28491l1.77126,11.13578H41.02009C41.029,214.382,42.7774,203.28491,42.7774,203.28491Z" fill="#3a7c4a" stroke="#fff" stroke-width="0.17649"/><polygon points="22.798 187.981 13.929 187.981 9.94 191.975 9.94 223.241 13.929 227.232 22.798 227.232 26.791 223.241 26.791 215.611 20.671 215.611 20.671 221.195 15.977 221.195 15.977 194.021 20.671 194.021 20.671 199.524 26.791 199.524 26.791 191.975 22.798 187.981" fill="#3a7c4a" stroke="#fff" stroke-width="0.17649"/><rect x="81.7266" y="187.98129" width="6.15927" height="39.2512" fill="#3a7c4a" stroke="#fff" stroke-width="0.17649"/><polygon points="154.313 221.187 154.313 187.984 148.148 187.984 148.148 227.23 164.182 227.23 164.182 221.187 154.313 221.187" fill="#3a7c4a" stroke="#fff" stroke-width="0.17649"/><path d="M126.77615,227.2325h9.04831l3.99605-3.98737V191.97471l-3.99605-3.99342h-9.04831l-4,3.99342v31.27042Zm2.04642-6.03721V194.02113h4.87865v27.17416Z" fill="#3a7c4a" stroke="#fff" stroke-width="0.17649"/><path d="M64.13769,227.23513V213.35578h6.62044l4.00262-3.98973V191.97471l-4.00262-3.99342H58.05024v39.25384Zm.07445-19.91419V194.0185H68.717v13.30244Z" fill="#3a7c4a" stroke="#fff" stroke-width="0.17649"/><polygon points="184.714 227.232 188.63 223.315 188.63 208.678 184.714 204.683 176.951 204.683 176.951 194.021 182.593 194.021 182.593 199.603 188.71 199.603 188.71 191.975 184.714 187.981 174.905 187.981 170.911 191.975 170.911 206.653 174.905 210.648 182.593 210.648 182.593 221.195 176.951 221.195 176.951 216.241 170.911 216.241 170.911 223.245 174.905 227.232 184.714 227.232" fill="#3a7c4a" stroke="#fff" stroke-width="0.17649"/><polygon points="108.711 227.232 108.711 194.021 115.931 194.021 115.931 187.981 95.372 187.981 95.372 194.021 102.667 194.021 102.667 227.232 108.711 227.232" fill="#3a7c4a" stroke="#fff" stroke-width="0.17649"/><polygon points="121.801 33.702 129.665 34.947 133.249 32.344 135.476 18.306 129.033 17.286 128.319 21.784 130.022 22.054 128.761 30.009 124.129 29.273 127.466 8.227 132.098 8.961 131.438 13.134 136.178 13.885 137.09 8.127 134.487 4.543 126.623 3.295 123.037 5.901 119.196 30.118 121.801 33.702" fill="#fff" stroke="#3a7c4a" stroke-width="0.22063"/><polygon points="77.673 2.053 79.05 14.552 75.317 14.965 73.937 2.468 69.197 2.987 72.568 33.589 77.31 33.066 75.831 19.644 79.569 19.234 81.046 32.654 85.755 32.137 82.382 1.535 77.673 2.053" fill="#fff" stroke="#3a7c4a" stroke-width="0.22063"/><polygon points="109.773 1.674 109.49 17.052 105.483 1.59 100.846 1.507 100.283 32.287 105.39 32.383 105.65 18.192 109.185 32.447 114.043 32.537 114.605 1.764 109.773 1.674" fill="#fff" stroke="#3a7c4a" stroke-width="0.22063"/><polygon points="18.636 18.73 24.077 29.644 15.253 20.987 12.979 22.502 17.965 33.865 9.392 24.89 5.606 27.418 26.13 50.294 26.369 50.563 29.339 48.581 24.699 37.502 33.205 46.003 35.951 44.17 23.16 16.297 22.952 15.851 18.636 18.73" fill="#fff" stroke="#3a7c4a" stroke-width="0.22063"/><path d="M38.09132,10.72188l-5.23326,1.88569,6.07588,30.53435,4.26464-1.5387-1.16119-5.86253,3.75349-1.354L48.632,39.64413l4.298-1.549ZM39.548,22.95309l4.2699,7.74453-2.60256.9389C41.21266,31.60574,39.548,22.95309,39.548,22.95309Z" fill="#fff" stroke="#3a7c4a" stroke-width="0.22063"/><polygon points="65.945 34.933 68.265 31.26 65.74 20.062 62.053 17.681 56.113 19.023 54.271 10.866 58.585 9.891 59.551 14.163 64.231 13.106 62.913 7.269 59.165 4.903 51.664 6.597 49.298 10.345 51.831 21.575 55.579 23.937 61.459 22.611 63.278 30.681 58.965 31.653 58.109 27.864 53.49 28.906 54.698 34.262 58.441 36.629 65.945 34.933" fill="#fff" stroke="#3a7c4a" stroke-width="0.22063"/><rect x="89.8089" y="1.25022" width="4.82977" height="30.78663" transform="translate(-0.08218 0.46199) rotate(-0.28689)" fill="#fff" stroke="#3a7c4a" stroke-width="0.22063"/><polygon points="145.203 38.085 150.998 12.689 156.519 13.951 157.57 9.331 141.85 5.744 140.797 10.362 146.374 11.635 140.581 37.032 145.203 38.085" fill="#fff" stroke="#3a7c4a" stroke-width="0.22063"/><path d="M155.931,40.91582l6.79538,2.05932,3.90476-2.09273,7.11132-23.46565-2.08878-3.90607-6.79774-2.05932-3.90739,2.0901-7.1087,23.467Zm2.90825-4.06918,6.1811-20.39587,3.6609,1.10858L162.50273,37.9589Z" fill="#fff" stroke="#3a7c4a" stroke-width="0.22063"/><polygon points="188.771 20.61 182.657 34.724 184.836 18.902 180.573 17.057 168.342 45.309 173.031 47.341 178.67 34.314 176.514 48.845 180.972 50.776 193.203 22.531 188.771 20.61" fill="#fff" stroke="#3a7c4a" stroke-width="0.22063"/><polygon points="119.651 32.54 127.515 33.788 131.099 31.182 133.323 17.144 126.883 16.125 126.169 20.622 127.872 20.891 126.61 28.847 121.979 28.114 125.316 7.066 129.948 7.798 129.287 11.973 134.027 12.722 134.937 6.966 132.334 3.382 124.471 2.136 120.884 4.739 117.046 28.956 119.651 32.54" fill="#3a7c4a" stroke="#fff" stroke-width="0.15327"/><polygon points="75.522 0.894 76.9 13.394 73.164 13.806 71.784 1.306 67.047 1.827 70.418 32.428 75.16 31.906 73.68 18.484 77.416 18.072 78.893 31.491 83.602 30.976 80.232 0.375 75.522 0.894" fill="#3a7c4a" stroke="#fff" stroke-width="0.15327"/><polygon points="107.625 0.515 107.34 15.891 103.33 0.428 98.695 0.344 98.135 31.127 103.24 31.222 103.497 17.03 107.034 31.286 111.89 31.377 112.452 0.601 107.625 0.515" fill="#3a7c4a" stroke="#fff" stroke-width="0.15327"/><polygon points="16.486 17.568 21.927 28.482 13.102 19.824 10.829 21.34 15.813 32.704 7.242 23.729 3.458 26.256 23.977 49.133 24.219 49.4 27.188 47.418 22.549 36.343 31.052 44.841 33.804 43.011 21.007 15.135 20.802 14.692 16.486 17.568" fill="#3a7c4a" stroke="#fff" stroke-width="0.15327"/><path d="M35.941,9.562l-5.233,1.88437L36.78123,41.982l4.267-1.53765-1.16119-5.86253,3.75349-1.35507,2.84379,5.25615,4.29542-1.549Zm1.45663,12.23252,4.27253,7.7406L39.065,30.478C39.06,30.44455,37.39761,21.79452,37.39761,21.79452Z" fill="#3a7c4a" stroke="#fff" stroke-width="0.15327"/><polygon points="63.795 33.774 66.117 30.098 63.587 18.899 59.9 16.52 53.963 17.864 52.121 9.705 56.434 8.732 57.398 13.001 62.081 11.947 60.763 6.111 57.015 3.742 49.513 5.439 47.147 9.183 49.683 20.412 53.429 22.778 59.307 21.449 61.128 29.518 56.815 30.493 55.959 26.704 51.337 27.744 52.547 33.102 56.291 35.468 63.795 33.774" fill="#3a7c4a" stroke="#fff" stroke-width="0.15327"/><rect x="87.65987" y="0.08771" width="4.82727" height="30.78782" transform="translate(-0.07767 0.45891) rotate(-0.29179)" fill="#3a7c4a" stroke="#fff" stroke-width="0.15327"/><polygon points="143.052 36.925 148.851 11.53 154.366 12.789 155.417 8.168 139.7 4.583 138.646 9.202 144.221 10.473 138.428 35.872 143.052 36.925" fill="#3a7c4a" stroke="#fff" stroke-width="0.15327"/><path d="M153.77825,39.75594l6.79775,2.05669,3.90239-2.0901,7.11106-23.467-2.08615-3.90739-6.80011-2.05537-3.905,2.08615-7.1087,23.46827Zm2.91062-4.06813,6.17874-20.39692,3.66326,1.10858-6.17848,20.39824Z" fill="#3a7c4a" stroke="#fff" stroke-width="0.15327"/><polygon points="186.621 19.452 180.506 33.565 182.683 17.741 178.426 15.896 166.189 44.15 170.88 46.179 176.522 33.155 174.364 47.684 178.821 49.615 191.05 21.371 186.621 19.452" fill="#3a7c4a" stroke="#fff" stroke-width="0.15327"/><path d="M95.70223,99.20124l2.551-25.476,2.7875,25.26926S95.75353,98.10555,95.70223,99.20124Z" fill="#000c00"/></svg>