<?xml version="1.0" encoding="UTF-8" standalone="no"?>
<!-- Created with Inkscape (http://www.inkscape.org/) -->
<svg
   xmlns:dc="http://purl.org/dc/elements/1.1/"
   xmlns:cc="http://creativecommons.org/ns#"
   xmlns:rdf="http://www.w3.org/1999/02/22-rdf-syntax-ns#"
   xmlns:svg="http://www.w3.org/2000/svg"
   xmlns="http://www.w3.org/2000/svg"
   xmlns:sodipodi="http://sodipodi.sourceforge.net/DTD/sodipodi-0.dtd"
   xmlns:inkscape="http://www.inkscape.org/namespaces/inkscape"
   width="365.14837167"
   height="273.861278753" viewBox="0 0 640.0 480.0"
   id="svg3037"
   sodipodi:version="0.32"
   inkscape:version="0.46"
   sodipodi:docname="Washington Caps Alternate.svg"
   inkscape:output_extension="org.inkscape.output.svg.inkscape">
  <defs
     id="defs3039">
    <clipPath
       clipPathUnits="userSpaceOnUse"
       id="clipPath2624">
      <path
         d="M 319.629,492.75 C 319.629,492.75 312.429,492.75 312.429,485.55 L 312.429,485.55 L 312.429,454.95 C 312.429,454.95 312.429,447.75 319.629,447.75 L 319.629,447.75 L 341.229,447.75 C 341.229,447.75 348.429,447.75 348.429,454.95 L 348.429,454.95 L 348.429,485.55 C 348.429,485.55 348.429,492.75 341.229,492.75 L 341.229,492.75 L 319.629,492.75 z"
         id="path2626" />
    </clipPath>
    <inkscape:perspective
       sodipodi:type="inkscape:persp3d"
       inkscape:vp_x="0 : 240 : 1"
       inkscape:vp_y="0 : 1000 : 0"
       inkscape:vp_z="640 : 240 : 1"
       inkscape:persp3d-origin="320 : 160 : 1"
       id="perspective3045" />
  </defs>
  <sodipodi:namedview
     id="base"
     pagecolor="#ffffff"
     bordercolor="#666666"
     borderopacity="1.0"
     inkscape:pageopacity="0.0"
     inkscape:pageshadow="2"
     inkscape:zoom="0.77472527"
     inkscape:cx="320"
     inkscape:cy="240"
     inkscape:current-layer="layer1"
     inkscape:document-units="px"
     showgrid="false"
     inkscape:window-width="1530"
     inkscape:window-height="1000"
     inkscape:window-x="-8"
     inkscape:window-y="-8" />
  <metadata
     id="metadata3042">
    <rdf:RDF>
      <cc:Work
         rdf:about="">
        <dc:format>image/svg+xml</dc:format>
        <dc:type
           rdf:resource="http://purl.org/dc/dcmitype/StillImage" />
      </cc:Work>
    </rdf:RDF>
  </metadata>
  <g
     id="layer1"
     inkscape:label="Layer 1"
     inkscape:groupmode="layer">
    <g
       id="g2620"
       transform="matrix(17.824863,0,0,-17.818178,-5568.8907,8623.4085)">
      <g
         id="g2622"
         clip-path="url(#clipPath2624)">
        <g
           id="g2628"
           transform="translate(330.42841,466.9919)">
          <path
             d="M 0,0 C 0,0 0.727,-4.049 0.749,-4.22 C 1.001,-4.401 1.097,-4.639 1.128,-4.797 C 2.797,-5.342 3.699,-7.448 3.9,-8.762 C 4.071,-8.868 4.393,-9.126 4.548,-9.645 C 4.548,-9.645 6.479,-6.25 7.992,-5.17 C 8.463,-4.834 9.074,-4.336 9.842,-3.831 C 11.506,-2.739 15.245,-0.281 15.3,3.357 C 15.304,3.615 15.286,3.882 15.252,4.153 C 16.469,5.885 16.975,7.151 17.013,8.704 C 17.032,9.487 16.866,10.511 16.866,10.511 C 16.8,10.34 16.735,10.182 16.649,9.996 C 16.361,9.365 15.35,8.229 13.376,6.837 C 15.189,8.44 17.385,10.97 17.443,13.802 C 17.463,14.776 17.224,15.413 16.957,16.376 C 16.957,16.376 16.38,12.999 10.454,9.924 C 8.537,8.93 6.793,7.899 5.68,6.787 C 4.655,5.761 3.944,4.121 3.193,1.208 C 2.724,2.321 1.911,4.271 1.78,4.585 C 1.835,4.613 1.876,4.633 1.906,4.65 C 1.961,4.663 2.187,4.816 2.73,4.288 C 2.966,4.589 3.21,5.227 3.215,5.628 C 3.217,5.897 3.131,6.758 2.048,6.918 C 1.878,7.157 1.415,7.581 -0.073,7.587 C -0.25,7.587 -1.799,7.612 -1.981,6.444 C -1.994,6.355 -3.244,1.415 -3.244,1.415 C -4.279,4.328 -4.655,5.761 -5.68,6.787 C -6.793,7.899 -8.537,8.93 -10.454,9.924 C -16.381,12.999 -16.957,16.376 -16.957,16.376 C -17.224,15.413 -17.463,14.776 -17.443,13.802 C -17.385,10.97 -15.189,8.44 -13.376,6.837 C -15.35,8.229 -16.361,9.365 -16.65,9.996 C -16.735,10.182 -16.8,10.34 -16.866,10.511 C -16.866,10.511 -17.032,9.487 -17.013,8.704 C -16.976,7.151 -16.469,5.886 -15.252,4.153 C -15.286,3.882 -15.304,3.615 -15.3,3.357 C -15.245,-0.281 -11.506,-2.739 -9.842,-3.831 C -9.074,-4.336 -8.463,-4.834 -7.992,-5.17 C -6.479,-6.25 -4.548,-9.645 -4.548,-9.645 C -4.393,-9.126 -4.071,-8.868 -3.901,-8.762 C -3.699,-7.448 -2.797,-5.342 -1.129,-4.797 C -1.097,-4.639 -1.001,-4.401 -0.749,-4.22 C -0.727,-4.049 0,0 0,0"
             style="fill:#0e2b58;fill-opacity:1;fill-rule:nonzero;stroke:none"
             id="path2630" />
        </g>
        <g
           id="g2632"
           transform="translate(327.2533,466.3847)">
          <path
             d="M 0,0 L 3.04,4.539 L 6.452,0.101 L 4.295,5.447 L 4.945,5.772 C 5.109,5.807 5.304,5.877 5.768,5.529 C 6.048,6.534 5.817,7.008 4.878,7.033 C 4.869,7.457 4.046,7.58 3.989,7.596 C 3.753,7.649 3.166,7.666 3.088,7.667 C 3.088,7.667 1.816,7.71 1.698,6.967 L 0,0 z"
             style="fill:#ffffff;fill-opacity:1;fill-rule:nonzero;stroke:none"
             id="path2634" />
        </g>
        <g
           id="g2636"
           transform="translate(330.7532,473.2126)">
          <path
             d="M 0,0 C 0,0 0.057,-0.174 0.281,-0.223 C 0.537,-0.282 0.737,-0.062 0.737,-0.062 C -0.011,0.297 -0.734,0.161 -0.734,0.161 C -0.526,0.14 0,0 0,0"
             style="fill:#0e2b58;fill-opacity:1;fill-rule:nonzero;stroke:none"
             id="path2638" />
        </g>
        <g
           id="g2640"
           transform="translate(321.2522,466.3844)">
          <path
             d="M 0,0 C -2.258,1.251 -4.989,2.515 -5.645,4.082 C -5.562,1.664 -4.036,0.032 -2.391,-1.265 C -0.723,-2.579 1.085,-3.515 1.713,-4.209 L 0.508,-1.249 C 1.949,-2.1 3.263,-2.944 4.204,-3.802 C 3.901,-3.442 1.94,-1.074 0,0 M -3.347,7.264 L -2.819,5.968 C -4.885,7.163 -6.78,8.43 -7.365,9.887 C -7.223,5.293 -3.158,2.677 -0.284,0.695 L -2.017,4.947 C 1.055,3.218 4.149,1.573 5.323,-0.18 C 4.762,0.693 4.131,1.535 3.384,2.29 C 1.94,3.719 -0.752,5.259 -3.347,7.264 M -2.924,7.258 L -4.951,12.229 C -6.298,13.147 -7.345,14.119 -7.771,15.186 C -7.661,11.609 -5.371,9.15 -2.924,7.258"
             style="fill:#e51535;fill-opacity:1;fill-rule:nonzero;stroke:none"
             id="path2642" />
        </g>
        <g
           id="g2644"
           transform="translate(335.4005,462.582)">
          <path
             d="M 0,0 C 0.941,0.859 2.255,1.702 3.696,2.553 L 2.491,-0.406 C 3.119,0.287 4.927,1.223 6.595,2.537 C 8.24,3.834 9.766,5.466 9.85,7.884 C 9.193,6.318 6.462,5.053 4.204,3.802 C 2.264,2.728 0.303,0.36 0,0 M 0.821,6.092 C 0.074,5.337 -0.558,4.496 -1.119,3.622 C 0.055,5.376 3.149,7.02 6.221,8.75 L 4.488,4.498 C 7.362,6.479 11.427,9.096 11.569,13.689 C 10.985,12.233 9.089,10.965 7.023,9.77 L 7.551,11.067 C 4.957,9.061 2.264,7.521 0.821,6.092 M 11.976,18.988 C 11.549,17.921 10.502,16.95 9.155,16.032 L 7.128,11.06 C 9.575,12.952 11.866,15.412 11.976,18.988"
             style="fill:#e51535;fill-opacity:1;fill-rule:nonzero;stroke:none"
             id="path2646" />
        </g>
      </g>
    </g>
  </g>
</svg>
