<?xml version="1.0" encoding="UTF-8"?>
<svg version="1.1" xmlns="http://www.w3.org/2000/svg" width="315" height="72">
<g>
	<g>
		<path fill="#CF0A2C" d="M133.5,44.2v-35h8.5c4.1,0,7.3,0.3,9.7,1c2.6,0.7,4.9,1.8,6.9,3.5c4.2,3.3,6.3,7.6,6.3,13 c0,5.4-2.2,9.7-6.6,13.1c-2.2,1.7-4.5,2.8-6.9,3.5c-2.3,0.7-5.4,1-9.6,1H133.5z M139.6,39.3h2.8c2.8,0,5.1-0.2,6.9-0.8 c1.8-0.5,3.5-1.4,5-2.5c3-2.4,4.5-5.5,4.5-9.3c0-3.8-1.5-6.9-4.5-9.3c-2.7-2.1-6.7-3.2-11.9-3.2h-2.8V39.3z"/>
		<path fill="#CF0A2C" d="M177.2,9.3v21.1c0,3,0.6,5.2,1.7,6.6c1.7,2,4.1,3,7.2,3c3.1,0,5.5-1,7.2-3c1.1-1.3,1.7-3.5,1.7-6.6V9.3 h6.1v22.5c0,3.7-1.3,6.7-4,9.1c-3,2.7-6.7,4-11.1,4c-4.4,0-8.1-1.3-11-4c-2.7-2.4-4-5.4-4-9.1V9.3H177.2z"/>
		<path fill="#CF0A2C" d="M213.4,9.3v30h14.2v5h-20.4v-35H213.4z"/>
		<path fill="#CF0A2C" d="M239.9,9.3v30h14.2v5h-20.4v-35H239.9z"/>
		<path fill="#CF0A2C" d="M282.6,14.2h-16.3v8.4h15.8v5h-15.8v11.7h16.3v5h-22.5v-35h22.5V14.2z"/>
		<path fill="#CF0A2C" d="M313.8,14.4l-5,2.5c-0.9-1.4-1.8-2.3-2.7-2.7c-0.9-0.5-2-0.7-3.4-0.7c-1.7,0-3.1,0.4-4.2,1.2 c-1.1,0.8-1.7,1.8-1.7,3.1c0,1.7,1.5,3.1,4.4,4.1l4.1,1.4c3.3,1.1,5.7,2.6,7.2,4.2c1.5,1.7,2.3,3.7,2.3,6.1c0,3.2-1.3,5.9-3.7,8 c-2.5,2.1-5.6,3.2-9.4,3.2c-3.5,0-6.5-0.9-8.8-2.7c-2.3-1.8-3.7-4.3-4.2-7.6l6.2-1.2c0.3,2.1,0.8,3.5,1.5,4.3 c1.3,1.5,3.1,2.3,5.5,2.3c1.9,0,3.5-0.6,4.8-1.6c1.3-1.1,1.9-2.5,1.9-4.2c0-0.7-0.1-1.3-0.3-1.9c-0.2-0.6-0.6-1.1-1-1.6 c-0.5-0.5-1.1-0.9-1.8-1.3c-0.7-0.4-1.6-0.8-2.6-1.2l-3.9-1.4c-5.6-2-8.4-5-8.4-8.9c0-2.6,1.2-4.8,3.5-6.6 c2.3-1.8,5.2-2.7,8.7-2.7C307.5,8.6,311.1,10.5,313.8,14.4z"/>
	</g>
	<g>
		<path fill="#004A97" d="M136.4,52.9V71h-2.6V52.9H136.4z"/>
		<path fill="#004A97" d="M141.7,71V51.7l12.6,13.8V52.9h2.6v19.2l-12.6-13.8V71H141.7z"/>
		<path fill="#004A97" d="M166.1,55.5V71h-2.6V55.5h-4v-2.6h10.5v2.6H166.1z"/>
		<path fill="#004A97" d="M182.5,55.5h-6.9v4.3h6.7v2.6h-6.7v6h6.9V71h-9.5V52.9h9.5V55.5z"/>
		<path fill="#004A97" d="M191.3,63.3l5.3,7.7h-3.2l-4.9-7.4h-0.5V71h-2.6V52.9h3.1c2.3,0,3.9,0.5,4.9,1.3c1.1,1,1.7,2.3,1.7,4 c0,1.3-0.4,2.4-1,3.3C193.4,62.4,192.5,63,191.3,63.3z M188.1,61.2h0.8c2.5,0,3.7-1,3.7-3c0-1.8-1.2-2.8-3.6-2.8h-0.9V61.2z"/>
		<path fill="#004A97" d="M199.1,71V51.7l12.6,13.8V52.9h2.6v19.2l-12.6-13.8V71H199.1z"/>
		<path fill="#004A97" d="M228.5,66.6h-7.4l-1.9,4.4h-2.8l8.5-19.2l8.2,19.2h-2.8L228.5,66.6z M227.5,64l-2.6-6.1l-2.7,6.1H227.5z"/>
		<path fill="#004A97" d="M238.2,55.5V71h-2.6V55.5h-4v-2.6h10.5v2.6H238.2z"/>
		<path fill="#004A97" d="M247.7,52.9V71h-2.6V52.9H247.7z"/>
		<path fill="#004A97" d="M250.5,61.9c0-2.5,0.9-4.7,2.7-6.6c1.8-1.8,3.9-2.7,6.4-2.7c2.5,0,4.6,0.9,6.3,2.8 c1.8,1.8,2.7,4.1,2.7,6.6c0,2.6-0.9,4.8-2.7,6.6c-1.8,1.8-3.9,2.7-6.5,2.7c-2.2,0-4.2-0.8-6-2.4C251.5,67.1,250.5,64.8,250.5,61.9 z M253.1,61.9c0,2,0.6,3.6,1.9,4.9c1.3,1.3,2.7,1.9,4.4,1.9c1.8,0,3.3-0.7,4.6-2c1.2-1.3,1.9-2.9,1.9-4.8c0-1.9-0.6-3.5-1.8-4.8 c-1.2-1.3-2.7-2-4.5-2c-1.8,0-3.3,0.7-4.5,2C253.8,58.4,253.1,60,253.1,61.9z"/>
		<path fill="#004A97" d="M271.4,71V51.7L284,65.5V52.9h2.6v19.2L274,58.3V71H271.4z"/>
		<path fill="#004A97" d="M300.6,66.6h-7.4l-1.9,4.4h-2.8l8.5-19.2l8.2,19.2h-2.8L300.6,66.6z M299.5,64l-2.6-6.1l-2.7,6.1H299.5z"/>
		<path fill="#004A97" d="M309.8,52.9v15.5h5.1V71h-7.7V52.9H309.8z"/>
	</g>
	<g>
		<path fill="#D0202E" d="M21.6,59.4c-11.2-14.1,3.2-26.6,19.5-34l0.1-3.6C19.1,30.3,5,48.2,21.6,59.4z"/>
		<path fill="#D0202E" d="M93.8,15.9L93.8,15.9C93.8,15.9,93.8,15.9,93.8,15.9c-1.6-1-5.4-3.1-6.2-3.5c-1-0.5-3.5-0.7-3.5-0.7 c1.1,0.7,6,4.1,6,4.1c0,0,0,0,0,0c-8.7-1.4-25.2-0.9-38.1,2.6l0,2.9c13.5-4.1,25.8-4.8,38.2-4.3c-1.2,0.4-3.4,1.2-4,1.4 c0,0,2,0.2,2.8,0c0.5-0.1,2.4-0.6,3.9-1c2.8,0.3,6.9,0.7,8.3,1.3C100.8,17,97.9,16.7,93.8,15.9z"/>
	</g>
	<g>
		<path fill="#17479E" d="M76.9,70c3.2-0.4,6.2-0.9,9.2-1.6l8.4-21.2C79.2,57.7,59.1,61.3,36.8,66.4C46.8,70.4,61.3,72,76.9,70z"/>
		<path fill="#17479E" d="M125.2,39c-0.7-5.5-5.1-10.1-11.9-13.3l0,0c-1.3,2.4-2.6,4.7-4,6.8c-5.9,11.2-13,28.7-14.2,33.6 C113.9,60.1,126.5,49.4,125.2,39z"/>
		<path fill="#17479E" d="M52.8,42.4l0-1c6.6-2.8,35.1-1.7,36.6-0.3v2.1c11.2-5.9,19.1-12.2,23.8-17.4c0,0,0.1-0.1,0.1-0.1 c-8.2-3.9-19.8-6-32.9-5.5c4.9,3.7,8,9.6,8.9,13.2c1.6,0.2,3.5,0.8,3.5,0.8L91,35.3c0.6,0.1,0.9,0.1,0.9,0.1l-0.1,4.1 c0,0-8.2-0.8-8.6-0.5c0,0.1-0.1-3.9-0.1-4.1c0.9-0.3,4.6,0,6.9,0.3c-0.1-0.1-0.3-0.1-0.6-0.2C79.3,31.8,68,31,56,32c0,0,0,0,0,0 c5.8-2.1,14.3-2.3,23.8-0.7c0-1.3-2-13.6-10.1-13.5C60.9,18,57,27.7,56,31.6c-0.1-3.6,0.5-6.2,1.5-8.1c-1.7,0.4-3.3,0.9-4.9,1.4 L52.4,8l-4.8-8l-5.4,8l-2.1,22C28.4,36,21.4,44,22.4,52c0.4,3.3,2.2,6.4,5.1,8.9c26.4-2.8,46.8-9.8,61.6-17.6 C86.3,42,58.1,41.3,52.8,42.4z M79.5,35.7c1,0,1.2,0.6,1.3,1.4c0,0.8,0.1,1.7,0.1,1.7l-2.6-0.1c0,0,0-0.8,0-1.6 S78.5,35.7,79.5,35.7z M73.2,34.8c1.2,0,1.5,0.7,1.5,1.6c0.1,0.9,0.1,2,0.1,2l-3.1-0.1c0,0,0-0.9,0-2S72,34.8,73.2,34.8z  M51.5,25.2l0,29.9l-6.7,1.3l2.7-54.6l4,7L51.5,25.2z M60.9,51.9H57v-8.6l3.9-1.3V51.9z M68.1,49.7h-3.2v-6.4l3.2-1.3V49.7z  M71.9,48v-4.5l2.9-1.3V48H71.9z"/>
		<path fill="#17479E" d="M74.8,13.6c0-0.8-0.3-2.1-1.5-2.5c0,0,0,0-0.1,0l-0.5-6.2c0-0.3-0.1-0.5-0.4-0.5c-0.3,0-0.4,0.2-0.4,0.5 l-0.4,6.2c-1.4,0.5-1.5,2.2-1.5,2.5l-0.2,4.1c0,0,1.5-0.1,5.2-0.5L74.8,13.6z"/>
	</g>
	<path fill-rule="evenodd" clip-rule="evenodd" fill="#D0202E" d="M120.2,9.3C91.4,40.6,62.9,55,0,62.4 C92.3,62,124.7,19.5,120.2,9.3z"/>
</g>
</svg>