<svg height="278.107443" viewBox="45.8 60 123.73 95.6" width="359.57326" xmlns="http://www.w3.org/2000/svg"><path d="m106 154.2c-17.35-6.68-27.7-16.64-33.33-23.82a54.07 54.07 0 0 1 -7.79-13.16c-1.87.68-5.76 2.1-7.92 3a8 8 0 0 1 -3.11.65c-3.37 0-6.77-2.45-6.77-7.9 0-.24 0-1.73 0-3.81-.05-5.54-.15-15.85-.15-20.27 0-3.4.33-5.93 4.58-7.51a88.6 88.6 0 0 1 13.81-4.16c.11-.94.3-2.57.51-4.19.19-1.46.36-2.63.51-3.48.24-1.45.37-2.26 1.16-2.5s16.79-5.89 38.94-5.92h.19a130.47 130.47 0 0 1 39.71 6.11c.74.24.91 1 1.21 2.35.2.91.44 2.11.67 3.28.27 1.4.63 3.23.85 4.06l.24.06a105.62 105.62 0 0 1 14 4.7c4.39 1.76 5.09 3.83 5.09 8.12v21.49 4.41a6.29 6.29 0 0 1 -1.83 4.19 6.53 6.53 0 0 1 -4.74 2.07 7.31 7.31 0 0 1 -3-.68c-3.89-1.77-8.77-3.72-10.9-4.56a57.36 57.36 0 0 1 -7.91 13.6c-5.66 7.38-16 17.51-33 23.86l-.49.19z" fill="#231f20"/><path d="m106.58 62.27a127.4 127.4 0 0 1 39.36 6.07c.38.1 1.85 9.44 2.24 9.54a107.24 107.24 0 0 1 14.67 4.88c3.81 1.52 4.38 3.06 4.38 7.06v25.9a5.54 5.54 0 0 1 -5.43 5.12 6 6 0 0 1 -2.54-.58c-5.19-2.35-12-5-12-5s-8.16 25.77-40.66 37.89h-.1-.09c-33.12-12.74-40.85-37.37-40.85-37.37s-6.08 2.16-9 3.41a7 7 0 0 1 -2.67.56c-3 0-5.63-2.29-5.63-6.76 0-.87-.18-18-.18-24.08 0-3.44.4-5.16 3.84-6.44a88.36 88.36 0 0 1 14.45-4.3s1.11-9.92 1.49-10c0 0 15.83-5.83 38.59-5.87h.19m0-2.27h-.19a137.67 137.67 0 0 0 -28.31 3 92.44 92.44 0 0 0 -11 3 2.7 2.7 0 0 0 -1.65 2.09c-.08.32-.16.74-.26 1.3-.14.86-.31 2-.5 3.52-.16 1.24-.32 2.48-.43 3.41a90.1 90.1 0 0 0 -13.16 4c-4.92 1.84-5.32 5-5.32 8.58 0 4.42.09 14.74.14 20.28v3.8a9.63 9.63 0 0 0 2.26 6.59 7.55 7.55 0 0 0 5.61 2.4 9.14 9.14 0 0 0 3.55-.73c1.8-.76 4.82-1.88 6.85-2.62a56.67 56.67 0 0 0 7.53 12.42 70.67 70.67 0 0 0 12.9 12.65 84.55 84.55 0 0 0 20.91 11.53h.09l.82.32.83-.32h.08a78.53 78.53 0 0 0 20.61-11.34 70.37 70.37 0 0 0 12.9-12.91 60.4 60.4 0 0 0 7.64-12.82c2.42 1 6.48 2.62 9.8 4.12a8.43 8.43 0 0 0 3.48.79 7.65 7.65 0 0 0 5.57-2.43 7.35 7.35 0 0 0 2.14-5c0-.24 0-2 0-4.42 0-6.09 0-17.43 0-21.48 0-4.64-.87-7.19-5.81-9.17a102.09 102.09 0 0 0 -13.72-4.59c-.21-.93-.48-2.33-.69-3.36s-.46-2.39-.67-3.3c-.12-.53-.21-.93-.3-1.23a2.66 2.66 0 0 0 -1.65-1.95 96.67 96.67 0 0 0 -11.39-3.08 138.65 138.65 0 0 0 -28.72-3.08z" fill="#2f9e48"/><path d="m67 110.32s7.3 26.74 39.34 39h.09.09c32.05-12.21 39.34-39 39.34-39s-23.7-2.8-39.43-2.8a305.27 305.27 0 0 0 -39.43 2.8z" fill="#fff"/><path d="m149.17 97.61a42.79 42.79 0 1 1 -85.57 0z" fill="#231f20"/><path d="m91.53 141.66a67.15 67.15 0 0 1 -13.39-11.91 42.77 42.77 0 0 0 56.47 0c-6 7.05-27.73 17.06-46.87 7.64a11.72 11.72 0 0 0 3.79 4.27z" fill="#ededee"/><path d="m106.38 103.88a114.19 114.19 0 0 0 -37.38 6.12 39.43 39.43 0 0 0 74.78 0 114.46 114.46 0 0 0 -37.4-6.12z" fill="#2f9e48"/><path d="m142.4 113.52c.51-1.14 1-2.31 1.37-3.51a117 117 0 0 0 -74.77-.01c.4 1.2.86 2.37 1.37 3.51a117.35 117.35 0 0 1 72 0z" fill="#09783d"/><path d="m106.38 132.94a39.41 39.41 0 0 1 -36-23.41l-1.38.47a39.43 39.43 0 0 0 74.78 0l-1.37-.47a39.41 39.41 0 0 1 -36.03 23.41z" fill="#09783d"/><path d="m137.72 117.14c-9.23 0-15.13-6.21-18-10.23l2.32-1.65a23.39 23.39 0 0 0 7 6.62 17 17 0 0 0 11.96 2.12l.48 2.8a21.33 21.33 0 0 1 -3.76.34z" fill="#09783d"/><path d="m122.33 131.52c-1.76-3.72-6-7-11.82-9.26a41.37 41.37 0 0 0 -17.51-2.64c-9 .73-16.69-3.81-21.54-7.74l1.78-2.21c8.07 6.53 15.07 7.48 19.53 7.12a44.34 44.34 0 0 1 18.81 2.82c6.55 2.51 11.3 6.31 13.37 10.69z" fill="#09783d"/><path d="m134.32 124.53c-5.13-1.1-14.69-5.19-31-18.4l1.79-2.21c7.19 5.81 20.63 15.86 29.85 17.83z" fill="#09783d"/><path d="m94.48 138.32-.65-2.77c15.69-3.67 25.48-11.55 30.93-17.52a44.16 44.16 0 0 0 8.18-12.23l2.65 1a45.81 45.81 0 0 1 -8.64 13c-5.73 6.35-16.01 14.67-32.47 18.52z" fill="#231f20"/><path d="m137.75 117.89a20.63 20.63 0 0 1 -14-5.69 28.91 28.91 0 0 1 -6.35-8.53l2.6-1.17a26.44 26.44 0 0 0 5.75 7.67 17.58 17.58 0 0 0 17.46 4.11l.76 2.73a22.72 22.72 0 0 1 -6.22.88z" fill="#231f20"/><path d="m136.89 126.18c-1.12 0-3.91-.29-8.85-2.47-8.24-3.65-18.52-10.72-30.54-21l1.85-2.16c27.48 23.54 37.59 22.82 37.69 22.8l.41 2.82a4 4 0 0 1 -.56.01z" fill="#231f20"/><path d="m123.12 135.45c-1.73-9.3-17.64-15.33-30.17-14.32-6.08.5-12.51-1.43-18.61-5.56a39.74 39.74 0 0 1 -7.44-6.42l2.15-1.85c.15.17 10.55 12.07 23.67 11a44.29 44.29 0 0 1 20.58 3.56c7.15 3.16 11.63 7.8 12.61 13.07z" fill="#231f20"/><g fill="#fdee19"><path d="m78.69 74.37.63-7 1.41-.25q-.55 4.88-1.1 9.88l-1.81.33c-.26-1.88-.51-3.76-.77-5.64-.19 2-.39 3.94-.58 5.91l-1.82.38c-.45-3.11-.91-6.22-1.36-9.32l1.55-.34q.41 3.34.82 6.69c.22-2.34.45-4.67.67-7l1.49-.29z"/><path d="m87.53 75.74-1.53.2c-.09-.59-.13-.89-.22-1.48l-1.6.23c-.07.62-.11.92-.17 1.54l-1.43.22q.66-4.92 1.34-9.84l2-.29zm-3.19-2.38 1.25-.18-.68-4.76c-.23 1.98-.35 2.96-.57 4.94z"/><path d="m94.2 71.76v1.57a1.78 1.78 0 0 1 -1.87 2l-.68.07c-1.26.12-1.88-.39-1.89-1.57 0-.81 0-1.22 0-2l1.51-.16v2c0 .37.19.53.6.49h.2c.41 0 .6-.24.59-.61s0-.79 0-1.31a.73.73 0 0 0 -.44-.74l-1.57-.93a1.56 1.56 0 0 1 -.92-1.56c0-.53 0-.79 0-1.32a1.81 1.81 0 0 1 1.88-2l.66-.07c1.25-.12 1.88.43 1.89 1.61v1.74l-1.53.03c0-.67 0-1 0-1.68 0-.37-.2-.54-.59-.5h-.19a.56.56 0 0 0 -.58.61v1.07a.74.74 0 0 0 .44.74l1.58.93a1.56 1.56 0 0 1 .91 1.59z"/><path d="m99.84 69.1c0-1.62 0-2.42 0-4l1.56-.07v9.61l-1.55.06c0-1.69 0-2.53 0-4.22l-1.5.07v4.23c-.62 0-.93.05-1.55.1 0-3.21 0-6.41 0-9.61l1.56-.1v4.05z"/><path d="m105.66 74.5h-1.56q0-4.8 0-9.61h1.56z"/><path d="m111.32 74.55c-.52-2.17-1-4.33-1.58-6.5v1.69 4.78h-1.4c0-3.2 0-6.41 0-9.61h1.82q.73 3 1.45 6c0-.64 0-1 0-1.6 0-1.73 0-2.6 0-4.33h1.4v9.61z"/><path d="m118 70.89c0-.5 0-.75 0-1.26l2.33.18v3.54c0 1.2-.64 1.73-1.9 1.64l-.83-.06c-1.26-.09-1.89-.71-1.88-1.9q0-3.11 0-6.2c0-1.2.64-1.76 1.91-1.67l.82.06a1.74 1.74 0 0 1 1.86 1.92v1.55l-1.53-.13c0-.58 0-.88 0-1.46a.54.54 0 0 0 -.58-.61h-.33c-.4 0-.59.14-.6.52q0 3 0 6.06c0 .39.18.58.59.61h.35c.4 0 .59-.13.6-.52 0-.88 0-1.32 0-2.21z"/><path d="m123.84 75.4.06-8.27-1.39-.13c0-.54 0-.8 0-1.33 1.74.17 2.61.27 4.34.49v1.33l-1.39-.17c0 2.76 0 5.51-.07 8.27z"/><path d="m131.67 76.55-.83-.13a1.91 1.91 0 0 1 -1.84-2.07l.06-6.2c0-1.19.64-1.69 1.9-1.5l.83.13a1.94 1.94 0 0 1 1.86 2.1c0 2.07 0 4.13-.08 6.2-.02 1.19-.65 1.67-1.9 1.47zm-.15-8.55h-.32c-.41-.06-.6.09-.6.47q0 3-.07 6.06a.61.61 0 0 0 .59.66h.32c.39.06.57-.09.58-.47 0-2 0-4 .07-6.06a.6.6 0 0 0 -.57-.66z"/><path d="m139.08 77.85-1.47-6.78v1.69c0 1.9 0 2.86-.07 4.77l-1.38-.27c0-3.2.09-6.4.14-9.6l1.8.36q.67 3.11 1.34 6.22c0-.64 0-1 0-1.61l.07-4.31c.55.11.83.17 1.38.3l-.15 9.59z"/></g><path d="m104.29 147.49s0-.08 0-.12c0-.31.11-.62.16-.93s.14-.82.22-1.23a.13.13 0 0 0 0-.1l-.63-.61-1-1h.1l1.84-.27.36-.05a.15.15 0 0 0 .06 0c.21-.41.41-.82.61-1.23s.28-.57.43-.86l.11.23.51 1c.14.27.27.54.4.81a.09.09 0 0 0 .09.06l1.75.26.54.07-1.22 1.18-.39.39a.09.09 0 0 0 0 .1c.07.43.15.87.22 1.3s.11.62.16.93v.05l-.24-.12-1.21-.64-.6-.32a.14.14 0 0 0 -.11 0l-1 .51-1 .55z" fill="#231f20"/><path d="m111.76 144.9s0-.05 0-.08c0-.22.08-.43.11-.65l.15-.86s0 0 0-.06l-.44-.43-.7-.68h.07l1.28-.19h.25s0 0 0 0c.15-.28.29-.57.43-.86l.29-.59c0 .06.06.11.08.16l.36.72.28.56s0 0 .06 0l1.22.17.37.06-.84.82-.28.27a.09.09 0 0 0 0 .07c.06.31.11.61.16.91s.07.43.11.65a0 0 0 0 0 0 0l-.17-.08-.84-.45-.42-.22a.08.08 0 0 0 -.07 0l-.68.36-.73.38z" fill="#231f20"/><path d="m98.11 144.9a.22.22 0 0 1 0-.08c0-.22.07-.43.11-.65l.15-.86s0 0 0-.06l-.44-.43-.7-.68h.08l1.27-.19h.25a.05.05 0 0 0 0 0l.42-.86.3-.59.08.16.36.72.27.56a.09.09 0 0 0 .07 0l1.21.17.38.06-.84.82-.28.27s0 0 0 .07c0 .31.11.61.16.91s.07.43.11.65l-.16-.08-.85-.45-.42-.22a.08.08 0 0 0 -.07 0l-.67.36-.73.38z" fill="#231f20"/><path d="m65.26 98.95v-.66 1.76z" fill="#fff"/><path d="m65.25 102.68v4.58.47-5.07z" fill="#fff"/><path d="m130.13 88.22-.08-.84-.21.79-1 3.9-.27 1 2 .35-.13-1.39z" fill="none"/><path d="m114.82 82.42h-.43-.65v4.09 1.46h.84a.84.84 0 0 0 .8-.58 1.09 1.09 0 0 0 0-.26v-.57-3.34a.84.84 0 0 0 -.56-.8z" fill="none"/><path d="m67.37 82.15v24c1-.32 2.08-.64 3.12-.93.65-.19 1.31-.37 2-.54q3.45-.93 7-1.66v-5.02q-3.51.7-7 1.59v-4.13c2.3-.57 4.62-1.09 7-1.54v-5.18q-3.51.66-7 1.49v-4.23q3.45-.81 7-1.45v-5.04q-3.51.61-7 1.4c-1.74.38-3.44.8-5.12 1.24z" fill="#fff"/><path d="m88 86.25-2.1-7.78c-1.58.21-2.88.4-4.45.66l-.35.05v23.52c1.68-.33 3.37-.62 5.08-.89v-6.61l2.12 6.31c1.6-.23 2.91-.38 4.53-.54h.25v-23.28c-1.7.14-3.39.32-5.08.52z" fill="#fff"/><path d="m118 77.58h-.26c-.76-.07-1.52-.11-2.29-.15l-1.72-.1c-1.68-.08-3.38-.13-5.08-.16v9.13 5.08 4 5h1 1.35l1.34.06 1.3.07v-9.23h.75.34a.86.86 0 0 1 .63.78v3.53 5l1 .07h.1l1.25.11h.12c.42 0 .83.07 1.24.12h.14l1.2.13v-5-4-1.02a2.54 2.54 0 0 0 -1.84-2.16.1.1 0 0 1 0-.2 2.58 2.58 0 0 0 1.55-1.25 1.94 1.94 0 0 0 .17-.42 2.68 2.68 0 0 0 .11-.49v-6.69a2.54 2.54 0 0 0 -2.4-2.21zm-2.58 5.66v3.31.57a1.09 1.09 0 0 1 0 .26.84.84 0 0 1 -.8.58h-.84v-1.51-4.09h.65.43a.84.84 0 0 1 .59.8z" fill="#fff"/><path d="m102.43 77.17-2.52.08c-1.7.07-3.4.17-5.08.29v16.06 7.17c1.68-.14 3.38-.25 5.08-.33h.09.63.8.75.74.92 3v-5h-2.47-1.11-.42-1.41-.08l-1.5.06v-2.21-1.83l1.5-.06h.07 1.42 4v-5.15h-2.47-1.11-.42-1.42-.07c-.5 0-1 0-1.5.06v-4.1h1.5.07 1.43 4v-5z" fill="#fff"/><path d="m136.18 96.29-.18-1.76-.49-5.29-.4-4.25-.48-5.26-2.3-.41-2.88-.46c-.72-.1-1.44-.21-2.17-.3l-1.28 4.94-1 4-1.28 5-.45 1.72-.56 2.19-1.25 4.86c1.7.19 3.39.42 5.07.68l.73-2.84.51-2c1.15.19 2.3.38 3.43.59l.13 1.41.35 3.75c1.75.34 3.48.72 5.21 1.13l-.49-5.22zm-7.4-3.12.27-1 1-3.89.21-.8.08.84.35 3.85.13 1.39z" fill="#fff"/><path d="m142.82 99.63v-18.2q-2.52-.62-5.08-1.14v23.8c1.71.42 3.4.88 5.08 1.36s3.37 1 5 1.57v-5.23q-2.49-.81-5-1.51z" fill="#fff"/><path d="m162.93 99.18v-10.25a2.63 2.63 0 0 0 -1.61-2.43 33.07 33.07 0 0 0 -3.75-1.5c-3.32-1.11-4.62-1.41-4.63-1.41a2.32 2.32 0 0 0 -.63-.08h-.08a2.64 2.64 0 0 0 -2.64 2.61v9a2.87 2.87 0 0 0 1.6 2.29c.77.43 2.19 1.34 3.47 2.19l.89.59 1.75 1.18v5.16a1 1 0 1 1 -2.07 0v-4.65l-5.64-3.51v.33.3 10.49a2.65 2.65 0 0 0 1.49 2.34l.49.18c2.46.93 4.92 2 7.32 3.07l.18.08.28.12a2.5 2.5 0 0 0 .89.16h.06a2.65 2.65 0 0 0 2.65-2.65v-10c0-.1 0-.2 0-.3a.11.11 0 0 0 0-.06 1.57 1.57 0 0 0 0-.23 2.63 2.63 0 0 0 -.87-1.45h-.07l-.37-.25-1.63-1.14-2-1.4-.28-.2-.73-.46-1.76-1.17v-.69-4.6a1 1 0 1 1 2.07 0v4.6z" fill="#fff"/><path d="m54.64 85.9c.61-.24 1.81-.71 3.58-1.29 2.28-.74 4.41-1.27 4.6-1.31a2.12 2.12 0 0 1 .44 0h.22a2.06 2.06 0 0 1 2.16 1.7v7.42q-2.74.8-5.46 1.68v-3.73a1 1 0 0 0 -1.05-1.05h-.13a1.09 1.09 0 0 0 -1 1.1v15.9a1.05 1.05 0 0 0 .89 1h.16.16a1.05 1.05 0 0 0 .89-1v-4l-1.24.45v-3.12l1.26-.45c1.81-.63 3.64-1.24 5.47-1.82v5 4.58.47 1.24a1.11 1.11 0 0 1 0 .42 2.54 2.54 0 0 1 -1.54 2.14 1.43 1.43 0 0 1 -.27.09c-1.4.5-2.85 1.05-4.34 1.65-1.19.47-2.27.92-3.29 1.37l-.17.07h-.07l-.19.08-.17.07a1.6 1.6 0 0 1 -.33.07 1.42 1.42 0 0 1 -.28 0h-.23a2.19 2.19 0 0 1 -1.46-.55 3.31 3.31 0 0 1 -.26-.27l-.11-.16a1.63 1.63 0 0 1 -.19-.34 2.19 2.19 0 0 1 -.16-.57 1.11 1.11 0 0 1 0-.17.76.76 0 0 1 0-.15v-23.79a2.91 2.91 0 0 1 1.56-2.49 4.45 4.45 0 0 1 .55-.24z" fill="#fff"/><path d="m164.64 87.43a.93.93 0 1 1 -.93.93.93.93 0 0 1 .93-.93zm0 1.64a.71.71 0 0 0 .71-.71.71.71 0 0 0 -1.42 0 .71.71 0 0 0 .71.71zm-.37-1.21h.37c.26 0 .42.06.42.3s-.11.26-.27.27l.26.43h-.26l-.23-.42h-.07v.42h-.22zm.41.4c.09 0 .14 0 .14-.12s-.11-.1-.19-.1h-.14v.22z" fill="#fff"/></svg>