<?xml version="1.0" encoding="UTF-8"?>
<!-- Created with Inkscape (http://www.inkscape.org/) -->
<svg width="79.375mm" height="62.598mm" version="1.1" viewBox="0 0 79.375 62.598" xmlns="http://www.w3.org/2000/svg" xmlns:cc="http://creativecommons.org/ns#" xmlns:dc="http://purl.org/dc/elements/1.1/" xmlns:rdf="http://www.w3.org/1999/02/22-rdf-syntax-ns#">
 <metadata>
  <rdf:RDF>
   <cc:Work rdf:about="">
    <dc:format>image/svg+xml</dc:format>
    <dc:type rdf:resource="http://purl.org/dc/dcmitype/StillImage"/>
    <dc:title/>
   </cc:Work>
  </rdf:RDF>
 </metadata>
 <g transform="translate(82.623 -57.92)">
  <g transform="matrix(.15389 0 0 .15389 -80.639 59.724)">
   <g fill="#990034">
    <path class="cls-1" d="m245 254.74s-87.71-22.31-102.33-208.81l102.33-27.85 102.58 27.85c-13.94 185.89-102.58 208.81-102.58 208.81z"/>
    <g>
     <path class="cls-2" d="m59 384.86h-51.7c-4.5 0-7.3-3.32-7.3-8.39v-17.94h21.91v8.31h22.52v-45.41h21.91v55c0 5.11-2.88 8.43-7.34 8.43z"/>
     <path class="cls-2" d="m139.13 384.86h-57c-4.51 0-7.38-3.32-7.38-8.39v-55.04h21.9v45.43h28v-45.43h21.9v55c-0.05 5.11-2.92 8.43-7.42 8.43z"/>
     <path class="cls-2" d="m216.1 384.86h-53.75c-4.51 0-7.46-3.32-7.46-8.39v-14.04h21.91v6.48h24.85v-2.66l-42.65-13.82c-3.19-1-4.12-3-4.12-6.31v-16.33c0-5.06 3-8.38 7.46-8.38h53.91c4.5 0 7.3 3.07 7.3 8.13v12.79h-21.9v-5h-24.85v2.58l42.57 13.62c3.18 1 4.19 3.15 4.19 6.48v16.42c0 5.11-2.95 8.43-7.46 8.43z"/>
     <path class="cls-2" d="m278.87 339.43v45.43h-21.87v-45.43h-25v-18h71.93v18z"/>
     <path class="cls-2" d="m312.27 384.86v-63.43h21.91v63.45z"/>
     <path class="cls-2" d="m407 384.86h-57.21c-4.51 0-7.23-3.32-7.23-8.39v-46.68c0-5.06 2.72-8.38 7.23-8.38h57.21c4.51 0 7.38 3.32 7.38 8.38v18.36h-21.9v-9.55h-28v29.07h28v-9.55h21.9v18.31c-0.04 5.11-2.91 8.43-7.38 8.43z"/>
     <path class="cls-2" d="m422.73 384.86v-63.43h66.65v18h-44.74v5.15h34.1v16.61h-34.1v5.65h45.36v18z"/>
    </g>
   </g>
   <g fill="#003768">
    <g>
     <path class="cls-2" d="m87.21 292.64 5 13.53 1.94-5.14-3.17-8.39h2.91l1.71 4.65 1.74-4.65h2.91l-3.25 8.39 2 5.14 4.91-13.53h3.78l-7 18.34h-2.74l-2.33-6.3-2.29 6.3h-2.85l-7-18.34z"/>
     <path class="cls-2" d="m133.84 292.64h3.36l7.11 18.34h-3.68l-1.78-4.74h-6.65l-1.78 4.74h-3.68zm4 10.72-2.36-6.33-2.36 6.33z"/>
     <path class="cls-2" d="m163.49 305.36h3.36v1.52a1.2 1.2 0 0 0 1.2 1.16h4.84a1.21 1.21 0 0 0 1.2-1.19v-1.75a1 1 0 0 0-0.71-1l-7.69-2.06a3 3 0 0 1-2.2-3v-3a3.74 3.74 0 0 1 3.72-3.72h6.62a3.73 3.73 0 0 1 3.75 3.72v2.23h-3.39v-1.52a1.19 1.19 0 0 0-1.2-1.17h-4.81a1.24 1.24 0 0 0-1.23 1.2v1.74a1 1 0 0 0 0.71 1l7.69 2.06a3.12 3.12 0 0 1 2.23 3v3a3.73 3.73 0 0 1-3.75 3.72h-6.62a3.74 3.74 0 0 1-3.72-3.72z"/>
     <path class="cls-2" d="m197.05 292.64h3.49v7.39h7.59v-7.39h3.53v18.34h-3.53v-7.68h-7.59v7.68h-3.49z"/>
     <path class="cls-2" d="m231 292.64h3.58v18.34h-3.58z"/>
     <path class="cls-2" d="m253.92 292.64h2.84l8.79 8.78v-8.78h3.52v18.34h-3.52v-5l-8.11-8.14v13.11h-3.52z"/>
     <path class="cls-2" d="m288.31 296.03a3.75 3.75 0 0 1 3.75-3.72h6.94a3.72 3.72 0 0 1 3.71 3.72v2.45h-3.39v-1.74a1.16 1.16 0 0 0-1.16-1.17h-5.16a1.18 1.18 0 0 0-1.16 1.17v10.14a1.17 1.17 0 0 0 1.16 1.16h5.17a1.15 1.15 0 0 0 1.16-1.16v-2.29h-3.42v-2.72h6.81v5.72a3.72 3.72 0 0 1-3.71 3.72h-6.95a3.75 3.75 0 0 1-3.75-3.72z"/>
     <path class="cls-2" d="m321.69 292.64h15.67v3.06h-6.08v15.28h-3.49v-15.28h-6.1z"/>
     <path class="cls-2" d="m368.35 292.31a3.74 3.74 0 0 1 3.71 3.72v11.56a3.74 3.74 0 0 1-3.71 3.72h-8.14a3.74 3.74 0 0 1-3.72-3.72v-11.56a3.74 3.74 0 0 1 3.72-3.72zm-7.17 3.26a1.19 1.19 0 0 0-1.2 1.17v10.14a1.18 1.18 0 0 0 1.2 1.16h6.2a1.17 1.17 0 0 0 1.19-1.16v-10.14a1.18 1.18 0 0 0-1.19-1.17z"/>
     <path class="cls-2" d="m391.41 292.64h2.85l8.74 8.79v-8.78h3.52v18.34h-3.52v-5l-8.11-8.14v13.11h-3.52z"/>
    </g>
    <path class="cls-3" d="m245 30.18 88.66 25q-1.23 16.37-3.23 30.83c-9 7.26-46.94 37.6-85.43 37.6-37 0-73.5-28.16-84.25-36.66-1.4-9.94-2.56-20.51-3.44-31.77z"/>
   </g>
   <g fill="#fff">
    <path class="cls-2" d="m245 123.61c38.49 0 76.45-30.34 85.43-37.6q-1 7.57-2.25 14.66c-6.11 5.08-44.37 36.76-83.18 36.76-36.76 0-73-28.53-81.93-35.75q-1.25-7.12-2.32-14.74c10.73 8.49 47.25 36.67 84.25 36.67z"/>
    <path class="cls-2" d="m245 146.87c36.64 0 72.78-30.69 81.84-38.86q-2 10.33-4.3 19.61c-15.3 12.09-46.24 33-77.54 33-30.42 0-60.51-19.72-76.22-31.93q-2.32-9.22-4.33-19.49c10.8 9.48 45.44 37.67 80.55 37.67z"/>
    <path class="cls-2" d="m122.18 32.26c17.51 203.87 122.82 232.28 122.82 232.28s105.55-28.41 123.06-232.28l-123.06-32.26zm20.49 13.67 102.33-27.85 102.58 27.85c-13.94 185.89-102.58 208.81-102.58 208.81s-87.71-22.31-102.33-208.81z"/>
    <path class="cls-2" d="m308.11 170.63v-21.92c4-2.61 7.58-5.19 10.71-7.56a252.82 252.82 0 0 1-10.71 29.48z"/>
    <path class="cls-2" d="m296.69 192.78a151.25 151.25 0 0 1-11.29 16.27v-47.62c3.92-1.79 7.7-3.73 11.29-5.74z"/>
    <path class="cls-2" d="m182.35 169.63a259.69 259.69 0 0 1-9.88-27.48c2.95 2.19 6.26 4.52 9.88 6.88z"/>
    <path class="cls-2" d="m204.57 208.3a154 154 0 0 1-11.3-16.81v-35.84c3.6 2 7.38 3.95 11.3 5.74z"/>
    <polygon class="cls-2" points="274.39 70.7 256.22 83.91 263.16 105.28 244.98 92.07 226.8 105.28 233.75 83.91 215.57 70.7 238.04 70.7 244.98 49.33 251.93 70.7"/>
    <path class="cls-2" d="m227.1 169.18v49.53a86.62 86.62 0 0 0 10.25 6.07c0.34-7.79 2.07-48.49 2.07-48.49l5.56-5.79 5.56 5.79s1.7 40.7 2 48.49a86.08 86.08 0 0 0 10.24-6.07v-49.53c2.46-0.35 11.31-3.25 11.31-3.25v55.5c-14.94 14.12-27.39 17.83-29.17 18.31-1.79-0.48-14.24-4.19-29.18-18.31v-55.5s8.91 2.9 11.36 3.25z"/>
   </g>
   <path d="m122.18 32.26c17.51 203.87 122.82 232.28 122.82 232.28s105.55-28.41 123.06-232.28l-123.06-32.26z" fill="none" stroke="#003768" stroke-width="3"/>
  </g>
 </g>
</svg>
