<svg version="1.2" xmlns="http://www.w3.org/2000/svg" viewBox="0 0 236 250" width="236" height="250">
	<defs>
		<radialGradient id="g1" cx="118.3" cy="125" r="177.6" gradientUnits="userSpaceOnUse">
			<stop offset="0" stop-color="#fffffb"/>
			<stop offset=".069" stop-color="#eeecea"/>
			<stop offset=".239" stop-color="#d1d0cf"/>
			<stop offset=".385" stop-color="#c1c0c0"/>
			<stop offset=".488" stop-color="#bbbbbb"/>
			<stop offset=".542" stop-color="#b0b0b1"/>
			<stop offset=".624" stop-color="#98989b"/>
			<stop offset=".725" stop-color="#76767b"/>
			<stop offset=".84" stop-color="#4c4e54"/>
			<stop offset=".966" stop-color="#1f252c"/>
			<stop offset="1" stop-color="#111921"/>
		</radialGradient>
	</defs>
	<style>
		.s0 { fill: #111921 } 
		.s1 { fill: url(#g1) } 
	</style>
	<path class="s0" d="m118.3 249.4l16.5-10.7 13.8-12.3 10.7-11.6 9.9-14.5 7.9-14.3 5.5-10.9 4.5 1.2 26.4 7.3-3-14.1-2-11.5 25.6-9.4-29.3-11.5 5.4-13.2-12.9-4.5 2.8-16.6 1.2-13.3 0.7-11.1 0.3-12.1-0.4-7.5-30.6-6.9 4.3-13.5-43.9-5.5h-25.2l-22.7 2.1-22.9 3.7 3.9 13.2-30.2 7.1v23.2l1.9 19.1 2.1 17.1-10.7 5.2-1.1 0.9 4.9 12.7-29.3 11.3 25.2 9.4-3.8 25.1 30.6-8.3 7.4 15.9 8.5 14.2 9.5 12.9 16.2 16.7z"/>
	<path fill-rule="evenodd" class="s1" d="m236.2 148.4l-28.1-11.1-2.4-1 5.4-12.8-2.3-1q-5.2-2.1-10.5-4l0.5-2.5c4.4-27.9 3.8-48.8 3.7-49.7l-0.2-7.8-7.6-2.3c-7.3-2.2-15.7-3.8-22.2-4.8l4.5-13.4-12.8-2c-15.3-2.4-30.8-3.7-46.2-3.7-21.8 0-38.3 2.5-46.1 4l-12.4 2.4 4.3 12.7c-10.7 1.6-18 3.5-22.3 4.8l-7.5 2.3-0.3 7.8c0 0.9-0.6 21.9 3.8 49.8l0.4 2.5q-5.1 1.9-10.1 3.9l-2.3 1 5.4 12.9-2.3 0.9-28.3 11.1 26.9 10.3-4.7 26.3 31.7-8.9c3.1 7.3 6.5 14.3 10.2 20.7 12.6 21.7 28.8 38.5 48.1 49.9l5.6 3.3 5.6-3.3c19.3-11.4 35.5-28.2 48.1-49.9 3.7-6.4 7.2-13.4 10.3-20.7l31.9 8.9-4.7-26.3zm-199.8-82l0.2-6 5.8-1.8c8.1-2.5 17.5-4.1 24.9-5.2l-4.3-12.8 9.6-1.8c7.7-1.5 24-4 45.6-4 15.2 0 30.6 1.2 45.8 3.7l9.9 1.5-4.5 13.4c7.3 1.1 16.7 2.7 24.8 5.2l5.8 1.8 0.2 6c0 1.1 0.7 22.7-4.1 51.4q-1.3-0.5-2.7-1c4.6-28.1 4-49.2 4-50.3l-0.2-4-3.8-1.2c-9.4-2.8-20.7-4.6-27.8-5.5l4.5-13.5-6.6-1c-15-2.4-30.2-3.6-45.3-3.6-21.4 0-37.5 2.4-45.1 3.9l-6.4 1.2 4.4 13c-7.2 0.9-18.5 2.7-27.8 5.5l-3.9 1.2-0.1 4c-0.1 1.1-0.7 22.2 3.9 50.3q-1.3 0.5-2.7 1c-4.7-28.7-4.1-50.3-4.1-51.4zm37.7-19.3c12.3-2.3 45.7-7.1 88.5-0.3l-4.6 13.8c0 0 19.4 1.7 33.7 6.1 0 0 0.7 20.7-3.7 48.4q-11.8-3.6-23.8-6c-15-3-30.5-4.5-45.9-4.5-15.3 0-30.8 1.5-45.9 4.5-8 1.6-15.9 3.6-23.7 6-4.4-27.7-3.8-48.4-3.8-48.4 14.3-4.4 33.8-6.1 33.8-6.1zm66.7 8l-4.8-0.5 3.6 3.2-1.9 4.3 4.1-2.4 3.5 3.1-1-4.6 4.1-2.4-4.8-0.4-1-4.6zm-84.6 22.9l-4.7 0.6 4.2 2.3-1 4.6 3.5-3.2 4.1 2.3-2-4.3 3.5-3.2-4.7 0.6-2-4.3zm20.2-2l-4.7 0.4 4 2.4-1 4.6 3.5-3 4.1 2.4-1.9-4.3 3.6-3.1-4.7 0.4-1.8-4.4zm20.2-1.2l-4.7 0.2 3.9 2.6-1.2 4.5 3.7-2.9 3.9 2.6-1.7-4.4 3.7-2.9-4.7 0.2-1.6-4.4zm20.2-0.5l-4.7 0.1 3.8 2.7-1.4 4.5 3.8-2.8 3.8 2.7-1.5-4.4 3.8-2.8h-4.7l-1.4-4.4zm20.1 0.3l-4.7-0.2 3.7 2.9-1.6 4.4 3.9-2.6 3.7 2.9-1.3-4.5 3.9-2.6-4.7-0.2-1.3-4.5zm20.2 1.1l-4.7-0.3 3.6 3-1.8 4.4 4-2.5 3.6 3-1.1-4.5 4-2.5-4.7-0.4-1.1-4.6zm20.2 1.9l-4.7-0.5 3.5 3.2-2 4.3 4.1-2.4 3.5 3.2-0.9-4.6 4.1-2.3-4.7-0.6-0.9-4.6zm-101.1 105.8v-33.2q2-0.5 4.1-0.9 2.6-0.5 5.2-0.9v49.7c2.8 3.9 5.9 7.8 9.4 11.7v-15.9c-2-3.9-3-8.3-3-12.8q0-2.7 0.5-5.4c-0.2-1.9-0.1-3.3 0-3.7q0.2-5.9 2.5-9.6v-15.4q4.6-0.6 9.3-0.9v11.1q0 0 0.1 0 0.3 0 0.7 0c2.4-1.4 4.9-2.4 7.6-3q0.4-0.5 1-1v-7.6q2.3 0 4.6 0 2.4 0 4.7 0v8.1q0.2 0.2 0.4 0.5c2.6 0.5 5 1.5 7.3 2.8q0.4 0 0.8 0 0.4 0 0.8 0v-10.9q4.7 0.3 9.4 0.9v16.8q1.5 3.3 1.7 8c0 0.4 0.1 1.4 0 2.7q0.8 3.2 0.8 6.6c0 4.2-0.9 8.2-2.5 11.8v17.3c3.4-3.8 6.5-7.7 9.3-11.6v-50.2q2.6 0.4 5.2 0.9 2.1 0.4 4.2 0.9v33.9c3.9-6.9 7-13.4 9.3-18.7v-12.9q4.4 1.2 8.7 2.6c-10.3 31.2-28.3 63.3-60.1 82-31.8-18.7-49.8-50.8-60.1-82q4.3-1.4 8.7-2.6v11.8c2.2 5.4 5.3 12 9.4 19.1zm104.5-10.4q-4.9 12-11 22.5c-12.4 21.3-28.2 37.8-47.2 49l-4.3 2.5-4.3-2.5c-18.9-11.2-34.8-27.7-47.2-49q-6-10.5-11-22.5l-3.8-9.4-1.5-5.8q1.2-0.5 2.4-0.9c4.5 13.6 9.9 26.1 16.4 37.1 12.1 20.9 27.6 37.1 46.1 48l2.9 1.7 2.9-1.7c18.5-10.9 34.1-27.1 46.2-48 6.4-11 11.9-23.5 16.4-37.1q1.4 0.5 2.8 1c-1.9 5.7-3 8.3-5.8 15.1zm-123-78.4l2.6 4 4.5-1.2-3 3.6 2.6 4-4.4-1.7-3.1 3.6 0.3-4.7-4.4-1.8 4.6-1.1zm118.6 3.9l-4.6-1.2 3 3.7-2.5 4 4.4-1.8 3 3.7-0.3-4.7 4.4-1.7-4.6-1.2-0.3-4.8zm-83.4-43.2l-4.7 0.5 4 2.4-1 4.6 3.6-3.1 4 2.4-1.8-4.4 3.5-3.1-4.7 0.4-1.9-4.3zm-64.1 69.5q5.4-2.3 11-4.3 0.1 0 0.3-0.1 1.8-0.6 3.5-1.2 0.7-0.2 1.4-0.5 2-0.6 4.1-1.3c45-13.9 93.3-13.9 138.4 0q2.1 0.7 4.1 1.3 0 0 0 0.1 0.7 0.2 1.4 0.4 1.5 0.5 3.1 1.1 0.7 0.2 1.4 0.5 5.2 1.9 10.3 4-2.2 5.2-4.4 10.5-0.1 0.4-0.3 0.8-4.6 11-9.2 22-4.7-1.9-9.4-3.6-0.7-0.2-1.3-0.4-0.1-0.1-0.1-0.1-0.6-0.2-1.2-0.4-0.1 0-0.2-0.1-0.5-0.1-1.1-0.3-0.1-0.1-0.2-0.1-0.6-0.2-1.3-0.4c-39.9-12.9-83-12.8-122.9 0.4q-0.1 0-0.2 0.1-0.6 0.2-1.1 0.3-0.1 0.1-0.2 0.1-0.6 0.2-1.2 0.4 0 0-0.1 0.1-5.4 1.8-10.7 4-7-16.6-13.9-33.3zm84.8 83.4c-3.3-0.6-6.5-1.9-9.3-3.8v14.8q4.4 4 9.3 7.6zm-87.7-26.8l4.3-24.4-22.8-8.8 24.3-9.5q0.1-0.1 0.1-0.1l9.5 22.8c0 0 2 4.2 5.5 3.5q1.7-0.4 2.8-0.7l3.7 9.5zm106.4 22.7c-2.8 2-6 3.3-9.3 4v18.9q4.9-3.5 9.3-7.5zm78.7-22.7l-27.9-7.8 3.9-9.6c1 0.2 1 0.5 2.5 0.8 3.5 0.8 5.8-3.4 5.8-3.4l9.5-23q0.2 0.1 0.4 0.2l24.3 9.6-22.8 8.8zm-81.9-118.8l-13.7 1.3c0 0-0.7-1.4-1-3.7q0-0.3-0.1-0.7 0-0.5 0-1 0-0.7 0-1.3 0.1-0.6 0.1-1.1c0.4-2.1 1-3.4 1-3.4l2.8-0.3 0.6-0.1c0.1 0.6 0.1 1.5 0 2.4l-1.2 0.1c0 0-0.3 0.3-0.6 1.3q0 0.3-0.1 0.8 0 0.5 0 1.2 0 0.6 0 1.1 0.1 0.6 0.2 1c0.2 0.9 0.5 1.1 0.5 1.1l9.5-0.9zm-4.8-8.3h0.9v2.2l2.4-0.3v-4.5l-3.4 0.3c0.1 0.9 0.1 1.7 0.1 2.3zm-1.4-2.2q-0.1-0.4-0.1-0.8c-0.3-2.3-1-3.7-1-3.7l-16.5 1.2 2 2.2 2.3-0.2 0.3 9.1 2.3-0.3 0.9-0.1c-0.1-0.6-0.1-1.5 0-2.3l-0.9 0.1v-1.2l-0.2-5.4 7.6-0.5c0 0 0.3 0.2 0.5 1.1q0.1 0.4 0.2 1 0 0.5 0 1.1 0 0.7 0 1.2-0.1 0.2-0.1 0.4c-0.2 1.2-0.5 1.6-0.6 1.7q0 0 0 0l-1.2 0.2c0 0.5-0.1 1.3 0 2.3l1.2-0.2 2.2-0.2c0 0 0.7-1.4 1-3.8q0-0.3 0.1-0.7 0-0.6 0-1.3 0-0.5 0-0.9zm-21.2 64.4q-1.1-1.6-2.9-2.4-1.8-0.9-4-1.1c-1.6-0.1-3.2-0.1-4.8 0.1-4.5 0.6-6.7 0.9-11.2 1.8h-0.5l4.9 26.7 0.5-0.1c2.5-0.5 3.8-0.7 6.4-1l0.4-0.1-1.4-9.8c1.1-0.1 1.7-0.2 2.9-0.4q2.2-0.3 4.3-0.9 2-0.7 3.6-1.8 1.5-1.2 2.4-2.9c0.6-1.2 0.8-2.6 0.7-4.2-0.2-1.6-0.6-2.9-1.3-3.9zm-13.5 8.2l-0.8-5.1c1-0.2 1.6-0.3 2.7-0.4q0.9-0.1 1.8-0.1c0.6 0 1.1 0 1.5 0.2q0.7 0.2 1.1 0.7 0.4 0.4 0.4 1.2 0.1 0.7-0.2 1.3-0.2 0.5-0.8 0.9-0.6 0.4-1.4 0.6-0.9 0.3-1.8 0.4c-1 0.2-1.6 0.2-2.5 0.3zm-11.7 5.9q-1.1-1.1-2.7-1.8-1.5-0.6-3.3-0.7-1.8-0.2-3.2-0.3-1.1 0-2 0-0.8-0.1-1.5-0.3-0.5-0.1-0.9-0.4-0.3-0.2-0.4-0.7-0.2-0.6 0-1.1 0.2-0.4 0.7-0.8 0.4-0.4 1-0.7 0.7-0.3 1.3-0.5 1.3-0.3 2.8-0.1 1.5 0.3 2.6 1l0.4 0.3 0.2-0.4c1.5-2.1 2.2-3.1 3.7-5.1l0.3-0.5-0.5-0.2c-1.6-0.8-3.4-1.3-5.3-1.4-1.9-0.1-3.8 0-5.5 0.5q-2.2 0.5-4.2 1.5-2 1.1-3.4 2.6-1.4 1.5-2 3.4-0.5 1.9 0.2 4.1 0.5 1.8 1.6 2.9 1 1.1 2.4 1.6 1.3 0.6 2.8 0.7 1.5 0.2 2.9 0.2 1.5 0.1 2.6 0.1 1.1 0.1 1.9 0.3 0.7 0.2 1.2 0.6 0.3 0.3 0.5 0.8 0.1 0.7 0 1.2-0.2 0.5-0.5 0.8-0.4 0.4-0.9 0.7-0.7 0.3-1.3 0.5-1.5 0.4-3.2 0.1-1.8-0.3-3-1.1l-0.4-0.3-0.3 0.5c-1.2 2.1-1.8 3.1-3 5.3l-0.2 0.4 0.4 0.2q2.4 1.2 5.4 1.4 0.6 0 1.1 0 2.4 0 4.7-0.6 2-0.5 3.8-1.5 1.7-0.9 3-2.4 1.2-1.4 1.8-3.3 0.5-1.9 0.1-4.2-0.5-2.1-1.7-3.3zm72.2-16.9l-0.4-0.1-4 26.8 0.5 0.1c2.6 0.4 3.8 0.6 6.4 1l0.5 0.1 4.9-26.6-0.5-0.1c-3-0.5-4.4-0.8-7.4-1.2zm34.8 8.1c-9.5-3.1-14.2-4.3-24.1-6.3h-0.4l-1.3 6.2h0.5c3.2 0.7 4.8 1 7.8 1.7l-4.9 20.2 0.5 0.1c2.5 0.7 3.7 1 6.3 1.7l0.4 0.1 5.6-20c3 0.8 4.6 1.3 7.7 2.3l0.4 0.1 2-6zm-43.7-7.4q-1.6-1.1-3.7-1.7-2.1-0.6-4.4-0.8c-4.7-0.3-7-0.4-11.7-0.4h-0.4l-0.4 27.1h0.5c2.5 0 3.8 0 6.3 0.1l0.5 0.1 0.5-10.4c0.5 0 0.9 0 1.6 0.1 2.1 4.1 3.1 6.2 5 10.5l0.1 0.3h0.3c3.1 0.3 4.5 0.4 7.5 0.8l0.9 0.1-0.4-0.8c-2.1-4.6-3.3-7-5.6-11.4q2.5-0.5 4.2-2.1 1.9-1.7 2.2-4.5 0.3-2.4-0.5-4.1-0.8-1.7-2.5-2.9zm-8 8.6q-0.9 0.1-1.8 0c-1.1 0-1.8-0.1-2.8-0.1l0.2-5.2c1.2 0.1 2 0.1 3.4 0.2q0.8 0.1 1.6 0.2 0.8 0.2 1.4 0.5 0.5 0.3 0.9 0.9 0.3 0.4 0.2 1.2-0.1 0.8-0.5 1.3-0.5 0.5-1.1 0.7-0.7 0.3-1.5 0.3zm-18.1-11.5c-3 0-4.4 0.1-7.4 0.2l-0.5 0.1 1.4 27h0.4c2.7-0.2 3.9-0.2 6.6-0.2l0.4-0.1-0.4-27zm27.8 69.6c0 13.7-10.6 24.8-23.6 24.8-12.9 0-23.5-11.1-23.5-24.8q0-1.3 0.2-2.6c0.5 1.2 1.4 2.5 2.8 3.9 0 0-2.6-3.2-2.6-9.2 0.1-0.6 0.1-1 0.1-1 0.5-14.4 10.6-12.3 10.6-12.3v0.1c2.6-1.7 5.5-2.9 8.6-3.5 0.8-1.3 2-2.3 3.8-2.3 1.9 0 3.1 1 3.8 2.3 3 0.6 5.8 1.7 8.3 3.3v-0.1c0 0 9.8-2 10.6 11.5 0 0.4-0.1 1 0 1.8 0 6.1-2.6 9.4-2.6 9.4 1.7-1.7 2.7-3.4 3.2-4.8q0.2 1.7 0.3 3.5zm-4.1 2.3c-1.6 1.9-3.9 3.6-7.2 4.8l1.5-3.4c0 0-1.3-0.6 0-4 1.1-3.4 2.9-12.6-1.3-17.8-2.3-1.8-4.9-3.1-7.8-3.8 0.6 3.3-0.2 7.3-0.7 8.2-0.9 1.7-2.7 2.3-2.7 2.3l-1.3 2.3-1.2-2.3c0 0-1.8-0.6-2.7-2.3-0.6-0.9-1.3-4.9-0.7-8.2-3.1 0.7-5.9 2.2-8.3 4.2-4 5.2-2.3 14.3-1.1 17.6 1.2 3.4 0 4.1 0 4.1l1.4 3.4c-2.9-1.1-5-2.6-6.5-4.3 1.3 4.4 4.1 8.2 7.8 10.8l4-0.4-1.1 2.1c2.6 1.2 5.4 1.9 8.5 1.9 3 0 6-0.7 8.6-2l-1.1-1.9 3.8 0.3c4-2.7 6.9-6.9 8.1-11.6zm-22.7-22.9l2.5 1.3-2 1.2c1.4 0.5 2.6 0.7 2.7 0.7 0.1 0 1.4-0.2 2.7-0.7l-1.9-1.2 2.5-1.3c0 0-1-1.2-2.5-1.7l0.4-0.1 1.5-0.8c0 0-1.1-1.3-2.7-1.3-1.5 0-2.7 1.3-2.7 1.3l1.6 0.8 0.4 0.1c-1.6 0.5-2.5 1.7-2.5 1.7zm-16.4 11.8q0.4-0.1 0.7-0.2c0.9-0.3 1.6-0.8 1.6-0.8q-0.6-0.2-1-0.6-0.4-0.3-0.6-0.6-0.1-0.1-0.2-0.2c-0.5-0.6-0.7-1.2-0.8-1.5q0 0 0 0 0 0-0.1-0.1 0 0 0 0 0 0 0 0 0 0 0 0c1.4-0.7 3-0.8 3-0.8q-0.1-0.1-0.1-0.2 0 0-0.1 0 0-0.1-0.1-0.1 0-0.1 0-0.1-0.1-0.1-0.1-0.1-0.1-0.1-0.1-0.1-0.1-0.1-0.1-0.1-0.1-0.1-0.1-0.1-0.1-0.1-0.1-0.2-0.1 0-0.1-0.1-0.1 0-0.1-0.1-0.1 0-0.1-0.1-0.1 0-0.2-0.1 0 0 0-0.1-0.1-0.1-0.2-0.2c-0.5-0.4-0.9-0.7-0.9-0.7l3.2-1.8-1.5-0.5c-3.1 1.7-3.6 5.9-3.7 8.1 0 0.7 0 1.2 0 1.3q0 0 0 0 0.2 0.1 0.4 0.1 0.1 0 0.1 0 0.2 0 0.3 0.1 0.1 0 0.1 0 0.1 0 0.2 0 0.1 0 0.2 0 0.1 0 0.2 0 0.1 0 0.1-0.1 0.1 0 0.2 0zm19.6 1.1q1.3 3.8 2.5 7.5 4-0.2 8-0.8-3.2 2.9-6.5 5.4 1.3 3.7 2.5 7.4-3.2-2-6.5-4.4-3.2 2.4-6.5 4.4 1.3-3.7 2.5-7.4-3.2-2.5-6.4-5.4 3.9 0.6 7.9 0.8 1.3-3.8 2.5-7.5zm19.9-1.3q0.2 0 0.3 0 0.1 0 0.1 0 0.2 0 0.3 0 0 0 0.1 0 0.2-0.1 0.4-0.1 0 0 0-0.1 0 0 0-0.1 0-0.1 0-0.2 0-0.1 0-0.2 0 0 0 0 0-0.3 0-0.6 0 0 0-0.1 0-0.1 0-0.3 0 0 0 0 0-0.2 0-0.5c-0.2-2.2-0.9-5.8-3.7-7.3l-1.5 0.5 3.1 1.8c0 0-0.3 0.2-0.6 0.6q-0.1 0.1-0.3 0.2 0 0 0 0-0.1 0.1-0.2 0.2 0 0 0 0-0.2 0.3-0.5 0.5 0 0 0 0.1-0.1 0.1-0.2 0.1 0 0.1 0 0.1-0.1 0.1-0.2 0.1 0 0.1 0 0.1-0.1 0.1-0.1 0.1-0.1 0.1-0.1 0.1-0.1 0.1-0.1 0.2c0 0 1.6 0.1 3 0.7q0 0 0 0.1 0 0-0.1 0 0 0 0 0 0 0.1 0 0.2 0-0.1 0 0 0 0-0.1 0.1 0 0 0 0 0 0.1 0 0.2 0 0-0.1 0 0 0.1 0 0.2 0 0 0 0-0.1 0.1-0.1 0.2-0.1 0.1-0.1 0.1 0 0.1-0.1 0.2 0 0 0 0-0.1 0.2-0.2 0.3-0.1 0.1-0.2 0.2 0 0 0 0.1-0.1 0-0.1 0.1-0.1 0.1-0.1 0.1-0.1 0.1-0.2 0.2-0.5 0.5-1.3 0.8c0 0 0.8 0.6 2 0.9q0.2 0.1 0.4 0.1 0 0 0 0 0.1 0 0.2 0 0.1 0 0.2 0 0 0 0.1 0zm-31.9-5.2c0.1 0 0.2 0.1 0.2 0.2 0 0.1-0.1 0.2-0.2 0.2-0.1 0-0.1-0.1-0.1-0.2 0-0.1 0-0.2 0.1-0.2zm-1.5-0.2c0 0.1 0.1 0.2 0.2 0.2 0.1 0 0.1-0.1 0.1-0.2 0-0.1 0-0.2-0.1-0.2-0.1 0-0.2 0.1-0.2 0.2zm2.8-3.7c0 0.1 0.1 0.2 0.2 0.2 0.1 0 0.2-0.1 0.2-0.2 0-0.1-0.1-0.2-0.2-0.2-0.1 0-0.2 0.1-0.2 0.2zm2.3 1.2c0 0.1 0.1 0.2 0.2 0.2 0.1 0 0.1-0.1 0.1-0.2 0-0.1 0-0.2-0.1-0.2-0.1 0-0.2 0.1-0.2 0.2zm2.3-4.5c0 0.1 0.1 0.2 0.2 0.2 0.1 0 0.2-0.1 0.2-0.2 0-0.1-0.1-0.2-0.2-0.2-0.1 0-0.2 0.1-0.2 0.2zm-0.4 3.1c0 0.1 0.1 0.2 0.2 0.2 0.1 0 0.2-0.1 0.2-0.2 0-0.1-0.1-0.2-0.2-0.2-0.1 0-0.2 0.1-0.2 0.2zm-1.4-1.5c0 0.1 0.1 0.2 0.2 0.2 0.1 0 0.1-0.1 0.1-0.2 0-0.1 0-0.2-0.1-0.2-0.1 0-0.2 0.1-0.2 0.2zm-5.1 4.8c0 0.1 0.1 0.2 0.2 0.2 0.1 0 0.2-0.1 0.2-0.2 0-0.1-0.1-0.2-0.2-0.2-0.1 0-0.2 0.1-0.2 0.2zm1.7 1.2c0 0.1 0.1 0.1 0.2 0.1 0.1 0 0.2 0 0.2-0.1 0-0.1-0.1-0.2-0.2-0.2-0.1 0-0.2 0.1-0.2 0.2zm4.9-6.2c0 0.1 0.1 0.2 0.2 0.2 0.1 0 0.2-0.1 0.2-0.2 0-0.1-0.1-0.2-0.2-0.2-0.1 0-0.2 0.1-0.2 0.2zm-0.3 2.9c0 0.1 0.1 0.2 0.2 0.2 0.1 0 0.1-0.1 0.1-0.2 0-0.1 0-0.2-0.1-0.2-0.1 0-0.2 0.1-0.2 0.2zm-1.1 1.4c0 0.1 0.1 0.2 0.2 0.2 0.1 0 0.2-0.1 0.2-0.2 0-0.1-0.1-0.1-0.2-0.1q-0.2 0-0.2 0.1zm-6.5 3.2c0 0.1 0.1 0.2 0.2 0.2 0.1 0 0.2-0.1 0.2-0.2 0-0.1-0.1-0.2-0.2-0.2-0.1 0-0.2 0.1-0.2 0.2zm8.6-4.7c0 0.1 0.1 0.2 0.2 0.2 0.1 0 0.2-0.1 0.2-0.2 0-0.1-0.1-0.2-0.2-0.2-0.1 0-0.2 0.1-0.2 0.2zm-6.7 1.5c0 0.1 0.1 0.2 0.2 0.2 0.1 0 0.2-0.1 0.2-0.2 0-0.1-0.1-0.2-0.2-0.2-0.1 0-0.2 0.1-0.2 0.2zm2.4-2.7c0 0.1 0.1 0.2 0.2 0.2 0.1 0 0.1-0.1 0.1-0.2 0-0.1 0-0.2-0.1-0.2-0.1 0-0.2 0.1-0.2 0.2zm2.4 2.1c0 0.1 0.1 0.2 0.2 0.2 0.1 0 0.2-0.1 0.2-0.2 0-0.1-0.1-0.2-0.2-0.2-0.1 0-0.2 0.1-0.2 0.2zm-7.3 5.4c0 0.1 0.1 0.2 0.2 0.2 0.1 0 0.2-0.1 0.2-0.2 0-0.1-0.1-0.2-0.2-0.2-0.1 0-0.2 0.1-0.2 0.2zm8.4-8.2c0 0.1 0.1 0.1 0.2 0.1 0.1 0 0.2 0 0.2-0.1 0-0.1-0.1-0.2-0.2-0.2-0.1 0-0.2 0.1-0.2 0.2zm-1.4-1.5c0 0.1 0.1 0.2 0.2 0.2 0.1 0 0.2-0.1 0.2-0.2 0-0.1-0.1-0.2-0.2-0.2-0.1 0-0.2 0.1-0.2 0.2zm-2.1 4.5c0 0.1 0 0.1 0.1 0.1 0.1 0 0.2 0 0.2-0.1 0-0.1-0.1-0.2-0.2-0.2-0.1 0-0.1 0.1-0.1 0.2zm1.4 0.6c0 0.1 0.1 0.1 0.2 0.1 0.1 0 0.2 0 0.2-0.1 0-0.1-0.1-0.2-0.2-0.2-0.1 0-0.2 0.1-0.2 0.2zm-5.3 2.4c0 0.1 0.1 0.2 0.2 0.2 0.1 0 0.2-0.1 0.2-0.2 0-0.1-0.1-0.2-0.2-0.2-0.1 0-0.2 0.1-0.2 0.2zm1.2 0.3c0 0.1 0.1 0.2 0.2 0.2 0.1 0 0.2-0.1 0.2-0.2 0-0.1-0.1-0.2-0.2-0.2-0.1 0-0.2 0.1-0.2 0.2zm-1-2.3c0 0.1 0 0.2 0.1 0.2 0.1 0 0.2-0.1 0.2-0.2 0-0.1-0.1-0.1-0.2-0.1-0.1 0-0.1 0-0.1 0.1zm2.7 0.4c0 0.1 0.1 0.2 0.2 0.2 0.1 0 0.2-0.1 0.2-0.2 0-0.1-0.1-0.2-0.2-0.2-0.1 0-0.2 0.1-0.2 0.2zm5.8-3.9c0 0.1 0.1 0.2 0.2 0.2 0.1 0 0.2-0.1 0.2-0.2 0-0.1-0.1-0.2-0.2-0.2-0.1 0-0.2 0.1-0.2 0.2zm-6.4 3c0 0.1 0.1 0.2 0.2 0.2 0.1 0 0.1-0.1 0.1-0.2 0-0.1 0-0.1-0.1-0.1-0.1 0-0.2 0-0.2 0.1zm2.5 0.5c0 0.1 0 0.2 0.1 0.2 0.1 0 0.2-0.1 0.2-0.2 0-0.1-0.1-0.2-0.2-0.2-0.1 0-0.1 0.1-0.1 0.2zm-4.6 1.3c0 0.1 0.1 0.2 0.2 0.2 0.1 0 0.2-0.1 0.2-0.2 0-0.1-0.1-0.1-0.2-0.1-0.1 0-0.2 0-0.2 0.1zm0-2.4c0 0.1 0 0.1 0.1 0.1 0.1 0 0.2 0 0.2-0.1 0-0.1-0.1-0.2-0.2-0.2-0.1 0-0.1 0-0.1 0.2zm3.7-1.4c0 0.1 0.1 0.2 0.2 0.2 0.1 0 0.2-0.1 0.2-0.2 0-0.1-0.1-0.2-0.2-0.2-0.1 0-0.2 0.1-0.2 0.2zm1.9-0.6c0 0.1 0.1 0.1 0.2 0.1 0.1 0 0.2 0 0.2-0.1 0-0.1-0.1-0.2-0.2-0.2-0.1 0-0.2 0.1-0.2 0.2zm2.3-0.2c0 0.1 0.1 0.2 0.2 0.2 0.1 0 0.2-0.1 0.2-0.2 0-0.1-0.1-0.2-0.2-0.2-0.1 0-0.2 0.1-0.2 0.2zm-1.4-2.6c0 0.1 0.1 0.2 0.2 0.2 0.1 0 0.2-0.1 0.2-0.2 0-0.1-0.1-0.1-0.2-0.1-0.1 0-0.2 0-0.2 0.1zm-5.8 3.7c0 0.1 0 0.2 0.1 0.2 0.1 0 0.2-0.1 0.2-0.2 0-0.1-0.1-0.2-0.2-0.2-0.1 0-0.1 0.1-0.1 0.2zm-1.3 5.8c0 0.1 0 0.2 0.1 0.2 0.1 0 0.2-0.1 0.2-0.2 0-0.1-0.1-0.2-0.2-0.2-0.1 0-0.1 0.1-0.1 0.2zm6.8-5.5c0 0.1 0.1 0.2 0.2 0.2 0.1 0 0.1-0.1 0.1-0.2 0-0.1 0-0.1-0.1-0.1-0.1 0-0.2 0-0.2 0.1zm-6.9 2.3c0 0.1 0.1 0.1 0.2 0.1 0.1 0 0.1 0 0.1-0.1 0-0.1 0-0.2-0.1-0.2-0.1 0-0.2 0.1-0.2 0.2zm3.8 0.4c0 0.1 0.1 0.2 0.2 0.2 0.1 0 0.2-0.1 0.2-0.2 0-0.1-0.1-0.2-0.2-0.2-0.1 0-0.2 0.1-0.2 0.2zm1.8-4.2c0 0.1 0.1 0.1 0.2 0.1 0.1 0 0.2 0 0.2-0.1 0-0.1-0.1-0.2-0.2-0.2-0.1 0-0.2 0.1-0.2 0.2zm-1.2 1.7c0 0.1 0.1 0.2 0.2 0.2 0.1 0 0.2-0.1 0.2-0.2 0-0.1-0.1-0.2-0.2-0.2-0.1 0-0.2 0.1-0.2 0.2zm-3.3 0c0 0.1 0.1 0.2 0.1 0.2 0.1 0 0.2-0.1 0.2-0.2 0-0.1-0.1-0.2-0.2-0.2-0.1 0-0.1 0.1-0.1 0.2zm8-3.3c0 0.1 0.1 0.2 0.2 0.2 0.1 0 0.2-0.1 0.2-0.2 0-0.1-0.1-0.2-0.2-0.2-0.1 0-0.2 0.1-0.2 0.2zm-7 5.1c0 0.1 0.1 0.2 0.2 0.2 0.1 0 0.2-0.1 0.2-0.2 0-0.1-0.1-0.2-0.2-0.2-0.1 0-0.2 0.1-0.2 0.2zm2-0.4c0 0.1 0.1 0.2 0.2 0.2 0.1 0 0.2-0.1 0.2-0.2 0-0.1-0.1-0.2-0.2-0.2-0.1 0-0.2 0.1-0.2 0.2zm4.5-1.1c0 0.1 0.1 0.2 0.2 0.2 0.1 0 0.2-0.1 0.2-0.2 0-0.1-0.1-0.1-0.2-0.1-0.1 0-0.2 0-0.2 0.1zm-5.2 1.1c0 0.1 0.1 0.2 0.2 0.2 0.1 0 0.2-0.1 0.2-0.2 0-0.1-0.1-0.2-0.2-0.2-0.1 0-0.2 0.1-0.2 0.2zm5.8-4c0 0.1 0.1 0.2 0.2 0.2 0.1 0 0.1-0.1 0.1-0.2 0-0.1 0-0.2-0.1-0.2-0.1 0-0.2 0.1-0.2 0.2zm-7.3 1.6c0 0.1 0 0.2 0.1 0.2 0.1 0 0.2-0.1 0.2-0.2 0-0.1-0.1-0.2-0.2-0.2-0.1 0-0.1 0.1-0.1 0.2zm5.9-3c0 0.1 0.1 0.2 0.2 0.2 0.1 0 0.2-0.1 0.2-0.2 0-0.1-0.1-0.2-0.2-0.2-0.1 0-0.2 0.1-0.2 0.2zm0.2 4.4c0 0.1 0.1 0.1 0.2 0.1 0.1 0 0.2 0 0.2-0.1 0-0.1-0.1-0.2-0.2-0.2-0.1 0-0.2 0.1-0.2 0.2zm-3.5 1.6c0 0.1 0.1 0.2 0.2 0.2 0.1 0 0.2-0.1 0.2-0.2 0-0.1-0.1-0.2-0.2-0.2-0.1 0-0.2 0.1-0.2 0.2zm-1.4-3.7c0 0.1 0.1 0.2 0.2 0.2 0.1 0 0.1-0.1 0.1-0.2 0-0.1 0-0.2-0.1-0.2-0.1 0-0.2 0.1-0.2 0.2zm-1.5 4.3c0 0.1 0.1 0.1 0.2 0.1 0.1 0 0.2 0 0.2-0.1 0-0.1-0.1-0.2-0.2-0.2-0.1 0-0.2 0.1-0.2 0.2zm-2.1 1.3c0 0.1 0.1 0.2 0.2 0.2 0.1 0 0.1-0.1 0.1-0.2 0-0.1 0-0.2-0.1-0.2-0.1 0-0.2 0.1-0.2 0.2zm4-6.1c0 0.1 0.1 0.2 0.2 0.2 0.1 0 0.1-0.1 0.1-0.2 0-0.1 0-0.2-0.1-0.2-0.1 0-0.2 0.1-0.2 0.2zm3.7-1.1c0 0.1 0.1 0.2 0.2 0.2 0.1 0 0.2-0.1 0.2-0.2 0-0.1-0.1-0.2-0.2-0.2-0.1 0-0.2 0.1-0.2 0.2zm-6.1 7.6c0 0.1 0.1 0.2 0.2 0.2 0.1 0 0.1-0.1 0.1-0.2 0-0.1 0-0.2-0.1-0.2-0.1 0-0.2 0.1-0.2 0.2zm7.2-5.2c0 0.1 0 0.2 0.1 0.2 0.1 0 0.2-0.1 0.2-0.2 0-0.1-0.1-0.1-0.2-0.1-0.1 0-0.1 0-0.1 0.1zm-3.8-1.9c0 0.1 0.1 0.1 0.2 0.1 0.1 0 0.2 0 0.2-0.1 0-0.1-0.1-0.2-0.2-0.2-0.1 0-0.2 0.1-0.2 0.2zm-3.3 3.9c0 0.1 0.1 0.1 0.2 0.1 0.1 0 0.2 0 0.2-0.1 0-0.1-0.1-0.2-0.2-0.2-0.1 0-0.2 0.1-0.2 0.2zm1.4-0.7c0 0.1 0.1 0.2 0.2 0.2 0.1 0 0.2-0.1 0.2-0.2 0-0.1-0.1-0.1-0.2-0.1-0.1 0-0.2 0-0.2 0.1zm4.9 0.3c0 0.1 0.1 0.2 0.2 0.2 0.1 0 0.1-0.1 0.1-0.2 0-0.1 0-0.1-0.1-0.1-0.1 0-0.2 0-0.2 0.1zm-7.6 2c0 0.1 0.1 0.2 0.2 0.2 0.1 0 0.2-0.1 0.2-0.2 0-0.1-0.1-0.2-0.2-0.2-0.1 0-0.2 0.1-0.2 0.2zm0.4-1.5c0 0.1 0 0.2 0.1 0.2 0.1 0 0.2-0.1 0.2-0.2 0-0.1-0.1-0.2-0.2-0.2-0.1 0-0.1 0.1-0.1 0.2zm3.2-0.5c0 0.1 0.1 0.2 0.2 0.2 0.1 0 0.1-0.1 0.1-0.2 0-0.1 0-0.2-0.1-0.2-0.1 0-0.2 0.1-0.2 0.2zm2.4-4.2c0 0.1 0.1 0.2 0.2 0.2 0.1 0 0.1-0.1 0.1-0.2 0-0.1 0-0.2-0.1-0.2q-0.2 0-0.2 0.2zm-6.7 8.8c0 0.1 0.1 0.2 0.2 0.2 0.1 0 0.2-0.1 0.2-0.2 0-0.1-0.1-0.2-0.2-0.2-0.1 0-0.2 0.1-0.2 0.2zm3.2-1.8c0 0.1 0.1 0.2 0.2 0.2 0.1 0 0.2-0.1 0.2-0.2 0-0.1-0.1-0.2-0.2-0.2-0.1 0-0.2 0.1-0.2 0.2zm0.6-3.7c0 0.1 0 0.2 0.1 0.2 0.1 0 0.2-0.1 0.2-0.2 0-0.1-0.1-0.2-0.2-0.2-0.1 0-0.1 0.1-0.1 0.2zm5.5-3.6c0 0.1 0.1 0.2 0.2 0.2 0.1 0 0.2-0.1 0.2-0.2 0-0.1-0.1-0.2-0.2-0.2-0.1 0-0.2 0.1-0.2 0.2zm0 1.2c0 0.1 0.1 0.2 0.2 0.2 0.1 0 0.2-0.1 0.2-0.2 0-0.1-0.1-0.2-0.2-0.2-0.1 0-0.2 0.1-0.2 0.2zm-4.9 1.9c0 0.1 0 0.2 0.1 0.2 0.1 0 0.2-0.1 0.2-0.2 0-0.1-0.1-0.2-0.2-0.2-0.1 0-0.1 0.1-0.1 0.2zm-1.4 0.5c0 0.1 0 0.2 0.1 0.2 0.1 0 0.2-0.1 0.2-0.2 0-0.1-0.1-0.2-0.2-0.2-0.1 0-0.1 0.1-0.1 0.2zm0.5-0.7c0 0.1 0.1 0.2 0.2 0.2 0.1 0 0.2-0.1 0.2-0.2 0-0.1-0.1-0.2-0.2-0.2-0.1 0-0.2 0.1-0.2 0.2zm6.5-3.2c0 0.1 0 0.1 0.1 0.1 0.1 0 0.2 0 0.2-0.1 0-0.1-0.1-0.2-0.2-0.2-0.1 0-0.1 0.1-0.1 0.2zm-4.3 5.2c0 0.1 0.1 0.2 0.2 0.2 0.1 0 0.2-0.1 0.2-0.2 0-0.1-0.1-0.2-0.2-0.2-0.1 0-0.2 0.1-0.2 0.2zm0.8-1.9c0 0.1 0.1 0.2 0.2 0.2 0.1 0 0.2-0.1 0.2-0.2 0-0.1-0.1-0.2-0.2-0.2q-0.2 0-0.2 0.2zm-0.5-2.4c0 0.1 0.1 0.2 0.2 0.2 0.1 0 0.1-0.1 0.1-0.2 0-0.1 0-0.2-0.1-0.2-0.1 0-0.2 0.1-0.2 0.2zm-4.6 8c0 0.1 0.1 0.2 0.2 0.2 0.1 0 0.2-0.1 0.2-0.2 0-0.1-0.1-0.2-0.2-0.2-0.1 0-0.2 0.1-0.2 0.2zm6.2-6.9c0 0.1 0.1 0.2 0.2 0.2 0.1 0 0.1-0.1 0.1-0.2 0-0.1 0-0.2-0.1-0.2-0.1 0-0.2 0.1-0.2 0.2zm-7.4 6.7c0 0.1 0.1 0.2 0.2 0.2 0.1 0 0.2-0.1 0.2-0.2 0-0.1-0.1-0.2-0.2-0.2-0.1 0-0.2 0.1-0.2 0.2zm4.7-7c0 0.1 0.1 0.2 0.2 0.2 0.1 0 0.2-0.1 0.2-0.2 0-0.1-0.1-0.1-0.2-0.1-0.1 0-0.2 0-0.2 0.1zm-2.7 5.8c0 0.1 0.1 0.2 0.2 0.2 0.1 0 0.2-0.1 0.2-0.2 0-0.1-0.1-0.2-0.2-0.2-0.1 0-0.2 0.1-0.2 0.2zm-1.7-0.1c0 0.1 0.1 0.2 0.2 0.2 0.1 0 0.2-0.1 0.2-0.2 0-0.1-0.1-0.2-0.2-0.2-0.1 0-0.2 0.1-0.2 0.2zm5.2-5.4c0 0.1 0.1 0.2 0.2 0.2 0.1 0 0.2-0.1 0.2-0.2 0-0.1-0.1-0.2-0.2-0.2-0.1 0-0.2 0.1-0.2 0.2zm-5.8 8.6c0 0.1 0.1 0.2 0.2 0.2 0.1 0 0.1-0.1 0.1-0.2 0-0.1 0-0.2-0.1-0.2-0.1 0-0.2 0.1-0.2 0.2zm2.7-6.1c0 0.1 0 0.2 0.1 0.2 0.1 0 0.2-0.1 0.2-0.2 0-0.1-0.1-0.2-0.2-0.2-0.1 0-0.1 0.1-0.1 0.2zm0.9 1.8c0 0.1 0.1 0.2 0.2 0.2 0.1 0 0.2-0.1 0.2-0.2 0-0.1-0.1-0.2-0.2-0.2-0.1 0-0.2 0.1-0.2 0.2zm6.5-7c0 0.1 0.1 0.2 0.2 0.2 0.1 0 0.2-0.1 0.2-0.2 0-0.1-0.1-0.2-0.2-0.2-0.1 0-0.2 0.1-0.2 0.2zm-5.5 4.9c0 0.1 0.1 0.1 0.2 0.1 0.1 0 0.2 0 0.2-0.1 0-0.1-0.1-0.2-0.2-0.2-0.1 0-0.2 0-0.2 0.2zm-1.3-1.7c0 0.1 0.1 0.2 0.2 0.2 0.1 0 0.2-0.1 0.2-0.2 0-0.1-0.1-0.2-0.2-0.2-0.1 0-0.2 0.1-0.2 0.2zm6.8 0.6c0 0.1 0.1 0.2 0.2 0.2 0.1 0 0.2-0.1 0.2-0.2 0-0.1-0.1-0.1-0.2-0.1-0.1 0-0.2 0-0.2 0.1zm-2.7 0.2c0 0.1 0.1 0.2 0.2 0.2 0.1 0 0.2-0.1 0.2-0.2 0-0.1-0.1-0.2-0.2-0.2-0.1 0-0.2 0.1-0.2 0.2zm0.8-0.1c0 0.1 0.1 0.2 0.2 0.2 0.1 0 0.1-0.1 0.1-0.2 0-0.1 0-0.2-0.1-0.2-0.1 0-0.2 0.1-0.2 0.2zm0-1.7c0 0.1 0.1 0.2 0.2 0.2 0.1 0 0.1-0.1 0.1-0.2 0-0.1 0-0.2-0.1-0.2-0.1 0-0.2 0.1-0.2 0.2zm-1.3 3.2c0 0.1 0.1 0.1 0.2 0.1 0.1 0 0.2 0 0.2-0.1 0-0.1-0.1-0.2-0.2-0.2-0.1 0-0.2 0.1-0.2 0.2zm0.1-2.9c0 0.1 0.1 0.2 0.2 0.2 0.1 0 0.2-0.1 0.2-0.2 0-0.1-0.1-0.2-0.2-0.2-0.1 0-0.2 0.1-0.2 0.2zm-0.9 2.7c0 0.1 0.1 0.2 0.2 0.2 0.1 0 0.2-0.1 0.2-0.2 0-0.1-0.1-0.2-0.2-0.2-0.1 0-0.2 0.1-0.2 0.2zm2-2c0 0.1 0.1 0.1 0.2 0.1 0.1 0 0.2 0 0.2-0.1 0-0.1-0.1-0.2-0.2-0.2-0.1 0-0.2 0.1-0.2 0.2zm2.1 1.7c0 0.1 0.1 0.2 0.2 0.2 0.1 0 0.2-0.1 0.2-0.2 0-0.1-0.1-0.2-0.2-0.2-0.1 0-0.2 0.1-0.2 0.2zm-4.2-0.4c0 0.1 0.1 0.2 0.2 0.2 0.1 0 0.2-0.1 0.2-0.2 0-0.1-0.1-0.2-0.2-0.2q-0.2 0-0.2 0.2zm0.4-2.3c0 0.1 0.1 0.2 0.2 0.2 0.1 0 0.2-0.1 0.2-0.2 0-0.1-0.1-0.2-0.2-0.2-0.1 0-0.2 0.1-0.2 0.2zm-0.4 1.4c0 0.1 0.1 0.2 0.2 0.2 0.1 0 0.2-0.1 0.2-0.2 0-0.1-0.1-0.1-0.2-0.1-0.1 0-0.2 0-0.2 0.1zm23.7 4.1c0.1 0 0.2 0.1 0.2 0.2 0 0.1-0.1 0.1-0.2 0.1-0.1 0-0.2 0-0.2-0.1 0-0.1 0.1-0.2 0.2-0.2zm-6-2.1c0 0.1 0.1 0.2 0.2 0.2 0.1 0 0.2-0.1 0.2-0.2 0-0.1-0.1-0.2-0.2-0.2-0.1 0-0.2 0.1-0.2 0.2zm0.8 1.2c0 0.1 0.1 0.1 0.2 0.1 0.1 0 0.2 0 0.2-0.1 0-0.1-0.1-0.2-0.2-0.2-0.1 0-0.2 0.1-0.2 0.2zm5.5 4.2c0 0.1 0.1 0.2 0.2 0.2 0.1 0 0.2-0.1 0.2-0.2 0-0.1-0.1-0.2-0.2-0.2-0.1 0-0.2 0.1-0.2 0.2zm-1.5-1.6c0 0.1 0.1 0.1 0.2 0.1 0.1 0 0.2 0 0.2-0.1 0-0.1-0.1-0.2-0.2-0.2-0.1 0-0.2 0.1-0.2 0.2zm-4.1-7.6c0 0.1 0.1 0.2 0.2 0.2 0.1 0 0.2-0.1 0.2-0.2 0-0.1-0.1-0.2-0.2-0.2-0.1 0-0.2 0.1-0.2 0.2zm0.9 2.2c0 0.1 0.1 0.2 0.2 0.2 0.1 0 0.1-0.1 0.1-0.2 0-0.1 0-0.2-0.1-0.2-0.1 0-0.2 0.1-0.2 0.2zm2.4 2.6c0 0.1 0.1 0.2 0.2 0.2 0.1 0 0.2-0.1 0.2-0.2 0-0.1-0.1-0.2-0.2-0.2-0.1 0-0.2 0.1-0.2 0.2zm-2.2-1.8c0 0.1 0.1 0.1 0.2 0.1 0.1 0 0.2 0 0.2-0.1 0-0.1-0.1-0.2-0.2-0.2-0.1 0-0.2 0-0.2 0.2zm3.5 5.2c0 0.1 0.1 0.2 0.2 0.2 0.1 0 0.2-0.1 0.2-0.2 0-0.1-0.1-0.2-0.2-0.2-0.1 0-0.2 0.1-0.2 0.2zm-1-5.7c0 0.1 0.1 0.2 0.2 0.2 0.1 0 0.2-0.1 0.2-0.2 0-0.1-0.1-0.2-0.2-0.2-0.1 0-0.2 0.1-0.2 0.2zm-1.2-0.3c0 0.1 0.1 0.2 0.2 0.2 0.1 0 0.1-0.1 0.1-0.2 0-0.1 0-0.2-0.1-0.2-0.1 0-0.2 0.1-0.2 0.2zm0.2 1c0 0.1 0.1 0.2 0.2 0.2 0.1 0 0.2-0.1 0.2-0.2 0-0.1-0.1-0.2-0.2-0.2-0.1 0-0.2 0.1-0.2 0.2zm-5.4-3.9c0 0.1 0.1 0.2 0.2 0.2 0.1 0 0.2-0.1 0.2-0.2 0-0.1-0.1-0.2-0.2-0.2-0.1 0-0.2 0.1-0.2 0.2zm4.6 3.4c0 0.1 0.1 0.2 0.2 0.2 0.1 0 0.2-0.1 0.2-0.2 0-0.1-0.1-0.2-0.2-0.2-0.1 0-0.2 0.1-0.2 0.2zm3.5 4.2c0 0.1 0.1 0.2 0.2 0.2 0.1 0 0.2-0.1 0.2-0.2 0-0.1-0.1-0.2-0.2-0.2-0.1 0-0.2 0.1-0.2 0.2zm-6.1-5.1c0 0.1 0.1 0.2 0.2 0.2 0.1 0 0.2-0.1 0.2-0.2 0-0.1-0.1-0.2-0.2-0.2-0.1 0-0.2 0.1-0.2 0.2zm-1.1-2.3c0 0.1 0 0.2 0.1 0.2 0.1 0 0.2-0.1 0.2-0.2 0-0.1-0.1-0.2-0.2-0.2-0.1 0-0.1 0.1-0.1 0.2zm5.1 4.3c0 0.1 0.1 0.2 0.2 0.2 0.1 0 0.1-0.1 0.1-0.2 0-0.1 0-0.2-0.1-0.2-0.1 0-0.2 0.1-0.2 0.2zm-1.3-0.4c0 0.1 0.1 0.2 0.2 0.2 0.1 0 0.2-0.1 0.2-0.2 0-0.1-0.1-0.2-0.2-0.2-0.1 0-0.2 0.1-0.2 0.2zm2.1 1.7c0 0.1 0.1 0.2 0.2 0.2 0.1 0 0.2-0.1 0.2-0.2 0-0.1-0.1-0.2-0.2-0.2-0.1 0-0.2 0.1-0.2 0.2zm0.4 0.8c0 0.1 0.1 0.2 0.2 0.2 0.1 0 0.2-0.1 0.2-0.2 0-0.1-0.1-0.2-0.2-0.2-0.1 0-0.2 0.1-0.2 0.2zm-7.9-4.4c0 0.1 0.1 0.2 0.2 0.2 0.1 0 0.2-0.1 0.2-0.2 0-0.1-0.1-0.2-0.2-0.2-0.1 0-0.2 0.1-0.2 0.2zm2.4 1.8c0 0.1 0 0.2 0.1 0.2 0.1 0 0.2-0.1 0.2-0.2 0-0.1-0.1-0.2-0.2-0.2-0.1 0-0.1 0.1-0.1 0.2zm-1.9-4.7c0 0.1 0.1 0.2 0.2 0.2 0.1 0 0.2-0.1 0.2-0.2 0-0.1-0.1-0.2-0.2-0.2-0.1 0-0.2 0.1-0.2 0.2zm6 4.1c0 0.1 0.1 0.2 0.2 0.2 0.1 0 0.2-0.1 0.2-0.2 0-0.1-0.1-0.2-0.2-0.2-0.1 0-0.2 0.1-0.2 0.2zm-5.6-2.7c0 0.1 0 0.2 0.1 0.2 0.1 0 0.2-0.1 0.2-0.2 0-0.1-0.1-0.2-0.2-0.2-0.1 0-0.1 0.1-0.1 0.2zm6.8 3.8c0 0.1 0.1 0.2 0.2 0.2 0.1 0 0.2-0.1 0.2-0.2 0-0.1-0.1-0.2-0.2-0.2q-0.2 0-0.2 0.2zm-5-1.3c0 0.1 0 0.2 0.1 0.2 0.1 0 0.2-0.1 0.2-0.2 0-0.1-0.1-0.2-0.2-0.2-0.1 0-0.1 0.1-0.1 0.2zm5.3 4.3c0 0.1 0.1 0.2 0.2 0.2 0.1 0 0.2-0.1 0.2-0.2 0-0.1-0.1-0.2-0.2-0.2-0.1 0-0.2 0.1-0.2 0.2zm-6.6-5.8c0 0.1 0.1 0.2 0.2 0.2 0.1 0 0.2-0.1 0.2-0.2 0-0.1-0.1-0.2-0.2-0.2-0.1 0-0.2 0.1-0.2 0.2zm5.9 2.2c0 0.1 0.1 0.2 0.2 0.2 0.1 0 0.2-0.1 0.2-0.2 0-0.1-0.1-0.1-0.2-0.1-0.1 0-0.2 0-0.2 0.1zm-0.2 3.9c0 0.1 0.1 0.2 0.2 0.2 0.1 0 0.2-0.1 0.2-0.2 0-0.1-0.1-0.2-0.2-0.2-0.1 0-0.2 0.1-0.2 0.2zm-3.2-5.5c0 0.1 0.1 0.2 0.2 0.2 0.1 0 0.2-0.1 0.2-0.2 0-0.1-0.1-0.2-0.2-0.2-0.1 0-0.2 0.1-0.2 0.2zm-3.4 2c0 0.1 0.1 0.2 0.2 0.2 0.1 0 0.1-0.1 0.1-0.2 0-0.1 0-0.2-0.1-0.2-0.1 0-0.2 0.1-0.2 0.2zm4 0.9c0 0.1 0.1 0.2 0.2 0.2 0.1 0 0.2-0.1 0.2-0.2 0-0.1-0.1-0.2-0.2-0.2-0.1 0-0.2 0.1-0.2 0.2zm2-2.7c0 0.1 0.1 0.2 0.2 0.2 0.1 0 0.2-0.1 0.2-0.2 0-0.1-0.1-0.2-0.2-0.2-0.1 0-0.2 0.1-0.2 0.2zm-6.5 0.5c0 0.1 0.1 0.1 0.2 0.1 0.1 0 0.2 0 0.2-0.1 0-0.1-0.1-0.2-0.2-0.2-0.1 0-0.2 0-0.2 0.2zm-0.6-2c0 0.1 0.1 0.2 0.2 0.2 0.1 0 0.2-0.1 0.2-0.2 0-0.1-0.1-0.2-0.2-0.2-0.1 0-0.2 0.1-0.2 0.2zm7.7 5.4c0 0.1 0.1 0.2 0.2 0.2 0.1 0 0.2-0.1 0.2-0.2 0-0.1-0.1-0.2-0.2-0.2q-0.2 0-0.2 0.2zm1.2 1.8c0 0.1 0.1 0.2 0.2 0.2 0.1 0 0.2-0.1 0.2-0.2 0-0.1-0.1-0.2-0.2-0.2-0.1 0-0.2 0.1-0.2 0.2zm-2-2.1c0 0.1 0.1 0.1 0.2 0.1 0.1 0 0.1 0 0.1-0.1 0-0.1 0-0.2-0.1-0.2-0.2 0-0.2 0.1-0.2 0.2zm-3.3-5.8c0 0.1 0.1 0.2 0.2 0.2 0.1 0 0.2-0.1 0.2-0.2 0-0.1-0.1-0.2-0.2-0.2-0.1 0-0.2 0.1-0.2 0.2zm0.9 3.4c0 0.1 0.1 0.1 0.2 0.1 0.1 0 0.2 0 0.2-0.1 0-0.1-0.1-0.2-0.2-0.2-0.1 0-0.2 0.1-0.2 0.2zm2.6 3.7c0 0.1 0.1 0.2 0.2 0.2 0.1 0 0.2-0.1 0.2-0.2 0-0.1-0.1-0.1-0.2-0.1-0.1 0-0.2 0-0.2 0.1zm2.4 1.1c0 0.1 0.1 0.2 0.2 0.2 0.1 0 0.2-0.1 0.2-0.2 0-0.1-0.1-0.1-0.2-0.1-0.1 0-0.2 0-0.2 0.1zm-3.9-3.9c0 0.1 0.1 0.2 0.2 0.2 0.1 0 0.2-0.1 0.2-0.2 0-0.1-0.1-0.2-0.2-0.2-0.1 0-0.2 0.1-0.2 0.2zm-0.7-0.2c0 0.1 0.1 0.2 0.2 0.2 0.1 0 0.2-0.1 0.2-0.2 0-0.1-0.1-0.2-0.2-0.2-0.1 0-0.2 0.1-0.2 0.2zm1.5 2.5c0 0.1 0 0.2 0.1 0.2 0.1 0 0.2-0.1 0.2-0.2 0-0.1-0.1-0.2-0.2-0.2-0.1 0-0.1 0.1-0.1 0.2zm-0.7-4.3c0 0.1 0.1 0.2 0.2 0.2 0.1 0 0.2-0.1 0.2-0.2 0 0-0.1-0.1-0.2-0.1-0.1 0-0.2 0.1-0.2 0.1zm-1.9-0.6c0 0.1 0.1 0.2 0.2 0.2 0.1 0 0.2-0.1 0.2-0.2 0-0.1-0.1-0.1-0.2-0.1-0.1 0-0.2 0-0.2 0.1zm-0.4 3.2c0 0.1 0.1 0.2 0.2 0.2 0.1 0 0.2-0.1 0.2-0.2 0-0.1-0.1-0.2-0.2-0.2-0.1 0-0.2 0.1-0.2 0.2zm-0.8-2.2c0 0.1 0 0.2 0.1 0.2 0.1 0 0.2-0.1 0.2-0.2 0-0.1-0.1-0.1-0.2-0.1-0.1 0-0.1 0-0.1 0.1zm-0.6-3.5c0 0.1 0.1 0.2 0.2 0.2 0.1 0 0.2-0.1 0.2-0.2 0-0.1-0.1-0.2-0.2-0.2-0.1 0-0.2 0.1-0.2 0.2zm-2.1 0.6c0 0.1 0 0.2 0.1 0.2 0.1 0 0.2-0.1 0.2-0.2 0-0.1-0.1-0.2-0.2-0.2-0.1 0-0.1 0.1-0.1 0.2zm6.6 2c0 0.1 0.1 0.2 0.2 0.2 0.1 0 0.2-0.1 0.2-0.2 0-0.1-0.1-0.1-0.2-0.1-0.1 0-0.2 0-0.2 0.1zm-3.9 2.7c0 0.1 0.1 0.2 0.2 0.2 0.1 0 0.2-0.1 0.2-0.2 0-0.1-0.1-0.2-0.2-0.2-0.1 0-0.2 0.1-0.2 0.2zm1.9-3.3c0 0.1 0.1 0.2 0.2 0.2 0.1 0 0.2-0.1 0.2-0.2 0-0.1-0.1-0.2-0.2-0.2-0.1 0-0.2 0.1-0.2 0.2zm-2.2 2.3c0 0.1 0.1 0.2 0.2 0.2 0.1 0 0.2-0.1 0.2-0.2 0-0.1-0.1-0.1-0.2-0.1-0.1 0-0.2 0-0.2 0.1zm1.9-0.8c0 0.1 0 0.2 0.1 0.2 0.1 0 0.2-0.1 0.2-0.2 0-0.1-0.1-0.2-0.2-0.2-0.1 0-0.1 0.1-0.1 0.2zm-0.5-1.7c0 0.1 0.1 0.2 0.2 0.2 0.1 0 0.1-0.1 0.1-0.2 0-0.1 0-0.2-0.1-0.2q-0.2 0-0.2 0.2zm5.7 8c0 0.1 0.1 0.2 0.2 0.2 0.1 0 0.2-0.1 0.2-0.2 0-0.1-0.1-0.2-0.2-0.2-0.1 0-0.2 0.1-0.2 0.2zm-8.1-7.9c0 0.1 0.1 0.2 0.2 0.2 0.1 0 0.2-0.1 0.2-0.2 0-0.1-0.1-0.2-0.2-0.2-0.1 0-0.2 0.1-0.2 0.2zm0.6 3.1c0 0.1 0.1 0.2 0.2 0.2 0.1 0 0.2-0.1 0.2-0.2 0 0-0.1-0.1-0.2-0.1-0.1 0-0.2 0.1-0.2 0.1zm3.3-2.4c0 0.1 0.1 0.2 0.2 0.2 0.1 0 0.2-0.1 0.2-0.2 0-0.1-0.1-0.2-0.2-0.2-0.1 0-0.2 0.1-0.2 0.2zm-4.8-3c0 0.1 0.1 0.1 0.2 0.1 0.1 0 0.2 0 0.2-0.1 0-0.1-0.1-0.2-0.2-0.2q-0.2 0-0.2 0.2zm4.4 1.8c0 0.1 0.1 0.2 0.2 0.2 0.1 0 0.2-0.1 0.2-0.2 0-0.1-0.1-0.2-0.2-0.2-0.1 0-0.2 0.1-0.2 0.2zm4.1 5c0 0.1 0.1 0.2 0.2 0.2 0.1 0 0.2-0.1 0.2-0.2 0-0.1-0.1-0.2-0.2-0.2-0.1 0-0.2 0.1-0.2 0.2zm-7.6-3.7c0 0.1 0.1 0.2 0.2 0.2 0.1 0 0.2-0.1 0.2-0.2 0-0.1-0.1-0.2-0.2-0.2-0.1 0-0.2 0.1-0.2 0.2zm0.5 0.6c0 0.1 0.1 0.2 0.2 0.2 0.1 0 0.2-0.1 0.2-0.2 0-0.1-0.1-0.2-0.2-0.2-0.1 0-0.2 0.1-0.2 0.2zm6.2 4.3c0 0.1 0.1 0.2 0.2 0.2 0.1 0 0.2-0.1 0.2-0.2 0-0.1-0.1-0.2-0.2-0.2-0.1 0-0.2 0.1-0.2 0.2zm-5.1-5.2c0 0.1 0.1 0.2 0.2 0.2 0.1 0 0.2-0.1 0.2-0.2 0-0.1-0.1-0.2-0.2-0.2-0.1 0-0.2 0.1-0.2 0.2zm-2.9 2.1c0 0.1 0.1 0.2 0.2 0.2 0.1 0 0.2-0.1 0.2-0.2 0-0.1-0.1-0.1-0.2-0.1-0.1 0-0.2 0-0.2 0.1zm4.3 1c0 0.1 0.1 0.2 0.2 0.2 0.1 0 0.2-0.1 0.2-0.2 0-0.1-0.1-0.1-0.2-0.1-0.1 0-0.2 0-0.2 0.1zm2.3-0.3c0 0.1 0 0.2 0.1 0.2 0.1 0 0.2-0.1 0.2-0.2 0-0.1-0.1-0.2-0.2-0.2-0.1 0-0.1 0.1-0.1 0.2zm-2.5-0.3c0 0.1 0.1 0.1 0.2 0.1 0.1 0 0.2 0 0.2-0.1 0-0.1-0.1-0.2-0.2-0.2-0.1 0-0.2 0.1-0.2 0.2zm2 1.7c0 0.1 0.1 0.1 0.2 0.1 0.1 0 0.2 0 0.2-0.1 0-0.1-0.1-0.2-0.2-0.2q-0.1 0-0.2 0.2zm1.7-1.1c0 0.1 0.1 0.2 0.2 0.2 0.1 0 0.2-0.1 0.2-0.2 0-0.1-0.1-0.2-0.2-0.2-0.1 0-0.2 0.1-0.2 0.2zm-4-1.3c0 0.1 0 0.2 0.1 0.2 0.1 0 0.2-0.1 0.2-0.2 0-0.1-0.1-0.2-0.2-0.2-0.1 0-0.1 0.1-0.1 0.2zm-2.1 0.1c0 0.1 0 0.1 0.1 0.1 0.1 0 0.2 0 0.2-0.1 0-0.1-0.1-0.2-0.2-0.2-0.1 0-0.1 0.1-0.1 0.2zm0.6-1.5c0 0.1 0.1 0.2 0.2 0.2 0.1 0 0.2-0.1 0.2-0.2 0-0.1-0.1-0.2-0.2-0.2-0.1 0-0.2 0.1-0.2 0.2zm6.3 2.9c0 0.1 0.1 0.1 0.2 0.1 0.1 0 0.2 0 0.2-0.1 0-0.1-0.1-0.2-0.2-0.2q-0.2 0-0.2 0.2zm-5.7-3.9c0 0 0.1 0.1 0.2 0.1 0.1 0 0.2-0.1 0.2-0.1 0-0.1-0.1-0.2-0.2-0.2-0.1 0-0.2 0.1-0.2 0.2zm2.1 4.6c0 0.1 0.1 0.2 0.2 0.2 0.1 0 0.2-0.1 0.2-0.2 0-0.1-0.1-0.1-0.2-0.1-0.1 0-0.2 0-0.2 0.1zm-4.2-2.2c0 0.1 0.1 0.2 0.2 0.2 0.1 0 0.2-0.1 0.2-0.2 0-0.1-0.1-0.2-0.2-0.2-0.1 0-0.2 0.1-0.2 0.2zm4.8 2.7c0 0.1 0.1 0.2 0.2 0.2 0.1 0 0.2-0.1 0.2-0.2 0-0.1-0.1-0.1-0.2-0.1-0.1 0-0.2 0-0.2 0.1zm1-1.1c0 0.1 0.1 0.2 0.2 0.2 0.1 0 0.2-0.1 0.2-0.2 0-0.1-0.1-0.1-0.2-0.1-0.1 0-0.2 0-0.2 0.1zm-6.8-6.2c0 0.1 0 0.2 0.1 0.2 0.1 0 0.2-0.1 0.2-0.2 0-0.1-0.1-0.2-0.2-0.2-0.1 0-0.1 0.1-0.1 0.2zm0.8 2.2c0 0.1 0.1 0.2 0.2 0.2 0.1 0 0.2-0.1 0.2-0.2 0-0.1-0.1-0.2-0.2-0.2-0.1 0-0.2 0.1-0.2 0.2zm2.4-0.7c0 0.1 0 0.2 0.1 0.2 0.1 0 0.2-0.1 0.2-0.2 0-0.1-0.1-0.2-0.2-0.2q-0.1 0-0.1 0.2zm3 1.2c0 0.1 0.1 0.2 0.2 0.2 0.1 0 0.2-0.1 0.2-0.2 0-0.1-0.1-0.2-0.2-0.2-0.1 0-0.2 0.1-0.2 0.2zm-0.2 3.6c0 0.1 0.1 0.2 0.2 0.2 0.1 0 0.2-0.1 0.2-0.2 0-0.1-0.1-0.2-0.2-0.2-0.1 0-0.2 0.1-0.2 0.2zm-4.5-2.3c0 0.1 0.1 0.2 0.2 0.2 0.1 0 0.2-0.1 0.2-0.2 0-0.1-0.1-0.2-0.2-0.2-0.1 0-0.2 0.1-0.2 0.2zm-1.3-1.2c0 0.1 0.1 0.2 0.2 0.2 0.1 0 0.2-0.1 0.2-0.2 0-0.1-0.1-0.2-0.2-0.2-0.1 0-0.2 0.1-0.2 0.2zm-0.1 1.5c0 0.1 0.1 0.2 0.2 0.2 0.1 0 0.2-0.1 0.2-0.2 0-0.1-0.1-0.2-0.2-0.2-0.1 0-0.2 0.1-0.2 0.2zm7.2 3.4c0 0.1 0.1 0.2 0.2 0.2 0 0 0.1-0.1 0.1-0.2 0-0.1-0.1-0.2-0.1-0.2-0.1 0-0.2 0.1-0.2 0.2zm-1.7-5.5c0 0.1 0.1 0.2 0.2 0.2 0.1 0 0.2-0.1 0.2-0.2 0-0.1-0.1-0.1-0.2-0.1-0.1 0-0.2 0-0.2 0.1zm-2.5-1.4c0 0.1 0.1 0.2 0.2 0.2 0.1 0 0.1-0.1 0.1-0.2 0-0.1 0-0.2-0.1-0.2-0.1 0-0.2 0.1-0.2 0.2zm-0.7 1.1c0 0.1 0.1 0.2 0.2 0.2 0.1 0 0.2-0.1 0.2-0.2 0-0.1-0.1-0.2-0.2-0.2-0.1 0-0.2 0.1-0.2 0.2zm-2.4 1.7c0 0.1 0.1 0.2 0.2 0.2 0.1 0 0.2-0.1 0.2-0.2 0-0.1-0.1-0.2-0.2-0.2-0.1 0-0.2 0.1-0.2 0.2zm0.9-2.2c0 0.1 0 0.2 0.1 0.2 0.1 0 0.2-0.1 0.2-0.2 0-0.1-0.1-0.2-0.2-0.2-0.1 0-0.1 0.1-0.1 0.2zm-0.3-0.7c0 0.1 0.1 0.2 0.2 0.2 0.1 0 0.2-0.1 0.2-0.2 0-0.1-0.1-0.2-0.2-0.2-0.1 0-0.2 0.1-0.2 0.2zm-40.8-59.1c-0.9 0.1-1.3 0.1-2.2 0.3-1.1-2.4-1.6-3.5-2.7-5.9q0 0 0 0c-0.4 2.6-0.6 3.9-0.9 6.4-0.9 0.1-1.3 0.2-2.2 0.3-1.6-3.4-2.5-5.1-4.2-8.5 1-0.2 1.5-0.3 2.5-0.4 1 2.3 1.4 3.4 2.4 5.7q0 0 0 0c0.3-2.5 0.5-3.7 0.8-6.2 0.9-0.2 1.4-0.2 2.3-0.4 1 2.3 1.5 3.5 2.5 5.8q0.1 0 0.1 0c0.2-2.5 0.4-3.7 0.7-6.2 0.9-0.1 1.4-0.2 2.3-0.3-0.6 3.7-0.9 5.6-1.4 9.4zm9.6-1.1c-0.4-0.7-0.6-1.1-0.9-1.7-1.4 0.1-2.2 0.2-3.6 0.3-0.2 0.8-0.3 1.2-0.5 1.9-0.9 0.1-1.4 0.2-2.3 0.3 1-3.8 1.6-5.7 2.8-9.5 0.9-0.1 1.3-0.2 2.2-0.2 1.9 3.4 2.9 5.2 4.7 8.7-1 0-1.5 0.1-2.4 0.2zm-3.2-6.4c-0.4 1.3-0.5 1.9-0.9 3.2 1-0.1 1.4-0.1 2.4-0.2-0.6-1.2-0.9-1.8-1.5-3zm11.7-1.1q-0.3-0.3-0.8-0.5-0.5-0.2-0.9-0.2-0.3 0.1-0.5 0.1-0.2 0.1-0.4 0.2-0.2 0.1-0.3 0.3-0.1 0.2-0.1 0.5 0 0.2 0.1 0.3 0.1 0.2 0.3 0.3 0.2 0.1 0.5 0.2 0.3 0 0.6 0.1 0.5 0.1 1 0.3 0.6 0.1 1 0.4 0.4 0.3 0.7 0.8 0.4 0.4 0.4 1.1 0 0.8-0.2 1.3-0.3 0.6-0.7 1-0.5 0.4-1.1 0.7-0.7 0.2-1.3 0.2-1 0.1-2-0.2-0.9-0.2-1.6-0.8c0.6-0.7 0.8-1 1.4-1.6q0.3 0.4 0.9 0.6 0.6 0.3 1.1 0.2 0.3 0 0.5-0.1 0.3 0 0.4-0.2 0.2-0.1 0.3-0.3 0.1-0.2 0-0.5 0-0.2-0.1-0.4-0.2-0.2-0.4-0.3-0.3-0.1-0.6-0.2-0.4-0.1-0.9-0.2-0.4-0.1-0.9-0.3-0.4-0.2-0.8-0.4-0.3-0.3-0.6-0.7-0.2-0.4-0.3-1.1 0-0.7 0.2-1.3 0.3-0.6 0.8-0.9 0.5-0.4 1.2-0.6 0.6-0.2 1.3-0.3 0.8 0 1.6 0.2 0.9 0.2 1.5 0.7c-0.5 0.7-0.8 1-1.3 1.6zm9 6.3c0-1.5-0.1-2.2-0.1-3.8-1.5 0.1-2.2 0.1-3.6 0.2 0 1.5 0.1 2.2 0.1 3.8-0.9 0-1.3 0-2.2 0.1-0.2-3.7-0.3-5.5-0.5-9.1 0.9-0.1 1.4-0.1 2.3-0.1 0.1 1.3 0.1 2 0.2 3.4 1.4 0 2.2-0.1 3.6-0.1 0-1.4 0-2.1-0.1-3.5 0.9 0 1.4 0 2.3 0 0.1 3.6 0.1 5.4 0.2 9.1-0.9 0-1.3 0-2.2 0zm4.1-0.1c0-3.6-0.1-5.4-0.1-9.1 0.9 0 1.4 0 2.3 0 0 3.7 0 5.5 0.1 9.1-0.9 0-1.4 0-2.3 0zm10 0.1c-1.5-2.5-2.2-3.7-3.7-6q0 0 0 0c0 2.3 0 3.5 0 5.9-0.9 0-1.3 0-2.2 0 0-3.6 0-5.5 0-9.1 1.1 0 1.6 0 2.6 0 1.5 2.4 2.3 3.6 3.7 6q0 0 0.1 0c0-2.4 0-3.6 0-5.9 0.9 0 1.4 0 2.3 0-0.2 3.7-0.2 5.5-0.3 9.1-1 0-1.5 0-2.5 0zm10.9 0.4q-0.9 0.2-1.9 0.1-1.1 0-2-0.4-0.9-0.4-1.6-1.1-0.6-0.6-1-1.5-0.3-0.9-0.3-2 0-1.1 0.5-2 0.4-0.8 1.1-1.4 0.7-0.6 1.7-0.9 0.9-0.3 2-0.2 1.1 0 2.1 0.4 0.9 0.4 1.5 1c-0.6 0.6-0.9 0.9-1.5 1.5q-0.4-0.4-0.9-0.7-0.5-0.3-1.2-0.3-0.6 0-1.1 0.2-0.5 0.1-0.9 0.5-0.4 0.4-0.6 0.9-0.3 0.5-0.3 1.1 0 0.6 0.1 1.2 0.2 0.5 0.5 0.9 0.4 0.4 0.9 0.6 0.5 0.3 1.2 0.3 0.4 0 0.7 0 0.4 0 0.7-0.2c0-0.6 0.1-0.9 0.1-1.6-0.7 0-1.1-0.1-1.8-0.1 0.1-0.7 0.1-1.1 0.1-1.8 1.6 0.1 2.3 0.1 3.9 0.3-0.1 1.9-0.2 2.8-0.3 4.8q-0.8 0.3-1.7 0.4zm8-6.6c-0.2 2.8-0.3 4.3-0.6 7.2-0.9-0.1-1.3-0.1-2.2-0.2 0.2-2.9 0.3-4.3 0.6-7.2-1.1-0.1-1.6-0.2-2.7-0.2 0.1-0.8 0.1-1.2 0.2-1.9 3 0.2 4.5 0.3 7.6 0.6-0.1 0.8-0.1 1.2-0.2 1.9-1.1-0.1-1.6-0.1-2.7-0.2zm12.7 4q-0.1 1.1-0.6 1.9-0.5 0.9-1.3 1.4-0.7 0.6-1.7 0.8-0.9 0.2-2 0.1-1.1-0.1-1.9-0.6-0.9-0.4-1.5-1.1-0.6-0.8-0.9-1.7-0.3-0.9-0.2-2 0.1-1.1 0.6-1.9 0.5-0.8 1.2-1.4 0.8-0.5 1.7-0.8 1-0.2 2.1-0.1 1.1 0.2 2.1 0.6 0.9 0.5 1.5 1.2 0.6 0.7 0.8 1.6 0.3 1 0.1 2zm-2.4-0.3q0.1-0.6 0-1.1-0.2-0.5-0.5-0.9-0.3-0.5-0.7-0.7-0.5-0.3-1.1-0.4-0.6 0-1.1 0.1-0.5 0.2-0.9 0.5-0.4 0.3-0.6 0.8-0.3 0.5-0.4 1.1 0 0.6 0.1 1.2 0.2 0.5 0.5 0.9 0.3 0.4 0.7 0.7 0.5 0.2 1.1 0.3 0.5 0.1 1.1-0.1 0.5-0.1 0.9-0.5 0.4-0.3 0.6-0.8 0.2-0.5 0.3-1.1zm9 6c-1-2.6-1.6-3.9-2.7-6.5q0 0-0.1 0c-0.3 2.4-0.5 3.6-0.8 5.9-0.8-0.1-1.3-0.2-2.1-0.3 0.5-3.6 0.7-5.4 1.3-9 1 0.1 1.5 0.2 2.6 0.4 1.1 2.5 1.7 3.8 2.7 6.4q0.1 0 0.1 0c0.3-2.3 0.5-3.5 0.9-5.8 0.9 0.1 1.3 0.2 2.2 0.3-0.6 3.6-0.9 5.4-1.6 9-1-0.2-1.5-0.3-2.5-0.4zm-46.3-93.9h-9.2l7.4 5.4-2.8 8.7 7.4-5.4 7.5 5.4-2.9-8.7 7.5-5.4h-9.2l-2.9-8.7z"/>
</svg>