<?xml version="1.0" encoding="UTF-8"?>
<svg version="1.1" viewBox="0 0 166.4707 40.18107" xml:space="preserve" xmlns="http://www.w3.org/2000/svg" xmlns:cc="http://creativecommons.org/ns#" xmlns:dc="http://purl.org/dc/elements/1.1/" xmlns:rdf="http://www.w3.org/1999/02/22-rdf-syntax-ns#"><metadata><rdf:RDF><cc:Work rdf:about=""><dc:format>image/svg+xml</dc:format><dc:type rdf:resource="http://purl.org/dc/dcmitype/StillImage"/><dc:title/></cc:Work></rdf:RDF></metadata><defs><clipPath id="a"><path d="M 0,30.136 H 124.853 V 0 H 0 Z"/></clipPath></defs><g transform="matrix(1.333333 0 0 -1.333333 0 40.18107)"><g clip-path="url(#a)"><g transform="translate(32.3566,29.52)"><path d="m0 0c3.553 0.975 10.031-7.315 11.982-7.035 3.443 0.491 6.367 2.736 9.961-0.14 3.652-2.92 11.081-9.042 12.609-10.17 1.511-1.118 6.66-6.352 6.29-6.538-4.511-2.256-6.883-3.27-20.292-4.399-6.271-0.527-14.427-0.094-32.949 3.622-4.499 0.904-17.087-0.687-19.873-1.593-0.21-0.068 7.198 6.662 8.448 7.514 1.461 0.998 19.832 17.644 23.824 18.739" fill="#fff"/></g><g transform="translate(9.8488,9.9263)"><path d="m0 0c-0.748 0.352-6.207-3.161-6.563-3.349-1.267-0.662 2.591 2.985 2.591 2.985s23.832 21.369 27.228 20.551 9.661-6.763 11.159-7.057c1.033-0.202 5.36 1.412 6.282 1.424 1.93 0.026 3.135-1.057 4.49-2.122 2.37-1.86 15.36-13.021 15.36-13.021s1.102-1.923-0.23-0.848c-4.156 3.352-13.458 10.716-15.213 12.11-1.74 1.383-2.578 3.304-5.79 2.438-3.569-0.963-4.505-2.548-6.085-1.284-4.052 3.241-7.696 6.294-9.984 6.912-1.628 0.439-22.139-19.26-23.245-18.739" fill="#5fb4e5"/></g><g transform="translate(1e-4,3.2163)"><path d="m0 0c4.882 2.219 13.132 4.518 25.085 2.219s21.876-3.583 30.809-2.854c12.627 1.031 17.341 3.091 17.341 3.091s-4.377-4.28-16.499-5.309c-11.297-0.96-20.203 0-32.831 2.693-13.14 2.806-23.905 0.16-23.905 0.16" fill="#000f9f"/></g><g transform="translate(30.57,6.4966)"><path d="m0 0c-17.294 9.217-30.565-3.274-30.565-3.274 4.269 5.489 11.67 12.411 26.05 6.212 3.57-1.539 5.895-3.674 4.515-2.938" fill="#4a8b2c"/></g><g transform="translate(26.0412,10.2475)"><path d="m0 0c31.804 11.696 47.189-4.575 47.189-4.575-1.318 4.417-19.415 17.904-42.869 7.808-5.786-2.49-8.089-4.619-4.32-3.233" fill="#4a8b2c"/></g><g transform="translate(40.1998,16.0879)"><path d="M 0,0 C 22.758,0.205 33.03,-10.418 33.03,-10.418 31.77,-6.349 19.2,2.867 2.278,0.768 0.921,0.599 -3.474,-0.031 0,0" fill="#f6b436"/></g><g transform="translate(31.2819,6.1352)"><path d="m0 0c-12.236 5.771-19.157 5.424-19.157 5.424-0.017-1e-3 5.388 1.443 13.199-1.75 3.925-1.605 6.32-3.844 5.958-3.674" fill="#f6b436"/></g><g transform="translate(40.5675,5.6802)"><path d="m0 0c0.023 0.054 0.121 0.277 0.292 0.668 0.172 0.391 0.28 0.64 0.325 0.749 0.044 0.109 0.145 0.345 0.301 0.706 0.155 0.362 0.264 0.62 0.327 0.776 0.061 0.156 0.157 0.389 0.286 0.7 0.128 0.312 0.227 0.559 0.295 0.741 0.067 0.183 0.148 0.396 0.24 0.639 0.091 0.244 0.164 0.459 0.218 0.651 0.055 0.19 0.107 0.369 0.158 0.536 0.092-0.023 0.279-0.035 0.561-0.035 0.172 0 0.304 0.012 0.396 0.035-1.521-3.392-2.676-6.011-3.469-7.858h-0.339c-0.467 1.311-0.991 2.75-1.571 4.317l-1.921-4.317h-0.333c-0.265 0.63-0.649 1.563-1.152 2.8s-0.927 2.3-1.275 3.189c-0.348 0.888-0.604 1.512-0.769 1.869 0.129-0.023 0.353-0.035 0.674-0.035 0.247 0 0.434 0.012 0.558 0.035 0.472-1.656 1.259-3.748 2.361-6.272h0.024c0.794 1.844 1.3 3.034 1.518 3.571-0.152 0.405-0.291 0.775-0.418 1.112-0.126 0.336-0.242 0.643-0.349 0.921s-0.194 0.501-0.26 0.668c0.137-0.023 0.373-0.035 0.712-0.035 0.303 0 0.523 0.012 0.659 0.035 0.214-0.972 0.856-3.027 1.928-6.166z" fill="#000f9f"/></g><g transform="translate(46.5924,4.5132)"><path d="m0 0c0.374 0 0.7 0.126 0.979 0.377 0.279 0.25 0.418 0.59 0.418 1.018 0 0.463-0.119 0.821-0.36 1.072-0.239 0.251-0.585 0.471-1.037 0.663-0.297 0.12-0.548 0.24-0.755 0.359-0.206 0.118-0.416 0.268-0.629 0.449s-0.377 0.392-0.493 0.634c-0.116 0.241-0.174 0.513-0.174 0.818 0 0.411 0.126 0.784 0.375 1.12 0.25 0.335 0.563 0.583 0.939 0.742 0.325 0.136 0.667 0.204 1.023 0.204 0.431 0 0.811-0.043 1.14-0.13s0.552-0.178 0.671-0.268l0.17-0.139 0.025-0.035c-0.166-0.503-0.267-0.902-0.302-1.197l-0.128-0.012c-0.164 0.375-0.401 0.677-0.708 0.909-0.309 0.23-0.631 0.347-0.967 0.347-0.305 0-0.548-0.047-0.731-0.14-0.152-0.078-0.282-0.224-0.39-0.436-0.106-0.211-0.16-0.425-0.16-0.639 0-0.228 0.043-0.437 0.132-0.622 0.087-0.184 0.215-0.336 0.383-0.455 0.167-0.118 0.317-0.212 0.45-0.281 0.132-0.068 0.298-0.138 0.497-0.213 1.507-0.532 2.26-1.329 2.26-2.388 0-0.684-0.259-1.237-0.775-1.655s-1.167-0.627-1.952-0.627c-0.412 0-0.797 0.043-1.159 0.13-0.363 0.088-0.62 0.177-0.776 0.267l-0.233 0.139-0.023 0.035c0.159 0.592 0.252 1.003 0.279 1.233l0.116 0.011c0.182-0.351 0.46-0.653 0.834-0.908s0.727-0.382 1.061-0.382" fill="#000f9f"/></g><g transform="translate(51.3537,5.0845)"><path d="m0 0c0-0.199 0.076-0.328 0.228-0.388 0.151-0.061 0.51-0.091 1.076-0.091 0.463 0 0.864 0.041 1.203 0.12 0.338 0.08 0.656 0.219 0.952 0.418 0.296 0.197 0.522 0.494 0.677 0.889 0.156 0.395 0.234 0.884 0.234 1.467 0 0.494-0.056 0.954-0.169 1.38-0.114 0.427-0.294 0.829-0.541 1.211-0.247 0.381-0.596 0.681-1.045 0.901-0.451 0.22-0.987 0.329-1.61 0.329-0.335 0-0.587-0.031-0.754-0.095-0.168-0.064-0.251-0.192-0.251-0.382zm-0.478 6.728c0.252 0 0.575 4e-3 0.969 0.016 0.394 0.013 0.717 0.018 0.97 0.018 1.148 0 2.126-0.398 2.931-1.193 0.806-0.796 1.209-1.751 1.209-2.868 0-0.564-0.084-1.067-0.251-1.511-0.167-0.443-0.382-0.799-0.643-1.064-0.261-0.267-0.568-0.487-0.922-0.663-0.355-0.175-0.702-0.296-1.046-0.364-0.342-0.068-0.696-0.102-1.062-0.102-0.441 0-0.849 4e-3 -1.224 0.011-0.376 9e-3 -0.686 0.013-0.931 0.013l-0.583-0.037-0.013 0.037c0.078 0.54 0.117 1.337 0.117 2.391v2.923c0 1.027-0.039 1.824-0.117 2.393l0.024 0.034c0.127-0.023 0.318-0.034 0.572-0.034" fill="#000f9f"/></g><g transform="translate(61.5607,7.395)"><path d="m0 0c-0.171 0.448-0.357 0.916-0.556 1.405-0.201 0.492-0.418 1.005-0.652 1.541h-0.022l-1.264-2.94c0.093 0 0.293-4e-3 0.597-0.012 0.303-8e-3 0.522-0.012 0.655-0.012 0.338 0 0.752 6e-3 1.242 0.018m-2.738-0.561c-0.238-0.556-0.442-1.068-0.61-1.538s-0.296-0.879-0.385-1.227c-0.095 0.024-0.273 0.035-0.532 0.035-0.18 0-0.316-0.011-0.407-0.035 1.325 2.972 2.476 5.606 3.452 7.9h0.331c0.273-0.646 0.657-1.586 1.152-2.821 0.497-1.235 0.929-2.303 1.297-3.203 0.369-0.9 0.64-1.525 0.815-1.876-0.128 0.024-0.351 0.035-0.667 0.035-0.248 0-0.437-0.011-0.564-0.035-0.016 0.055-0.035 0.118-0.055 0.19-0.022 0.073-0.052 0.169-0.089 0.292-0.036 0.123-0.081 0.261-0.132 0.414-0.05 0.154-0.107 0.323-0.168 0.507-0.064 0.185-0.137 0.396-0.221 0.634-0.084 0.236-0.172 0.48-0.266 0.728-0.262 8e-3 -0.509 0.013-0.743 0.016-0.235 2e-3 -0.454 3e-3 -0.662 3e-3 -0.456 0-0.972-7e-3 -1.546-0.019" fill="#000f9f"/></g><g transform="translate(83.0739,20.3364)"><path d="m0 0c0.019 0.046 0.098 0.237 0.237 0.572 0.14 0.335 0.228 0.549 0.264 0.643 0.037 0.093 0.119 0.295 0.246 0.605s0.215 0.531 0.266 0.665c0.05 0.133 0.129 0.333 0.233 0.6 0.105 0.266 0.185 0.478 0.239 0.635 0.057 0.156 0.121 0.339 0.196 0.547s0.134 0.394 0.178 0.558c0.045 0.163 0.088 0.317 0.129 0.46 0.075-0.021 0.227-0.03 0.456-0.03 0.141 0 0.247 9e-3 0.323 0.03-1.237-2.907-2.179-5.152-2.825-6.735h-0.275c-0.381 1.123-0.808 2.356-1.279 3.7l-1.564-3.7h-0.271c-0.216 0.54-0.53 1.34-0.938 2.399-0.409 1.061-0.757 1.971-1.038 2.733-0.283 0.762-0.492 1.296-0.626 1.603 0.104-0.021 0.287-0.03 0.548-0.03 0.202 0 0.353 9e-3 0.454 0.03 0.384-1.42 1.026-3.212 1.923-5.375h0.02c0.646 1.579 1.058 2.6 1.235 3.06-0.123 0.346-0.236 0.664-0.34 0.952-0.103 0.288-0.197 0.552-0.284 0.791-0.088 0.237-0.158 0.429-0.212 0.572 0.111-0.021 0.305-0.03 0.58-0.03 0.246 0 0.426 9e-3 0.537 0.03 0.174-0.834 0.696-2.595 1.568-5.285z"/></g><g transform="translate(88.0905,21.291)"><path d="m0 0-0.821-0.234c-0.362-0.103-0.614-0.238-0.758-0.405s-0.216-0.373-0.216-0.62c0-0.164 0.067-0.309 0.2-0.435 0.133-0.127 0.308-0.191 0.524-0.191 0.261 0 0.559 0.134 0.896 0.4 0.092 0.067 0.138 0.155 0.138 0.265zm0-1.814h-0.037c-0.261-0.234-0.48-0.391-0.66-0.471-0.18-0.079-0.402-0.12-0.669-0.12-0.374 0-0.67 0.093-0.885 0.276s-0.323 0.461-0.323 0.831c0 0.346 0.144 0.65 0.432 0.912 0.289 0.263 0.683 0.453 1.183 0.569l0.907 0.217c0.041 0.013 0.062 0.053 0.062 0.12 0 0.222-0.023 0.414-0.069 0.575-0.045 0.161-0.098 0.281-0.157 0.36-0.059 0.08-0.137 0.141-0.233 0.187-0.098 0.045-0.179 0.073-0.243 0.083-0.065 0.01-0.144 0.015-0.236 0.015-0.371 0-0.727-0.29-1.069-0.872l-0.127 0.01-0.159 0.687 0.029 0.039c0.445 0.391 0.92 0.586 1.426 0.586 1.078 0 1.617-0.551 1.617-1.653 0-0.024-1e-3 -0.106-5e-3 -0.248-3e-3 -0.142-6e-3 -0.294-9e-3 -0.457-3e-3 -0.162-6e-3 -0.326-0.01-0.494-3e-3 -0.166-5e-3 -0.283-5e-3 -0.35 0-0.431 0.054-0.699 0.162-0.802 0.053-0.051 0.149-0.076 0.285-0.076 0.079 0 0.167 0.019 0.262 0.055l0.075-0.255c-0.19-0.21-0.448-0.315-0.773-0.315-0.187 0-0.349 0.05-0.485 0.15s-0.231 0.247-0.286 0.441"/></g><g transform="translate(90.4381,20.0498)"><path d="m0 0 0.146 0.01c0.336-0.479 0.72-0.721 1.151-0.724 0.265 0 0.481 0.074 0.645 0.222 0.164 0.149 0.247 0.352 0.247 0.609 0 0.228-0.08 0.398-0.237 0.508-0.159 0.111-0.407 0.212-0.746 0.303-0.364 0.102-0.649 0.242-0.855 0.423s-0.309 0.451-0.309 0.809c0 0.403 0.145 0.716 0.437 0.938 0.291 0.222 0.635 0.333 1.031 0.333 0.503 0 0.943-0.112 1.319-0.335l0.019-0.038-0.199-0.746-0.133-0.01c-0.124 0.146-0.215 0.251-0.274 0.315-0.059 0.063-0.163 0.14-0.313 0.23-0.149 0.089-0.302 0.134-0.457 0.134-0.215 0-0.393-0.054-0.533-0.163-0.138-0.109-0.209-0.265-0.209-0.467 0-0.375 0.302-0.636 0.904-0.782 0.402-0.101 0.724-0.251 0.969-0.45 0.244-0.199 0.365-0.485 0.365-0.86 0-0.159-0.025-0.315-0.074-0.467-0.049-0.153-0.13-0.306-0.245-0.458-0.111-0.152-0.284-0.273-0.517-0.363-0.234-0.09-0.508-0.135-0.826-0.135-0.482 0-0.971 0.102-1.468 0.306z"/></g><g transform="translate(95.4586,22.5913)"><path d="m0 0 0.019-0.03c0.501 0.614 1.062 0.92 1.685 0.92 0.431 0 0.738-0.134 0.929-0.4 0.188-0.266 0.283-0.674 0.283-1.22 0-0.111-5e-3 -0.283-0.012-0.517-8e-3 -0.236-0.011-0.407-0.011-0.513 0-0.794 0.03-1.408 0.089-1.845l-0.018-0.03c-0.118 0.02-0.273 0.03-0.461 0.03-0.19 0-0.344-0.01-0.461-0.03l-0.02 0.03c0.058 0.417 0.087 1.031 0.091 1.845v1c0 0.403-0.052 0.676-0.157 0.819-0.104 0.144-0.285 0.216-0.546 0.216-0.193 0-0.42-0.069-0.68-0.205-0.258-0.137-0.502-0.348-0.73-0.635v-1.195c0-0.757 0.029-1.372 0.09-1.845l-0.025-0.03c-0.116 0.02-0.268 0.03-0.456 0.03-0.186 0-0.338-0.01-0.455-0.03l-0.018 0.03c0.055 0.443 0.085 1.058 0.085 1.845v3.08c0 0.983-0.03 1.645-0.085 1.985l0.018 0.035c0.291 0.02 0.574 0.088 0.846 0.205 0.057 0 0.087-0.035 0.09-0.105-0.058-0.787-0.087-1.425-0.09-1.915z"/></g><g transform="translate(100.0182,21.3911)"><path d="m0 0c0 0.907-0.028 1.57-0.085 1.99l0.018 0.03c0.28-0.019 0.561-0.017 0.845 0.01 0.038 0 0.064-5e-3 0.075-0.015 0.01-0.01 0.017-0.04 0.017-0.09-0.058-0.573-0.089-1.16-0.092-1.76v-0.725c0-0.743 0.034-1.358 0.101-1.845l-0.028-0.03c-0.122 0.02-0.274 0.03-0.461 0.03s-0.34-0.01-0.457-0.03l-0.018 0.03c0.057 0.457 0.085 1.072 0.085 1.845zm0.054 3.345c-0.099 0.107-0.15 0.229-0.15 0.365s0.051 0.258 0.15 0.363 0.215 0.157 0.344 0.157c0.13 0 0.248-0.052 0.352-0.157s0.157-0.227 0.157-0.363-0.053-0.258-0.157-0.365-0.222-0.16-0.352-0.16c-0.129 0-0.245 0.053-0.344 0.16"/></g><g transform="translate(106.1452,20.8315)"><path d="m0 0c0-0.777 0.03-1.392 0.091-1.845l-0.024-0.03c-0.118 0.02-0.27 0.03-0.456 0.03-0.187 0-0.339-0.01-0.456-0.03l-0.019 0.03c0.057 0.456 0.087 1.072 0.087 1.845v1c0 0.403-0.053 0.676-0.156 0.819-0.103 0.144-0.284 0.216-0.544 0.216-0.2 0-0.427-0.069-0.685-0.205-0.255-0.137-0.498-0.348-0.726-0.635v-1.195c0-0.794 0.03-1.408 0.086-1.845l-0.018-0.03c-0.118 0.02-0.27 0.03-0.457 0.03s-0.338-0.01-0.455-0.03l-0.021 0.03c0.059 0.417 0.086 1.031 0.086 1.845v0.56c0 0.943-0.027 1.607-0.086 1.99l0.021 0.03c0.285-0.027 0.547-0.017 0.788 0.03 0.038 0 0.056-0.036 0.056-0.106v-0.744l0.019-0.03c0.5 0.614 1.061 0.92 1.682 0.92 0.427 0 0.735-0.134 0.924-0.4s0.283-0.674 0.283-1.22c0-0.111-3e-3 -0.282-9e-3 -0.515-9e-3 -0.234-0.011-0.405-0.011-0.515"/></g><g transform="translate(109.9645,21.896)"><path d="m0 0c0 0.8-0.294 1.199-0.882 1.195-0.277 0-0.489-0.099-0.637-0.298-0.146-0.197-0.22-0.47-0.22-0.817 0-0.396 0.072-0.694 0.214-0.892s0.381-0.298 0.719-0.298c0.29 0 0.497 0.097 0.621 0.29 0.123 0.194 0.185 0.467 0.185 0.82m-2.07-3.969c0-0.209 0.296-0.39 0.469-0.541 0.174-0.15 0.356-0.252 0.543-0.305 0.189-0.053 0.353-0.08 0.491-0.08 0.45 0 0.838 0.085 1.161 0.254 0.324 0.169 0.275 0.403 0.275 0.702 0 0.33-0.127 0.576-0.382 0.735-0.186 0.117-0.532 0.173-1.035 0.169-0.032 0-0.157-4e-3 -0.374-0.015-0.22-0.01-0.383-0.014-0.494-0.014-0.182-0.104-0.335-0.239-0.463-0.408s-0.191-0.335-0.191-0.497m2.848 4.019c0-0.45-0.14-0.823-0.423-1.12-0.28-0.297-0.683-0.445-1.209-0.445-0.308 0-0.548 0.047-0.719 0.14-0.208-0.176-0.313-0.366-0.313-0.569 0-0.197 0.053-0.327 0.156-0.391 0.104-0.063 0.248-0.095 0.433-0.095 5e-3 0 0.098 7e-3 0.277 0.02 0.248 0.033 0.522 0.052 0.824 0.055 0.683 0 1.159-0.113 1.421-0.339 0.282-0.246 0.422-0.583 0.422-1.012 0-0.347 0.074-0.65-0.2-0.907-0.273-0.257-0.609-0.443-1.008-0.559-0.396-0.115-0.822-0.173-1.276-0.173-0.269 0-0.524 0.032-0.766 0.096-0.239 0.063-0.456 0.188-0.643 0.375-0.19 0.185-0.284 0.419-0.284 0.701 0 0.208-0.136 0.432 0.011 0.671 0.083 0.066 0.356 0.232 0.818 0.497 0.014 7e-3 0.025 0.014 0.034 0.02-0.259 0.047-0.45 0.149-0.576 0.308-0.126 0.158-0.189 0.351-0.189 0.578 0 0.273 0.204 0.556 0.615 0.849-0.467 0.28-0.702 0.707-0.702 1.28 0 0.477 0.174 0.855 0.519 1.135s0.73 0.42 1.157 0.42c0.217 0 0.416-0.03 0.592-0.089 0.283 0.016 0.591 0.05 0.923 0.102 0.333 0.052 0.554 0.082 0.665 0.092l0.032-0.035c-0.022-0.096-0.032-0.185-0.032-0.264 0-0.081 0.01-0.169 0.032-0.266l-0.032-0.03c-0.633 0.067-0.987 0.102-1.06 0.105 0.333-0.227 0.501-0.61 0.501-1.15"/></g><g transform="translate(112.6862,23.3808)"><path d="m0 0c0 0.21 6e-3 0.452 0.02 0.725 0.012 0.273 0.017 0.469 0.017 0.585l0.022 0.03c0.102 0.013 0.191 0.032 0.262 0.055 0.074 0.023 0.156 0.057 0.247 0.102 0.093 0.046 0.161 0.078 0.209 0.099 0.058 0 0.089-0.034 0.092-0.101-0.032-0.437-0.049-0.935-0.052-1.495h0.46c0.124 0 0.35 7e-3 0.68 0.02l0.047-0.068c-0.05-0.124-0.089-0.251-0.112-0.382-0.131 0.013-0.366 0.02-0.705 0.02h-0.37v-1.307c0-0.236-5e-3 -0.505-0.013-0.808-0.011-0.302-0.014-0.492-0.014-0.57 0-0.533 0.107-0.816 0.322-0.85 0.25-0.043 0.505-0.017 0.764 0.08l0.118-0.255c-0.377-0.253-0.752-0.378-1.125-0.375-0.233 0-0.43 0.085-0.591 0.256-0.16 0.171-0.241 0.414-0.241 0.729 0 0.077-5e-3 0.318-0.017 0.721-0.014 0.404-0.02 0.724-0.02 0.961v1.418c-0.304 0-0.536-7e-3 -0.692-0.02l-0.048 0.068c0.092 0.136 0.162 0.263 0.214 0.382 0.09-0.013 0.266-0.02 0.526-0.02"/></g><g transform="translate(117.3952,23.0312)"><path d="m0 0c-0.286 0-0.521-0.091-0.707-0.272-0.185-0.182-0.311-0.399-0.375-0.654-0.065-0.253-0.099-0.542-0.099-0.865 0-0.303 0.034-0.59 0.099-0.861 0.064-0.27 0.201-0.519 0.409-0.747 0.208-0.227 0.47-0.341 0.787-0.341 0.324 0 0.591 0.159 0.805 0.477 0.212 0.318 0.319 0.72 0.319 1.205 0 0.683-0.086 1.196-0.257 1.541s-0.499 0.517-0.981 0.517m-1.96-1.964c0 0.729 0.186 1.313 0.554 1.753 0.367 0.441 0.859 0.661 1.473 0.661 0.625 0 1.106-0.209 1.444-0.626 0.338-0.416 0.507-0.983 0.507-1.699 0-0.677-0.179-1.225-0.535-1.643s-0.839-0.627-1.455-0.627c-0.607 0-1.09 0.206-1.449 0.619-0.357 0.413-0.539 0.934-0.539 1.562"/></g><g transform="translate(124.4059,20.8315)"><path d="m0 0c0-0.777 0.03-1.392 0.09-1.845l-0.024-0.03c-0.117 0.02-0.269 0.03-0.456 0.03s-0.339-0.01-0.456-0.03l-0.02 0.03c0.058 0.456 0.087 1.072 0.087 1.845v1c0 0.403-0.052 0.676-0.155 0.819-0.103 0.144-0.285 0.216-0.544 0.216-0.2 0-0.427-0.069-0.684-0.205-0.256-0.137-0.499-0.348-0.727-0.635v-1.195c0-0.794 0.029-1.408 0.086-1.845l-0.019-0.03c-0.116 0.02-0.27 0.03-0.457 0.03s-0.339-0.01-0.457-0.03l-0.018 0.03c0.057 0.417 0.085 1.031 0.085 1.845v0.56c0 0.943-0.028 1.607-0.085 1.99l0.018 0.03c0.286-0.027 0.548-0.017 0.791 0.03 0.037 0 0.056-0.036 0.056-0.106v-0.744l0.019-0.03c0.5 0.614 1.061 0.92 1.683 0.92 0.426 0 0.734-0.134 0.923-0.4 0.188-0.266 0.284-0.674 0.284-1.22 0-0.111-5e-3 -0.282-0.011-0.515-7e-3 -0.234-9e-3 -0.405-9e-3 -0.515"/></g><g transform="translate(81.1012,5.2563)"><path d="m0 0c-0.146 0.383-0.305 0.784-0.477 1.204-0.171 0.421-0.357 0.86-0.557 1.32h-0.021l-1.082-2.519c0.08 0 0.25-4e-3 0.511-0.011 0.262-7e-3 0.448-0.01 0.563-0.01 0.29 0 0.644 5e-3 1.063 0.016m-2.346-0.48c-0.205-0.476-0.379-0.916-0.522-1.32-0.145-0.401-0.255-0.753-0.329-1.051-0.082 0.02-0.235 0.031-0.457 0.031-0.156 0-0.272-0.011-0.35-0.031 1.137 2.547 2.122 4.803 2.959 6.771h0.284c0.233-0.555 0.563-1.36 0.988-2.417 0.424-1.06 0.795-1.975 1.111-2.746 0.315-0.772 0.549-1.308 0.698-1.608-0.109 0.02-0.3 0.031-0.573 0.031-0.212 0-0.372-0.011-0.482-0.031-0.013 0.047-0.03 0.102-0.047 0.163-0.02 0.062-0.044 0.145-0.076 0.25-0.031 0.105-0.07 0.223-0.113 0.355l-0.145 0.435c-0.054 0.159-0.117 0.338-0.189 0.543-0.071 0.203-0.147 0.411-0.227 0.625-0.225 6e-3 -0.438 9e-3 -0.638 0.011s-0.39 3e-3 -0.567 3e-3c-0.392 0-0.833-5e-3 -1.325-0.014"/></g><g transform="translate(86.6383,5.3452)"><path d="m0 0c0 0.801-0.31 1.199-0.928 1.196-0.292 0-0.514-0.1-0.671-0.298-0.154-0.199-0.231-0.47-0.231-0.817 0-0.396 0.074-0.694 0.225-0.893 0.149-0.198 0.401-0.297 0.757-0.297 0.306 0 0.525 0.096 0.654 0.29 0.13 0.193 0.194 0.466 0.194 0.819m-2.18-3.97c0-0.208 0.092-0.387 0.275-0.54 0.183-0.15 0.374-0.252 0.571-0.304 0.198-0.055 0.37-0.081 0.516-0.081 0.474 0 0.88 0.085 1.221 0.254s0.512 0.404 0.512 0.702c0 0.332-0.134 0.577-0.401 0.735-0.199 0.116-0.562 0.174-1.09 0.169-0.034 0-0.165-4e-3 -0.395-0.014-0.228-0.011-0.403-0.014-0.519-0.014-0.191-0.104-0.354-0.24-0.488-0.409-0.134-0.17-0.202-0.335-0.202-0.498m3 4.022c0-0.451-0.149-0.824-0.445-1.12-0.296-0.297-0.721-0.447-1.271-0.447-0.328 0-0.58 0.047-0.759 0.14-0.22-0.177-0.329-0.366-0.329-0.569 0-0.197 0.053-0.327 0.163-0.391 0.109-0.062 0.261-0.095 0.455-0.095 7e-3 0 0.104 7e-3 0.294 0.02 0.26 0.033 0.548 0.053 0.865 0.056 0.722 0 1.221-0.114 1.497-0.339 0.296-0.246 0.445-0.583 0.445-1.013 0-0.348-0.144-0.649-0.432-0.907-0.288-0.257-0.643-0.444-1.062-0.559-0.418-0.115-0.866-0.172-1.343-0.172-0.284 0-0.551 0.032-0.805 0.095-0.253 0.063-0.48 0.189-0.68 0.374-0.197 0.187-0.298 0.42-0.298 0.702 0 0.208 0.078 0.433 0.236 0.671 0.085 0.066 0.372 0.232 0.859 0.498 0.014 6e-3 0.025 0.014 0.034 0.02-0.27 0.046-0.473 0.148-0.605 0.307-0.132 0.158-0.199 0.352-0.199 0.577 0 0.275 0.215 0.557 0.646 0.85-0.49 0.28-0.735 0.707-0.735 1.28 0 0.477 0.18 0.856 0.545 1.136 0.362 0.28 0.767 0.419 1.216 0.419 0.23 0 0.438-0.028 0.624-0.09 0.298 0.018 0.622 0.051 0.971 0.104 0.351 0.05 0.583 0.082 0.7 0.091l0.033-0.035c-0.022-0.095-0.033-0.184-0.033-0.264 0-0.079 0.011-0.168 0.033-0.266l-0.033-0.029c-0.667 0.066-1.039 0.101-1.115 0.105 0.353-0.227 0.528-0.611 0.528-1.149"/></g><g transform="translate(90.2897,5.8559)"><path d="m0 0 0.03-0.021c0.24 0.411 0.449 0.696 0.63 0.856 0.18 0.16 0.403 0.24 0.67 0.24 0.083 0 0.206-0.024 0.369-0.07l0.041-0.04-0.205-0.761-0.08-0.019c-0.104 0.097-0.282 0.145-0.535 0.145-0.227 0-0.417-0.121-0.57-0.36-0.233-0.354-0.35-0.692-0.35-1.015v-0.53c0-0.763 0.03-1.378 0.09-1.845l-0.02-0.03c-0.124 0.019-0.283 0.03-0.48 0.03s-0.357-0.011-0.48-0.03l-0.02 0.03c0.06 0.423 0.09 1.038 0.09 1.845v0.56c0 0.943-0.03 1.606-0.09 1.99l0.02 0.03c0.3-0.027 0.576-0.017 0.829 0.03 0.041 0 0.061-0.035 0.061-0.105z"/></g><g transform="translate(93.1862,4.8403)"><path d="m0 0c0 0.907-0.031 1.57-0.091 1.991l0.021 0.03c0.293-0.021 0.59-0.018 0.889 9e-3 0.04 0 0.067-5e-3 0.078-0.014 0.011-0.01 0.017-0.04 0.017-0.09-0.06-0.573-0.092-1.16-0.095-1.761v-0.725c0-0.744 0.035-1.358 0.106-1.844l-0.03-0.031c-0.127 0.019-0.29 0.031-0.486 0.031s-0.356-0.012-0.479-0.031l-0.021 0.031c0.06 0.457 0.091 1.071 0.091 1.844zm0.058 3.346c-0.106 0.106-0.159 0.228-0.159 0.364 0 0.137 0.053 0.259 0.159 0.363 0.103 0.106 0.224 0.157 0.362 0.157 0.137 0 0.26-0.051 0.369-0.157 0.11-0.104 0.165-0.226 0.165-0.363 0-0.136-0.055-0.258-0.165-0.364-0.109-0.108-0.232-0.16-0.369-0.16-0.138 0-0.259 0.052-0.362 0.16"/></g><g transform="translate(97.5104,6.4809)"><path d="m0 0c-0.353 0-0.652-0.162-0.9-0.485-0.246-0.324-0.369-0.755-0.369-1.296 0-0.573 0.124-1.027 0.374-1.358 0.25-0.33 0.568-0.496 0.957-0.496 0.408 0 0.773 0.143 1.093 0.43h0.046l0.195-0.217c-0.384-0.482-0.887-0.723-1.51-0.723-0.628 0-1.113 0.209-1.458 0.626-0.345 0.418-0.517 0.98-0.517 1.684 0 0.669 0.208 1.217 0.624 1.644 0.418 0.427 0.909 0.641 1.475 0.641 0.54 0 0.993-0.104 1.36-0.313l0.026-0.033-0.241-0.84-0.13-0.011c-0.293 0.498-0.634 0.747-1.025 0.747"/></g><g transform="translate(103.2116,3.3764)"><path d="m0 0c-0.19-0.295-0.422-0.54-0.696-0.741-0.277-0.199-0.561-0.299-0.854-0.299-0.471 0-0.81 0.136-1.021 0.407-0.213 0.272-0.319 0.609-0.319 1.012v1.23c0 0.794-0.03 1.409-0.089 1.845l0.018 0.03c0.125-0.019 0.284-0.03 0.482-0.03 0.197 0 0.356 0.011 0.479 0.03l0.021-0.03c-0.061-0.409-0.09-1.025-0.09-1.845v-1.015c0-0.431 0.059-0.714 0.179-0.855 0.119-0.139 0.289-0.21 0.505-0.21 0.24 0 0.491 0.108 0.753 0.323 0.262 0.214 0.479 0.465 0.653 0.752v1.005c0 0.778-0.033 1.392-0.095 1.845l0.019 0.03c0.124-0.019 0.285-0.03 0.486-0.03 0.2 0 0.36 0.011 0.482 0.03l0.02-0.03c-0.059-0.409-0.089-1.025-0.092-1.845v-0.586c0-0.688 0.056-1.343 0.17-1.963l-0.021-0.031c-0.135 0.02-0.286 0.031-0.452 0.031-0.081 0-0.198-0.011-0.356-0.031-0.062 0-0.091 0.011-0.091 0.031l-0.051 0.91z"/></g><g transform="translate(105.9381,4.4858)"><path d="m0 0v2.885c0 0.977-0.029 1.635-0.091 1.975l0.022 0.035c0.305 0.02 0.602 0.087 0.889 0.205 0.059 0 0.091-0.036 0.094-0.105-0.059-0.826-0.091-1.468-0.094-1.925v-3.07c0-0.914 0.032-1.597 0.094-2.05l-0.023-0.03c-0.124 0.018-0.285 0.03-0.482 0.03-0.196 0-0.355-0.012-0.478-0.03l-0.022 0.03c0.062 0.437 0.091 1.12 0.091 2.05"/></g><g transform="translate(108.6246,6.8315)"><path d="m0 0c0 0.21 7e-3 0.45 0.02 0.725 0.013 0.273 0.019 0.467 0.019 0.585l0.022 0.03c0.108 0.013 0.202 0.031 0.278 0.055 0.075 0.022 0.161 0.057 0.26 0.102 0.095 0.046 0.17 0.077 0.218 0.098 0.063 0 0.094-0.034 0.097-0.101-0.032-0.436-0.052-0.935-0.055-1.494h0.486c0.13 0 0.369 6e-3 0.715 0.019l0.049-0.069c-0.052-0.122-0.092-0.251-0.12-0.381-0.135 0.014-0.383 0.02-0.74 0.02h-0.39v-1.307c0-0.236-4e-3 -0.506-0.013-0.807-0.011-0.302-0.015-0.494-0.015-0.572 0-0.532 0.112-0.815 0.338-0.848 0.265-0.044 0.532-0.017 0.807 0.079l0.124-0.255c-0.398-0.253-0.791-0.378-1.186-0.374-0.246 0-0.452 0.085-0.622 0.256-0.168 0.17-0.253 0.413-0.253 0.727 0 0.078-6e-3 0.319-0.019 0.723-0.013 0.402-0.02 0.723-0.02 0.96v1.418c-0.32 0-0.563-6e-3 -0.729-0.02l-0.051 0.069c0.096 0.135 0.171 0.262 0.225 0.381 0.096-0.013 0.282-0.019 0.555-0.019"/></g><g transform="translate(114.9205,3.3764)"><path d="m0 0c-0.189-0.295-0.422-0.54-0.698-0.741-0.275-0.199-0.559-0.299-0.852-0.299-0.47 0-0.811 0.136-1.023 0.407-0.212 0.272-0.317 0.609-0.317 1.012v1.23c0 0.794-0.03 1.409-0.089 1.845l0.019 0.03c0.124-0.019 0.283-0.03 0.481-0.03 0.195 0 0.356 0.011 0.479 0.03l0.021-0.03c-0.061-0.409-0.091-1.025-0.091-1.845v-1.015c0-0.431 0.06-0.714 0.18-0.855 0.12-0.139 0.288-0.21 0.504-0.21 0.241 0 0.492 0.108 0.753 0.323 0.262 0.214 0.481 0.465 0.653 0.752v1.005c0 0.778-0.032 1.392-0.095 1.845l0.02 0.03c0.123-0.019 0.285-0.03 0.486-0.03 0.199 0 0.359 0.011 0.482 0.03l0.02-0.03c-0.059-0.409-0.09-1.025-0.094-1.845v-0.586c0-0.688 0.058-1.343 0.171-1.963l-0.02-0.031c-0.135 0.02-0.286 0.031-0.452 0.031-0.081 0-0.2-0.011-0.356-0.031-0.062 0-0.093 0.011-0.093 0.031l-0.049 0.91z"/></g><g transform="translate(118.4362,5.8559)"><path d="m0 0 0.03-0.021c0.24 0.411 0.45 0.696 0.631 0.856 0.18 0.16 0.403 0.24 0.669 0.24 0.084 0 0.207-0.024 0.371-0.07l0.039-0.04-0.204-0.761-0.08-0.019c-0.104 0.097-0.283 0.145-0.535 0.145-0.227 0-0.418-0.121-0.571-0.36-0.233-0.354-0.35-0.692-0.35-1.015v-0.53c0-0.763 0.03-1.378 0.09-1.845l-0.02-0.03c-0.123 0.019-0.283 0.03-0.479 0.03-0.197 0-0.358-0.011-0.48-0.03l-0.02 0.03c0.059 0.423 0.089 1.038 0.089 1.845v0.56c0 0.943-0.03 1.606-0.089 1.99l0.02 0.03c0.3-0.027 0.576-0.017 0.829 0.03 0.041 0 0.06-0.035 0.06-0.105z"/></g><g transform="translate(121.5631,5.271)"><path d="m0 0h1.891c0.095 0 0.143 0.045 0.143 0.136 0 0.331-0.09 0.593-0.271 0.786-0.183 0.191-0.38 0.288-0.594 0.288-0.077 0-0.164-0.018-0.262-0.052-0.095-0.034-0.209-0.093-0.335-0.174-0.127-0.082-0.244-0.208-0.351-0.38-0.107-0.171-0.181-0.374-0.221-0.604m2.672-1.771 0.183-0.254c-0.186-0.274-0.43-0.494-0.729-0.661-0.3-0.166-0.621-0.25-0.968-0.25-0.683 0-1.205 0.226-1.565 0.675-0.295 0.37-0.443 0.892-0.443 1.566 0 0.71 0.208 1.28 0.625 1.71 0.419 0.429 0.882 0.644 1.394 0.644 0.582 0 1.01-0.192 1.28-0.577 0.272-0.385 0.406-0.831 0.406-1.341 0-0.127-0.059-0.191-0.178-0.191h-2.706c0-0.608 0.082-1.04 0.246-1.3 0.246-0.391 0.62-0.585 1.116-0.585 0.563 0 1.008 0.188 1.339 0.564"/></g><g transform="translate(79.8834,11.6938)"><path d="m0 0c0.179 0 0.335 0.062 0.469 0.188 0.133 0.125 0.198 0.295 0.198 0.509 0 0.232-0.057 0.41-0.171 0.535-0.115 0.125-0.279 0.237-0.496 0.331-0.142 0.061-0.262 0.121-0.359 0.18-0.101 0.06-0.2 0.134-0.302 0.225-0.102 0.09-0.18 0.195-0.235 0.315-0.054 0.121-0.083 0.257-0.083 0.409 0 0.205 0.059 0.392 0.179 0.56 0.119 0.167 0.269 0.29 0.448 0.371 0.156 0.067 0.319 0.102 0.489 0.102 0.206 0 0.387-0.023 0.546-0.066 0.155-0.043 0.262-0.087 0.318-0.134l0.081-0.068 0.014-0.019c-0.08-0.25-0.128-0.45-0.146-0.597l-0.06-6e-3c-0.079 0.187-0.193 0.337-0.339 0.454-0.148 0.115-0.301 0.173-0.463 0.173-0.144 0-0.261-0.024-0.348-0.069-0.072-0.039-0.134-0.113-0.185-0.218-0.051-0.106-0.076-0.213-0.076-0.32 0-0.115 0.019-0.217 0.061-0.31s0.104-0.169 0.184-0.228 0.151-0.106 0.214-0.139c0.064-0.034 0.142-0.071 0.239-0.108 0.719-0.265 1.079-0.664 1.079-1.192 0-0.343-0.123-0.617-0.37-0.826-0.247-0.208-0.559-0.315-0.934-0.315-0.194 0-0.379 0.024-0.553 0.067-0.172 0.044-0.295 0.088-0.37 0.132l-0.112 0.071-0.011 0.016c0.076 0.295 0.121 0.501 0.134 0.617l0.056 5e-3c0.087-0.174 0.219-0.327 0.397-0.454s0.349-0.191 0.507-0.191"/></g><g transform="translate(81.775,14.0513)"><path d="m0 0c0 0.122 4e-3 0.264 0.011 0.424 8e-3 0.159 0.01 0.272 0.01 0.34l0.013 0.017c0.061 9e-3 0.112 0.018 0.154 0.032s0.09 0.033 0.146 0.061c0.053 0.025 0.094 0.044 0.122 0.056 0.033 0 0.052-0.02 0.054-0.058-0.019-0.255-0.03-0.546-0.031-0.872h0.27c0.072 0 0.206 5e-3 0.398 0.013l0.029-0.04c-0.03-0.074-0.052-0.148-0.068-0.224-0.075 9e-3 -0.212 0.013-0.412 0.013h-0.217v-0.763c0-0.137-2e-3 -0.294-7e-3 -0.471-6e-3 -0.174-9e-3 -0.286-9e-3 -0.331 0-0.31 0.062-0.475 0.188-0.496 0.148-0.024 0.296-0.01 0.45 0.046l0.069-0.147c-0.222-0.149-0.441-0.221-0.66-0.22-0.137 0-0.252 0.051-0.347 0.15s-0.142 0.241-0.142 0.425c0 0.045-2e-3 0.185-0.01 0.42-7e-3 0.236-0.011 0.423-0.011 0.56v0.827c-0.179 0-0.314-4e-3 -0.407-0.013l-0.028 0.04c0.054 0.079 0.097 0.153 0.124 0.224 0.056-8e-3 0.159-0.013 0.311-0.013"/></g><g transform="translate(84.8414,12.8335)"><path d="m0 0-0.482-0.136c-0.212-0.06-0.362-0.139-0.446-0.236s-0.127-0.218-0.127-0.362c0-0.095 0.04-0.18 0.118-0.254 0.079-0.074 0.18-0.111 0.307-0.111 0.153 0 0.327 0.078 0.526 0.234 0.052 0.039 0.081 0.09 0.081 0.154zm0-1.058h-0.023c-0.154-0.136-0.282-0.227-0.386-0.274-0.107-0.046-0.237-0.07-0.395-0.07-0.218 0-0.391 0.054-0.517 0.161-0.127 0.107-0.191 0.268-0.191 0.485 0 0.201 0.085 0.378 0.254 0.531s0.401 0.265 0.695 0.331l0.532 0.127c0.023 8e-3 0.036 0.031 0.036 0.07 0 0.13-0.014 0.241-0.04 0.335-0.027 0.094-0.059 0.164-0.093 0.21s-0.079 0.083-0.137 0.109c-0.056 0.027-0.104 0.042-0.142 0.048s-0.084 0.01-0.139 0.01c-0.218 0-0.426-0.171-0.626-0.509l-0.074 5e-3 -0.095 0.401 0.018 0.023c0.261 0.228 0.54 0.341 0.837 0.341 0.632 0 0.948-0.321 0.948-0.963 0-0.014-1e-3 -0.062-3e-3 -0.145-3e-3 -0.083-4e-3 -0.172-6e-3 -0.266s-4e-3 -0.19-6e-3 -0.288c-2e-3 -0.097-3e-3 -0.165-3e-3 -0.204 0-0.251 0.033-0.407 0.095-0.467 0.031-0.03 0.089-0.045 0.167-0.045 0.048 0 0.098 0.011 0.154 0.033l0.044-0.149c-0.11-0.122-0.262-0.184-0.453-0.184-0.109 0-0.205 0.029-0.284 0.088-0.079 0.058-0.137 0.143-0.167 0.256"/></g><g transform="translate(86.1959,14.0513)"><path d="m0 0c0 0.122 4e-3 0.264 0.012 0.424 7e-3 0.159 0.01 0.272 0.01 0.34l0.012 0.017c0.062 9e-3 0.113 0.018 0.155 0.032 0.043 0.014 0.091 0.033 0.144 0.061 0.056 0.025 0.096 0.044 0.123 0.056 0.034 0 0.053-0.02 0.055-0.058-0.02-0.255-0.03-0.546-0.032-0.872h0.271c0.072 0 0.204 5e-3 0.398 0.013l0.029-0.04c-0.031-0.074-0.053-0.148-0.068-0.224-0.076 9e-3 -0.213 0.013-0.412 0.013h-0.218v-0.763c0-0.137-1e-3 -0.294-7e-3 -0.471-5e-3 -0.174-9e-3 -0.286-9e-3 -0.331 0-0.31 0.063-0.475 0.189-0.496 0.146-0.024 0.296-0.01 0.449 0.046l0.07-0.147c-0.222-0.149-0.441-0.221-0.66-0.22-0.139 0-0.253 0.051-0.348 0.15-0.094 0.099-0.141 0.241-0.141 0.425 0 0.045-3e-3 0.185-0.01 0.42-8e-3 0.236-0.012 0.423-0.012 0.56v0.827c-0.178 0-0.313-4e-3 -0.405-0.013l-0.029 0.04c0.054 0.079 0.094 0.153 0.124 0.224 0.054-8e-3 0.159-0.013 0.31-0.013"/></g><g transform="translate(88.0954,13.1421)"><path d="m0 0h1.052c0.055 0 0.082 0.026 0.082 0.079 0 0.193-0.051 0.347-0.152 0.458-0.102 0.112-0.211 0.169-0.332 0.169-0.042 0-0.09-0.011-0.145-0.03-0.053-0.021-0.115-0.055-0.187-0.102-0.071-0.047-0.135-0.121-0.195-0.22-0.06-0.102-0.101-0.218-0.123-0.354m1.488-1.03 0.103-0.15c-0.104-0.16-0.239-0.288-0.406-0.384-0.167-0.098-0.347-0.147-0.539-0.147-0.381 0-0.671 0.132-0.872 0.395-0.166 0.215-0.247 0.518-0.247 0.912 0 0.414 0.117 0.746 0.348 0.997 0.233 0.25 0.491 0.375 0.775 0.375 0.327 0 0.563-0.113 0.714-0.337 0.152-0.224 0.227-0.485 0.227-0.78 0-0.076-0.032-0.113-0.1-0.113h-1.508c0-0.353 0.046-0.607 0.137-0.758 0.138-0.227 0.345-0.34 0.623-0.34 0.313 0 0.562 0.109 0.745 0.33"/></g><g transform="translate(92.3151,11.98)"><path d="m0 0c0-0.1 0.036-0.163 0.108-0.194 0.074-0.031 0.245-0.045 0.514-0.045 0.222 0 0.412 0.02 0.574 0.06s0.314 0.109 0.455 0.208c0.143 0.099 0.249 0.246 0.324 0.445 0.075 0.196 0.112 0.441 0.112 0.732 0 0.248-0.026 0.476-0.081 0.69-0.055 0.211-0.141 0.414-0.258 0.604-0.118 0.19-0.285 0.341-0.5 0.451-0.214 0.109-0.471 0.164-0.768 0.164-0.16 0-0.281-0.016-0.361-0.047-0.079-0.033-0.119-0.097-0.119-0.192zm-0.229 3.36c0.121 0 0.275 3e-3 0.463 9e-3 0.189 5e-3 0.342 8e-3 0.463 8e-3 0.548 0 1.016-0.198 1.401-0.596 0.384-0.397 0.577-0.874 0.577-1.432 0-0.282-0.04-0.534-0.12-0.755-0.079-0.221-0.182-0.398-0.307-0.532-0.124-0.132-0.27-0.244-0.441-0.331-0.168-0.086-0.335-0.147-0.498-0.182-0.164-0.033-0.333-0.05-0.508-0.05-0.211 0-0.405 1e-3 -0.584 5e-3s-0.329 6e-3 -0.446 6e-3l-0.278-0.017-6e-3 0.017c0.037 0.27 0.057 0.669 0.057 1.195v1.46c0 0.513-0.02 0.911-0.057 1.195l0.011 0.017c0.062-0.011 0.151-0.017 0.273-0.017"/></g><g transform="translate(95.9362,13.1421)"><path d="m0 0h1.053c0.052 0 0.081 0.026 0.081 0.079 0 0.193-0.051 0.347-0.154 0.458-0.1 0.112-0.21 0.169-0.331 0.169-0.043 0-0.09-0.011-0.144-0.03-0.055-0.021-0.117-0.055-0.189-0.102-0.069-0.047-0.134-0.121-0.194-0.22-0.06-0.102-0.101-0.218-0.122-0.354m1.487-1.03 0.104-0.15c-0.106-0.16-0.24-0.288-0.407-0.384-0.168-0.098-0.347-0.147-0.539-0.147-0.382 0-0.672 0.132-0.873 0.395-0.165 0.215-0.247 0.518-0.247 0.912 0 0.414 0.117 0.746 0.349 0.997 0.232 0.25 0.491 0.375 0.775 0.375 0.326 0 0.564-0.113 0.714-0.337 0.152-0.224 0.228-0.485 0.228-0.78 0-0.076-0.034-0.113-0.102-0.113h-1.507c0-0.353 0.045-0.607 0.136-0.758 0.14-0.227 0.347-0.34 0.623-0.34 0.315 0 0.563 0.109 0.746 0.33"/></g><g transform="translate(98.608,13.2602)"><path d="m0 0v-1.297c0.144-0.178 0.32-0.267 0.528-0.269 0.146 0 0.27 0.034 0.372 0.101 0.104 0.068 0.181 0.159 0.232 0.277 0.051 0.117 0.087 0.235 0.107 0.356 0.021 0.12 0.03 0.247 0.03 0.381 0 0.691-0.196 1.037-0.584 1.039-0.115 0-0.242-0.061-0.381-0.179-0.142-0.118-0.243-0.256-0.304-0.409m0 0.344 0.01-0.017c0.225 0.349 0.481 0.523 0.767 0.523 0.292 0 0.523-0.121 0.694-0.363 0.171-0.24 0.256-0.527 0.256-0.861 0-0.431-0.104-0.781-0.314-1.05-0.209-0.269-0.491-0.405-0.849-0.405-0.221 0-0.41 0.049-0.564 0.146v-0.267c0-0.518 0.016-1.074 0.049-1.36l-0.011-0.017c-0.068 0.012-0.158 0.017-0.268 0.017-0.111 0-0.201-5e-3 -0.268-0.017l-9e-3 0.017c0.032 0.267 0.05 0.82 0.05 1.348v1.594c0 0.55-0.018 0.935-0.05 1.159l9e-3 0.018c0.169-0.013 0.321-8e-3 0.461 0.018 0.021 0 0.034-0.02 0.037-0.06z"/></g><g transform="translate(102.2731,12.8335)"><path d="m0 0-0.482-0.136c-0.212-0.06-0.361-0.139-0.446-0.236-0.084-0.097-0.126-0.218-0.126-0.362 0-0.095 0.039-0.18 0.117-0.254 0.079-0.074 0.182-0.111 0.308-0.111 0.153 0 0.328 0.078 0.525 0.234 0.055 0.039 0.081 0.09 0.081 0.154zm0-1.058h-0.023c-0.153-0.136-0.282-0.227-0.386-0.274-0.106-0.046-0.237-0.07-0.393-0.07-0.219 0-0.393 0.054-0.519 0.161s-0.19 0.268-0.19 0.485c0 0.201 0.084 0.378 0.255 0.531 0.168 0.153 0.4 0.265 0.693 0.331l0.533 0.127c0.023 8e-3 0.036 0.031 0.036 0.07 0 0.13-0.015 0.241-0.041 0.335-0.028 0.094-0.058 0.164-0.092 0.21-0.035 0.046-0.079 0.083-0.138 0.109-0.055 0.027-0.104 0.042-0.141 0.048-0.039 6e-3 -0.085 0.01-0.138 0.01-0.219 0-0.428-0.171-0.627-0.509l-0.075 5e-3 -0.094 0.401 0.017 0.023c0.261 0.228 0.54 0.341 0.837 0.341 0.632 0 0.948-0.321 0.948-0.963 0-0.014-1e-3 -0.062-2e-3 -0.145-2e-3 -0.083-4e-3 -0.172-5e-3 -0.266-2e-3 -0.094-6e-3 -0.19-8e-3 -0.288-1e-3 -0.097-2e-3 -0.165-2e-3 -0.204 0-0.251 0.032-0.407 0.096-0.467 0.029-0.03 0.087-0.045 0.167-0.045 0.047 0 0.097 0.011 0.153 0.033l0.044-0.149c-0.111-0.122-0.262-0.184-0.453-0.184-0.109 0-0.204 0.029-0.285 0.088-0.079 0.058-0.136 0.143-0.167 0.256"/></g><g transform="translate(104.1149,13.4839)"><path d="m0 0 0.018-0.013c0.132 0.24 0.251 0.406 0.35 0.498 0.101 0.095 0.225 0.141 0.373 0.141 0.046 0 0.115-0.014 0.207-0.041l0.023-0.023-0.115-0.443-0.044-0.012c-0.06 0.057-0.158 0.084-0.298 0.084-0.128 0-0.233-0.069-0.319-0.21-0.13-0.206-0.195-0.402-0.195-0.59v-0.309c0-0.445 0.018-0.804 0.051-1.075l-0.012-0.019c-0.068 0.013-0.157 0.019-0.268 0.019-0.109 0-0.199-6e-3 -0.266-0.019l-0.012 0.019c0.034 0.246 0.049 0.604 0.049 1.075v0.326c0 0.55-0.015 0.936-0.049 1.159l0.012 0.018c0.167-0.016 0.32-9e-3 0.462 0.018 0.022 0 0.033-0.021 0.033-0.061z"/></g><g transform="translate(105.7838,14.0513)"><path d="m0 0c0 0.122 3e-3 0.264 0.011 0.424 7e-3 0.159 0.01 0.272 0.01 0.34l0.012 0.017c0.062 9e-3 0.113 0.018 0.155 0.032 0.041 0.014 0.09 0.033 0.143 0.061 0.056 0.025 0.097 0.044 0.124 0.056 0.033 0 0.052-0.02 0.054-0.058-0.019-0.255-0.029-0.546-0.03-0.872h0.27c0.072 0 0.204 5e-3 0.397 0.013l0.029-0.04c-0.03-0.074-0.053-0.148-0.067-0.224-0.076 9e-3 -0.213 0.013-0.412 0.013h-0.217v-0.763c0-0.137-3e-3 -0.294-8e-3 -0.471-5e-3 -0.174-8e-3 -0.286-8e-3 -0.331 0-0.31 0.062-0.475 0.187-0.496 0.148-0.024 0.297-0.01 0.45 0.046l0.07-0.147c-0.222-0.149-0.441-0.221-0.661-0.22-0.138 0-0.252 0.051-0.347 0.15-0.094 0.099-0.141 0.241-0.141 0.425 0 0.045-3e-3 0.185-0.01 0.42-8e-3 0.236-0.011 0.423-0.011 0.56v0.827c-0.179 0-0.314-4e-3 -0.408-0.013l-0.029 0.04c0.056 0.079 0.097 0.153 0.127 0.224 0.054-8e-3 0.158-0.013 0.31-0.013"/></g><g transform="translate(107.9596,13.5913)"><path d="m0 0 0.016-0.018c0.323 0.358 0.643 0.537 0.959 0.537 0.161 0 0.296-0.043 0.407-0.129 0.111-0.085 0.179-0.2 0.205-0.343 0.286 0.315 0.605 0.472 0.962 0.472 0.282 0 0.471-0.082 0.566-0.243 0.094-0.161 0.141-0.396 0.141-0.708v-0.594c0-0.462 0.017-0.82 0.053-1.076l-0.013-0.016c-0.069 0.011-0.159 0.016-0.269 0.016-0.108 0-0.198-5e-3 -0.266-0.016l-0.011 0.016c0.033 0.244 0.05 0.603 0.05 1.076v0.655c0 0.195-0.037 0.333-0.109 0.412s-0.188 0.119-0.347 0.119c-0.279 0-0.519-0.119-0.723-0.358 4e-3 -0.049 6e-3 -0.125 6e-3 -0.227v-0.601c0-0.462 0.017-0.82 0.052-1.076l-0.01-0.016c-0.069 0.011-0.161 0.016-0.273 0.016-0.113 0-0.205-5e-3 -0.274-0.016l-0.011 0.016c0.034 0.244 0.052 0.603 0.053 1.076v0.655c0 0.353-0.127 0.531-0.378 0.531-0.103 0-0.226-0.042-0.371-0.128-0.145-0.085-0.284-0.198-0.415-0.339v-0.719c0-0.462 0.016-0.82 0.049-1.076l-0.011-0.016c-0.068 0.011-0.159 0.016-0.269 0.016s-0.199-5e-3 -0.266-0.016l-0.011 0.016c0.033 0.244 0.051 0.603 0.051 1.076v0.327c0 0.55-0.018 0.936-0.051 1.159l0.011 0.018c0.168-0.016 0.32-0.01 0.46 0.018 0.021 0 0.034-0.021 0.037-0.062z"/></g><g transform="translate(112.2194,13.1421)"><path d="m0 0h1.054c0.053 0 0.081 0.026 0.081 0.079 0 0.193-0.052 0.347-0.153 0.458-0.102 0.112-0.211 0.169-0.331 0.169-0.044 0-0.091-0.011-0.145-0.03-0.054-0.021-0.116-0.055-0.188-0.102-0.071-0.047-0.134-0.121-0.195-0.22-0.06-0.102-0.101-0.218-0.123-0.354m1.488-1.03 0.103-0.15c-0.105-0.16-0.238-0.288-0.406-0.384-0.167-0.098-0.347-0.147-0.539-0.147-0.381 0-0.672 0.132-0.872 0.395-0.165 0.215-0.247 0.518-0.247 0.912 0 0.414 0.116 0.746 0.347 0.997 0.234 0.25 0.492 0.375 0.777 0.375 0.326 0 0.562-0.113 0.713-0.337 0.152-0.224 0.227-0.485 0.227-0.78 0-0.076-0.032-0.113-0.099-0.113h-1.508c0-0.353 0.045-0.607 0.136-0.758 0.139-0.227 0.346-0.34 0.623-0.34 0.314 0 0.562 0.109 0.745 0.33"/></g><g transform="translate(116.5885,12.5649)"><path d="m0 0c0-0.453 0.018-0.811 0.053-1.075l-0.014-0.018c-0.069 0.012-0.157 0.018-0.267 0.018-0.111 0-0.199-6e-3 -0.267-0.018l-0.013 0.018c0.033 0.267 0.051 0.625 0.051 1.075v0.583c0 0.235-0.03 0.396-0.091 0.479-0.06 0.084-0.166 0.125-0.319 0.125-0.117 0-0.251-0.041-0.401-0.12-0.15-0.08-0.292-0.203-0.426-0.37v-0.697c0-0.462 0.017-0.819 0.05-1.075l-0.011-0.018c-0.069 0.012-0.158 0.018-0.268 0.018-0.109 0-0.198-6e-3 -0.268-0.018l-0.01 0.018c0.033 0.243 0.05 0.602 0.05 1.075v0.327c0 0.55-0.017 0.937-0.05 1.159l0.01 0.018c0.169-0.016 0.322-0.01 0.463 0.018 0.023 0 0.034-0.021 0.034-0.062v-0.434l0.011-0.016c0.293 0.356 0.623 0.534 0.986 0.534 0.251 0 0.431-0.076 0.542-0.232 0.11-0.156 0.166-0.393 0.166-0.71 0-0.065-2e-3 -0.165-6e-3 -0.3-5e-3 -0.137-5e-3 -0.238-5e-3 -0.302"/></g><g transform="translate(117.4342,14.0513)"><path d="m0 0c0 0.122 5e-3 0.264 0.012 0.424 9e-3 0.159 0.01 0.272 0.01 0.34l0.014 0.017c0.062 9e-3 0.111 0.018 0.154 0.032 0.042 0.014 0.09 0.033 0.144 0.061 0.055 0.025 0.096 0.044 0.123 0.056 0.034 0 0.052-0.02 0.054-0.058-0.019-0.255-0.029-0.546-0.03-0.872h0.269c0.074 0 0.205 5e-3 0.4 0.013l0.028-0.04c-0.031-0.074-0.053-0.148-0.069-0.224-0.075 9e-3 -0.213 0.013-0.411 0.013h-0.217v-0.763c0-0.137-3e-3 -0.294-8e-3 -0.471-6e-3 -0.174-9e-3 -0.286-9e-3 -0.331 0-0.31 0.064-0.475 0.189-0.496 0.147-0.024 0.297-0.01 0.448 0.046l0.071-0.147c-0.222-0.149-0.442-0.221-0.661-0.22-0.137 0-0.252 0.051-0.347 0.15-0.093 0.099-0.142 0.241-0.142 0.425 0 0.045-1e-3 0.185-0.01 0.42-7e-3 0.236-0.012 0.423-0.012 0.56v0.827c-0.177 0-0.312-4e-3 -0.406-0.013l-0.027 0.04c0.053 0.079 0.095 0.153 0.124 0.224 0.055-8e-3 0.159-0.013 0.309-0.013"/></g><g transform="translate(121.4538,13.8481)"><path d="m0 0c-0.167 0-0.307-0.053-0.415-0.159-0.109-0.106-0.182-0.233-0.22-0.38-0.038-0.148-0.058-0.317-0.058-0.505 0-0.177 0.02-0.344 0.058-0.502 0.038-0.157 0.117-0.304 0.239-0.435 0.122-0.133 0.277-0.199 0.464-0.199 0.189 0 0.347 0.092 0.471 0.278 0.123 0.185 0.187 0.419 0.187 0.702 0 0.398-0.051 0.697-0.15 0.899-0.102 0.199-0.294 0.301-0.576 0.301m-1.149-1.146c0 0.426 0.108 0.767 0.322 1.023 0.218 0.257 0.506 0.385 0.867 0.385 0.367 0 0.647-0.121 0.846-0.366 0.199-0.242 0.297-0.572 0.297-0.989 0-0.395-0.105-0.714-0.313-0.958-0.209-0.243-0.493-0.366-0.853-0.366-0.358 0-0.641 0.121-0.851 0.362-0.21 0.24-0.315 0.544-0.315 0.909"/></g><g transform="translate(123.3424,14.0513)"><path d="m0 0v0.231c0 0.333 0.104 0.638 0.312 0.915 0.107 0.144 0.244 0.256 0.414 0.338 0.17 0.081 0.345 0.122 0.522 0.122 0.111 0 0.196-0.021 0.256-0.062l7e-3 -0.017c-0.058-0.118-0.111-0.281-0.159-0.489l-0.063-7e-3c-0.07 0.14-0.182 0.21-0.331 0.21-0.163 0-0.292-0.051-0.388-0.153s-0.144-0.235-0.144-0.402c0-0.029 5e-3 -0.121 0.016-0.278 0.01-0.158 0.015-0.274 0.015-0.354v-0.054h0.245c0.106 0 0.239 5e-3 0.399 0.013l0.028-0.044c-0.03-0.078-0.053-0.159-0.067-0.242-0.076 7e-3 -0.214 0.011-0.416 0.011h-0.189v-1.109c0-0.525 0.019-0.922 0.056-1.19l-0.01-0.018c-0.071 0.012-0.162 0.018-0.277 0.018-0.112 0-0.205-6e-3 -0.273-0.018l-0.012 0.018c0.038 0.25 0.057 0.648 0.059 1.19v1.109h-5e-3c-0.176 0-0.317-4e-3 -0.423-0.011l-0.028 0.043c0.053 0.086 0.094 0.168 0.124 0.243 0.058-8e-3 0.168-0.013 0.332-0.013"/></g></g></g></svg>
