<?xml version="1.0" encoding="UTF-8"?>
<svg version="1.1" viewBox="0 0 171.2533 48.4944" xml:space="preserve" xmlns="http://www.w3.org/2000/svg" xmlns:cc="http://creativecommons.org/ns#" xmlns:dc="http://purl.org/dc/elements/1.1/" xmlns:rdf="http://www.w3.org/1999/02/22-rdf-syntax-ns#"><metadata><rdf:RDF><cc:Work rdf:about=""><dc:format>image/svg+xml</dc:format><dc:type rdf:resource="http://purl.org/dc/dcmitype/StillImage"/><dc:title/></cc:Work></rdf:RDF></metadata><defs><clipPath id="a"><path d="M 0,36.371 H 128.44 V 0 H 0 Z"/></clipPath></defs><g transform="matrix(1.333333 0 0 -1.333333 0 48.4944)"><g clip-path="url(#a)"><g transform="translate(36.7933,17.5168)"><path d="m0 0c-0.27-4.546-2.021-8.692-4.987-11.767-2.56 1.872-4.448 4.413-5.525 7.488-0.405 1.07 0.134 2.274 1.213 2.808 2.83 1.471 6.064 1.872 9.299 1.471" fill="#6e767d"/></g><g transform="translate(23.3162,10.2956)"><path d="m0 0c2.965-1.069 5.66-2.941 7.547-5.482-3.1-2.942-7.278-4.68-11.86-4.814-0.404 3.076 0 6.285 1.482 9.093 0.539 1.07 1.752 1.471 2.831 1.203" fill="#0a82a0"/></g><g transform="translate(4.9866,30.4875)"><path d="m0 0c2.426-1.872 4.447-4.413 5.391-7.488 0.404-1.07-0.135-2.274-1.213-2.808-2.83-1.338-6.065-1.872-9.165-1.471 0.27 4.546 2.022 8.691 4.987 11.767" fill="#00bce8"/></g><g transform="translate(17.6551,36.3708)"><path d="m0 0c0.405-3.076 0-6.285-1.482-9.093-0.539-1.069-1.752-1.604-2.83-1.203-3.1 0.936-5.661 2.942-7.548 5.348 3.235 2.943 7.278 4.681 11.86 4.948" fill="#bbce00"/></g><g transform="translate(31.8064,30.6208)"><path d="m0 0c2.965-3.209 4.717-7.221 4.987-11.767-3.235-0.535-6.335 0-9.299 1.337-1.079 0.535-1.618 1.739-1.213 2.942 1.077 2.942 2.964 5.616 5.525 7.488" fill="#ea5f14"/></g><g transform="translate(19.0032,36.3708)"><path d="m0 0c4.582-0.134 8.76-2.005 11.86-4.948-1.887-2.406-4.582-4.412-7.547-5.348-1.079-0.401-2.292 0.134-2.831 1.07-1.482 2.941-1.887 6.15-1.482 9.226" fill="#e2a700"/></g><g transform="translate(10.3777,13.1042)"><path d="m0 0c-1.078-2.941-2.965-5.482-5.391-7.354-2.965 3.075-4.717 7.22-4.987 11.767 3.1 0.4 6.335-0.134 9.165-1.472 1.078-0.534 1.617-1.738 1.213-2.941" fill="#9b0059"/></g><g transform="translate(16.3074,8.9587)"><path d="m0 0c1.348-2.808 1.752-6.017 1.348-8.959-4.582 0.134-8.626 2.006-11.86 4.813 1.887 2.408 4.448 4.414 7.412 5.35 1.213 0.4 2.561-0.134 3.1-1.204" fill="#5e3411"/></g><g transform="translate(54.4476,15.2439)"><path d="m0 0v8.023h2.156c0.674-1e-3 1.351-0.268 1.888-0.535 0.405-0.268 0.946-0.669 1.214-1.204 0.269-0.668 0.405-1.203 0.405-2.005v-0.669c0-0.669-0.136-1.337-0.405-1.872-0.268-0.535-0.673-0.936-1.214-1.338-0.537-0.266-1.214-0.4-1.888-0.4zm0.673 7.354v-6.819h1.483c0.81 0 1.483 0.267 2.024 0.802 0.537 0.669 0.81 1.337 0.81 2.273v0.803c0 0.802-0.273 1.604-0.81 2.139-0.405 0.535-1.077 0.802-1.888 0.802z"/></g><g transform="translate(63.8816,15.1101)"><path d="m0 0c-0.537 0-0.942 0.134-1.347 0.401-0.404 0.268-0.809 0.535-0.941 1.07-0.273 0.401-0.405 0.936-0.405 1.471v0.267c0 0.535 0.132 1.07 0.405 1.471 0.132 0.401 0.4 0.802 0.805 1.07 0.405 0.267 0.946 0.401 1.351 0.401 0.673 0 1.346-0.268 1.751-0.669 0.405-0.535 0.673-1.203 0.673-2.139v-0.268h-4.312v-0.133c0-0.669 0.132-1.204 0.537-1.739 0.405-0.401 0.946-0.669 1.483-0.669 0.405 0 0.673 0.135 0.946 0.268 0.268 0.134 0.537 0.267 0.673 0.535l0.537-0.268c-0.537-0.668-1.21-1.069-2.156-1.069m-0.132 5.616c-0.541 0-0.946-0.134-1.215-0.535-0.404-0.401-0.541-0.936-0.673-1.471h3.639c-0.136 0.669-0.268 1.07-0.541 1.471-0.268 0.401-0.673 0.535-1.21 0.535"/></g><g transform="translate(72.1053,18.1853)"><path d="m0 0c0-0.936-0.272-1.738-0.673-2.273-0.405-0.535-0.946-0.802-1.619-0.802-0.81 0-1.483 0.267-1.888 0.802v-2.942h-0.674v8.157h0.674v-0.802c0.405 0.668 1.078 0.936 1.888 0.936 0.673 0 1.214-0.268 1.619-0.803 0.401-0.534 0.673-1.337 0.673-2.273m-0.673 0c0 0.803-0.137 1.471-0.541 1.872-0.268 0.401-0.674 0.669-1.215 0.669-0.405 0-0.805-0.134-1.078-0.268-0.268-0.267-0.537-0.534-0.673-0.936v-2.808c0.136-0.267 0.405-0.535 0.673-0.802 0.273-0.133 0.673-0.268 1.078-0.268 0.541 0 0.947 0.268 1.215 0.669 0.404 0.401 0.541 1.07 0.541 1.872"/></g><g transform="translate(77.2273,15.2439)"><path d="m0 0c-0.137 0.134-0.137 0.4-0.137 0.802-0.268-0.267-0.541-0.534-0.941-0.668-0.274-0.134-0.678-0.268-1.078-0.268-0.541 0-1.078 0.134-1.351 0.534-0.405 0.268-0.537 0.669-0.537 1.204 0 0.536 0.132 0.937 0.673 1.337 0.537 0.268 1.215 0.536 2.019 0.536h1.215v0.668c0 0.401-0.136 0.668-0.404 0.936-0.269 0.267-0.674 0.401-1.215 0.401-0.4 0-0.805-0.134-1.078-0.401-0.269-0.134-0.4-0.535-0.4-0.802h-0.678c0 0.534 0.137 0.936 0.678 1.203 0.4 0.401 0.941 0.535 1.615 0.535 0.673 0 1.078-0.134 1.482-0.535 0.406-0.267 0.673-0.802 0.673-1.337v-2.808c0-0.535 0-0.937 0.137-1.337zm-2.156 0.4c0.537 0 0.941 0.135 1.21 0.402 0.405 0.134 0.673 0.535 0.809 0.802v1.337h-1.215c-0.672 0-1.209-0.133-1.482-0.4-0.4-0.268-0.673-0.535-0.673-0.937 0-0.267 0.136-0.535 0.404-0.802 0.269-0.267 0.542-0.402 0.947-0.402"/></g><g transform="translate(82.076,20.592)"><path d="m0 0h-0.405c-0.4 0-0.805-0.133-1.077-0.267-0.269-0.268-0.406-0.535-0.538-1.07v-4.011h-0.672v5.883h0.672v-0.936c0.269 0.669 0.942 1.07 1.615 1.07h0.542z"/></g><g transform="translate(84.3689,22.7317)"><path d="m0 0v-1.604h1.214v-0.536h-1.214v-3.877c0-0.401 0-0.669 0.136-0.803 0.132-0.133 0.405-0.267 0.674-0.267 0.131 0 0.267 0 0.536 0.134v-0.535c-0.132-0.134-0.405-0.134-0.673-0.134-0.537 0-0.81 0.134-1.078 0.402-0.137 0.267-0.269 0.668-0.269 1.203v3.877h-1.078v0.536h1.078v1.604z"/></g><g transform="translate(87.4666,21.1272)"><path d="m0 0v-0.936c0.272 0.401 0.541 0.668 0.81 0.802 0.404 0.134 0.672 0.268 1.077 0.268 0.946 0 1.62-0.402 1.887-1.204 0.137 0.402 0.406 0.669 0.811 0.936 0.404 0.134 0.81 0.268 1.214 0.268 1.21 0 1.883-0.669 1.883-2.14v-3.877h-0.673v3.877c0 0.535 0 0.936-0.269 1.204-0.267 0.267-0.673 0.401-1.078 0.401-0.541 0-0.941-0.134-1.214-0.535-0.405-0.267-0.537-0.668-0.537-1.07v-3.877h-0.673v3.877c0 0.535-0.136 0.936-0.405 1.204-0.272 0.267-0.541 0.401-1.078 0.401-0.404 0-0.81-0.134-1.077-0.401-0.274-0.268-0.542-0.535-0.678-1.07v-4.011h-0.674v5.883z"/></g><g transform="translate(99.0603,15.1101)"><path d="m0 0c-0.541 0-0.946 0.134-1.351 0.401-0.405 0.268-0.805 0.535-0.941 1.07-0.269 0.401-0.405 0.936-0.405 1.471v0.267c0 0.535 0.136 1.07 0.405 1.471 0.136 0.401 0.536 0.802 0.941 1.07 0.405 0.267 0.81 0.401 1.214 0.401 0.811 0 1.347-0.268 1.752-0.669 0.405-0.535 0.673-1.203 0.673-2.139v-0.268h-4.312v-0.133c0-0.669 0.268-1.204 0.542-1.739 0.404-0.401 0.941-0.669 1.482-0.669 0.405 0 0.674 0.135 0.941 0.268 0.269 0.134 0.542 0.267 0.81 0.535l0.405-0.268c-0.541-0.668-1.215-1.069-2.156-1.069m-0.137 5.616c-0.541 0-0.941-0.134-1.214-0.535-0.405-0.401-0.537-0.936-0.673-1.471h3.639c0 0.669-0.268 1.07-0.537 1.471-0.272 0.401-0.673 0.535-1.215 0.535"/></g><g transform="translate(103.1043,21.1272)"><path d="m0 0v-0.936c0.269 0.268 0.537 0.535 0.805 0.802 0.405 0.134 0.809 0.268 1.215 0.268 0.537 0 1.078-0.134 1.346-0.535 0.405-0.401 0.541-0.936 0.541-1.605v-3.877h-0.673v3.877c0 0.535-0.136 0.936-0.405 1.204-0.137 0.267-0.541 0.401-1.078 0.401-0.404 0-0.673-0.134-1.078-0.401-0.273-0.268-0.541-0.669-0.673-1.07v-4.011h-0.678v5.883z"/></g><g transform="translate(109.5721,22.7317)"><path d="m0 0v-1.604h1.21v-0.536h-1.21v-3.877c0-0.401 0.132-0.669 0.269-0.803 0-0.133 0.268-0.267 0.541-0.267 0.131 0 0.268 0 0.537 0.134v-0.535c-0.137-0.134-0.405-0.134-0.673-0.134-0.405 0-0.81 0.134-0.946 0.402-0.269 0.267-0.401 0.668-0.401 1.203v3.877h-1.078v0.536h1.078v1.604z"/></g><g transform="translate(114.4217,18.3191)"><path d="m0 0c0 0.535 0 1.07 0.272 1.471 0.269 0.535 0.538 0.802 0.942 1.07 0.405 0.267 0.809 0.401 1.347 0.401 0.809 0 1.482-0.268 2.024-0.802 0.404-0.535 0.673-1.338 0.673-2.274v-0.133c0-0.535-0.137-1.07-0.269-1.471-0.272-0.535-0.541-0.802-0.946-1.07-0.404-0.267-0.941-0.401-1.482-0.401-0.673 0-1.347 0.268-1.883 0.802-0.542 0.535-0.678 1.338-0.678 2.273zm0.541-0.267c0-0.669 0.269-1.204 0.673-1.739 0.268-0.401 0.809-0.669 1.347-0.669 0.672 0 1.078 0.268 1.482 0.669 0.405 0.535 0.542 1.07 0.542 1.872v0.134c0 0.401 0 0.802-0.269 1.204-0.136 0.401-0.405 0.668-0.677 0.936-0.269 0.133-0.674 0.267-1.078 0.267-0.538 0-1.079-0.267-1.347-0.669-0.404-0.534-0.673-1.069-0.673-1.872z"/></g><g transform="translate(121.4305,15.2439)"><path d="m0 0v5.348h-0.941v0.535h0.941v0.803c0 0.534 0.137 1.069 0.405 1.336 0.405 0.269 0.81 0.536 1.346 0.536 0.273 0 0.542-0.134 0.674-0.134v-0.535h-0.674c-0.268 0-0.536 0-0.805-0.267-0.136-0.268-0.272-0.535-0.272-0.936v-0.803h1.35v-0.535h-1.35v-5.348z"/></g><g transform="translate(43.532,28.8826)"><path d="m0 0 0.27-1.203 0.269 1.069 1.753 5.884h0.673l1.619-5.884 0.405-1.069 0.268 1.203 1.347 5.75h0.809l-2.156-7.889h-0.673l-1.756 6.151-0.268 0.802-0.132-0.802-1.889-6.151h-0.674l-2.022 7.889h0.675z"/></g><g transform="translate(55.6624,26.7434)"><path d="m0 0c-0.137 0.133-0.137 0.401-0.137 0.802-0.268-0.267-0.536-0.535-0.941-0.669-0.269-0.133-0.673-0.267-1.078-0.267-0.542 0-1.078 0.134-1.483 0.535-0.269 0.267-0.405 0.668-0.405 1.203 0 0.536 0.136 0.937 0.673 1.337 0.405 0.268 1.079 0.536 2.024 0.536h1.21v0.668c0 0.401-0.132 0.668-0.405 0.936-0.268 0.268-0.673 0.401-1.209 0.401-0.405 0-0.81-0.133-1.079-0.401-0.273-0.268-0.541-0.535-0.541-0.802h-0.537c0 0.401 0.133 0.802 0.537 1.203 0.541 0.401 1.079 0.535 1.751 0.535 0.674 0 1.078-0.134 1.483-0.535 0.405-0.267 0.674-0.802 0.674-1.337v-2.808c0-0.535 0-1.07 0.136-1.337zm-2.156 0.401c0.536 0 0.941 0.134 1.21 0.401 0.404 0.134 0.677 0.401 0.809 0.802v1.337h-1.21c-0.677 0-1.214-0.133-1.483-0.4-0.404-0.268-0.672-0.536-0.672-0.937s0.131-0.668 0.399-0.802c0.273-0.267 0.542-0.401 0.947-0.401"/></g><g transform="translate(61.4573,28.2141)"><path d="m0 0c0 0.268-0.137 0.535-0.405 0.802-0.268 0.134-0.673 0.402-1.078 0.402-0.537 0.133-0.942 0.267-1.347 0.401-0.273 0.133-0.404 0.401-0.541 0.535-0.268 0.267-0.268 0.534-0.268 0.802 0 0.401 0.137 0.802 0.536 1.07 0.405 0.401 0.947 0.534 1.62 0.534 0.541 0 1.078-0.133 1.483-0.534 0.405-0.268 0.673-0.669 0.673-1.204h-0.673c0 0.268-0.137 0.535-0.405 0.802-0.268 0.268-0.673 0.402-1.078 0.402-0.537 0-0.809-0.134-1.078-0.268-0.269-0.267-0.405-0.535-0.405-0.802 0-0.268 0.136-0.535 0.268-0.669 0.273-0.133 0.678-0.401 1.215-0.535 0.541-0.133 1.078-0.267 1.346-0.401 0.273-0.133 0.542-0.267 0.674-0.535 0.136-0.133 0.136-0.401 0.136-0.802s-0.136-0.802-0.537-1.204c-0.405-0.267-0.946-0.4-1.619-0.4s-1.347 0.133-1.751 0.535c-0.405 0.267-0.673 0.668-0.673 1.203h0.673c0.131-0.402 0.268-0.669 0.536-0.936 0.273-0.134 0.678-0.267 1.215-0.267 0.405 0 0.81 0.133 1.078 0.267 0.268 0.267 0.405 0.534 0.405 0.802"/></g><g transform="translate(64.2864,31.6907)"><path d="m0 0c0.268 0.268 0.541 0.535 0.81 0.803 0.404 0.133 0.673 0.267 1.077 0.267 0.674 0 1.215-0.134 1.484-0.535 0.268-0.401 0.536-0.936 0.536-1.605v-3.877h-0.673v3.877c0 0.535-0.132 0.936-0.404 1.204-0.132 0.267-0.538 0.401-1.079 0.401-0.405 0-0.673-0.134-1.078-0.401-0.268-0.268-0.537-0.669-0.673-1.07v-4.011h-0.673v8.424h0.673z"/></g><g transform="translate(69.8133,34.3655)"><path d="m0 0c0 0.133 0 0.267 0.136 0.267 0 0.134 0.132 0.134 0.268 0.134 0.137 0 0.269 0 0.406-0.134 0 0 0.131-0.134 0.131-0.267 0-0.134-0.131-0.268-0.131-0.268-0.137-0.133-0.269-0.133-0.406-0.133-0.136 0-0.268 0-0.268 0.133-0.136 0-0.136 0.134-0.136 0.268m0.81-7.622h-0.674v5.883h0.674z"/></g><g transform="translate(73.0467,32.6267)"><path d="m0 0v-1.07c0.137 0.402 0.542 0.669 0.81 0.937 0.405 0.133 0.673 0.267 1.078 0.267 0.674 0 1.215-0.134 1.483-0.535 0.269-0.401 0.404-0.936 0.404-1.605v-3.877h-0.541v3.877c0 0.535-0.131 0.936-0.405 1.204-0.267 0.267-0.536 0.401-1.077 0.401-0.405 0-0.806-0.134-1.078-0.401-0.269-0.268-0.537-0.669-0.674-1.07v-4.011h-0.673v5.883z"/></g><g transform="translate(78.3055,29.6848)"><path d="m0 0c0 0.936 0.269 1.738 0.673 2.273 0.405 0.536 0.941 0.803 1.615 0.803 0.81 0 1.483-0.402 1.888-0.936v0.802h0.673v-5.75c0-0.802-0.269-1.471-0.673-1.872-0.405-0.401-1.078-0.669-1.752-0.669-0.404 0-0.81 0.134-1.214 0.268-0.405 0.268-0.674 0.401-0.806 0.802l0.269 0.402c0.537-0.669 1.078-0.936 1.751-0.936 0.542 0 0.941 0.133 1.215 0.534 0.404 0.267 0.537 0.803 0.537 1.338v0.668c-0.405-0.535-1.078-0.802-1.888-0.802-0.674 0-1.21 0.267-1.615 0.802-0.404 0.535-0.673 1.337-0.673 2.273m0.673-0.133c0-0.669 0.132-1.338 0.405-1.739 0.404-0.401 0.805-0.668 1.346-0.668 0.809 0 1.347 0.401 1.752 1.069v2.808c-0.133 0.401-0.405 0.669-0.674 0.803-0.269 0.267-0.673 0.401-1.078 0.401-0.541 0-0.942-0.268-1.346-0.669-0.273-0.401-0.405-1.07-0.405-2.005"/></g><g transform="translate(85.8514,34.0974)"><path d="m0 0v-1.471h1.215v-0.534h-1.215v-4.012c0-0.268 0.137-0.535 0.269-0.669 0-0.133 0.268-0.267 0.541-0.267 0.131 0 0.268 0 0.537 0.134v-0.535c-0.132-0.134-0.406-0.134-0.674-0.134-0.404 0-0.81 0.134-0.942 0.401-0.272 0.268-0.404 0.669-0.404 1.07v4.012h-1.078v0.534h1.078v1.471z"/></g><g transform="translate(88.0076,29.8191)"><path d="m0 0c0 0.535 0.136 1.069 0.269 1.471 0.272 0.401 0.541 0.802 0.945 1.069 0.405 0.268 0.942 0.401 1.483 0.401 0.805 0 1.347-0.267 1.883-0.802 0.541-0.535 0.81-1.337 0.81-2.273v-0.134c0-0.535-0.132-1.069-0.405-1.471-0.268-0.534-0.537-0.802-0.941-1.07-0.405-0.267-0.811-0.4-1.347-0.4-0.809 0-1.483 0.267-1.887 0.802-0.541 0.534-0.81 1.337-0.81 2.273zm0.673-0.268c0-0.668 0.137-1.203 0.541-1.738 0.405-0.401 0.806-0.668 1.483-0.668 0.536 0 1.078 0.267 1.483 0.668 0.268 0.535 0.537 1.07 0.537 1.872v0.134c0 0.401-0.137 0.802-0.269 1.203-0.136 0.401-0.404 0.669-0.673 0.802-0.405 0.268-0.677 0.402-1.078 0.402-0.677 0-1.078-0.268-1.483-0.669-0.404-0.535-0.541-1.07-0.541-1.872z"/></g><g transform="translate(95.285,32.6267)"><path d="m0 0v-1.07c0.269 0.402 0.541 0.669 0.941 0.937 0.274 0.133 0.678 0.267 1.079 0.267 0.677 0 1.078-0.134 1.483-0.535 0.272-0.401 0.404-0.936 0.404-1.605v-3.877h-0.673v3.877c0 0.535-0.136 0.936-0.268 1.204-0.269 0.267-0.673 0.401-1.078 0.401s-0.81-0.134-1.078-0.401c-0.405-0.268-0.541-0.669-0.673-1.07v-4.011h-0.678v5.883z"/></g><g transform="translate(108.3582,28.6155)"><path d="m0 0c0 0.535-0.137 0.802-0.405 1.069-0.405 0.268-0.942 0.535-1.751 0.803-0.81 0.133-1.484 0.401-1.888 0.669-0.537 0.4-0.81 0.936-0.81 1.604 0 0.535 0.273 1.07 0.81 1.471 0.541 0.401 1.078 0.535 1.888 0.535 0.541 0 1.078-0.134 1.482-0.268 0.405-0.267 0.674-0.534 0.943-0.802 0.272-0.401 0.404-0.803 0.404-1.337h-0.673c0 0.534-0.269 1.07-0.674 1.337-0.267 0.401-0.809 0.535-1.482 0.535-0.541 0-1.078-0.134-1.484-0.401-0.267-0.268-0.536-0.669-0.536-1.07s0.269-0.802 0.536-1.07c0.269-0.134 0.811-0.401 1.62-0.668 0.673-0.134 1.21-0.402 1.615-0.535 0.405-0.268 0.674-0.535 0.809-0.803 0.137-0.267 0.269-0.668 0.269-1.069 0-0.535-0.269-1.07-0.81-1.471-0.4-0.401-1.078-0.535-1.883-0.535-0.677 0-1.078 0.134-1.62 0.267-0.404 0.268-0.809 0.535-1.077 0.803-0.268 0.401-0.405 0.802-0.405 1.337h0.673c0-0.535 0.273-1.07 0.674-1.337 0.404-0.401 0.946-0.535 1.755-0.535 0.537 0 1.079 0.134 1.483 0.401 0.4 0.267 0.537 0.669 0.537 1.07"/></g><g transform="translate(111.324,34.0974)"><path d="m0 0v-1.471h1.346v-0.534h-1.346v-4.012c0-0.268 0.136-0.535 0.268-0.669 0.136-0.133 0.268-0.267 0.542-0.267 0.131 0 0.267 0 0.536 0.134v-0.535c-0.132-0.134-0.405-0.134-0.673-0.134-0.405 0-0.81 0.134-0.942 0.401-0.273 0.268-0.405 0.669-0.405 1.07v4.012h-1.078v0.534h1.078v1.471z"/></g><g transform="translate(117.7918,26.7434)"><path d="m0 0c-0.137 0.133-0.137 0.401-0.137 0.802-0.268-0.267-0.536-0.535-0.941-0.669-0.269-0.133-0.673-0.267-1.078-0.267-0.673 0-1.078 0.134-1.483 0.535-0.268 0.267-0.537 0.668-0.537 1.203 0 0.536 0.269 0.936 0.806 1.337 0.404 0.268 1.077 0.536 2.023 0.536h1.21v0.668c0 0.401-0.132 0.668-0.4 0.936-0.273 0.268-0.678 0.401-1.214 0.401-0.405 0-0.81-0.133-1.078-0.401-0.269-0.268-0.541-0.535-0.541-0.802h-0.674c0 0.401 0.273 0.802 0.674 1.203 0.541 0.401 1.077 0.535 1.619 0.535 0.673 0 1.214-0.134 1.614-0.535 0.406-0.267 0.541-0.802 0.678-1.337v-2.808c0-0.535 0-1.07 0.132-1.337zm-2.156 0.401c0.541 0 0.809 0.134 1.215 0.401 0.404 0.134 0.672 0.401 0.804 0.802v1.337h-1.21c-0.673 0-1.214-0.133-1.619-0.401-0.268-0.267-0.537-0.535-0.537-0.936s0.133-0.668 0.405-0.802c0.269-0.267 0.537-0.401 0.942-0.401"/></g><g transform="translate(121.0262,34.0974)"><path d="m0 0v-1.471h1.214v-0.534h-1.214v-4.012c0-0.268 0.136-0.535 0.268-0.669 0-0.133 0.273-0.267 0.542-0.267 0.135 0 0.268 0 0.541 0.134v-0.535c-0.137-0.134-0.406-0.134-0.678-0.134-0.405 0-0.805 0.134-0.942 0.401-0.268 0.268-0.405 0.669-0.405 1.07v4.012h-1.078v0.534h1.078v1.471z"/></g><g transform="translate(126.0154,26.6096)"><path d="m0 0c-0.541 0-0.946 0.134-1.351 0.401-0.537 0.267-0.809 0.535-1.078 0.936-0.132 0.535-0.268 1.07-0.268 1.605v0.133c0 0.669 0.136 1.07 0.268 1.605 0.269 0.401 0.541 0.802 0.947 1.07 0.4 0.267 0.804 0.401 1.345 0.401 0.674 0 1.215-0.267 1.752-0.802 0.405-0.402 0.541-1.07 0.541-2.006v-0.268h-4.179v-0.133c0-0.669 0.135-1.338 0.541-1.739 0.4-0.401 0.941-0.668 1.482-0.668 0.4 0 0.674 0.133 0.941 0.267 0.269 0 0.538 0.268 0.674 0.535l0.405-0.267c-0.405-0.669-1.079-1.07-2.02-1.07m-0.137 5.616c-0.541 0-0.945-0.267-1.214-0.535-0.405-0.401-0.672-0.936-0.672-1.471h3.502c0 0.669-0.132 1.07-0.401 1.471-0.272 0.268-0.678 0.535-1.215 0.535"/></g><g transform="translate(57.1448,11.2322)"><path d="m0 0c-2.697 0-4.853-2.14-4.853-4.947 0-2.809 2.156-4.949 4.853-4.949 2.83 0 4.849 2.14 4.849 4.949 0 2.807-2.019 4.947-4.849 4.947m-1.346-1.069c0.4 0.267 0.805 0.534 1.346 0.534 0.537 0 1.078-0.267 1.347-0.534 0.673-0.669 0.945-1.74 0.946-3.878 0-2.274-0.273-3.343-0.946-3.878-0.269-0.402-0.81-0.535-1.347-0.535-0.541 0-0.946 0.133-1.346 0.535-0.678 0.535-0.81 1.604-0.81 3.878 0 2.138 0.132 3.209 0.81 3.878"/></g><g transform="translate(94.6121,2.1394)"><path d="m0 0h-1.078v5.616c0 2.139-1.215 3.477-3.507 3.477-1.21 0-2.156-0.535-2.693-1.605-0.405 0.668-1.214 1.605-3.102 1.605-0.941 0-1.883-0.535-2.425-1.338v0.669c0 0.401-0.268 0.401-0.404 0.401h-2.966c-0.268 0-0.268-0.267-0.268-0.267 0-0.134 0-0.267 0.268-0.267h1.078v-8.291h-2.424v5.616c0 2.14-1.347 3.477-3.502 3.477-1.215 0-2.157-0.535-2.698-1.605-0.405 0.668-1.215 1.605-3.097 1.605-1.078 0-1.888-0.535-2.43-1.337v0.668c0 0.401-0.268 0.401-0.404 0.401h-2.966c-0.269 0-0.269-0.267-0.269-0.267 0-0.134 0-0.267 0.269-0.267h1.082v-8.291h-1.351c-0.268 0-0.268-0.268-0.268-0.268 0-0.133 0-0.267 0.268-0.267h4.717c0.274 0 0.274 0.134 0.274 0.267 0 0 0 0.268-0.274 0.268h-0.941v6.419c0.132 1.203 0.809 1.872 1.751 1.872 1.078 0 1.619-0.669 1.619-2.273l1e-3 -6.018h-1.215c-0.269 0-0.269-0.268-0.269-0.268 0-0.133 0-0.267 0.269-0.267h4.717c0.136 0 0.268 0.134 0.268 0.267 0 0-0.132 0.268-0.268 0.268h-1.078v6.552c0 0.936 0.809 1.739 1.615 1.739 1.214 0 1.756-0.669 1.756-2.273v-6.018h-1.215c-0.269 0-0.269-0.268-0.269-0.268 0-0.133 0-0.267 0.269-0.267h9.433c0.269 0 0.406 0.134 0.406 0.267 0 0-0.137 0.268-0.406 0.268h-0.941v6.419c0.132 1.203 0.805 1.872 1.751 1.872 1.078 0 1.615-0.669 1.615-2.273v-6.018h-1.21c-0.273 0-0.273-0.268-0.273-0.268 0-0.133 0-0.267 0.273-0.267h4.717c0.269 0 0.269 0.134 0.269 0.267 0 0 0 0.268-0.269 0.268h-1.078v6.552c0 0.936 0.81 1.739 1.614 1.739 1.215 0 1.752-0.669 1.752-2.273v-6.018h-1.21c-0.268 0-0.268-0.268-0.268-0.268 0-0.133 0-0.267 0.268-0.267h4.717c0.269 0 0.269 0.134 0.269 0.267 0 0 0 0.268-0.269 0.268"/></g><g transform="translate(102.699,4.0115)"><path d="m0 0h-0.272c-0.538-1.203-1.751-2.14-2.961-2.14-0.678 0-1.083 0.268-1.484 0.536-0.541 0.535-0.809 1.336-0.809 3.876v0.269h5.659c0.136 0 0.272 0.133 0.272 0.4 0 2.14-1.35 4.28-3.912 4.28-2.56 0-4.717-2.274-4.717-4.948 0-2.808 2.157-4.948 4.717-4.948 1.752 0 3.235 1.204 3.776 2.407 0 0.134-0.136 0.268-0.269 0.268m-2.023 3.075h-3.64c0.137 1.605 0.405 2.675 0.946 3.209 0.269 0.268 0.537 0.402 1.078 0.402 0.406 0 0.674-0.134 0.942-0.402 0.542-0.401 0.674-1.471 0.674-3.075z"/></g><g transform="translate(109.1678,11.2322)"><path d="m0 0c-0.946 0-1.751-0.669-2.156-1.604v0.935c0 0.401-0.269 0.401-0.406 0.401h-3.233c-0.268 0-0.268-0.267-0.268-0.267 0-0.134 0-0.267 0.268-0.267h1.21v-8.291h-1.347c-0.268 0-0.268-0.267-0.268-0.267 0-0.134 0-0.268 0.268-0.268h5.258c0.269 0 0.269 0.134 0.269 0.268 0 0 0 0.267-0.269 0.267h-1.482v5.616c0.132 1.873 1.078 2.808 1.887 2.808 0.269 0 0.401 0 0.401-0.133 0-0.267 0-0.401-0.132-0.536-0.137-0.266-0.405-0.534-0.405-1.069 0-0.534 0.405-0.936 1.078-0.936 0.674 0 1.347 0.669 1.347 1.605s-0.806 1.738-2.02 1.738"/></g><g transform="translate(119.0066,4.0115)"><path d="m0 0-0.137-0.134c-0.405-1.069-1.751-2.006-2.829-2.006-0.674 0-1.215 0.134-1.619 0.536-0.537 0.535-0.674 1.47-0.674 3.876 0 2.275 0.137 3.344 0.674 3.879 0.404 0.401 0.81 0.535 1.619 0.535 0.942 0 1.483-0.535 1.483-1.07 0-0.267-0.137-0.401-0.269-0.535-0.136-0.268-0.136-0.534-0.136-0.802 0-0.535 0.405-0.936 0.942-0.936 0.541 0 1.214 0.401 1.214 1.337 0 1.338-1.751 2.541-3.234 2.541-2.697 0-4.853-2.14-4.853-4.949 0-2.807 2.024-4.947 4.585-4.947 1.751 0 3.097 1.204 3.638 2.407v0.134c-0.136 0.134-0.272 0.134-0.404 0.134"/></g><g transform="translate(128.035,6.5525)"><path d="m0 0c0.269 0 0.405 0.133 0.405 0.4 0 2.14-1.346 4.28-3.907 4.28-2.697 0-4.717-2.274-4.717-4.949 0-2.807 2.02-4.947 4.717-4.947 1.751 0 3.098 1.204 3.771 2.407 0 0.134-0.132 0.268-0.269 0.268h-0.269c-0.541-1.203-1.751-2.14-3.101-2.14-0.537 0-1.078 0.268-1.484 0.535-0.404 0.536-0.804 1.471-0.804 3.877v0.269zm-3.639 4.145c0.406 0 0.673-0.134 0.942-0.402 0.405-0.401 0.677-1.471 0.677-3.075v-0.134h-3.638c0 1.605 0.268 2.675 0.804 3.209 0.406 0.268 0.674 0.402 1.215 0.402"/></g><g transform="translate(46.9017,1.2038)"><path d="m0 0c2.424 0 4.175 1.604 4.854 3.209v0.268c-0.137 0-0.273 0.132-0.406 0.132 0-0.132 0-0.132-0.136-0.132-0.673-1.739-2.561-3.077-4.312-3.077-0.81 0-1.347 0.268-2.022 0.803-0.809 0.936-1.078 2.808-1.078 5.616s0.269 4.814 1.078 5.75c0.539 0.535 1.212 0.668 2.022 0.668 2.424 0 3.639-1.337 3.907-4.01 0-0.268 0.136-0.268 0.136-0.268 0.132 0 0.269 0 0.269 0.268v4.144c0 0.134-0.137 0.268-0.137 0.268-0.132 0-0.268-0.134-0.268-0.268-0.132-0.267-0.268-0.267-0.536-0.267-0.405 0-0.81 0-1.079 0.267-0.541 0.134-1.214 0.401-2.292 0.401-3.1 0-5.795-3.209-5.795-6.953 0-3.878 2.425-6.819 5.795-6.819"/></g></g></g></svg>
