<?xml version="1.0" encoding="utf-8"?>
<!-- Generator: Adobe Illustrator 24.1.0, SVG Export Plug-In . SVG Version: 6.00 Build 0)  -->
<svg version="1.1" id="Layer_1" xmlns="http://www.w3.org/2000/svg" xmlns:xlink="http://www.w3.org/1999/xlink" x="0px" y="0px"
	 viewBox="0 0 143.9992676 56.7819977" enable-background="new 0 0 143.9992676 56.7819977" xml:space="preserve">
<g>
	<path fill="#2D2A26" d="M114.1153564,56.4256973v-0.6210022c0.0709839,0.0630035,0.1559448,0.1190033,0.2549438,0.1689987
		c0.1000366,0.0510025,0.2040405,0.0930023,0.3140259,0.1270027c0.1099854,0.0349998,0.2199707,0.0620003,0.3309937,0.079998
		c0.1110229,0.019001,0.2130127,0.0289993,0.3079834,0.0289993c0.322998,0,0.5650024-0.060997,0.7260132-0.1800003
		c0.1589966-0.1209946,0.2399902-0.2939987,0.2399902-0.5199966c0-0.1210022-0.0269775-0.2270012-0.0809937-0.3170013
		c-0.0529785-0.0900002-0.1259766-0.1719971-0.2199707-0.2459984c-0.0950317-0.0740013-0.2059937-0.1450005-0.335022-0.2130013
		c-0.1279907-0.067997-0.2669678-0.1399994-0.414978-0.2150002c-0.1570435-0.0789986-0.3040161-0.1599998-0.4390259-0.2419968
		c-0.1359863-0.0810013-0.2539673-0.1710014-0.3549805-0.269001c-0.1000366-0.0979996-0.1790161-0.2099991-0.2369995-0.3339996
		c-0.0570068-0.125-0.0859985-0.2709999-0.0859985-0.4379997c0-0.2040024,0.0449829-0.3830032,0.1350098-0.5349998
		c0.0899658-0.151001,0.2080078-0.276001,0.3549805-0.375c0.1459961-0.0970001,0.3129883-0.1710014,0.4990234-0.2190018
		c0.1879883-0.0480003,0.3789673-0.0719986,0.572998-0.0719986c0.4429932,0,0.7659912,0.0529976,0.9689941,0.1599998v0.5929985
		c-0.2659912-0.1839981-0.6060181-0.276001-1.0220337-0.276001c-0.1149902,0-0.2299805,0.0110016-0.3449707,0.0360031
		c-0.1149902,0.0239983-0.2180176,0.0629997-0.3070068,0.1169968c-0.0910034,0.0540009-0.1640015,0.125-0.2200317,0.2100029
		c-0.0569458,0.0859985-0.0849609,0.1909981-0.0849609,0.3139992c0,0.1149979,0.0219727,0.2140007,0.0639648,0.2980003
		c0.0440063,0.0839996,0.1060181,0.1599998,0.1900024,0.2290001c0.0840454,0.0690002,0.1860352,0.1359978,0.3060303,0.2010002
		c0.1199951,0.0649986,0.2589722,0.1359978,0.4160156,0.2129974c0.1599731,0.0800018,0.3129883,0.163002,0.4579468,0.2509995
		c0.144043,0.0880013,0.2700195,0.1850014,0.3790283,0.2920036c0.1090088,0.105999,0.1950073,0.2249985,0.2589722,0.3539963
		c0.0640259,0.1300011,0.0960083,0.2789993,0.0960083,0.4449997c0,0.2229996-0.0440063,0.4100037-0.1309814,0.5630035
		c-0.0859985,0.1549988-0.2039795,0.2789993-0.3510132,0.375c-0.1480103,0.0970001-0.3170166,0.1660004-0.5100098,0.2089996
		c-0.1919556,0.0429993-0.3949585,0.0639992-0.6079712,0.0639992c-0.0709839,0-0.1589966-0.0050011-0.2630005-0.0170021
		c-0.1049805-0.012001-0.2120361-0.0279999-0.3200073-0.0499992c-0.1099854-0.0219994-0.2119751-0.0489998-0.3099976-0.0819969
		C114.2513428,56.5016937,114.1733398,56.4656982,114.1153564,56.4256973"/>
	<polygon fill="#2D2A26" points="123.5452271,52.5864944 122.2462158,52.5864944 122.2462158,56.6074944 121.7191772,56.6074944 
		121.7191772,52.5864944 120.4241943,52.5864944 120.4241943,52.1094971 123.5452271,52.1094971 	"/>
	<path fill="#2D2A26" d="M129.1644287,54.8725967l-0.7050171-1.9160004
		c-0.0230103-0.0629997-0.0459595-0.1629982-0.0689697-0.3009987h-0.0130005
		c-0.0209961,0.1279984-0.0449829,0.2280006-0.0720215,0.3009987l-0.7000122,1.9160004H129.1644287z M130.3974609,56.6075974
		h-0.5830078l-0.4770508-1.2610016h-1.9069824l-0.4489746,1.2610016h-0.5859985l1.7249756-4.4980011h0.5460205
		L130.3974609,56.6075974z"/>
	<polygon fill="#2D2A26" points="136.4059448,52.5864944 135.1069336,52.5864944 135.1069336,56.6074944 134.579895,56.6074944 
		134.579895,52.5864944 133.2849121,52.5864944 133.2849121,52.1094971 136.4059448,52.1094971 	"/>
	<polygon fill="#2D2A26" points="142.6427612,56.6075974 140.258728,56.6075974 140.258728,52.1095963 142.5427246,52.1095963 
		142.5427246,52.5865974 140.7857056,52.5865974 140.7857056,54.0825958 142.4107056,54.0825958 142.4107056,54.5565987 
		140.7857056,54.5565987 140.7857056,56.1305962 142.6427612,56.1305962 	"/>
</g>
<g>
	<path fill="#2D2A26" d="M41.895752,52.1097946l-1.2700195,4.4980011h-0.617981l-0.9260254-3.2869987
		c-0.0390015-0.1399994-0.0640259-0.2929993-0.0709839-0.4580002h-0.0130005
		c-0.0130005,0.1539993-0.0400391,0.3050003-0.0820313,0.4510002l-0.9320068,3.2939987h-0.6109619l-1.3179932-4.4980011h0.5809937
		l0.9569702,3.4500008c0.0390015,0.1450005,0.0640259,0.295002,0.0750122,0.4519997h0.0159912
		c0.0100098-0.1100006,0.0430298-0.2610016,0.0960083-0.4519997l0.9949951-3.4500008h0.5050049l0.9539795,3.4749985
		c0.03302,0.1200027,0.0580444,0.2600021,0.0750122,0.4210014h0.0120239
		c0.0089722-0.1089973,0.0369873-0.2529984,0.0849609-0.4329987l0.9190063-3.4630013H41.895752z"/>
	<path fill="#2D2A26" d="M47.7279053,54.8725967l-0.7050171-1.9160004
		c-0.0239868-0.0629997-0.0459595-0.1629982-0.0689697-0.3009987H46.940918
		c-0.0209961,0.1279984-0.0449829,0.2280006-0.0720215,0.3009987l-0.7000122,1.9160004H47.7279053z M48.9609375,56.6075974
		h-0.5830078l-0.4770508-1.2610016h-1.9069824l-0.4489746,1.2610016h-0.5859985l1.7249756-4.4980011h0.5460205
		L48.9609375,56.6075974z"/>
	<path fill="#2D2A26" d="M52.5601196,56.4256973v-0.6210022c0.0709839,0.0630035,0.1569824,0.1190033,0.2559814,0.1689987
		c0.098999,0.0510025,0.2039795,0.0930023,0.3129883,0.1270027c0.1099854,0.0349998,0.2199707,0.0620003,0.3309937,0.079998
		c0.1110229,0.019001,0.2139893,0.0289993,0.3079834,0.0289993c0.3240356,0,0.56604-0.060997,0.7260132-0.1800003
		c0.1600342-0.1209946,0.2399902-0.2939987,0.2399902-0.5199966c0-0.1210022-0.0269775-0.2270012-0.0799561-0.3170013
		c-0.0540161-0.0900002-0.1270142-0.1719971-0.2210083-0.2459984c-0.0950317-0.0740013-0.2059937-0.1450005-0.3340454-0.2130013
		c-0.1289673-0.067997-0.2669678-0.1399994-0.4159546-0.2150002c-0.1570435-0.0789986-0.3030396-0.1599998-0.4390259-0.2419968
		c-0.1359863-0.0810013-0.2539673-0.1710014-0.3549805-0.269001c-0.1000366-0.0979996-0.1790161-0.2099991-0.2360229-0.3339996
		c-0.0579834-0.125-0.0859985-0.2709999-0.0859985-0.4379997c0-0.2040024,0.0449829-0.3830032,0.1340332-0.5349998
		c0.0899658-0.151001,0.2080078-0.276001,0.3549805-0.375c0.1459961-0.0970001,0.3129883-0.1710014,0.5-0.2190018
		s0.3779907-0.0719986,0.5720215-0.0719986c0.4439697,0,0.7669678,0.0529976,0.9689941,0.1599998v0.5929985
		c-0.2650146-0.1839981-0.6060181-0.276001-1.0220337-0.276001c-0.1149902,0-0.2299805,0.0110016-0.3449707,0.0360031
		c-0.1149902,0.0239983-0.217041,0.0629997-0.3070068,0.1169968c-0.0900269,0.0540009-0.1630249,0.125-0.2200317,0.2100029
		c-0.0559692,0.0859985-0.0849609,0.1909981-0.0849609,0.3139992c0,0.1149979,0.0219727,0.2140007,0.0650024,0.2980003
		c0.0419922,0.0839996,0.105957,0.1599998,0.1889648,0.2290001c0.0840454,0.0690002,0.1860352,0.1359978,0.3060303,0.2010002
		c0.1209717,0.0649986,0.2589722,0.1359978,0.4160156,0.2129974c0.1609497,0.0800018,0.3139648,0.163002,0.4579468,0.2509995
		c0.144043,0.0880013,0.2709961,0.1850014,0.3790283,0.2920036c0.1090088,0.105999,0.1950073,0.2249985,0.2589722,0.3539963
		c0.0640259,0.1300011,0.0950317,0.2789993,0.0950317,0.4449997c0,0.2229996-0.0419922,0.4100037-0.1290283,0.5630035
		c-0.0869751,0.1549988-0.2039795,0.2789993-0.3519897,0.375c-0.1469727,0.0970001-0.3170166,0.1660004-0.5100098,0.2089996
		c-0.1919556,0.0429993-0.3949585,0.0639992-0.6079712,0.0639992c-0.0709839,0-0.1589966-0.0050011-0.2630005-0.0170021
		c-0.1049805-0.012001-0.2120361-0.0279999-0.3209839-0.0499992c-0.1080322-0.0219994-0.2109985-0.0489998-0.3080444-0.0819969
		C52.696106,56.5016937,52.6190796,56.4656982,52.5601196,56.4256973"/>
	<polygon fill="#2D2A26" points="62.711853,56.6075974 62.1848145,56.6075974 62.1848145,54.5565987 59.8578491,54.5565987 
		59.8578491,56.6075974 59.3308105,56.6075974 59.3308105,52.1095963 59.8578491,52.1095963 59.8578491,54.0825958 
		62.1848145,54.0825958 62.1848145,52.1095963 62.711853,52.1095963 	"/>
	<polygon fill="#2D2A26" points="68.005249,52.1097946 68.005249,52.5617981 67.5662231,52.5617981 67.5662231,56.1557961 
		68.005249,56.1557961 68.005249,56.6077957 66.6002197,56.6077957 66.6002197,56.1557961 67.0392456,56.1557961 
		67.0392456,52.5617981 66.6002197,52.5617981 66.6002197,52.1097946 	"/>
	<path fill="#2D2A26" d="M75.5217285,56.6075974h-0.6460571l-2.3150024-3.5849991
		c-0.0579834-0.0900002-0.1069946-0.1840019-0.1439819-0.2820015h-0.0189819
		c0.0169678,0.0960007,0.0249634,0.302002,0.0249634,0.6170006v3.25h-0.5269775v-4.4980011h0.684021l2.2520142,3.5289993
		c0.0939941,0.1459999,0.1549683,0.2470016,0.1819458,0.3010025h0.0120239
		c-0.0200195-0.1290016-0.0310059-0.3500023-0.0310059-0.6620026v-3.1679993h0.5270386V56.6075974z"/>
	<path fill="#2D2A26" d="M83.2113037,56.300293c-0.4520264,0.2550049-0.9530029,0.3830032-1.5060425,0.3830032
		c-0.6419678,0-1.1610107-0.2070007-1.5570068-0.6210022c-0.3959961-0.4139977-0.5939941-0.961998-0.5939941-1.6439972
		c0-0.6959991,0.2200317-1.2680016,0.6600342-1.7140007s0.9979858-0.6699982,1.6729736-0.6699982
		c0.4899902,0,0.901001,0.079998,1.2330322,0.2389984v0.5830002c-0.3640137-0.2299995-0.7940063-0.3450012-1.2920532-0.3450012
		c-0.5039673,0-0.9169922,0.1730003-1.2389526,0.5209999c-0.3220215,0.3470001-0.4830322,0.7960014-0.4830322,1.3480034
		c0,0.5689964,0.1500244,1.015995,0.447998,1.3409996c0.2999878,0.3259964,0.7050171,0.487999,1.217041,0.487999
		c0.3519897,0,0.6559448-0.0699997,0.9129639-0.2099991v-1.2610016h-0.9849854v-0.4770012h1.5120239V56.300293z"/>
	<polygon fill="#2D2A26" points="89.9098511,52.5864944 88.6108398,52.5864944 88.6108398,56.6074944 88.0838013,56.6074944 
		88.0838013,52.5864944 86.7888184,52.5864944 86.7888184,52.1094971 89.9098511,52.1094971 	"/>
	<path fill="#2D2A26" d="M95.3251953,52.5108986c-0.4730225,0-0.8569946,0.1709976-1.1519775,0.5119972
		c-0.2940063,0.3410034-0.4420166,0.788002-0.4420166,1.3420029c0,0.553997,0.1439819,1,0.4320068,1.3379974
		c0.2869873,0.3380013,0.6619873,0.5060005,1.1240234,0.5060005c0.4939575,0,0.8829956-0.1599998,1.1669922-0.4829979
		c0.2839966-0.3220024,0.4259644-0.7730026,0.4259644-1.3520012c0-0.5929985-0.1380005-1.052002-0.4140015-1.3769989
		C96.1901855,52.6728973,95.8101807,52.5108986,95.3251953,52.5108986 M95.2872314,56.6828957
		c-0.6380005,0-1.1490479-0.2099991-1.53302-0.6300011c-0.3829956-0.4209976-0.5750122-0.9669952-0.5750122-1.6409988
		c0-0.723999,0.1959839-1.3009987,0.5869751-1.730999c0.3910522-0.4309998,0.9230347-0.6459999,1.5960083-0.6459999
		c0.6210327,0,1.1210327,0.2089996,1.5010376,0.6269989c0.3800049,0.4180031,0.5689697,0.9650002,0.5689697,1.6400032
		c0,0.7339973-0.1939697,1.3149986-0.5830078,1.7409973C96.4602051,56.4698944,95.939209,56.6828957,95.2872314,56.6828957"/>
	<path fill="#2D2A26" d="M105.0910034,56.6075974h-0.6460571l-2.3150024-3.5849991
		c-0.0579834-0.0900002-0.1069946-0.1840019-0.1439819-0.2820015H101.96698
		c0.0169678,0.0960007,0.0249634,0.302002,0.0249634,0.6170006v3.25h-0.5269775v-4.4980011h0.684021l2.2520142,3.5289993
		c0.0939941,0.1459999,0.1549683,0.2470016,0.1819458,0.3010025h0.0120239
		c-0.0200195-0.1290016-0.0310059-0.3500023-0.0310059-0.6620026v-3.1679993h0.5270386V56.6075974z"/>
</g>
<g>
	<path fill="#1C355E" d="M117.2315063,47.3430977c-1.0150146,0-1.8359985-0.3450012-2.4390259-1.026001
		c-0.6060181-0.6850014-0.9130249-1.6360016-0.9130249-2.8279991c0-1.2390022,0.3040161-2.2220001,0.9040527-2.9239998
		c0.5959473-0.6970024,1.4199829-1.0510025,2.447998-1.0510025c1.0339966,0,1.8389893,0.3420029,2.3919678,1.0150032
		c0.5570068,0.6779976,0.8400269,1.6599998,0.8400269,2.9199982c0,1.2470016-0.28302,2.2190018-0.8400269,2.8889999
		C119.0704956,47.0050964,118.2655029,47.3430977,117.2315063,47.3430977 M120.9995117,39.4100952
		c-0.8720093-0.9559975-2.0990601-1.4409981-3.6480103-1.4409981c-1.6199951,0-2.927002,0.4980011-3.8810425,1.4790001
		c-0.9539795,0.9819984-1.4379883,2.3619995-1.4379883,4.1020012c0,1.598999,0.4650269,2.9019966,1.382019,3.8729973
		c0.9179688,0.9729996,2.1610107,1.4659996,3.6970215,1.4659996c1.5749512,0,2.848999-0.507,3.7869873-1.5059967
		c0.9370117-0.9980011,1.4119873-2.3420029,1.4119873-3.9940033
		C122.3104858,41.7030983,121.8695068,40.3640976,120.9995117,39.4100952"/>
	<path fill="#1C355E" d="M41.9098511,48.8890953c-2.0610352,0-3.7360229-0.6739998-4.9770508-2.0029984
		c-1.2399902-1.3269997-1.867981-3.0909996-1.867981-5.243c0-2.3139992,0.7059937-4.2099991,2.0999756-5.6380005
		c1.3950195-1.4280014,3.1870117-2.1520004,5.3270264-2.1520004c1.3699951,0,2.5219727,0.2019997,3.4249878,0.598999
		l0.0480347,0.0209999v1.9860001l-0.1190186-0.0659981c-1.0139771-0.5660019-2.1489868-0.8530006-3.3740234-0.8530006
		c-1.6220093,0-2.9549561,0.5480003-3.9609985,1.6300011c-1.0079956,1.0839996-1.5189819,2.5540009-1.5189819,4.3719978
		c0,1.7250023,0.4769897,3.1160011,1.4190063,4.1360016c0.9400024,1.0180016,2.190979,1.5349998,3.7199707,1.5349998
		c1.4230347,0,2.6719971-0.3199997,3.7120361-0.9519997l0.1220093-0.0740013v1.8269997l-0.0430298,0.0220032
		C44.8518066,48.6020966,43.5018311,48.8890953,41.9098511,48.8890953"/>
	<path fill="#1C355E" d="M53.6276245,47.3430977c-1.0150146,0-1.8359985-0.3450012-2.4390259-1.026001
		c-0.6060181-0.6850014-0.9130249-1.6360016-0.9130249-2.8279991c0-1.2390022,0.3040161-2.2220001,0.9040527-2.9239998
		c0.5959473-0.6970024,1.4199829-1.0510025,2.447998-1.0510025c1.0339966,0,1.8389893,0.3420029,2.3919678,1.0150032
		c0.5570068,0.6779976,0.8400269,1.6599998,0.8400269,2.9199982c0,1.2470016-0.2820435,2.2190018-0.8400269,2.8889999
		C55.4666138,47.0050964,54.6616211,47.3430977,53.6276245,47.3430977 M57.3956299,39.4100952
		c-0.8720093-0.9559975-2.0990601-1.4409981-3.6480103-1.4409981c-1.6210327,0-2.927002,0.4980011-3.8810425,1.4790001
		c-0.9539795,0.9819984-1.4379883,2.3619995-1.4379883,4.1020012c0,1.598999,0.4650269,2.9019966,1.382019,3.8729973
		c0.9179688,0.9729996,2.1610107,1.4659996,3.6970215,1.4659996c1.5749512,0,2.848999-0.507,3.7869873-1.5059967
		c0.9370117-0.9980011,1.4119873-2.3420029,1.4119873-3.9940033C58.706604,41.7030983,58.265625,40.3640976,57.3956299,39.4100952"
		/>
	<path fill="#1C355E" d="M63.5988159,48.6481972h-1.8070068V38.2101974h1.8070068v1.8510017
		c0.2349854-0.5830002,0.5649414-1.0550003,0.9819946-1.406002c0.4939575-0.4160004,1.0559692-0.6259995,1.6679688-0.6259995
		c0.4360352,0,0.7769775,0.0489998,1.0139771,0.1469994l0.0500488,0.0200005v1.9220009l-0.1290283-0.0979996
		c-0.2730103-0.2089996-0.6749878-0.3149986-1.1959839-0.3149986c-0.6719971,0-1.242981,0.322998-1.6959839,0.9599991
		c-0.460022,0.6450005-0.6929932,1.5410004-0.6929932,2.6629982V48.6481972z"/>
	<path fill="#1C355E" d="M71.3619385,48.6481972h-1.8070068V38.2101974h1.8070068v1.8510017
		c0.2349854-0.5830002,0.5649414-1.0550003,0.9819946-1.406002c0.4939575-0.4160004,1.0559692-0.6259995,1.6679688-0.6259995
		c0.4360352,0,0.7769775,0.0489998,1.0139771,0.1469994l0.0500488,0.0200005v1.9220009l-0.1290283-0.0979996
		c-0.2730103-0.2089996-0.6749878-0.3149986-1.1959839-0.3149986c-0.6719971,0-1.242981,0.322998-1.6959839,0.9599991
		c-0.460022,0.6450005-0.6929932,1.5410004-0.6929932,2.6629982V48.6481972z"/>
	<path fill="#1C355E" d="M81.7474365,38.9718971c0.8519897,0,1.5169678,0.2779999,1.9959717,0.8339996
		c0.4790039,0.5550003,0.7219849,1.3320007,0.7290039,2.3300018h-5.8869629
		c0.1349487-0.9420013,0.4899902-1.7050018,1.0650024-2.2879982C80.2244263,39.2638969,80.9244385,38.9718971,81.7474365,38.9718971
		 M86.3014526,42.6948967c0-1.6259995-0.3970337-2.9159966-1.1800537-3.8329964
		c-0.7849731-0.9180031-1.9099731-1.3840027-3.34198-1.3840027s-2.6469727,0.538002-3.6119995,1.6000023
		c-0.9639893,1.0599976-1.4530029,2.4510002-1.4530029,4.1339989c0,1.7799988,0.447998,3.1809998,1.3309937,4.1650009
		c0.8829956,0.9849968,2.1140137,1.4839973,3.6600342,1.4839973c1.5769653,0,2.8629761-0.3499985,3.822998-1.0399971
		l0.0169678-0.012001v-1.7270012l-0.0650024,0.0499992c-1.0169678,0.7919998-2.1469727,1.1940002-3.3599854,1.1940002
		c-1.0770264,0-1.934021-0.3260002-2.5479736-0.968998c-0.6070557-0.6360016-0.9330444-1.5489998-0.967041-2.7150002h7.6960449
		V42.6948967z"/>
	<path fill="#1C355E" d="M92.9749146,48.8890953c-1.3150024,0-2.3920288-0.4909973-3.2010498-1.4589996
		c-0.8049927-0.9639969-1.2129517-2.2290001-1.2129517-3.7599983c0-1.7050018,0.4399414-3.0950012,1.3059692-4.132
		c0.8709717-1.0410004,2.0479736-1.5690002,3.4990234-1.5690002c0.8079834,0,1.5319824,0.1720009,2.1519775,0.5109978
		l0.0419922,0.0230026v1.8999977l-0.1309814-0.1029968c-0.6569824-0.5209999-1.3690186-0.7860031-2.1170044-0.7860031
		c-0.8989868,0-1.6470337,0.3700027-2.223999,1.0990028c-0.5800171,0.7350006-0.8740234,1.7159996-0.8740234,2.9160004
		c0,1.1800003,0.276001,2.1219978,0.8210449,2.7999992c0.539978,0.6730003,1.2769775,1.0139999,2.1879883,1.0139999
		c0.7699585,0,1.5059814-0.2939987,2.1859741-0.8740005l0.132019-0.112999v1.7819977l-0.0350342,0.0250015
		C94.796875,48.6450958,93.9458618,48.8890953,92.9749146,48.8890953"/>
	<path fill="#1C355E" d="M102.8696289,48.8689957c-1.8450317,0-2.7800293-1.0399971-2.7800293-3.0909996v-6.0019989h-1.7670288
		v-1.5660019h1.7670288v-2.487999l1.8059692-0.5839996v3.0719986h2.5900269v1.5660019h-2.5900269v5.7099991
		c0,0.6680031,0.1130371,1.1469994,0.3340454,1.4260025c0.2179565,0.2729988,0.5880127,0.4109993,1.1019897,0.4109993
		c0.3950195,0,0.7399902-0.1090012,1.0250244-0.3250008l0.1289673-0.0970001v1.6140022l-0.0410156,0.0229988
		C104.0455933,48.7579994,103.515625,48.8689957,102.8696289,48.8689957"/>
	<path fill="#1C355E" d="M108.0636597,35.9935951c-0.3150024,0-0.5870361-0.1069984-0.8080444-0.3170013
		c-0.2229614-0.211998-0.3369751-0.4829979-0.3369751-0.8079987c0-0.322998,0.1129761-0.5960007,0.3359985-0.8110008
		c0.2219849-0.2150002,0.4940186-0.322998,0.809021-0.322998c0.3209839,0,0.5979614,0.1079979,0.822998,0.3219986
		c0.2259521,0.2159996,0.3410034,0.4890022,0.3410034,0.8120003c0,0.3110008-0.1140137,0.5790024-0.3400269,0.7970009
		S108.3846436,35.9935951,108.0636597,35.9935951 M108.9466553,48.6485939h-1.8070068V38.396595h1.8070068V48.6485939z"/>
	<path fill="#1C355E" d="M134.088623,48.6481972h-1.8070068v-5.9419975c0-2.1469994-0.7550049-3.1910019-2.309021-3.1910019
		c-0.7949829,0-1.4619751,0.3030014-1.9810181,0.9000015c-0.5230103,0.6009979-0.7879639,1.3719978-0.7879639,2.2910004v5.9419975
		h-1.8070068V38.209198h1.8070068v1.5709991c0.7839966-1.2019997,1.9029541-1.8120003,3.3309937-1.8120003
		c1.1439819,0,2.032959,0.3770027,2.6430054,1.1190033c0.6040039,0.737999,0.9110107,1.8139992,0.9110107,3.197998V48.6481972z"/>
	<path fill="#1C355E" d="M139.8543091,48.8890953c-1.06604,0-2.0040283-0.2089996-2.7880249-0.6209984l-0.0430298-0.0229988
		v-1.9740028l0.1280518,0.0940018c0.8789673,0.6489983,1.8589478,0.9780006,2.9140015,0.9780006
		c1.4049683,0,2.0879517-0.4459991,2.0879517-1.3650017c0-0.257-0.05896-0.4769974-0.1729736-0.6539993
		c-0.1190186-0.1809998-0.2800293-0.343998-0.4810181-0.4840012c-0.2050171-0.1429977-0.4500122-0.2739983-0.7269897-0.3889999
		c-0.2839966-0.1159973-0.5900269-0.237999-0.9169922-0.3649979c-0.4559937-0.1809998-0.8630371-0.3670006-1.2080078-0.5510025
		c-0.348999-0.185997-0.6459961-0.3999977-0.882019-0.6369972c-0.2389526-0.2380028-0.4199829-0.512001-0.539978-0.8150024
		c-0.1209717-0.3029976-0.1820068-0.6609993-0.1820068-1.0629997c0-0.4939995,0.1149902-0.9379997,0.3430176-1.3209991
		c0.2260132-0.3800011,0.5310059-0.7029991,0.9069824-0.9589996c0.3729858-0.2540016,0.8049927-0.4480019,1.2839966-0.5779991
		c0.4760132-0.1280022,0.973999-0.1930008,1.4810181-0.1930008c0.8959961,0,1.7099609,0.1570015,2.4219971,0.4679985
		l0.0479736,0.0209999v1.8670006l-0.125-0.0810013c-0.7389526-0.4839973-1.6019897-0.7299995-2.5650024-0.7299995
		c-0.2999878,0-0.572998,0.0349998-0.8109741,0.1030006c-0.2379761,0.0670013-0.4440308,0.163002-0.6129761,0.2840004
		c-0.1670532,0.1199989-0.2980347,0.2639999-0.3880005,0.4300003c-0.0900269,0.1650009-0.1360474,0.3499985-0.1360474,0.5480003
		c0,0.2529984,0.0460205,0.4659996,0.1370239,0.6349983c0.0899658,0.1690025,0.2260132,0.3220024,0.4039917,0.4560013
		c0.1810303,0.1360016,0.4050293,0.2610016,0.664978,0.3710022c0.2730103,0.1159973,0.5790405,0.2409973,0.9110107,0.3709984
		c0.4580078,0.1749992,0.8720093,0.3569984,1.2319946,0.5400009c0.3650513,0.185997,0.6820068,0.3989983,0.94104,0.6339989
		c0.2609863,0.2369995,0.4649658,0.5149994,0.605957,0.8240013c0.1420288,0.3120003,0.2130127,0.6839981,0.2130127,1.1079979
		c0,0.5200005-0.1170044,0.9799995-0.3469849,1.3660011c-0.2290039,0.3829994-0.539978,0.704998-0.9229736,0.9589996
		c-0.3810425,0.2509995-0.8250122,0.4410019-1.3200073,0.5629997
		C140.9162598,48.8280983,140.3932495,48.8890953,139.8543091,48.8890953"/>
</g>
<g>
	<path fill="#2D2A26" d="M136.1303101,27.8163948c-0.5290527,0-0.9470215,0.1800003-1.2540283,0.5400009
		c-0.3079834,0.3600006-0.4619751,0.855999-0.4619751,1.487999c0,0.6090012,0.1549683,1.0890007,0.46698,1.4400024
		c0.3109741,0.3520012,0.7269897,0.5270004,1.2490234,0.5270004c0.5319824,0,0.940979-0.1720009,1.2269897-0.5170021
		c0.2860107-0.343998,0.4289551-0.8339996,0.4289551-1.4699974c0-0.6430016-0.1429443-1.1380005-0.4289551-1.4860001
		C137.0712891,27.9913979,136.6622925,27.8163948,136.1303101,27.8163948 M136.0703125,32.5043945
		c-0.7600098,0-1.3660278-0.2399979-1.8190308-0.7199974c-0.4539795-0.4799995-0.6799927-1.1170006-0.6799927-1.9099998
		c0-0.8630028,0.2360229-1.5370026,0.7069702-2.0230026c0.4720459-0.4839973,1.1090088-0.7269974,1.9120483-0.7269974
		c0.7659912,0,1.3639526,0.2360001,1.7949829,0.7080002c0.4290161,0.4709969,0.6439819,1.125,0.6439819,1.961998
		c0,0.8199997-0.2319946,1.4760017-0.6950073,1.9690018C137.4712524,32.2573967,136.8493042,32.5043945,136.0703125,32.5043945"/>
	<path fill="#2D2A26" d="M143.8397217,25.4981956c-0.1610107-0.0899963-0.3430176-0.1349983-0.5470581-0.1349983
		c-0.5749512,0-0.8629761,0.362999-0.8629761,1.0890007v0.7919998h1.2039795v0.7029991h-1.2039795v4.4360008h-0.8179932V27.947197
		h-0.8790283v-0.7029991h0.8790283v-0.8320007c0-0.5390015,0.1549683-0.9650002,0.4660034-1.2779999
		c0.3120117-0.3120003,0.7000122-0.468998,1.164978-0.468998c0.2510376,0,0.4500122,0.0299988,0.5970459,0.0900002V25.4981956z"/>
</g>
<g>
	<path fill="#2D2A26" d="M60.5045166,25.9495964v5.6710014h1.0740356c0.9429932,0,1.6779785-0.2520027,2.2030029-0.757
		c0.5249634-0.5060005,0.7879639-1.2210007,0.7879639-2.1490021c0-1.8429985-0.9799805-2.7649994-2.940979-2.7649994H60.5045166z
		 M59.6615601,32.3835945v-7.1969986h1.9879761c2.5349731,0,3.8029785,1.170002,3.8029785,3.5089989
		c0,1.1100006-0.3519897,2.0030022-1.0559692,2.677002c-0.7040405,0.6739998-1.6470337,1.0109978-2.8280029,1.0109978H59.6615601z"
		/>
	<path fill="#2D2A26" d="M71.586731,29.322197c-0.0040283-0.4749985-0.118042-0.8440018-0.3439941-1.1090012
		c-0.2260132-0.2639999-0.5390015-0.3959999-0.94104-0.3959999c-0.3880005,0-0.7179565,0.1389999-0.9889526,0.4160004
		c-0.2709961,0.2779999-0.4380493,0.6409988-0.5010376,1.0890007H71.586731z M72.4297485,30.020195h-3.6280518
		c0.0130005,0.5720024,0.1669922,1.0130005,0.4609985,1.3250008c0.2950439,0.3110008,0.6990356,0.4659996,1.2150269,0.4659996
		c0.5789795,0,1.1099854-0.1899986,1.5960083-0.5709991v0.7719994c-0.4520264,0.3280029-1.0490112,0.4920006-1.7919922,0.4920006
		c-0.7260132,0-1.2969971-0.2329979-1.7109985-0.7000008c-0.4160156-0.4669991-0.6230469-1.1229973-0.6230469-1.9699974
		c0-0.7999992,0.2270508-1.4510002,0.6800537-1.9540024c0.4539795-0.5039978,1.0169678-0.7560005,1.6889648-0.7560005
		c0.6730347,0,1.1929932,0.2180023,1.5610352,0.6529999c0.367981,0.4350014,0.552002,1.0390015,0.552002,1.8110008V30.020195z"/>
	<path fill="#2D2A26" d="M76.0386963,29.5678978v0.7179985c0,0.4250031,0.1380005,0.7860031,0.4140015,1.0820007
		c0.276001,0.2960014,0.6270142,0.4440002,1.0509644,0.4440002c0.4990234,0,0.8900146-0.1909981,1.1730347-0.5719986
		c0.2819824-0.382,0.4229736-0.9120026,0.4229736-1.5909996c0-0.5720024-0.131958-1.0200005-0.3959961-1.3450012
		c-0.2639771-0.3250008-0.6229858-0.4869995-1.0739746-0.4869995c-0.4780273,0-0.8630371,0.1660004-1.1539917,0.5
		C76.1846924,28.6488991,76.0386963,29.0668983,76.0386963,29.5678978 M76.0587158,31.6408958h-0.0200195v3.1070023h-0.822998
		v-7.5030022h0.822998v0.9029999h0.0200195c0.4049683-0.6819992,0.9969482-1.0229988,1.7769775-1.0229988
		c0.6619873,0,1.1790161,0.2299995,1.5509644,0.6889992c0.3710327,0.4610023,0.5560303,1.0769997,0.5560303,1.8500023
		c0,0.8600006-0.2089844,1.5480003-0.6259766,2.0649986c-0.4190063,0.5170021-0.9910278,0.776001-1.717041,0.776001
		C76.9337158,32.5048981,76.4196777,32.2168961,76.0587158,31.6408958"/>
	<path fill="#2D2A26" d="M85.5204468,29.7839966l-1.2399902,0.1710014c-0.3809814,0.053997-0.6690063,0.1479988-0.8629761,0.2829971
		c-0.1940308,0.1360016-0.2910156,0.3760033-0.2910156,0.7200012c0,0.2509995,0.0889893,0.4560013,0.2689819,0.6150017
		c0.1780396,0.1590004,0.4170532,0.2389984,0.7140503,0.2389984c0.407959,0,0.7459717-0.1429977,1.0119629-0.4290009
		c0.2659912-0.2859993,0.3989868-0.6489983,0.3989868-1.086998V29.7839966z M86.3435059,32.3839951h-0.8230591v-0.8029976
		h-0.0199585c-0.3590088,0.6160011-0.8850098,0.9230003-1.5809937,0.9230003c-0.5120239,0-0.9130249-0.1350021-1.2030029-0.406002
		c-0.2890015-0.2709999-0.4330444-0.6310005-0.4330444-1.0789986c0-0.9599991,0.5650024-1.519001,1.6960449-1.677002
		l1.5409546-0.2150002c0-0.8739967-0.3539429-1.3099976-1.05896-1.3099976c-0.6199951,0-1.1780396,0.2109985-1.677002,0.632
		v-0.8430023c0.5059814-0.3209991,1.0880127-0.480999,1.7470093-0.480999c1.2080078,0,1.8120117,0.6380005,1.8120117,1.9160004
		V32.3839951z"/>
	<path fill="#2D2A26" d="M92.1154175,28.0776939c-0.144043-0.1099968-0.3510132-0.1659966-0.6220093-0.1659966
		c-0.3520508,0-0.6450195,0.1659966-0.8810425,0.4969978c-0.2359619,0.3320007-0.3540039,0.7830009-0.3540039,1.3549995v2.6200027
		h-0.822998v-5.1389999h0.822998v1.0589981h0.0200195c0.117981-0.3610001,0.2960205-0.6430016,0.5369873-0.8460007
		c0.2410278-0.2019997,0.5100098-0.3029976,0.8080444-0.3029976c0.2139893,0,0.3779907,0.0229988,0.4920044,0.0699997V28.0776939z"
		/>
	<path fill="#2D2A26" d="M97.2306519,32.3333969C97.0366211,32.4403992,96.7806396,32.4944,96.4626465,32.4944
		c-0.9000244,0-1.3500366-0.5020027-1.3500366-1.5060005v-3.0410004h-0.8839722V27.2444h0.8839722v-1.2540016l0.822998-0.2659988
		V27.2444h1.2950439v0.7029991h-1.2950439v2.8950005c0,0.3460007,0.0579834,0.5909996,0.1760254,0.737999
		c0.1159668,0.1479988,0.3099976,0.2210007,0.5819702,0.2210007c0.2070313,0,0.3860474-0.0559998,0.5370483-0.1710014V32.3333969z"
		/>
	<path fill="#2D2A26" d="M107.1681519,32.3835945h-0.8230591v-2.9509964c0-0.5680008-0.0879517-0.9800034-0.2639771-1.2340012
		c-0.1749878-0.2550011-0.4710083-0.382-0.8850098-0.382c-0.3519897,0-0.6499634,0.1609993-0.8959961,0.4819984
		c-0.2459717,0.3209991-0.3690186,0.7060013-0.3690186,1.1539993v2.9309998h-0.822998v-3.0509987
		c0-1.0109978-0.3899536-1.5159988-1.1689453-1.5159988c-0.3619995,0-0.6600342,0.1520004-0.894043,0.4539986
		c-0.2340088,0.3030014-0.3510132,0.6970024-0.3510132,1.1819992v2.9309998h-0.822998v-5.1389999h0.822998v0.8129997h0.0200195
		c0.3649902-0.6219978,0.8970337-0.9329987,1.5960083-0.9329987c0.3510132,0,0.6569824,0.0979996,0.9180298,0.2929993
		c0.2609863,0.196003,0.4400024,0.4530029,0.5369873,0.7700005c0.381958-0.7089996,0.9500122-1.0629997,1.7069702-1.0629997
		c1.1300049,0,1.6960449,0.6970024,1.6960449,2.0930023V32.3835945z"/>
	<path fill="#2D2A26" d="M113.5527344,29.322197c-0.0029907-0.4749985-0.118042-0.8440018-0.3439941-1.1090012
		c-0.2260132-0.2639999-0.5390015-0.3959999-0.94104-0.3959999c-0.3880005,0-0.7179565,0.1389999-0.9889526,0.4160004
		c-0.2709961,0.2779999-0.4380493,0.6409988-0.5010376,1.0890007H113.5527344z M114.395752,30.020195h-3.6280518
		c0.0130005,0.5720024,0.1669922,1.0130005,0.4609985,1.3250008c0.2950439,0.3110008,0.7000122,0.4659996,1.2150269,0.4659996
		c0.5789795,0,1.1110229-0.1899986,1.5960083-0.5709991v0.7719994c-0.4520264,0.3280029-1.0490112,0.4920006-1.7910156,0.4920006
		c-0.7269897,0-1.2979736-0.2329979-1.7119751-0.7000008c-0.4150391-0.4669991-0.6230469-1.1229973-0.6230469-1.9699974
		c0-0.7999992,0.2270508-1.4510002,0.6800537-1.9540024c0.4539795-0.5039978,1.0169678-0.7560005,1.6889648-0.7560005
		c0.6730347,0,1.1929932,0.2180023,1.5610352,0.6529999c0.367981,0.4350014,0.552002,1.0390015,0.552002,1.8110008V30.020195z"/>
	<path fill="#2D2A26" d="M121.4481201,32.3835945h-0.8230591v-2.9309998c0-1.0900002-0.3979492-1.6359978-1.1949463-1.6359978
		c-0.4100342,0-0.7520142,0.1549988-1.0209961,0.4650002c-0.269043,0.3089981-0.4040527,0.6989975-0.4040527,1.1709976v2.9309998
		h-0.822998v-5.1389999h0.822998v0.8530006h0.0200195c0.3889771-0.6489983,0.9509888-0.9729996,1.6870117-0.9729996
		c0.5620117,0,0.9909668,0.1809998,1.2890015,0.5439987c0.2979736,0.3630028,0.4470215,0.8880005,0.4470215,1.5740013V32.3835945z"
		/>
	<path fill="#2D2A26" d="M126.9245605,32.3333969c-0.1940308,0.1070023-0.4500122,0.1610031-0.7680054,0.1610031
		c-0.9000244,0-1.3500366-0.5020027-1.3500366-1.5060005v-3.0410004h-0.8829956V27.2444h0.8829956v-1.2540016l0.822998-0.2659988
		V27.2444h1.2950439v0.7029991h-1.2950439v2.8950005c0,0.3460007,0.059021,0.5909996,0.1760254,0.737999
		c0.1170044,0.1479988,0.3109741,0.2210007,0.5819702,0.2210007c0.2070313,0,0.3860474-0.0559998,0.5370483-0.1710014V32.3333969z"
		/>
</g>
<g>
	<path fill="#2D2A26" d="M105.612915,24.6825943H91.4439087l-0.0339966-0.1149979
		C86.8828735,9.2615967,70.8529053,5.9935989,70.6908569,5.9626007L69.4868774,5.729599l1.223999-0.0849991
		c1.1860352-0.0820007,2.3690186-0.1240005,3.5130005-0.1240005c12.7139893,0,20.5499878,5.147995,24.8840332,9.4669952
		c4.6989746,4.6820068,6.4119873,9.4330025,6.4289551,9.4810028L105.612915,24.6825943z"/>
	<path fill="#1C355E" d="M23.1760254,56.7819977H0l0.0209961-0.1790009
		c2.15802-18.4070015,11.8510132-31.0610008,19.6010132-38.435997c8.3969727-7.9889984,16.3909912-11.6760025,16.4710083-11.711998
		C45.2719727,2.1719971,54.3740234,0,63.1459961,0c13.5930176,0,21.7280273,5.3170013,21.8079834,5.3710022l0.6700439,0.4459991
		l-0.7900391-0.1549988c-3.7789917-0.7440033-7.6369629-1.1210022-11.46698-1.1210022
		c-14.8380127,0-24.960022,5.6520004-25.0610352,5.7089996c-14.6849976,8.5859985-20.7409668,20.7339973-23.2349854,29.4129982
		c-2.7030029,9.4039993-1.9229736,16.8660011-1.914978,16.9409981L23.1760254,56.7819977z"/>
</g>
<g>
</g>
<g>
</g>
<g>
</g>
<g>
</g>
<g>
</g>
<g>
</g>
</svg>
