<?xml version="1.0" encoding="utf-8"?>
<!-- Generator: Adobe Illustrator 24.1.0, SVG Export Plug-In . SVG Version: 6.00 Build 0)  -->
<svg version="1.1" id="Layer_1" xmlns="http://www.w3.org/2000/svg" xmlns:xlink="http://www.w3.org/1999/xlink" x="0px" y="0px"
	 width="533px" height="188px" viewBox="0 0 180.0003662 46.6464844" enable-background="new 0 0 180.0003662 46.6464844" xml:space="preserve">
<polygon fill-rule="evenodd" clip-rule="evenodd" fill="#FFFFFF" points="1.7020264,16.7808838 2.7769775,22.1539307 
	29.2130127,22.1539307 55.2189941,21.0789185 64.6760254,15.7059326 1.7020264,16.565918 "/>
<polyline fill-rule="evenodd" clip-rule="evenodd" fill="#FFFFFF" points="5.2484131,30.3210449 5.2484131,31.8230591 
	64.8903809,31.8230591 64.8903809,30.6220703 "/>
<rect x="2.1314087" y="14.9534912" fill-rule="evenodd" clip-rule="evenodd" fill="#FFFFFF" width="62.6299438" height="3.0300293"/>
<polygon fill-rule="evenodd" clip-rule="evenodd" fill="#FFFFFF" points="0.8422852,14.8464966 1.4872437,15.9215088 
	2.5612793,15.9215088 2.5612793,14.8464966 "/>
<rect x="16.3944702" y="31.2754517" fill-rule="evenodd" clip-rule="evenodd" fill="#FFFFFF" width="47.1539917" height="8.8989868"/>
<g>
	<path fill-rule="evenodd" clip-rule="evenodd" fill="#44698E" d="M78.5292969,3.9089966
		c0,1.1329956-0.3609619,2.1240234-1.0830078,2.9770508c-0.7249756,0.8529663-1.7219238,1.2789917-2.9929199,1.2789917
		c-0.4150391,0-1.1060791-0.0280151-2.0731201-0.0830078c0.059082-1.2340088,0.0900879-2.5969849,0.0900879-4.0889893
		c0-1.4020386-0.0310059-2.6340332-0.0900879-3.6930542h0.6571045c0.1589355,0,0.4019775-0.0059814,0.7279053-0.0179443
		c0.3291016-0.0120239,0.5430908-0.019043,0.6470947-0.019043c1.4060059,0,2.4439697,0.3450317,3.112915,1.0369873
		C78.1953125,1.9920044,78.5292969,2.8610229,78.5292969,3.9089966 M77.491333,4.1790161
		c0-0.8859863-0.2840576-1.6240234-0.8470459-2.2180176s-1.43396-0.8909912-2.6159668-0.8909912
		c-0.1669922,0-0.3959961,0.0200195-0.6870117,0.0610352c0.0319824,0.9279785,0.0489502,1.8829956,0.0489502,2.8619995
		c0,1.0749512,0.0220947,2.1690063,0.0650635,3.2769775c0.3179932,0.0629883,0.6259766,0.0939941,0.9200439,0.0939941
		c1.052002,0,1.8339844-0.3099976,2.3459473-0.9349976C77.2332764,5.8049927,77.491333,5.0560303,77.491333,4.1790161
		 M86.6292725,7.1799927l-0.0360107,0.9020386h-4.8179932c0.0560303-1.2340088,0.0839844-2.5969849,0.0839844-4.0889893
		c0-1.4020386-0.0279541-2.6340332-0.0839844-3.6930542h4.519043l-0.0489502,0.8900146
		c-1.0950928-0.0469971-2.2561035-0.0719604-3.4840088-0.0719604c0.0239258,0.617981,0.0360107,1.4530029,0.0360107,2.5039673
		c1.05896,0,2.0039063-0.0230103,2.8319092-0.0720215v0.8920288c-0.8829346-0.0369873-1.8269043-0.0549927-2.8319092-0.0549927
		c0,1.0239868,0.0189209,1.9849854,0.0539551,2.8829956C84.175293,7.2700195,85.4343262,7.2390137,86.6292725,7.1799927
		 M94.925293,2.2300415c0,0.907959-0.3449707,1.5869751-1.0339355,2.0379639
		c-0.6900635,0.4520264-1.6160889,0.6760254-2.7790527,0.6760254c-0.1469727,0-0.276001-0.0040283-0.3840332-0.0120239
		c0,0.8690186,0.0330811,1.9169922,0.0960693,3.1500244h-1.1469727c0.0599365-1.132019,0.0899658-2.4960327,0.0899658-4.0889893
		c0-1.3710327-0.0300293-2.6010132-0.0899658-3.6930542h0.8549805c0.0919189,0,0.3529053-0.0059814,0.7860107-0.0179443
		c0.4320068-0.0120239,0.7989502-0.019043,1.1029053-0.019043c0.7659912,0,1.3740234,0.1740112,1.8270264,0.5230103
		C94.6983643,1.1350098,94.925293,1.6160278,94.925293,2.2300415 M93.9283447,2.5770264
		c0-1.0239868-0.7010498-1.5360107-2.0999756-1.5360107c-0.3410645,0-0.7270508,0.0289917-1.1530762,0.0900269
		c0.0290527,0.6479492,0.0429688,1.6609497,0.0429688,3.0359497c0.1390381,0.0079956,0.3100586,0.0120239,0.5140381,0.0120239
		C93.0273438,4.1790161,93.9283447,3.644043,93.9283447,2.5770264 M104.0822754,8.0820313h-1.2609863
		c0-0.2680054-0.2509766-1.1060181-0.7529297-2.5159912h-3.4500732c-0.4940186,1.3899536-0.7409668,2.2279663-0.7409668,2.5159912
		h-1.2070313c0-0.1470337,0.5140381-1.4219971,1.5419922-3.8240356c1.0280762-2.3989868,1.5419922-3.7189941,1.5419922-3.9580078
		h1.387085c0,0.2350464,0.4909668,1.5340576,1.4699707,3.9030151
		C103.5922852,6.5700073,104.0822754,7.8630371,104.0822754,8.0820313 M101.7923584,4.78302
		c-0.9360352-2.3400269-1.4030762-3.5830078-1.4030762-3.7299805h-0.0670166c0,0.1219482-0.4840088,1.3670044-1.4530029,3.7299805
		H101.7923584z M112.6943359,8.0820313h-1.1519775c-0.3820801-1.1450195-0.6621094-1.9020386-0.8370361-2.2709961
		c-0.2230225-0.467041-0.4780273-0.7670288-0.7590332-0.9039917c-0.2249756-0.1060181-0.625-0.1610107-1.2020264-0.1610107
		c-0.3380127,0-0.6409912,0.0039673-0.9019775,0.0119629c0,1.2880249,0.0230713,2.3959961,0.0720215,3.3240356h-1.1130371
		c0.0600586-1.2340088,0.0900879-2.5969849,0.0900879-4.0889893c0-1.4020386-0.0300293-2.6340332-0.0900879-3.6930542h0.8430176
		c0.1800537,0,0.4069824-0.0059814,0.6820068-0.0179443c0.2750244-0.0120239,0.5889893-0.019043,0.9450684-0.019043
		c1.7438965,0,2.6169434,0.6019897,2.6169434,1.8060303c0,1-0.4899902,1.7039795-1.4709473,2.1099854v0.059021
		c0.4379883,0.1329956,0.7939453,0.4369507,1.0649414,0.9140015C111.7093506,5.552002,112.1132813,6.5270386,112.6943359,8.0820313
		 M110.866333,2.4750366c0-0.9490356-0.6409912-1.4219971-1.9240723-1.4219971
		c-0.4589844,0-0.8419189,0.0249634-1.1549072,0.0780029c0.0289307,0.6929932,0.0429688,1.6359863,0.0429688,2.8280029
		c0.2390137,0.0059814,0.467041,0.0089722,0.6879883,0.0089722C110.0822754,3.9680176,110.866333,3.4710083,110.866333,2.4750366
		 M120.7232666,0.2999878l-0.0289307,0.8430176c-0.7890625-0.0410156-1.6060791-0.0609741-2.4460449-0.0609741
		c-0.0079346,0.7650146-0.0129395,1.7359619-0.0129395,2.9110107c0,1.2999878,0.0209961,2.6629639,0.0609131,4.0889893h-1.0930176
		c0.0471191-1.3590088,0.0720215-2.7219849,0.0720215-4.0889893c0-1.1589966-0.0119629-2.1300049-0.0369873-2.9110107
		c-0.5899658,0-1.4179688,0.0239868-2.4869385,0.0709839l0.0310059-0.8530273H120.7232666z M131.8422852,8.0820313h-1.1240234
		c0-0.8900146-0.0620117-2.1730347-0.1859131-3.8560181c-0.1220703-1.6809692-0.1890869-2.6889648-0.197998-3.0239868h-0.059082
		c-0.3979492,1.2960205-0.9039307,2.7009888-1.5129395,4.21698c-0.6130371,1.5159912-0.9190674,2.4039917-0.9190674,2.6630249
		h-0.8070068c0-0.2800293-0.2849121-1.184021-0.8549805-2.7120361c-0.5699463-1.5279541-0.9309082-2.5499878-1.0819092-3.0679932
		c-0.151001-0.5189819-0.2550049-0.8859863-0.3100586-1.0999756h-0.0610352
		c-0.0100098,0.5469971-0.0899658,1.6489868-0.2349854,3.3049927c-0.1459961,1.6589966-0.2180176,2.8499756-0.2180176,3.5750122
		h-1.0279541c0-0.0410156,0.1340332-1.1370239,0.4050293-3.2910156c0.2709961-2.1530151,0.4060059-3.6500244,0.4060059-4.4910278
		h1.5739746c0,0.4370117,0.3179932,1.53302,0.9570313,3.2870483c0.6359863,1.7529907,0.9539795,2.815979,0.9539795,3.1849976
		h0.0609131c0-0.3690186,0.3580322-1.434021,1.0760498-3.1950073c0.7180176-1.7590332,1.0749512-2.8500366,1.0749512-3.2770386
		h1.5371094c0,0.8410034,0.0909424,2.3300171,0.2749023,4.4700317
		C131.7503662,6.9110107,131.8422852,8.0140381,131.8422852,8.0820313 M140.3422852,7.1799927l-0.0369873,0.9020386h-4.81604
		c0.0550537-1.2340088,0.0830078-2.5969849,0.0830078-4.0889893c0-1.4020386-0.0279541-2.6340332-0.0830078-3.6930542h4.5180664
		l-0.0479736,0.8900146c-1.0960693-0.0469971-2.2570801-0.0719604-3.486084-0.0719604
		c0.0250244,0.617981,0.0369873,1.4530029,0.0369873,2.5039673c1.059082,0,2.0040283-0.0230103,2.8320313-0.0720215v0.8920288
		c-0.8829346-0.0369873-1.8280029-0.0549927-2.8320313-0.0549927c0,1.0239868,0.019043,1.9849854,0.0531006,2.8829956
		C137.8873291,7.2700195,139.1473389,7.2390137,140.3422852,7.1799927 M149.3913574,8.0820313h-0.8370361
		c0-0.0679932-0.6529541-1.0230103-1.9599609-2.8630371c-1.3670654-1.93396-2.1470947-3.1519775-2.3360596-3.657959h-0.0620117
		c0.0720215,0.9589844,0.1090088,1.782959,0.1090088,2.4689941c0,1.3380127,0.0300293,2.6889648,0.0889893,4.052002h-1.0029297
		c0.0668945-1.2960205,0.1009521-2.6589966,0.1009521-4.0889893c0-1.4060059-0.0340576-2.6380005-0.1009521-3.6930542h1.1459961
		c0,0.1100464,0.6019287,1.0200195,1.8059082,2.7240601c1.2580566,1.7929688,1.9770508,2.9619751,2.1520996,3.5029907h0.05896
		c-0.0670166-0.9710083-0.1020508-1.7969971-0.1020508-2.4750366c0-1.4729614-0.026001-2.7260132-0.0839844-3.7520142h1.0230713
		c-0.0670166,1.0550537-0.1020508,2.2870483-0.1020508,3.6930542
		C149.2893066,5.4230347,149.3243408,6.7860107,149.3913574,8.0820313 M158.1483154,0.2999878l-0.0290527,0.8430176
		c-0.7889404-0.0410156-1.6049805-0.0609741-2.4459229-0.0609741c-0.0080566,0.7650146-0.0130615,1.7359619-0.0130615,2.9110107
		c0,1.2999878,0.0209961,2.6629639,0.0620117,4.0889893h-1.0939941c0.0479736-1.3590088,0.0720215-2.7219849,0.0720215-4.0889893
		c0-1.1589966-0.0130615-2.1300049-0.0369873-2.9110107c-0.5889893,0-1.4179688,0.0239868-2.4870605,0.0709839l0.0310059-0.8530273
		H158.1483154z M172.1512451,4.0710449c0,1.2869873-0.3779297,2.3150024-1.1298828,3.0869751
		c-0.7540283,0.7709961-1.625,1.1560059-2.6120605,1.1560059c-0.9489746,0-1.7790527-0.3530273-2.4949951-1.0610352
		c-0.717041-0.7049561-1.0739746-1.6619873-1.0739746-2.8659668c0-1.302002,0.3779297-2.3359985,1.1309814-3.098999
		c0.7519531-0.7630005,1.6240234-1.1450195,2.6109619-1.1450195c0.9489746,0,1.7810059,0.3550415,2.4959717,1.0610352
		C171.793335,1.9120483,172.1512451,2.8670044,172.1512451,4.0710449 M171.0872803,4.2090454
		c0-1.0280151-0.2700195-1.8240356-0.80896-2.3890381c-0.5400391-0.5629883-1.1629639-0.8439941-1.8690186-0.8439941
		c-0.6529541,0-1.2349854,0.2949829-1.7449951,0.8889771c-0.5100098,0.5940552-0.7650146,1.3880005-0.7650146,2.3790283
		c0,1.03302,0.2719727,1.8300171,0.81604,2.3939819c0.5439453,0.5640259,1.164917,0.8460083,1.8669434,0.8460083
		c0.6530762,0,1.2349854-0.2999878,1.7420654-0.9019775C170.833252,5.9800415,171.0872803,5.1890259,171.0872803,4.2090454
		 M180.0003662,0.2999878l-0.0500488,0.8900146c-1.05896-0.0469971-2.2600098-0.0719604-3.6020508-0.0719604
		c0.0469971,0.6609497,0.0720215,1.5739746,0.0720215,2.7379761c0.9350586,0,1.8449707-0.0159912,2.730957-0.0479736v0.8669434
		c-0.8519287-0.032959-1.7648926-0.0469971-2.730957-0.0469971c0,1.5560303,0.0209961,2.7090454,0.0639648,3.4540405h-1.0869141
		c0.0549316-1.2340088,0.0839844-2.5969849,0.0839844-4.0889893c0-1.4020386-0.0290527-2.6340332-0.0839844-3.6930542H180.0003662z"
		/>
	<path fill-rule="evenodd" clip-rule="evenodd" fill="#44698E" d="M77.4718018,41.9143066
		c0,1.3649902-0.9509277,2.0499878-2.8519287,2.0499878c-0.6960449,0-1.3129883-0.0790405-1.8520508-0.2390137l0.1950684-0.8690186
		c0.6199951,0.2139893,1.2089844,0.3220215,1.7659912,0.3220215c1.2559814,0,1.8839111-0.3560181,1.8839111-1.0650024
		c0-0.3579712-0.1619873-0.6640015-0.487915-0.9199829c-0.217041-0.1700439-0.6450195-0.3970337-1.2840576-0.6820068
		c-0.6729736-0.2990112-1.1439209-0.572998-1.4129639-0.8250122c-0.3740234-0.3480225-0.5600586-0.78302-0.5600586-1.3070068
		c0-0.5479736,0.1890869-0.9920044,0.5720215-1.3369751c0.4229736-0.3840332,1.0250244-0.5740356,1.8000488-0.5740356
		c0.8800049,0,1.480957,0.0560303,1.8060303,0.1710205l-0.1340332,0.8800049
		c-0.5600586-0.1760254-1.157959-0.2650146-1.7890625-0.2650146c-0.9499512,0-1.4239502,0.3179932-1.4239502,0.9530029
		c0,0.3060303,0.1379395,0.5640259,0.4100342,0.7700195c0.1779785,0.1289673,0.5689697,0.3250122,1.1749268,0.5859985
		c0.6900635,0.3009644,1.1890869,0.5849609,1.4949951,0.8549805C77.2408447,40.8252563,77.4718018,41.3222656,77.4718018,41.9143066
		 M82.2088623,43.0162964l-0.06604,0.7219849c-0.2919922,0.1049805-0.5679932,0.1599731-0.8249512,0.1599731
		c-0.6660156,0-1.1190186-0.1699829-1.3630371-0.5089722c-0.2440186-0.3359985-0.3669434-0.940979-0.3669434-1.8129883
		c0-0.56604,0.0029297-1.3030396,0.0109863-2.2109985c-0.2060547,0-0.5109863,0.0109863-0.9130859,0.0339966l0.0321045-0.8040161
		c0.3519287,0.0230103,0.6660156,0.0319824,0.9429932,0.0319824c0-0.2210083,0.0169678-0.7469482,0.0559082-1.5789795
		l0.8690186-0.0869751c-0.0620117,0.7749634-0.0939941,1.3309937-0.0939941,1.6659546
		c0.361084,0,0.894043-0.0169678,1.5960693-0.0549927l-0.0400391,0.8270264
		c-0.6639404-0.0230103-1.1989746-0.0339966-1.5999756-0.0339966c-0.0080566,0.5570068-0.0109863,1.1849976-0.0109863,1.8839722
		c0,0.7600098,0.0789795,1.2640381,0.2399902,1.5090332c0.1610107,0.2459717,0.4599609,0.3689575,0.8950195,0.3689575
		C81.7148438,43.1272583,81.928833,43.090271,82.2088623,43.0162964 M87.8278809,43.78125l-0.8709717,0.0340576
		c-0.0430908-0.1820068-0.0650635-0.3540039-0.0650635-0.5170288h-0.0560303
		c-0.4549561,0.414978-1.072998,0.6209717-1.8569336,0.6209717c-0.4250488,0-0.7900391-0.125-1.0970459-0.375
		c-0.3060303-0.2469482-0.4589844-0.6029663-0.4589844-1.0649414c0-0.5690308,0.2399902-1.026001,0.7209473-1.3720093
		c0.4801025-0.3450317,1.3699951-0.526001,2.6760254-0.5450439c0.0109863-0.0889893,0.0159912-0.190979,0.0159912-0.3049927
		c0-0.4549561-0.1209717-0.7579956-0.362915-0.9089966c-0.2420654-0.151001-0.6090088-0.2269897-1.1000977-0.2269897
		c-0.5809326,0-1.1499023,0.0709839-1.7119141,0.2150269l0.0949707-0.7640381
		c0.5539551-0.157959,1.1889648-0.2379761,1.9100342-0.2379761c0.657959,0,1.1669922,0.1359863,1.5239258,0.4069824
		c0.3580322,0.2720337,0.5369873,0.7360229,0.5369873,1.3880005c0,0.1730347-0.0079346,0.4899902-0.0249023,0.9450073
		c-0.0170898,0.4559937-0.0240479,0.7609863-0.0240479,0.9119873C87.6778564,42.6582642,87.7268066,43.2572632,87.8278809,43.78125
		 M86.8458252,42.7062988c-0.0169678-0.5610352-0.026001-1.06604-0.026001-1.5130005
		c-0.6939697,0-1.223999,0.0509644-1.5849609,0.1560059c-0.605957,0.1849976-0.9100342,0.5369873-0.9100342,1.0569458
		c0,0.5030518,0.3560791,0.7550049,1.0650635,0.7550049C85.9989014,43.1612549,86.4848633,43.0092773,86.8458252,42.7062988
		 M92.6907959,43.0162964l-0.0649414,0.7219849c-0.2919922,0.1049805-0.5679932,0.1599731-0.8249512,0.1599731
		c-0.6660156,0-1.1199951-0.1699829-1.3640137-0.5089722c-0.2440186-0.3359985-0.3670654-0.940979-0.3670654-1.8129883
		c0-0.56604,0.0040283-1.3030396,0.012085-2.2109985c-0.2070313,0-0.5111084,0.0109863-0.9140625,0.0339966l0.0319824-0.8040161
		c0.3520508,0.0230103,0.6660156,0.0319824,0.9439697,0.0319824c0-0.2210083,0.0170898-0.7469482,0.0550537-1.5789795
		l0.8699951-0.0869751c-0.0629883,0.7749634-0.0949707,1.3309937-0.0949707,1.6659546
		c0.3609619,0,0.8939209-0.0169678,1.5959473-0.0549927l-0.039917,0.8270264
		c-0.6630859-0.0230103-1.1990967-0.0339966-1.598999-0.0339966c-0.0080566,0.5570068-0.012085,1.1849976-0.012085,1.8839722
		c0,0.7600098,0.0800781,1.2640381,0.2410889,1.5090332c0.1599121,0.2459717,0.4589844,0.3689575,0.8939209,0.3689575
		C92.197876,43.1272583,92.4108887,43.090271,92.6907959,43.0162964 M98.6918945,40.5282593
		c0,0.1550293-0.0080566,0.3710327-0.0220947,0.6430054l-3.8059082,0.06604
		c0.0360107,0.5390015,0.2459717,0.9899902,0.6259766,1.355957c0.3800049,0.3630371,0.8829346,0.5450439,1.5129395,0.5450439
		c0.559082,0,1.0880127-0.0680542,1.5770264-0.2040405l-0.092041,0.7810059
		c-0.362915,0.1430054-0.8848877,0.2150269-1.5668945,0.2150269c-0.9620361,0-1.6929932-0.2630005-2.197998-0.7860107
		c-0.5061035-0.5239868-0.7570801-1.1640015-0.7570801-1.9180298c0-0.8039551,0.2299805-1.4979858,0.6900635-2.0799561
		c0.4599609-0.5809937,1.0780029-0.8720093,1.8530273-0.8720093c0.7128906,0,1.2539063,0.2099609,1.6259766,0.6309814
		C98.5068359,39.3262939,98.6918945,39.8682861,98.6918945,40.5282593 M97.7668457,40.5393066
		c0-1.0380249-0.4349365-1.5560303-1.3029785-1.5560303c-0.8850098,0-1.407959,0.5390015-1.5679932,1.6170044L97.7668457,40.5393066
		z M108.7398682,40.9873047c0,0.9459839-0.2719727,1.6859741-0.8150635,2.2149658
		c-0.5419922,0.5300293-1.1820068,0.7940063-1.9169922,0.7940063c-0.6870117,0-1.2769775-0.2340088-1.7709961-0.7039795
		c-0.4929199-0.4680176-0.7390137-1.1279907-0.7390137-1.9830322c0-0.9530029,0.2720947-1.6959839,0.8170166-2.230957
		c0.5440674-0.5380249,1.1850586-0.8040161,1.9190674-0.8040161c0.6889648,0,1.2769775,0.2359619,1.7679443,0.7109985
		C108.4938965,39.4602661,108.7398682,40.1272583,108.7398682,40.9873047 M107.7808838,41.182251
		c0-0.5769653-0.1450195-1.0889893-0.4350586-1.5369873c-0.2910156-0.447998-0.7030029-0.6740112-1.237915-0.6740112
		c-0.5321045,0-0.9420166,0.2120361-1.2280273,0.6380005c-0.2850342,0.4250488-0.4290771,0.9170532-0.4290771,1.4780273
		c0,0.5819702,0.1459961,1.0930176,0.4350586,1.5419922c0.2889404,0.4459839,0.7030029,0.6690063,1.2449951,0.6690063
		c0.5300293,0,0.9389648-0.2130127,1.2230225-0.6389771C107.6368408,42.2322998,107.7808838,41.7402954,107.7808838,41.182251
		 M113.5548096,35.9192505l-0.1610107,0.7300415c-0.2209473-0.0549927-0.4429932-0.0809937-0.6639404-0.0809937
		c-0.3399658,0-0.5710449,0.131958-0.6900635,0.401001c-0.1209717,0.2680054-0.1789551,0.8209839-0.1789551,1.657959
		c0.3640137,0,0.8769531-0.0169678,1.532959-0.0549927l-0.0310059,0.8270264
		c-0.7479248-0.0230103-1.25-0.0339966-1.5019531-0.0339966c0,1.6809692,0.0209961,3.1530151,0.06604,4.4159546h-0.993042
		c0.0529785-1.2299805,0.0770264-2.7029419,0.0770264-4.4159546c-0.2249756,0-0.618042,0.0109863-1.1800537,0.0339966
		l0.0400391-0.8150024c0.5100098,0.0299683,0.8900146,0.0429688,1.1400146,0.0429688
		c0-0.9779663,0.1379395-1.690979,0.4110107-2.1349487c0.2739258-0.4450073,0.7089844-0.6670532,1.3079834-0.6670532
		C112.9908447,35.8252563,113.2678223,35.8562622,113.5548096,35.9192505 M127.0318604,36.5682983
		c0,0.2680054-0.3990479,1.4769897-1.1970215,3.6229858c-0.7979736,2.1450195-1.1960449,3.34198-1.1960449,3.5899658h-0.7199707
		c0-0.3259888-0.2919922-1.2679443-0.8699951-2.8259888c-0.6309814-1.6889648-0.9909668-2.7749634-1.0770264-3.2639771h-0.0709229
		c-0.0739746,0.5180054-0.3909912,1.6259766-0.9539795,3.3250122c-0.5230713,1.59198-0.7850342,2.5130005-0.7850342,2.7649536
		h-0.7210693c0-0.3769531-0.388916-1.6399536-1.1708984-3.7869873c-0.7810059-2.1480103-1.1730957-3.289978-1.1730957-3.4259644
		h1.0531006c0,0.151001,0.2810059,1.105957,0.8409424,2.867981c0.5600586,1.7630005,0.8389893,2.8410034,0.8389893,3.2369995
		h0.0610352c0-0.4179688,0.282959-1.4910278,0.8519287-3.2180176c0.5690918-1.7259521,0.8530273-2.6889648,0.8530273-2.8869629
		h0.9710693c0,0.2379761,0.2939453,1.2630005,0.8869629,3.0709839c0.5889893,1.8079834,0.8850098,2.8200073,0.8850098,3.0339966
		h0.0620117c0-0.3619995,0.2689209-1.3870239,0.8060303-3.0720215c0.5369873-1.6869507,0.8059082-2.6989746,0.8059082-3.032959
		H127.0318604z M132.2338867,43.78125l-0.8699951,0.0340576c-0.0430908-0.1820068-0.06604-0.3540039-0.06604-0.5170288h-0.0550537
		c-0.4549561,0.414978-1.0739746,0.6209717-1.8569336,0.6209717c-0.4250488,0-0.7900391-0.125-1.0970459-0.375
		c-0.3059082-0.2469482-0.4599609-0.6029663-0.4599609-1.0649414c0-0.5690308,0.2409668-1.026001,0.7209473-1.3720093
		c0.4810791-0.3450317,1.3710938-0.526001,2.6760254-0.5450439c0.0109863-0.0889893,0.0169678-0.190979,0.0169678-0.3049927
		c0-0.4549561-0.1209717-0.7579956-0.362915-0.9089966c-0.2420654-0.151001-0.6090088-0.2269897-1.0999756-0.2269897
		c-0.5820313,0-1.1500244,0.0709839-1.7120361,0.2150269l0.0949707-0.7640381
		c0.5539551-0.157959,1.1900635-0.2379761,1.9100342-0.2379761c0.657959,0,1.1660156,0.1359863,1.5239258,0.4069824
		c0.3580322,0.2720337,0.5369873,0.7360229,0.5369873,1.3880005c0,0.1730347-0.0079346,0.4899902-0.0249023,0.9450073
		c-0.0170898,0.4559937-0.0240479,0.7609863-0.0240479,0.9119873
		C132.0848389,42.6582642,132.1337891,43.2572632,132.2338867,43.78125 M131.2528076,42.7062988
		c-0.0169678-0.5610352-0.0269775-1.06604-0.0269775-1.5130005c-0.6939697,0-1.2230225,0.0509644-1.5839844,0.1560059
		c-0.605957,0.1849976-0.9100342,0.5369873-0.9100342,1.0569458c0,0.5030518,0.3560791,0.7550049,1.0640869,0.7550049
		C130.4049072,43.1612549,130.8908691,43.0092773,131.2528076,42.7062988 M137.5808105,42.2792969
		c0,1.0780029-0.6889648,1.6189575-2.0679932,1.6189575c-0.6090088,0-1.1779785-0.0629883-1.7059326-0.1829834l0.1729736-0.815979
		c0.4799805,0.1859741,1,0.2789917,1.5620117,0.2789917c0.8049316,0,1.2080078-0.2290039,1.2080078-0.6890259
		c0-0.2209473-0.0910645-0.3979492-0.2680664-0.5269775c-0.1799316-0.1329956-0.4769287-0.2789917-0.8909912-0.4420166
		c-0.5239258-0.2069702-0.9039307-0.4060059-1.1409912-0.598999c-0.3469238-0.282959-0.5209961-0.6270142-0.5209961-1.0299683
		c0-0.4200439,0.157959-0.7820435,0.4760742-1.0820313c0.3179932-0.3029785,0.802002-0.4519653,1.4519043-0.4519653
		c0.6359863,0,1.1450195,0.0529785,1.5310059,0.1599731l-0.1729736,0.7990112
		c-0.3990479-0.1600342-0.8599854-0.2379761-1.3859863-0.2379761c-0.7089844,0-1.0620117,0.2039795-1.0620117,0.6139526
		c0,0.2059937,0.0789795,0.3740234,0.2370605,0.5010376c0.1599121,0.1269531,0.4699707,0.2819824,0.9309082,0.4629517
		c0.4990234,0.1950073,0.868042,0.3880005,1.1080322,0.5750122
		C137.4008789,41.524292,137.5808105,41.8722534,137.5808105,42.2792969 M144.1578369,43.78125h-1.0079346
		c0.0809326-0.9719849,0.1209717-2.0159912,0.1209717-3.1359863c0-0.598999-0.1120605-1.0019531-0.335083-1.2099609
		c-0.2229004-0.210022-0.532959-0.3140259-0.9279785-0.3140259c-0.5549316,0-1.072998,0.190979-1.5570068,0.5709839
		c0,2.0159912,0.0150146,3.3800049,0.0450439,4.0889893h-0.9759521c0.0349121-0.9759521,0.0499268-2.3529663,0.0499268-4.1339722
		c0-1.559021-0.0529785-2.7789917-0.1610107-3.6610107l1.0529785-0.0559692
		c-0.0299072,1.125-0.0429688,2.1709595-0.0429688,3.1359863h0.0319824c0.5540771-0.4879761,1.1610107-0.7319946,1.822998-0.7319946
		c0.592041,0,1.0540771,0.1380005,1.3859863,0.4119873c0.3310547,0.276001,0.4980469,0.7590332,0.4980469,1.4489746
		c0,0.0720215-0.0040283,0.2080078-0.0119629,0.4140015c-0.0070801,0.2040405-0.0109863,0.3840332-0.0109863,0.5390015
		C144.1348877,41.682251,144.1428223,42.5603027,144.1578369,43.78125 M147.0338135,43.78125h-1.0019531
		c0.0510254-0.7399902,0.0770264-1.5829468,0.0770264-2.5319824c0-1.0670166-0.0640869-1.9639893-0.1950684-2.6879883
		l1.1090088-0.1500244c-0.0439453,0.7720337-0.065918,1.7180176-0.065918,2.8380127
		C146.9569092,42.1352539,146.9827881,42.9793091,147.0338135,43.78125 M147.2668457,36.8552856
		c0,0.1870117-0.0610352,0.3519897-0.18396,0.4899902c-0.1199951,0.1380005-0.2930908,0.2080078-0.5140381,0.2080078
		c-0.1899414,0-0.3349609-0.0609741-0.44104-0.1790161c-0.105957-0.1220093-0.1569824-0.2650146-0.1569824-0.4359741
		c0-0.1849976,0.0629883-0.3460083,0.1879883-0.4819946c0.1259766-0.1370239,0.2990723-0.2050171,0.5220947-0.2050171
		c0.1789551,0,0.322998,0.059021,0.4289551,0.1809692C147.2138672,36.5512695,147.2668457,36.6922607,147.2668457,36.8552856
		 M153.6168213,43.78125h-1.0079346c0.0809326-0.9719849,0.1209717-2.0319824,0.1209717-3.1809692
		c0-0.5679932-0.1159668-0.9569702-0.3460693-1.164978c-0.230957-0.210022-0.55896-0.3140259-0.9888916-0.3140259
		c-0.5240479,0-1.0080566,0.190979-1.4510498,0.5709839c0,1.2590332,0.0080566,2.6230469,0.0229492,4.0889893h-1.0098877
		c0.0649414-1.2559814,0.0949707-2.1659546,0.0949707-2.7259521c0-0.8640137-0.0820313-1.7030029-0.2440186-2.5150146
		l0.9759521-0.1400146l0.1030273,0.6780396h0.0460205c0.5469971-0.4960327,1.1329346-0.7440186,1.756958-0.7440186
		c0.6130371,0,1.0870361,0.1359863,1.4240723,0.4069824c0.3349609,0.2720337,0.5029297,0.7540283,0.5029297,1.4500122
		c0,0.0700073-0.0040283,0.2089844-0.0109863,0.4140015c-0.0079346,0.2080078-0.0109863,0.3460083-0.0109863,0.4160156
		C153.5948486,41.6383057,153.6018066,42.5603027,153.6168213,43.78125 M160.6998291,37.8202515l-0.0899658,0.7640381
		c-0.6879883,0-1.0670166,0.1109619-1.1359863,0.3330078v0.0539551c0.2359619,0.2880249,0.3549805,0.6170044,0.3549805,0.9869995
		c0,0.5750122-0.1879883,1.052002-0.5689697,1.4260254c-0.3780518,0.375-0.9630127,0.5620117-1.7530518,0.5620117
		c-0.3499756,0-0.6300049-0.0360107-0.8359375-0.1099854c-0.1820068,0.1289673-0.2720947,0.289978-0.2720947,0.4829712
		c0,0.2360229,0.1080322,0.3930054,0.3210449,0.4710083c0.2750244,0.1019897,0.8439941,0.1549683,1.7110596,0.1549683
		c1.4058838,0,2.1079102,0.4650269,2.1079102,1.3960571c0,0.6629639-0.2750244,1.2139893-0.8209229,1.651001
		c-0.5469971,0.4349976-1.2540283,0.6539917-2.1220703,0.6539917c-0.8909912,0-1.5239258-0.1630249-1.9029541-0.4860229
		c-0.3800049-0.3239746-0.5679932-0.7109985-0.5679932-1.164978c0-0.4140015,0.0939941-0.7470093,0.2789307-0.9990234
		c0.1870117-0.2509766,0.4200439-0.4060059,0.6960449-0.4650269v-0.0489502
		c-0.2910156-0.1400146-0.4370117-0.4100342-0.4370117-0.809021c0-0.3619995,0.18396-0.6790161,0.5550537-0.9539795v-0.0430298
		c-0.1970215-0.0969849-0.3850098-0.2589722-0.5600586-0.4879761c-0.1779785-0.2290039-0.2679443-0.5150146-0.2679443-0.8530273
		c0-0.5880127,0.1949463-1.0669556,0.5830078-1.4359741c0.3879395-0.3690186,0.9489746-0.5530396,1.6829834-0.5530396
		c0.6040039,0,1.0769043,0.1090088,1.4189453,0.3270264h0.0600586c0.1199951-0.625,0.4299316-0.9370117,0.9320068-0.9370117
		C160.3398438,37.7362671,160.5509033,37.7642822,160.6998291,37.8202515 M159.7069092,44.7172852
		c0-0.3460083-0.1270752-0.59198-0.3790283-0.7340088c-0.2530518-0.1419678-0.7290039-0.2130127-1.4279785-0.2130127
		c-0.4730225,0-0.9040527-0.0230103-1.2950439-0.0669556c-0.4530029,0.2179565-0.677002,0.5369873-0.677002,0.9589844
		c0,0.8999634,0.592041,1.3519897,1.7740479,1.3519897c0.6169434,0,1.1040039-0.1209717,1.4649658-0.3610229
		C159.5268555,45.4122925,159.7069092,45.1012573,159.7069092,44.7172852 M158.9368896,40.1853027
		c0-0.4060059-0.1290283-0.7180176-0.3859863-0.934021c-0.2561035-0.2150269-0.5820313-0.322998-0.9780273-0.322998
		c-0.3720703,0-0.6850586,0.1040039-0.9360352,0.3120117s-0.3759766,0.5050049-0.3759766,0.8889771
		c0,0.4019775,0.1279297,0.7089844,0.3859863,0.9210205c0.2559814,0.2099609,0.5859375,0.315979,0.9890137,0.315979
		c0.368042,0,0.6760254-0.1049805,0.927002-0.309021C158.8118896,40.8532715,158.9368896,40.5622559,158.9368896,40.1853027
		 M165.296875,43.0162964l-0.06604,0.7219849c-0.2919922,0.1049805-0.5679932,0.1599731-0.8249512,0.1599731
		c-0.6660156,0-1.1190186-0.1699829-1.3640137-0.5089722c-0.2440186-0.3359985-0.3670654-0.940979-0.3670654-1.8129883
		c0-0.56604,0.0040283-1.3030396,0.012085-2.2109985c-0.2060547,0-0.5109863,0.0109863-0.9140625,0.0339966l0.0330811-0.8040161
		c0.3509521,0.0230103,0.664917,0.0319824,0.9429932,0.0319824c0-0.2210083,0.0179443-0.7469482,0.0549316-1.5789795
		l0.8709717-0.0869751c-0.0629883,0.7749634-0.0949707,1.3309937-0.0949707,1.6659546
		c0.3599854,0,0.894043-0.0169678,1.5949707-0.0549927l-0.0389404,0.8270264
		c-0.6640625-0.0230103-1.1989746-0.0339966-1.5999756-0.0339966c-0.0070801,0.5570068-0.012085,1.1849976-0.012085,1.8839722
		c0,0.7600098,0.0800781,1.2640381,0.2410889,1.5090332c0.1599121,0.2459717,0.4589844,0.3689575,0.8939209,0.3689575
		C164.8028564,43.1272583,165.0168457,43.090271,165.296875,43.0162964 M171.8138428,40.9873047
		c0,0.9459839-0.2729492,1.6859741-0.81604,2.2149658c-0.5419922,0.5300293-1.1820068,0.7940063-1.9169922,0.7940063
		c-0.6870117,0-1.2769775-0.2340088-1.7700195-0.7039795c-0.4938965-0.4680176-0.7399902-1.1279907-0.7399902-1.9830322
		c0-0.9530029,0.2720947-1.6959839,0.8170166-2.230957c0.5450439-0.5380249,1.1860352-0.8040161,1.9200439-0.8040161
		c0.6879883,0,1.2769775,0.2359619,1.7679443,0.7109985C171.5678711,39.4602661,171.8138428,40.1272583,171.8138428,40.9873047
		 M170.8548584,41.182251c0-0.5769653-0.1459961-1.0889893-0.4360352-1.5369873
		c-0.289917-0.447998-0.7030029-0.6740112-1.237915-0.6740112c-0.5321045,0-0.9420166,0.2120361-1.2280273,0.6380005
		c-0.2850342,0.4250488-0.4290771,0.9170532-0.4290771,1.4780273c0,0.5819702,0.1459961,1.0930176,0.4350586,1.5419922
		c0.2889404,0.4459839,0.7039795,0.6690063,1.2440186,0.6690063c0.5319824,0,0.940918-0.2130127,1.223999-0.6389771
		C170.7108154,42.2322998,170.8548584,41.7402954,170.8548584,41.182251 M178.2069092,43.78125h-1.0080566
		c0.0820313-0.9719849,0.1209717-2.0319824,0.1209717-3.1809692c0-0.5679932-0.1149902-0.9569702-0.3449707-1.164978
		c-0.2320557-0.210022-0.5600586-0.3140259-0.9899902-0.3140259c-0.5240479,0-1.0080566,0.190979-1.4500732,0.5709839
		c0,1.2590332,0.0080566,2.6230469,0.0220947,4.0889893h-1.0100098c0.0649414-1.2559814,0.0949707-2.1659546,0.0949707-2.7259521
		c0-0.8640137-0.0810547-1.7030029-0.243042-2.5150146l0.9750977-0.1400146l0.1040039,0.6780396h0.0458984
		c0.5460205-0.4960327,1.1320801-0.7440186,1.7561035-0.7440186c0.612915,0,1.0878906,0.1359863,1.4249268,0.4069824
		c0.3339844,0.2720337,0.5020752,0.7540283,0.5020752,1.4500122c0,0.0700073-0.0040283,0.2089844-0.0111084,0.4140015
		c-0.0079346,0.2080078-0.0119629,0.3460083-0.0119629,0.4160156
		C178.1838379,41.6383057,178.1918945,42.5603027,178.2069092,43.78125"/>
	<path fill-rule="evenodd" clip-rule="evenodd" fill="#44698E" d="M179.635498,14.4949341
		c0.0109863,0.052002-0.0009766,0.4389648-0.0490723,0.5859985c-0.2019043,0.6079712-0.8309326,1.6029663-1.5219727,2.5719604
		c-1.2290039,1.7270508-2.3969727,3.3920288-2.8060303,4.1230469c-0.8859863,1.5910034-1.3959961,2.7209473-1.3959961,3.5869751
		c0,1.6370239,0.06604,3.7009888,0.1810303,5.4349976h-2.9719238c0.1029053-1.6450195,0.1359863-3.4580078,0.1619873-5.3059692
		c0.013916-0.9530029-0.447998-2.3510132-1.3560791-4.0100098c-0.5189209-0.9460449-1.3800049-2.2720337-2.5819092-4.052002
		c-0.6459961-0.9570313-1.2709961-1.8859863-1.467041-2.460022c-0.0550537-0.1599731-0.0209961-0.3939819-0.0100098-0.4760132
		h3.1070557c0,0.0360107-0.0360107,0.2380371,0.0009766,0.3309937c0.223999,0.5570068,0.9919434,1.9430542,2.0639648,3.7109985
		c0.4169922,0.6900024,1.467041,2.5170288,1.8809814,3.6300049c0.3840332-1.0319824,0.7089844-1.6149902,1.7659912-3.4939575
		c1.0820313-1.9240112,2.0180664-3.5740356,2.0180664-3.8920288v-0.2849731H179.635498z M163.5565186,30.3729248
		c-1.302002,0.427002-2.697998,0.7340088-4.3599854,0.7340088c-2.7880859,0-5.0380859-0.7180176-6.6140137-2.2770386
		c-1.5240479-1.5059814-2.3310547-3.3729858-2.3310547-5.8499756c0-2.2189941,0.7929688-4.4180298,2.4799805-6.1339722
		c1.5900879-1.6160278,3.7449951-2.5740356,6.7919922-2.5740356c0.9849854,0,2.2280273,0.1890259,3.2041016,0.4609985
		l-0.4400635,2.6119995c-1.3470459-0.3640137-2.7039795-0.5869751-3.5059814-0.5869751
		c-1.598999,0-3.2070313,0.4779663-4.2280273,1.6419678c-1.0219727,1.1650391-1.5159912,2.5050049-1.5159912,4.2310181
		c0,1.7349854,0.5620117,3.0629883,1.7340088,4.3659668c1.032959,1.1480103,2.6409912,1.8670044,4.7779541,1.8670044
		c0.3909912,0,0.7080078-0.032959,1.4890137-0.151001c-0.1240234-0.8269653-0.1550293-1.5539551-0.1550293-2.6489868
		c0-0.9240112-0.1049805-2.1560059-0.2149658-3.0349731h2.9030762c-0.0650635,1.0459595-0.1361084,2.4859619-0.1361084,3.6539917
		C163.4354248,27.1838989,163.4924316,28.5899048,163.5565186,30.3729248 M129.8544922,28.3898926l-0.1190186,2.40802h-10.2049561
		c0.0939941-1.9630127,0.1809082-5.0510254,0.1809082-8.5269775c0-2.9880371-0.0819092-5.8560181-0.1749268-7.7780151h2.9249268
		c-0.0979004,1.6040039-0.1759033,4.4719849-0.1759033,7.7780151c0,2.7189941-0.0230713,4.6409912-0.1120605,6.2810059
		C124.5584717,28.5519409,127.2324219,28.4789429,129.8544922,28.3898926 M112.8995361,22.6619263
		c0-2.0510254-0.5010986-3.4160156-1.5770264-4.5419922c-1.0770264-1.1260376-2.3070068-1.6459961-3.4909668-1.6459961
		c-1.3040771,0-2.3580322,0.4719849-3.3760986,1.6560059c-1.0169678,1.1849976-1.526001,2.6489868-1.526001,4.6279907
		c0,2.0599976,0.5620117,3.5769653,1.6149902,4.6560059c0.9541016,0.9790039,2.2449951,1.5440063,3.6459961,1.5440063
		c1.2630615,0,2.4360352-0.7300415,3.2260742-1.7200317C112.3964844,26.0098877,112.8995361,24.6159058,112.8995361,22.6619263
		 M115.6925049,22.3588867c0,2.6350098-0.8210449,5.0720215-2.4140625,6.5160522
		c-1.4489746,1.3139648-3.1350098,2.401001-5.473999,2.401001c-2.2489014,0-3.8699951-0.8340454-5.3209229-2.2230225
		c-1.6390381-1.5679932-2.3400879-3.5949707-2.3400879-5.9970093c0-2.5969849,0.6490479-4.6350098,2.4541016-6.5
		c1.4869385-1.5369873,3.3319092-2.3499756,5.5389404-2.3499756c1.8930664,0,3.6290283,0.6629639,5.2299805,2.1829834
		C114.8304443,17.7789307,115.6925049,19.9569092,115.6925049,22.3588867 M97.9174805,28.1439209l-0.2049561,2.4420166
		c-0.94104,0.322998-2.3291016,0.5199585-3.6340332,0.5199585c-2.7860107,0-5.0250244-0.7890015-6.4110107-2.3280029
		c-1.3619385-1.5109863-2.2530518-3.6049805-2.2530518-5.7669678c0-2.2670288,1.1240234-4.6730347,2.6550293-6.3129883
		c1.5340576-1.6450195,3.7600098-2.4310303,6.3530273-2.4310303c0.7159424,0,1.8830566,0.2260132,2.6789551,0.4420166
		l-0.4519043,2.5020142c-0.9160156-0.2890015-2.0350342-0.493042-2.7520752-0.493042
		c-1.9249268,0-3.25,0.507019-4.2429199,1.7000122c-0.9940186,1.1920166-1.4500732,2.6390381-1.4500732,4.2230225
		c0,1.7579956,0.5250244,3.1049805,1.6829834,4.3460083c1.1280518,1.2059937,2.7280273,1.7819824,4.5430908,1.7819824
		C95.6834717,28.7689209,96.6844482,28.4859009,97.9174805,28.1439209 M83.0565186,28.3419189l-0.111084,2.4559937H72.5384521
		c0.085083-2.4630127,0.19104-6.9229736,0.1850586-8.559021c-0.0080566-2.3919678-0.0870361-5.631958-0.1970215-7.7449951h9.848999
		l-0.1280518,2.4390259c-2.1870117-0.0939941-4.6459961-0.1680298-7.0959473-0.1680298
		c0.0489502,1.2330322,0.0830078,2.3390503,0.0830078,4.4360352c0.8759766-0.0100098,1.8079834-0.0159912,2.7070313-0.0410156
		c1.1350098-0.0319824,2.2178955-0.0880127,3.0859375-0.1409912v2.4609985
		c-1.7679443-0.052002-3.7900391-0.1210327-5.7929688-0.1210327c0,2.0430298,0.0539551,3.3990479,0.1009521,5.1930542
		C77.9775391,28.5519409,80.6705322,28.4609375,83.0565186,28.3419189 M144.3874512,22.6619263
		c0-2.0510254-0.4990234-3.4160156-1.5759277-4.5419922c-1.0770264-1.1260376-2.3070068-1.6459961-3.4920654-1.6459961
		c-1.3029785,0-2.3580322,0.4719849-3.375,1.6560059c-1.0179443,1.1849976-1.5269775,2.6489868-1.5269775,4.6279907
		c0,2.0599976,0.5629883,3.5769653,1.6159668,4.6560059c0.9539795,0.9790039,2.2440186,1.5440063,3.6450195,1.5440063
		c1.2630615,0,2.4370117-0.7300415,3.2260742-1.7200317C143.8845215,26.0098877,144.3874512,24.6159058,144.3874512,22.6619263
		 M147.180542,22.3588867c0,2.6350098-0.8200684,5.0720215-2.4130859,6.5160522
		c-1.4489746,1.3139648-3.1350098,2.401001-5.4749756,2.401001c-2.2480469,0-3.8690186-0.8340454-5.3210449-2.2230225
		c-1.6379395-1.5679932-2.3389893-3.5949707-2.3389893-5.9970093c0-2.5969849,0.6480713-4.6350098,2.4539795-6.5
		c1.4870605-1.5369873,3.3330078-2.3499756,5.5390625-2.3499756c1.894043,0,3.6280518,0.6629639,5.2290039,2.1829834
		C146.319458,17.7789307,147.180542,19.9569092,147.180542,22.3588867"/>
	<path fill-rule="evenodd" clip-rule="evenodd" fill="#80A7CC" d="M19.8599854,14.9329834h45.013916L64.7658691,0H17.1589355
		c0.1380005,1.0280151-0.1539917,2.2399902,0.4290161,3.1000366c0.2919922,0.4299927,1.1820068-0.4760132,1.5960083-0.1380005
		c0.3380127,0.276001-0.1220093,0.875-0.1530151,1.3200073c-0.0459595,0.7519531,0.2609863,1.5799561-0.09198,2.2559814
		c-0.1690063,0.3529663-1.2280273-0.2310181-1.151001,0.1530151c0.184021,0.9519653,1.3809814,1.4579468,1.6569824,2.3789673
		c0.1080322,0.367981-0.7520142,0.5679932-0.6749878,0.9520264c0.2310181,1.2279663,1.8109741,2.2249756,1.4890137,3.4379883
		L19.8599854,14.9329834z"/>
	<path fill-rule="evenodd" clip-rule="evenodd" fill="#80A7CC" d="M0.875,14.9329834h15.7619629
		c0.0610352-0.5529785,0.2919922-1.1049805,0.184021-1.657959c-0.1530151-0.7819824-0.3220215-1.6879883-0.9360352-2.1940308
		c-0.2919922-0.230957-0.4759521,0.7670288-0.8439941,0.7210083c-0.782959-0.09198-1.3200073-1.0280151-2.1029663-1.0739746
		c-0.8290405-0.0620117-1.5500488,1.0280151-2.3480225,0.8129883L0.7519531,8.901001
		C-0.1680298,8.625,0.506958,9.3309937,0.4759521,9.5l-0.4140015,1.5350342L0,12.8760376l0.414978,1.3049927L0.875,14.9329834z"/>
	<path fill-rule="evenodd" clip-rule="evenodd" fill="#FFD56D" d="M36.2510986,7.5199585
		c0-2.2099609,1.8569336-4.0669556,4.0668945-4.0669556c2.2410889,0,4.0820313,1.8569946,4.0820313,4.0669556
		c0,2.2410278-1.8409424,4.0830078-4.0820313,4.0830078C38.1080322,11.6029663,36.2510986,9.7609863,36.2510986,7.5199585"/>
	<path fill-rule="evenodd" clip-rule="evenodd" fill="#7AA356" d="M64.8740234,15.5160522l0.1229248,15.1480103H5.0039673
		L4.927002,29.1300659l-0.7059937-1.4439697l-0.5530396-1.0889893l-0.4749756-1.842041l-0.4609985-2.6399536
		c11.5109863-3.4680176,15.1170044-1.6570435,15.1170044-1.6570435s4.7579956,2.3170166,8.164978,0.875
		c7.0910034-3.0849609,12.2319946-1.84198,12.2319946-1.84198s8.855957,3.5299683,12.401001,0.5679932
		c3.5909424-2.8699951,5.6779785-2.7630005,8.4720459-3.4069824H1.65802l-0.1540527-0.6600342l-0.2909546-0.4760132H64.8740234z"/>
	<path fill-rule="evenodd" clip-rule="evenodd" fill="#44698E" d="M65.0083008,31.236145l0.0219727,2.5379639
		c0.0219727,0.467041,0.0889893,1.0010376,0.2670898,1.4460449c0.4899902,1.1799927,1.112915,1.6919556,1.4019775,2.9379883
		c0.1109619,0.5119629-0.8010254,1.1129761-0.3560791,1.6699829c0.6680908,0.8239746,0.7570801,1.4689941-0.1109619,1.4689941
		l-19.5649414,0.0220337c-2.6040039,0.7339478-5.1860352,1.4689941-7.7680664,2.2039795
		c-0.4229736,0.2449951-0.822998,0.46698-1.2459717,0.7109985c-0.9129639,0.4909668-1.6920166,1.0029907-2.5150146,1.0029907
		c-0.8239746,0-1.6469727-0.9130249-2.6929932-0.8469849c-1.0469971,0.0449829-1.6700439,1.4689941-2.848999,1.5139771
		c-1.157959,0.0670166-2.1369629-1.625-3.1609497-1.625h-1.2460327c-1.4920044,0-4.4069824,1.8250122-5.8770142,1.8699951
		c-1.4909668,0.0670166-3.7389526-0.8460083-4.1619873-2.4489746l-0.5780029-2.2919922l-1.0020142-2.3150024l-1.5139771-1.6030273
		c-0.1550293,0.0230103-0.3109741,0.0449829-0.4450073,0.0670166c-0.2669678,0-0.3999634,0-0.6450195-0.1110229
		c-0.2669678-0.1109619-0.5339966-0.2669678-0.7349854-0.4899902l-0.3999634-0.3560181l-3.4500122-0.2439575
		c-0.7349854-0.0450439-1.269043-1.3359985-1.2250366-2.6050415L5.0233154,31.236145H65.0083008z M29.1723633,37.9801025H16.9753418
		c0,0,0.757019,0.802002,1.9140015,0.9349976c1.0910034,0.0450439,2.8269653-0.5339966,4.0960083-0.4449463
		c1.2909546,0.0449829,2.6489868,0.6229858,3.5609741,0.4899902C27.3253174,38.9151001,29.1723633,37.9801025,29.1723633,37.9801025
		 M62.0473633,32.3710938H28.7502441c0,0,1.9360352,1.0680542,4.0061035,1.5140381
		c2.1149902,0.4680176,6.1209717-0.4459839,7.2119141-0.2449951c1.1350098,0,1.8250732,0.46698,6.0319824,1.2019653
		c3.026001,0.4450073,6.4100342-0.9129639,6.4100342-0.9129639s1.7800293-1.1119995,6.6330566-0.6450195
		C59.043335,33.2841187,59.5772705,33.4841309,62.0473633,32.3710938"/>
</g>
</svg>
