<?xml version="1.0" encoding="utf-8"?>
<!-- Generator: Adobe Illustrator 24.1.0, SVG Export Plug-In . SVG Version: 6.00 Build 0)  -->
<svg version="1.1" id="Layer_1" xmlns="http://www.w3.org/2000/svg" xmlns:xlink="http://www.w3.org/1999/xlink" x="0px" y="0px"
	 viewBox="0 0 180.429657 30.4956627" enable-background="new 0 0 180.429657 30.4956627" xml:space="preserve">
<g>
	<polygon fill="#1F355E" points="36.4672813,4.8041592 37.8142662,10.2021618 39.2992516,4.8041592 40.370266,4.8041592 
		41.7782555,10.24716 43.1942711,4.8041592 44.0402794,4.8041592 42.1922569,11.36516 41.2332726,11.36516 39.792263,5.7581615 
		38.246273,11.36516 37.3132591,11.36516 35.5432701,4.8041592 	"/>
	<path fill="#1F355E" d="M46.7777672,11.3653622c-0.0599976-0.2280006-0.0780029-0.4459991-0.0780029-0.6819992
		c-0.3880005,0.7539978-0.9759827,0.8269997-1.3379822,0.8269997c-0.9930115,0-1.5289917-0.5909996-1.5289917-1.3450012
		c0-0.362999,0.1210022-0.9449997,0.7609863-1.3349991c0.4649963-0.2730026,1.1570129-0.3010025,1.5020142-0.3010025
		c0.2070007,0,0.3369751,0.0090027,0.5869751,0.0279999c0-0.5639992,0-0.8089981-0.1549988-1.0089989
		c-0.1640015-0.2270012-0.5189819-0.2999992-0.7519836-0.2999992c-0.8200073,0-0.8630066,0.5909996-0.8720093,0.7729988h-0.8119812
		c0.0269775-0.2369995,0.0519714-0.5550003,0.3019714-0.8639984c0.32901-0.382,0.9420166-0.4900017,1.4000244-0.4900017
		c0.6299744,0,1.3029785,0.2089996,1.5359802,0.6720009c0.1390076,0.2729988,0.1470032,0.4910011,0.1470032,0.7000008
		l-0.0339966,2.1809998c0,0.0719986,0.0090027,0.6809998,0.0690002,1.1450005H46.7777672z M46.2167931,9.1203594
		c-0.3280029,0-1.5630188,0-1.5630188,0.927002c0,0.2900009,0.1730042,0.7900009,0.8980103,0.7900009
		c0.4140015,0,0.7250061-0.1720009,0.9239807-0.4900017c0.1809998-0.3089981,0.1900024-0.5639992,0.2070007-1.2000008
		C46.5357628,9.1293621,46.4147911,9.1203594,46.2167931,9.1203594"/>
	<path fill="#1F355E" d="M49.1435814,10.0106602c-0.0080261,0.3460007,0.1639709,0.8270035,0.9499817,0.8270035
		c0.3370056,0,0.5870056-0.0629997,0.7600098-0.2900009c0.0859985-0.1189995,0.1380005-0.2729988,0.1380005-0.4280014
		c0-0.4449997-0.302002-0.5270004-0.9500122-0.6819992c-0.9060059-0.2169991-1.6659851-0.4080009-1.6659851-1.3619995
		c0-0.8370018,0.690979-1.3810005,1.6919861-1.3810005c0.5440063,0,1.3040161,0.1629982,1.5630188,0.7080002
		c0.1119995,0.2550011,0.1119995,0.4729996,0.1119995,0.6640015h-0.82901
		c0.026001-0.6910019-0.5440063-0.7460022-0.8370056-0.7460022c-0.1210022,0-0.881012,0-0.881012,0.6549988
		c0,0.4180031,0.3880005,0.5170021,0.6130066,0.5810013c1.2000122,0.2999992,1.460022,0.3730011,1.7180176,0.6269989
		c0.2420044,0.2370033,0.3280029,0.5550003,0.3280029,0.8450012c0,0.5089989-0.2670288,0.9459991-0.5859985,1.1549988
		c-0.3800049,0.2450027-0.8380127,0.3090019-1.2880249,0.3090019c-0.8800049,0-1.6999817-0.382-1.6919861-1.4820023H49.1435814z"/>
	<path fill="#1F355E" d="M52.735775,4.8130589h0.8199768v2.6620026c0.2680054-0.480999,0.803009-0.7540016,1.40802-0.7540016
		c0.4570007,0,1.1139832,0.1730003,1.3639832,0.7270012c0.0870056,0.1819992,0.1470032,0.4000015,0.1470032,1.0629997v2.8540001
		h-0.82901V8.66506c0-0.4080009,0-1.2889977-0.9329834-1.2889977c-0.6040039,0-0.9060059,0.3899994-1.0190125,0.6079979
		C53.5557518,8.2390614,53.5557518,8.66506,53.5557518,8.948061v2.4169998H52.735775V4.8130589z"/>
	<path fill="#1F355E" d="M57.6750755,4.8219585h0.9760132v0.9350014h-0.9760132V4.8219585z M57.7610741,6.8029613h0.8120117
		v4.5620003h-0.8120117V6.8029613z"/>
	<path fill="#1F355E" d="M59.919796,7.3301601l-0.0080261-0.5269966h0.8110046l0.0090027,0.7360001
		c0.0950012-0.1910019,0.4060059-0.8269997,1.3900146-0.8269997c0.3880005,0,1.571991,0.1549988,1.571991,1.553997v3.098999
		h-0.82901V8.4661617c0-0.2999992-0.0350037-0.572998-0.2339783-0.7809982
		c-0.2070007-0.2100029-0.4920044-0.3100014-0.7680054-0.3100014c-0.5870056,0-1.131012,0.4459991-1.131012,1.3639984V11.36516
		H59.919796V7.3301601z"/>
	<path fill="#1F355E" d="M65.6880417,11.7194614c0.0339966,0.5090027,0.2409973,0.8900032,1.0100098,0.8900032
		c1.131012,0,1.1489868-0.8630028,1.1489868-2.0990028c-0.3459778,0.7540016-1.1659851,0.7719994-1.4249878,0.7719994
		c-0.3970032,0-0.9679871-0.0900002-1.3300171-0.5629997c-0.3709717-0.4639969-0.4919739-1.0719986-0.4919739-1.6809998
		c0-1.5449982,0.8629761-2.2989998,1.9249878-2.2989998c0.8729858,0,1.1919861,0.4540024,1.3649902,0.6910019l0.0090027-0.6270027
		h0.7850037l-0.0169983,0.8260002l-0.0090027,2.8540001c0,1.0990028-0.0339966,1.545002-0.2070007,1.8900032
		c-0.3619995,0.7269974-1.2089844,0.817997-1.8039856,0.817997c-1.7360229,0-1.7879944-0.8540001-1.822998-1.4720001H65.6880417z
		 M67.5790634,10.192461c0.1729736-0.2359962,0.2939758-0.480999,0.2939758-1.3089981
		c0-0.5719986-0.1210022-0.8989983-0.3370056-1.1349983c-0.2159729-0.2460022-0.5619812-0.4000015-0.9319763-0.4000015
		c-1.0280151,0-1.1660156,1.0900002-1.1660156,1.6720009c0,0.6989975,0.197998,1.6259995,1.1910095,1.6259995
		C67.1040573,10.6464634,67.3810349,10.4654636,67.5790634,10.192461"/>
	<path fill="#1F355E" d="M69.2627792,6.7849598h0.7679749V5.8309612l0.803009-0.2729988v1.2269974h0.9679871v0.6270027h-0.9679871
		v2.7350006c0,0.2279968,0,0.6089973,0.57901,0.6089973c0.1640015,0,0.3199768-0.0270004,0.3889771-0.0449982v0.6629982
		c-0.1469727,0.0270004-0.3809814,0.0550003-0.6739807,0.0550003c-0.7430115,0-1.0970154-0.2280006-1.0970154-0.9729996V7.4119625
		h-0.7679749V6.7849598z"/>
	<path fill="#1F355E" d="M74.4262619,6.685461c1.7360229,0,2.1240234,1.4360008,2.1240234,2.3899994
		c0,1.3349991-0.7170105,2.4440002-2.1930237,2.4440002c-1.4329834,0-2.1329956-1.0449982-2.1329956-2.3810005
		C72.2242661,8.0114613,72.7252731,6.685461,74.4262619,6.685461 M74.3742905,10.8834591
		c0.6129761,0,1.3119812-0.4639969,1.3119812-1.8359985c0-1.1359978-0.5-1.7350006-1.2600098-1.7350006
		c-0.5179749,0-1.3559875,0.3450012-1.3559875,1.7709999C73.0702744,10.0194607,73.4502792,10.8834591,74.3742905,10.8834591"/>
	<path fill="#1F355E" d="M77.5865707,7.3301601l-0.0090027-0.5269966h0.8119812l0.0090027,0.7360001
		c0.0950012-0.1910019,0.4049988-0.8269997,1.3900146-0.8269997c0.3880005,0,1.571991,0.1549988,1.571991,1.553997v3.098999
		h-0.8300171V8.4661617c0-0.2999992-0.0339966-0.572998-0.2329712-0.7809982
		c-0.2070007-0.2100029-0.4920044-0.3100014-0.7680054-0.3100014c-0.5880127,0-1.131012,0.4459991-1.131012,1.3639984V11.36516
		h-0.8119812V7.3301601z"/>
	<path fill="#1F355E" d="M85.3405685,9.4472599c0.0169983,0.4550018,0.0689697,1.3000031,1.5019836,1.3000031
		c1.2950134,0,1.4599915-0.8450012,1.4599915-1.1720009c0-0.7369995-0.5619812-0.882-1.4339905-1.1090012
		c-0.9490051-0.2449989-1.3720093-0.3549995-1.6919861-0.5820007c-0.5090027-0.362999-0.6470032-0.8540001-0.6470032-1.2899971
		c0-1.3360023,1.1999817-1.9180031,2.3739929-1.9180031c0.4140015,0,1.2519836,0.0740013,1.7529907,0.6459999
		c0.3450012,0.4000015,0.3630066,0.8450012,0.3800049,1.118h-0.8989868c-0.0420227-0.817997-0.6990051-1-1.3120117-1
		c-0.8630066,0-1.381012,0.4090004-1.381012,1.0630035c0,0.5819969,0.3630066,0.7819977,1.1220093,0.9720001
		c1.4850159,0.3999977,1.6490173,0.4369965,2.0119934,0.6909981c0.57901,0.4000015,0.6220093,1.0359993,0.6220093,1.3079987
		c0,1.163002-0.8640137,2.045002-2.4609985,2.045002c-0.4750061,0-1.4420166-0.0820007-1.9339905-0.7449989
		c-0.3540039-0.4820023-0.3630066-1.0090027-0.3630066-1.3270035H85.3405685z"/>
	<path fill="#1F355E" d="M89.5541916,6.7849598h0.7689819V5.8309612l0.803009-0.2729988v1.2269974h0.96698v0.6270027h-0.96698
		v2.7350006c0,0.2279968,0,0.6089973,0.5780029,0.6089973c0.164978,0,0.3199768-0.0270004,0.3889771-0.0449982v0.6629982
		c-0.1469727,0.0270004-0.3799744,0.0550003-0.6739807,0.0550003c-0.7430115,0-1.0960083-0.2280006-1.0960083-0.9729996V7.4119625
		h-0.7689819V6.7849598z"/>
	<path fill="#1F355E" d="M95.4778671,11.3653622c-0.0599976-0.2280006-0.0769958-0.4459991-0.0769958-0.6819992
		c-0.3900146,0.7539978-0.9769897,0.8269997-1.3399963,0.8269997c-0.9920044,0-1.5270081-0.5909996-1.5270081-1.3450012
		c0-0.362999,0.1199951-0.9449997,0.7590027-1.3349991c0.4670105-0.2730026,1.1579895-0.3010025,1.5020142-0.3010025
		c0.2070007,0,0.3379822,0.0090027,0.5879822,0.0279999c0-0.5639992,0-0.8089981-0.1549988-1.0089989
		c-0.1650085-0.2270012-0.5189819-0.2999992-0.7519836-0.2999992c-0.8200073,0-0.8640137,0.5909996-0.8720093,0.7729988h-0.8110046
		c0.0249939-0.2369995,0.0509949-0.5550003,0.3009949-0.8639984c0.32901-0.382,0.9420166-0.4900017,1.3990173-0.4900017
		c0.6309814,0,1.3039856,0.2089996,1.5379944,0.6720009c0.1380005,0.2729988,0.1459961,0.4910011,0.1459961,0.7000008
		l-0.0350037,2.1809998c0,0.0719986,0.0100098,0.6809998,0.0690002,1.1450005H95.4778671z M94.9158859,9.1203594
		c-0.3280029,0-1.5620117,0-1.5620117,0.927002c0,0.2900009,0.1719971,0.7900009,0.8970032,0.7900009
		c0.4150085,0,0.7259827-0.1720009,0.9239807-0.4900017c0.1820068-0.3089981,0.1910095-0.5639992,0.2080078-1.2000008
		C95.2358627,9.1293621,95.1148605,9.1203594,94.9158859,9.1203594"/>
	<path fill="#1F355E" d="M96.7123642,6.7849598h0.7689819V5.8309612l0.802002-0.2729988v1.2269974h0.9679871v0.6270027h-0.9679871
		v2.7350006c0,0.2279968,0,0.6089973,0.57901,0.6089973c0.1640015,0,0.3199768-0.0270004,0.3889771-0.0449982v0.6629982
		c-0.1469727,0.0270004-0.3809814,0.0550003-0.6739807,0.0550003c-0.7430115,0-1.0960083-0.2280006-1.0960083-0.9729996V7.4119625
		h-0.7689819V6.7849598z"/>
	<path fill="#1F355E" d="M100.4859543,9.2387638c-0.0169983,0.9449997,0.3529968,1.6450005,1.2430115,1.6450005
		c0.5279846,0,0.9500122-0.2919998,1.0190125-0.9449997h0.8119812c-0.0270081,0.2269974-0.0610046,0.598999-0.3720093,0.9539986
		c-0.1899719,0.2260017-0.6209717,0.6090012-1.492981,0.6090012c-1.3640137,0-2.0119934-0.8910027-2.0119934-2.3360023
		c0-0.8999977,0.1719971-1.6450005,0.8549805-2.1439972c0.4140015-0.3100014,0.9320068-0.3370018,1.1820068-0.3370018
		c1.9429932,0,1.8999939,1.8090019,1.8819885,2.5540009H100.4859543z M102.7739792,8.6387615
		c0.0079956-0.435997-0.0690002-1.3449974-1.0700073-1.3449974c-0.5280151,0-1.1660156,0.3359985-1.1830139,1.3449974H102.7739792z"
		/>
	<path fill="#1F355E" d="M106.6774826,4.8037624h1.8049927c0.8380127,0,1.821991,0,2.5119934,0.8540001
		c0.553009,0.6819992,0.7700195,1.5810013,0.7700195,2.480999c0,1.4179993-0.5620117,2.2900009-1.0370178,2.6900024
		c-0.6130066,0.5359993-1.3819885,0.5359993-2.2969971,0.5359993h-1.7529907V4.8037624z M107.5404892,10.6197605h0.8469849
		c0.5960083,0,1.2170105-0.0369987,1.631012-0.3639984c0.7949829-0.6259995,0.8209839-1.6990013,0.8209839-2.0810013
		c0-0.2449989-0.0180054-1.362999-0.6040039-2.0439987c-0.3970032-0.4630013-0.8979797-0.572998-1.6589966-0.572998h-1.0359802
		V10.6197605z"/>
	<path fill="#1F355E" d="M113.1438522,9.2387638c-0.0169983,0.9449997,0.355011,1.6450005,1.2440186,1.6450005
		c0.5269775,0,0.9499817-0.2919998,1.0189819-0.9449997h0.8120117c-0.026001,0.2269974-0.0599976,0.598999-0.3710022,0.9539986
		c-0.1900024,0.2260017-0.6229858,0.6090012-1.493988,0.6090012c-1.3650208,0-2.0120239-0.8910027-2.0120239-2.3360023
		c0-0.8999977,0.1719971-1.6450005,0.855011-2.1439972c0.4140015-0.3100014,0.9320068-0.3370018,1.1820068-0.3370018
		c1.9429932,0,1.901001,1.8090019,1.8829956,2.5540009H113.1438522z M115.4318771,8.6387615
		c0.0099792-0.435997-0.0680237-1.3449974-1.0690002-1.3449974c-0.5270081,0-1.1660156,0.3359985-1.184021,1.3449974H115.4318771z"
		/>
	<path fill="#1F355E" d="M117.168541,7.54846c0-0.1999969-0.0079956-0.3099976-0.0249939-0.7449989h0.8190002l0.0180054,0.7540016
		c0.4060059-0.7180023,1.1220093-0.8269997,1.4760132-0.8269997c0.9329834,0,1.821991,0.6719971,1.821991,2.362999
		c0,1.6990013-0.9420166,2.4440002-1.9770203,2.4440002c-0.6309814,0-1.0969849-0.2820015-1.3299866-0.6819992v2.2629967h-0.803009
		V7.54846z M119.1635666,10.9104595c0.2059937,0,0.6389771-0.0449982,0.914978-0.4449997
		c0.3110046-0.4459991,0.355011-1.0999985,0.355011-1.4269981c0-0.8180008-0.2340088-1.6720009-1.1920166-1.6720009
		c-1.29599,0-1.29599,1.4449997-1.29599,1.8540001C117.945549,9.7744617,118.0235519,10.9104595,119.1635666,10.9104595"/>
	<path fill="#1F355E" d="M124.8541489,11.3653622c-0.0610046-0.2280006-0.07901-0.4459991-0.07901-0.6819992
		c-0.3880005,0.7539978-0.9749756,0.8269997-1.3369751,0.8269997c-0.9930115,0-1.5290222-0.5909996-1.5290222-1.3450012
		c0-0.362999,0.1210022-0.9449997,0.7590027-1.3349991c0.4680176-0.2730026,1.15802-0.3010025,1.5039978-0.3010025
		c0.2060242,0,0.3359985,0.0090027,0.5859985,0.0279999c0-0.5639992,0-0.8089981-0.1549988-1.0089989
		c-0.1640015-0.2270012-0.5179749-0.2999992-0.7519836-0.2999992c-0.8190002,0-0.8630066,0.5909996-0.8710022,0.7729988h-0.8120117
		c0.026001-0.2369995,0.0509949-0.5550003,0.302002-0.8639984c0.3280029-0.382,0.9410095-0.4900017,1.3990173-0.4900017
		c0.6309814,0,1.3029785,0.2089996,1.5369873,0.6720009c0.1390076,0.2729988,0.1470032,0.4910011,0.1470032,0.7000008
		l-0.0350037,2.1809998c0,0.0719986,0.0090027,0.6809998,0.0690002,1.1450005H124.8541489z M124.2921677,9.1203594
		c-0.3280029,0-1.5620117,0-1.5620117,0.927002c0,0.2900009,0.1719971,0.7900009,0.8970032,0.7900009
		c0.4150085,0,0.7259827-0.1720009,0.9239807-0.4900017c0.1820068-0.3089981,0.1900024-0.5639992,0.2070007-1.2000008
		C124.6111374,9.1293621,124.4911423,9.1203594,124.2921677,9.1203594"/>
	<path fill="#1F355E" d="M126.7965927,7.7299595c0-0.3089981-0.0180054-0.6269989-0.0430298-0.9269981h0.8189697l0.0180054,0.882
		c0.1550293-0.637001,0.6740189-0.8450012,1.037056-0.9000015c0.2420044-0.0359993,0.4219971-0.0269966,0.5599976-0.0179977
		v0.8359985c-0.0430298-0.0179977-0.0950317-0.0279999-0.1550293-0.0369987
		c-0.0609741-0.0089989-0.1380005-0.0089989-0.2329712-0.0089989c-0.9580154,0-1.1830521,0.5999985-1.1830521,1.382v2.4259987
		h-0.8199463V7.7299595z"/>
	<path fill="#1F355E" d="M128.9728088,6.7849598h0.7689819V5.8309612l0.8029785-0.2729988v1.2269974h0.9680176v0.6270027h-0.9680176
		v2.7350006c0,0.2279968,0,0.6089973,0.5780029,0.6089973c0.164978,0,0.3200073-0.0270004,0.3900146-0.0449982v0.6629982
		c-0.1470337,0.0270004-0.3800049,0.0550003-0.6740112,0.0550003c-0.742981,0-1.0969849-0.2280006-1.0969849-0.9729996V7.4119625
		h-0.7689819V6.7849598z"/>
	<path fill="#1F355E" d="M132.2457581,7.4121609l-0.0180054-0.6089973h0.8209839v0.6629982
		c0.4140015-0.7179985,1.0020142-0.7809982,1.3729858-0.7809982c0.9589844,0,1.2600098,0.5179977,1.4160156,0.8540001
		c0.1459961-0.2540016,0.5-0.8540001,1.4589844-0.8540001c0.6220093,0,1.5889893,0.2729988,1.5889893,1.6170006v3.0620003
		h-0.8200073V8.4391613c0-0.3999977-0.0699463-0.572998-0.1469727-0.6909981
		c-0.1389771-0.2089996-0.414978-0.4000015-0.8289795-0.4000015c-0.5270386,0-0.8120117,0.3190002-0.9240112,0.4810028
		c-0.1900024,0.2819977-0.1900024,0.7829971-0.1900024,0.9819984v2.5530014h-0.8200073V8.3481617
		c0-0.5639992-0.3109741-1-0.9500122-1c-0.5529785,0-0.8549805,0.3640022-0.9500122,0.4990005
		c-0.1809692,0.2639999-0.1900024,0.637001-0.1900024,0.9280014v2.5890007h-0.8199463V7.4121609z"/>
	<path fill="#1F355E" d="M140.6389465,9.2387638c-0.0170288,0.9449997,0.3529663,1.6450005,1.242981,1.6450005
		c0.526001,0,0.9500122-0.2919998,1.0180054-0.9449997h0.8129883c-0.0269775,0.2269974-0.0609741,0.598999-0.3720093,0.9539986
		c-0.1899414,0.2260017-0.6209717,0.6090012-1.492981,0.6090012c-1.3640137,0-2.0119629-0.8910027-2.0119629-2.3360023
		c0-0.8999977,0.1719971-1.6450005,0.8539429-2.1439972c0.4150391-0.3100014,0.9320068-0.3370018,1.184021-0.3370018
		c1.9420166,0,1.8980103,1.8090019,1.8809814,2.5540009H140.6389465z M142.9269714,8.6387615
		c0.0079956-0.435997-0.0690308-1.3449974-1.0710449-1.3449974c-0.5269775,0-1.1660156,0.3359985-1.1829834,1.3449974H142.9269714z"
		/>
	<path fill="#1F355E" d="M144.7145081,7.3301601l-0.0090332-0.5269966h0.8120117l0.0079956,0.7360001
		c0.0960083-0.1910019,0.4060059-0.8269997,1.3909912-0.8269997c0.3880005,0,1.5720215,0.1549988,1.5720215,1.553997v3.098999
		h-0.8309937V8.4661617c0-0.2999992-0.0339966-0.572998-0.2319946-0.7809982
		c-0.2080078-0.2100029-0.4920044-0.3100014-0.7680054-0.3100014c-0.5880127,0-1.132019,0.4459991-1.132019,1.3639984V11.36516
		h-0.8109741V7.3301601z"/>
	<path fill="#1F355E" d="M149.0398865,6.7849598h0.7689819V5.8309612l0.802002-0.2729988v1.2269974h0.9679565v0.6270027h-0.9679565
		v2.7350006c0,0.2279968,0,0.6089973,0.5789795,0.6089973c0.164978,0,0.3200073-0.0270004,0.3889771-0.0449982v0.6629982
		c-0.1469727,0.0270004-0.3799438,0.0550003-0.6739502,0.0550003c-0.7420044,0-1.0960083-0.2280006-1.0960083-0.9729996V7.4119625
		h-0.7689819V6.7849598z"/>
	<path fill="#1F355E" d="M156.3444519,6.685461c1.7360229,0,2.125,1.4360008,2.125,2.3899994
		c0,1.3349991-0.71698,2.4440002-2.1939697,2.4440002c-1.4329834,0-2.132019-1.0449982-2.132019-2.3810005
		C154.1434631,8.0114613,154.6445007,6.685461,156.3444519,6.685461 M156.292511,10.8834591
		c0.6139526,0,1.3139648-0.4639969,1.3139648-1.8359985c0-1.1359978-0.5020142-1.7350006-1.2620239-1.7350006
		c-0.5169678,0-1.3549805,0.3450012-1.3549805,1.7709999C154.9894714,10.0194607,155.3684998,10.8834591,156.292511,10.8834591"/>
	<path fill="#1F355E" d="M161.646759,5.4399586c-0.1380005-0.0089989-0.3100586-0.0179977-0.4750366-0.0179977
		c-0.6560059,0-0.6560059,0.3450012-0.6560059,0.6629982v0.7180023h1.0109863v0.618h-1.0109863v3.9440002h-0.8029785V7.4209614
		H158.85672v-0.618h0.8560181V6.2849598c0-0.6269989,0.0339966-0.8540001,0.1809692-1.0900002
		c0.1820068-0.2910004,0.5270386-0.5,1.0880127-0.5c0.2340088,0,0.4920044,0.0370026,0.6650391,0.0639992V5.4399586z"/>
	<path fill="#63A70A" d="M30.9579716,4.2454586c4.0999775,5.4430008,0.9919739,14.6949997-6.9410095,20.6690006
		c-7.9309998,5.9729996-17.6820068,6.4019985-21.7810059,0.9599991c-4.0979919-5.4419994-0.9899902-14.6949978,6.940002-20.6689968
		C17.1079655-0.7675381,26.8609562-1.1965389,30.9579716,4.2454586"/>
	<path fill="none" stroke="#1F355E" stroke-width="0.858" d="M30.9579716,4.2454586
		c4.0999775,5.4430008,0.9919739,14.6949997-6.9410095,20.6690006c-7.9309998,5.9729996-17.6820068,6.4019985-21.7810059,0.9599991
		c-4.0979919-5.4419994-0.9899902-14.6949978,6.940002-20.6689968C17.1079655-0.7675381,26.8609562-1.1965389,30.9579716,4.2454586z
		"/>
	<path fill="#1F355E" d="M19.0426884,3.3185596c0,0-7.0490112,5.4630013-10.7720032,12.4430008
		c-3.7250056,6.9819984-0.8560176,17.3299999,20.04599-0.4860001C25.097681,20.5655594,12.0126591,36.55056,2.8596749,27.9865589
		C-0.3403373,23.6215591,0.6606697,12.73456,19.0426884,3.3185596"/>
	<path fill="#1F355E" d="M29.5535831,1.5254612c3.0170002,5.1330032-13.8170166,12.2299995-13.6080017,12.1049995
		c11.4219971-6.8529968,9.7079773-9.4189987,9.3859863-10.1349983s-3.5690002-0.6959991-5.723999-0.3699989
		C22.328577,2.1454639,28.394556-0.3425388,29.5535831,1.5254612"/>
	<path fill="#FFFFFF" d="M19.0426884,3.3185596c0,0-7.8000183,4.8180008-11.5230103,11.8000031
		C3.7946725,22.0995598,7.47967,33.0055618,28.3806705,15.1905613c-3.3819885,4.5929985-19.322998,21.198-26.2720032,12.1519985
		C-1.0903373,22.97756,0.6606697,12.73456,19.0426884,3.3185596"/>
	<path fill="#FFFFFF" d="M26.1583805,0.5572605c-2.5460205,0.6750031-6.61203,2.5990028-6.61203,2.5990028
		c1.3950195-0.4960022,2.9050293-0.6030006,3.6550293-0.6030006c1.8429871,0,2.0489807,1.0610008,2.0489807,1.0610008
		s1.9169922,3.2749977-9.3280029,10.0179977c-0.0029907,0-0.0029907,0.0019989-0.0029907,0.0019989
		c0.0440063,0,10.3330078-4.7989998,12.8089905-9.6619987C30.9463749-0.5737362,26.1583805,0.5572605,26.1583805,0.5572605"/>
	<polygon fill="#1F355E" points="35.9827843,27.2231598 35.9827843,14.7531605 42.6907616,14.7531605 43.0907555,17.061161 
		38.3827782,17.061161 38.3827782,19.5511608 42.1627769,19.5511608 42.1627769,21.8601608 38.3827782,21.8601608 
		38.3827782,24.9151611 43.6727562,24.9151611 42.9087791,27.2231598 	"/>
	<path fill="#1F355E" d="M44.8357811,17.9885597l2.1809998-0.2179985v1.2719994h0.0369873
		c0.7820129-1.0540009,1.5449829-1.3449993,2.8359985-1.3449993c1.9089966,0,3.1809998,1.2189999,3.1809998,3.1809998v6.3449993
		l-2.3080139,0.1450005v-5.8710003c0-0.9829998-0.4549866-1.7999992-1.4909973-1.7999992
		c-1.4549866,0-2.1269836,1.1089993-2.1269836,2.2719994v5.2539997l-2.3089905,0.1450005V17.9885597z"/>
	<path fill="#1F355E" d="M55.0884666,16.3885593l2.3089905-1.0359993v2.6359997h2.0910034v2h-2.0910034v3.9449997
		c0,0.8900013,0.3809814,1.4710007,1.7269897,1.4710007c0.2539978,0,0.5450134-0.0170002,0.7990112-0.0360012l-0.5630188,2.0720005
		c-0.2179871,0.0550003-0.617981,0.073-0.9089966,0.073c-1.9449768,0-3.3629761-1.0359993-3.3629761-3.0889988v-4.4360008
		h-1.4180298l0.5090027-2h0.9090271V16.3885593z"/>
	<path fill="#1F355E" d="M69.0674667,26.2954617c-1.1269836,0.782999-2.5090027,1.2189999-3.8720093,1.2189999
		c-2.7259789,0-5.1259727-2.1270008-5.1259727-4.9090004c0-2.7810001,2.3999939-4.907999,5.1259727-4.907999
		c1.9090271,0,3.5810242,1.1449986,4.3990173,2.8540001l-6.3260155,3.927c0.1820068,0.382,0.6910095,0.9259987,1.8000145,0.9259987
		c1.1820068,0,2.0539856-0.4529991,3.0180054-1.0900002L69.0674667,26.2954617z M66.6864853,20.2244606
		c-0.4360046-0.4359989-1-0.5999985-1.6180115-0.5999985c-1.4540062,0-2.6180077,1.1819992-2.7449913,2.5999985
		c0,0.2000008,0,0.4000015,0.0359802,0.618L66.6864853,20.2244606z"/>
	<path fill="#1F355E" d="M72.4307785,19.4427605h0.0359802c0.8000183-1.4359989,1.8359985-1.7269993,3.4360046-1.7449989
		l-0.7999878,2.4549999c-1.7630005,0-2.5440063,1.0349998-2.5440063,2.6350002v4.4349995l-2.3099976,0.1459999v-9.3799992
		l2.1820068-0.2189999V19.4427605z"/>
	<path fill="#1F355E" d="M78.611351,18.9876614c0.9640198-0.9629993,1.6000061-1.289999,2.8720093-1.289999
		c2.6359863,0,4.5629883,2.3439999,4.5629883,4.9619999c0,2.3460007-1.8909912,4.8540001-4.5809937,4.8540001
		c-0.9089966,0-1.8720093-0.2719994-2.7269897-0.9810009v3.6720009l-2.3080139,0.2910004v-12.507l2.1809998-0.2910004V18.9876614z
		 M81.1923752,25.4046612c1.5449829,0,2.6729736-1.289999,2.6729736-2.7989998c0-1.5089989-1.1279907-2.7999992-2.6729736-2.7999992
		c-1.5450134,0-2.6720276,1.2910004-2.6720276,2.7999992C78.5203476,24.1146622,79.6473618,25.4046612,81.1923752,25.4046612"/>
	<path fill="#1F355E" d="M88.8636703,19.4427605h0.0369873c0.7999878-1.4359989,1.8370056-1.7269993,3.4360046-1.7449989
		l-0.8000183,2.4549999c-1.7639771,0-2.5449829,1.0349998-2.5449829,2.6350002v4.4349995l-2.309021,0.1459999v-9.3799992
		l2.1810303-0.2189999V19.4427605z"/>
	<path fill="#1F355E" d="M95.5526657,15.5165615l-1.5620117,1.5450001l-1.5650024-1.5450001l1.5650024-1.5460014
		L95.5526657,15.5165615z M92.7906723,17.9885597l2.3089905-0.2179985v9.4529991l-2.3089905,0.1450005V17.9885597z"/>
	<path fill="#1F355E" d="M97.7357712,24.6055603c0.598999,0.6360016,1.1999817,0.9810009,2.0889893,0.9810009
		c0.7460022,0,1.2909851-0.4720001,1.2909851-0.9449997c0-1.6540012-4.5629883-0.5820007-4.5629883-4.1079998
		c0-1.8910007,1.6730042-2.8360004,3.3819885-2.8360004c1.309021,0,2.5450134,0.5270004,3.4170227,1.5089989l-1.5090027,1.3450012
		c-0.4550171-0.4910011-1.0370178-0.927-1.7449951-0.927c-0.6720276,0-1.1090088,0.2539997-1.1090088,0.9629993
		c0,1.5100002,4.5629883,0.4729996,4.5629883,3.8730011c0,2.1079998-1.9089966,3.0529995-3.7810059,3.0529995
		c-1.2909851,0-2.6169739-0.4899998-3.4709778-1.4909992L97.7357712,24.6055603z"/>
	<path fill="#1F355E" d="M113.0412521,26.2954617c-1.1270142,0.782999-2.5090027,1.2189999-3.8720093,1.2189999
		c-2.7279968,0-5.1269836-2.1270008-5.1269836-4.9090004c0-2.7810001,2.3989868-4.907999,5.1269836-4.907999
		c1.90802,0,3.5809937,1.1449986,4.3990173,2.8540001l-6.3270264,3.927c0.1830139,0.382,0.6910095,0.9259987,1.8000183,0.9259987
		c1.1820068,0,2.0549927-0.4529991,3.0180054-1.0900002L113.0412521,26.2954617z M110.6592636,20.2244606
		c-0.4360046-0.4359989-0.9990234-0.5999985-1.6180115-0.5999985c-1.45401,0-2.6170044,1.1819992-2.7440186,2.5999985
		c0,0.2000008,0,0.4000015,0.0360107,0.618L110.6592636,20.2244606z"/>
	<path fill="#1F355E" d="M120.4945908,23.8601608c0.617981,0.691,1.0539856,1.3450012,2.3989868,1.3450012
		c0.855011,0,1.6000061-0.6720009,1.6000061-1.4360008c0-2.4720001-5.4349976-1.073-5.4349976-5.4899998
		c0-2.3810005,1.7809753-3.8180008,4.2539978-3.8180008c1.2359924,0,2.7449951,0.6920013,3.4899902,1.6910019l-1.4909973,1.7449989
		c-0.5820007-0.618-1.4720154-1.1269989-2.144989-1.1269989c-0.8370056,0-1.6000061,0.3639984-1.6000061,1.5089989
		c0,2.1270008,5.4360046,0.6000004,5.4360046,5.5090008c0,2.2719994-1.8910217,3.7259998-4.2350159,3.7259998
		c-1.5650024,0-2.8739929-0.6540012-3.928009-1.9440002L120.4945908,23.8601608z"/>
	<path fill="#1F355E" d="M136.2002869,26.2954617c-1.1270142,0.782999-2.5079956,1.2189999-3.8720093,1.2189999
		c-2.7269897,0-5.1259842-2.1270008-5.1259842-4.9090004c0-2.7810001,2.3989944-4.907999,5.1259842-4.907999
		c1.90802,0,3.5819702,1.1449986,4.4000244,2.8540001l-6.3260498,3.927c0.1810303,0.382,0.6900024,0.9259987,1.8000488,0.9259987
		c1.1809692,0,2.0539551-0.4529991,3.0169678-1.0900002L136.2002869,26.2954617z M133.8193054,20.2244606
		c-0.4360352-0.4359989-0.9980469-0.5999985-1.6170044-0.5999985c-1.4550171,0-2.6190186,1.1819992-2.7450562,2.5999985
		c0,0.2000008,0,0.4000015,0.0360107,0.618L133.8193054,20.2244606z"/>
	<path fill="#1F355E" d="M139.5638733,19.4427605h0.0369873c0.7999878-1.4359989,1.8349609-1.7269993,3.4359741-1.7449989
		l-0.8009644,2.4549999c-1.7620239,0-2.5450439,1.0349998-2.5450439,2.6350002v4.4349995l-2.30896,0.1459999v-9.3799992
		l2.1820068-0.2189999V19.4427605z"/>
	<polygon fill="#1F355E" points="142.5448914,17.9885597 144.8358459,17.5885601 147.0348816,23.0425606 149.2348328,17.5885601 
		151.4888611,17.9885597 147.052887,27.5135593 147.0168762,27.5135593 	"/>
	<path fill="#1F355E" d="M154.6887512,15.5165615l-1.5640259,1.5450001l-1.5629883-1.5450001l1.5629883-1.5460014
		L154.6887512,15.5165615z M151.9247742,17.9885597l2.30896-0.2179985v9.4529991l-2.30896,0.1450005V17.9885597z"/>
	<path fill="#1F355E" d="M162.4142761,20.4966602c-0.6000366-0.362999-1.2550049-0.6899986-1.9640503-0.6899986
		c-1.7080078,0-2.9799805,1.1269989-2.9799805,2.7989998c0,1.598999,1.4539795,2.7989998,2.6530151,2.7989998
		c0.9459839,0,1.4719849-0.217001,2.2179565-0.7080002l1.2730103,1.6529999
		c-0.8909912,0.8920002-2.2730103,1.1650009-3.4539795,1.1650009c-2.3809814,0-5-1.8730011-5-4.9810009
		c0-2.7999992,2.382019-4.8360004,5.0720215-4.8360004c1.3459473,0,2.381958,0.4180012,3.3989868,1.073L162.4142761,20.4966602z"/>
	<path fill="#1F355E" d="M172.4666443,26.2954617c-1.1270142,0.782999-2.5090332,1.2189999-3.8720093,1.2189999
		c-2.7260132,0-5.1259766-2.1270008-5.1259766-4.9090004c0-2.7810001,2.3999634-4.907999,5.1259766-4.907999
		c1.90802,0,3.5809937,1.1449986,4.3989868,2.8540001l-6.3259888,3.927c0.1809692,0.382,0.690979,0.9259987,1.7999878,0.9259987
		c1.1820068,0,2.0540161-0.4529991,3.0170288-1.0900002L172.4666443,26.2954617z M170.0856628,20.2244606
		c-0.4360352-0.4359989-1-0.5999985-1.618042-0.5999985c-1.4539795,0-2.6170044,1.1819992-2.7449951,2.5999985
		c0,0.2000008,0,0.4000015,0.0350342,0.618L170.0856628,20.2244606z"/>
	<path fill="#1F355E" d="M174.6116638,24.6055603c0.5999756,0.6360016,1.1999512,0.9810009,2.0909424,0.9810009
		c0.7460327,0,1.2900391-0.4720001,1.2900391-0.9449997c0-1.6540012-4.5610352-0.5820007-4.5610352-4.1079998
		c0-1.8910007,1.6710205-2.8360004,3.3800049-2.8360004c1.309021,0,2.5450439,0.5270004,3.4180298,1.5089989l-1.5090332,1.3450012
		c-0.4549561-0.4910011-1.0359497-0.927-1.7459717-0.927c-0.6719971,0-1.1080322,0.2539997-1.1080322,0.9629993
		c0,1.5100002,4.5630493,0.4729996,4.5630493,3.8730011c0,2.1079998-1.9100342,3.0529995-3.7820435,3.0529995
		c-1.2909546,0-2.617981-0.4899998-3.4710083-1.4909992L174.6116638,24.6055603z"/>
</g>
<g>
</g>
<g>
</g>
<g>
</g>
<g>
</g>
<g>
</g>
<g>
</g>
</svg>
