<?xml version="1.0" encoding="utf-8"?>
<!-- Generator: Adobe Illustrator 24.1.0, SVG Export Plug-In . SVG Version: 6.00 Build 0)  -->
<svg version="1.1" id="Layer_1" xmlns="http://www.w3.org/2000/svg" xmlns:xlink="http://www.w3.org/1999/xlink" x="0px" y="0px"
	 viewBox="0 0 92.0338135 60.0189972" enable-background="new 0 0 92.0338135 60.0189972" xml:space="preserve">
<g>
	<g>
		<path fill="#9D85AE" d="M1.4200134,43.5819969h45.6280212V1.734993
			C20.2430115,10.3929977,6.8500061,32.0109978,1.4200134,43.5819969"/>
		<path fill="#5E317C" d="M33.8890076,0H0v43.4629974C3.0290222,32.8059959,11.4219971,13.3689957,33.8890076,0"/>
	</g>
	<g>
		<path d="M72.5631104,28.3867931c0-0.3935547,0.109375-0.7001953,0.3291016-0.9189453
			c0.21875-0.21875,0.5244141-0.3291016,0.9150391-0.3291016c0.4013672,0,0.7109375,0.1083984,0.9277344,0.3232422
			c0.2167969,0.2158203,0.3251953,0.5166016,0.3251953,0.9052734c0,0.28125-0.046875,0.5126953-0.1425781,0.6923828
			c-0.0947266,0.1806641-0.2314453,0.3203125-0.4101563,0.4208984c-0.1796875,0.1005859-0.4023438,0.1503906-0.6699219,0.1503906
			c-0.2724609,0-0.4970703-0.0429688-0.6748047-0.1298828c-0.1787109-0.0869141-0.3222656-0.2236328-0.4335938-0.4111328
			C72.6187744,28.9024181,72.5631104,28.6680431,72.5631104,28.3867931z M73.3082275,28.3897228
			c0,0.2431641,0.0449219,0.4179688,0.1357422,0.5244141c0.0898438,0.1064453,0.2128906,0.1591797,0.3691406,0.1591797
			c0.1591797,0,0.2832031-0.0517578,0.3710938-0.1552734c0.0878906-0.1044922,0.1318359-0.2910156,0.1318359-0.5605469
			c0-0.2275391-0.0458984-0.3925781-0.1376953-0.4980469c-0.0917969-0.1044922-0.2158203-0.15625-0.3720703-0.15625
			c-0.1503906,0-0.2705078,0.0527344-0.3623047,0.1591797C73.3531494,27.9688244,73.3082275,28.1446056,73.3082275,28.3897228z"/>
		<path d="M75.4664307,27.1797619h0.6953125l0.9072266,1.3339844v-1.3339844h0.7021484v2.4101563h-0.7021484l-0.9023438-1.3232422
			v1.3232422h-0.7001953V27.1797619z"/>
		<polygon points="51.9530029,27.1809959 52.6600342,27.1809959 52.9150391,28.5249977 53.2880249,27.1809959 
			53.9899902,27.1809959 54.3640137,28.5239944 54.6199951,27.1809959 55.322998,27.1809959 54.7919922,29.5899963 
			54.0620117,29.5899963 53.6390381,28.072998 53.2189941,29.5899963 52.4890137,29.5899963 		"/>
		<path d="M57.0480347,29.192997h-0.8430176l-0.1199951,0.3969994h-0.7600098l0.9060059-2.4090004h0.8129883l0.9039917,2.4090004
			h-0.7789917L57.0480347,29.192997z M56.8920288,28.6719971l-0.2630005-0.8660011l-0.2640381,0.8660011H56.8920288z"/>
		<path d="M58.0570068,28.7929955l0.7070313-0.0439987c0.0159912,0.1149979,0.0469971,0.2019997,0.0939941,0.262001
			c0.0769653,0.0979996,0.1859741,0.1459999,0.3289795,0.1459999c0.1060181,0,0.1879883-0.0250015,0.2459717-0.0750008
			c0.0570068-0.0489998,0.0859985-0.1070023,0.0859985-0.1730003c0-0.0620003-0.0269775-0.118-0.0819702-0.1669998
			c-0.0549927-0.0499992-0.1810303-0.0960007-0.382019-0.1399994c-0.3259888-0.0730019-0.55896-0.1710014-0.697998-0.2919998
			c-0.1400146-0.1220016-0.2099609-0.2770004-0.2099609-0.4650002c0-0.1240005,0.0359497-0.2410011,0.1069946-0.3520012
			c0.0719604-0.1100006,0.1799927-0.1959991,0.3239746-0.2589989c0.1450195-0.0629997,0.34198-0.0940018,0.59198-0.0940018
			c0.309021,0,0.5440063,0.0569992,0.7050171,0.1720009c0.1619873,0.1139984,0.2579956,0.2960014,0.2890015,0.5460014
			l-0.7019653,0.0409966c-0.019043-0.1079979-0.0580444-0.1869965-0.118042-0.2359962
			c-0.0599976-0.0500031-0.1419678-0.0740013-0.2479858-0.0740013c-0.0859985,0-0.1519775,0.0179977-0.1959839,0.0540009
			c-0.0430298,0.0369987-0.0650024,0.0819969-0.0650024,0.1339989c0,0.0390015,0.0180054,0.0740013,0.0540161,0.1040001
			c0.0349731,0.0320015,0.1189575,0.0610008,0.2509766,0.0880013c0.3250122,0.0709991,0.5579834,0.1419983,0.6989746,0.2129974
			c0.1409912,0.0720024,0.2440186,0.1609993,0.3080444,0.2670021c0.0639648,0.1069984,0.0959473,0.2259979,0.0959473,0.3569984
			c0,0.1549988-0.0429688,0.2970009-0.1279907,0.427002c-0.0859985,0.1309967-0.2049561,0.2299995-0.3590088,0.2969971
			c-0.1529541,0.0670013-0.3459473,0.1010017-0.5799561,0.1010017c-0.4100342,0-0.6940308-0.0789986-0.8519897-0.2360001
			C58.1669922,29.2369957,58.0770264,29.0369949,58.0570068,28.7929955"/>
		<polygon points="60.6210327,27.1809959 61.3670044,27.1809959 61.3670044,28.0249977 62.1799927,28.0249977 
			62.1799927,27.1809959 62.927002,27.1809959 62.927002,29.5899963 62.1799927,29.5899963 62.1799927,28.6159973 
			61.3670044,28.6159973 61.3670044,29.5899963 60.6210327,29.5899963 		"/>
		
			<line fill="none" stroke="#000000" stroke-width="0.746" stroke-miterlimit="10" x1="63.8250122" y1="29.5899963" x2="63.8250122" y2="27.1809959"/>
		<polygon points="64.7369995,27.1809959 65.4320068,27.1809959 66.3389893,28.5129967 66.3389893,27.1809959 
			67.0410156,27.1809959 67.0410156,29.5899963 66.3389893,29.5899963 65.4370117,28.2649956 65.4370117,29.5899963 
			64.7369995,29.5899963 		"/>
		<path d="M68.7460327,28.7169952v-0.5009995h1.1519775v1.0270004c-0.2199707,0.1500015-0.414978,0.2529984-0.5839844,0.3069992
			s-0.3699951,0.0810013-0.6030273,0.0810013c-0.2860107,0-0.5189819-0.0489998-0.6989746-0.1459999
			c-0.1799927-0.0979996-0.3200073-0.243-0.4190063-0.4360008c-0.098999-0.1920013-0.1489868-0.4140015-0.1489868-0.6629982
			c0-0.2639999,0.0539551-0.493,0.1629639-0.6870003c0.1080322-0.1940002,0.2670288-0.3420029,0.4769897-0.4430008
			c0.1630249-0.0769997,0.3829956-0.1160011,0.6589966-0.1160011c0.2660522,0,0.4650269,0.0240021,0.5970459,0.0720024
			c0.1329956,0.0479965,0.2420044,0.1229973,0.3289795,0.223999c0.0869751,0.1020012,0.1530151,0.2299995,0.1970215,0.3859978
			l-0.7189941,0.1280022c-0.0300293-0.0909996-0.0800171-0.1599998-0.1500244-0.2080002
			c-0.0709839-0.0480003-0.1610107-0.0730019-0.2709961-0.0730019c-0.1640015,0-0.2940063,0.057003-0.3909912,0.170002
			c-0.0969849,0.1139984-0.1450195,0.2929993-0.1450195,0.5379982c0,0.2610016,0.0490112,0.4470024,0.1470337,0.5590019
			c0.0979614,0.1110001,0.2349854,0.1669998,0.4099731,0.1669998c0.0830078,0,0.1630249-0.012001,0.2390137-0.0359993
			c0.0750122-0.0240021,0.1619873-0.0650024,0.2600098-0.1230011v-0.2270012H68.7460327z"/>
		<polygon points="70.1710205,27.1809959 72.4360352,27.1809959 72.4360352,27.7759972 71.6760254,27.7759972 
			71.6760254,29.5899963 70.9299927,29.5899963 70.9299927,27.7759972 70.1710205,27.7759972 		"/>
	</g>
	<g>
		<path d="M85.5025635,29.1924572h-0.8447266l-0.1181641,0.3974609h-0.7597656l0.9052734-2.4101563h0.8125l0.9052734,2.4101563
			h-0.7792969L85.5025635,29.1924572z M85.3482666,28.6709728l-0.265625-0.8662109l-0.2636719,0.8662109H85.3482666z"/>
		<path d="M86.2418213,27.1797619h2.2636719v0.5957031h-0.7597656v1.8144531h-0.7451172V27.775465h-0.7587891V27.1797619z"/>
		<path d="M79.2584229,28.7930431l0.7080078-0.0449219c0.015625,0.1152344,0.046875,0.203125,0.09375,0.2636719
			c0.0771484,0.0966797,0.1865234,0.1455078,0.3291016,0.1455078c0.1064453,0,0.1884766-0.0244141,0.2451172-0.0742188
			c0.0576172-0.0498047,0.0869141-0.1083984,0.0869141-0.1738281c0-0.0625-0.0273438-0.1181641-0.0820313-0.1679688
			c-0.0546875-0.0488281-0.1826172-0.0957031-0.3818359-0.1396484c-0.3261719-0.0732422-0.5595703-0.1708984-0.6982422-0.2919922
			c-0.140625-0.1220703-0.2109375-0.2773438-0.2109375-0.4658203c0-0.1230469,0.0361328-0.2402344,0.1083984-0.3505859
			c0.0712891-0.1103516,0.1796875-0.1962891,0.3232422-0.2597656c0.1445313-0.0625,0.3417969-0.0947266,0.5927734-0.0947266
			c0.3076172,0,0.5429688,0.0576172,0.7041016,0.171875c0.1621094,0.1152344,0.2578125,0.296875,0.2890625,0.546875
			l-0.7021484,0.0410156c-0.0185547-0.1083984-0.0576172-0.1875-0.1171875-0.2363281
			c-0.0605469-0.0498047-0.1425781-0.0742188-0.2480469-0.0742188c-0.0859375,0-0.1513672,0.0185547-0.1953125,0.0546875
			c-0.0439453,0.0371094-0.0654297,0.0820313-0.0654297,0.1337891c0,0.0390625,0.0175781,0.0732422,0.0537109,0.1035156
			c0.0351563,0.0322266,0.1181641,0.0615234,0.25,0.0888672c0.3251953,0.0703125,0.5585938,0.1416016,0.6992188,0.2128906
			c0.140625,0.0722656,0.2431641,0.1611328,0.3076172,0.2675781s0.0957031,0.2246094,0.0957031,0.3564453
			c0,0.1542969-0.0419922,0.296875-0.1279297,0.4277344c-0.0849609,0.1298828-0.2050781,0.2294922-0.3583984,0.296875
			s-0.3466797,0.1005859-0.5800781,0.1005859c-0.4101563,0-0.6933594-0.0791016-0.8515625-0.2363281
			C79.3687744,29.2364025,79.2789307,29.0362072,79.2584229,28.7930431z"/>
		<path d="M81.6500244,27.1797619h2.2636719v0.5957031h-0.7597656v1.8144531h-0.7451172V27.775465h-0.7587891V27.1797619z"/>
		<path d="M88.838501,27.1797619h1.9951172v0.5146484h-1.2490234v0.3828125h1.1582031v0.4921875h-1.1582031v0.4746094h1.2851563
			v0.5458984h-2.03125V27.1797619z"/>
	</g>
	<g>
		<g>
			<path d="M51.9039345,31.0664806h1.3828125c0.2724609,0,0.4931641,0.0361328,0.6601563,0.1103516
				c0.1679688,0.0742188,0.3066406,0.1806641,0.4160156,0.3183594c0.1103516,0.1386719,0.1894531,0.2998047,0.2392578,0.4833984
				c0.0488281,0.1835918,0.0732422,0.3779278,0.0732422,0.5830059c0,0.3222656-0.0361328,0.5722656-0.109375,0.7490234
				c-0.0732422,0.1777344-0.1748047,0.3261719-0.3056641,0.4462891c-0.1298828,0.1191406-0.2695313,0.1992188-0.4189453,0.2392578
				c-0.2041016,0.0546875-0.3886719,0.0820313-0.5546875,0.0820313h-1.3828125V31.0664806z M52.8345985,31.7481213v1.6455059
				h0.2285156c0.1943359,0,0.3320313-0.0214844,0.4150391-0.0644531c0.0820313-0.0429688,0.1464844-0.1181641,0.1923828-0.2255859
				c0.046875-0.1074219,0.0703125-0.2822266,0.0703125-0.5234375c0-0.3193359-0.0517578-0.5371094-0.15625-0.6552715
				c-0.1044922-0.1181641-0.2763672-0.1767578-0.5175781-0.1767578H52.8345985z"/>
			<path d="M55.1627235,31.0664806h2.4941406v0.6425781h-1.5615234v0.4785137h1.4482422v0.6142578h-1.4482422v0.59375h1.6064453
				v0.6826172h-2.5390625V31.0664806z"/>
			<path d="M58.1998329,31.0664806h1.546875c0.3369141,0,0.5888672,0.0800781,0.7568359,0.2402344
				s0.2519531,0.3876953,0.2519531,0.6835938c0,0.3046856-0.0917969,0.5419903-0.2744141,0.7128887
				c-0.1826172,0.171875-0.4619141,0.2568359-0.8369141,0.2568359h-0.5097656v1.1181641h-0.9345703V31.0664806z
				 M59.1344032,32.3506584h0.2285156c0.1787109,0,0.3046875-0.03125,0.3779297-0.09375
				c0.0722656-0.0625,0.1083984-0.1425781,0.1083984-0.2392578c0-0.0947247-0.03125-0.1748028-0.0947266-0.2402325
				c-0.0625-0.0664063-0.1816406-0.0986328-0.3554688-0.0986328h-0.2646484V32.3506584z"/>
		</g>
		<path d="M62.7330322,33.5829964h-1.0570068l-0.1480103,0.4949989h-0.9500122l1.1309814-3.0109978h1.0180054l1.132019,3.0109978
			h-0.9749756L62.7330322,33.5829964z M62.5390015,32.9319954l-0.3309937-1.0839996l-0.3309937,1.0839996H62.5390015z"/>
		<path d="M64.1669922,34.0779953v-3.0109978h1.552002c0.2880249,0,0.5079956,0.0249977,0.6610107,0.0739975
			c0.151001,0.0500031,0.2739868,0.1410027,0.367981,0.2740021c0.092041,0.1339989,0.1390381,0.2970009,0.1390381,0.487999
			c0,0.1669998-0.0360107,0.3120003-0.1069946,0.4329987c-0.0710449,0.1210022-0.1700439,0.2200012-0.2950439,0.295002
			c-0.0789795,0.0480003-0.1889648,0.0880013-0.3269653,0.1189995c0.1109619,0.0369987,0.1920166,0.0740013,0.2420044,0.1110001
			c0.0339966,0.0250015,0.0839844,0.0779991,0.1489868,0.1590004s0.1079712,0.1430016,0.1300049,0.1860008l0.4530029,0.8719978
			h-1.052002l-0.4990234-0.9189987c-0.0629883-0.1199989-0.1189575-0.1969986-0.1690063-0.2330017
			c-0.0669556-0.0459976-0.1430054-0.0699997-0.2290039-0.0699997h-0.0819702v1.2220001H64.1669922z M65.1010132,32.2889977
			h0.3939819c0.0430298,0,0.125-0.0139999,0.2479858-0.0419998c0.0620117-0.012001,0.1119995-0.0440025,0.151001-0.0940018
			c0.0390015-0.0509987,0.059021-0.1090012,0.059021-0.1759987c0-0.0970001-0.0310059-0.1720009-0.0930176-0.2240028
			c-0.0619507-0.0519981-0.1779785-0.0789986-0.3479614-0.0789986h-0.4110107V32.2889977z"/>
		<polygon points="67.2180176,31.0669975 70.0460205,31.0669975 70.0460205,31.810997 69.0969849,31.810997 69.0969849,34.0779953 
			68.1660156,34.0779953 68.1660156,31.810997 67.2180176,31.810997 		"/>
		<polygon points="70.4580078,31.0669975 71.6820068,31.0669975 72.1539917,32.8989944 72.6229858,31.0669975 
			73.8460083,31.0669975 73.8460083,34.0779953 73.0839844,34.0779953 73.0839844,31.7819977 72.4960327,34.0779953 
			71.8070068,34.0779953 71.2189941,31.7819977 71.2189941,34.0779953 70.4580078,34.0779953 		"/>
		<polygon points="74.4370117,31.0669975 76.9299927,31.0669975 76.9299927,31.7099953 75.3710327,31.7099953 
			75.3710327,32.1879959 76.8190308,32.1879959 76.8190308,32.8029976 75.3710327,32.8029976 75.3710327,33.3949966 
			76.9769897,33.3949966 76.9769897,34.0779953 74.4370117,34.0779953 		"/>
		<polygon points="77.4830322,31.0669975 78.3530273,31.0669975 79.4880371,32.7329979 79.4880371,31.0669975 
			80.3640137,31.0669975 80.3640137,34.0779953 79.4880371,34.0779953 78.3590088,32.4209976 78.3590088,34.0779953 
			77.4830322,34.0779953 		"/>
		<polygon points="80.7730103,31.0669975 83.6000366,31.0669975 83.6000366,31.810997 82.6520386,31.810997 82.6520386,34.0779953 
			81.7210083,34.0779953 81.7210083,31.810997 80.7730103,31.810997 		"/>
	</g>
	<g>
		<path d="M85.3079834,32.5749969c0-0.4910011,0.1370239-0.8740005,0.4100342-1.1479988
			c0.2739868-0.2730026,0.6560059-0.4100037,1.1439819-0.4100037c0.5010376,0,0.8870239,0.1340027,1.15802,0.4030037
			c0.2709961,0.2689972,0.4060059,0.6459999,0.4060059,1.1299973c0,0.3520012-0.0580444,0.6399994-0.177002,0.8650017
			c-0.118042,0.2259979-0.2890015,0.3999977-0.5130005,0.526001c-0.223999,0.125-0.5029907,0.1869965-0.8370361,0.1869965
			c-0.3389893,0-0.6199951-0.0529976-0.8429565-0.1619987c-0.2220459-0.1079979-0.4020386-0.2789993-0.5410156-0.5130005
			C85.3770142,33.218998,85.3079834,32.9269981,85.3079834,32.5749969 M86.2390137,32.5789948
			c0,0.3030014,0.0559692,0.5209999,0.1690063,0.6540031c0.1129761,0.132,0.2659912,0.197998,0.4599609,0.197998
			c0.2000122,0,0.3540039-0.0649986,0.4640503-0.1940002c0.1090088-0.1300011,0.1640015-0.362999,0.1640015-0.7000008
			c0-0.2829971-0.0570068-0.4889984-0.1710205-0.6199989s-0.2689819-0.1959991-0.4650269-0.1959991
			c-0.1869507,0-0.3379517,0.0670013-0.4509888,0.1990013C86.2960205,32.0519981,86.2390137,32.2719955,86.2390137,32.5789948"/>
		<polygon points="88.9360352,31.0669975 91.2349854,31.0669975 91.2349854,31.7139969 89.8699951,31.7139969 
			89.8699951,32.2419968 91.0369873,32.2419968 91.0369873,32.8489952 89.8699951,32.8489952 89.8699951,34.0779953 
			88.9360352,34.0779953 		"/>
	</g>
	<g>
		<polygon points="51.4459839,35.4309959 55.1290283,35.4309959 55.1290283,36.4659958 52.94104,36.4659958 52.94104,37.3069954 
			54.8099976,37.3069954 54.8099976,38.2809982 52.94104,38.2809982 52.94104,40.2499962 51.4459839,40.2499962 		"/>
		<rect x="55.9710083" y="35.4309959" width="1.4910278" height="4.8180008"/>
		<polygon points="58.5209961,35.4309959 59.9119873,35.4309959 61.7260132,38.0959969 61.7260132,35.4309959 
			63.1309814,35.4309959 63.1309814,40.2499962 61.7260132,40.2499962 59.9219971,37.5999947 59.9219971,40.2499962 
			58.5209961,40.2499962 		"/>
		<path d="M67.059021,39.4559975h-1.6870117l-0.2379761,0.7939987h-1.5209961l1.8109741-4.8190002h1.6279907l1.8070068,4.8190002
			h-1.5599976L67.059021,39.4559975z M66.7470093,38.4129982l-0.5269775-1.7320023l-0.5280151,1.7320023H66.7470093z"/>
		<polygon points="69.3250122,35.4309959 70.71698,35.4309959 72.5300293,38.0959969 72.5300293,35.4309959 73.9349976,35.4309959 
			73.9349976,40.2499962 72.5300293,40.2499962 70.7269897,37.5999947 70.7269897,40.2499962 69.3250122,40.2499962 		"/>
		<path d="M78.1160278,38.2769966l1.3029785,0.3950005c-0.0869751,0.3660011-0.2249756,0.6720009-0.4140015,0.9169998
			c-0.1879883,0.2459984-0.4229736,0.4309998-0.7019653,0.5559998c-0.2790527,0.125-0.6350098,0.1870003-1.0670166,0.1870003
			c-0.5239868,0-0.9520264-0.0760002-1.2839966-0.2280006c-0.3320313-0.1520004-0.618042-0.4199982-0.8600464-0.8030014
			c-0.2409668-0.3829994-0.3609619-0.8739967-0.3609619-1.4720001c0-0.7969971,0.2119751-1.4099998,0.6359863-1.8379974
			c0.4240112-0.4280014,1.0239868-0.6420021,1.7999878-0.6420021c0.6069946,0,1.0840454,0.1220016,1.4320068,0.368
			c0.3469849,0.2460022,0.6050415,0.6230011,0.7739868,1.1310005l-1.3150024,0.2939987
			c-0.0459595-0.1479988-0.0949707-0.2549973-0.1449585-0.322998c-0.0830078-0.1150017-0.1849976-0.2029991-0.3060303-0.2639999
			c-0.1209717-0.0620003-0.2559814-0.0919991-0.4049683-0.0919991c-0.3370361,0-0.5970459,0.1349983-0.776001,0.4069977
			c-0.1359863,0.2010002-0.2040405,0.5180016-0.2040405,0.9490013c0,0.5349998,0.0810547,0.9000015,0.2440186,1.098999
			c0.1619873,0.1980019,0.3900146,0.2970009,0.684021,0.2970009c0.2860107,0,0.5020142-0.0800018,0.6469727-0.2400017
			C77.9440308,38.8149948,78.0490112,38.5819969,78.1160278,38.2769966"/>
		<rect x="80.1810303" y="35.4309959" width="1.4910278" height="4.8180008"/>
		<path d="M85.6810303,39.4559975h-1.6870117l-0.2380371,0.7939987h-1.5209961l1.8110352-4.8190002h1.6279907l1.8070068,4.8190002
			h-1.5599976L85.6810303,39.4559975z M85.3690186,38.4129982L84.84198,36.6809959l-0.5279541,1.7320023H85.3690186z"/>
		<g>
			<path d="M88.0357666,35.4307365h1.4892578v3.6328125h2.3242188v1.1865234h-3.8134766V35.4307365z"/>
		</g>
	</g>
	<g>
		
			<line fill="none" stroke="#000000" stroke-width="1.118" stroke-miterlimit="10" x1="51.9840088" y1="45.579998" x2="51.9840088" y2="41.9659958"/>
		<polygon points="53.3549805,41.9659958 54.3959961,41.9659958 55.7550049,43.9639969 55.7550049,41.9659958 
			56.8070068,41.9659958 56.8070068,45.579998 55.7550049,45.579998 54.4039917,43.5929947 54.4039917,45.579998 
			53.3549805,45.579998 		"/>
		<path d="M57.3560181,44.3849945l1.0629883-0.0659981c0.0239868,0.1720009,0.0709839,0.3030014,0.1420288,0.3930016
			c0.1149902,0.1449966,0.2799683,0.2179985,0.4939575,0.2179985c0.1610107,0,0.28302-0.0369987,0.3699951-0.1119995
			c0.0870361-0.0750008,0.1300049-0.1609993,0.1300049-0.2600021c0-0.0929985-0.0409546-0.1769981-0.1239624-0.2509995
			c-0.0830078-0.0739975-0.2730103-0.1439972-0.572998-0.2099991c-0.4910278-0.1100006-0.8400269-0.2560005-1.0490112-0.4379997
			c-0.2109985-0.1829987-0.31604-0.4150009-0.31604-0.6969986c0-0.1860008,0.0530396-0.3610001,0.1610107-0.526001
			c0.1080322-0.1650009,0.2700195-0.295002,0.4869995-0.3899994c0.2160034-0.0940018,0.5130005-0.1410027,0.8890381-0.1410027
			c0.4629517,0,0.815979,0.0860023,1.0579834,0.257c0.242981,0.1720009,0.3880005,0.4449997,0.434021,0.8199997
			l-1.0530396,0.0620003c-0.0279541-0.1629982-0.0869751-0.2819977-0.1779785-0.355999
			c-0.0889893-0.0740013-0.2139893-0.1110001-0.3729858-0.1110001c-0.1310425,0-0.2290039,0.0270004-0.2950439,0.0820007
			c-0.065979,0.0550003-0.098999,0.1220016-0.098999,0.2010002c0,0.0569992,0.0270386,0.1090012,0.0830078,0.1549988
			c0.0540161,0.0480003,0.1790161,0.0919991,0.3770142,0.1329994c0.4879761,0.1060028,0.8389893,0.2120018,1.0499878,0.3199997
			c0.2120361,0.1070023,0.3649902,0.2410011,0.4620361,0.4000015c0.0959473,0.1599998,0.1439819,0.3380013,0.1439819,0.5359993
			c0,0.2320023-0.0640259,0.4449997-0.1920166,0.6399994c-0.1289673,0.196003-0.3079834,0.3450012-0.5379639,0.446003
			c-0.2310181,0.1009979-0.5220337,0.1509972-0.8720093,0.1509972c-0.6160278,0-1.0430298-0.118-1.2789917-0.3540001
			C57.5220337,45.0499954,57.3870239,44.7499962,57.3560181,44.3849945"/>
		<polygon points="60.9450073,41.9659958 64.3400269,41.9659958 64.3400269,42.8569946 63.2020264,42.8569946 63.2020264,45.579998 
			62.0839844,45.579998 62.0839844,42.8569946 60.9450073,42.8569946 		"/>
		
			<line fill="none" stroke="#000000" stroke-width="1.118" stroke-miterlimit="10" x1="65.4490356" y1="45.579998" x2="65.4490356" y2="41.9659958"/>
		<polygon points="66.5570068,41.9659958 69.9530029,41.9659958 69.9530029,42.8569946 68.8129883,42.8569946 68.8129883,45.579998 
			67.6959839,45.579998 67.6959839,42.8569946 66.5570068,42.8569946 		"/>
		<path d="M72.8079834,41.9659958h1.1140137v2.1529999c0,0.2140007-0.032959,0.4150009-0.098999,0.6049995
			c-0.0670166,0.189003-0.1709595,0.3560028-0.3129883,0.4980011c-0.1430054,0.1419983-0.2910156,0.2410011-0.4470215,0.2989998
			c-0.21698,0.0800018-0.4769897,0.1199989-0.7810059,0.1199989c-0.1759644,0-0.3669434-0.0109978-0.5749512-0.0359993
			c-0.2080078-0.0249977-0.3810425-0.0739975-0.5209961-0.1469994c-0.1400146-0.0730019-0.2670288-0.1769981-0.382019-0.3120003
			c-0.1160278-0.1339989-0.1959839-0.2729988-0.2379761-0.4160004c-0.0690308-0.2299995-0.1040039-0.4339981-0.1040039-0.6110001
			v-2.1529999h1.1139526v2.2029991c0,0.1980019,0.0549927,0.3510017,0.1630249,0.4620018
			C71.848999,44.7419968,72,44.7969971,72.1940308,44.7969971c0.1919556,0,0.34198-0.0540009,0.4509888-0.1640015
			c0.1090088-0.1079979,0.1629639-0.2630005,0.1629639-0.4640007V41.9659958z"/>
		<polygon points="74.4100342,41.9659958 77.8060303,41.9659958 77.8060303,42.8569946 76.6660156,42.8569946 76.6660156,45.579998 
			75.5490112,45.579998 75.5490112,42.8569946 74.4100342,42.8569946 		"/>
		
			<line fill="none" stroke="#000000" stroke-width="1.118" stroke-miterlimit="10" x1="78.9140015" y1="45.579998" x2="78.9140015" y2="41.9659958"/>
		<path d="M80.1370239,43.7759972c0-0.5900002,0.1640015-1.0499992,0.492981-1.3780022
			c0.3280029-0.3289986,0.7860107-0.493,1.3729858-0.493c0.6010132,0,1.0640259,0.1610031,1.3900146,0.4840012
			c0.3250122,0.3230019,0.4879761,0.7750015,0.4879761,1.3569984c0,0.4220009-0.0719604,0.769001-0.2129517,1.0390015
			c-0.1430054,0.2709999-0.3480225,0.480999-0.6170044,0.6310005c-0.2680054,0.1500015-0.6030273,0.2249985-1.0040283,0.2249985
			c-0.407959,0-0.7449951-0.0639992-1.0119629-0.1940002c-0.2670288-0.1299973-0.4840088-0.3349991-0.6490479-0.6159973
			C80.2200317,44.5499954,80.1370239,44.197998,80.1370239,43.7759972 M81.2550049,43.7789955
			c0,0.3650017,0.0670166,0.6270027,0.2020264,0.7859993c0.1359863,0.1599998,0.3200073,0.2390022,0.5529785,0.2390022
			c0.2399902,0,0.4249878-0.0779991,0.5560303-0.2340012c0.1309814-0.1559982,0.1969604-0.4360008,0.1969604-0.8400002
			c0-0.3400002-0.0679932-0.5890007-0.2050171-0.7449989c-0.1369629-0.1570015-0.322998-0.2360001-0.5569458-0.2360001
			c-0.2250366,0-0.4060059,0.079998-0.5420532,0.2389984C81.3220215,43.1469955,81.2550049,43.4109955,81.2550049,43.7789955"/>
		<polygon points="84.4899902,41.9659958 85.5319824,41.9659958 86.8909912,43.9639969 86.8909912,41.9659958 
			87.9440308,41.9659958 87.9440308,45.579998 86.8909912,45.579998 85.5400391,43.5929947 85.5400391,45.579998 
			84.4899902,45.579998 		"/>
		<path d="M88.4920044,44.3849945l1.0640259-0.0659981c0.0219727,0.1720009,0.0700073,0.3030014,0.1409912,0.3930016
			c0.1149902,0.1449966,0.2799683,0.2179985,0.4940186,0.2179985c0.1599731,0,0.2839966-0.0369987,0.3699951-0.1119995
			c0.0869751-0.0750008,0.1300049-0.1609993,0.1300049-0.2600021c0-0.0929985-0.0410156-0.1769981-0.1240234-0.2509995
			c-0.0830078-0.0739975-0.2739868-0.1439972-0.572998-0.2099991c-0.4910278-0.1100006-0.8400269-0.2560005-1.0499878-0.4379997
			c-0.210022-0.1829987-0.3150024-0.4150009-0.3150024-0.6969986c0-0.1860008,0.0539551-0.3610001,0.1610107-0.526001
			c0.1079712-0.1650009,0.2699585-0.295002,0.4859619-0.3899994c0.21698-0.0940018,0.5140381-0.1410027,0.8909912-0.1410027
			c0.4620361,0,0.8150024,0.0860023,1.0570068,0.257c0.242981,0.1720009,0.3870239,0.4449997,0.434021,0.8199997
			l-1.0530396,0.0620003c-0.0289917-0.1629982-0.0879517-0.2819977-0.1779785-0.355999
			c-0.0899658-0.0740013-0.2139893-0.1110001-0.3729858-0.1110001c-0.1309814,0-0.2290039,0.0270004-0.2949829,0.0820007
			c-0.06604,0.0550003-0.098999,0.1220016-0.098999,0.2010002c0,0.0569992,0.0269775,0.1090012,0.0829468,0.1549988
			c0.0530396,0.0480003,0.1790161,0.0919991,0.3770142,0.1329994c0.4890137,0.1060028,0.8380127,0.2120018,1.0499878,0.3199997
			c0.2109985,0.1070023,0.3650513,0.2410011,0.4620361,0.4000015c0.0960083,0.1599998,0.1439819,0.3380013,0.1439819,0.5359993
			c0,0.2320023-0.0639648,0.4449997-0.1920166,0.6399994c-0.1289673,0.196003-0.3079834,0.3450012-0.5390015,0.446003
			c-0.2299805,0.1009979-0.5209961,0.1509972-0.8709717,0.1509972c-0.6160278,0-1.0419922-0.118-1.2789917-0.3540001
			C88.6569824,45.0499954,88.5230103,44.7499962,88.4920044,44.3849945"/>
	</g>
	<path d="M19.0410156,45.5169945v-1.5119972c-1.5469971,1.0079994-3.2279968,1.5119972-5.0429993,1.5119972
		c-2.5289917,0-4.6849976-0.9039993-6.4700012-2.7139969c-1.7850037-1.8080025-2.678009-3.9440002-2.678009-6.4050026
		c0-2.5209999,0.9150085-4.6709976,2.7449951-6.4499969c1.8300171-1.7800026,3.9640198-2.6690025,6.4030151-2.6690025
		c1.7550049,0,3.4360046,0.5040016,5.0429993,1.512001V13.0439987h4.09198v32.4729958H19.0410156z M13.9920044,31.3709946
		c-1.3289795,0-2.5019836,0.4920006-3.5209961,1.4770012c-1.0190125,0.9840012-1.5279846,2.1679993-1.5279846,3.5499992
		c0,1.3520012,0.493988,2.5279999,1.4839783,3.5270004c0.9890137,1,2.177002,1.5,3.5650024,1.5
		c1.3580017,0,2.5390015-0.4860001,3.5429993-1.4559975c1.0039978-0.9700012,1.506012-2.1599998,1.506012-3.571003
		c0-1.3519974-0.4869995-2.5279999-1.4609985-3.5270004C16.605011,31.8709946,15.4089966,31.3709946,13.9920044,31.3709946"/>
	<path fill="none" stroke="#000000" stroke-width="0.534" stroke-miterlimit="10" d="M19.0410156,45.5169945v-1.5119972
		c-1.5469971,1.0079994-3.2279968,1.5119972-5.0429993,1.5119972c-2.5289917,0-4.6849976-0.9039993-6.4700012-2.7139969
		c-1.7850037-1.8080025-2.678009-3.9440002-2.678009-6.4050026c0-2.5209999,0.9150085-4.6709976,2.7449951-6.4499969
		c1.8300171-1.7800026,3.9640198-2.6690025,6.4030151-2.6690025c1.7550049,0,3.4360046,0.5040016,5.0429993,1.512001V13.0439987
		h4.09198v32.4729958H19.0410156z M13.9920044,31.3709946c-1.3289795,0-2.5019836,0.4920006-3.5209961,1.4770012
		c-1.0190125,0.9840012-1.5279846,2.1679993-1.5279846,3.5499992c0,1.3520012,0.493988,2.5279999,1.4839783,3.5270004
		c0.9890137,1,2.177002,1.5,3.5650024,1.5c1.3580017,0,2.5390015-0.4860001,3.5429993-1.4559975
		c1.0039978-0.9700012,1.506012-2.1599998,1.506012-3.571003c0-1.3519974-0.4869995-2.5279999-1.4609985-3.5270004
		C16.605011,31.8709946,15.4089966,31.3709946,13.9920044,31.3709946z"/>
	<path d="M40.3130188,32.0389977c-0.059021,0.0589981-0.5930176,0.5919991-1.6010132,1.6009979
		c-1.2460022-1.5130005-2.6539917-2.269001-4.2259827-2.269001c-1.1870117,0-2.3210144,0.4800034-3.4030151,1.4400024
		C30,33.7699966,29.4590149,34.7669945,29.4590149,35.7999954v5.625h6.1390076v4.0919991h-6.1390076v14.2350044h-4.0930176
		V35.6419945c0-0.4449997,0.1640015-1.1569977,0.4900208-2.1359978c0.6519775-1.9869995,1.8829956-3.5579987,3.6919861-4.7150002
		c1.571991-1.0079994,3.2180176-1.512001,4.9380188-1.512001c2.5499878,0,4.8779907,1.0670013,6.9839783,3.2019997
		C40.9949951,31.192997,40.6100159,31.711998,40.3130188,32.0389977"/>
	<path fill="none" stroke="#000000" stroke-width="0.534" stroke-miterlimit="10" d="M40.3130188,32.0389977
		c-0.059021,0.0589981-0.5930176,0.5919991-1.6010132,1.6009979c-1.2460022-1.5130005-2.6539917-2.269001-4.2259827-2.269001
		c-1.1870117,0-2.3210144,0.4800034-3.4030151,1.4400024C30,33.7699966,29.4590149,34.7669945,29.4590149,35.7999954v5.625
		h6.1390076v4.0919991h-6.1390076v14.2350044h-4.0930176V35.6419945c0-0.4449997,0.1640015-1.1569977,0.4900208-2.1359978
		c0.6519775-1.9869995,1.8829956-3.5579987,3.6919861-4.7150002c1.571991-1.0079994,3.2180176-1.512001,4.9380188-1.512001
		c2.5499878,0,4.8779907,1.0670013,6.9839783,3.2019997C40.9949951,31.192997,40.6100159,31.711998,40.3130188,32.0389977z"/>
	<path d="M47.1229858,18.5149994c-0.7119751,0-1.34198-0.2670059-1.8909607-0.8000031
		c-0.5480042-0.5339966-0.8220215-1.1719971-0.8220215-1.913002c0-0.5929947,0.2660217-1.2009964,0.8000183-1.8239975
		s1.1719971-0.9339981,1.9129639-0.9339981c0.7410278,0,1.3790283,0.3040009,1.9130249,0.9119949
		c0.5339966,0.6080017,0.7999878,1.2229996,0.7999878,1.8460007c0,0.9189987-0.3259888,1.6310043-0.9779663,2.1350021
		C48.322998,18.322998,47.7449951,18.5149994,47.1229858,18.5149994 M45.1210022,45.5169945V31.4599953h-1.822998v-4.1809998
		h5.9159851v18.237999H45.1210022"/>
	<path fill="none" stroke="#000000" stroke-width="0.534" stroke-miterlimit="10" d="M47.1229858,18.5149994
		c-0.7119751,0-1.34198-0.2670059-1.8909607-0.8000031c-0.5480042-0.5339966-0.8220215-1.1719971-0.8220215-1.913002
		c0-0.5929947,0.2660217-1.2009964,0.8000183-1.8239975s1.1719971-0.9339981,1.9129639-0.9339981
		c0.7410278,0,1.3790283,0.3040009,1.9130249,0.9119949c0.5339966,0.6080017,0.7999878,1.2229996,0.7999878,1.8460007
		c0,0.9189987-0.3259888,1.6310043-0.9779663,2.1350021C48.322998,18.322998,47.7449951,18.5149994,47.1229858,18.5149994z
		 M45.1210022,45.5169945V31.4599953h-1.822998v-4.1809998h5.9159851v18.237999H45.1210022z"/>
</g>
<g>
</g>
<g>
</g>
<g>
</g>
<g>
</g>
<g>
</g>
<g>
</g>
</svg>
