<?xml version="1.0" encoding="UTF-8"?>
<svg version="1.1" viewBox="0 0 254.1093 54.888" xmlns="http://www.w3.org/2000/svg">
 <defs>
  <clipPath id="a">
   <path d="m0 0h190.582v41.166h-190.582z"/>
  </clipPath>
 </defs>
 <g transform="matrix(1.333333 0 0 -1.333333 0 54.888)">
  <g clip-path="url(#a)">
   <g transform="translate(11.4414,12.8369)">
    <path d="m0 0c-2.602 4.507-4.063 9.315-4.462 14.179-6.763-3.905-8.998-12.695-4.985-19.645 4.012-6.95 12.75-9.424 19.513-5.519-4.012 2.777-7.464 6.477-10.066 10.985m10.09 17.415c5.204 0 10.099-1.139 14.51-3.225 0 7.809-6.495 14.139-14.52 14.139-8.026 0-14.536-6.33-14.536-14.139 4.411 2.086 9.341 3.225 14.546 3.225m10.053-17.415c2.602 4.507 4.063 9.315 4.462 14.179 6.763-3.905 8.998-12.695 4.985-19.645s-12.75-9.424-19.513-5.519c4.012 2.777 7.463 6.477 10.066 10.985" fill="#005695" fill-rule="evenodd"/>
   </g>
   <g transform="translate(47.1889,31.416)">
    <path d="m0 0h1.088l1.349-6.377h0.024l1.479 6.377h1.325l1.479-6.377h0.023l1.444 6.377h0.993l-1.798-7.865h-1.23l-1.562 6.738h-0.024l-1.561-6.738h-1.231z" fill="#231f20"/>
   </g>
   <g transform="translate(60.1792,26.3681)">
    <path d="m0 0c-0.178 0.023-0.426 0.023-0.698 0.023-1.171 0-1.727-0.53-1.727-1.195 0-0.608 0.331-1.003 1.017-1.003 0.864 0 1.408 0.665 1.408 1.454zm-2.887 2.535c0.497 0.304 1.112 0.473 1.704 0.473 0.887 0 1.42-0.36 1.609-0.54 0.26-0.248 0.52-0.598 0.52-1.409v-2.997c0-0.338 0.024-0.676 0.048-0.879h-0.899l-0.059 0.778h-0.024c-0.272-0.44-0.769-0.857-1.692-0.857-0.994 0-1.739 0.552-1.739 1.657 0 1.115 0.769 1.938 2.839 1.938h0.58v0.259c0 0.428-0.036 0.676-0.225 0.924-0.201 0.259-0.591 0.36-1.005 0.36-0.615 0-1.207-0.236-1.55-0.597z" fill="#231f20"/>
   </g>
   <g transform="translate(62.1074,24.6665)">
    <path d="m0 0c0.449-0.259 0.923-0.428 1.42-0.428 0.757 0 1.147 0.372 1.147 0.811 0 0.394-0.213 0.665-0.769 0.902l-0.662 0.281c-0.864 0.372-1.183 0.744-1.183 1.476 0 0.947 0.769 1.668 1.94 1.668 0.497 0 0.935-0.079 1.278-0.203l-0.048-0.811c-0.307 0.135-0.733 0.248-1.183 0.248-0.65 0-0.994-0.338-0.994-0.789 0-0.462 0.355-0.721 1.018-0.969l0.355-0.135c0.733-0.282 1.195-0.755 1.195-1.465 0-0.992-0.556-1.78-1.94-1.78-0.628 0-1.195 0.124-1.633 0.338z" fill="#231f20"/>
   </g>
   <g transform="translate(66.5796,32.0019)">
    <path d="m0 0h0.994v-3.493h0.023c0.261 0.485 0.781 0.868 1.479 0.868 1.053 0 1.763-0.575 1.763-1.837v-3.989h-0.994v3.707c0 0.913-0.355 1.307-0.994 1.307-0.78 0-1.277-0.518-1.277-1.555v-3.459h-0.994z" fill="#231f20"/>
   </g>
   <path d="m72.211 29.298h0.994v-5.746h-0.994zm1.041 1.239h-1.088v1.127h1.088z" fill="#231f20"/>
   <g transform="translate(74.5771,28.0581)">
    <path d="m0 0c0 0.417-0.036 0.834-0.047 1.239h0.958l0.035-0.856h0.024c0.32 0.654 0.828 0.935 1.526 0.935 1.053 0 1.763-0.574 1.763-1.836v-3.989h-0.994v3.707c0 0.913-0.355 1.307-0.994 1.307-0.78 0-1.277-0.518-1.277-1.555v-3.459h-0.994z" fill="#231f20"/>
   </g>
   <g transform="translate(82.1367,24.2387)">
    <path d="m0 0c0.911 0 1.325 0.744 1.325 2.186s-0.414 2.186-1.325 2.186-1.325-0.744-1.325-2.186 0.414-2.186 1.325-2.186m2.319-0.935c0-1.589-1.254-2.254-2.579-2.254-0.509 0-1.325 0.18-1.763 0.35l0.048 0.957c0.425-0.27 1.112-0.496 1.656-0.496 1.218 0 1.692 0.688 1.692 1.679v0.902h-0.024c-0.391-0.654-0.923-0.969-1.586-0.969-1.242 0-2.082 0.969-2.082 2.952s0.84 2.952 2.189 2.952c0.603 0 1.147-0.361 1.479-0.913h0.024l0.035 0.834h0.958c-0.012-0.338-0.047-0.698-0.047-1.048z" fill="#231f20"/>
   </g>
   <g transform="translate(88.3003,23.6186)">
    <path d="m0 0c-0.237-0.079-0.568-0.146-0.84-0.146-0.911 0-1.396 0.349-1.396 1.363v3.696h-0.958v0.766h0.958v1.172l0.994 0.282v-1.454h1.242v-0.766h-1.242v-3.392c0-0.653 0.177-0.901 0.627-0.901 0.248 0 0.426 0.067 0.615 0.146z" fill="#231f20"/>
   </g>
   <g transform="translate(91.1045,24.2387)">
    <path d="m0 0c0.946 0 1.384 0.744 1.384 2.186s-0.438 2.186-1.384 2.186-1.384-0.744-1.384-2.186 0.438-2.186 1.384-2.186m0 5.138c1.597 0 2.425-1.149 2.425-2.952s-0.828-2.952-2.425-2.952-2.425 1.149-2.425 2.952 0.828 2.952 2.425 2.952" fill="#231f20"/>
   </g>
   <g transform="translate(94.5112,28.0581)">
    <path d="m0 0c0 0.417-0.036 0.834-0.047 1.239h0.958l0.036-0.856h0.023c0.32 0.654 0.828 0.935 1.526 0.935 1.053 0 1.763-0.574 1.763-1.836v-3.989h-0.993v3.707c0 0.913-0.355 1.307-0.995 1.307-0.78 0-1.277-0.518-1.277-1.555v-3.459h-0.994z" fill="#231f20"/>
   </g>
   <g transform="translate(106.3184,30.2778)">
    <path d="m0 0c-0.39 0.225-0.899 0.361-1.408 0.361-0.781 0-1.289-0.507-1.289-1.172 0-0.507 0.213-0.823 1.396-1.476 1.277-0.699 1.703-1.386 1.703-2.288 0-1.25-0.816-2.231-2.401-2.231-0.663 0-1.29 0.136-1.729 0.338v1.026c0.474-0.271 1.09-0.507 1.575-0.507 0.934 0 1.466 0.597 1.466 1.239 0 0.609-0.166 0.958-1.277 1.6-1.491 0.857-1.822 1.341-1.822 2.355 0 1.296 1.041 1.972 2.295 1.972 0.545 0 1.124-0.113 1.491-0.259z" fill="#231f20"/>
   </g>
   <g transform="translate(110.4707,23.6186)">
    <path d="m0 0c-0.236-0.079-0.567-0.146-0.84-0.146-0.911 0-1.395 0.349-1.395 1.363v3.696h-0.958v0.766h0.958v1.172l0.993 0.282v-1.454h1.242v-0.766h-1.242v-3.392c0-0.653 0.178-0.901 0.627-0.901 0.248 0 0.427 0.067 0.615 0.146z" fill="#231f20"/>
   </g>
   <g transform="translate(114.2676,26.3681)">
    <path d="m0 0c-0.178 0.023-0.426 0.023-0.697 0.023-1.171 0-1.728-0.53-1.728-1.195 0-0.608 0.331-1.003 1.019-1.003 0.862 0 1.406 0.665 1.406 1.454zm-2.887 2.535c0.497 0.304 1.114 0.473 1.704 0.473 0.887 0 1.42-0.36 1.61-0.54 0.26-0.248 0.52-0.598 0.52-1.409v-2.997c0-0.338 0.024-0.676 0.047-0.879h-0.898l-0.06 0.778h-0.023c-0.273-0.44-0.77-0.857-1.693-0.857-0.994 0-1.739 0.552-1.739 1.657 0 1.115 0.77 1.938 2.841 1.938h0.578v0.259c0 0.428-0.035 0.676-0.225 0.924-0.201 0.259-0.59 0.36-1.004 0.36-0.616 0-1.208-0.236-1.55-0.597z" fill="#231f20"/>
   </g>
   <g transform="translate(119.1182,23.6186)">
    <path d="m0 0c-0.235-0.079-0.567-0.146-0.84-0.146-0.911 0-1.395 0.349-1.395 1.363v3.696h-0.958v0.766h0.958v1.172l0.994 0.282v-1.454h1.241v-0.766h-1.241v-3.392c0-0.653 0.177-0.901 0.627-0.901 0.249 0 0.426 0.067 0.614 0.146z" fill="#231f20"/>
   </g>
   <g transform="translate(122.9521,26.8637)">
    <path d="m0 0c0 1.194-0.391 1.792-1.183 1.792-0.639 0-1.207-0.451-1.231-1.792zm-2.414-0.721c0-1.33 0.544-1.949 1.644-1.949 0.498 0 1.041 0.236 1.385 0.473l0.047-0.856c-0.474-0.215-1.088-0.339-1.692-0.339-1.597 0-2.425 1.15-2.425 2.953 0 1.802 0.828 2.952 2.331 2.952 1.36 0 2.118-1.037 2.118-2.727v-0.507z" fill="#231f20"/>
   </g>
   <g transform="translate(128.666,24.4077)">
    <path d="m0 0h0.627c1.822 0 2.769 1.183 2.769 3.2 0 1.645-0.734 2.952-2.769 2.952h-0.627zm-1.041 7.008h1.798c1.1 0 1.727-0.248 2.201-0.563 0.732-0.484 1.525-1.476 1.525-3.245 0-2.276-1.135-4.056-4.234-4.056h-1.29z" fill="#231f20"/>
   </g>
   <g transform="translate(137.3379,26.8637)">
    <path d="m0 0c0 1.194-0.391 1.792-1.183 1.792-0.639 0-1.207-0.451-1.231-1.792zm-2.414-0.721c0-1.33 0.544-1.949 1.645-1.949 0.497 0 1.041 0.236 1.384 0.473l0.047-0.856c-0.473-0.215-1.088-0.339-1.692-0.339-1.597 0-2.425 1.15-2.425 2.953 0 1.802 0.828 2.952 2.331 2.952 1.36 0 2.118-1.037 2.118-2.727v-0.507z" fill="#231f20"/>
   </g>
   <g transform="translate(141.4902,24.2387)">
    <path d="m0 0c0.911 0 1.325 0.744 1.325 2.186s-0.414 2.186-1.325 2.186-1.325-0.744-1.325-2.186 0.414-2.186 1.325-2.186m-2.319 4c0 0.349-0.035 0.71-0.047 1.059h0.959l0.035-0.845h0.022c0.262 0.451 0.71 0.924 1.586 0.924 1.243 0 2.082-0.969 2.082-2.952s-0.839-2.952-2.082-2.952c-0.685 0-1.135 0.259-1.537 0.867h-0.024v-3.222h-0.994z" fill="#231f20"/>
   </g>
   <g transform="translate(147.914,26.3681)">
    <path d="m0 0c-0.178 0.023-0.426 0.023-0.698 0.023-1.171 0-1.727-0.53-1.727-1.195 0-0.608 0.331-1.003 1.017-1.003 0.863 0 1.408 0.665 1.408 1.454zm-2.887 2.535c0.497 0.304 1.112 0.473 1.704 0.473 0.887 0 1.419-0.36 1.609-0.54 0.26-0.248 0.52-0.598 0.52-1.409v-2.997c0-0.338 0.024-0.676 0.048-0.879h-0.899l-0.06 0.778h-0.023c-0.272-0.44-0.769-0.857-1.692-0.857-0.994 0-1.739 0.552-1.739 1.657 0 1.115 0.769 1.938 2.839 1.938h0.58v0.259c0 0.428-0.036 0.676-0.225 0.924-0.201 0.259-0.591 0.36-1.004 0.36-0.617 0-1.208-0.236-1.552-0.597z" fill="#231f20"/>
   </g>
   <g transform="translate(150.1025,28.0581)">
    <path d="m0 0c0 0.417-0.036 0.834-0.047 1.239h0.958l0.035-0.901h0.025c0.318 0.699 0.827 0.98 1.715 0.98v-0.935c-0.119 0.023-0.248 0.034-0.378 0.034-0.77 0-1.314-0.631-1.314-1.882v-3.042h-0.994z" fill="#231f20"/>
   </g>
   <g transform="translate(156.1006,23.6186)">
    <path d="m0 0c-0.236-0.079-0.568-0.146-0.84-0.146-0.911 0-1.396 0.349-1.396 1.363v3.696h-0.958v0.766h0.958v1.172l0.994 0.282v-1.454h1.242v-0.766h-1.242v-3.392c0-0.653 0.177-0.901 0.627-0.901 0.249 0 0.426 0.067 0.615 0.146z" fill="#231f20"/>
   </g>
   <g transform="translate(156.7744,28.0581)">
    <path d="m0 0c0 0.417-0.036 0.834-0.047 1.239h0.958l0.036-0.856h0.024c0.319 0.654 0.827 0.935 1.49 0.935 0.64 0 1.112-0.315 1.42-0.901 0.319 0.563 0.781 0.901 1.468 0.901 1.041 0 1.751-0.574 1.751-1.836v-3.989h-0.995v3.944c0 0.732-0.332 1.07-0.922 1.07-0.734 0-1.136-0.428-1.136-1.465v-3.549h-0.994v3.944c0 0.732-0.331 1.07-0.923 1.07-0.734 0-1.136-0.428-1.136-1.465v-3.549h-0.994z" fill="#231f20"/>
   </g>
   <g transform="translate(168.3105,26.8637)">
    <path d="m0 0c0 1.194-0.392 1.792-1.184 1.792-0.638 0-1.207-0.451-1.23-1.792zm-2.414-0.721c0-1.33 0.544-1.949 1.644-1.949 0.498 0 1.041 0.236 1.384 0.473l0.047-0.856c-0.473-0.215-1.088-0.339-1.691-0.339-1.598 0-2.425 1.15-2.425 2.953 0 1.802 0.827 2.952 2.331 2.952 1.359 0 2.117-1.037 2.117-2.727v-0.507z" fill="#231f20"/>
   </g>
   <g transform="translate(170.2383,28.0581)">
    <path d="m0 0c0 0.417-0.036 0.834-0.047 1.239h0.958l0.035-0.856h0.024c0.319 0.654 0.828 0.935 1.526 0.935 1.053 0 1.763-0.574 1.763-1.836v-3.989h-0.994v3.707c0 0.913-0.355 1.307-0.994 1.307-0.78 0-1.277-0.518-1.277-1.555v-3.459h-0.994z" fill="#231f20"/>
   </g>
   <g transform="translate(178.4365,23.6186)">
    <path d="m0 0c-0.236-0.079-0.568-0.146-0.84-0.146-0.911 0-1.396 0.349-1.396 1.363v3.696h-0.958v0.766h0.958v1.172l0.994 0.282v-1.454h1.242v-0.766h-1.242v-3.392c0-0.653 0.178-0.901 0.627-0.901 0.249 0 0.427 0.067 0.615 0.146z" fill="#231f20"/>
   </g>
   <g transform="translate(183.914,24.2387)">
    <path d="m0 0c0.946 0 1.385 0.744 1.385 2.186s-0.439 2.186-1.385 2.186-1.384-0.744-1.384-2.186 0.438-2.186 1.384-2.186m0 5.138c1.598 0 2.426-1.149 2.426-2.952s-0.828-2.952-2.426-2.952c-1.597 0-2.425 1.149-2.425 2.952s0.828 2.952 2.425 2.952" fill="#231f20"/>
   </g>
   <g transform="translate(187.7471,28.5312)">
    <path d="m0 0h-0.958v0.766h0.958v1.285c0 0.935 0.45 1.555 1.504 1.555 0.27 0 0.556-0.034 0.779-0.09v-0.812c-0.118 0.09-0.331 0.135-0.566 0.135-0.557 0-0.723-0.293-0.723-0.867v-1.206h1.088v-0.766h-1.088v-4.98h-0.994z" fill="#231f20"/>
   </g>
   <g transform="translate(47.9971,17.142)">
    <path d="m0 0h1.811v-12.188h4.711v-1.49h-6.522z" fill="#231f20"/>
   </g>
   <g transform="translate(61.6387,8.3632)">
    <path d="m0 0c-0.309 0.039-0.74 0.039-1.214 0.039-2.037 0-3.004-0.921-3.004-2.077 0-1.058 0.576-1.744 1.77-1.744 1.502 0 2.448 1.156 2.448 2.528zm-5.02 4.409c0.864 0.529 1.934 0.823 2.963 0.823 1.543 0 2.469-0.627 2.798-0.941 0.452-0.431 0.905-1.038 0.905-2.449v-5.212c0-0.588 0.041-1.176 0.082-1.529h-1.563l-0.103 1.352h-0.041c-0.474-0.764-1.338-1.489-2.943-1.489-1.728 0-3.024 0.96-3.024 2.88 0 1.94 1.337 3.371 4.938 3.371h1.008v0.451c0 0.744-0.062 1.176-0.391 1.606-0.349 0.451-1.029 0.628-1.749 0.628-1.07 0-2.099-0.412-2.695-1.039z" fill="#231f20"/>
   </g>
   <g transform="translate(69.7656,4.6596)">
    <path d="m0 0c1.584 0 2.304 1.293 2.304 3.802 0 2.508-0.72 3.801-2.304 3.801s-2.304-1.293-2.304-3.801c0-2.509 0.72-3.802 2.304-3.802m-4.033 13.501h1.729v-6.074h0.041c0.699 1.058 1.481 1.509 2.675 1.509 2.16 0 3.621-1.686 3.621-5.134 0-3.45-1.461-5.134-3.621-5.134-1.523 0-2.305 0.823-2.758 1.606h-0.041l-0.061-1.469h-1.667c0.02 0.607 0.082 1.234 0.082 1.842z" fill="#231f20"/>
   </g>
   <g transform="translate(79.6626,4.6596)">
    <path d="m0 0c1.646 0 2.407 1.293 2.407 3.802 0 2.508-0.761 3.801-2.407 3.801s-2.407-1.293-2.407-3.801c0-2.509 0.761-3.802 2.407-3.802m0 8.936c2.778 0 4.218-1.999 4.218-5.134s-1.44-5.134-4.218-5.134-4.218 1.999-4.218 5.134 1.44 5.134 4.218 5.134" fill="#231f20"/>
   </g>
   <g transform="translate(86.041,11.3027)">
    <path d="m0 0c0 0.725-0.062 1.45-0.082 2.156h1.666l0.062-1.568h0.041c0.556 1.215 1.44 1.705 2.983 1.705v-1.627c-0.205 0.039-0.431 0.059-0.658 0.059-1.337 0-2.284-1.098-2.284-3.272v-5.291h-1.728z" fill="#231f20"/>
   </g>
   <g transform="translate(102.0068,15.9467)">
    <path d="m0 0c-0.967 0-1.687-0.588-1.687-1.47 0-0.705 0.741-1.822 1.317-2.488 1.419 0.842 1.934 1.528 1.934 2.469 0 0.764-0.515 1.489-1.564 1.489m-0.987-5.82c-1.071-0.666-1.914-1.626-1.914-2.88 0-1.392 1.008-2.509 2.634-2.509 0.946 0 1.996 0.647 2.448 1.313zm5.185-6.662-1.132 1.508c-0.72-1.097-2.12-1.646-3.56-1.646-2.757 0-4.218 1.725-4.218 3.782 0 1.921 0.967 3.175 2.839 4.155-0.637 0.862-1.46 1.998-1.46 3.115 0 1.784 1.378 2.9 3.312 2.9 1.955 0 3.231-1.214 3.231-2.841 0-1.215-0.782-2.469-2.737-3.527l2.654-3.508c0.535 1.117 0.782 2.332 0.864 3.743h1.729c-0.123-1.725-0.658-3.566-1.605-4.977l2.222-2.704z" fill="#231f20"/>
   </g>
   <path d="m115.566 17.142h1.811v-13.678h-1.811z" fill="#231f20"/>
   <g transform="translate(120.3799,11.3027)">
    <path d="m0 0c0 0.725-0.062 1.45-0.082 2.156h1.666l0.062-1.49h0.041c0.556 1.137 1.44 1.627 2.655 1.627 1.83 0 3.065-1 3.065-3.195v-6.936h-1.727v6.446c0 1.588-0.618 2.274-1.73 2.274-1.357 0-2.221-0.902-2.221-2.704v-6.016h-1.729z" fill="#231f20"/>
   </g>
   <g transform="translate(133.9805,12.2626)">
    <path d="m0 0c-1.585 0-2.304-1.293-2.304-3.802 0-2.508 0.719-3.801 2.304-3.801 1.584 0 2.304 1.293 2.304 3.801 0 2.509-0.72 3.802-2.304 3.802m4.033-6.956c0-0.608 0.061-1.235 0.082-1.842h-1.667l-0.062 1.469h-0.041c-0.452-0.784-1.234-1.606-2.757-1.606-2.16 0-3.621 1.684-3.621 5.133s1.461 5.135 3.621 5.135c1.194 0 1.975-0.451 2.675-1.509h0.041v6.074h1.729z" fill="#231f20"/>
   </g>
   <g transform="translate(147.9306,5.6196)">
    <path d="m0 0c0-0.725 0.062-1.45 0.082-2.156h-1.667l-0.061 1.49h-0.041c-0.556-1.137-1.441-1.626-2.656-1.626-1.831 0-3.064 0.999-3.064 3.193v6.937h1.727v-6.447c0-1.587 0.618-2.273 1.729-2.273 1.358 0 2.222 0.902 2.222 2.704v6.016h1.729z" fill="#231f20"/>
   </g>
   <g transform="translate(150.1523,5.4043)">
    <path d="m0 0c0.782-0.451 1.605-0.745 2.47-0.745 1.316 0 1.995 0.647 1.995 1.411 0 0.686-0.37 1.156-1.338 1.568l-1.151 0.49c-1.502 0.647-2.058 1.293-2.058 2.567 0 1.646 1.337 2.9 3.374 2.9 0.864 0 1.625-0.137 2.223-0.353l-0.082-1.411c-0.537 0.236-1.277 0.431-2.059 0.431-1.132 0-1.728-0.587-1.728-1.371 0-0.804 0.618-1.254 1.769-1.685l0.618-0.236c1.276-0.489 2.078-1.312 2.078-2.547 0-1.724-0.966-3.096-3.374-3.096-1.091 0-2.079 0.215-2.84 0.588z" fill="#231f20"/>
   </g>
   <g transform="translate(163.0117,3.5815)">
    <path d="m0 0c-0.412-0.137-0.987-0.254-1.461-0.254-1.584 0-2.428 0.607-2.428 2.371v6.427h-1.666v1.332h1.666v2.038l1.729 0.49v-2.528h2.16v-1.332h-2.16v-5.898c0-1.137 0.308-1.568 1.09-1.568 0.432 0 0.741 0.118 1.07 0.255z" fill="#231f20"/>
   </g>
   <g transform="translate(164.6377,11.3027)">
    <path d="m0 0c0 0.725-0.062 1.45-0.082 2.156h1.666l0.062-1.568h0.041c0.556 1.215 1.44 1.705 2.983 1.705v-1.627c-0.205 0.039-0.433 0.059-0.658 0.059-1.337 0-2.284-1.098-2.284-3.272v-5.291h-1.728z" fill="#231f20"/>
   </g>
   <path d="m171.057 13.458h1.729v-9.994h-1.729zm1.81 2.156h-1.894v1.96h1.894z" fill="#231f20"/>
   <g transform="translate(181.1172,9.2255)">
    <path d="m0 0c0 2.077-0.679 3.115-2.058 3.115-1.111 0-2.097-0.783-2.139-3.115zm-4.197-1.254c0-2.313 0.946-3.39 2.859-3.39 0.865 0 1.812 0.411 2.408 0.823l0.082-1.49c-0.823-0.372-1.891-0.587-2.942-0.587-2.777 0-4.218 1.998-4.218 5.134 0 3.135 1.441 5.134 4.054 5.134 2.366 0 3.683-1.803 3.683-4.743v-0.881z" fill="#231f20"/>
   </g>
   <g transform="translate(184.4717,5.4043)">
    <path d="m0 0c0.781-0.451 1.604-0.745 2.469-0.745 1.316 0 1.996 0.647 1.996 1.411 0 0.686-0.371 1.156-1.338 1.568l-1.152 0.49c-1.502 0.647-2.057 1.293-2.057 2.567 0 1.646 1.337 2.9 3.374 2.9 0.863 0 1.625-0.137 2.222-0.353l-0.082-1.411c-0.536 0.236-1.277 0.431-2.058 0.431-1.133 0-1.728-0.587-1.728-1.371 0-0.804 0.617-1.254 1.769-1.685l0.617-0.236c1.276-0.489 2.078-1.312 2.078-2.547 0-1.724-0.966-3.096-3.374-3.096-1.09 0-2.079 0.215-2.84 0.588z" fill="#231f20"/>
   </g>
  </g>
 </g>
</svg>
