<?xml version="1.0" encoding="UTF-8"?>
<svg version="1.1" viewBox="0 0 143.7533 26.01707" xmlns="http://www.w3.org/2000/svg">
 <defs>
  <clipPath id="a">
   <path d="M 0,19.513 H 107.815 V 0 H 0 Z"/>
  </clipPath>
 </defs>
 <g transform="matrix(1.333333 0 0 -1.333333 0 26.01707)">
  <g transform="translate(25.5006,8.9217)">
   <path d="m0 0v-8.575h7.886v1.487h-6.212v7.088z"/>
  </g>
  <path d="m35.366 0.346h1.673v8.575h-1.673z"/>
  <g clip-path="url(#a)">
   <g transform="translate(48.767,3.4024)">
    <path d="m0 0c-0.165-0.956-0.848-3.268-4.785-3.268-2.711 0-4.844 1.51-4.844 4.636 0 2.5 1.567 4.364 4.973 4.364 3.831 0 4.396-2.488 4.526-2.949h-1.674c-0.093 0.295-0.754 1.51-2.758 1.51-2.369 0-3.359-1.332-3.359-3.113 0-1.971 1.427-3.008 3.265-3.008 1.956 0 2.818 1.168 2.982 1.828h1.674"/>
   </g>
   <g transform="translate(50.829,8.9215)">
    <path d="m0 0h7.684v-1.438h-6.01v-1.994h5.174v-1.439h-5.174v-2.264h6.153v-1.439h-7.827z"/>
   </g>
   <g transform="translate(60.5883,8.9215)">
    <path d="m0 0h1.767l5.728-6.191v6.191h1.603v-8.574h-1.533l-5.962 6.416v-6.416h-1.603z"/>
   </g>
   <g transform="translate(78.974,6.3155)">
    <path d="m0 0c-0.271 0.767-0.967 1.427-3.007 1.427-1.131 0-2.273-0.282-2.273-1.073 0-0.366 0.212-0.755 1.921-0.967l2.026-0.307c1.922-0.295 3.054-1.038 3.054-2.476 0-2.03-1.934-2.784-4.22-2.784-3.678 0-4.573 1.817-4.773 2.465l1.615 0.507c0.305-0.624 0.942-1.533 3.206-1.533 1.366 0 2.499 0.448 2.499 1.191 0 0.554-0.638 0.92-1.863 1.073l-2.051 0.284c-1.981 0.27-3.088 1.131-3.088 2.44 0 2.572 3.336 2.572 3.996 2.572 3.688 0 4.324-1.71 4.536-2.3l-1.578-0.519"/>
   </g>
   <path d="m82.816 8.921h1.674v-8.575h-1.674z"/>
   <g transform="translate(87.2113,8.9215)">
    <path d="m0 0h1.769l5.726-6.191v6.191h1.605v-8.574h-1.533l-5.963 6.416v-6.416h-1.604z"/>
   </g>
   <g transform="translate(107.767,4.7472)">
    <path d="m0 0v-4.494h-1.015l-0.33 0.885c-0.648-0.424-1.543-1.002-3.205-1.002-2.193 0-4.844 1.073-4.844 4.481 0 2.288 1.378 4.517 4.797 4.517 1.968 0 4.123-0.731 4.536-2.89h-1.708c-0.2 0.437-0.66 1.45-2.628 1.45-2.688 0-3.323-1.815-3.323-3.007 0-2.028 1.366-3.065 3.181-3.065 1.651 0 2.57 0.577 2.972 1.78h-3.007v1.345h4.574"/>
   </g>
   <g transform="translate(26.8744,15.8155)">
    <path d="m0 0h0.581l0.479-2.623h0.011l0.393 2.623h0.661l-0.724-4.116h-0.592l-0.513 2.719h-0.011l-0.478-2.719h-0.593l-0.78 4.116h0.66l0.433-2.623h0.012z"/>
   </g>
   <g transform="translate(30.162,13.2267)">
    <path d="m0 0h0.57l-0.28 1.768h-0.011zm-0.228-1.528h-0.683l0.758 4.117h0.876l0.758-4.117h-0.683l-0.126 0.913h-0.775z"/>
   </g>
   <g transform="translate(33.6254,14.8004)">
    <path d="m0 0c-0.028 0.353-0.216 0.456-0.376 0.456-0.228 0-0.353-0.148-0.353-0.405 0-0.7 1.436-1.038 1.436-2.155 0-0.678-0.457-1.055-1.117-1.055-0.655 0-1.031 0.526-1.06 1.141l0.673 0.097c0.028-0.416 0.193-0.621 0.421-0.621 0.245 0 0.411 0.131 0.411 0.376 0 0.814-1.437 1.032-1.437 2.211 0 0.656 0.401 1.027 1.095 1.027 0.575 0 0.917-0.416 0.979-0.998l-0.672-0.074"/>
   </g>
   <g transform="translate(35.1522,11.6988)">
    <path d="m0 0v4.116h0.707v-1.676h0.751v1.676h0.707v-4.116h-0.707v1.825h-0.751v-1.825z"/>
   </g>
   <path d="m38.383 15.815h0.706v-4.116h-0.706z"/>
   <g transform="translate(40.1537,11.6988)">
    <path d="m0 0v4.116h0.655l0.86-2.354h0.012v2.354h0.638v-4.116h-0.615l-0.901 2.571h-0.011v-2.571z"/>
   </g>
   <g transform="translate(44.2611,13.7852)">
    <path d="m0 0h1.156v-2.086h-0.342l-0.13 0.308c-0.211-0.252-0.382-0.366-0.713-0.366-0.558 0-0.946 0.399-0.946 1.056v2.12c0 0.582 0.342 1.055 1.037 1.055 0.707 0 1.06-0.513 1.06-1.129v-0.262h-0.672c0 0.615-0.125 0.775-0.405 0.775-0.17 0-0.312-0.102-0.312-0.45v-2.115c0-0.262 0.084-0.433 0.329-0.433 0.286 0 0.388 0.159 0.388 0.569v0.4h-0.45v0.558"/>
   </g>
   <g transform="translate(46.8305,15.1993)">
    <path d="m0 0h-0.684v0.616h2.074v-0.616h-0.683v-3.5h-0.707z"/>
   </g>
   <g transform="translate(49.6273,12.7135)">
    <path d="m0 0c0-0.308 0.091-0.455 0.376-0.455s0.376 0.147 0.376 0.455v2.087c0 0.308-0.091 0.456-0.376 0.456s-0.376-0.148-0.376-0.456zm-0.706 2.104c0 0.582 0.342 1.055 1.082 1.055s1.082-0.473 1.082-1.055v-2.121c0-0.581-0.342-1.054-1.082-1.054s-1.082 0.473-1.082 1.054v2.121"/>
   </g>
   <g transform="translate(52.0541,11.6988)">
    <path d="m0 0v4.116h0.655l0.861-2.354h0.011v2.354h0.638v-4.116h-0.615l-0.901 2.571h-0.011v-2.571z"/>
   </g>
   <g transform="translate(58.0238,14.8004)">
    <path d="m0 0c-0.027 0.353-0.217 0.456-0.376 0.456-0.228 0-0.353-0.148-0.353-0.405 0-0.7 1.436-1.038 1.436-2.155 0-0.678-0.456-1.055-1.116-1.055-0.655 0-1.032 0.526-1.06 1.141l0.671 0.097c0.029-0.416 0.194-0.621 0.422-0.621 0.246 0 0.411 0.131 0.411 0.376 0 0.814-1.435 1.032-1.435 2.211 0 0.656 0.397 1.027 1.091 1.027 0.577 0 0.919-0.416 0.982-0.998l-0.673-0.074"/>
   </g>
   <g transform="translate(59.9613,15.1993)">
    <path d="m0 0h-0.684v0.616h2.074v-0.616h-0.683v-3.5h-0.707z"/>
   </g>
   <g transform="translate(62.5883,13.2267)">
    <path d="m0 0h0.569l-0.279 1.768h-0.012zm-0.227-1.528h-0.685l0.758 4.117h0.877l0.758-4.117h-0.683l-0.125 0.913h-0.776z"/>
   </g>
   <g transform="translate(64.9642,15.1993)">
    <path d="m0 0h-0.684v0.616h2.075v-0.616h-0.684v-3.5h-0.707z"/>
   </g>
   <g transform="translate(67.0551,11.6988)">
    <path d="m0 0v4.116h1.892v-0.616h-1.186v-1.06h0.912v-0.615h-0.912v-1.209h1.266v-0.616z"/>
   </g>
   <g transform="translate(72.1254,12.2809)">
    <path d="m0 0h0.245c0.375 0 0.506 0.143 0.506 0.576v1.801c0 0.433-0.131 0.576-0.506 0.576h-0.245zm-0.708 3.535h1.05c0.728 0 1.116-0.4 1.116-1.244v-1.63c0-0.843-0.388-1.243-1.116-1.243h-1.05v4.117"/>
   </g>
   <g transform="translate(74.5512,11.6988)">
    <path d="m0 0v4.116h1.892v-0.616h-1.185v-1.06h0.912v-0.615h-0.912v-1.209h1.265v-0.616z"/>
   </g>
   <g transform="translate(78.0717,13.9684)">
    <path d="m0 0h0.273c0.463 0 0.606 0.143 0.606 0.633s-0.143 0.632-0.606 0.632h-0.273zm-0.706-2.27v4.118h1.014c0.872 0 1.276-0.338 1.276-1.215 0-0.879-0.404-1.215-1.276-1.215h-0.308v-1.688h-0.706"/>
   </g>
   <g transform="translate(81.1371,13.2267)">
    <path d="m0 0h0.569l-0.279 1.768h-0.012zm-0.228-1.528h-0.683l0.758 4.117h0.876l0.758-4.117h-0.683l-0.125 0.913h-0.776z"/>
   </g>
   <g transform="translate(84.0189,13.9684)">
    <path d="m0 0h0.252c0.381 0 0.522 0.143 0.522 0.633s-0.141 0.632-0.522 0.632h-0.252zm0-2.27h-0.706v4.118h0.991c0.792 0 1.196-0.338 1.196-1.215 0-0.662-0.256-0.93-0.496-1.038l0.599-1.865h-0.718l-0.501 1.705c-0.092-0.011-0.238-0.017-0.365-0.017v-1.688"/>
   </g>
   <g transform="translate(86.8568,15.1993)">
    <path d="m0 0h-0.683v0.616h2.073v-0.616h-0.684v-3.5h-0.706z"/>
   </g>
   <g transform="translate(91.7787,15.8155)">
    <path d="m0 0v-4.116h-0.615v3.215h-0.013l-0.637-3.215h-0.341l-0.638 3.215h-0.012v-3.215h-0.616v4.116h0.929l0.502-2.406h0.011l0.502 2.406z"/>
   </g>
   <g transform="translate(92.7123,11.6988)">
    <path d="m0 0v4.116h1.892v-0.616h-1.185v-1.06h0.911v-0.615h-0.911v-1.209h1.265v-0.616z"/>
   </g>
   <g transform="translate(95.5267,11.6988)">
    <path d="m0 0v4.116h0.655l0.861-2.354h0.011v2.354h0.637v-4.116h-0.614l-0.901 2.571h-0.011v-2.571z"/>
   </g>
   <g transform="translate(99.0707,15.1993)">
    <path d="m0 0h-0.685v0.616h2.075v-0.616h-0.684v-3.5h-0.706z"/>
   </g>
   <g transform="translate(103.4164,12.7135)">
    <path d="m0 0c0-0.308 0.092-0.455 0.376-0.455 0.286 0 0.376 0.147 0.376 0.455v2.087c0 0.308-0.09 0.456-0.376 0.456-0.284 0-0.376-0.148-0.376-0.456zm-0.707 2.104c0 0.582 0.343 1.055 1.083 1.055s1.083-0.473 1.083-1.055v-2.121c0-0.581-0.343-1.054-1.083-1.054s-1.083 0.473-1.083 1.054v2.121"/>
   </g>
   <g transform="translate(105.8441,11.6988)">
    <path d="m0 0v4.116h1.971v-0.616h-1.266v-1.06h0.946v-0.615h-0.946v-1.825z"/>
   </g>
   <g transform="translate(12.8666,5.0968)">
    <path d="m0 0c0-0.789-0.641-1.431-1.43-1.431s-1.428 0.642-1.428 1.431 0.639 1.432 1.428 1.432 1.43-0.643 1.43-1.432"/>
    <path d="m0 0c0-0.789-0.641-1.431-1.43-1.431s-1.428 0.642-1.428 1.431 0.639 1.432 1.428 1.432 1.43-0.643 1.43-1.432z" fill="none" stroke="#000" stroke-width=".065"/>
   </g>
   <g transform="translate(3.5062,5.0938)">
    <path d="m0 0c0-1.212 0.802-2.146 2.181-2.146 1.381 0 2.182 0.934 2.182 2.146 0 1.177-0.801 2.165-2.182 2.165-1.379 0-2.181-0.988-2.181-2.165m7.646-2.902v-1.874h-3.395v1.063h-0.037c-0.596-0.952-1.771-1.381-2.89-1.381-2.835 0-4.83 2.369-4.83 5.115 0 2.742 1.958 5.092 4.793 5.092 1.099 0 2.255-0.41 2.964-1.249v6.849h3.395v-7.774l-5e-3 -0.034c-1.439-0.179-2.552-1.407-2.552-2.896 0-1.488 1.111-2.716 2.548-2.897l9e-3 -0.014"/>
   </g>
   <g transform="translate(11.8309,2.2218)">
    <path d="m0 0c1.434 0.171 2.547 1.393 2.547 2.875 0 1.477-1.102 2.692-2.527 2.872l-9e-3 0.012v11.532h3.707v-14.947l-6e-3 -0.067h5.059v-4.169h-8.76v1.886l-0.011 6e-3"/>
   </g>
  </g>
 </g>
</svg>
