<?xml version="1.0" encoding="utf-8"?>
<!-- Generator: Adobe Illustrator 24.1.0, SVG Export Plug-In . SVG Version: 6.00 Build 0)  -->
<svg version="1.1" id="Layer_1" xmlns="http://www.w3.org/2000/svg" xmlns:xlink="http://www.w3.org/1999/xlink" x="0px" y="0px"
	 viewBox="0 0 81 72.0220337" enable-background="new 0 0 81 72.0220337" xml:space="preserve">
<g>
	<defs>
		<rect id="SVGID_1_" width="81" height="72.0220337"/>
	</defs>
	<clipPath id="SVGID_2_">
		<use xlink:href="#SVGID_1_"  overflow="visible"/>
	</clipPath>
	<path clip-path="url(#SVGID_2_)" fill="#00535E" d="M22.3114967,18.5027466H18.092495v-0.0040283h-5.128994v24.6290283h8.5499992
		c8.4929962,0,13.4519958-4.7880249,13.4519958-12.9400024C34.9654961,23.1207275,29.8934975,18.5027466,22.3114967,18.5027466
		 M20.8295021,41.3037109H18.092495V20.3287354h3.6500015c5.4140015,0,7.237999,4.7869873,7.237999,10.7160034
		C28.9804955,36.2857666,26.6434975,41.3037109,20.8295021,41.3037109"/>
	<path clip-path="url(#SVGID_2_)" fill="#00535E" d="M7.9842987,20.8979492
		C17.4462929,9.072998,31.1782951,2.2279663,46.6992989,2.2279663c3.5629959,0,7.0289993,0.3729858,10.362999,1.0549927
		C51.6402931,1.1699829,45.6792946,0,39.4192924,0C23.2332954,0,9.0402985,7.8219604,0.0002975,20.8979492H7.9842987z"/>
	<path clip-path="url(#SVGID_2_)" fill="#00535E" d="M16.1511993,54.3699951h2.3950005
		c1.8819962,0,2.2329941,1.2539673,2.2329941,3.3930054c0,1.0549927,0.1620026,3.4689941-2.2899933,3.4689941h-2.3380013V54.3699951
		z M17.5862007,60.1769409h0.6939926c0.8740005,0,1.0450058-0.6559448,1.0450058-2.3759766
		c0-1.2639771,0-2.3759766-0.9980011-2.3759766h-0.7409973V60.1769409z"/>
	<path clip-path="url(#SVGID_2_)" fill="#00535E" d="M22.9081917,59.0461426c0,0.5700073,0.0190048,1.4259644,0.6080017,1.4259644
		c0.4749985,0,0.5709991-0.4569702,0.5709991-0.855957h1.3580017c-0.0179977,0.5230103-0.1900024,0.9509888-0.5130005,1.2449951
		c-0.3130035,0.2949829-0.788002,0.4660034-1.4160004,0.4660034c-1.7289963,0-1.9580002-1.0549927-1.9580002-2.5570068
		c0-1.3110352,0.1910019-2.4329834,1.9580002-2.4329834c1.8059998,0,2.0059967,1.1690063,1.9580002,2.7089844H22.9081917z
		 M24.1341972,58.295105c0-0.4659424,0.0189972-1.1309814-0.6180038-1.1309814
		c-0.6179962,0-0.6080017,0.7219849-0.6080017,1.1309814H24.1341972z"/>
	<path clip-path="url(#SVGID_2_)" fill="#00535E" d="M27.6975975,56.432312v0.5320435h0.0199966
		c0.2470016-0.4650269,0.6169968-0.6270142,1.1309967-0.6270142c1.387001,0,1.3390045,1.539978,1.3390045,2.5280151
		c0,0.9689941,0.0390015,2.4609985-1.310997,2.4609985c-0.4850006,0-0.8170013-0.1420288-1.0930023-0.5499878h-0.0190048v2.5179443
		h-1.3399963V56.432312H27.6975975z M28.8765984,58.7893066c0-0.9599609,0.0099945-1.625-0.5700073-1.625
		c-0.5509949,0-0.5419998,0.6650391-0.5419998,1.625c0,1.2070313,0.0860062,1.710022,0.5419998,1.710022
		C28.7915916,60.4993286,28.8765984,59.9963379,28.8765984,58.7893066"/>
	<path clip-path="url(#SVGID_2_)" fill="#00535E" d="M34.816494,60.3386841c0,0.2949829,0.038002,0.598999,0.0660019,0.8929443
		h-1.2439957l-0.0570068-0.6359863h-0.0199966c-0.284996,0.4940186-0.673996,0.7310181-1.2539978,0.7310181
		c-0.9309998,0-1.2730026-0.6929932-1.2730026-1.5300293c0-1.5869751,1.2259979-1.6539917,2.4700012-1.6349487V57.791626
		c0-0.4089966-0.0559998-0.7029419-0.5410004-0.7029419c-0.4660034,0-0.5039978,0.3509521-0.5039978,0.730957h-1.3120041
		c0-0.5789795,0.1809998-0.9500122,0.4950027-1.1690063c0.3040009-0.2279663,0.7409973-0.3129883,1.2539978-0.3129883
		c1.701004,0,1.9199982,0.7310181,1.9199982,1.6060181V60.3386841z M32.3455009,59.739624
		c0,0.342041,0.0569992,0.7600098,0.4939957,0.7600098c0.7890015,0,0.6650009-1.0639648,0.6650009-1.5869751
		C32.8394966,58.9416504,32.3455009,58.8846436,32.3455009,59.739624"/>
	<path clip-path="url(#SVGID_2_)" fill="#00535E" d="M37.2020988,56.432312v0.618042h0.0189972
		c0.2470016-0.5510254,0.7029953-0.7130127,1.2450027-0.7130127v1.1970215
		c-1.1790009-0.0750122-1.1970062,0.6079712-1.1970062,1.0839844v2.6129761h-1.3409958V56.432312H37.2020988z"/>
	<path clip-path="url(#SVGID_2_)" fill="#00535E" d="M38.9316978,56.432312h0.5419998v-0.7599487l1.3399963-0.598999v1.3589478
		h0.6940002v0.8270264H40.813694v2.565979c0,0.3610229-0.0100021,0.598999,0.427002,0.598999
		c0.0859985,0,0.1709976,0,0.237999-0.0189819v0.8259888c-0.1800003,0.0200195-0.3710022,0.0480347-0.6940002,0.0480347
		c-1.1590042,0-1.310997-0.7700195-1.310997-1.0640259v-2.9559937h-0.5419998V56.432312z"/>
	<path clip-path="url(#SVGID_2_)" fill="#00535E" d="M43.7310982,56.9169312h0.0189972
		c0.2659988-0.4279785,0.6269989-0.5799561,1.1309967-0.5799561c0.4750061,0,0.8550034,0.2290039,1.0740051,0.6090088
		c0.3129959-0.4190063,0.6940002-0.6090088,1.2449951-0.6090088c0.637001,0,1.1980057,0.3809814,1.1980057,1.0459595v3.848999
		h-1.3410034v-3.3069458c0-0.4280396-0.0759964-0.7610474-0.5029984-0.7610474
		c-0.4280014,0-0.5040054,0.3330078-0.5040054,0.7610474v3.3069458h-1.3119965v-3.3069458
		c0-0.4280396-0.0749969-0.7610474-0.5029984-0.7610474s-0.5039978,0.3330078-0.5039978,0.7610474v3.3069458h-1.340004v-4.7999878
		h1.340004V56.9169312z"/>
	<path clip-path="url(#SVGID_2_)" fill="#00535E" d="M50.4027901,59.0461426c0,0.5700073,0.0190048,1.4259644,0.6080017,1.4259644
		c0.4749985,0,0.5699997-0.4569702,0.5699997-0.855957h1.3590012c-0.0179977,0.5230103-0.1900024,0.9509888-0.5130005,1.2449951
		c-0.3130035,0.2949829-0.7890015,0.4660034-1.4160004,0.4660034c-1.7289963,0-1.9580002-1.0549927-1.9580002-2.5570068
		c0-1.3110352,0.1910019-2.4329834,1.9580002-2.4329834c1.8059998,0,2.0059967,1.1690063,1.9580002,2.7089844H50.4027901z
		 M51.6287956,58.295105c0-0.4659424,0.0189972-1.1309814-0.6180038-1.1309814
		c-0.6179962,0-0.6080017,0.7219849-0.6080017,1.1309814H51.6287956z"/>
	<path clip-path="url(#SVGID_2_)" fill="#00535E" d="M55.2590981,56.9169312h0.0189972
		c0.1329956-0.2189941,0.2949982-0.3609619,0.4749985-0.4469604c0.1900024-0.0950317,0.4090042-0.1329956,0.6559982-0.1329956
		c0.637001,0,1.1980057,0.3809814,1.1980057,1.0459595v3.848999h-1.3410034v-3.3069458
		c0-0.4280396-0.0749969-0.7610474-0.5029984-0.7610474s-0.5039978,0.3330078-0.5039978,0.7610474v3.3069458h-1.340004v-4.7999878
		h1.340004V56.9169312z"/>
	<path clip-path="url(#SVGID_2_)" fill="#00535E" d="M58.1294975,56.432312h0.5419998v-0.7599487l1.3399963-0.598999v1.3589478
		h0.6940002v0.8270264h-0.6940002v2.565979c0,0.3610229-0.0100021,0.598999,0.4280014,0.598999
		c0.0849991,0,0.1699982,0,0.2369995-0.0189819v0.8259888c-0.1800003,0.0200195-0.3710022,0.0480347-0.6940002,0.0480347
		c-1.1590042,0-1.310997-0.7700195-1.310997-1.0640259v-2.9559937h-0.5419998V56.432312z"/>
	<path clip-path="url(#SVGID_2_)" fill="#00535E" d="M63.3084908,58.7702026c0-1.3110352,0.1910019-2.4330444,1.958004-2.4330444
		c1.7679977,0,1.9580002,1.1220093,1.9580002,2.4330444c0,1.5019531-0.2279968,2.5570068-1.9580002,2.5570068
		C63.5374947,61.3272095,63.3084908,60.2721558,63.3084908,58.7702026 M65.8844986,58.6941528
		c0-0.9979858-0.0480042-1.5009766-0.6180038-1.5009766s-0.6179962,0.5029907-0.6179962,1.5009766
		c0,1.4630127,0.1239929,1.7780151,0.6179962,1.7780151S65.8844986,60.1571655,65.8844986,58.6941528"/>
	<path clip-path="url(#SVGID_2_)" fill="#00535E" d="M70.2370987,55.1967163
		c-0.5420074-0.0379639-0.6560059,0.1710205-0.6560059,0.6560059v0.5800171h0.6269989v0.8259888h-0.6269989v3.9730225h-1.3399963
		V57.258728h-0.5979996v-0.8259888h0.6080017c-0.0100021-1.3779907-0.1240005-2.1099854,1.510994-2.1099854
		c0.1610031,0,0.314003,0.0089722,0.4750061,0.0189819V55.1967163z"/>
	<path clip-path="url(#SVGID_2_)" fill="#00535E" d="M6.5380974,70.2081909H5.103096v-6.8619995h2.651001
		c0.9790001,0,1.6069984,0.6270142,1.6069984,1.7960205c0,0.8739624-0.3429985,1.5299683-1.2739983,1.6819458v0.019043
		c0.3139992,0.0379639,1.2449989,0.1140137,1.2449989,1.3499756c0,0.4370117,0.0289993,1.7300415,0.1619987,2.0150146H8.0870972
		c-0.1900024-0.4190063-0.1520004-0.8840332-0.1520004-1.3309937c0-0.8179932,0.0760002-1.5109863-1.0270004-1.5109863H6.5380974
		V70.2081909z M6.5380974,66.3111572h0.6369972c0.5699997,0,0.7320023-0.5699463,0.7320023-1.0079956
		c0-0.6549683-0.276001-0.9019775-0.7320023-0.9019775H6.5380974V66.3111572z"/>
	<path clip-path="url(#SVGID_2_)" fill="#00535E" d="M11.5846977,68.0220947c0,0.5700073,0.019001,1.4259644,0.6080017,1.4259644
		c0.4749985,0,0.5699997-0.4569702,0.5699997-0.855957h1.3589973c-0.0179977,0.5230103-0.1899986,0.9509888-0.5130005,1.2449951
		c-0.3129997,0.2949829-0.7879982,0.4660034-1.4159966,0.4660034c-1.7300034,0-1.9580002-1.0549927-1.9580002-2.5570068
		c0-1.3120117,0.1909981-2.4329834,1.9580002-2.4329834c1.8059998,0,2.0059967,1.1690063,1.9579964,2.7089844H11.5846977z
		 M12.8106995,67.2710571c0-0.4659424,0.0189972-1.1309814-0.618-1.1309814c-0.618,0-0.6080017,0.7219849-0.6080017,1.1309814
		H12.8106995z"/>
	<path clip-path="url(#SVGID_2_)" fill="#00535E" d="M14.5593987,65.4082031h0.5419998v-0.7599487l1.3400002-0.598999v1.3589478
		h0.6939964v0.8270264h-0.6939964v2.565979c0,0.3610229-0.0100021,0.598999,0.4269981,0.598999
		c0.0859985,0,0.1710014,0,0.237999-0.0189819v0.8259888c-0.1800003,0.0200195-0.3709984,0.0480347-0.6940002,0.0480347
		c-1.1590004,0-1.310997-0.7700195-1.310997-1.0640259v-2.9559937h-0.5419998V65.4082031z"/>
	<path clip-path="url(#SVGID_2_)" fill="#00535E" d="M19.3869972,64.401001h-1.3399963v-1.0549927h1.3399963V64.401001z
		 M19.3869972,70.2080078h-1.3399963v-4.7990112h1.3399963V70.2080078z"/>
	<path clip-path="url(#SVGID_2_)" fill="#00535E" d="M21.848896,65.4082031v0.618042h0.0189972
		c0.2470016-0.552002,0.7029953-0.7130127,1.2450027-0.7130127v1.1970215
		c-1.1790009-0.0760498-1.1970062,0.6090088-1.1970062,1.0839844v2.6129761H20.574894v-4.7990112H21.848896z"/>
	<path clip-path="url(#SVGID_2_)" fill="#00535E" d="M24.9754906,68.0220947c0,0.5700073,0.0190048,1.4259644,0.6080017,1.4259644
		c0.4759979,0,0.5699997-0.4569702,0.5699997-0.855957h1.3590012c-0.0179977,0.5230103-0.1900024,0.9509888-0.5130005,1.2449951
		c-0.3130035,0.2949829-0.788002,0.4660034-1.4160004,0.4660034c-1.7289963,0-1.9580002-1.0549927-1.9580002-2.5570068
		c0-1.3120117,0.1910019-2.4329834,1.9580002-2.4329834c1.8059998,0,2.0059967,1.1690063,1.9580002,2.7089844H24.9754906z
		 M26.2014961,67.2710571c0-0.4659424,0.0189972-1.1309814-0.6180038-1.1309814
		c-0.6169968,0-0.6080017,0.7219849-0.6080017,1.1309814H26.2014961z"/>
	<path clip-path="url(#SVGID_2_)" fill="#00535E" d="M29.7274971,65.8929443h0.0189972
		c0.2659988-0.4279785,0.6269989-0.5799561,1.1309967-0.5799561c0.4750061,0,0.8550034,0.2279663,1.0740051,0.6079712
		c0.3129959-0.4179688,0.6940002-0.6079712,1.2449951-0.6079712c0.637001,0,1.1969986,0.3800049,1.1969986,1.0459595v3.848999
		h-1.3399963v-3.3079834c0-0.427002-0.0759964-0.7600098-0.5029984-0.7600098c-0.4280014,0-0.5040054,0.3330078-0.5040054,0.7600098
		v3.3079834h-1.3119965v-3.3079834c0-0.427002-0.0759964-0.7600098-0.5029984-0.7600098
		c-0.4280014,0-0.5039978,0.3330078-0.5039978,0.7600098v3.3079834h-1.340004V65.407959h1.340004V65.8929443z"/>
	<path clip-path="url(#SVGID_2_)" fill="#00535E" d="M36.5890923,68.0220947c0,0.5700073,0.0190048,1.4259644,0.6080017,1.4259644
		c0.4759979,0,0.5699997-0.4569702,0.5699997-0.855957h1.3590012c-0.0179977,0.5230103-0.1900024,0.9509888-0.5130005,1.2449951
		c-0.3130035,0.2949829-0.788002,0.4660034-1.4160004,0.4660034c-1.7289963,0-1.9580002-1.0549927-1.9580002-2.5570068
		c0-1.3120117,0.1910019-2.4329834,1.9580002-2.4329834c1.8059998,0,2.0059967,1.1690063,1.9580002,2.7089844H36.5890923z
		 M37.8150978,67.2710571c0-0.4659424,0.0189972-1.1309814-0.6180038-1.1309814
		c-0.6179962,0-0.6080017,0.7219849-0.6080017,1.1309814H37.8150978z"/>
	<path clip-path="url(#SVGID_2_)" fill="#00535E" d="M41.4455986,65.8929443h0.0189972
		c0.1329956-0.2179565,0.2949982-0.3609619,0.4749985-0.4469604c0.1900024-0.0950317,0.4090042-0.1329956,0.6559982-0.1329956
		c0.637001,0,1.1969986,0.3800049,1.1969986,1.0459595v3.848999h-1.3399963v-3.3079834
		c0-0.427002-0.0759964-0.7600098-0.5029984-0.7600098c-0.4280014,0-0.5039978,0.3330078-0.5039978,0.7600098v3.3079834h-1.340004
		V65.407959h1.340004V65.8929443z"/>
	<path clip-path="url(#SVGID_2_)" fill="#00535E" d="M44.3157005,65.4082031h0.5419998v-0.7599487l1.3399963-0.598999v1.3589478
		h0.6940002v0.8270264h-0.6940002v2.565979c0,0.3610229-0.0090027,0.598999,0.427002,0.598999
		c0.0859985,0,0.1719971,0,0.237999-0.0189819v0.8259888c-0.1800003,0.0200195-0.3700027,0.0480347-0.6940002,0.0480347
		c-1.1590042,0-1.310997-0.7700195-1.310997-1.0640259v-2.9559937h-0.5419998V65.4082031z"/>
	<path clip-path="url(#SVGID_2_)" fill="#00535E" d="M51.5387001,70.3217163c-1.7780075,0-2.1100006-1.0459595-2.0340042-2.2329712
		h1.4349976c0,0.6550293,0.0289993,1.2070313,0.8180008,1.2070313c0.4840012,0,0.7220001-0.3140259,0.7220001-0.7800293
		c0-1.2349854-2.8889999-1.3109741-2.8889999-3.3549805c0-1.072998,0.5130005-1.9290161,2.262001-1.9290161
		c1.3960037,0,2.090004,0.6270142,1.9950027,2.0620117H52.450695c0-0.5130005-0.0849991-1.0360107-0.6650009-1.0360107
		c-0.4659958,0-0.7409973,0.257019-0.7409973,0.7319946c0,1.302002,2.8889999,1.1879883,2.8889999,3.3460083
		C53.9336967,70.1127319,52.6316948,70.3217163,51.5387001,70.3217163"/>
	<polygon clip-path="url(#SVGID_2_)" fill="#00535E" points="55.5586967,70.2458496 54.2566948,65.4088745 55.5876961,65.4088745 
		56.2716942,68.7828979 56.2906914,68.7828979 57.0126915,65.4088745 58.3056908,65.4088745 56.4526939,72.0228882 
		55.0456963,72.0228882 	"/>
	<path clip-path="url(#SVGID_2_)" fill="#00535E" d="M59.9780006,68.6682129c-0.0100021,0.2190552,0,0.427002,0.0659943,0.5800171
		c0.0770035,0.1520386,0.2190018,0.2280273,0.4850006,0.2280273s0.4940033-0.1710205,0.4940033-0.4949951
		c0-1.0159912-2.3560028-0.7880249-2.3560028-2.3179932c0-1.0370483,1.026001-1.3500366,1.8909988-1.3500366
		c0.9120026,0,1.7389984,0.4370117,1.663002,1.4730225h-1.3119965c0-0.3330078-0.038002-0.5319824-0.1330032-0.618042
		c-0.0849991-0.0849609-0.1989975-0.1039429-0.3420029-0.1039429c-0.2939987,0-0.4559937,0.1900024-0.4559937,0.5130005
		c0,0.7599487,2.3569946,0.7219849,2.3569946,2.2619629c0,0.8359985-0.6839981,1.4639893-1.7959976,1.4639893
		c-1.1689987,0-1.9489975-0.2949829-1.8720016-1.6350098H59.9780006z"/>
	<path clip-path="url(#SVGID_2_)" fill="#00535E" d="M62.7907982,65.4082031h0.5419998v-0.7599487l1.3400002-0.598999v1.3589478
		h0.6940002v0.8270264h-0.6940002v2.565979c0,0.3610229-0.0090027,0.598999,0.427002,0.598999
		c0.0859985,0,0.1719971,0,0.237999-0.0189819v0.8259888c-0.1800003,0.0200195-0.3700027,0.0480347-0.6940002,0.0480347
		c-1.159008,0-1.3110008-0.7700195-1.3110008-1.0640259v-2.9559937h-0.5419998V65.4082031z"/>
	<path clip-path="url(#SVGID_2_)" fill="#00535E" d="M67.2101974,68.0220947c0,0.5700073,0.0190048,1.4259644,0.6080017,1.4259644
		c0.4749985,0,0.5709991-0.4569702,0.5709991-0.855957H69.7472c-0.0179977,0.5230103-0.1900024,0.9509888-0.5130005,1.2449951
		c-0.3130035,0.2949829-0.788002,0.4660034-1.4160004,0.4660034c-1.7289963,0-1.9580002-1.0549927-1.9580002-2.5570068
		c0-1.3120117,0.1910019-2.4329834,1.9580002-2.4329834c1.8059998,0,2.0059967,1.1690063,1.9580002,2.7089844H67.2101974z
		 M68.436203,67.2710571c0-0.4659424,0.0189972-1.1309814-0.6180038-1.1309814
		c-0.6179962,0-0.6080017,0.7219849-0.6080017,1.1309814H68.436203z"/>
	<path clip-path="url(#SVGID_2_)" fill="#00535E" d="M71.962204,65.8929443h0.0189972
		c0.2659988-0.4279785,0.6269989-0.5799561,1.1309967-0.5799561c0.4750061,0,0.8550034,0.2279663,1.0740051,0.6079712
		c0.3129959-0.4179688,0.6940002-0.6079712,1.2449951-0.6079712c0.637001,0,1.1980057,0.3800049,1.1980057,1.0459595v3.848999
		h-1.3410034v-3.3079834c0-0.427002-0.0759964-0.7600098-0.5029984-0.7600098c-0.4280014,0-0.5040054,0.3330078-0.5040054,0.7600098
		v3.3079834h-1.3119965v-3.3079834c0-0.427002-0.0759964-0.7600098-0.5029984-0.7600098
		c-0.4280014,0-0.5039978,0.3330078-0.5039978,0.7600098v3.3079834H70.6222V65.407959h1.340004V65.8929443z"/>
	<path clip-path="url(#SVGID_2_)" fill="#00535E" d="M78.6433029,68.6682129c-0.0100021,0.2190552,0,0.427002,0.0659943,0.5800171
		c0.0770035,0.1520386,0.2190018,0.2280273,0.4850006,0.2280273s0.4940033-0.1710205,0.4940033-0.4949951
		c0-1.0159912-2.3560028-0.7880249-2.3560028-2.3179932c0-1.0370483,1.026001-1.3500366,1.8909988-1.3500366
		c0.9120026,0,1.7389984,0.4370117,1.663002,1.4730225h-1.3119965c0-0.3330078-0.038002-0.5319824-0.1330032-0.618042
		c-0.0849991-0.0849609-0.1989975-0.1039429-0.3420029-0.1039429c-0.2939987,0-0.4559937,0.1900024-0.4559937,0.5130005
		c0,0.7599487,2.3569946,0.7219849,2.3569946,2.2619629c0,0.8359985-0.6839981,1.4639893-1.7959976,1.4639893
		c-1.1689987,0-1.9489975-0.2949829-1.8720016-1.6350098H78.6433029z"/>
	<path clip-path="url(#SVGID_2_)" fill="#00535E" d="M61.9029961,24.0561523c0-0.8569946,0.2099991-1.4949951,0.560997-1.9759521
		c0.409996-0.4470215,1.5029984-1.1190186,4.3350029-1.1650391l12.0579987,0.007019
		c-6.5309982-9.7440186-18.420002-16.2639771-32.0050011-16.2639771c-6.1220016,0-11.8939972,1.3319702-16.9899979,3.677002
		c3.1240005-0.6750488,6.3959961-1.0370483,9.7689972-1.0370483c11.9909973,0,22.7210007,4.5560303,29.9570045,11.7310181
		c-1.1419983-0.1159668-2.4769974-0.2189941-3.9810028-0.2189941c-3.6469994,0-8.4920006,1.4830322-8.4920006,7.0120239
		c0,6.9549561,11.0000038,6.8410034,11.0000038,12.026001c0,3.0789795-2.848999,3.7630005-5.3580055,3.7630005
		c-0.0839996,0-7.060997,0.0139771-7.060997,0.0139771l-5.6610031-10.1589966
		c3.4189987-1.085022,5.3000031-2.223999,5.3000031-6.0430298c0-4.1029663-3.3059998-6.6129761-7.4090042-6.6129761h-10.772995
		v24.625h5.1299973V20.6351929h2.4499969c4.2750015,0,5.4720001,2.5639648,5.4720001,4.9599609
		c0,3.3619995-1.3669968,5.5280151-5.0149994,5.5280151h-0.5709991l6.1569977,12.3120117l14.3230095-0.0109863
		c4.4079971-0.1050415,8.1459961-2.2219849,8.1459961-6.9420166C73.2449951,28.5021973,61.9029961,28.7271729,61.9029961,24.0561523
		"/>
	<polygon clip-path="url(#SVGID_2_)" fill="#00535E" points="11.6176987,50.9102173 12.4516983,48.74823 12.7436981,48.74823 
		11.4156952,52.1122437 11.4056969,52.1122437 10.7846985,50.4602661 10.1226959,52.1122437 10.1126976,52.1122437 
		8.8596954,48.74823 9.4856987,48.74823 10.3046951,50.9252319 10.6326981,50.0872192 10.1426964,48.74823 10.7896957,48.74823 	"/>
	<path clip-path="url(#SVGID_2_)" fill="#00535E" d="M16.7502975,52.0214233h-0.632L15.770298,51.168457h-1.1269989
		l-0.3280029,0.8529663H14.027298l1.3330002-3.3639526h0.0110016L16.7502975,52.0214233z M15.2042999,49.753418
		l-0.4750023,1.2020264h0.9550018L15.2042999,49.753418z"/>
	<path clip-path="url(#SVGID_2_)" fill="#00535E" d="M19.0181999,51.4356079
		c0.1719971,0.2730103,0.3539963,0.4190063,0.6769943,0.4190063c0.2830048,0,0.5859985-0.2269897,0.5859985-0.565979
		c0-0.9489746-1.5359955-0.5-1.5359955-1.6710205c0-0.526001,0.4400024-0.9609985,1.0510025-0.9609985
		c0.4039993,0,0.8129959,0.2230225,0.984993,0.5870361l-0.211998,0.1359863
		c-0.1259995-0.2630005-0.322998-0.4650269-0.6719971-0.4650269c-0.3380051,0-0.5360031,0.2580566-0.5360031,0.5710449
		c0,0.7680054,1.5360031,0.4450073,1.5360031,1.6269531c0,0.6010132-0.5250015,1-1.076004,1
		c-0.4440002,0-0.8029938-0.131958-1.0299988-0.5099487L19.0181999,51.4356079z"/>
	<polygon clip-path="url(#SVGID_2_)" fill="#00535E" points="23.0390968,52.0215454 23.0390968,48.7485962 23.6550941,48.7485962 
		23.6550941,50.187561 24.9990959,50.187561 24.9990959,48.7485962 25.6150932,48.7485962 25.6150932,52.0215454 
		24.9990959,52.0215454 24.9990959,50.4455566 23.6550941,50.4455566 23.6550941,52.0215454 	"/>
	<rect x="28.0399971" y="48.7480469" clip-path="url(#SVGID_2_)" fill="#00535E" width="0.6159973" height="3.2730103"/>
	<polygon clip-path="url(#SVGID_2_)" fill="#00535E" points="31.1013985,52.0215454 31.1013985,48.7485962 31.6523933,48.7485962 
		33.3643913,51.0015869 33.3743935,51.0015869 33.3743935,48.7485962 33.637394,48.7485962 33.637394,52.0215454 
		33.3643913,52.0215454 31.3743935,49.4095459 31.3643913,49.4095459 31.3643913,52.0215454 	"/>
	<path clip-path="url(#SVGID_2_)" fill="#00535E" d="M38.9413948,50.425354v1.1820068
		c-0.404007,0.322998-0.904007,0.5050049-1.4450073,0.5050049c-0.923996,0-1.6669998-0.7730103-1.6669998-1.6870117
		c0-1.0459595,0.7680054-1.7679443,1.7280045-1.7679443c0.5149994,0,0.9799957,0.2729492,1.2630005,0.677002l-0.1819992,0.1309814
		c-0.237999-0.3079834-0.5100021-0.5960083-0.9449997-0.5960083c-0.7980042,0-1.2020035,0.5859985-1.2020035,1.5310059
		c0,0.8029785,0.3740005,1.5,1.1470032,1.5c0.2879944,0,0.5810013-0.1110229,0.6869965-0.2529907V50.425354H38.9413948z"/>
	<polygon clip-path="url(#SVGID_2_)" fill="#00535E" points="41.547802,52.0215454 41.547802,48.9605713 40.8958015,48.9605713 
		40.8958015,48.7485962 42.8157997,48.7485962 42.8157997,48.9605713 42.1647987,48.9605713 42.1647987,52.0215454 	"/>
	<path clip-path="url(#SVGID_2_)" fill="#00535E" d="M46.2963982,48.6574707c0.9499969,0,1.6259995,0.7630005,1.6259995,1.7269897
		c0,0.9650269-0.6760025,1.7280273-1.6259995,1.7280273c-0.9450073,0-1.6220016-0.7630005-1.6220016-1.7280273
		C44.6743965,49.4204712,45.3513908,48.6574707,46.2963982,48.6574707 M46.2963982,51.9004517
		c0.7879944,0,0.9649963-0.8789673,0.9649963-1.5159912c0-0.6359863-0.177002-1.5149536-0.9649963-1.5149536
		c-0.788002,0-0.9600067,0.8789673-0.9600067,1.5149536C45.3363914,51.0214844,45.5083961,51.9004517,46.2963982,51.9004517"/>
	<polygon clip-path="url(#SVGID_2_)" fill="#00535E" points="50.0798988,52.0215454 50.0798988,48.7485962 50.6308937,48.7485962 
		52.3428917,51.0015869 52.3538933,51.0015869 52.3538933,48.7485962 52.6158943,48.7485962 52.6158943,52.0215454 
		52.3428917,52.0215454 50.3528938,49.4095459 50.3428917,49.4095459 50.3428917,52.0215454 	"/>
	<path clip-path="url(#SVGID_2_)" fill="#00535E" d="M58.2935982,51.4356079
		c0.1719971,0.2730103,0.3539963,0.4190063,0.6769943,0.4190063c0.2830048,0,0.5859985-0.2269897,0.5859985-0.565979
		c0-0.9489746-1.5359955-0.5-1.5359955-1.6710205c0-0.526001,0.4400024-0.9609985,1.0510025-0.9609985
		c0.4039993,0,0.8129959,0.2230225,0.984993,0.5870361l-0.211998,0.1359863
		c-0.1259995-0.2630005-0.322998-0.4650269-0.6719971-0.4650269c-0.3380051,0-0.5350037,0.2580566-0.5350037,0.5710449
		c0,0.7680054,1.5350037,0.4450073,1.5350037,1.6269531c0,0.6010132-0.5250015,1-1.076004,1
		c-0.4440002,0-0.8029938-0.131958-1.0299988-0.5099487L58.2935982,51.4356079z"/>
	<polygon clip-path="url(#SVGID_2_)" fill="#00535E" points="62.7742958,52.0215454 62.7742958,48.9605713 62.1222954,48.9605713 
		62.1222954,48.7485962 64.0422974,48.7485962 64.0422974,48.9605713 63.3902931,48.9605713 63.3902931,52.0215454 	"/>
	<path clip-path="url(#SVGID_2_)" fill="#00535E" d="M68.2798004,52.0214233h-0.6310043l-0.3479996-0.8529663h-1.1269989
		l-0.3280029,0.8529663h-0.2879944l1.3339996-3.3639526h0.0100021L68.2798004,52.0214233z M66.7348022,49.753418
		l-0.4750061,1.2020264h0.9550018L66.7348022,49.753418z"/>
	<polygon clip-path="url(#SVGID_2_)" fill="#00535E" points="70.4477005,52.0215454 70.4477005,48.9605713 69.7957001,48.9605713 
		69.7957001,48.7485962 71.7156982,48.7485962 71.7156982,48.9605713 71.0636978,48.9605713 71.0636978,52.0215454 	"/>
	<polygon clip-path="url(#SVGID_2_)" fill="#00535E" points="73.8423996,52.0215454 73.8423996,48.7485962 75.7773972,48.7485962 
		75.7773972,48.9605713 74.4583969,48.9605713 74.4583969,50.2235718 75.7013931,50.2235718 75.7013931,50.4355469 
		74.4583969,50.4355469 74.4583969,51.8095703 75.7973938,51.8095703 75.7973938,52.0215454 	"/>
</g>
<g>
</g>
<g>
</g>
<g>
</g>
<g>
</g>
<g>
</g>
<g>
</g>
</svg>
