<?xml version="1.0" encoding="utf-8"?>
<!-- Generator: Adobe Illustrator 24.1.0, SVG Export Plug-In . SVG Version: 6.00 Build 0)  -->
<svg version="1.1" id="Layer_1" xmlns="http://www.w3.org/2000/svg" xmlns:xlink="http://www.w3.org/1999/xlink" x="0px" y="0px"
	 width="533px" height="188px" viewBox="0 0 89.5378494 31.1781387" enable-background="new 0 0 89.5378494 31.1781387" xml:space="preserve">
<g>
	<g>
		<path d="M60.1075134,29.1600342l-0.019043,0.4970093c0.3410034,0.31604,0.7390137,0.4819946,1.0150146,0.4819946
			c0.5139771,0,0.7059937-0.4749756,0.7059937-0.8349609c0-1.3030396-2.0670166-0.684021-2.0670166-2.4039917
			c0-0.7839966,0.5050049-1.5250244,1.4260254-1.5250244c0.3699951,0,0.7160034,0.0930176,1.1829834,0.315979
			c-0.0979614,0.3320313-0.1959839,0.7340088-0.2659912,1.0939941l-0.1729736-0.0719604l0.0189819-0.3950195
			c-0.2290039-0.2600098-0.6459961-0.382019-0.875-0.382019c-0.3220215,0-0.6879883,0.1940308-0.6879883,0.6980591
			c0,1.1659546,2.0960083,0.5179443,2.0960083,2.3529663c0,0.8569946-0.4869995,1.7130127-1.5250244,1.7130127
			c-0.4530029,0-0.9400024-0.1370239-1.3190308-0.4750366c0.0940552-0.2659912,0.2160034-0.7199707,0.3000488-1.1369629
			L60.1075134,29.1600342z"/>
		<path d="M64.8080139,27.8290405c0-0.381958-0.0280151-0.8930054-0.4630127-0.8930054
			c-0.4490356,0-0.6589966,0.4680176-0.7059937,0.9790039L64.8080139,27.8290405z M65.4820251,29.6420288
			c-0.2340088,0.4390259-0.632019,1.0440063-1.2070313,1.0440063c-0.9819946,0-1.3189697-1.0869751-1.3189697-1.9219971
			c0-1.5180054,0.7249756-2.2589722,1.4029541-2.2589722c0.5010376,0,1.0759888,0.4530029,1.0759888,1.5759888v0.2230225h-1.8239746
			c0,1.1369629,0.2709961,1.7340088,0.8280029,1.7340088c0.3319702,0,0.6030273-0.2950439,0.8510132-0.6690063
			L65.4820251,29.6420288z"/>
		<path d="M65.8612976,30.3329468l0.2709961-0.0789795c0.0469971-0.4099731,0.0469971-0.9500122,0.0469971-1.5969849v-0.4680176
			c-0.0050049-0.4899902-0.019043-0.7990112-0.0469971-1.1300049c-0.0980225-0.0289917-0.2060547-0.0650024-0.3130493-0.0939941
			v-0.2659912c0.177002-0.0150146,0.552002-0.1149902,0.7440186-0.1939697H66.73526
			c-0.0230103,0.315979-0.0319824,0.6759644-0.0509644,1.0499878l0.0099487,0.0150146
			c0.0930176-0.3600464,0.3640137-1.0650024,0.8500366-1.0650024c0.117981,0,0.2349854,0.0499878,0.3049927,0.1069946
			c-0.0839844,0.2739868-0.1829834,0.6989746-0.2299805,1.0079956l-0.1730347-0.0430298v-0.3380127
			c-0.0280151-0.0289917-0.0739746-0.0429688-0.1069946-0.0429688c-0.1729736,0-0.5800171,0.2659912-0.5800171,1.6549683
			c0,0.473999,0.019043,0.9570313,0.0370483,1.4030151c0.1169434,0.0289917,0.2299805,0.0499878,0.3459473,0.0789795v0.2660522
			c-0.2379761-0.0140381-0.4719849-0.0209961-0.7099609-0.0209961c-0.2479858,0-0.4639893,0.0139771-0.5709839,0.0209961V30.3329468
			z"/>
		<path d="M70.8180847,26.8572388l-0.1920166,0.0790405c-0.210022,0.7489624-0.5939941,2.2890015-0.8980103,3.7279663
			c-0.0930176-0.0139771-0.1870117-0.0219727-0.2849731-0.0219727c-0.0980225,0-0.1970215,0.0079956-0.2950439,0.0219727
			c-0.0839844-0.3889771-0.5100098-2.3889771-0.8739624-3.7279663l-0.2290039-0.0790405v-0.2659912
			c0.2149658,0.0140381,0.4299927,0.0209961,0.6449585,0.0209961c0.1690063,0,0.3370361-0.006958,0.5050049-0.0209961v0.2659912
			l-0.256958,0.0790405c0.0839844,0.5180054,0.5050049,2.53302,0.6170044,3.1239624h0.0089722
			c0.1549683-0.7709961,0.4730225-2.4039917,0.585022-3.1239624l-0.2340088-0.0790405v-0.2659912
			c0.1539917,0.0140381,0.3039551,0.0209961,0.4589844,0.0209961c0.1489868,0,0.2940063-0.006958,0.4440308-0.0209961V26.8572388z"
			/>
		<path d="M71.8321838,24.8488159c0.1870117,0,0.3410034,0.2379761,0.3410034,0.526001s-0.1539917,0.5250244-0.3410034,0.5250244
			s-0.3410034-0.2369995-0.3410034-0.5250244S71.6451721,24.8488159,71.8321838,24.8488159 M71.1822205,26.6987915
			c0.1779785-0.0139771,0.5519409-0.1149902,0.7439575-0.1939697h0.2200317
			c-0.0240479,0.4099731-0.0240479,0.9500122-0.0240479,1.5969849v0.5549927c0,0.6470337,0,1.1870117,0.0470581,1.5970459
			l0.2709961,0.0789795v0.2669678c-0.2010498-0.0079956-0.4070435-0.0219727-0.6080322-0.0219727
			s-0.4069824,0.0139771-0.6079712,0.0219727v-0.2669678l0.2709961-0.0789795
			c0.0469971-0.4100342,0.0469971-0.9500122,0.0469971-1.5970459v-0.4679565
			c-0.0040283-0.4900513-0.019043-0.7990112-0.0469971-1.1300049c-0.0980225-0.0289917-0.2050171-0.0650024-0.3129883-0.0939941
			V26.6987915z"/>
		<path d="M75.2425842,29.8366089c-0.2150269,0.3600464-0.5240479,0.8490601-1.1500244,0.8490601
			c-0.5759888,0-1.3049927-0.5400391-1.3049927-1.9000244c0-1.5319824,0.822998-2.2810059,1.5899658-2.2810059
			c0.2620239,0,0.519043,0.0650024,0.7620239,0.2230225c-0.0930176,0.302002-0.1680298,0.7049561-0.1959839,0.9429932
			l-0.1730347-0.0360107v-0.3959961c-0.1270142-0.1080322-0.2909546-0.2590332-0.5469971-0.2590332
			c-0.617981,0-0.80896,0.842041-0.80896,1.526001c0,0.9710083,0.4019775,1.5320435,0.9209595,1.5320435
			c0.3270264,0,0.5100098-0.2080078,0.7200317-0.5029907L75.2425842,29.8366089z"/>
		<path d="M77.552948,27.8290405c0-0.381958-0.0280151-0.8930054-0.4630127-0.8930054
			c-0.4489746,0-0.6599731,0.4680176-0.7069702,0.9790039L77.552948,27.8290405z M78.2259827,29.6420288
			c-0.2340088,0.4390259-0.6310425,1.0440063-1.2060547,1.0440063c-0.9829712,0-1.3189697-1.0869751-1.3189697-1.9219971
			c0-1.5180054,0.7249756-2.2589722,1.4030151-2.2589722c0.5,0,1.0759888,0.4530029,1.0759888,1.5759888v0.2230225H76.35495
			c0,1.1369629,0.2719727,1.7340088,0.8280029,1.7340088c0.3319702,0,0.6040039-0.2950439,0.8519897-0.6690063
			L78.2259827,29.6420288z"/>
		<path d="M79.0353699,29.8508911c0.1869507,0.1940308,0.4399414,0.3170166,0.7389526,0.3170166
			c0.2850342,0,0.5469971-0.1870117,0.5469971-0.5830078c0-0.375-0.1869507-0.4679565-0.7290039-0.7269897
			c-0.3459473-0.1660156-0.8659668-0.3959961-0.8659668-1.1090088c0-0.7189941,0.4639893-1.2439575,1.1829834-1.2439575
			c0.3460083,0,0.7390137,0.157959,0.8610229,0.2229614c-0.0560303,0.1940308-0.1450195,0.5469971-0.2059937,0.8770142
			l-0.1719971-0.0429688v-0.31604c-0.1459961-0.1229858-0.40802-0.2669678-0.618042-0.2669678
			c-0.242981,0-0.4959717,0.1159668-0.4959717,0.526001c0,0.8200073,1.6229858,0.3880005,1.6229858,1.8200073
			c0,0.7989502-0.552002,1.3609619-1.2479858,1.3609619c-0.585022,0-0.9360352-0.3170166-1.1090088-0.4680176
			c0.1500244-0.2369995,0.3319702-0.68396,0.3969727-0.8709717l0.1589966,0.1220093L79.0353699,29.8508911z"/>
	</g>
	<g>
		<path d="M43.1924133,30.3329468l0.30896-0.0789795c0.0369873-0.4099731,0.0369873-0.9500122,0.0369873-1.5969849v-0.5759888
			C43.2864075,28.072998,43.0523987,28.05896,42.813385,28.05896c-0.2379761,0-0.4719849,0.0140381-0.7249756,0.0220337v0.5759888
			c0,0.6469727,0,1.1870117,0.0379639,1.5969849l0.3079834,0.0789795v0.2660522
			c-0.2099609-0.0140381-0.43396-0.0209961-0.6589966-0.0209961c-0.2189941,0-0.4400024,0.006958-0.6589966,0.0209961v-0.2660522
			l0.309021-0.0789795c0.0369873-0.4099731,0.0369873-0.9500122,0.0369873-1.5969849v-1.2379761
			c0-0.6480103,0-1.1880493-0.0369873-1.5980225l-0.309021-0.0789795v-0.2660522
			c0.2189941,0.0140381,0.4400024,0.0209961,0.6589966,0.0209961c0.2290039,0,0.4540405-0.006958,0.6589966-0.0209961v0.2660522
			l-0.3079834,0.0789795c-0.0379639,0.4099731-0.0379639,0.9500122-0.0379639,1.5980225v0.1429443
			c0.2529907,0.0080566,0.4869995,0.0220337,0.7249756,0.0220337c0.2390137,0,0.4730225-0.0139771,0.7249756-0.0220337v-0.1429443
			c0-0.6480103,0-1.1880493-0.0369873-1.5980225l-0.30896-0.0789795v-0.2660522
			c0.2059937,0.0140381,0.4299927,0.0209961,0.6589966,0.0209961c0.2209473,0,0.4400024-0.006958,0.6599731-0.0209961v0.2660522
			l-0.309021,0.0789795c-0.0369873,0.4099731-0.0369873,0.9500122-0.0369873,1.5980225v1.2379761
			c0,0.6469727,0,1.1870117,0.0369873,1.5969849l0.309021,0.0789795v0.2660522
			c-0.2199707-0.0140381-0.4390259-0.0209961-0.6599731-0.0209961c-0.223999,0-0.447998,0.006958-0.6589966,0.0209961V30.3329468z"
			/>
		<path d="M46.8366394,27.8290405c0-0.381958-0.0280151-0.8930054-0.4630127-0.8930054
			c-0.4489746,0-0.6599731,0.4680176-0.7059937,0.9790039L46.8366394,27.8290405z M47.5096741,29.6420288
			c-0.2340088,0.4390259-0.6310425,1.0440063-1.2060547,1.0440063c-0.9829712,0-1.3189697-1.0869751-1.3189697-1.9219971
			c0-1.5180054,0.7249756-2.2589722,1.4030151-2.2589722c0.5,0,1.0759888,0.4530029,1.0759888,1.5759888v0.2230225h-1.8240356
			c0,1.1369629,0.2709961,1.7340088,0.8270264,1.7340088c0.3319702,0,0.6040039-0.2950439,0.8519897-0.6690063
			L47.5096741,29.6420288z"/>
		<path d="M49.6045227,28.5124512c-0.3409424,0-1.0419922,0.2089844-1.0419922,0.9429932
			c0,0.2949829,0.1400146,0.5830078,0.4490356,0.5830078c0.4349976,0,0.7109985-0.5830078,0.7340088-1.526001H49.6045227z
			 M50.6385803,30.5994263c-0.1450195-0.0149536-0.276001-0.0219727-0.4120483-0.0219727
			c-0.1259766,0-0.2519531,0.007019-0.3779907,0.0219727l-0.0469971-0.8779907H49.792572
			c-0.1589966,0.4030151-0.3790283,0.9640503-1.0200195,0.9640503c-0.2990112,0-0.8369751-0.2160034-0.8369751-1.0860596
			c0-1.223999,1.0199585-1.5189819,1.8099976-1.5189819v-0.4030151c0-0.4459839-0.1080322-0.6549683-0.5280151-0.6549683
			c-0.3370361,0-0.5289917,0.1229858-0.6879883,0.2230225v0.3959961l-0.1730347,0.0719604
			c-0.0559692-0.2659912-0.1400146-0.5899658-0.2479858-0.8709717c0.2999878-0.151001,0.6640015-0.3380127,1.1829834-0.3380127
			c0.9030151,0,1.0339966,0.6190186,1.0339966,1.4320068c0,0.2810059,0.0370483,1.4179688,0.0560303,2.1879883l0.257019,0.2089844
			V30.5994263z"/>
		<path d="M51.032074,30.3329468l0.2719727-0.0789795c0.0460205-0.4099731,0.0460205-0.9500122,0.0460205-1.5969849v-1.6560059
			c0-0.6480103,0-1.1870117-0.0460205-1.5980225c-0.098999-0.0279541-0.2070313-0.0639648-0.3140259-0.0929565v-0.2659912
			c0.177002-0.0150146,0.552002-0.1150513,0.7440186-0.1950073h0.242981
			c-0.0469971,0.4099731-0.0469971,0.9499512-0.0469971,1.5979614v2.210022c0,0.6469727,0,1.1870117,0.0469971,1.5969849
			l0.2709961,0.0789795v0.2660522c-0.2009888-0.007019-0.4059448-0.0209961-0.6079712-0.0209961
			c-0.2009888,0-0.4069824,0.0139771-0.6079712,0.0209961V30.3329468z"/>
		<path d="M52.6318665,26.7778931l0.3359985-0.164978c0-0.2879639-0.0090332-0.5759888-0.0180054-0.8640137l0.6170044-0.1939697
			c-0.0050049,0.3529663-0.0050049,0.7050171-0.0050049,1.0579834c0.1640015,0,0.4539795-0.0289917,0.6829834-0.0440063
			l-0.1350098,0.4970093c-0.1820068-0.007019-0.3980103-0.0219727-0.5479736-0.0219727
			c-0.0090332,0.2810059-0.0130005,0.5899658-0.0130005,0.8930054v1.157959c0,0.7349854,0.0839844,0.9429932,0.3129883,0.9429932
			c0.1209717,0,0.2520142-0.1079712,0.34198-0.2369995l0.1539917,0.2590332
			c-0.098999,0.2299805-0.3699951,0.6259766-0.7349854,0.6259766c-0.5,0-0.6820068-0.5180054-0.6820068-1.0219727
			c0-0.5250244,0.0270386-0.9140015,0.0270386-1.9000244v-0.7199707h-0.3359985V26.7778931z"/>
		<path d="M54.6944885,30.3329468l0.2719727-0.0789795c0.0460205-0.4099731,0.0460205-0.9500122,0.0460205-1.5969849v-1.6560059
			c0-0.6480103,0-1.1870117-0.0460205-1.5980225c-0.098999-0.0279541-0.2070313-0.0639648-0.3140259-0.0929565v-0.2659912
			c0.1780396-0.0150146,0.552002-0.1150513,0.7440186-0.1950073h0.242981
			c-0.0469971,0.4099731-0.0469971,0.9499512-0.0469971,1.5979614v0.7560425
			c0.2200317-0.3670044,0.4770508-0.697998,0.8699951-0.697998c0.5469971,0,0.7720337,0.5319824,0.7720337,1.2809448v0.8710327
			c0,0.6469727,0,1.1870117,0.0469971,1.5969849l0.2700195,0.0789795v0.2660522
			c-0.0880127-0.007019-0.3170166-0.0209961-0.5-0.0209961c-0.1589966,0-0.3040161,0.006958-0.4210205,0.0209961
			c0.0100098-0.31604,0.0239868-0.6690063,0.0239868-1.1300049v-0.8850098c0-1.0579834-0.1079712-1.4320068-0.4630127-1.4320068
			c-0.4819946,0-0.598999,0.7050171-0.598999,1.5050049c0,0.6469727,0,1.1870117,0.0469971,1.5969849l0.2709961,0.0789795v0.2660522
			c-0.2009888-0.007019-0.4059448-0.0209961-0.6069946-0.0209961c-0.2019653,0-0.4069824,0.0139771-0.6089478,0.0209961V30.3329468z
			"/>
	</g>
	<path d="M36.5358582,30.0956421c0.3359985,0,0.5050049-0.1439819,0.7290039-0.3599854
		c-0.4020386-0.3599854-0.9210205-1.1370239-1.1500244-1.7490234c-0.1209717,0.1149902-0.3689575,0.3460083-0.3689575,0.8930054
		C35.7458801,29.5626221,36.0958557,30.0956421,36.5358582,30.0956421 M36.4798279,27.2956543l0.0750122-0.0430298
		c0.2800293-0.164978,0.6170044-0.3519897,0.6170044-0.84198c0-0.2589722-0.1079712-0.5609741-0.3699951-0.5609741
		c-0.1719971,0-0.4619751,0.2019653-0.4619751,0.7699585C36.3398743,26.9656372,36.4138489,27.1446533,36.4798279,27.2956543
		 M39.0608826,30.1746216c-0.4390259,0.2950439-0.6680298,0.5250244-0.6920166,0.5250244
		c-0.0700073,0-0.5280151-0.3809814-0.8129883-0.6690063c-0.2810059,0.3380127-0.6040039,0.6690063-1.2070313,0.6690063
		c-1.0150146,0-1.2299805-1.1149902-1.2299805-1.5969849c0-1.0720215,0.532959-1.382019,0.8319702-1.5400391
		c-0.0880127-0.2159424-0.1350098-0.4389648-0.1350098-0.697998c0-0.7489624,0.4490356-1.4899902,1.1640015-1.4899902
		c0.4910278,0,0.7150269,0.4249878,0.7150269,0.8920288c0,0.9500122-0.6259766,1.1660156-1.0560303,1.382019
		c0.2150269,0.4969482,0.5980225,1.0359497,1.019043,1.5189819c0.1879883-0.382019,0.276001-0.7130127,0.276001-1.4039917
		l-0.2520142,0.0289917l-0.0380249-0.2520142c0.2250366-0.1079712,0.4960327-0.302002,0.7490234-0.5540161
		c0.0040283,0.0720215,0.0089722,0.1300049,0.0089722,0.2090454c0,0.8059692-0.1129761,1.5689697-0.4679565,2.2379761
		c0.2709961,0.2589722,0.5570068,0.4749756,0.7810059,0.5750122l0.2810059-0.1000366L39.0608826,30.1746216z"/>
	<g>
		<path d="M74.4952087,21.1628418l-0.019043,0.4970093c0.342041,0.31604,0.7390137,0.4819946,1.0150146,0.4819946
			c0.5150146,0,0.7059937-0.4749756,0.7059937-0.8349609c0-1.302002-2.0670166-0.684021-2.0670166-2.4039917
			c0-0.7839966,0.5060425-1.5250244,1.427002-1.5250244c0.3690186,0,0.7150269,0.0930176,1.1830444,0.315979
			c-0.0980225,0.3320313-0.1960449,0.7350464-0.2670288,1.0939941l-0.1729736-0.0709839l0.0189819-0.3959961
			c-0.2290039-0.2600098-0.6450195-0.382019-0.8740234-0.382019c-0.322998,0-0.6879883,0.1940308-0.6879883,0.6980591
			c0,1.1659546,2.0950317,0.5179443,2.0950317,2.3529663c0,0.8569946-0.4860229,1.7130127-1.5240479,1.7130127
			c-0.4539795,0-0.940979-0.1370239-1.3189697-0.4750366c0.0930176-0.2659912,0.2149658-0.7199707,0.2990112-1.1369629
			L74.4952087,21.1628418z"/>
		<path d="M79.5051575,20.5942993c0-0.9569702-0.3039551-1.6119995-0.7669678-1.6119995
			c-0.5709839,0-0.7670288,0.7410278-0.7670288,1.6119995c0,0.9140015,0.2670288,1.6190186,0.7670288,1.6190186
			C79.1681824,22.2133179,79.5051575,21.6883545,79.5051575,20.5942993 M77.3442078,20.5942993
			c0-1.2019653,0.598999-2.0869751,1.3939819-2.0869751c0.9539795,0,1.3930054,0.9719849,1.3930054,2.0869751
			c0,0.9140015-0.3829956,2.0940552-1.3930054,2.0940552C77.8721619,22.6883545,77.3442078,21.9043579,77.3442078,20.5942993"/>
		<path d="M83.0647888,21.8392944c-0.2150269,0.3600464-0.5240479,0.8490601-1.1500244,0.8490601
			c-0.5759888,0-1.3049927-0.5390015-1.3049927-1.9000244c0-1.5319824,0.822998-2.2810059,1.5899658-2.2810059
			c0.2620239,0,0.519043,0.0650024,0.7620239,0.2230225c-0.0930176,0.3029785-0.1680298,0.7049561-0.1959839,0.9429932
			l-0.1730347-0.0360107V19.241333c-0.1259766-0.1080322-0.289978-0.2590332-0.5469971-0.2590332
			c-0.617981,0-0.80896,0.842041-0.80896,1.526001c0,0.9710083,0.4019775,1.53302,0.9209595,1.53302
			c0.3270264,0,0.5100098-0.2089844,0.7200317-0.5039673L83.0647888,21.8392944z"/>
		<path d="M84.0935364,16.8526001c0.1870117,0,0.3410034,0.2369995,0.3410034,0.5250244s-0.1539917,0.5250244-0.3410034,0.5250244
			s-0.3410034-0.2369995-0.3410034-0.5250244S83.9065247,16.8526001,84.0935364,16.8526001 M83.443573,18.7015991
			c0.1779785-0.0139771,0.5519409-0.1149902,0.742981-0.1939697h0.2210083
			c-0.0240479,0.4099731-0.0240479,0.9500122-0.0240479,1.5969849v0.5549927c0,0.6470337,0,1.1870117,0.0470581,1.5970459
			l0.2709961,0.0789795v0.2669678c-0.2010498-0.0079956-0.4070435-0.0219727-0.6080322-0.0219727
			s-0.4069824,0.0139771-0.6079712,0.0219727v-0.2669678l0.2709961-0.0789795
			c0.0469971-0.4100342,0.0469971-0.9500122,0.0469971-1.5970459v-0.4679565
			c-0.0040283-0.4900513-0.019043-0.7990112-0.0469971-1.1300049c-0.0980225-0.0289917-0.2050171-0.0650024-0.3129883-0.0939941
			V18.7015991z"/>
		<path d="M86.7634583,20.5152588c-0.3409424,0-1.0419922,0.2089844-1.0419922,0.9429932
			c0,0.2949829,0.1400146,0.5830078,0.4490356,0.5830078c0.4349976,0,0.7099609-0.5830078,0.7340088-1.526001H86.7634583z
			 M87.7975159,22.6022339c-0.1450195-0.0139771-0.2750244-0.0209961-0.4110107-0.0209961
			c-0.1260376,0-0.2529907,0.007019-0.3790283,0.0209961l-0.0469971-0.8779907h-0.0089722
			c-0.1589966,0.4030151-0.3790283,0.9640503-1.0200195,0.9640503c-0.2990112,0-0.8369751-0.2160034-0.8369751-1.0860596
			c0-1.223999,1.0199585-1.5189819,1.8099976-1.5189819v-0.4030151c0-0.4459839-0.1080322-0.6549683-0.5280151-0.6549683
			c-0.3370361,0-0.5289917,0.1229858-0.6879883,0.2230225v0.3959961l-0.1730347,0.0719604
			c-0.0559692-0.2659912-0.1400146-0.5899658-0.2479858-0.8709717c0.2990112-0.151001,0.6640015-0.3380127,1.1829834-0.3380127
			c0.9030151,0,1.0339966,0.6190186,1.0339966,1.4320068c0,0.2810059,0.0380249,1.4179688,0.0560303,2.1879883l0.257019,0.2089844
			V22.6022339z"/>
		<path d="M88.1910095,22.3359375l0.2719727-0.0789795c0.0460205-0.4110107,0.0460205-0.9500122,0.0460205-1.5979614v-1.6550293
			c0-0.6480103,0-1.1870117-0.0460205-1.5969849c-0.098999-0.0289917-0.2070313-0.0650024-0.3140259-0.0939941v-0.2659912
			c0.1780396-0.0150146,0.552002-0.1160278,0.7440186-0.1950073h0.242981
			c-0.0469971,0.4109497-0.0469971,0.9509888-0.0469971,1.5979614v2.2090454c0,0.6479492,0,1.1869507,0.0469971,1.5979614
			l0.2709961,0.0789795v0.2660522c-0.2009888-0.007019-0.4069824-0.0209961-0.6079712-0.0209961
			s-0.4069824,0.0139771-0.6079712,0.0209961V22.3359375z"/>
	</g>
	<g>
		<path d="M69.2671814,20.5942993c0-0.9569702-0.3029785-1.6119995-0.7670288-1.6119995
			c-0.5699463,0-0.7659912,0.7410278-0.7659912,1.6119995c0,0.9140015,0.2659912,1.6190186,0.7659912,1.6190186
			C68.9311829,22.2133179,69.2671814,21.6883545,69.2671814,20.5942993 M67.1072083,20.5942993
			c0-1.2019653,0.5979614-2.0869751,1.3929443-2.0869751c0.9540405,0,1.394043,0.9719849,1.394043,2.0869751
			c0,0.9140015-0.3829956,2.0940552-1.394043,2.0940552C67.6351624,22.6883545,67.1072083,21.9043579,67.1072083,20.5942993"/>
		<path d="M70.6526794,18.6152954v-0.3169556c0-0.8989868,0.6409912-1.4459839,1.1219482-1.4459839
			c0.2900391,0,0.4540405,0.0789795,0.552002,0.1509399c-0.0839844,0.2450562-0.1919556,0.6400146-0.2379761,0.9500122
			l-0.1829834-0.0719604l0.0139771-0.3740234c-0.0510254-0.0579834-0.1630249-0.1370239-0.2849731-0.1370239
			c-0.309021,0-0.4020386,0.302002-0.4020386,1.0220337v0.2229614h0.1870117c0.1069946,0,0.223999-0.006958,0.3549805-0.0209961
			l-0.1209717,0.467041c-0.0750122-0.0140381-0.1779785-0.0140381-0.2520142-0.0140381h-0.1690063v1.6119995
			c0,0.6470337,0,1.1870117,0.0469971,1.5980225l0.3550415,0.0789795v0.2660522
			c-0.2850342-0.007019-0.4910278-0.0210571-0.6920166-0.0210571s-0.4069824,0.0140381-0.6080322,0.0210571v-0.2660522
			l0.2709961-0.0789795c0.0470581-0.4110107,0.0470581-0.9509888,0.0470581-1.5980225v-1.6119995h-0.1070557
			c-0.0749512,0-0.1449585,0.007019-0.1919556,0.0140381v-0.2659912L70.6526794,18.6152954z"/>
	</g>
	<g>
		<path d="M36.6667786,17.9749756c-0.1870117,0-0.4349976,0.0429688-0.6270142,0.1300049
			c-0.0229492,0.2869873-0.0369873,0.6759644-0.0369873,1.315979v1.2380371c0,0.6409912,0.0140381,1.0299683,0.0369873,1.3169556
			c0.1920166,0.0870361,0.4400024,0.1300049,0.6270142,0.1300049c0.8699951,0,1.151001-1.2810059,1.151001-2.2089844
			C37.8177795,18.9969482,37.5127869,17.9749756,36.6667786,17.9749756 M35.0298157,22.3359375l0.30896-0.0789795
			c0.0369873-0.4110107,0.0369873-0.9500122,0.0369873-1.5979614v-1.2380371c0-0.6469727,0-1.1870117-0.0369873-1.5969849
			l-0.30896-0.0789795v-0.2660522c0.2149658,0.0140381,0.4349976,0.0209961,0.6549683,0.0209961
			c0.2189941,0,0.4400024-0.0139771,0.6589966-0.0209961c0.2150269-0.0149536,0.4349976-0.0219727,0.6550293-0.0219727
			c1.0609741,0,1.5009766,1.1300049,1.5009766,2.3460083c0,1.6549683-0.7810059,2.8209839-1.7299805,2.8209839
			c-0.2529907,0-0.5100098-0.0139771-0.7200317-0.0219727c-0.2109985-0.0140381-0.3699951-0.0209961-0.4920044-0.0209961
			c-0.2619629,0-0.3729858,0.006958-0.5279541,0.0209961V22.3359375z"/>
		<path d="M40.839447,19.8319092c0-0.381958-0.0280151-0.8930054-0.4630127-0.8930054
			c-0.4489746,0-0.6599731,0.4680176-0.7069702,0.9790039L40.839447,19.8319092z M41.5124817,21.6448975
			c-0.2340088,0.4390259-0.6310425,1.0440063-1.2060547,1.0440063c-0.9829712,0-1.3189697-1.0869751-1.3189697-1.9219971
			c0-1.5180054,0.7249756-2.2599487,1.4030151-2.2599487c0.5,0,1.0759888,0.4539795,1.0759888,1.5769653v0.2230225h-1.8240356
			c0,1.1369629,0.2709961,1.7340088,0.8270264,1.7340088c0.3319702,0,0.6040039-0.2950439,0.8519897-0.6690063
			L41.5124817,21.6448975z"/>
		<path d="M42.7900696,20.9256592c0,0.5689697,0.0089722,0.8199463,0.0189819,1.0719604
			c0.1069946,0.1300049,0.3319702,0.2160034,0.5100098,0.2160034c0.4249878,0,0.6779785-0.7050171,0.6779785-1.5689697
			c0-0.7480469-0.2059937-1.4890137-0.6970215-1.4890137c-0.4109497,0-0.5099487,0.4599609-0.5099487,1.1939697V20.9256592z
			 M43.2950745,22.6885986c-0.2150269,0-0.3650513-0.0789795-0.5050049-0.157959v0.0639648
			c0,0.6480103,0,1.1880493,0.0469971,1.5980225l0.3269653,0.0789795v0.2660522
			c-0.256958-0.007019-0.4630127-0.0210571-0.6640015-0.0210571s-0.4069824,0.0140381-0.6079712,0.0210571v-0.2660522
			l0.2719727-0.0789795c0.0460205-0.4099731,0.0460205-0.9500122,0.0460205-1.5980225v-1.9349976
			c0-0.6479492,0-1.1879883-0.0460205-1.5979614c-0.0979614-0.0289917-0.2059937-0.0650024-0.3139648-0.0939941v-0.2660522
			c0.1779785-0.0139771,0.552002-0.1149902,0.7439575-0.1939697h0.2290039l-0.032959,0.5609741h0.0089722
			c0.1359863-0.2729492,0.4210205-0.5609741,0.7860107-0.5609741c0.3980103,0,1.0379639,0.4390259,1.0379639,1.9719849
			C44.6230164,21.522644,44.0990295,22.6885986,43.2950745,22.6885986"/>
		<path d="M46.7234192,20.5152588c-0.3409424,0-1.0419922,0.2089844-1.0419922,0.9429932
			c0,0.2949829,0.1400146,0.5830078,0.4490356,0.5830078c0.4349976,0,0.7109985-0.5830078,0.7340088-1.526001H46.7234192z
			 M47.7574768,22.6022339c-0.1450195-0.0139771-0.276001-0.0209961-0.4110107-0.0209961
			c-0.1260376,0-0.2529907,0.007019-0.3790283,0.0209961l-0.0469971-0.8779907h-0.0089722
			c-0.1589966,0.4030151-0.3790283,0.9640503-1.0200195,0.9640503c-0.2990112,0-0.8369751-0.2160034-0.8369751-1.0860596
			c0-1.223999,1.0199585-1.5189819,1.8099976-1.5189819v-0.4030151c0-0.4459839-0.1080322-0.6549683-0.5280151-0.6549683
			c-0.3370361,0-0.5289917,0.1229858-0.6879883,0.2230225v0.3959961l-0.1730347,0.0719604
			c-0.0559692-0.2659912-0.1400146-0.5899658-0.2470093-0.8709717c0.2990112-0.151001,0.6630249-0.3380127,1.1820068-0.3380127
			c0.9030151,0,1.0339966,0.6190186,1.0339966,1.4320068c0,0.2810059,0.0370483,1.4179688,0.0560303,2.1879883l0.257019,0.2089844
			V22.6022339z"/>
		<path d="M48.1509094,22.3359375l0.2719727-0.0789795c0.0460205-0.4110107,0.0460205-0.9500122,0.0460205-1.5979614V20.190979
			c-0.0050049-0.4890137-0.019043-0.7980347-0.0460205-1.1290283c-0.098999-0.0289917-0.2070313-0.0650024-0.3140259-0.0939941
			v-0.2659912c0.177002-0.0139771,0.552002-0.1149902,0.7440186-0.1939697h0.1730347
			c-0.0240479,0.315979-0.03302,0.6759644-0.052002,1.0499878l0.0099487,0.0150146
			c0.0930176-0.3600464,0.3640137-1.0650024,0.8510132-1.0650024c0.1170044,0,0.2340088,0.0499878,0.3040161,0.1069946
			c-0.0839844,0.2739868-0.1829834,0.6989746-0.2299805,1.0079956l-0.1719971-0.0430298v-0.3380127
			c-0.0290527-0.0289917-0.0750122-0.0439453-0.1080322-0.0439453c-0.1729736,0-0.5800171,0.2669678-0.5800171,1.6559448
			c0,0.4750366,0.019043,0.9570313,0.0370483,1.4030151c0.1169434,0.0289917,0.2299805,0.0499878,0.3459473,0.0789795v0.2660522
			c-0.2379761-0.0140381-0.4719849-0.0209961-0.7099609-0.0209961c-0.2479858,0-0.4630127,0.0139771-0.5709839,0.0209961V22.3359375
			z"/>
		<path d="M50.4048767,18.7809448l0.3359985-0.1659546c0-0.2880249-0.0090332-0.5750122-0.0180054-0.8630371l0.6170044-0.1950073
			c-0.0050049,0.3530273-0.0050049,0.7060547-0.0050049,1.0580444c0.1640015,0,0.4539795-0.0280151,0.6829834-0.0430298
			l-0.1359863,0.4970093c-0.1810303-0.007019-0.3970337-0.0219727-0.5469971-0.0219727
			c-0.0090332,0.2810059-0.0140381,0.5899658-0.0140381,0.8930054v1.157959c0,0.7340088,0.085022,0.9429932,0.3140259,0.9429932
			c0.1209717,0,0.2520142-0.1079712,0.3410034-0.2369995l0.1549683,0.2590332
			c-0.098999,0.2299805-0.3699951,0.6259766-0.7349854,0.6259766c-0.5,0-0.6829834-0.5180054-0.6829834-1.0219727
			c0-0.526001,0.0280151-0.9140015,0.0280151-1.9000244v-0.7199707h-0.3359985V18.7809448z"/>
		<path d="M52.4258118,18.7015991c0.1779785-0.0139771,0.5519409-0.1149902,0.742981-0.1939697h0.2199707l-0.032959,0.690979
			l0.0099487,0.007019c0.2190552-0.3670044,0.4770508-0.697998,0.8700562-0.697998
			c0.4109497,0,0.5699463,0.3530273,0.6779785,0.7479858c0.2009888-0.3949585,0.5-0.7479858,0.8789673-0.7479858
			c0.5469971,0,0.7709961,0.5319824,0.7709961,1.2810059v0.8709717c0,0.6470337,0,1.1870117,0.0470581,1.5970459
			l0.2719727,0.0789795v0.2669678c-0.0900269-0.0079956-0.3190308-0.0219727-0.5009766-0.0219727
			c-0.1589966,0-0.3040161,0.007019-0.4210205,0.0219727c0.0089722-0.3169556,0.0239868-0.6699829,0.0239868-1.1299438v-0.8850098
			c0-1.0580444-0.1079712-1.4320068-0.4630127-1.4320068c-0.4629517,0-0.5570068,0.7050171-0.5570068,1.5039673
			c0,0.6470337,0,1.1870117,0.0470581,1.5970459l0.2709961,0.0789795v0.2669678
			c-0.2010498-0.0079956-0.4060059-0.0219727-0.6069946-0.0219727c-0.2020264,0-0.4070435,0.0139771-0.6090088,0.0219727v-0.2669678
			l0.2709961-0.0789795c0.0469971-0.4100342,0.0469971-0.9500122,0.0469971-1.6690063
			c0-1.0580444-0.1069946-1.4320068-0.4630127-1.4320068c-0.4619751,0-0.5560303,0.7050171-0.5560303,1.5039673
			c0,0.6470337,0,1.1870117,0.0470581,1.5970459l0.2709961,0.0789795v0.2669678
			c-0.2010498-0.0079956-0.4070435-0.0219727-0.6080322-0.0219727s-0.4069824,0.0139771-0.6079712,0.0219727v-0.2669678
			L52.7388,22.2566528c0.0469971-0.4100342,0.0469971-0.9500122,0.0469971-1.5970459v-0.4679565
			c-0.0050049-0.4900513-0.0180054-0.7990112-0.0469971-1.1300049c-0.0980225-0.0289917-0.2059937-0.0650024-0.3129883-0.0939941
			V18.7015991z"/>
		<path d="M59.1018372,19.8319092c0-0.381958-0.0289917-0.8930054-0.4630127-0.8930054
			c-0.4500122,0-0.6599731,0.4680176-0.7059937,0.9790039L59.1018372,19.8319092z M59.7748718,21.6448975
			c-0.2340088,0.4390259-0.632019,1.0440063-1.2070313,1.0440063c-0.9810181,0-1.3189697-1.0869751-1.3189697-1.9219971
			c0-1.5180054,0.7249756-2.2599487,1.4039917-2.2599487c0.5,0,1.0749512,0.4539795,1.0749512,1.5769653v0.2230225h-1.8239746
			c0,1.1369629,0.2719727,1.7340088,0.8280029,1.7340088c0.3319702,0,0.6030273-0.2950439,0.8510132-0.6690063
			L59.7748718,21.6448975z"/>
		<path d="M60.2101746,22.3359375l0.2709961-0.0789795c0.0469971-0.4110107,0.0469971-0.9500122,0.0469971-1.5979614V20.190979
			c-0.0050049-0.4890137-0.019043-0.7980347-0.0469971-1.1290283c-0.0980225-0.0289917-0.2060547-0.0650024-0.3130493-0.0939941
			v-0.2659912c0.177002-0.0139771,0.552002-0.1149902,0.7440186-0.1939697h0.2189941l-0.03302,0.6900024l0.0100098,0.0079956
			c0.2200317-0.3670044,0.4770508-0.697998,0.8690186-0.697998c0.5479736,0,0.7719727,0.5319824,0.7719727,1.2799683v0.8710327
			c0,0.6479492,0,1.1869507,0.0470581,1.5979614l0.2709961,0.0789795v0.2660522
			c-0.0890503-0.007019-0.3180542-0.0209961-0.5-0.0209961c-0.1589966,0-0.3040161,0.006958-0.4210205,0.0209961
			c0.0089722-0.31604,0.0230103-0.6690063,0.0230103-1.1290283v-0.8859863c0-1.0579834-0.1069946-1.4320068-0.4630127-1.4320068
			c-0.4810181,0-0.5980225,0.7059937-0.5980225,1.5040283c0,0.6479492,0,1.1869507,0.0460205,1.5979614l0.2719727,0.0789795
			v0.2660522c-0.2009888-0.007019-0.4069824-0.0209961-0.6079712-0.0209961s-0.4069824,0.0139771-0.6079712,0.0209961V22.3359375z"
			/>
		<path d="M63.3968201,18.7809448l0.3359985-0.1659546c0-0.2880249-0.0090332-0.5750122-0.0180054-0.8630371l0.6170044-0.1950073
			c-0.0050049,0.3530273-0.0050049,0.7060547-0.0050049,1.0580444c0.1640015,0,0.4539795-0.0280151,0.6829834-0.0430298
			l-0.1359863,0.4970093c-0.1820068-0.007019-0.3970337-0.0219727-0.5469971-0.0219727
			c-0.0090332,0.2810059-0.0140381,0.5899658-0.0140381,0.8930054v1.157959c0,0.7340088,0.0840454,0.9429932,0.3129883,0.9429932
			c0.1220093,0,0.2530518-0.1079712,0.342041-0.2369995l0.1539917,0.2590332
			c-0.0980225,0.2299805-0.3690186,0.6259766-0.7340088,0.6259766c-0.5,0-0.6829834-0.5180054-0.6829834-1.0219727
			c0-0.526001,0.0280151-0.9140015,0.0280151-1.9000244v-0.7199707h-0.3359985V18.7809448z"/>
	</g>
</g>
<g>
	<g>
		<path d="M76.0696106,11.1603394c0.0959473-0.3739624-0.0290527-0.6569824-0.3830566-0.6569824
			c-0.5169678,0-0.6419678,0.3640137-0.6939697,0.6430054c-0.0479736,0.2490234,0.0219727,0.4030151,0.210022,0.4890137
			c0.157959,0.0720215,0.3099976,0.1439819,0.4679565,0.2160034c0.5580444,0.2539673,0.6240234,0.4940186,0.5339966,0.9689941
			c-0.1289673,0.6820068-0.5839844,1.0800171-1.1989746,1.0800171c-0.315979,0-0.6719971-0.1010132-0.7670288-0.5710449
			c-0.0349731-0.177002,0.0240479-0.4649658,0.0560303-0.6569824h0.3540039
			c-0.117981,0.5319824-0.0910034,0.867981,0.4420166,0.867981c0.3589478,0,0.6489868-0.2059937,0.7290039-0.6279907
			c0.1039429-0.5479736-0.092041-0.552002-0.3900146-0.6919556c-0.1600342-0.0760498-0.4230347-0.177002-0.5750122-0.2780151
			c-0.2700195-0.1730347-0.2930298-0.4609985-0.2260132-0.81604c0.1130371-0.5949707,0.5579834-0.9839478,1.0789795-0.9839478
			c0.5840454,0,0.8780518,0.3410034,0.7160034,1.0179443H76.0696106z"/>
		<path d="M79.190094,11.1459351h0.3969727L79.5260925,11.46698h-0.3920288l-0.3439941,1.8189697
			c-0.0180054,0.0910034-0.0690308,0.2070313,0.1190186,0.2070313h0.2259521l-0.0609741,0.3209839h-0.3710327
			c-0.2019653,0.0050049-0.3439941-0.0339966-0.2679443-0.4370117L78.796051,11.46698h-0.3289795l0.0609741-0.3210449h0.3290405
			l0.1369629-0.723999h0.3330078L79.190094,11.1459351z"/>
		<path d="M82.4198914,12.3742676c-0.1870117,0.1109619-0.3900146,0.1919556-0.5880127,0.2879639
			c-0.1729736,0.0820313-0.2609863,0.2780151-0.2960205,0.4609985c-0.0509644,0.2680054-0.0229492,0.440979,0.25,0.440979
			c0.1280518,0,0.4299927-0.1099854,0.5120239-0.5419922L82.4198914,12.3742676z M82.7029114,13.814209
			c-0.026001,0.0050049-0.0530396,0.0100098-0.0800171,0.019043c-0.2890015,0.0139771-0.3900146-0.0140381-0.3560181-0.3790283
			h-0.0079956c-0.1259766,0.2349854-0.3809814,0.4320068-0.6060181,0.4320068c-0.4749756,0-0.5549927-0.2979736-0.4629517-0.7819824
			c0.0189819-0.1010132,0.1039429-0.4849854,0.4639893-0.6480103c0.2099609-0.0960083,0.7259521-0.2979736,0.776001-0.3359985
			c0.0849609-0.0629883,0.0960083-0.1680298,0.1220093-0.3070068c0.0569458-0.3029785-0.0230103-0.4179688-0.2970581-0.4179688
			c-0.3069458,0-0.3799438,0.1589966-0.43396,0.4699707h-0.3030396c0.0870361-0.5510254,0.375-0.7910156,0.8540039-0.7910156
			c0.7040405,0,0.519043,0.6620483,0.507019,0.723999l-0.2890015,1.5310059
			c-0.0130005,0.0670166-0.0390015,0.1630249,0.0220337,0.2020264c0.0439453,0.0139771,0.0959473,0.0089722,0.1439819,0.0039673
			L82.7029114,13.814209z"/>
		<path d="M85.7732239,11.1459351h0.3969727L86.1092224,11.46698h-0.3920288l-0.3439941,1.8189697
			c-0.0170288,0.0910034-0.0690308,0.2070313,0.1190186,0.2070313h0.2259521l-0.0599976,0.3209839h-0.3720093
			c-0.2019653,0.0050049-0.3429565-0.0339966-0.2669678-0.4370117l0.3610229-1.9099731H85.051178l0.0599976-0.3210449h0.3300171
			l0.1359863-0.723999h0.3330078L85.7732239,11.1459351z"/>
		<path d="M89.1476746,12.201355c0.0460205-0.3109741,0.1570435-0.8059692-0.2359619-0.8059692
			s-0.4940186,0.4889526-0.5670166,0.8059692H89.1476746z M89.3437195,12.9263306
			c-0.0780029,0.5230103-0.3990479,0.960022-0.8990479,0.960022c-0.447998,0-0.7049561-0.3359985-0.5019531-1.4110107
			c0.1069946-0.5619507,0.3969727-1.401001,1.0249634-1.401001c0.7680054,0,0.5720215,0.81604,0.4710083,1.4390259H88.285675
			c-0.05896,0.3599854-0.2449951,1.0509644,0.2290039,1.0509644c0.3240356,0,0.4769897-0.3359985,0.5130005-0.6380005H89.3437195z"
			/>
	</g>
	<g>
		<path d="M35.9809875,13.814209h-0.4400024l-0.0030518-3.598999h0.3930054l-0.0499878,2.4810181
			c-0.0079956,0.2440186-0.0249634,0.4940186-0.0629883,0.8300171h0.0079956
			c0.0830078-0.2789917,0.15802-0.5419922,0.2540283-0.802002l0.9439697-2.5090332h0.4400024l-0.0460205,2.4810181
			c-0.006958,0.2399902-0.0269775,0.4800415-0.0639648,0.8300171h0.0089722
			c0.0830078-0.2789917,0.1589966-0.5419922,0.2550049-0.802002l0.9390259-2.5090332h0.3930054l-1.4320068,3.598999h-0.4400024
			l0.0349731-2.4429932c0.0020142-0.2349854,0.0209961-0.4749756,0.0700073-0.867981h-0.0079956
			c-0.0949707,0.3450317-0.1710205,0.6090088-0.2670288,0.867981L35.9809875,13.814209z"/>
		<path d="M41.5901794,12.3742676c-0.1870117,0.1109619-0.3900146,0.1919556-0.5880127,0.2879639
			c-0.1729736,0.0820313-0.2620239,0.2780151-0.2960205,0.4609985c-0.0509644,0.2680054-0.0239868,0.440979,0.2490234,0.440979
			c0.1279907,0,0.4309692-0.1099854,0.5130005-0.5419922L41.5901794,12.3742676z M41.8731995,13.814209
			c-0.026001,0.0050049-0.0530396,0.0100098-0.0810547,0.019043c-0.2879639,0.0139771-0.3889771-0.0140381-0.3549805-0.3790283
			h-0.0079956c-0.1259766,0.2349854-0.3809814,0.4320068-0.6069946,0.4320068c-0.473999,0-0.5540161-0.2979736-0.4619751-0.7819824
			c0.0179443-0.1010132,0.1029663-0.4849854,0.4629517-0.6480103c0.2109985-0.0960083,0.7269897-0.2979736,0.7770386-0.3359985
			c0.0839844-0.0629883,0.0949707-0.1680298,0.1220093-0.3070068c0.0569458-0.3029785-0.0240479-0.4179688-0.2970581-0.4179688
			c-0.3069458,0-0.3799438,0.1589966-0.4349976,0.4699707h-0.3029785c0.0869751-0.5510254,0.3759766-0.7910156,0.8540039-0.7910156
			c0.7050171,0,0.5200195,0.6620483,0.5079956,0.723999l-0.2890015,1.5310059
			c-0.0130005,0.0670166-0.039978,0.1630249,0.0209961,0.2020264c0.0449829,0.0139771,0.0969849,0.0089722,0.1439819,0.0039673
			L41.8731995,13.814209z"/>
		<path d="M45.401886,11.861145c0.072998-0.3169556-0.0020142-0.4659424-0.2880249-0.4659424
			c-0.2390137,0-0.3989868,0.125-0.4520264,0.4029541c-0.0650024,0.3460083,0.1790161,0.3890381,0.3880005,0.4990234
			c0.309021,0.1729736,0.6329956,0.2689819,0.5380249,0.7680054c-0.0960083,0.5089722-0.4719849,0.8259888-0.9570313,0.8209839
			c-0.2099609,0.0050049-0.4509888-0.0769653-0.5359497-0.2789917c-0.1020508-0.2109985-0.0599976-0.3880005-0.0250244-0.5700073
			h0.3200073c-0.0750122,0.3259888-0.0139771,0.5269775,0.302002,0.5269775c0.2730103,0,0.4760132-0.125,0.5369873-0.4509888
			c0.0720215-0.3789673-0.2630005-0.4119873-0.4849854-0.5279541c-0.3380127-0.1530151-0.5250244-0.2920532-0.4370117-0.7580566
			c0.0869751-0.4609985,0.4279785-0.7529907,0.8380127-0.7529907c0.4699707,0,0.6969604,0.2399902,0.5849609,0.7869873H45.401886z"
			/>
		<path d="M48.0345764,13.814209h-0.3380127l0.6809692-3.598999h0.3370361l-0.2310181,1.223999
			c0.2050171-0.230957,0.4060059-0.3649902,0.6619873-0.3649902c0.3540039,0,0.5449829,0.2109985,0.4559937,0.6810303
			l-0.3889771,2.05896h-0.3370361l0.3690186-1.9529419c0.052002-0.2790527,0.0059814-0.4660034-0.2669678-0.4660034
			c-0.1230469,0-0.2530518,0.0529785-0.3600464,0.1489868c-0.1640015,0.1389771-0.2099609,0.2929688-0.2459717,0.4840088
			L48.0345764,13.814209z"/>
		<path d="M52.1680603,10.6952515l0.0910034-0.4800415h0.3369751l-0.0910034,0.4800415H52.1680603z M51.579071,13.814209
			l0.5039673-2.6679688h0.3369751l-0.5039673,2.6679688H51.579071z"/>
		<path d="M55.0591736,11.4389038c0.2149658-0.230957,0.414978-0.3649902,0.6709595-0.3649902
			c0.3540039,0,0.5449829,0.2109985,0.4559937,0.6820068l-0.3889771,2.0579834h-0.3370361l0.3690186-1.9529419
			c0.0530396-0.2780151,0.007019-0.4660034-0.2659912-0.4660034c-0.1240234,0-0.2539673,0.0529785-0.3619995,0.1489868
			c-0.1619873,0.1389771-0.2089844,0.2929688-0.2449951,0.4849854l-0.3369751,1.7849731H54.282135l0.5040283-2.6679688h0.3280029
			L55.0591736,11.4389038z"/>
		<path d="M58.6505432,12.4799805c-0.1239624,0.6530151-0.1069946,1.0849609,0.2260132,1.0849609
			c0.5120239,0,0.6430054-0.7149658,0.723999-1.1430054c0.0999756-0.5279541,0.0960083-1.0269775-0.2800293-1.0269775
			C58.8725281,11.3949585,58.7185364,12.1199951,58.6505432,12.4799805 M59.8415833,11.1459351h0.3379517l-0.4439697,2.3470459
			c-0.0620117,0.3259888-0.1300049,0.5750122-0.342041,0.8590088c-0.1989746,0.2630005-0.4619751,0.3689575-0.7229614,0.3689575
			c-0.3800049,0-0.6240234-0.1969604-0.585022-0.6529541h0.3290405c-0.0160522,0.2399902,0.1039429,0.3319702,0.30896,0.3319702
			c0.5460205,0,0.6050415-0.6049805,0.6640015-0.8980103h-0.0079956c-0.1929932,0.2739868-0.3670044,0.3840332-0.585022,0.3840332
			c-0.447998,0-0.6939697-0.3500366-0.4909668-1.4250488c0.1060181-0.5609741,0.3859863-1.3869629,1.0139771-1.3869629
			c0.217041,0,0.3909912,0.1199951,0.4590454,0.3739624h0.0079956L59.8415833,11.1459351z"/>
		<path d="M62.9463196,11.1459351h0.3969727L63.2823181,11.46698h-0.3920288l-0.3439941,1.8189697
			c-0.0170288,0.0910034-0.0690308,0.2070313,0.1190186,0.2070313h0.2259521l-0.0599976,0.3209839H62.459259
			c-0.2019653,0.0050049-0.3429565-0.0339966-0.2669678-0.4370117l0.3610229-1.9099731h-0.3290405l0.0599976-0.3210449h0.3290405
			l0.1369629-0.723999h0.3330078L62.9463196,11.1459351z"/>
		<path d="M66.2041321,11.3949585c-0.3459473,0-0.5579834,0.3079834-0.7099609,1.1140137
			c-0.1190186,0.6279907-0.0930176,1.0559692,0.2999878,1.0559692c0.401001,0,0.5800171-0.4279785,0.6989746-1.0559692
			C66.6451721,11.7029419,66.558136,11.3949585,66.2041321,11.3949585 M65.7331848,13.8859253
			c-0.5120239,0-0.7840576-0.3449707-0.5670166-1.4969482c0.1530151-0.8060303,0.5130005-1.3150024,1.0979614-1.3150024
			c0.585022,0,0.7540283,0.5089722,0.6010132,1.3150024C66.6471252,13.5449829,66.2541809,13.8859253,65.7331848,13.8859253"/>
		<path d="M69.6546936,11.4389038c0.2149658-0.230957,0.414978-0.3649902,0.6709595-0.3649902
			c0.3540039,0,0.5449829,0.2109985,0.4559937,0.6820068l-0.3889771,2.0579834h-0.3370361l0.3690186-1.9529419
			c0.0530396-0.2780151,0.007019-0.4660034-0.2659912-0.4660034c-0.125,0-0.2539673,0.0529785-0.3619995,0.1489868
			c-0.1619873,0.1389771-0.2089844,0.2929688-0.2449951,0.4849854l-0.3369751,1.7849731H68.877655l0.5040283-2.6679688h0.3280029
			L69.6546936,11.4389038z"/>
	</g>
</g>
<g>
	<g>
		<path d="M5.6249075,22.6920166l-2.5940549,7.8710327c-0.1399536,0.4589844-0.6259766,0.71698-1.0859987,0.5770264
			c-0.4589844-0.1410522-0.7179565-0.6270142-0.5769653-1.0859985l2.5800171-7.8600464
			c0.1699827-0.5369873-0.1380005-0.5629883-0.1380005-0.5629883h-3.394043c-0.5119629,0-0.4069824-0.4550171-0.4069824-0.4550171
			l0.1890259-1.1189575h4.5509644C4.7488699,20.0570679,6.4028616,20.3150635,5.6249075,22.6920166"/>
		<path d="M6.7336111,22.6920166l0.815979,7.8710327c0.1409912,0.4589844,0.6270142,0.71698,1.0859985,0.5770264
			c0.4589844-0.1410522,0.7180176-0.6270142,0.5769653-1.0859985l-0.802002-7.8600464
			c-0.0509644-0.5479736,0.5730591-0.5629883,0.5730591-0.5629883h1.8709717c0.5109863,0,0.4069824-0.4550171,0.4069824-0.4550171
			l-0.1889648-1.1189575H8.5155935C8.5155935,20.0570679,6.4895926,19.9200439,6.7336111,22.6920166"/>
		<path d="M6.1968069,12.0440063c1.697998,0,3.0749512,1.3760376,3.0749512,3.0750122
			c0,0.8619995-0.3549805,1.6409912-0.927002,2.1990356c0,0-0.6489868,0.6239624,0.3850098,0.6239624h2.5780029
			c0.3920288,0,0.4860229,0.3390503,0.4860229,0.3390503l0.2650146,1.2409668H8.0117483
			c-1.1209717,0-1.2269897-0.9439697-1.2269897-0.9439697c-0.4289551-1.151001,0.5469971-2.243042,0.5469971-2.243042
			c0.2400513-0.3200073,0.3860474-0.7420044,0.3860474-1.2049561c0-0.9980469-0.6780396-1.8060303-1.5130005-1.8060303H6.1887503
			c-0.8349609,0-1.5130005,0.8079834-1.5130005,1.8060303c0,0.4629517,0.1460571,0.8849487,0.3860474,1.2049561
			c0,0,0.9549561,1.1380005,0.5269775,2.2890015c0,0-0.0859985,0.8980103-1.2069702,0.8980103H0.3357841l0.2639771-1.2409668
			c0,0,0.0939941-0.3390503,0.4849854-0.3390503h2.5790405c1.0339963,0,0.3850095-0.6239624,0.3850095-0.6239624
			c-0.5720212-0.5580444-0.9260252-1.3370361-0.9260252-2.1990356C3.1227715,13.4200439,4.4987478,12.0440063,6.1968069,12.0440063"
			/>
	</g>
	<g>
		<path d="M13.0931082,11.7023926l-0.901001,18.6460571c-0.0840454,0.5289917-0.5810547,0.8889771-1.1100464,0.8059692
			c-0.5289917-0.0839844-0.8899536-0.5809937-0.8059692-1.1099854l0.8389893-17.9940186
			c0.0209961-0.7340088-0.5770264-0.7249756-0.5770264-0.7249756H3.5190728c-0.5360107,0-0.4110107-0.519043-0.4110107-0.519043
			l0.2180176-1.3429565l7.7940063-0.0020142C11.1200857,9.4614258,13.1080618,9.352417,13.0931082,11.7023926"/>
		<path d="M13.6141653,0c2.0109863,0,3.6409922,1.6300049,3.6409922,3.6420288c0,1.0200195-0.4200439,1.9429932-1.0970459,2.6040039
			c0,0-0.7680063,0.7390137,0.4560547,0.7390137h3.5749512c0.4639893,0,0.5750122,0.3999634,0.5750122,0.3999634
			l0.3140259,1.4710083h-5.3140268c-1.3280029,0-1.4849854-0.9799805-1.4849854-0.9799805
			c-0.5059814-1.3619995,0.6799927-2.7949829,0.6799927-2.7949829c0.2839966-0.3780518,0.4559937-0.8780518,0.4559937-1.427002
			c0-1.1810303-0.802002-2.1380005-1.7910156-2.1380005h-0.0199585c-0.9890137,0-1.7910156,0.9569702-1.7910156,2.1380005
			c0,0.5489502,0.1729736,1.0489502,0.4569702,1.427002c0,0,1.2290039,1.3859863,0.7220459,2.75
			c0,0-0.2000122,1.0249634-1.5270386,1.0249634H3.7101128l0.2839966-1.4710083c0,0,0.1119993-0.3999634,0.5760496-0.3999634
			h6.0449829c1.223999,0,0.4550171-0.7390137,0.4550171-0.7390137C10.3941336,5.585022,9.9741507,4.6620483,9.9741507,3.6420288
			C9.9741507,1.6300049,11.6031179,0,13.6151419,0H13.6141653z"/>
	</g>
	<g>
		<path d="M19.5898743,9.4129028c1.223999,0,0.4559937-0.7389526,0.4559937-0.7389526
			c-0.677002-0.6619873-1.0970459-1.5840454-1.0970459-2.6050415c0-2.0109863,1.6300049-3.6409912,3.6410522-3.6409912
			c2.0099487,0,3.6409912,1.6300049,3.6409912,3.6409912c0,1.0209961-0.4200439,1.9430542-1.0970459,2.6050415
			c0,0-0.7680054,0.7389526,0.4550171,0.7389526h4.6959839c0.4020386,0,0.4840088,0.4000244,0.4840088,0.4000244
			l0.2720337,1.4700317h-6.302002c-1.3270264,0-1.5380249-1.0280151-1.5380249-1.0280151
			c-0.507019-1.3630371,0.7330322-2.7460327,0.7330322-2.7460327c0.2839966-0.3789673,0.4559937-0.8789673,0.4559937-1.427002
			c0-1.1809692-0.8010254-2.1389771-1.7910156-2.1389771h-0.0189819c-0.9890137,0-1.7910156,0.9580078-1.7910156,2.1389771
			c0,0.5480347,0.1729736,1.0480347,0.4569702,1.427002c0,0,1.2210083,1.3829956,0.7140503,2.7460327
			c0,0-0.1930542,1.0280151-1.5200195,1.0280151l-3.7789917-0.0030518c0,0-0.5679932,0.0140381-0.5640259,0.5710449
			l0.8590088,18.1259766c0.1019897,0.526001-0.2420044,1.0350342-0.7680054,1.1370239
			c-0.5249643,0.1029663-1.0339975-0.2410278-1.1369638-0.7670288L14.177825,12.1169434
			c-0.1519775-2.9390259,2.2030039-2.7070313,2.2030039-2.7070313L19.5898743,9.4129028z"/>
		<path d="M19.8664856,14.505249l-0.0840454,15.5650024c-0.0039673,0.0370483,0.0090332,0.0510254,0.0090332,0.0880127
			c0,0.5380249,0.4259644,0.9750366,0.9519653,0.9750366c0.5050049,0,0.9180298-0.4039917,0.9490356-0.9140015l0.0830078-16.6310425
			c0,0,0.0639648-1.723999-1.8520508-1.723999h-4.1729746v1.9570313h3.5910044
			C19.3414612,13.8212891,19.8664856,13.7633057,19.8664856,14.505249"/>
		<path d="M31.3301697,13.3990479c0.0859985,0.4660034-0.3880005,0.4460449-0.3880005,0.4460449h-5.3450317
			c-0.6119995,0-0.440979,0.5979614-0.440979,0.5979614l2.9279785,15.44104
			c0.0239868,0.0869751,0.0369873,0.1779785,0.0369873,0.2730103c0,0.5390015-0.427002,0.9759521-0.9549561,0.9759521
			c-0.4420166,0-0.8140259-0.3070068-0.9220581-0.723999L23.2311096,14.486084c0,0-0.6549683-2.6220093,1.868042-2.6220093h5.947998
			L31.3301697,13.3990479z"/>
	</g>
</g>
</svg>
