<?xml version="1.0" encoding="UTF-8" standalone="no"?>
<!-- Created with Inkscape (http://www.inkscape.org/) -->

<svg
   xmlns:dc="http://purl.org/dc/elements/1.1/"
   xmlns:cc="http://creativecommons.org/ns#"
   xmlns:rdf="http://www.w3.org/1999/02/22-rdf-syntax-ns#"
   xmlns:svg="http://www.w3.org/2000/svg"
   xmlns="http://www.w3.org/2000/svg"
   xmlns:sodipodi="http://sodipodi.sourceforge.net/DTD/sodipodi-0.dtd"
   xmlns:inkscape="http://www.inkscape.org/namespaces/inkscape"
   width="130.02174"
   height="100.44975"
   id="svg7118"
   version="1.1"
   inkscape:version="0.48.5 r10040"
   sodipodi:docname="New document 8">
  <defs
     id="defs7120" />
  <sodipodi:namedview
     id="base"
     pagecolor="#ffffff"
     bordercolor="#666666"
     borderopacity="1.0"
     inkscape:pageopacity="0.0"
     inkscape:pageshadow="2"
     inkscape:zoom="1.4"
     inkscape:cx="39.101536"
     inkscape:cy="51.054577"
     inkscape:document-units="px"
     inkscape:current-layer="layer1"
     showgrid="false"
     fit-margin-top="0"
     fit-margin-left="0"
     fit-margin-right="0"
     fit-margin-bottom="0"
     inkscape:window-width="463"
     inkscape:window-height="423"
     inkscape:window-x="679"
     inkscape:window-y="256"
     inkscape:window-maximized="0" />
  <metadata
     id="metadata7123">
    <rdf:RDF>
      <cc:Work
         rdf:about="">
        <dc:format>image/svg+xml</dc:format>
        <dc:type
           rdf:resource="http://purl.org/dc/dcmitype/StillImage" />
        <dc:title></dc:title>
      </cc:Work>
    </rdf:RDF>
  </metadata>
  <g
     inkscape:label="Layer 1"
     inkscape:groupmode="layer"
     id="layer1"
     transform="translate(-349.27484,-222.13731)">
    <path
       inkscape:connector-curvature="0"
       id="path2760"
       style="fill:#a5d2be;fill-opacity:1;fill-rule:nonzero;stroke:none"
       d="m 349.27534,322.58706 130.02125,0 0,-18.515 -130.02125,0 0,18.515 z" />
    <path
       inkscape:connector-curvature="0"
       id="path2762"
       style="fill:#a5d2be;fill-opacity:1;fill-rule:nonzero;stroke:none"
       d="m 349.27534,267.06331 130.02125,0 0,19.21875 -130.02125,0 0,-19.21875 z" />
    <g
       transform="matrix(1.25,0,0,-1.25,449.21559,280.48406)"
       id="g2764">
      <path
         inkscape:connector-curvature="0"
         id="path2766"
         style="fill:#ffffff;fill-opacity:1;fill-rule:nonzero;stroke:none"
         d="m 0,0 -29.237,-0.094 -0.096,1.335 28.762,0 0.143,1.642 -15.738,0.047 0.047,7.549 c 0,0 0.434,1.602 -1.308,1.928 -5.749,1.007 -21.095,0.38 -21.095,0.38 l 0.046,1.525 c 0.843,0.948 2.764,1.212 2.967,1.273 0.175,0.059 0.082,0.273 0.082,0.273 0.958,1.837 3.315,2.719 3.576,2.808 0.262,0.089 0.019,0.336 0.019,0.336 l 0,1.452 c 0,0.356 0.533,0.435 0.823,0.581 0.291,0.179 0.463,-0.01 0.463,-0.01 0,0 -0.048,-1.464 -0.048,-1.879 0,-0.417 0.137,-0.48 0.137,-0.48 0.349,0.03 0.813,0.06 1.103,0.06 0.291,0 0.069,0.372 0.069,0.372 l 0,2.785 c 3.368,1.837 10.511,0.397 10.511,0.397 l 0,-6.577 c 1.016,0.029 13.867,-0.445 14.506,-0.533 0.639,-0.089 2.526,-0.533 2.816,-0.83 0,0 1.452,-0.149 1.452,-11.703 L 0,0 z" />
    </g>
    <g
       transform="matrix(1.25,0,0,-1.25,401.35359,263.15981)"
       id="g2768"
       style="fill:#007b63;fill-opacity:1">
      <path
         inkscape:connector-curvature="0"
         id="path2770"
         style="fill:#007b63;fill-opacity:1;fill-rule:nonzero;stroke:none"
         d="m 0,0 0,-0.843 c 0,0 15.305,0.64 21.056,-0.348 1.743,-0.32 1.307,-2.149 1.307,-2.149 l 0,-7.318 15.973,0 0.002,-2.151 -29.013,0 -0.002,-0.899 30.03,0 0,-0.813 -2.12,0 c 0,0 -3.108,-0.523 -5.054,-3.485 l 30.175,0 0,-14.812 -104.017,0 0,14.812 29.436,0 c 0,0 -2.614,3.398 -4.938,3.601 l -3.252,0 c 0,0 -0.349,0 -0.349,0.407 0,0.435 0.262,0.522 0.407,0.522 l 1.248,0 c 0,0 0.349,8.684 0.726,13.476 0.116,1.511 0.261,2.644 0.349,2.992 0,0 4.182,1.016 8.133,1.074 l 0,0.901 c 0,0 3.107,0.58 4.878,0.668 l 0,2.584 0,0.987 c 0,0 1.075,0.437 3.775,0.843 l 0,1.481 c -0.435,0.234 -0.609,0.697 -0.493,1.133 0.145,0.581 0.697,0.9 1.278,0.755 0.261,-0.059 0.494,-0.233 0.639,-0.465 0,0 -0.697,-0.232 -0.726,-0.639 -0.03,-0.348 0.29,-0.465 0.697,-0.291 l 0.116,0.118 c 0,0 0.03,-0.349 -0.232,-0.495 l 0,-1.394 c 0,0 0.813,0.088 0.958,0.088 0,0 0.145,1.365 1.685,1.568 l 0,1.364 c 0,0 -1.104,0.117 -1.481,2.962 0,0 0.028,0.059 0.115,0.175 0.175,0.203 0.553,0.523 1.336,0.727 l 0,0.378 c 0,0 0.755,0.493 1.162,0.581 l 0,1.133 c 0,0 0.697,0.115 0.9,-0.727 l 0.464,0 0,3.602 c 0,0 0,0.725 -0.376,0.899 0,0 -0.124,0.494 0.952,0.813 l 0,4.386 c 0,0 -0.168,-0.378 -0.835,-0.262 -0.669,0.146 -0.872,0.524 -0.872,0.524 l 0,1.742 c 0,0 0.377,-0.58 0.929,-0.58 0.58,0 1.191,0.376 1.307,0.493 l 0,-6.129 c 0,0 0.425,0.204 1.471,0.146 l 0,6.507 c 0,0 -0.251,-0.524 -0.948,-0.437 -0.727,0.059 -0.929,0.378 -1.046,0.697 l 0,1.744 c 0,0 0.349,-0.727 0.987,-0.668 0.639,0.057 1.134,0.463 1.395,0.84 l 0.174,0 0,-8.713 c 0,0 0.87,-0.173 1.307,-0.492 0,0 0.262,-0.205 -0.087,-0.378 0,0 -0.145,-0.088 -0.145,-0.523 l 0,-1.626 c 0,0 -0.146,-0.029 -0.174,0.145 C 9.148,21.463 8.8,21.666 8.567,21.492 8.19,21.288 8.249,20.795 8.249,20.795 l 0,-1.889 c 0,0 0.841,0.088 1.219,0.06 l 0,0.639 c 0,0 0.493,0.464 0.929,-0.785 0,0 2.498,-0.348 3.369,-1.365 l 0,-0.435 c 0,0 0.494,0 1.074,-0.611 0.088,-0.057 0.523,-0.986 -0.755,-2.7 0,0 -0.464,-0.495 -0.696,-0.146 l 0,2.846 c 0,0.059 0,0.437 -0.291,0.465 -0.319,0.058 -0.58,0.087 -0.58,-0.145 l 0,-0.32 0,-2.322 c 0,0 -0.523,0.261 -1.018,0.435 l 0,1.887 c -0.028,0.059 -0.058,0.35 -0.405,0.203 -0.088,-0.056 -0.146,-0.144 -0.175,-0.203 -0.03,-0.116 0,-0.202 0,-0.202 l 0,-1.54 c 0,0 -0.523,0.204 -1.017,0.175 l 0,1.046 c 0,0 0.088,0.434 -0.377,0.173 C 9.235,15.888 9.323,15.625 9.323,15.625 l 0,-0.727 c 0,0 -0.929,0.088 -1.279,0.03 0,0 -0.057,0.292 -0.347,0 -0.292,-0.29 -0.611,-0.58 -0.669,-0.696 l 0,-3.398 c 0,0 3.068,0.178 6.474,-0.1 0.193,-0.014 0.002,1.232 0.002,1.232 0,0 1.453,0.204 1.859,-1.278 0,0 0.088,-0.116 0.291,-0.146 0.232,-0.029 1.452,-0.114 2.381,-0.202 l 0,1.103 c -0.435,0.233 -0.639,0.698 -0.523,1.132 0.146,0.582 0.727,0.902 1.279,0.756 0.29,-0.059 0.522,-0.231 0.668,-0.465 0,0 -0.698,-0.232 -0.727,-0.639 -0.028,-0.349 0.291,-0.463 0.698,-0.29 l 0.115,0.116 c 0,0 0.03,-0.348 -0.232,-0.494 l 0,-1.481 c 0,0 1.888,-0.202 3.253,-0.726 l 0,-1.133 0,-2.875 c 0,0 3.689,-0.146 5.083,-0.436 l 0,-1.132 c 0,0 5.809,-0.233 8.887,-1.104 0,0 0.348,0.144 0.523,-2.15 0,0 0.028,-0.463 -0.262,-0.173 C 36.507,0.64 34.619,1.075 34.009,1.161 33.37,1.249 19.923,1.714 18.936,1.685 l 0,6.448 -0.407,0.086 c -1.278,0.233 -5.518,0.958 -8.452,0 C 9.759,8.104 9.438,7.958 9.176,7.813 l 0,-2.905 c 0,0 0.031,-0.261 -0.29,-0.261 -0.29,0 -0.754,-0.03 -1.074,-0.058 0,0 -0.29,-0.029 -0.29,0.378 l 0,1.857 c 0,0 0,0.263 -0.291,0.117 C 6.97,6.768 6.651,6.651 6.651,6.332 l 0,-1.539 c 0,0 0.029,-0.116 -0.233,-0.204 C 6.157,4.503 3.92,3.572 2.962,1.801 2.962,1.801 2.933,1.627 2.729,1.568 2.527,1.511 0.871,1.249 0,0.32 L 0,0 z" />
    </g>
    <g
       transform="matrix(1.25,0,0,-1.25,413.84196,254.08393)"
       id="g2772"
       style="fill:#007b63;fill-opacity:1">
      <path
         inkscape:connector-curvature="0"
         id="path2774"
         style="fill:#007b63;fill-opacity:1;fill-rule:nonzero;stroke:none"
         d="M 0,0 C 0,0 -0.087,0.378 0.29,0.349 0.726,0.319 1.626,0.29 1.626,0.29 c 0,0 0.145,-0.086 0.145,-0.376 l 0,-2.325 c 0,0 0.029,-0.319 -0.319,-0.261 l -1.249,0.059 c 0,0 -0.203,0.028 -0.203,0.29 L 0,0 z" />
    </g>
    <g
       transform="matrix(1.25,0,0,-1.25,417.00059,254.26456)"
       id="g2776"
       style="fill:#007b63;fill-opacity:1">
      <path
         inkscape:connector-curvature="0"
         id="path2778"
         style="fill:#007b63;fill-opacity:1;fill-rule:nonzero;stroke:none"
         d="m 0,0 c 0,0 -0.03,0.376 0.231,0.349 0.35,-0.03 1.046,-0.147 1.046,-0.147 0,0 0.088,-0.116 0.088,-0.29 l 0,-2.382 c 0,0 0.116,-0.347 -0.262,-0.26 l -0.929,0.117 c 0,0 -0.174,0 -0.174,0.231 L 0,0 z" />
    </g>
    <g
       transform="matrix(1.25,0,0,-1.25,419.54146,254.62706)"
       id="g2780"
       style="fill:#007b63;fill-opacity:1">
      <path
         inkscape:connector-curvature="0"
         id="path2782"
         style="fill:#007b63;fill-opacity:1;fill-rule:nonzero;stroke:none"
         d="m 0,0 c 0,0 -0.116,0.406 0.261,0.376 0.378,-0.058 0.93,-0.174 0.93,-0.174 0,0 0.086,-0.087 0.086,-0.29 l 0,-2.323 c 0,0 0.03,-0.436 -0.319,-0.32 l -0.812,0.145 c 0,0 -0.146,0 -0.146,0.263 L 0,0 z" />
    </g>
    <g
       transform="matrix(1.25,0,0,-1.25,421.97371,255.02631)"
       id="g2784"
       style="fill:#007b63;fill-opacity:1">
      <path
         inkscape:connector-curvature="0"
         id="path2786"
         style="fill:#007b63;fill-opacity:1;fill-rule:nonzero;stroke:none"
         d="M 0,0 C 0,0 -0.087,0.405 0.232,0.348 0.581,0.29 1.075,0.202 1.075,0.202 c 0,0 0.115,-0.116 0.115,-0.29 l 0,-2.266 c 0,0 0.059,-0.406 -0.318,-0.376 l -0.727,0.144 c 0,0 -0.145,0.028 -0.145,0.29 L 0,0 z" />
    </g>
    <g
       transform="matrix(1.25,0,0,-1.25,431.32184,272.59831)"
       id="g2788"
       style="fill:#007b63;fill-opacity:1">
      <path
         inkscape:connector-curvature="0"
         id="path2790"
         style="fill:#007b63;fill-opacity:1;fill-rule:nonzero;stroke:none"
         d="m 0,0 c 0.345,0 0.625,-0.468 0.625,-1.045 0,-0.577 -0.28,-1.046 -0.625,-1.046 -0.345,0 -0.625,0.469 -0.625,1.046 C -0.625,-0.468 -0.345,0 0,0" />
    </g>
    <g
       transform="matrix(1.25,0,0,-1.25,434.11721,272.67031)"
       id="g2792"
       style="fill:#007b63;fill-opacity:1">
      <path
         inkscape:connector-curvature="0"
         id="path2794"
         style="fill:#007b63;fill-opacity:1;fill-rule:nonzero;stroke:none"
         d="m 0,0 c 0.361,0 0.653,-0.469 0.653,-1.046 0,-0.577 -0.292,-1.045 -0.653,-1.045 -0.36,0 -0.653,0.468 -0.653,1.045 C -0.653,-0.469 -0.36,0 0,0" />
    </g>
    <g
       transform="matrix(1.25,0,0,-1.25,437.13059,272.77893)"
       id="g2796"
       style="fill:#007b63;fill-opacity:1">
      <path
         inkscape:connector-curvature="0"
         id="path2798"
         style="fill:#007b63;fill-opacity:1;fill-rule:nonzero;stroke:none"
         d="m 0,0 c 0.361,0 0.653,-0.469 0.653,-1.047 0,-0.577 -0.292,-1.045 -0.653,-1.045 -0.36,0 -0.653,0.468 -0.653,1.045 C -0.653,-0.469 -0.36,0 0,0" />
    </g>
    <g
       transform="matrix(1.25,0,0,-1.25,439.94371,272.81681)"
       id="g2800"
       style="fill:#007b63;fill-opacity:1">
      <path
         inkscape:connector-curvature="0"
         id="path2802"
         style="fill:#007b63;fill-opacity:1;fill-rule:nonzero;stroke:none"
         d="m 0,0 c 0.225,0 0.407,-0.422 0.407,-0.943 0,-0.521 -0.182,-0.944 -0.407,-0.944 -0.224,0 -0.406,0.423 -0.406,0.944 C -0.406,-0.422 -0.224,0 0,0" />
    </g>
    <g
       transform="matrix(1.25,0,0,-1.25,442.35821,272.85218)"
       id="g2804"
       style="fill:#007b63;fill-opacity:1">
      <path
         inkscape:connector-curvature="0"
         id="path2806"
         style="fill:#007b63;fill-opacity:1;fill-rule:nonzero;stroke:none"
         d="m 0,0 c 0.153,0 0.276,-0.43 0.276,-0.959 0,-0.529 -0.123,-0.958 -0.276,-0.958 -0.152,0 -0.275,0.429 -0.275,0.958 C -0.275,-0.43 -0.152,0 0,0" />
    </g>
    <g
       transform="matrix(1.25,0,0,-1.25,359.23809,297.83881)"
       id="g2808">
      <path
         inkscape:connector-curvature="0"
         id="path2810"
         style="fill:#ffffff;fill-opacity:1;fill-rule:evenodd;stroke:none"
         d="m 0,0 1.173,0 c 0.644,3.1 0.745,3.535 0.929,4.69 l 0.018,0 C 2.32,3.535 2.428,2.948 3.048,0 l 1.206,0 1.692,6.014 -1.272,0 C 3.895,2.706 3.794,2.188 3.693,1.616 l -0.017,0 C 3.543,2.396 3.484,2.715 2.78,6.014 l -1.331,0 C 0.813,2.856 0.72,2.245 0.612,1.616 l -0.017,0 C 0.486,2.305 0.41,2.724 -0.36,6.014 l -1.34,0 L 0,0 z" />
    </g>
    <g
       transform="matrix(1.25,0,0,-1.25,369.50971,295.83931)"
       id="g2812">
      <path
         inkscape:connector-curvature="0"
         id="path2814"
         style="fill:#ffffff;fill-opacity:1;fill-rule:evenodd;stroke:none"
         d="m 0,0 c 0,-0.543 -0.527,-0.879 -1.046,-0.879 -0.226,0 -0.545,0.126 -0.545,0.536 0,0.487 0.361,0.595 0.796,0.671 C -0.31,0.403 -0.117,0.479 0,0.571 L 0,0 z m 1.147,1.684 c 0,1.097 -1.147,1.29 -1.775,1.29 -0.913,0 -1.859,-0.193 -1.993,-1.559 l 1.131,0 c 0.033,0.261 0.134,0.62 0.719,0.62 C -0.469,2.035 0,2.012 0,1.517 0,1.265 -0.226,1.19 -0.41,1.165 L -1.465,1.006 c -0.746,-0.11 -1.299,-0.553 -1.299,-1.424 0,-0.921 0.687,-1.297 1.358,-1.297 0.795,0 1.172,0.367 1.44,0.645 0.025,-0.252 0.041,-0.32 0.109,-0.53 l 1.264,0 0,0.176 c -0.142,0.052 -0.26,0.169 -0.26,0.696 l 0,2.412 z" />
    </g>
    <g
       transform="matrix(1.25,0,0,-1.25,376.54346,293.96431)"
       id="g2816">
      <path
         inkscape:connector-curvature="0"
         id="path2818"
         style="fill:#ffffff;fill-opacity:1;fill-rule:evenodd;stroke:none"
         d="m 0,0 c -0.092,1.256 -1.131,1.474 -2.002,1.474 -1.39,0 -1.8,-0.838 -1.8,-1.492 0,-1.665 2.763,-1.104 2.763,-1.849 0,-0.169 -0.142,-0.46 -0.745,-0.46 -0.737,0 -0.971,0.275 -0.971,0.651 l -1.206,0 c 0.033,-1.187 1.13,-1.539 2.144,-1.539 0.695,0 1.951,0.234 1.951,1.532 0,1.641 -2.789,1.131 -2.789,1.834 0,0.192 0.084,0.435 0.72,0.435 0.637,0 0.738,-0.302 0.788,-0.586 L 0,0 z" />
    </g>
    <g
       transform="matrix(1.25,0,0,-1.25,382.22884,293.98618)"
       id="g2820">
      <path
         inkscape:connector-curvature="0"
         id="path2822"
         style="fill:#ffffff;fill-opacity:1;fill-rule:evenodd;stroke:none"
         d="m 0,0 c 0,0.98 -0.678,1.491 -1.549,1.491 -0.637,0 -1.139,-0.326 -1.29,-0.694 l -0.017,0 0,2.135 -1.172,0 0,-6.014 1.172,0 0,2.555 c 0,0.678 0.402,1.03 0.921,1.03 0.746,0 0.763,-0.553 0.763,-0.879 l 0,-2.706 1.172,0 L 0,0 z" />
    </g>
    <path
       inkscape:connector-curvature="0"
       id="path2824"
       style="fill:#ffffff;fill-opacity:1;fill-rule:evenodd;stroke:none"
       d="m 384.51159,290.24706 -1.465,0 0,1.3625 1.465,0 0,-1.3625 z m -1.46375,7.59125 1.465,0 0,-5.57 -1.465,0 0,5.57 z" />
    <g
       transform="matrix(1.25,0,0,-1.25,390.36484,293.98618)"
       id="g2826">
      <path
         inkscape:connector-curvature="0"
         id="path2828"
         style="fill:#ffffff;fill-opacity:1;fill-rule:evenodd;stroke:none"
         d="m 0,0 c 0,0.98 -0.679,1.491 -1.549,1.491 -0.846,0 -1.181,-0.502 -1.34,-0.77 l -0.017,0 0,0.653 -1.122,0 0,-4.456 1.173,0 0,2.555 c 0,0.678 0.401,1.03 0.921,1.03 0.745,0 0.762,-0.553 0.762,-0.879 l 0,-2.706 1.172,0 L 0,0 z" />
    </g>
    <g
       transform="matrix(1.25,0,0,-1.25,392.38696,295.08481)"
       id="g2830">
      <path
         inkscape:connector-curvature="0"
         id="path2832"
         style="fill:#ffffff;fill-opacity:1;fill-rule:evenodd;stroke:none"
         d="m 0,0 c 0,1.039 0.485,1.356 0.92,1.356 0.655,0 1.006,-0.585 1.006,-1.305 0,-0.612 -0.201,-1.29 -0.997,-1.29 C 0.234,-1.239 0,-0.569 0,0 m 1.968,2.253 0,-0.662 -0.017,0 C 1.808,1.884 1.474,2.37 0.645,2.37 c -0.98,0 -1.852,-0.754 -1.852,-2.294 0,-1.558 0.847,-2.304 1.919,-2.304 0.703,0 0.996,0.328 1.188,0.67 l 0.018,-0.016 0,-0.536 c 0,-0.72 -0.302,-1.022 -0.93,-1.022 -0.678,0 -0.771,0.226 -0.821,0.453 l -1.272,0 c 0.05,-0.946 1.022,-1.341 1.942,-1.341 2.194,0 2.253,1.283 2.253,2.053 l 0,4.22 -1.122,0 z" />
    </g>
    <g
       transform="matrix(1.25,0,0,-1.25,398.88721,290.76118)"
       id="g2834">
      <path
         inkscape:connector-curvature="0"
         id="path2836"
         style="fill:#ffffff;fill-opacity:1;fill-rule:evenodd;stroke:none"
         d="m 0,0 -1.173,0 0,-1.206 -0.602,0 0,-0.838 0.602,0 0,-2.705 c 0,-0.577 0.184,-0.962 1.197,-0.962 l 0.152,0 c 0.184,0 0.367,0.008 0.552,0.017 l 0,0.887 C 0.645,-4.815 0.561,-4.823 0.485,-4.823 0.009,-4.823 0,-4.722 0,-4.464 l 0,2.42 0.728,0 0,0.838 L 0,-1.206 0,0 z" />
    </g>
    <g
       transform="matrix(1.25,0,0,-1.25,404.00684,295.05318)"
       id="g2838">
      <path
         inkscape:connector-curvature="0"
         id="path2840"
         style="fill:#ffffff;fill-opacity:1;fill-rule:evenodd;stroke:none"
         d="m 0,0 c 0,-0.568 -0.167,-1.356 -1.072,-1.356 -0.905,0 -1.072,0.788 -1.072,1.356 0,0.569 0.167,1.356 1.072,1.356 C -0.167,1.356 0,0.569 0,0 m 1.206,0 c 0,1.607 -1.08,2.345 -2.278,2.345 C -2.27,2.345 -3.35,1.607 -3.35,0 c 0,-1.608 1.08,-2.344 2.278,-2.344 1.198,0 2.278,0.736 2.278,2.344" />
    </g>
    <g
       transform="matrix(1.25,0,0,-1.25,410.99046,293.98618)"
       id="g2842">
      <path
         inkscape:connector-curvature="0"
         id="path2844"
         style="fill:#ffffff;fill-opacity:1;fill-rule:evenodd;stroke:none"
         d="m 0,0 c 0,0.98 -0.678,1.491 -1.55,1.491 -0.845,0 -1.18,-0.502 -1.34,-0.77 l -0.016,0 0,0.653 -1.122,0 0,-4.456 1.172,0 0,2.555 c 0,0.678 0.402,1.03 0.921,1.03 0.746,0 0.762,-0.553 0.762,-0.879 l 0,-2.706 1.173,0 L 0,0 z" />
    </g>
    <g
       transform="matrix(1.25,0,0,-1.25,413.60096,295.52431)"
       id="g2846">
      <path
         inkscape:connector-curvature="0"
         id="path2848"
         style="fill:#ffffff;fill-opacity:1;fill-rule:evenodd;stroke:none"
         d="m 0,0 c 0,-0.745 0.377,-2.01 2.571,-2.01 0.528,0 2.37,0.158 2.37,1.968 0,1.081 -0.753,1.416 -1.574,1.617 L 1.901,1.934 C 1.65,1.993 1.265,2.095 1.265,2.563 c 0,0.544 0.569,0.72 1.047,0.72 1.096,0 1.197,-0.636 1.23,-0.904 l 1.207,0 C 4.74,3.114 4.246,4.321 2.404,4.321 0.452,4.321 0.092,3.14 0.092,2.472 0.092,1.147 1.03,0.93 2.001,0.703 l 0.645,-0.15 c 0.637,-0.151 1.089,-0.278 1.089,-0.744 0,-0.638 -0.661,-0.78 -1.256,-0.78 -1.097,0 -1.264,0.636 -1.273,0.971 L 0,0 z" />
    </g>
    <g
       transform="matrix(1.25,0,0,-1.25,422.42596,290.76118)"
       id="g2850">
      <path
         inkscape:connector-curvature="0"
         id="path2852"
         style="fill:#ffffff;fill-opacity:1;fill-rule:evenodd;stroke:none"
         d="m 0,0 -1.172,0 0,-1.206 -0.603,0 0,-0.838 0.603,0 0,-2.705 c 0,-0.577 0.184,-0.962 1.198,-0.962 l 0.15,0 c 0.184,0 0.369,0.008 0.553,0.017 l 0,0.887 C 0.645,-4.815 0.562,-4.823 0.486,-4.823 0.009,-4.823 0,-4.722 0,-4.464 l 0,2.42 0.729,0 0,0.838 L 0,-1.206 0,0 z" />
    </g>
    <g
       transform="matrix(1.25,0,0,-1.25,427.05246,295.83931)"
       id="g2854">
      <path
         inkscape:connector-curvature="0"
         id="path2856"
         style="fill:#ffffff;fill-opacity:1;fill-rule:evenodd;stroke:none"
         d="m 0,0 c 0,-0.543 -0.528,-0.879 -1.047,-0.879 -0.226,0 -0.545,0.126 -0.545,0.536 0,0.487 0.361,0.595 0.797,0.671 C -0.31,0.403 -0.117,0.479 0,0.571 L 0,0 z m 1.147,1.684 c 0,1.097 -1.147,1.29 -1.775,1.29 -0.913,0 -1.859,-0.193 -1.993,-1.559 l 1.13,0 c 0.033,0.261 0.135,0.62 0.72,0.62 C -0.469,2.035 0,2.012 0,1.517 0,1.265 -0.226,1.19 -0.41,1.165 L -1.466,1.006 c -0.745,-0.11 -1.298,-0.553 -1.298,-1.424 0,-0.921 0.687,-1.297 1.357,-1.297 0.795,0 1.173,0.367 1.441,0.645 0.024,-0.252 0.041,-0.32 0.108,-0.53 l 1.265,0 0,0.176 c -0.142,0.052 -0.26,0.169 -0.26,0.696 l 0,2.412 z" />
    </g>
    <g
       transform="matrix(1.25,0,0,-1.25,431.14359,290.76118)"
       id="g2858">
      <path
         inkscape:connector-curvature="0"
         id="path2860"
         style="fill:#ffffff;fill-opacity:1;fill-rule:evenodd;stroke:none"
         d="m 0,0 -1.172,0 0,-1.206 -0.603,0 0,-0.838 0.603,0 0,-2.705 c 0,-0.577 0.185,-0.962 1.198,-0.962 l 0.151,0 c 0.183,0 0.368,0.008 0.552,0.017 l 0,0.887 C 0.646,-4.815 0.562,-4.823 0.486,-4.823 0.009,-4.823 0,-4.722 0,-4.464 l 0,2.42 0.729,0 0,0.838 L 0,-1.206 0,0 z" />
    </g>
    <g
       transform="matrix(1.25,0,0,-1.25,433.76021,294.49893)"
       id="g2862">
      <path
         inkscape:connector-curvature="0"
         id="path2864"
         style="fill:#ffffff;fill-opacity:1;fill-rule:evenodd;stroke:none"
         d="M 0,0 C 0.067,0.586 0.36,0.939 0.913,0.939 1.29,0.939 1.75,0.72 1.817,0 L 0,0 z M 1.767,-1.365 C 1.676,-1.683 1.34,-1.851 1.014,-1.851 0.067,-1.851 0,-1.097 -0.033,-0.762 l 3.056,0 0,0.21 c 0,2.034 -1.214,2.453 -2.093,2.453 -1.951,0 -2.136,-1.716 -2.136,-2.253 0,-1.834 0.963,-2.435 2.22,-2.435 0.761,0 1.649,0.351 1.959,1.422 l -1.206,0 z" />
    </g>
    <g
       transform="matrix(1.25,0,0,-1.25,441.72046,294.67593)"
       id="g2866">
      <path
         inkscape:connector-curvature="0"
         id="path2868"
         style="fill:#ffffff;fill-opacity:1;fill-rule:evenodd;stroke:none"
         d="m 0,0 2.646,0 0,1.063 -2.646,0 0,1.357 3.023,0 0,1.063 -4.279,0 0,-6.013 L 0,-2.53 0,0 z" />
    </g>
    <g
       transform="matrix(1.25,0,0,-1.25,446.91384,294.49893)"
       id="g2870">
      <path
         inkscape:connector-curvature="0"
         id="path2872"
         style="fill:#ffffff;fill-opacity:1;fill-rule:evenodd;stroke:none"
         d="M 0,0 C 0.066,0.586 0.36,0.939 0.913,0.939 1.29,0.939 1.75,0.72 1.817,0 L 0,0 z M 1.767,-1.365 C 1.675,-1.683 1.34,-1.851 1.013,-1.851 0.066,-1.851 0,-1.097 -0.033,-0.762 l 3.056,0 0,0.21 c 0,2.034 -1.214,2.453 -2.093,2.453 -1.952,0 -2.137,-1.716 -2.137,-2.253 0,-1.834 0.964,-2.435 2.22,-2.435 0.762,0 1.65,0.351 1.96,1.422 l -1.206,0 z" />
    </g>
    <g
       transform="matrix(1.25,0,0,-1.25,451.28884,297.83881)"
       id="g2874">
      <path
         inkscape:connector-curvature="0"
         id="path2876"
         style="fill:#ffffff;fill-opacity:1;fill-rule:evenodd;stroke:none"
         d="m 0,0 1.172,0 0,2.32 c 0,0.494 0.168,1.064 1.08,1.064 0.109,0 0.235,0 0.336,-0.016 l 0,1.189 C 2.512,4.565 2.437,4.573 2.361,4.573 1.65,4.573 1.382,4.139 1.139,3.686 l -0.017,0 0,0.77 L 0,4.456 0,0 z" />
    </g>
    <g
       transform="matrix(1.25,0,0,-1.25,455.06634,297.83881)"
       id="g2878">
      <path
         inkscape:connector-curvature="0"
         id="path2880"
         style="fill:#ffffff;fill-opacity:1;fill-rule:evenodd;stroke:none"
         d="m 0,0 1.173,0 0,2.32 c 0,0.494 0.167,1.064 1.08,1.064 0.109,0 0.234,0 0.335,-0.016 l 0,1.189 C 2.513,4.565 2.437,4.573 2.362,4.573 1.65,4.573 1.382,4.139 1.14,3.686 l -0.017,0 0,0.77 L 0,4.456 0,0 z" />
    </g>
    <path
       inkscape:connector-curvature="0"
       id="path2882"
       style="fill:#ffffff;fill-opacity:1;fill-rule:evenodd;stroke:none"
       d="m 460.36284,290.24706 -1.46625,0 0,1.3625 1.46625,0 0,-1.3625 z m -1.46625,7.59125 1.46625,0 0,-5.57 -1.46625,0 0,5.57 z" />
    <g
       transform="matrix(1.25,0,0,-1.25,462.24834,294.49893)"
       id="g2884">
      <path
         inkscape:connector-curvature="0"
         id="path2886"
         style="fill:#ffffff;fill-opacity:1;fill-rule:evenodd;stroke:none"
         d="M 0,0 C 0.067,0.586 0.36,0.939 0.912,0.939 1.29,0.939 1.75,0.72 1.817,0 L 0,0 z M 1.767,-1.365 C 1.675,-1.683 1.34,-1.851 1.013,-1.851 0.067,-1.851 0,-1.097 -0.033,-0.762 l 3.056,0 0,0.21 c 0,2.034 -1.214,2.453 -2.094,2.453 -1.951,0 -2.135,-1.716 -2.135,-2.253 0,-1.834 0.963,-2.435 2.219,-2.435 0.762,0 1.65,0.351 1.96,1.422 l -1.206,0 z" />
    </g>
    <g
       transform="matrix(1.25,0,0,-1.25,471.29134,293.96431)"
       id="g2888">
      <path
         inkscape:connector-curvature="0"
         id="path2890"
         style="fill:#ffffff;fill-opacity:1;fill-rule:evenodd;stroke:none"
         d="m 0,0 c -0.092,1.256 -1.13,1.474 -2.001,1.474 -1.39,0 -1.801,-0.838 -1.801,-1.492 0,-1.665 2.763,-1.104 2.763,-1.849 0,-0.169 -0.142,-0.46 -0.744,-0.46 -0.738,0 -0.971,0.275 -0.971,0.651 l -1.207,0 c 0.034,-1.187 1.13,-1.539 2.144,-1.539 0.695,0 1.951,0.234 1.951,1.532 0,1.641 -2.789,1.131 -2.789,1.834 0,0.192 0.084,0.435 0.721,0.435 0.636,0 0.737,-0.302 0.787,-0.586 L 0,0 z" />
    </g>
  </g>
</svg>
