<?xml version="1.0" encoding="UTF-8"?>
<svg version="1.1" viewBox="0 0 157.12 76" xmlns="http://www.w3.org/2000/svg">
 <defs>
  <clipPath id="a">
   <path d="m0 57h117.84v-57h-117.84z"/>
  </clipPath>
 </defs>
 <g transform="matrix(1.333333 0 0 -1.333333 0 76)">
  <path d="m0 44.22h12.24v12.78h-12.24z" fill="#c7c8ca"/>
  <path d="m18.24 44.22h12.24v12.78h-12.24z" fill="#c7c8ca"/>
  <g clip-path="url(#a)">
   <g transform="translate(105.78,57.0002)">
    <path d="m0 0h-45.06c-5.49-0.306-10.973-5.85-11.88-11.101l-0.12-0.599v11.7h-12.3v-12.78h81.42l-0.06 1.2c-0.748 6.157-4.997 11.078-11.28 11.519l-0.72 0.061" fill="#c7c8ca"/>
   </g>
   <g transform="translate(69.2399,34.8596)">
    <path d="m0 0h-32.82v-20.399c-0.312-3.083-5.593-3.048-5.94 0v20.399h-12.24v-20.399c-0.427-3.006-5.418-3.142-6 0v20.399h-12.24v-20.399c0.084-11.827 14.968-18.621 24.3-11.46l0.06 0.12 0.12-0.12c7.679-5.654 17.914-2.789 22.68 5.16l0.54 1.139v-9.299h21.54l0.6 0.059c7.741 0.945 12.73 6.348 13.44 14.101l0.12 1.319v1.38c0.16 8.701-3.829 16.366-12.9 17.881l-0.72 0.119zm-1.92-22.68h-18.78l0.12 1.14 0.06 1.141v18.839l0.12-0.719 0.12-0.781c2.334-8.363 11.493-10.403 19.14-10.5l0.36-0.059 0.36-0.12c3.987-1.49 3.631-7.91-0.72-8.88l-0.42-0.061h-0.36" fill="#c7c8ca"/>
   </g>
   <g transform="translate(83.4001,34.8596)">
    <path d="m0 0v-34.8h12.3v21.3h10.08c6.498 0.045 11.291 6.218 12 12.301l0.059 1.199h-34.439" fill="#c7c8ca"/>
   </g>
   <g transform="translate(1.5598,35.76)">
    <path d="m0 0-1.44 7.26h1.2l0.96-4.98 1.08 4.98h1.38l1.08-5.04 0.84 5.04h1.26l-1.44-7.26h-1.32l-1.14 5.4-1.2-5.4" fill="#c7c8ca"/>
   </g>
   <g transform="translate(13.1398,35.76)">
    <path d="m0 0h-1.26l-0.54 1.68h-2.34l-0.48-1.68h-1.26l2.28 7.26h1.26zm-2.16 2.88-0.84 2.7-0.78-2.7" fill="#c7c8ca"/>
   </g>
   <g transform="translate(13.32,38.1604)">
    <path d="m0 0 1.14 0.119 0.06-0.359 0.12-0.24 0.12-0.241c0.363-0.554 1.107-0.732 1.68-0.359l0.12 0.12 0.18 0.119 0.12 0.24v0.54l-0.06 0.18-0.3 0.301-0.42 0.18-0.66 0.179-0.66 0.301-0.48 0.239-0.3 0.3c-1.978 2.784 2.34 4.813 3.78 2.101l0.12-0.42 0.06-0.481-1.2-0.12-0.06 0.301-0.12 0.239-0.06 0.12-0.12 0.181-0.18 0.06-0.12 0.059-0.24 0.061-0.18 0.059-0.42-0.059-0.18-0.12h-0.18l-0.12-0.121v-0.179l-0.06-0.061-0.06-0.179 0.06-0.121v-0.12l0.18-0.239 0.36-0.24 0.72-0.181 0.78-0.3 0.3-0.12 0.18-0.179 0.24-0.121 0.12-0.179 0.18-0.18 0.12-0.24 0.06-0.24 0.06-0.241 0.06-0.599v-0.481l-0.12-0.42-0.18-0.359-0.24-0.36c-0.982-0.912-3.019-0.825-3.78 0.36l-0.18 0.42-0.18 0.479-0.06 0.601" fill="#c7c8ca"/>
   </g>
   <g transform="translate(18.9001,35.76)">
    <path d="m0 0v7.26h1.2v-2.88h2.34v2.88h1.2v-7.26h-1.2v3.18h-2.34v-3.18" fill="#c7c8ca"/>
   </g>
   <path d="m24.6 35.76h1.2v7.26h-1.2z" fill="#c7c8ca"/>
   <g transform="translate(26.76,35.76)">
    <path d="m0 0v7.26h1.14l2.46-4.8v4.8h1.08v-7.26h-1.2l-2.34 4.74v-4.74" fill="#c7c8ca"/>
   </g>
   <g transform="translate(35.2199,38.4602)">
    <path d="m0 0v1.2h2.64v-2.82l-0.3-0.3c-2.055-1.62-4.645-0.946-5.16 1.8l-0.12 0.54v0.54c-0.25 3.024 3.101 5.256 5.16 2.519l0.18-0.479 0.12-0.42-1.2-0.3-0.12 0.3-0.06 0.18-0.12 0.24-0.18 0.12-0.18 0.18h-0.18l-0.48 0.12-0.36-0.061-0.3-0.059-0.6-0.481-0.18-0.299-0.18-0.42-0.06-0.54c-0.212-1.816 0.632-3.953 2.76-2.76l0.3 0.3v0.9" fill="#c7c8ca"/>
   </g>
   <g transform="translate(40.0202,35.76)">
    <path d="m0 0v6h-1.74v1.26h4.679v-1.26h-1.739v-6" fill="#c7c8ca"/>
   </g>
   <g transform="translate(43.1999,39.3596)">
    <path d="m0 0v0.66l0.061 0.481c0.634 3.685 5.114 3.461 5.639-0.241v-0.9l-0.06-0.779-0.06-0.42c-0.394-1.286-0.63-1.791-1.86-2.401h-0.24l-0.66-0.059c-1.199-0.085-2.104 0.68-2.52 1.739l-0.12 0.36-0.18 0.72zm1.2 0.061v-0.601l0.12-0.54c0.64-2.086 2.907-1.732 3.12 0.54l0.06 0.601-0.06 0.599-0.12 0.481-0.06 0.479-0.239 0.3-0.481 0.48-0.72 0.121c-0.828-0.056-0.891-0.291-1.38-0.96l-0.12-0.42-0.12-0.481v-0.599" fill="#c7c8ca"/>
   </g>
   <g transform="translate(49.6198,35.76)">
    <path d="m0 0v7.26h1.2l2.401-4.8v4.8h1.079v-7.26h-1.14l-2.399 4.74v-4.74" fill="#c7c8ca"/>
   </g>
   <g transform="translate(58.5603,38.1604)">
    <path d="m0 0 1.2 0.119 0.06-0.359 0.12-0.24 0.059-0.241c0.374-0.485 1.156-0.781 1.681-0.359l0.239 0.12 0.12 0.119 0.061 0.24 0.06 0.121 0.06 0.24-0.06 0.179-0.121 0.18-0.059 0.181-0.601 0.3-0.719 0.179-0.661 0.301-0.419 0.239-0.36 0.3-0.24 0.36c-0.279 0.939-0.259 1.75 0.42 2.46l0.18 0.18 0.24 0.061 0.479 0.24 0.301 0.059h0.359l0.481-0.059 0.479-0.12 0.361-0.12 0.3-0.3 0.24-0.3 0.24-0.36 0.06-0.42 0.06-0.481-1.141-0.12-0.059 0.301-0.061 0.239-0.12 0.12-0.119 0.181-0.12 0.06-0.24 0.059-0.12 0.061-0.241 0.059-0.42-0.059-0.24-0.12h-0.059l-0.18-0.121-0.061-0.179-0.059-0.061v-0.3l0.059-0.12 0.181-0.239 0.119-0.12 0.301-0.12 0.66-0.181 0.779-0.3 0.3-0.12 0.241-0.179c2.915-2.753-2.117-6.026-3.72-2.64l-0.18 0.479-0.12 0.601" fill="#c7c8ca"/>
   </g>
   <g transform="translate(65.5202,35.76)">
    <path d="m0 0v6h-1.74v1.26h4.679v-1.26h-1.799v-6" fill="#c7c8ca"/>
   </g>
   <g transform="translate(73.5603,35.76)">
    <path d="m0 0h-1.261l-0.599 1.68h-2.34l-0.481-1.68h-1.259l2.28 7.26h1.32zm-2.221 2.88-0.779 2.7-0.78-2.7" fill="#c7c8ca"/>
   </g>
   <g transform="translate(74.5202,35.76)">
    <path d="m0 0v6h-1.8v1.26h4.68v-1.26h-1.74v-6" fill="#c7c8ca"/>
   </g>
   <g transform="translate(78.4196,35.76)">
    <path d="m0 0v7.26h4.38v-1.26h-3.18v-1.56h2.941v-1.26h-2.941v-1.92h3.3v-1.26" fill="#c7c8ca"/>
   </g>
   <g transform="translate(86.82,35.76)">
    <path d="m0 0v7.26h1.92l0.9-0.06 0.48-0.06 0.3-0.06 0.18-0.18 0.24-0.18 0.18-0.3 0.24-0.6 0.06-0.42v-0.78l-0.06-0.36c-0.23-0.885-0.992-1.611-1.98-1.44l-0.54-0.06h-0.72v-2.76zm1.2 6v-2.04h0.66c1.903-0.251 1.776 2.043 0.54 2.04h-0.6" fill="#c7c8ca"/>
   </g>
   <g transform="translate(96.6003,35.76)">
    <path d="m0 0h-1.261l-0.54 1.68h-2.34l-0.479-1.68h-1.26l2.279 7.26h1.261zm-2.16 2.88-0.78 2.7-0.84-2.7" fill="#c7c8ca"/>
   </g>
   <g transform="translate(97.6198,35.76)">
    <path d="m0 0v6h-1.8v1.26h4.68v-1.26h-1.739v-6" fill="#c7c8ca"/>
   </g>
   <g transform="translate(101.5202,35.76)">
    <path d="m0 0v7.26h2.52l0.78-0.06c0.698-0.019 1.133-0.441 1.32-1.08l0.12-0.24 0.06-0.3c0.049-0.771-0.106-1.795-0.901-2.1l-0.299-0.18-0.36-0.12 0.36-0.24 0.299-0.3 0.301-0.48 0.42-0.72 0.72-1.44h-1.441l-0.899 1.62c-0.484 0.554-0.516 1.507-1.561 1.44h-0.299v-3.06zm1.14 4.2h0.96l0.66 0.06h0.36l0.18 0.12 0.179 0.18 0.061 0.24v0.66l-0.061 0.24-0.179 0.18-0.24 0.12h-1.92" fill="#c7c8ca"/>
   </g>
   <g transform="translate(106.8601,39.3596)">
    <path d="m0 0v1.141c0.831 3.766 5.179 3.386 5.64-0.241l0.06-0.9-0.06-0.779c-0.19-3.383-4.542-4.078-5.46-0.781l-0.18 0.72zm1.2 0.061v-0.601l0.12-0.54c0.714-2.204 2.919-1.559 3.119 0.54v1.2c-0.196 2.374-2.779 2.423-3.119 0.481l-0.12-0.481v-0.599" fill="#c7c8ca"/>
   </g>
   <g transform="translate(113.5202,35.76)">
    <path d="m0 0v7.14h1.14v-5.88h3v-1.26" fill="#c7c8ca"/>
   </g>
   <g fill="#87a0c4">
    <path d="m1.62 45.96h8.94v9.3h-8.94z"/>
    <path d="m19.92 45.96h8.94v9.3h-8.94z"/>
    <path d="m38.16 45.96h8.94v9.3h-8.94z"/>
   </g>
   <g transform="translate(1.6198,33.1799)">
    <path d="m0 0h8.94v-18.479c-0.064-5.714 9.432-5.676 9.36 0v18.479h8.94v-18.479c-0.52-5.22 9.252-6.155 9.3 0l-0.06 18.479h9v-18.479l-0.06-0.541c-0.471-5.225-4.764-9.898-9.54-11.7l-0.66-0.18-0.6-0.18c-3.394-0.855-9.058 5e-3 -11.46 2.82l-0.3 0.42-0.12 0.12-0.06-0.12-0.36-0.42c-2.554-2.933-8.324-3.798-11.88-2.64l-0.6 0.18-0.6 0.24c-4.481 1.674-8.865 6.52-9.18 11.46l-0.06 0.541v18.479" fill="#01426a"/>
   </g>
   <g transform="translate(50.4001,46.0198)">
    <path d="m0 0 0.06 0.42 0.18 0.66c1.408 3.54 5.249 7.369 9.12 8.101l0.48 0.059h45.54c1.176 0.029 3.282-0.542 4.26-1.2l0.78-0.54 0.72-0.479c1.369-1.16 2.667-2.692 3.18-4.441l0.3-0.84 0.12-0.9 0.12-0.84h-64.86" fill="#87a0c4"/>
   </g>
   <g transform="translate(50.4001,33.1799)">
    <path d="m0 0h16.979c8.665 0.044 13.793-6.341 14.281-14.58l0.06-0.899v-0.841c0.169-8.043-5.274-14.774-13.56-15.06h-18.72v8.7h18.66c5.303 0.413 6.685 7.602 3.42 11.04l-0.42 0.36-0.54 0.301-0.48 0.239-0.6 0.24-0.66 0.18-0.72 0.12-0.721 0.06h-1.679l-1.56 0.12-1.56 0.24-1.5 0.301-1.38 0.359-1.321 0.42-1.319 0.54-1.08 0.6c-2.328 1.265-4.253 3.316-5.16 5.82l-0.18 0.54-0.24 1.2" fill="#01426a"/>
   </g>
   <g transform="translate(85.1403,33.1799)">
    <path d="m0 0h30.12l-0.12-0.9c-0.49-4.344-4.837-9.098-9.36-9.18h-11.701v-21.3h-8.939" fill="#01426a"/>
   </g>
  </g>
 </g>
</svg>
