<svg width="225.1" height="228" viewBox="0 0 180.15 182.5" xmlns="http://www.w3.org/2000/svg">
 <path d="m87.899 1.0052c-1.564 0.0425-2.8589 0.53387-3.8349 1.4774l-0.003127 0.0015634c-0.959 0.943-1.4257 2.1614-1.3867 3.5895 0.052 1.9072 1.2638 3.3406 3.4878 4.207h0.003127l1.9761 0.76761h0.001563c0.856 0.338 1.445 0.70665 1.765 1.0646h0.001563c0.367 0.403 0.5647 0.94579 0.5847 1.6728 0.028 1.042-0.24576 1.8381-0.82076 2.4451-0.561 0.592-1.3024 0.90007-2.2794 0.92707-1.81 0.049-3.0309-0.77955-3.8099-2.6046l-0.50653 0.092238c-0.04 0.832-0.18925 1.6666-0.45025 2.5076l-0.056281 0.17822 0.15321 0.111c1.168 0.86 2.5979 1.266 4.2539 1.221 1.786-0.047999 3.2403-0.58382 4.3133-1.6118v-0.001564c0.536-0.522 0.93484-1.1239 1.1928-1.7979 0.258-0.674 0.37688-1.4209 0.35488-2.2309-0.029-1.073-0.31704-1.9685-0.87704-2.6515-0.557-0.6802-1.426-1.2382-2.592-1.7009l-1.9761-0.79106c-1.592-0.6425-2.3219-1.4991-2.3529-2.6405-0.023-0.868 0.1951-1.5197 0.6441-2.0089 0.466-0.5069 1.0836-0.77159 1.9135-0.79419 1.288-0.0351 2.3147 0.49905 3.1627 1.6618l0.33143 0.45337 0.13601-0.54561c0.186-0.7353 0.39227-1.3477 0.61127-1.8338l0.10474-0.23607-0.23294-0.111c-1.226-0.58-2.501-0.85337-3.813-0.81764zm5.4921 0.13132c0.017 0.6751-0.052123 1.3493-0.22512 2.0027 1.713-0.1488 3.4311 0.022373 5.1341 0.20167-0.537 5.0968-1.1218 10.188-1.7728 15.272 0.927-5e-3 1.865 0.071418 2.764 0.30642 0.444-4.938 0.84241-9.886 1.5524-14.794 0.04-0.2091 0.07973-0.50184 0.07973-0.50184 0.32 0.0282 0.68028 0.074778 1.0803 0.12038 1.32 0.1635 2.6306 0.37636 3.9006 0.77386-0.09-0.6765-0.05113-1.3729 0.21887-2.0073-4.26-0.3649-8.503-0.80039-12.732-1.3742zm20.849 3.2127c-4.01 4.907-8.1011 9.7476-12.241 14.553 0.74 0.061 1.5215 0.12871 2.1215 0.60971 1.34-1.895 2.7286-3.7652 4.2086-5.5562 1.81 0.458 3.6011 0.97498 5.3811 1.554 0.29 2.292 0.48968 4.5969 0.55968 6.9069 1.03 0.051 2.01 0.39286 2.9 0.88486-0.81-6.232-1.5296-12.474-2.1496-18.727-0.26-0.0756-0.52011-0.15012-0.78011-0.22512zm-57.208 2.9391-0.26108 0.20324c-0.251 0.1935-0.45001 0.32538-0.58001 0.38928-0.112 0.0554-0.35088 0.13927-0.68788 0.23607l-0.3158 0.092238 0.1579 0.28766c1.389 2.5194 2.9541 5.534 4.6901 9.044 0.096 0.194 0.37009 0.78616 0.61909 1.3242-5.782-1.991-11.013-3.9438-15.546-5.8548l-0.111-0.048464-0.75041 0.37208 1.2444 2.5154c2.268 4.585 4.2663 8.8558 5.9923 12.815l0.1407 0.32362 0.27046-0.22825c0.24-0.204 0.45234-0.34805 0.62534-0.43305 0.204-0.102 0.44202-0.18094 0.71602-0.23294l0.35019-0.065661-0.16728-0.3158c-1.83-3.447-3.2881-6.2662-4.3711-8.4562-0.241-0.487-0.64803-1.3458-1.074-2.2528l7.3149 2.6858c3.746 1.374 6.5905 2.5151 8.5265 3.4191l0.11569 0.054718 0.63003-0.31267-0.12038-0.23919c-1.035-2.021-1.8556-3.6404-2.4576-4.8573-1.708-3.452-3.3126-6.8388-4.8136-10.162l-0.13758-0.30329zm65.908 0.092238-0.111 0.27984c-0.11 0.2986-0.1989 0.52608-0.2689 0.67068-0.06 0.1287-0.16987 0.31828-0.32987 0.55968l-0.19073 0.30016 0.34081 0.093801c1 0.2781 2.3594 0.83423 4.0694 1.6712l0.35019 0.17197-1.6509 3.3831c-1.37 2.8-3.0594 6.168-5.0794 10.104l-0.12976 0.2689 0.27985 0.098491c0.24 0.085 0.59025 0.23637 1.0302 0.45337 0.45 0.216 0.76019 0.38984 0.93019 0.50184l0.25014 0.17353 0.12976-0.27984c1.55-3.357 2.9702-6.3482 4.2602-8.9752 0.94-1.941 1.7191-3.4277 2.3591-4.5697l0.39084 0.19698c1.59 0.772 2.8092 1.477 3.6692 2.109l0.30954 0.22981 0.10006-0.37364c0.06-0.221 0.14076-0.43216 0.24076-0.63316 0.1-0.216 0.21924-0.39818 0.33924-0.54718l0.21106-0.26264-0.31111-0.14227c-2.03-0.938-3.9591-1.8539-5.7891-2.7499-1.8-0.8821-3.5203-1.7463-5.1403-2.5936l-0.25951-0.13914zm-10.081 0.97866c0.22 1.8109 0.47066 3.6178 0.62066 5.4358-1.36-0.408-2.7501-0.74559-4.1101-1.1866 1.16-1.417 2.3294-2.8325 3.4894-4.2492zm23.66 6.0267c-2.63 4.295-5.479 8.4515-8.439 12.522-0.32 0.517-0.93092 1.0761-1.1209 1.5571 2.54 1.645 5.051 3.3393 7.501 5.1153 0.37-0.557 0.73936-1.1056 1.1194-1.6556-1.84-1.068-3.6805-2.1563-5.4405-3.3643 1.21-1.806 2.4101-3.6168 3.6301-5.4108 1.57 1.095 3.221 2.1021 4.601 3.4331 0.29-0.614 0.66874-1.174 1.1287-1.679-1.64-0.964-3.2592-1.9609-4.8292-3.0329 1.04-1.526 2.0902-3.0371 3.1502-4.5431 1.74 1.172 3.4203 2.4201 5.0403 3.7521 0.36-0.542 0.72904-1.0784 1.099-1.6134-2.5-1.66-5.05-3.2529-7.44-5.0809zm-99.001 5.4983c-1.976 0.096-3.8948 0.94995-5.7328 2.5279-2.077 1.783-3.2477 3.842-3.4707 6.144-0.22 2.28 0.54856 4.4481 2.2716 6.4551 1.743 2.03 3.7707 3.132 6.0377 3.258 2.266 0.125 4.4729-0.73896 6.5849-2.553 2.053-1.763 3.2143-3.8117 3.4363-6.1127v-0.001563c0.211-2.312-0.54886-4.4784-2.2419-6.4504-1.733-2.019-3.7601-3.1232-6.0361-3.2612-0.284-0.017-0.5659-0.019253-0.8489-0.006253zm-0.71602 1.9511c0.198 8e-3 0.3972 0.026844 0.5972 0.057844 1.599 0.251 3.197 1.2778 4.787 3.1298 1.568 1.826 2.3307 3.5557 2.3357 5.1997 5e-3 1.645-0.72667 3.096-2.2497 4.404-1.536 1.32-3.0823 1.8319-4.6963 1.5899-1.601-0.252-3.1769-1.2512-4.7229-3.0532-1.579-1.838-2.3498-3.5844-2.3638-5.2404v-0.003127c-0.025-1.67 0.69484-3.1314 2.2168-4.4384 1.355-1.163 2.706-1.6982 4.096-1.6462zm-12.716 8.0106c-2.566 3.384-5.1907 6.7263-7.9247 9.9773 0.58 0.343 1.107 0.76338 1.568 1.2554 0.782-1.521 1.843-2.8741 2.9-4.2101 3.998 3.163 7.9711 6.3564 11.897 9.6084 0.486-0.785 1.0541-1.5301 1.7291-2.1621-4.044-3.107-8.1384-6.1582-11.989-9.5052 1.041-1.316 2.1166-2.619 3.3956-3.713-0.622-0.285-1.1819-0.68169-1.5759-1.2507zm131.7 0.18291-0.25952 0.20949c-1.34 1.103-2.5204 2.052-3.5504 2.85-0.78 0.61-1.6192 1.2439-2.5092 1.8979h-0.01095v0.003127c-0.88999 0.668-1.3598 1.0238-1.4398 1.0928-2.02 1.563-3.1803 3.1751-3.4503 4.8511h-0.00939c-0.25999 1.669 0.39948 3.4748 1.8995 5.3998 1.76 2.269 3.8306 3.2964 6.1205 2.9844 0.94-0.14 2.0497-0.63712 3.3597-1.4711v-0.003127c0.87-0.568 2.3308-1.6512 4.4008-3.2612l0.48933-0.38459c0.67-0.518 1.8494-1.3846 3.5394-2.5936l0.2814-0.20793-0.2814-0.21574c-0.18-0.135-0.34904-0.30604-0.51904-0.51903-0.14-0.186-0.26081-0.38508-0.34081-0.59408l-0.13914-0.32205-0.27046 0.222c-1.79 1.471-3.7601 3.0403-5.9001 4.7073-1.39 1.082-2.4195 1.8084-3.0595 2.1684v0.00469c-0.95999 0.548-1.8195 0.80106-2.5795 0.79106-1.36-0.019-2.5301-0.66366-3.5801-2.0027-1.03-1.328-1.3703-2.6105-1.0803-3.9115v-0.001563c0.17-0.759 0.58883-1.502 1.2788-2.234v-0.001563-0.00469c0.41-0.452 1.0911-1.056 2.0511-1.801l7.2602-5.5202-0.26108-0.21105c-0.24-0.187-0.48885-0.44386-0.74885-0.77386-0.23-0.293-0.4103-0.57859-0.5503-0.85359l-0.1407-0.29391zm-63.072 2.1824c-1.4702-0.028906-2.9534 0.14095-4.4509 0.59095-6.7 0.29-13.781 1.3398-19.361 5.3498-5.58 5.17-11.2 10.579-14.76 17.389-3.53 6.58-0.55017 14.68-3.7302 21.29-3.4 3.23-2.6999 8.6214-0.3799 12.261 1.14 2.07 4.2291 1.6699 5.1591 3.8599 0.99 2.03 0.53981 4.679 2.4998 6.219 0.26 5.49-2.839 10.28-4.959 15.11-2.12 0.05-4.0711-0.79934-5.9611-1.6493-3.01 1.2-5.149 7.6604-0.46901 7.6604-3.45 1.37-3.3702 6.9189 0.70976 7.1289-1.32 3.06-0.72932 7.3712 2.9407 8.3812 3.45-1.04 1.8691-6.4312 5.6891-6.6912 2.58-1.75 0.98052-5.7496 3.2205-7.8996 2.52-3.04 3.5792-7.5299 7.0492-9.5599-0.53 9.18-9.0495 16.56-8.2295 25.85 7.06 1.12 13.1-4.9207 20.25-4.6807 13.77-0.06 27.124 5.611 38.054 13.731 2.77 1.24 4.7305-2.37 3.1205-4.49-3.07-5.15-6.8906-9.8109-10.231-14.791 1.25-4.89 2.7809-9.7296 3.3909-14.76 3.14-2.43 8.0395-1.2803 11.559-3.4003 2.04-1.49 5.1708 0.18092 6.5208-2.3091 2.77-3.38-2.5108-6.5308-0.82077-10.001 0.97-2 1.6406-4.0189-0.53935-5.4389 2.07-2.26-1.6003-4.541-0.02033-6.871 1.89-0.79 4.1395-0.2895 5.9095-1.3695 1.33-0.89 0.83979-2.8203 0.17979-3.9803-2.6-4.6-5.7189-8.9097-9.4489-12.64-1.71-3.54 0.03925-7.9696-2.5108-11.28-3.68-5.2-6.9806-11.331-12.981-14.141-1.7-1.66-2.1094-4.5495-4.5494-5.4295-4.155-1.4775-8.4417-3.3542-12.852-3.4409zm-76.309 9.3583c-2.846 1.549-4.7237 4.4791-5.5937 7.5401-0.817 2.893-0.081326 6.2421 2.1387 8.3311 2.179 2.055 5.3369 3.3737 8.3389 2.6077 2.876-0.682 4.9538-3.0809 6.1628-5.6609 0.88-1.803 1.4672-3.737 1.8682-5.7-2.037-0.853-3.917-2.0291-5.836-3.1111-0.255 0.826-0.66886 1.5879-1.2179 2.2559 1.664 0.787 3.2901 1.6528 4.8761 2.5858-0.253 2.719-1.6919 5.566-4.3149 6.663-2.343 1.02-5.0405 0.3058-7.0945-1.0412-2.103-1.246-3.6906-3.5793-3.5066-6.0893 0.182-2.044 1.3264-3.9743 2.9344-5.2263 0.979-0.749 2.2074-1.0328 3.4144-1.1178-0.763-0.636-1.4949-1.3081-2.1699-2.0371zm151.33 4.4806-2.5592 1.196c-4.65 2.184-8.9909 4.1033-13.001 5.7563l-0.32987 0.13445 0.22043 0.27359c0.2 0.246 0.34992 0.46029 0.42992 0.63629 0.1 0.208 0.16887 0.45152 0.21887 0.72852l0.05003 0.35019 0.32049-0.16102c3.5-1.767 6.3706-3.1734 8.5906-4.2164 0.5-0.232 1.3703-0.62238 2.2903-1.0334l-2.85 7.2993c-1.46 3.736-2.6714 6.572-3.6114 8.5l-0.05941 0.11412 0.30016 0.63629 0.2392-0.11412c2.05-0.999 3.7008-1.79 4.9308-2.37 3.51-1.645 6.9497-3.1854 10.32-4.6244l0.30017-0.12976-0.19073-0.26733c-0.19-0.256-0.3199-0.46151-0.3799-0.59251-0.06-0.114-0.13981-0.35413-0.22981-0.69413l-0.07973-0.31892-0.28922 0.15477c-2.56 1.343-5.631 2.8477-9.191 4.5197-0.2 0.092-0.79917 0.3572-1.3492 0.5972 2.12-5.772 4.1996-10.988 6.2096-15.505l0.05003-0.10787-0.3502-0.76136zm-161.44 13.223-0.025014 0.3283c-0.0243 0.316-0.061055 0.552-0.10005 0.691-0.0338 0.12-0.12917 0.35568-0.28297 0.67068l-0.14383 0.29547 0.31892 0.073478c2.8013 0.655 6.087 1.5148 9.857 2.5748 0.208 0.059 0.83264 0.25336 1.3976 0.42836-5.349 2.962-10.303 5.5344-14.757 7.6214l-0.10943 0.053154-0.22669 0.80669 2.7015 0.75979c4.9242 1.385 9.4349 2.7624 13.532 4.1304l0.33143 0.10944 0.012507-0.35332c8e-3 -0.315 0.043365-0.56754 0.095365-0.75354 0.062-0.22 0.16242-0.44831 0.30642-0.68631l0.18604-0.30642-0.3455-0.084421c-3.786-0.948-6.8541-1.756-9.2066-2.4169-0.524-0.147-1.4349-0.42189-2.3951-0.71289l6.8944-3.6317c3.528-1.863 6.2803-3.212 8.2483-4.046l0.11569-0.050028 0.19073-0.6785-0.25639-0.068788c-2.194-0.583-3.9449-1.0588-5.2529-1.4258-3.708-1.043-7.2991-2.1199-10.773-3.2299l-0.31423-0.098492zm168.92 5.6625c-3.53 1.209-7.1399 2.1549-10.72 3.1689-1.91 0.524-3.8304 1.0357-5.7704 1.4367 0.46 0.829 0.74041 1.7494 0.75041 2.6984 2.85-1.109 5.8389-1.7548 8.7689-2.6108 2.56-0.704 5.1099-1.4842 7.7198-2.0042-0.44-0.83-0.70884-1.748-0.74884-2.689zm1.4696 4.1398c-5.24 3.224-10.551 6.3223-15.901 9.3583 0.31 0.577 0.42078 1.2435 0.29078 1.8885 6.04 1.316 12.05 2.7249 18.04 4.2289-0.33-0.677-0.5496-1.435-0.4096-2.195-4.8-0.879-9.5594-1.9131-14.309-3.0501 4.19-2.513 8.4092-4.9596 12.699-7.2946-0.36-0.934-0.4596-1.942-0.4096-2.936zm-174.78 8.6907c0.0873 0.931-0.020592 1.8808-0.35019 2.7578 3.5425 0.234 7.0603 0.73626 10.582 1.1663 2.114 0.272 4.2255 0.55303 6.3175 0.96303-0.09-0.901 0.023136-1.9326 0.36114-2.7796-0.214 0.017-0.63001 0.009239-0.93801-0.018761-2.728-0.17-5.4232-0.64165-8.1341-0.95365-2.6172-0.345-5.2483-0.608-7.8371-1.135h-0.0015634zm16.107 8.1607c-5.661 0.445-11.337 0.756-17.017 0.691 0.2546 0.923 0.28209 1.9033 0.11569 2.8453 2.348-0.296 4.7118-0.43672 7.0758-0.52372 0.1548 3.124 0.27805 6.25 0.36895 9.377-2.364 0.069-4.7341 0.24493-7.0976 0.096928 0.2523 0.916 0.28805 1.8872 0.11725 2.8172 4.1884-0.43 8.4038-0.53036 12.61-0.65036 1.471-0.03 2.9424-0.04 4.4134 0-0.257-0.91-0.28212-1.8772-0.11412-2.8062-2.772 0.316-5.568 0.34551-8.353 0.48151-0.213-3.121-0.33682-6.248-0.37052-9.377 2.7873-0.118 5.5787-0.19282 8.3686-0.11882-0.253-0.92-0.28425-1.8938-0.11725-2.8328zm143.88 1.6259c0.03 3.043-0.02008 6.089-0.15008 9.13 0.67 4e-3 1.3295 0.017831 1.9995 0.032831-0.12-2.13-0.21978-4.2648-0.17978-6.3988 2.17 0.018 4.3492 0.022534 6.5192 0.062534-0.05 1.833-0.01017 3.6802-0.30017 5.4952l-0.05003 0.22981c0.59-0.096 1.3308-0.084986 2.0308 0.025014-0.11-1.726-0.16037-3.8136-0.12037-5.7016 1.84 0.029 3.6896 0.078139 5.5296 0.13914-0.03 2.093-0.14895 4.1855-0.36895 6.2675 0.64999 7e-3 1.2995 0.01383 1.9495 0.03283 0.02-3.002-0.06054-6.0079 0.15946-9.0049-4.8 0.162-9.6095 0.064425-14.409-0.13758-0.87-0.044-1.7392-0.09897-2.6092-0.17197zm-0.48464 11.977-0.00938 0.33612c0 0.427-0.04005 0.79653-0.10005 1.0865-0.06 0.31-0.16049 0.64993-0.32049 1.0099l-0.12976 0.32049 0.33925 0.05003c1.47 0.20999 2.6701 0.40876 3.5801 0.59876l4.0897 0.82076c0 0.07-0.00876 0.18011-0.01876 0.20011-0.05 0.28-0.22063 0.47974-0.57063 0.65974l-3.8302 1.9104c-1.06 0.53-2.6301 1.2399-4.6901 2.1199l-0.15008 0.05941-0.00938 0.17041c-0.03 0.51-0.07947 0.95917-0.15947 1.3492-0.08 0.41-0.21084 0.86012-0.39084 1.3601l-0.22981 0.63004 0.60033-0.30955c4.31-2.24 7.189-3.7094 8.919-4.5494 0.03 1.42 0.29141 2.6294 0.86141 3.5394 0.64 1.03 1.569 1.6798 2.739 1.9198 1.33 0.27 2.4906 8e-4 3.3706-0.81919 0.87-0.81 1.4701-2.1303 1.8401-3.9303 0.11-0.56 0.23895-1.2612 0.36895-2.1012 0.14-0.84 0.24016-1.4094 0.30016-1.6994 0.02-0.11 0.11108-0.47934 0.26108-1.0693l0.06879-0.27984-0.28922-0.04065c-1.98-0.29-4.6798-0.77955-8.0998-1.4696-3.55-0.71-6.22-1.3099-8.02-1.7869l-0.32049-0.085984zm8.6704 4.4728 3.91 0.7895c0.82 0.16 1.5093 0.35968 2.1293 0.55968-0.09 0.64-0.17014 1.2102-0.25014 1.6102-0.27 1.33-0.72886 2.23-1.3288 2.75-0.61 0.51-1.371 0.68057-2.381 0.47057-1.09-0.22-1.7796-0.76061-2.1496-1.6806s-0.40003-2.2503-0.05003-3.9803c0.04-0.23 0.08038-0.36903 0.12038-0.51903zm-154.78 0.2345c-0.37375 0.0225-0.757 0.08292-1.1475 0.18292-1.033 0.26-1.8369 0.74047-2.3779 1.4305-0.538 0.69-0.88997 1.6497-1.085 2.8797l-0.33768 2.0902c-0.276 1.68-0.94673 2.5794-2.0464 2.8594-0.8362 0.21-1.5152 0.14083-2.0871-0.18917-0.5929-0.34-0.98399-0.88061-1.1866-1.6806-0.3144-1.24-0.020219-2.36 0.92238-3.43l0.36739-0.41898-0.55968-0.01094c-0.7534-0.02-1.39-0.09011-1.9089-0.20011l-0.25326-0.05003-0.056281 0.25014c-0.2953 1.32-0.28278 2.6102 0.03752 3.8802 0.3816 1.5 1.1398 2.6494 2.2669 3.3894l0.0031267 0.01095c1.1228 0.72 2.4043 0.90968 3.7802 0.55968 1.8373-0.47 2.964-1.9592 3.319-4.2992l0.31424-2.0808v-0.00938c0.141-0.9 0.37023-1.5501 0.64723-1.9401 0.31-0.43999 0.79301-0.75019 1.493-0.93019 1.005-0.25 1.8368-0.16048 2.5498 0.25951 0.696 0.42 1.1555 1.0705 1.3945 2.0105 0.441 1.74-0.096244 3.1102-1.6962 4.2602l0.19855 0.46901c0.815-0.14 1.6591-0.17944 2.5311-0.10944l0.18448 0.02032 0.073477-0.1704c0.58-1.32 0.66195-2.7999 0.25795-4.3899-0.436-1.73-1.2704-3.0202-2.5014-3.8302h-0.001564c-0.622-0.41-1.2927-0.65917-2.0027-0.76917-0.3545-0.05-0.71904-0.06628-1.0928-0.04378zm144.09 9.4145-0.15947 0.09067c-1.26 0.72-2.21 1.8594-2.85 3.3894-0.67999 1.64-0.78922 3.1906-0.28922 4.5806v0.00938c0.52 1.4 1.5492 2.4301 3.0392 3.0501 0.99 0.41 1.9296 0.50984 2.7796 0.27984s1.7099-0.78966 2.5999-1.6697l1.5305-1.4805c1.24-1.19 2.3206-1.5 3.3706-1.06 0.8 0.33 1.3096 0.79077 1.5696 1.4008 0.27 0.63 0.26059 1.2999-0.05941 2.0699-0.48999 1.19-1.3915 1.9106-2.8015 2.2106l-0.54874 0.10944 0.4393 0.35019c0.6 0.47 1.0695 0.90915 1.4195 1.2992l0.18135 0.20011 0.18917-0.16884c1.03-0.88 1.7997-1.9308 2.2997-3.1408 0.59999-1.45 0.68043-2.8291 0.22043-4.0991v-0.01094c-0.47-1.25-1.3893-2.1802-2.7093-2.7202-1.76-0.73-3.5613-0.20983-5.2513 1.4602l-1.5086 1.4899c-0.66 0.65-1.23 1.0303-1.69 1.1803-0.52 0.17-1.1013 0.12991-1.7713-0.15009-0.96-0.4-1.5701-0.96939-1.8901-1.7494-0.31-0.75-0.28871-1.5498 0.08129-2.4498 0.7-1.67 1.9487-2.4507 3.9287-2.4107l0.12038-0.50027c-0.74-0.38-1.4396-0.84891-2.0996-1.4289l-0.1407-0.13132zm-137.33 1.1194c-4.071 4.75-8.2156 9.4299-12.426 14.05 0.1647 0.22 0.19262 0.65914 0.44712 0.71914 6.268-0.29 12.54-0.47909 18.813-0.61909-0.447-0.58-0.91446-1.2014-0.96146-1.9714-2.295 0.27-4.5963 0.49-6.9053 0.58-0.867-1.64-1.679-3.309-2.431-5.009 1.504-1.74 3.0728-3.4206 4.7338-5.0106-0.648-0.81-1.037-1.739-1.271-2.739zm-4.5822 9.0596c0.608 1.28 1.2803 2.5302 1.8573 3.8302-1.819 0.08-3.6392 0.15919-5.4592 0.23919 1.194-1.37 2.362-2.7494 3.602-4.0694zm135.93 0.52216c-0.29 0.9-0.76924 1.7288-1.4492 2.3888 2.79 1.34 5.3403 3.1013 7.9903 4.6713 2.24 1.37 4.5199 2.6692 6.6599 4.1992 0.3-0.89 0.77923-1.7204 1.4492-2.3904-3.47-1.84-6.7993-3.9295-10.149-5.9595-1.52-0.93-3.0309-1.8794-4.5009-2.9094zm-3.7302 6.0893c-0.43 0.82-0.95994 1.6-1.5899 2.27 4.26 2.87 8.5604 5.6698 12.63 8.7798-0.96 1.39-1.9605 2.7597-3.1705 3.9397 0.63999 0.25 1.2303 0.61001 1.6603 1.16 2.36-3.56 4.7803-7.0789 7.3103-10.509-0.6-0.31-1.1594-0.70001-1.6494-1.16-0.67999 1.57-1.6605 2.9993-2.6405 4.3993-4.21-2.91-8.4006-5.8699-12.551-8.8799zm-118.61 1.4508c-5.578 2.22-11.152 4.4486-16.745 6.6286 0.627 0.39 1.1761 0.93059 1.4461 1.6306 4.174-2.02 8.4435-3.8393 12.769-5.5093-2.366 4.03-4.7999 8.0287-7.3509 11.949 0.425 0.2 1.0371 0.90112 1.2351 1.4711 4.243-1.94 8.7589-3.7908 13.137-5.4108-2.516 3.97-5.1062 7.8908-7.7902 11.741 0.767 0.6 1.3764 1.3694 1.8244 2.2294 3.173-5.04 6.3538-10.07 9.6068-15.06-0.737-0.45-1.1175-1.0593-1.3085-1.5493l-12.641 4.9996c2.291-3.92 4.6447-7.8098 7.1727-11.58-0.619-0.33-1.0744-0.89991-1.3554-1.5399zm110.99 8.07c-0.47 0.81-1.1301 1.4898-1.9401 1.9698 1.88 1.6 3.6701 3.2987 5.3701 5.0887 1.09 3.63 2.0698 7.3104 2.9798 10.99 0.39-0.74 0.92123-1.4404 1.6712-1.8604-1.11-2.78-2.0006-5.6391-2.7406-8.5391 2.96 0.56 5.8895 1.3495 8.7095 2.4295 0.62-0.93 1.45-1.7104 2.37-2.3404-3.82-0.90999-7.6291-1.8597-11.439-2.8297-1.78-1.5-3.4308-3.1689-4.9808-4.9089zm-70.784 21.967c-2.572 0.53-5.1534 1.0498-7.7714 1.2898 0.356 0.48 0.56965 1.0603 0.62065 1.6603l3.9741-1.06c-0.96 4.09-2.1714 8.1092-3.4034 12.119-0.178 0.58-0.36092 1.1497-0.54092 1.7197 0.863 0.06 1.7207 0.27007 2.4857 0.68006 1.093-4.42 2.3317-8.8097 3.6207-13.17 0.324-1.09 0.66262-2.1593 1.0146-3.2393zm34.535 1.16c-0.43-0.01-0.88074 0.03976-1.3507 0.12976-1.88 0.38-3.179 1.3701-3.849 2.9501-0.672 1.57-0.71778 3.7098-0.17978 6.4098 0.54 2.69 1.4096 4.6304 2.6296 5.8204 1.23 1.2 2.8101 1.6104 4.6901 1.2304 1.88-0.38 3.1899-1.3707 3.8599-2.9407 0.68-1.57 0.72917-3.7004 0.18917-6.4004-0.54-2.69-1.409-4.6491-2.639-5.8391-0.92-0.89999-2.0503-1.3501-3.3503-1.3601zm-28.008 0.87236c-1.2719 0.0839-2.5249 0.60498-3.2659 1.6775-0.898 1.31-1.0002 3.3203 0.24076 4.4603 0.297 0.37999 1.1939 0.72895 1.2429 0.94895-1.341 0.31-2.7281 0.95997-3.4081 2.22-0.829 1.54-0.90455 3.5512 0.023451 5.0512 1.072 1.69 3.1873 2.2991 5.0793 2.3591 1.857 0.09 3.7914-0.84046 4.6354-2.5405 0.765-1.56 0.98884-3.5993-0.053154-5.0793-0.532-0.75-1.3285-1.2396-2.1465-1.6196 1.043-0.21 2.1286-0.69969 2.6046-1.7197 0.722-1.39 0.6463-3.3202-0.5847-4.4102-0.836-0.79-1.991-1.1298-3.108-1.2898-0.40975-0.065-0.83611-0.08581-1.2601-0.05784zm27.728 0.30798c0.79 0.05 1.4302 0.43001 1.9902 1.16 0.76 0.98 1.3998 2.6593 1.8698 5.0293 0.54 2.69 0.67931 4.6307 0.43931 5.7907-0.26 1.27-0.98938 1.9897-2.2794 2.2497-1.22 0.25-2.1494-0.12001-2.9094-1.16-0.73-1-1.3613-2.7607-1.8713-5.2607-0.5-2.51-0.59893-4.369-0.31893-5.539 0.3-1.25 1.0191-1.9512 2.259-2.2012 0.29-0.06 0.56077-0.07879 0.82077-0.06879zm-13.892 0.37989c-1.934 0-3.8899 1.0093-4.7979 2.7593-0.81 1.59-0.79804 3.5994 0.035957 5.1794 0.806 1.51 2.5594 2.3103 4.2304 2.1903 1.456-0.02 2.908-0.74891 3.677-2.0089 0.122 2.27-0.34799 4.7198-1.912 6.4598-1.067 1.19-2.9633 1.3303-4.2883 0.50027-0.241-0.07-0.68862-0.57057-0.79262-0.47057 0.076 0.59 0.14387 1.1891 0.10787 1.7791 2.284 0.84 5.083 0.36077 6.774-1.4492 1.959-2.01 2.5964-4.9304 2.5764-7.6604 4e-3 -2.12-0.35763-4.4492-1.9526-5.9892-0.961-0.94-2.3333-1.3398-3.6583-1.2898zm-13.465 0.52998c0.267-0.04 0.53757-0.03062 0.80356 0.00938 0.886 0.06 1.7368 0.67994 1.8838 1.5899 0.177 1.1 0.06115 2.3496-0.63785 3.2596-0.782 0.97-2.3529 0.95982-3.2909 0.22982-0.853-0.79-0.73442-2.0898-0.52842-3.1298 0.161-0.91 0.77072-1.8689 1.7697-1.9589zm13.354 0.59877c1.099-0.1 2.1654 0.57117 2.6014 1.5712 0.538 1.25 0.57288 2.6897 0.24388 3.9897-0.275 1.11-1.2593 2.0199-2.4263 2.0699-1.158 0.15-2.4276-0.36079-2.9516-1.4508-0.596-1.2-0.55242-2.6493-0.19542-3.9193 0.364-1.2 1.3911-2.2906 2.7281-2.2606zm-14.141 6.0705c0.247-0.01 0.4929 6.5e-4 0.7379 0.04065 1.009 0.08 1.9438 0.77942 2.1668 1.7994 0.309 1.29 0.15596 2.6793-0.29704 3.9193-0.387 1.07-1.4084 1.941-2.5874 1.851-1.17 0.01-2.4023-0.63975-2.7453-1.8198-0.397-1.31-0.16809-2.7312 0.29391-3.9912 0.369-1.01 1.324-1.8094 2.431-1.7994z" fill="#4d4d4d"/>
</svg>
