<?xml version="1.0" encoding="UTF-8"?>
<!-- Generator: Adobe Illustrator 16.2.0, SVG Export Plug-In . SVG Version: 6.00 Build 0)  -->
<!DOCTYPE svg PUBLIC "-//W3C//DTD SVG 1.1//EN" "http://www.w3.org/Graphics/SVG/1.1/DTD/svg11.dtd">
<svg version="1.1" id="Layer_1" xmlns="http://www.w3.org/2000/svg" xmlns:xlink="http://www.w3.org/1999/xlink" x="0px" y="0px" width="307.147px" height="196.689px" viewBox="0 0 307.147 196.689" enable-background="new 0 0 307.147 196.689" xml:space="preserve">
<path fill="#414142" d="M307.147,106.684c-1.664,11.637-11.06,21.323-26.598,21.323c-17.419,0-27.683-12.577-27.683-26.672  c0-14.02,10.192-26.67,27.249-26.67c16.334,0,25.512,9.976,26.886,22.189H292.25c-0.868-4.771-5.486-9.114-11.701-9.114  c-8.096,0-13.23,6.73-13.23,13.595c0,7.373,5.641,13.671,13.52,13.671c5.564,0,10.472-4.131,11.411-8.322H307.147z"/>
<path fill="#414142" d="M147.28,104.233V75.559h14.374v28.382c0,7.37,3.721,10.872,9.414,10.872c5.689,0,9.412-3.357,9.412-10.506  V75.559h14.374v28.31c0,16.489-9.412,23.713-23.933,23.713C156.401,127.582,147.28,120.211,147.28,104.233"/>
<polygon fill="#414142" points="219.365,87.962 204.042,87.962 204.042,75.559 248.84,75.559 248.84,87.962 233.519,87.962   233.519,126.632 219.365,126.632 "/>
<polygon fill="#414142" points="146.255,142.535 148.393,142.535 151.324,151.522 154.095,142.535 155.596,142.535 158.368,151.522   161.299,142.535 163.434,142.535 159.162,154.894 157.698,154.894 154.854,146.084 151.994,154.894 150.527,154.894 "/>
<path fill="#414142" d="M163.45,150.78c0-2.418,1.538-4.325,4.096-4.325c1.096,0,2.085,0.493,2.598,1.323v-1.113h1.908v8.228h-1.908  v-1.111c-0.513,0.829-1.643,1.323-2.648,1.323C164.847,155.105,163.45,153.199,163.45,150.78 M170.214,150.78  c0-1.413-0.795-2.614-2.437-2.614c-1.501,0-2.4,1.113-2.4,2.614c0,1.5,0.899,2.614,2.4,2.614  C169.418,153.395,170.214,152.193,170.214,150.78"/>
<path fill="#414142" d="M173.948,152.369h1.925c0,0.707,0.688,1.201,1.677,1.201c0.724,0,1.181-0.389,1.181-0.972  c0-0.459-0.193-0.743-1.076-0.971l-1.642-0.441c-1.147-0.317-1.802-1.147-1.802-2.311c0-1.397,1.325-2.419,3.162-2.419  c2.012,0,3.249,0.97,3.249,2.559h-1.891c0-0.688-0.529-1.095-1.429-1.095c-0.688,0-1.185,0.354-1.185,0.848  c0,0.439,0.267,0.741,1.025,0.953l1.642,0.477c1.166,0.334,1.908,1.183,1.908,2.347c0,1.608-1.254,2.561-3.25,2.561  C175.43,155.106,173.948,153.941,173.948,152.369"/>
<path fill="#414142" d="M190.311,149.721v5.173h-1.924v-4.289c0-1.749-0.458-2.508-1.799-2.508c-1.254,0-1.96,0.828-1.96,2.277v4.52  h-1.923v-12.36h1.923v5.281c0.511-0.883,1.464-1.361,2.682-1.361C189.286,146.455,190.311,147.567,190.311,149.721"/>
<path fill="#414142" d="M192.175,144.053c0-0.793,0.583-1.429,1.429-1.429c0.848,0,1.432,0.636,1.432,1.429  c0,0.796-0.584,1.43-1.432,1.43C192.758,145.483,192.175,144.849,192.175,144.053 M192.651,146.666h1.906v8.228h-1.906V146.666z"/>
<path fill="#414142" d="M196.988,146.667h1.925v1.149c0.511-0.883,1.464-1.361,2.684-1.361c1.977,0,3,1.113,3,3.267v5.173h-1.925  v-4.291c0-1.749-0.458-2.505-1.801-2.505c-1.253,0-1.958,0.828-1.958,2.276v4.52h-1.925V146.667z"/>
<path fill="#414142" d="M215.02,146.666v7.875c0,1.625-0.514,2.843-1.484,3.55c-0.688,0.512-1.642,0.724-2.826,0.724  c-1.094,0-2.137-0.229-2.893-0.743c-0.777-0.529-1.273-1.323-1.308-2.242h2.014c0.157,0.849,0.847,1.396,2.171,1.396  c1.571,0,2.4-0.689,2.4-2.543v-0.899c-0.494,0.829-1.623,1.323-2.63,1.323c-2.561,0-4.043-1.907-4.043-4.325  s1.625-4.325,4.095-4.325c1.094,0,2.084,0.493,2.578,1.323v-1.113H215.02z M213.183,150.78c0-1.413-0.865-2.614-2.436-2.614  c-1.447,0-2.4,1.113-2.4,2.614c0,1.5,0.953,2.614,2.4,2.614C212.318,153.395,213.183,152.193,213.183,150.78"/>
<path fill="#414142" d="M222.116,153.199v1.696c-0.3,0.053-0.866,0.105-1.432,0.105c-0.935,0-2.664-0.123-2.664-2.895v-3.831h-1.396  v-1.607h1.396v-2.488h1.925v2.488h1.888v1.607h-1.888v3.389c0,1.429,0.44,1.606,1.2,1.606  C221.446,153.27,221.921,153.234,222.116,153.199"/>
<path fill="#414142" d="M223.193,150.78c0-2.418,1.625-4.325,4.343-4.325s4.344,1.906,4.344,4.325s-1.625,4.325-4.344,4.325  S223.193,153.199,223.193,150.78 M229.955,150.78c0-1.5-0.866-2.614-2.419-2.614c-1.554,0-2.418,1.113-2.418,2.614  c0,1.5,0.864,2.614,2.418,2.614C229.089,153.395,229.955,152.28,229.955,150.78"/>
<path fill="#414142" d="M233.775,146.667h1.924v1.149c0.513-0.883,1.466-1.361,2.685-1.361c1.977,0,3,1.113,3,3.267v5.173h-1.925  v-4.291c0-1.749-0.459-2.505-1.801-2.505c-1.253,0-1.96,0.828-1.96,2.276v4.52h-1.924V146.667z"/>
<path fill="#414142" d="M248.355,150.798v-8.263h2.03v8.141c0,1.782,1.006,2.7,2.561,2.7c1.553,0,2.559-0.918,2.559-2.7v-8.141  h2.031v8.263c0,2.879-1.819,4.397-4.59,4.397C250.174,155.195,248.355,153.677,248.355,150.798"/>
<path fill="#414142" d="M264.555,153.199v1.696c-0.298,0.053-0.866,0.105-1.43,0.105c-0.937,0-2.666-0.123-2.666-2.895v-3.831  h-1.395v-1.607h1.395v-2.488h1.925v2.488h1.888v1.607h-1.888v3.389c0,1.429,0.441,1.606,1.201,1.606  C263.885,153.27,264.36,153.234,264.555,153.199"/>
<path fill="#414142" d="M265.721,144.053c0-0.793,0.583-1.429,1.429-1.429c0.847,0,1.432,0.636,1.432,1.429  c0,0.796-0.584,1.43-1.432,1.43C266.304,145.483,265.721,144.849,265.721,144.053 M266.196,146.666h1.907v8.228h-1.907V146.666z"/>
<rect x="270.524" y="142.535" fill="#414142" width="1.925" height="12.358"/>
<path fill="#414142" d="M274.391,144.053c0-0.793,0.584-1.429,1.431-1.429c0.848,0,1.431,0.636,1.431,1.429  c0,0.796-0.583,1.43-1.431,1.43C274.975,145.483,274.391,144.849,274.391,144.053 M274.868,146.666h1.906v8.228h-1.906V146.666z"/>
<path fill="#414142" d="M283.854,153.199v1.696c-0.3,0.053-0.864,0.105-1.431,0.105c-0.935,0-2.665-0.123-2.665-2.895v-3.831h-1.394  v-1.607h1.394v-2.488h1.925v2.488h1.888v1.607h-1.888v3.389c0,1.429,0.44,1.606,1.201,1.606  C283.185,153.27,283.66,153.234,283.854,153.199"/>
<path fill="#414142" d="M285.021,144.053c0-0.793,0.583-1.429,1.431-1.429s1.429,0.636,1.429,1.429c0,0.796-0.581,1.43-1.429,1.43  S285.021,144.849,285.021,144.053 M285.498,146.666h1.904v8.228h-1.904V146.666z"/>
<path fill="#414142" d="M297.297,151.417h-6.109c0.052,1.306,0.899,2.013,2.294,2.013c0.953,0,1.519-0.301,1.837-0.938h1.941  c-0.246,1.538-1.801,2.614-3.778,2.614c-2.594,0-4.201-1.661-4.201-4.325c0-2.63,1.624-4.325,4.131-4.325  c2.347,0,3.937,1.589,3.937,3.901C297.349,150.692,297.331,150.957,297.297,151.417 M295.459,149.951  c-0.017-1.272-0.759-1.978-2.083-1.978c-1.359,0-2.172,0.813-2.188,1.978H295.459z"/>
<path fill="#414142" d="M298.695,152.369h1.925c0,0.707,0.69,1.201,1.677,1.201c0.724,0,1.185-0.389,1.185-0.972  c0-0.459-0.194-0.743-1.077-0.971l-1.642-0.441c-1.147-0.317-1.801-1.147-1.801-2.311c0-1.397,1.323-2.419,3.159-2.419  c2.014,0,3.248,0.97,3.248,2.559h-1.888c0-0.688-0.529-1.095-1.431-1.095c-0.688,0-1.184,0.354-1.184,0.848  c0,0.439,0.266,0.741,1.025,0.953l1.641,0.477c1.166,0.334,1.908,1.183,1.908,2.347c0,1.608-1.254,2.561-3.251,2.561  C300.179,155.106,298.695,153.941,298.695,152.369"/>
<path fill="#414142" d="M146.874,171.469c0-2.417,1.536-4.325,4.096-4.325c1.095,0,2.083,0.495,2.596,1.324v-1.111h1.906v8.227  h-1.906v-1.113c-0.513,0.831-1.643,1.323-2.648,1.323C148.27,175.794,146.874,173.889,146.874,171.469 M153.636,171.469  c0-1.413-0.794-2.614-2.437-2.614c-1.501,0-2.401,1.115-2.401,2.614c0,1.501,0.9,2.615,2.401,2.615  C152.842,174.084,153.636,172.883,153.636,171.469"/>
<path fill="#414142" d="M157.904,167.357h1.925v1.147c0.511-0.884,1.464-1.36,2.684-1.36c1.978,0,3,1.112,3,3.266v5.174h-1.923  v-4.29c0-1.75-0.459-2.507-1.801-2.507c-1.254,0-1.96,0.831-1.96,2.278v4.52h-1.925V167.357z"/>
<path fill="#414142" d="M175.965,163.226v12.358h-1.908v-1.113c-0.513,0.831-1.64,1.323-2.648,1.323  c-2.646,0-4.043-1.906-4.043-4.325c0-2.417,1.536-4.325,4.097-4.325c1.094,0,2.082,0.495,2.595,1.324v-5.242H175.965z   M174.128,171.469c0-1.413-0.794-2.614-2.437-2.614c-1.501,0-2.4,1.115-2.4,2.614c0,1.501,0.899,2.615,2.4,2.615  C173.334,174.084,174.128,172.883,174.128,171.469"/>
<polygon fill="#414142" points="185.636,165.131 182.052,165.131 182.052,163.226 191.268,163.226 191.268,165.131 187.667,165.131   187.667,175.584 185.636,175.584 "/>
<path fill="#414142" d="M191.453,167.357h1.924v1.588c0.3-1.165,1.29-1.695,2.191-1.695c0.298,0,0.546,0.018,0.757,0.072v1.765  c-0.3-0.035-0.459-0.035-0.757-0.035c-1.36,0-2.191,1.023-2.191,2.895v3.637h-1.924V167.357z"/>
<path fill="#414142" d="M197.325,171.469c0-2.417,1.536-4.325,4.096-4.325c1.094,0,2.083,0.495,2.596,1.324v-1.111h1.908v8.227  h-1.908v-1.113c-0.513,0.831-1.642,1.323-2.648,1.323C198.722,175.794,197.325,173.889,197.325,171.469 M204.087,171.469  c0-1.413-0.795-2.614-2.436-2.614c-1.5,0-2.4,1.115-2.4,2.614c0,1.501,0.9,2.615,2.4,2.615  C203.292,174.084,204.087,172.883,204.087,171.469"/>
<path fill="#414142" d="M208.356,167.357h1.925v1.147c0.511-0.884,1.464-1.36,2.684-1.36c1.978,0,3,1.112,3,3.266v5.174h-1.923  v-4.29c0-1.75-0.459-2.507-1.801-2.507c-1.254,0-1.96,0.831-1.96,2.278v4.52h-1.925V167.357z"/>
<path fill="#414142" d="M217.758,173.059h1.924c0,0.706,0.688,1.201,1.677,1.201c0.724,0,1.183-0.389,1.183-0.971  c0-0.46-0.194-0.742-1.076-0.973l-1.643-0.44c-1.147-0.316-1.802-1.148-1.802-2.313c0-1.395,1.325-2.418,3.162-2.418  c2.012,0,3.248,0.97,3.248,2.559h-1.889c0-0.688-0.529-1.095-1.429-1.095c-0.69,0-1.184,0.354-1.184,0.849  c0,0.44,0.265,0.74,1.023,0.952l1.643,0.478c1.166,0.334,1.906,1.183,1.906,2.347c0,1.608-1.254,2.561-3.249,2.561  C219.242,175.795,217.758,174.631,217.758,173.059"/>
<path fill="#414142" d="M235.111,171.469c0,2.542-1.66,4.325-4.043,4.325c-1.094,0-2.136-0.529-2.648-1.323v4.821h-1.906v-11.936  h1.906v1.111c0.513-0.795,1.606-1.324,2.772-1.324C233.54,167.144,235.111,168.875,235.111,171.469 M233.187,171.469  c0-1.535-0.987-2.614-2.401-2.614c-1.449,0-2.436,1.06-2.436,2.614c0,1.554,0.987,2.615,2.436,2.615  C232.199,174.084,233.187,173.007,233.187,171.469"/>
<path fill="#414142" d="M236.498,171.469c0-2.417,1.625-4.325,4.344-4.325c2.717,0,4.343,1.908,4.343,4.325  c0,2.419-1.626,4.325-4.343,4.325C238.123,175.794,236.498,173.889,236.498,171.469 M243.26,171.469  c0-1.499-0.864-2.614-2.418-2.614s-2.417,1.115-2.417,2.614c0,1.501,0.863,2.615,2.417,2.615S243.26,172.97,243.26,171.469"/>
<path fill="#414142" d="M247.081,167.357h1.925v1.588c0.3-1.165,1.29-1.695,2.19-1.695c0.299,0,0.546,0.018,0.758,0.072v1.765  c-0.3-0.035-0.459-0.035-0.758-0.035c-1.36,0-2.19,1.023-2.19,2.895v3.637h-1.925V167.357z"/>
<path fill="#414142" d="M258.605,173.889v1.696c-0.3,0.052-0.864,0.105-1.432,0.105c-0.934,0-2.664-0.124-2.664-2.895v-3.833h-1.395  v-1.605h1.395v-2.49h1.925v2.49h1.889v1.605h-1.889v3.39c0,1.431,0.442,1.608,1.2,1.608  C257.935,173.96,258.411,173.923,258.605,173.889"/>
<path fill="#414142" d="M259.708,171.469c0-2.417,1.538-4.325,4.097-4.325c1.094,0,2.083,0.495,2.596,1.324v-1.111h1.908v8.227  h-1.908v-1.113c-0.513,0.831-1.643,1.323-2.648,1.323C261.105,175.794,259.708,173.889,259.708,171.469 M266.471,171.469  c0-1.413-0.795-2.614-2.437-2.614c-1.502,0-2.399,1.115-2.399,2.614c0,1.501,0.897,2.615,2.399,2.615  C265.676,174.084,266.471,172.883,266.471,171.469"/>
<path fill="#414142" d="M275.404,173.889v1.696c-0.3,0.052-0.866,0.105-1.432,0.105c-0.935,0-2.666-0.124-2.666-2.895v-3.833h-1.395  v-1.605h1.395v-2.49h1.925v2.49h1.889v1.605h-1.889v3.39c0,1.431,0.442,1.608,1.2,1.608  C274.733,173.96,275.208,173.923,275.404,173.889"/>
<path fill="#414142" d="M276.569,164.744c0-0.795,0.583-1.431,1.43-1.431s1.431,0.636,1.431,1.431c0,0.794-0.583,1.43-1.431,1.43  S276.569,165.538,276.569,164.744 M277.046,167.357h1.906v8.228h-1.906V167.357z"/>
<path fill="#414142" d="M280.788,171.469c0-2.417,1.625-4.325,4.344-4.325c2.717,0,4.342,1.908,4.342,4.325  c0,2.419-1.625,4.325-4.342,4.325C282.413,175.794,280.788,173.889,280.788,171.469 M287.549,171.469  c0-1.499-0.864-2.614-2.417-2.614c-1.555,0-2.419,1.115-2.419,2.614c0,1.501,0.864,2.615,2.419,2.615  C286.685,174.084,287.549,172.97,287.549,171.469"/>
<path fill="#414142" d="M291.37,167.357h1.925v1.147c0.513-0.884,1.466-1.36,2.685-1.36c1.978,0,3.001,1.112,3.001,3.266v5.174  h-1.925v-4.29c0-1.75-0.459-2.507-1.801-2.507c-1.253,0-1.96,0.831-1.96,2.278v4.52h-1.925V167.357z"/>
<path fill="#414142" d="M146.874,190.093c0-3.777,2.4-6.479,6.426-6.479c3.409,0,5.615,1.924,5.986,4.537h-2.225  c-0.389-1.676-1.696-2.718-3.744-2.718c-2.735,0-4.307,1.836-4.307,4.661s1.571,4.662,4.307,4.662c2.047,0,3.355-1.041,3.744-2.719  h2.225c-0.372,2.612-2.578,4.539-5.986,4.539C149.274,196.574,146.874,193.871,146.874,190.093"/>
<path fill="#414142" d="M160.681,192.16c0-2.419,1.625-4.325,4.343-4.325c2.717,0,4.343,1.906,4.343,4.325  c0,2.418-1.626,4.326-4.343,4.326C162.306,196.485,160.681,194.578,160.681,192.16 M167.442,192.16c0-1.501-0.865-2.614-2.417-2.614  c-1.554,0-2.419,1.113-2.419,2.614c0,1.499,0.865,2.614,2.419,2.614C166.577,194.773,167.442,193.659,167.442,192.16"/>
<path fill="#414142" d="M171.264,188.045h1.925v1.149c0.352-0.761,1.218-1.361,2.296-1.361c1.5,0,2.24,0.653,2.593,1.466  c0.387-0.83,1.36-1.466,2.524-1.466c2.472,0,2.966,1.695,2.966,3.232v5.207h-1.924v-4.837c0-1.359-0.529-1.958-1.536-1.958  c-0.97,0-1.73,0.475-1.73,2.435v4.361h-1.924v-4.855c0-1.359-0.494-1.941-1.5-1.941c-0.972,0-1.766,0.475-1.766,2.435v4.361h-1.925  V188.045z"/>
<path fill="#414142" d="M185.96,188.045h1.924v1.149c0.352-0.761,1.218-1.361,2.295-1.361c1.501,0,2.243,0.653,2.596,1.466  c0.387-0.83,1.359-1.466,2.523-1.466c2.473,0,2.967,1.695,2.967,3.232v5.207h-1.923v-4.837c0-1.359-0.531-1.958-1.538-1.958  c-0.97,0-1.73,0.475-1.73,2.435v4.361h-1.925v-4.855c0-1.359-0.494-1.941-1.501-1.941c-0.97,0-1.764,0.475-1.764,2.435v4.361h-1.924  V188.045z"/>
<path fill="#414142" d="M200.146,185.432c0-0.792,0.583-1.43,1.431-1.43s1.429,0.637,1.429,1.43c0,0.796-0.581,1.432-1.429,1.432  S200.146,186.228,200.146,185.432 M200.623,188.045h1.906v8.229h-1.906V188.045z"/>
<path fill="#414142" d="M204.359,193.748h1.925c0,0.707,0.69,1.201,1.677,1.201c0.724,0,1.183-0.389,1.183-0.972  c0-0.459-0.193-0.742-1.076-0.971l-1.642-0.441c-1.147-0.317-1.802-1.147-1.802-2.311c0-1.397,1.325-2.419,3.161-2.419  c2.013,0,3.248,0.97,3.248,2.559h-1.89c0-0.688-0.529-1.095-1.429-1.095c-0.688,0-1.185,0.354-1.185,0.848  c0,0.44,0.267,0.741,1.025,0.953l1.643,0.477c1.166,0.334,1.908,1.183,1.908,2.347c0,1.608-1.254,2.561-3.25,2.561  C205.843,196.485,204.359,195.319,204.359,193.748"/>
<path fill="#414142" d="M212.566,193.748h1.924c0,0.707,0.688,1.201,1.677,1.201c0.724,0,1.181-0.389,1.181-0.972  c0-0.459-0.193-0.742-1.074-0.971l-1.643-0.441c-1.147-0.317-1.802-1.147-1.802-2.311c0-1.397,1.325-2.419,3.162-2.419  c2.012,0,3.248,0.97,3.248,2.559h-1.891c0-0.688-0.528-1.095-1.428-1.095c-0.69,0-1.184,0.354-1.184,0.848  c0,0.44,0.265,0.741,1.023,0.953l1.642,0.477c1.167,0.334,1.908,1.183,1.908,2.347c0,1.608-1.254,2.561-3.249,2.561  C214.05,196.485,212.566,195.319,212.566,193.748"/>
<path fill="#414142" d="M220.802,185.432c0-0.792,0.583-1.43,1.432-1.43c0.846,0,1.429,0.637,1.429,1.43  c0,0.796-0.583,1.432-1.429,1.432C221.385,186.863,220.802,186.228,220.802,185.432 M221.281,188.045h1.906v8.229h-1.906V188.045z"/>
<path fill="#414142" d="M225.021,192.16c0-2.419,1.625-4.325,4.344-4.325c2.717,0,4.342,1.906,4.342,4.325  c0,2.418-1.625,4.326-4.342,4.326C226.646,196.485,225.021,194.578,225.021,192.16 M231.783,192.16c0-1.501-0.865-2.614-2.417-2.614  c-1.554,0-2.419,1.113-2.419,2.614c0,1.499,0.865,2.614,2.419,2.614C230.918,194.773,231.783,193.659,231.783,192.16"/>
<path fill="#414142" d="M235.605,188.045h1.925v1.149c0.512-0.883,1.466-1.361,2.684-1.361c1.978,0,3,1.113,3,3.267v5.172h-1.923  v-4.29c0-1.749-0.459-2.506-1.801-2.506c-1.254,0-1.96,0.829-1.96,2.277v4.519h-1.925V188.045z"/>
<path fill="#7BCCD3" d="M72.732,75.636l0.004,84.678c46.716-23.756,45.967-83.291,45.967-83.291V49.428L72.732,75.636z"/>
<path fill="#F79463" d="M2.249,35.563C1.246,34.992,0,35.717,0,36.87v29.492l28.215-16.036L2.249,35.563z"/>
<path fill="#F79463" d="M28.215,169.058v-68.044L0.001,117.098v1.517c0,0-0.056,77.437,71.839,78.074  c0.489,0.004,0.897-0.396,0.897-0.886l-0.001-35.492c-11.457,5.826-25.764,9.501-43.64,9.619  C28.613,169.935,28.215,169.539,28.215,169.058"/>
<path fill="#406348" d="M28.215,101.014v68.045c0,0.481,0.398,0.875,0.881,0.872c17.876-0.117,32.184-3.792,43.64-9.62  l-0.004-84.676L28.215,101.014z"/>
<path fill="#3BB9C3" d="M116.4,0.204L28.216,50.326l44.516,25.309v0.001l45.972-26.208V1.522c-0.005-0.613-0.355-1.104-0.832-1.352  C117.434-0.053,116.889-0.072,116.4,0.204"/>
<polygon fill="#D15A28" points="28.215,50.325 28.215,50.325 0.001,66.361 0.001,117.098 28.215,101.013 "/>
<polygon fill="#183D21" points="28.215,50.325 28.215,50.325 28.215,101.013 72.73,75.636 72.73,75.635 "/>
</svg>