<?xml version="1.0" encoding="utf-8"?>
<!-- Generator: Adobe Illustrator 15.1.0, SVG Export Plug-In  -->
<!DOCTYPE svg PUBLIC "-//W3C//DTD SVG 1.1//EN" "http://www.w3.org/Graphics/SVG/1.1/DTD/svg11.dtd" [
	<!ENTITY ns_flows "http://ns.adobe.com/Flows/1.0/">
]>
<svg version="1.1"
	 xmlns="http://www.w3.org/2000/svg" xmlns:xlink="http://www.w3.org/1999/xlink" xmlns:a="http://ns.adobe.com/AdobeSVGViewerExtensions/3.0/"
	 x="0px" y="0px" width="312.347523777" height="320.156211872" viewBox="0 0 480 492" enable-background="new 0 0 480 492" xml:space="preserve">
<defs>
</defs>
<path d="M76.748,388.037l-14.829-20.192H47.019v20.192h-6.855v-49.62h24.067c9.536,0,15.495,7.003,15.495,14.75
	c0,6.186-3.725,11.846-10.357,13.785l15.499,21.085H76.748z M63.41,344.079H47.019v18.252H63.41c5.661,0,9.387-3.65,9.387-9.164
	S68.476,344.079,63.41,344.079z"/>
<path d="M111.998,388.854c-14.008,0-24.068-11.548-24.068-25.556c0-14.005,10.061-25.626,24.068-25.626
	c14.007,0,24.063,11.621,24.063,25.626C136.061,377.307,126.004,388.854,111.998,388.854z M111.998,343.631
	c-10.434,0-17.289,8.42-17.289,19.668c0,11.251,6.855,19.598,17.289,19.598c10.429,0,17.209-8.347,17.209-19.598
	C129.207,352.051,122.426,343.631,111.998,343.631z"/>
<path d="M188.445,388.037v-37.402l-15.349,29.952h-4.245l-15.273-29.952v37.402h-6.632v-49.62h6.632l17.436,33.229l17.432-33.229
	h6.558v49.62H188.445z"/>
<path d="M242.098,388.037l-4.916-12.591h-22.203l-4.99,12.591h-6.78l19.967-49.62h5.735l19.97,49.62H242.098z M226.083,345.866
	l-9.239,24.288h18.402L226.083,345.866z"/>
<path d="M271.238,388.037v-3.205c0-9.612,4.324-13.038,17.213-20.787c8.045-4.843,10.43-7.526,10.43-11.994
	c0-5.365-3.947-7.825-12.516-7.825c-4.471,0-9.017,0.821-13.413,1.939l-1.114-5.364c4.617-1.491,10.576-2.384,15.571-2.384
	c12.218,0,18.029,5.438,18.029,13.334c0,6.634-3.725,10.953-11.698,15.872c-10.953,6.78-14.977,9.462-15.199,14.603h27.492v5.812
	H271.238z"/>
<path d="M332.639,388.854c-12.591,0-18.927-11.324-18.927-25.256s6.336-25.182,18.927-25.182c12.592,0,18.775,11.25,18.775,25.182
	S345.231,388.854,332.639,388.854z M332.639,344.226c-8.866,0-12.369,8.72-12.369,19.373s3.503,19.446,12.369,19.446
	s12.294-8.793,12.294-19.446S341.505,344.226,332.639,344.226z"/>
<path d="M360.208,388.037v-3.205c0-9.612,4.324-13.038,17.214-20.787c8.045-4.843,10.429-7.526,10.429-11.994
	c0-5.365-3.947-7.825-12.516-7.825c-4.471,0-9.017,0.821-13.412,1.939l-1.114-5.364c4.618-1.491,10.575-2.384,15.57-2.384
	c12.218,0,18.029,5.438,18.029,13.334c0,6.634-3.725,10.953-11.698,15.872c-10.953,6.78-14.976,9.462-15.198,14.603h27.491v5.812
	H360.208z"/>
<path d="M421.61,388.854c-12.591,0-18.923-11.324-18.923-25.256s6.332-25.182,18.923-25.182s18.776,11.25,18.776,25.182
	S434.201,388.854,421.61,388.854z M421.61,344.226c-8.866,0-12.365,8.72-12.365,19.373s3.499,19.446,12.365,19.446
	s12.294-8.793,12.294-19.446S430.476,344.226,421.61,344.226z"/>
<path d="M140.445,428.975l-1.928-4.94h-8.72l-1.959,4.94h-2.663l7.842-19.479h2.253l7.837,19.479H140.445z M134.159,412.422
	l-3.627,9.534h7.225L134.159,412.422z"/>
<path d="M155.65,421.313h-6.64v7.661h-2.689v-19.479h9.329c3.831,0,6.143,2.838,6.143,5.909S159.481,421.313,155.65,421.313z
	 M155.417,411.719h-6.406v7.399h6.406c2.222,0,3.657-1.548,3.657-3.714S157.405,411.719,155.417,411.719z"/>
<path d="M174.54,421.313h-6.638v7.661h-2.692v-19.479h9.33c3.834,0,6.143,2.838,6.143,5.909S178.374,421.313,174.54,421.313z
	 M174.306,411.719h-6.404v7.399h6.404c2.226,0,3.656-1.548,3.656-3.714S176.294,411.719,174.306,411.719z"/>
<path d="M184.102,428.975v-19.479h2.688v17.171h9.943v2.309H184.102z"/>
<path d="M200.387,428.975v-19.479h2.694v19.479H200.387z"/>
<path d="M222.587,412.099c-1.258-0.352-2.896-0.555-4.301-0.555c-5.059,0-8.274,3.129-8.274,7.691c0,4.564,3.216,7.723,8.274,7.723
	c1.287,0,2.692-0.205,4.301-0.586l0.527,2.166c-1.552,0.467-3.277,0.76-5.002,0.76c-6.289,0-10.794-4.476-10.794-10.063
	c0-5.586,4.505-10.03,10.794-10.03c1.843,0,3.42,0.203,5.027,0.731L222.587,412.099z"/>
<path d="M241.303,428.975l-1.933-4.94h-8.715l-1.959,4.94h-2.663l7.839-19.479h2.251l7.839,19.479H241.303z M235.013,412.422
	l-3.627,9.534h7.224L235.013,412.422z"/>
<path d="M261.216,428.975l-11.409-15.384v15.384h-2.633v-19.479h2.603l11.439,15.385v-15.385h2.633v19.479H261.216z"/>
<path d="M276.275,411.835v17.14h-2.664v-17.14h-6.609v-2.34h15.852v2.34H276.275z"/>
<path d="M306.217,412.099c-1.258-0.352-2.893-0.555-4.298-0.555c-5.062,0-8.278,3.129-8.278,7.691c0,4.564,3.217,7.723,8.278,7.723
	c1.285,0,2.689-0.205,4.298-0.586l0.527,2.166c-1.548,0.467-3.276,0.76-5.002,0.76c-6.286,0-10.791-4.476-10.791-10.063
	c0-5.586,4.505-10.03,10.791-10.03c1.842,0,3.423,0.203,5.033,0.731L306.217,412.099z"/>
<path d="M311.45,428.975v-19.479h2.692v19.479H311.45z"/>
<path d="M326.688,411.835v17.14h-2.663v-17.14h-6.609v-2.34h15.853v2.34H326.688z"/>
<path d="M345.226,421.137v7.838h-2.689v-7.838l-7.461-11.642h2.779l6.027,9.242l5.996-9.242h2.779L345.226,421.137z"/>
<linearGradient id="SVGID_1_" gradientUnits="userSpaceOnUse" x1="164.1992" y1="292.4233" x2="334.1316" y2="30.7503">
	<stop  offset="0" style="stop-color:#F6A800"/>
	<stop  offset="0.1569" style="stop-color:#ED9201"/>
	<stop  offset="0.4917" style="stop-color:#D85726"/>
	<stop  offset="0.6442" style="stop-color:#CF362A"/>
	<stop  offset="0.7326" style="stop-color:#BD2A26"/>
	<stop  offset="0.8216" style="stop-color:#AF2224"/>
	<stop  offset="0.9109" style="stop-color:#A71E23"/>
	<stop  offset="1" style="stop-color:#A41D23"/>
</linearGradient>
<path fill="url(#SVGID_1_)" d="M215.06,271.222c-1.45-6.588-1.979-20.14,9.217-19.101c7.661,0.714,7.904,7.769,6.972,14.138
	c-0.019,0.145-0.04,0.314-0.073,0.484c-0.104,0.729-0.223,1.449-0.36,2.146c-0.712,3.051-1.73,1.868-2.72-0.145
	c-1.451-2.874-0.483-8.391-5.846-8.115c-2.441,0.118-4.376,5.405-5.253,8.028v0.007C216,270.841,215.457,272.016,215.06,271.222z
	 M172.274,267.598c0,0,0.011,0.004,0.011-0.009c0.893-2.625,2.227-5.082,4.712-5.134c3.247-0.046,5.134,3.24,6.623,6.378
	c0.995,2.203,2.047,3.537,2.782,0.443c0.128-0.717,0.256-1.438,0.38-2.203c0.016-0.17,0.034-0.346,0.065-0.498
	c0.936-6.518,0.713-13.893-7.127-15.451c-11.447-2.251-10.906,11.926-9.424,18.924C170.699,270.938,171.253,269.764,172.274,267.598
	z M258.271,264.08c0.947-2.842,2.359-5.629,4.979-6.434c3.442-1.012,5.467,1.628,7.029,4.24c1.075,1.824,2.19,2.815,2.951-0.417
	c0.137-0.727,0.271-1.484,0.399-2.262c0.016-0.174,0.047-0.343,0.076-0.491c0.977-6.639,0.713-13.751-7.581-12.912
	c-12.128,1.265-11.521,14.901-9.951,21.254C256.592,267.8,257.188,266.501,258.271,264.08z M272.025,206.6
	c4.472-6.489,4.182-17.818,14.103-15.062c2.941,0.712,4.561,4.286,5.601,7.879v-0.018c1.975,6.997,3.503,1.342,4.15-3.802
	c0.505-9.506-2.787-19.438-15.017-14.474c-7.718,2.893-9.417,7.714-9.495,12.795l-0.012,0.013
	c-0.094,6.813-0.871,13.972,0.663,12.304c-0.03,0.316-0.052,0.65-0.101,0.962L272.025,206.6z M316.888,191.907l0.012-0.02
	c0.967-3.644,2.375-7.271,5.023-8.545c3.469-1.656,5.484,1.426,7.043,4.516h0.016c1.07,2.162,2.181,3.273,2.961-0.833
	c0.15-0.93,0.277-1.894,0.402-2.877c0.026-0.217,0.049-0.426,0.079-0.625c1.01-8.384,0.779-17.213-7.563-15.273
	c-12.195,2.885-11.652,19.819-10.094,27.593C315.193,196.705,315.785,195.021,316.888,191.907z M226.233,208.905l0.012-0.016
	c1.295-3.526,4.112-10.666,7.717-10.84c7.91-0.361,6.505,7.112,8.637,10.987c1.458,2.721,2.979,4.313,4.012,0.203
	c0.192-0.943,0.38-1.911,0.546-2.911c0.023-0.218,0.061-0.444,0.105-0.637c1.326-8.603,0.984-18.129-10.313-19.111
	c-16.527-1.434-15.695,16.878-13.559,25.769C223.966,213.437,224.768,211.843,226.233,208.905z M181.296,208.246v-0.03
	c1.13-3.262,2.779-6.316,5.867-6.385c4.037-0.049,6.385,4.049,8.227,7.948c1.25,2.73,2.546,4.392,3.457,0.546
	c0.17-0.885,0.324-1.805,0.468-2.742c0.029-0.218,0.057-0.42,0.079-0.609c1.17-8.117,0.896-17.277-8.848-19.206
	c-14.227-2.793-13.544,14.817-11.71,23.515C179.337,212.378,180.019,210.918,181.296,208.246z M297.998,253.644v-0.012
	c0.869-2.588,2.135-5.142,4.536-5.868c3.152-0.925,4.997,1.481,6.43,3.853c0.976,1.678,1.978,2.582,2.686-0.379
	c0.132-0.66,0.251-1.35,0.354-2.054c0.035-0.15,0.046-0.319,0.082-0.448c0.885-6.062,0.654-12.545-6.92-11.772
	c-11.07,1.129-10.509,13.587-9.078,19.397C296.464,257.021,297.013,255.831,297.998,253.644z M150.856,193.358
	c2.331,1.863,3.987,5.912,5.212,9.758v-0.012c2.35,7.466,2.84,2.686,2.708-1.988c-0.769-8.882-4.485-19.666-13.183-19.793
	c-5.544-0.297-6.251,3.612-5.687,8.456l-0.012,0.008c0.765,6.47,1.028,12.981,1.997,12.011c0.007,0.288,0.037,0.592,0.048,0.866
	l-0.003-0.516C144.566,197.716,142.972,186.793,150.856,193.358z M359.373,138.706c4.268,4.109,7.595,8.523,9.881,13.444
	c0.119,0.294,0.267,0.565,0.392,0.86c0.101,0.256,0.191,0.515,0.296,0.766c1.301,3.321,2.299,6.949,2.818,10.794
	c0.064,0.486,0.12,0.991,0.169,1.48c0.11,1.142,0.212,2.288,0.234,3.448c0.082,10.003-4.96,18.849-10.388,25.456
	c-0.223,0.272-0.449,0.511-0.675,0.779c-0.146,0.171-0.306,0.35-0.463,0.53c-0.564,0.654-1.126,1.292-1.688,1.895
	c-0.496,0.543-1.008,1.076-1.535,1.602c-0.168,0.17-0.336,0.341-0.502,0.504c-0.041,0.041-0.08,0.078-0.12,0.117
	c-1.394,1.369-2.72,2.574-3.866,3.556c-0.085,0.017-0.17,0.042-0.254,0.059c-1.475,1.188-3.008,2.317-4.563,3.396
	c0.042,0.04,0.087,0.074,0.128,0.113c2.482,2.177,7.251,6.991,9.578,13.392c1.02,2.56,1.651,5.402,1.535,8.661
	c-0.235,5.073-2.246,10.053-4.991,14.311c-6.316,9.775-16.354,16.743-26.568,22.071c-13.687,7.14-28.506,11.914-43.57,15.294
	c-15.913,3.585-32.155,5.611-48.454,6.411c-2.568,0.123-5.135,0.205-7.701,0.271v-0.004c-8.154,0.363-17.584,0.554-25.688,0.116
	c-6.75-0.212-13.497-0.6-20.229-1.179c-13.072-1.175-33.398-5.333-46.046-12.21l-0.008,0.007c-1.966-1.039-3.608-2.131-4.986-3.191
	c-0.323-0.243-0.612-0.509-0.919-0.755c-0.403-0.332-0.787-0.66-1.134-0.982c-0.085-0.083-0.188-0.143-0.261-0.229
	c0,0,0.012,0.002,0.023-0.006c-0.938-0.879-1.607-1.638-2.134-2.274c-0.367-0.714,0.978-0.191,2.44,0.356
	c0.01,0,0.037,0.001,0.048,0.003c2.546,1.012,6.127,2.164,10.207,3.213v-0.005c8.95,2.394,16.757,4.67,27.359,5.932
	c15.325,1.824,44.074,3.974,79.479,0c13.096-1.47,25.386-3.576,37.212-6.684c27.532-6.841,49.989-17.825,57.22-31.829
	c3.131-6.076,2.848-11.189,1.839-14.737c-1.251-3.426-3.326-6.56-5.641-9.307c-6.077,3.183-11.519,5.414-14.548,6.566
	c-3.523,1.452-7.14,2.864-10.846,4.239h0.03c-0.151,0.055-0.294,0.1-0.437,0.152c-0.73,0.275-1.453,0.55-2.189,0.817
	c-6.802,2.314-13.626,4.313-20.424,6.083c-47.229,12.719-93.722,14.915-127.864,8.787c-7.845-1.249-14.339-2.919-19.642-4.904
	c-0.037-0.015-0.071-0.022-0.117-0.039l-0.858-0.326l0.037-0.01c-18.233-7.124-22.06-17.828-20.515-25.881
	c0.052-0.309,0.123-0.603,0.195-0.9c0.041-0.199,0.105-0.406,0.154-0.595c0.215-0.784,0.489-1.556,0.828-2.298
	c0.061-0.141,0.125-0.293,0.186-0.426c0.131-0.264,0.263-0.519,0.406-0.782c0.086-0.159,0.154-0.323,0.237-0.46l0.022,0.037
	c0.651-1.098,1.397-2.154,2.309-3.132c0.633-0.684,1.318-1.319,2.016-1.915c2.315,3.462,6.124,10.301,17.107,16.226h-0.019
	c0.067,0.038,0.149,0.079,0.231,0.114c4.969,2.646,11.406,5.104,19.813,6.979c2.452,0.592,4.968,1.086,7.521,1.544l-0.06,0.022
	c40.876,8.137,111.306-1.365,153.625-19.951c4.366-1.804,8.434-3.698,12.154-5.713c0.151-0.082,0.294-0.183,0.449-0.273
	c0.104-0.058,0.188-0.092,0.296-0.158c22.385-12.081,33.405-32.656,11.537-54.061c-25.242,12.67-68.101,27.278-135.067,30.782
	c-15.831,1.118-31.79,1.643-47.623,0.425c-7.681-0.57-15.526-1.461-23.152-3.135l0.008,0.021
	c-38.022-8.405-44.651-26.596-32.915-42.972c0.067-0.095,0.132-0.188,0.203-0.294c0.592-0.813,1.247-1.621,1.928-2.424
	c0.211-0.25,0.426-0.503,0.648-0.756c0.572-0.639,1.167-1.279,1.805-1.92c0.222-0.225,0.425-0.42,0.64-0.63
	c0.079-0.071,0.158-0.148,0.247-0.228c0.886-0.87,1.688-1.579,2.408-2.149c4.903-4.195,11.228-8.357,19.118-12.349
	c0.415-0.204,0.84-0.383,1.255-0.589l-0.012,0.018c0.022-0.018,0.049-0.024,0.07-0.038c18.227-8.532,39.857-12.51,62.479-13.189
	l-0.025-0.01c0.061-0.006,0.112,0,0.165-0.006h0.087c51.182-2.171,92.384,10.949,114.078,19.462
	c15.846,6.413,24.99,12.045,27.122,13.41c17.209-8.41,28.783-18.636,34.858-30.888c1.658-4.894,1.822-10.135-0.158-15.711
	c-11.556-32.521-77.367-54.938-82.707-56.471c6.112,1.387,90.47,19.314,100.806,62.603
	C401.083,109.163,380.751,126.771,359.373,138.706z M334.172,131.256c-1.809-0.881-5.04-2.469-8.878-4.278
	c-3.521-1.736-7.228-3.41-11.077-5.01c-3.118-1.331-6.165-2.538-8.791-3.431c-0.011-0.008-0.033-0.014-0.045-0.017
	c-10.78-3.947-22.471-7.354-34.583-10.099c-44.982-9.345-88.481-8.795-118.286,2.018c-3.634,1.479-7.012,3.248-10.04,5.216
	c-17.154,11.375-16.689,30.43,18.651,37.236c4.715,0.857,9.702,1.514,14.922,1.957c0.042,0,0.071,0,0.113,0.012
	c0.049,0,0.099,0.006,0.144,0.014c13.92,1.164,29.381,0.922,45.219-0.311v0.007c22.712-1.138,46.549-5.388,66.542-9.911
	c0.009,0,0.009,0,0.009,0c11.047-2.495,20.918-5.072,28.771-7.247C323.068,135.497,328.838,133.442,334.172,131.256z"/>
<rect id="_x3C_Slice_x3E__1_" fill="none" width="480" height="492"/>
</svg>
