<?xml version="1.0" encoding="utf-8"?>
<!-- Generator: Adobe Illustrator 15.1.0, SVG Export Plug-In  -->
<!DOCTYPE svg PUBLIC "-//W3C//DTD SVG 1.1//EN" "http://www.w3.org/Graphics/SVG/1.1/DTD/svg11.dtd" [
	<!ENTITY ns_flows "http://ns.adobe.com/Flows/1.0/">
]>
<svg version="1.1"
	 xmlns="http://www.w3.org/2000/svg" xmlns:xlink="http://www.w3.org/1999/xlink" xmlns:a="http://ns.adobe.com/AdobeSVGViewerExtensions/3.0/"
	 x="0px" y="0px" width="716.114874039" height="139.642400438" viewBox="-0.45 0 800 156" enable-background="new -0.45 0 800 156"
	 xml:space="preserve">
<defs>
</defs>
<path fill="#CA2C26" stroke="#CA2C26" stroke-width="0.7622" stroke-miterlimit="10" d="M92.442,77.149
	c-1.462,0.007-1.737-0.93-4.261-0.916s-5.309,0.496-5.309,0.496c-0.53,0.003-0.924,0.475-0.924,0.475s-6.783,23.488-4.402,31.568
	l0.172,0.586c0,0,0.37,0.35,0.508,0.817c0.103,0.352,0.073,0.703-0.256,0.94c-1.353,0.826-3.311,0.955-4.639,0.962
	c-2.656,0.015-3.399-1.155-3.675-2.092c-0.139-0.469-0.144-0.938-0.144-0.938c-0.756-5.272,2.027-17.953,5.706-30.754l-0.034-0.117
	c-0.034-0.116-0.104-0.351-0.635-0.349c-5.012,0.145-11.067,2.168-11.067,2.168c-2.051,0.715-2.773,1.423-2.773,1.423
	c-0.231,0.118-0.364,0.119-0.497,0.12c-0.531,0.003-0.803-0.465-0.871-0.699l-0.034-0.117c0.574-2.114,2.188-3.412,2.188-3.412
	c3.556-2.834,14.598-4.182,14.598-4.182c0.896-0.122,0.759-0.59,0.759-0.59c1.92-6.577,3.22-12.096,3.22-12.096
	c2.918-9.515,2.999-14.205,2.999-14.205c0.064-0.235-0.005-0.469-0.039-0.587c-0.104-0.351-0.402-0.466-0.67-0.465
	c-0.265,0.002-0.496,0.119-0.496,0.119C62.357,59.013,49.673,77.373,49.673,77.373c-5.827,13.634-9.628,18.345-9.628,18.345
	c-2.266,2.24-6.014,2.612-6.014,2.612c-1.063,0.005-1.467-0.462-1.57-0.813c-0.069-0.234-0.04-0.586-0.04-0.586
	c2.156-6.227,13.083-24.227,13.083-24.227c1.726-3.175,4.265-10.812,4.265-10.812s0.359-0.588,0.758-0.59
	c0.266-0.001,0.467,0.231,0.639,0.817l0.069,0.234c0,0,0.632,3.045,0.052,4.69l0.07,0.234c0.033,0.117,0.102,0.351,0.235,0.35
	s0.231-0.118,0.329-0.235c0,0,18.217-19.445,27.418-25.239c0,0,2.862-2.478,4.456-2.486c0.267-0.001,0.398-0.002,0.565,0.114
	c0,0,0.665-0.004,1.092-0.357c0,0,0.623-0.59,1.652-0.713c0,0,1.027-0.123,2.092-0.128c1.326-0.007,2.557,0.104,2.798,0.924
	c0.139,0.468,0.079,1.173-0.771,2.349c0,0-2.807,4.472-8.078,29.478l0.035,0.117c0.034,0.117,0.138,0.468,0.536,0.466l0.132-0.001
	c0,0,3.316-0.485,5.973-0.499c1.859-0.011,3.488,0.099,4.04,1.972c0.206,0.702,0.118,1.759-0.53,3.169
	C93.205,77.026,92.84,77.147,92.442,77.149z"/>
<path fill="#CA2C26" stroke="#CA2C26" stroke-width="0.7622" stroke-miterlimit="10" d="M151.488,99.237
	c-6.92,4.962-16.377,11.695-22.221,11.727c-3.984,0.021-5.256-3.843-6.601-8.409c-3.862-13.114,8.323-31.354,10.94-40.985
	c0.098-0.117,0.063-0.234,0.029-0.352c-0.069-0.234-0.468-0.231-0.6-0.23c-5.205,0.848-8.624,0.983-10.616,0.993
	c-8.766,0.046-14.026-4.265-14.889-7.192c-0.104-0.352-0.075-0.703,0.591-0.707c0.928-0.005,3.798,1.153,6.734,2.545
	c0,0,2.741,1.627,8.186,1.599l2.791-0.015c1.461-0.008,4.348-0.14,8.559-0.748c0,0,0.664-0.004,0.959-0.357
	c0.129-0.47,3.573-7.289,4.967-13.395c0,0,0.879-1.529,4.068-1.546c1.097,0.111,2.326,0.222,2.637,1.276
	c0.138,0.469,0.177,1.055-0.146,1.76c0,0-2.045,4.35-4.6,10.578c0.138,0.469,0.172,0.586,0.57,0.583
	c0.134-0.001,13.522-2.416,19.234-2.446c0.663-0.003,2.391-0.012,2.666,0.925c0.137,0.468,0.475,3.867-2.05,3.88
	c-1.728,0.01-1.599-0.46-5.318-0.44c-5.578,0.029-8.761,0.515-14.958,1.603c-1.259,0.241-1.293,0.124-1.884,0.831
	c0,0-15.117,29.514-14.024,41.353c0,0,0.005,0.469,0.178,1.054c0.311,1.054,0.989,2.458,2.884,2.565
	c8.632-0.045,25.493-15.965,37.534-20.25c0,0,0.501,0.35,0.674,0.936c0.138,0.468,0.045,1.055-0.58,1.645L151.488,99.237z"/>
<path fill="#CA2C26" stroke="#CA2C26" stroke-width="0.7622" stroke-miterlimit="10" d="M170.083,93.745
	c0.586,1.99,1.885,2.336,3.877,2.324c1.992-0.01,4.078-0.606,4.078-0.606c12.213-3.7,26.225-13.037,26.225-13.037
	c0.986-0.709,1.582-0.948,1.848-0.949c0.397-0.002,0.467,0.233,0.57,0.584c0.076,3.869-5.043,6.359-5.043,6.359
	c-19.205,11.124-24.051,11.384-24.051,11.384c-0.496,0.12-1.027,0.123-1.559,0.126c-4.25,0.022-7.705-3.127-7.705-3.127
	c-1.373-1.048-2.053-2.451-2.467-3.856c-2-6.791,5.334-19.377,5.639-18.793c1.746-1.299,4.368-1.43,6.493-1.441
	c0,0,1.195-0.006,1.367,0.58c0.069,0.234,0.109,0.82-0.55,1.292C176.14,76.827,168.498,88.358,170.083,93.745z M180.566,62.496
	c-0.929,0.005-2.021,0.362-2.021,0.362c-0.029,0.352-0.393,0.472-0.791,0.474c0,0-1.727,0.01-2.072-1.161
	c-0.725-2.459,2.08-4.233,2.08-4.233c1.219-0.827,2.709-1.187,3.339-1.308c1.328-0.006,2.401,0.926,2.85,2.447
	C184.708,61.654,180.566,62.496,180.566,62.496z"/>
<path fill="#CA2C26" stroke="#CA2C26" stroke-width="0.7622" stroke-miterlimit="10" d="M289.186,87.14
	c0.31,1.054-0.02,1.289-0.02,1.289c-8.801,8.959-23.663,16.307-29.905,16.34c-5.977,0.031-8.981-7.457-9.223-8.277
	c-1.345-4.566,1.766-11.618,1.766-11.618c0.098-0.118,0.029-0.353-0.004-0.47c-0.139-0.468-0.705-0.582-1.104-0.58
	s-0.763,0.121-0.763,0.121c-3.049,0.485-9.897,8.848-9.897,8.848c-4.523,5.417-5.021,5.538-6.88,5.548
	c-2.524,0.014-3.37-1.508-3.716-2.678c-1.138-3.864,0.518-7.274-0.172-9.615c-0.275-0.937-0.807-0.935-1.205-0.932
	c-5.711,0.03-17.523,15.923-17.523,15.923c-1.303,2.352-2.521,3.18-3.984,3.188c-3.054,0.016-4.285-3.262-4.492-3.963
	c-0.656-2.226-0.455-5.158-0.455-5.158c0.934-11.732,9.506-26.436,9.506-26.436s0.295-0.354,1.225-0.358
	c0,0,3.521,0.215,4.212,2.558c0,0,0.281,1.405-2.89,5.996c0,0-6.297,10.234-7.163,19.035c0,0-0.093,0.586,0.079,1.172
	c0.104,0.352,0.306,0.585,0.605,0.701c0.398-0.003,1.294-0.124,2.566-2.125c0.693-0.354,12.68-15.662,21.445-15.709
	c1.594-0.008,2.824,0.103,3.479,2.327c0.827,2.811-1.051,4.11,0.122,8.091c0.137,0.469,0.34,0.702,0.64,0.818l0.398-0.003
	c0.265-0.001,0.663-0.003,0.993-0.24c5.424-5.071,12.062-11.438,14.604-12.741c0,0,1.549-1.063,3.542-1.073
	c1.461-0.009,4.496,1.266,5.15,3.489c0.069,0.235,0.04,0.586-0.024,0.822c0,0-7.013,11.411-5.322,17.148
	c0.345,1.171,0.821,2.342,4.143,2.324c4.383-0.023,14.563-4.299,28.523-15.16c0,0,0.295-0.354,0.562-0.354
	C288.668,85.383,289.186,87.14,289.186,87.14z"/>
<path fill="#CA2C26" stroke="#CA2C26" stroke-width="0.7622" stroke-miterlimit="10" d="M294.206,103.296
	c-5.843,0.031-9.191-5.464-9.985-8.157c-2.173-7.376,4.749-18.2,4.95-17.968c5.27-6.946,9.517-7.438,10.578-7.442
	c0.931-0.005,5.864,1.845,7.106,6.06c1.552,5.27-4.618,11.869-17.166,15.336c-0.266,0.001-0.763,0.121-0.987,0.709
	c0,0-0.831,3.053-0.176,5.277c0.553,1.874,1.457,2.69,4.513,2.674c8.899-0.047,23.716-8.451,35.794-15.316
	c0,0,0.197-0.234,0.463-0.236c0.133,0,0.434,0.115,0.605,0.7c0,0,0.725,2.459-0.692,3.521
	C329.381,89.038,305.231,103.238,294.206,103.296z M302.261,74.64c-0.174-0.585-0.605-0.7-1.004-0.697
	c-4.881,0.143-10.184,10.139-10.758,12.252c-0.162,0.352-0.226,0.588-0.191,0.704c0.069,0.234,0.335,0.233,0.468,0.232
	C293.831,87.115,303.779,79.792,302.261,74.64z"/>
<path fill="#CA2C26" stroke="#CA2C26" stroke-width="0.7622" stroke-miterlimit="10" d="M357.953,108.824
	c0.36,2.578,0.283,4.573,0.283,4.573c-0.123,0.938-0.585,1.176-0.983,1.178c-2.391,0.013-4.804-5.018-5.355-6.893
	c-0.622-5.272,11.675-37.586,11.675-37.586c0.064-0.235,0.029-0.353-0.004-0.469c-0.069-0.234-0.203-0.233-0.336-0.233
	c-0.132,0.001-0.363,0.118-0.363,0.118c-4.344,0.61-7.363,0.744-9.488,0.755c-4.783,0.024-5.023-0.795-5.23-1.497
	c-0.553-1.874,2.32-3.413,2.453-3.414c0.266-0.002,0.698,0.113,1.2,0.463c0,0,0.404,0.467,4.654,0.444
	c1.86-0.009,4.614-0.142,8.661-0.396c0.267-0.002,0.63-0.121,0.891-0.591c0,0,7.492-19.271,12.848-24.578
	c0,0,2.857-2.947,10.693-2.988c1.594-0.008,3.92,0.215,4.404,1.854c0.31,1.054,0.627,5.744-3.686,9.167c0,0-0.463,0.236-0.861,0.239
	c-0.266,0.001-0.433-0.115-0.537-0.467c-0.033-0.117-0.103-0.352-0.074-0.703c0,0,0.437-2.583-0.184-4.689
	c-0.207-0.703-0.512-1.288-0.916-1.755c0,0-0.334-0.232-0.732-0.23s-0.896,0.122-1.521,0.711c0,0-7.681,5.083-13.837,22.12
	c0.139,0.469,0.207,0.702,0.605,0.7c0.133-0.001,14.088-2.302,19.002-2.327c0,0,1.097,0.111,1.407,1.165
	c0.208,0.702,0.084,1.642-0.663,3.17c-0.195,0.235-0.26,0.471-0.393,0.472c-1.998-0.459-3.758-0.568-5.485-0.559
	c-7.172,0.037-15.716,2.193-15.716,2.193c-0.497,0.12-0.723,0.707-0.723,0.707C367.734,71.13,356.574,104.142,357.953,108.824z"/>
<path fill="#CA2C26" stroke="#CA2C26" stroke-width="0.7622" stroke-miterlimit="10" d="M429.693,80.068
	c0,0,0.362,2.578-2.579,3.884c-13.88,6.171-24.806,6.11-24.806,6.11c-0.53,0.003-0.693,0.356-0.693,0.356
	c-3.49,5.764-7.069,9.419-11.585,9.442c-3.055,0.017-4.812-2.79-5.399-4.78c-2.932-9.953,6.877-20.91,7.64-21.031
	c0.56-0.354,1.322-0.476,1.854-0.479c1.062-0.005,6.288,1.022,6.736,2.545c0.068,0.234,0.006,0.469-0.659,0.472
	c-1.063,0.006-3.419,0.137-5.224,2.139c0,0-8.004,8.955-6.176,15.16c0.173,0.586,0.414,1.405,1.477,1.399
	c0,0,5.504-0.732,7.74-5.787c-0.035-0.117-0.104-0.351-0.238-0.35c0,0-1.5-0.579-1.81-1.633c-0.661-2.693,3.411-6.937,6.466-6.953
	c0.665-0.003,1.895,0.107,2.136,0.927c0.621,2.108-0.756,3.757-0.583,4.343c0.068,0.233,0.27,0.467,0.935,0.464
	c0,0,10.261,0.063,24.135-6.577c0,0,0.099-0.117,0.231-0.117C429.423,79.602,429.592,79.717,429.693,80.068z"/>
<path fill="#CA2C26" stroke="#CA2C26" stroke-width="0.7622" stroke-miterlimit="10" d="M423.469,100.037
	c-0.093,0.587-0.422,0.823-0.422,0.823c-1.596,0.008-2.618-2.566-2.723-2.917c-0.379-1.288,0.254-4.106,1.874-7.633
	c1.46-3.174,2.689-6.229,2.689-6.229c3.521-8.814,2.64-13.617,2.226-15.021l-0.139-0.469c0,0-0.172-0.585,0.492-0.589
	c0.133-0.001,0.566,0.114,0.866,0.229c0,0,3.492,0.568,4.453,3.378c0.173,0.585,0.321,1.991-0.539,5.397
	c0.069,0.234,0.272,0.468,0.404,0.467s0.231-0.119,0.329-0.236c0,0,6.544-5.78,12.23-8.156c0,0,6.738-3.318,13.645-3.354
	c0,0,0.398-0.003,0.433,0.114c0.035,0.117-0.128,0.47-1.019,1.061c-5.492,1.672-17.664,9.123-28.098,20.67
	C430.172,87.571,424.234,97.219,423.469,100.037z"/>
<path fill="#CA2C26" stroke="#CA2C26" stroke-width="0.7622" stroke-miterlimit="10" d="M523.735,95.876
	c-3.536,1.543-5.76,1.672-7.22,1.68c-3.455,0.019-8.414-4.178-9.623-8.276c-0.758-2.575-0.888-5.272-0.99-5.623
	c-0.173-0.586-0.473-0.701-0.738-0.7c-6.197,1.088-19.293,21.21-19.293,21.21c-0.359,0.588-0.758,0.591-0.758,0.591
	c-2.061-0.224-3.12-2.916-3.189-3.15c-1.346-4.565,8.302-24.201,8.302-24.201c7.21-14.813,14.083-36.193,14.083-36.193
	s0.082-1.523,4.199-1.546c1.364,0.11,2.46,0.222,2.668,0.925c0.067,0.234,0.138,0.468-0.025,0.82c0,0-4.48,12.337-12.06,26.801
	c0,0-8.325,15.992-9.557,21.745c0,0-0.029,0.353,0.04,0.587c0.068,0.234,0.235,0.351,0.369,0.35c0.133,0,0.23-0.118,0.525-0.473
	c0,0,14.313-15.085,18.963-15.109c1.062-0.006,2.822,0.103,3.596,0.919c0,0,0.413,1.405-0.516,4.576c0,0-1.965,5.522-0.758,9.62
	c0.586,1.991,1.434,3.51,4.223,3.496c1.328-0.008,3.482-0.37,6.557-1.676c0,0,12.23-4.99,20.752-12.188c0,0,0.331-0.236,0.729-0.237
	c0.265-0.002,0.433,0.115,0.536,0.466c0.033,0.117-0.064,0.235,0.039,0.586c0.104,0.352,0.455,1.991-1.882,3.997
	C535.604,91.005,523.735,95.876,523.735,95.876z"/>
<path fill="#CA2C26" stroke="#CA2C26" stroke-width="0.7622" stroke-miterlimit="10" d="M543.941,91.782
	c0.586,1.99,1.885,2.336,3.877,2.324c1.992-0.01,4.078-0.606,4.078-0.606c12.213-3.7,26.223-13.037,26.223-13.037
	c0.988-0.709,1.584-0.947,1.849-0.948c0.398-0.003,0.469,0.232,0.571,0.583c0.076,3.869-5.043,6.359-5.043,6.359
	c-19.205,11.124-24.051,11.384-24.051,11.384c-0.496,0.12-1.026,0.123-1.56,0.126c-4.249,0.022-7.704-3.127-7.704-3.127
	c-1.373-1.048-2.053-2.451-2.467-3.856c-2-6.791,5.334-19.377,5.639-18.793c1.746-1.299,4.368-1.43,6.492-1.441
	c0,0,1.195-0.006,1.368,0.58c0.069,0.234,0.108,0.82-0.55,1.293C549.998,74.864,542.355,86.396,543.941,91.782z M554.424,60.533
	c-0.929,0.005-2.021,0.363-2.021,0.363c-0.029,0.352-0.393,0.471-0.791,0.473c0,0-1.727,0.01-2.071-1.161
	c-0.726-2.459,2.079-4.233,2.079-4.233c1.219-0.827,2.709-1.187,3.338-1.308c1.33-0.006,2.402,0.926,2.851,2.447
	C558.566,59.691,554.424,60.533,554.424,60.533z"/>
<path fill="#CA2C26" stroke="#CA2C26" stroke-width="0.7622" stroke-miterlimit="10" d="M632.432,82.405
	c0.447,1.522-1.494,3.057-1.494,3.057c-18.195,12.293-39.298,16.976-40.262,16.863c-0.664,0.004-0.935-0.463-1.004-0.697
	c-0.695-2.811,5.518-5.658,7.637-6.139c3.074-1.307,4.805-4.013,4.356-5.534c-0.448-1.522-2.549-2.332-2.549-2.332
	c-4.571-1.971-11.946-2.165-18.985-2.129c-3.055,0.017-4.807-2.319-5.249-3.372c-0.208-0.703,0.486-1.059,0.486-1.059
	s9.903-5.212,20.124-12.067c0,0,6.431-3.904,10.415-3.925c0,0,3.563,0.803,5.153,3.491c0.103,0.352,0.242,0.82-0.156,0.822
	l-0.567-0.115c-1.327,0.007-3.417,0.136-6.826,1.209c0,0-7.546,2.386-13.806,6.874c0,0-3.791,2.482-6.068,3.785
	c0,0-0.891,0.59-0.752,1.059c0.068,0.234,0.404,0.467,1.27,0.697c0,0,12.524,0.52,17.464,2.84c0,0,4.301,1.501,5.06,4.078
	c0.138,0.469,0.32,1.991-0.824,3.521c0,0-0.064,0.235-0.031,0.353c0.035,0.116,0.202,0.233,0.469,0.232
	c0.398-0.002,7.422-1.446,25.436-12.095c0,0,0.1-0.118,0.231-0.119C632.225,81.702,632.432,82.405,632.432,82.405z"/>
<path fill="#CA2C26" stroke="#CA2C26" stroke-width="0.7622" stroke-miterlimit="10" d="M658.418,96.575
	c-6.92,4.962-16.377,11.696-22.219,11.727c-3.984,0.021-5.255-3.842-6.6-8.408c-3.864-13.114,8.322-31.354,10.939-40.984
	c0.097-0.118,0.063-0.234,0.029-0.352c-0.07-0.234-0.469-0.232-0.601-0.231c-5.204,0.848-8.624,0.982-10.616,0.993
	c-8.766,0.046-14.025-4.266-14.887-7.192c-0.104-0.352-0.074-0.703,0.589-0.707c0.931-0.005,3.798,1.153,6.735,2.544
	c0,0,2.74,1.628,8.186,1.6l2.791-0.015c1.46-0.008,4.348-0.14,8.559-0.749c0,0,0.664-0.003,0.957-0.356
	c0.129-0.47,3.574-7.29,4.969-13.396c0,0,0.879-1.528,4.066-1.545c1.098,0.111,2.328,0.222,2.639,1.275
	c0.139,0.469,0.178,1.055-0.148,1.76c0,0-2.045,4.351-4.6,10.579c0.139,0.468,0.174,0.585,0.572,0.583
	c0.133,0,13.521-2.416,19.232-2.445c0.664-0.004,2.391-0.013,2.666,0.924c0.141,0.468,0.475,3.866-2.049,3.88
	c-1.725,0.009-1.598-0.46-5.316-0.44c-5.578,0.029-8.762,0.514-14.959,1.603c-1.26,0.241-1.295,0.124-1.885,0.831
	c0,0-15.117,29.514-14.023,41.352c0,0,0.006,0.47,0.177,1.055c0.311,1.055,0.99,2.458,2.884,2.566
	c8.633-0.046,25.492-15.967,37.533-20.251c0,0,0.504,0.349,0.676,0.935c0.139,0.468,0.045,1.056-0.58,1.645L658.418,96.575z"/>
<path fill="#CA2C26" stroke="#CA2C26" stroke-width="0.7622" stroke-miterlimit="10" d="M715.365,78.569c0,0,0.361,2.577-2.58,3.883
	c-13.879,6.172-24.807,6.111-24.807,6.111c-0.531,0.002-0.693,0.355-0.693,0.355c-3.49,5.765-7.068,9.419-11.584,9.442
	c-3.057,0.017-4.813-2.789-5.4-4.779c-2.93-9.953,6.879-20.911,7.641-21.032c0.561-0.354,1.324-0.476,1.855-0.479
	c1.063-0.005,6.285,1.023,6.734,2.545c0.068,0.234,0.006,0.469-0.658,0.472c-1.064,0.006-3.42,0.137-5.225,2.139
	c0,0-8.004,8.955-6.176,15.16c0.174,0.586,0.416,1.405,1.477,1.4c0,0,5.504-0.733,7.74-5.788c-0.035-0.117-0.104-0.351-0.236-0.35
	c0,0-1.5-0.578-1.811-1.632c-0.66-2.694,3.41-6.937,6.465-6.953c0.664-0.004,1.893,0.106,2.135,0.926
	c0.621,2.108-0.756,3.757-0.582,4.343c0.068,0.234,0.27,0.468,0.934,0.464c0,0,10.262,0.063,24.137-6.577
	c0,0,0.098-0.117,0.23-0.117S715.262,78.218,715.365,78.569z"/>
<path fill="#CA2C26" stroke="#CA2C26" stroke-width="0.7622" stroke-miterlimit="10" d="M709.137,98.537
	c-0.092,0.587-0.422,0.823-0.422,0.823c-1.594,0.008-2.617-2.566-2.721-2.917c-0.379-1.288,0.254-4.106,1.875-7.633
	c1.461-3.173,2.689-6.229,2.689-6.229c3.521-8.813,2.639-13.617,2.225-15.021l-0.137-0.469c0,0-0.174-0.585,0.492-0.589
	c0.131-0.001,0.564,0.114,0.865,0.229c0,0,3.492,0.568,4.453,3.379c0.172,0.585,0.32,1.991-0.539,5.396
	c0.068,0.234,0.271,0.468,0.404,0.467c0.131-0.001,0.23-0.119,0.33-0.236c0,0,6.543-5.78,12.229-8.156c0,0,6.738-3.318,13.645-3.354
	c0,0,0.398-0.003,0.434,0.113c0.035,0.117-0.127,0.471-1.018,1.061c-5.496,1.672-17.666,9.123-28.1,20.67
	C715.842,86.071,709.904,95.719,709.137,98.537z"/>
<path fill="#CA2C26" stroke="#CA2C26" stroke-width="0.7622" stroke-miterlimit="10" d="M765.141,88.158
	c-0.131,0.001-0.363,0.119-0.363,0.119c-10.453,9.672-15.934,9.583-15.934,9.583c-3.455,0.018-5.631-4.662-5.699-4.896
	c-3.416-11.592,7.811-26.778,7.811-26.778c1.346-1.297,1.143-1.531,3.668-1.545c0.531-0.003,4.055,0.215,4.398,1.385
	c0.068,0.234-0.094,0.588-0.85,1.178c-5.336,4.015-13.066,19.77-11.549,24.921c0.207,0.703,0.412,1.405,2.006,1.397
	c4.916-0.025,14.695-7.466,18.502-11.707c0,0,1.342-1.766,2.508-4.587c0,0,0.646-1.41,3.834-1.427
	c1.463-0.008,3.824,0.331,4.17,1.502c-6.033,10.234-7.797,15.99-16.438,39.488c-0.285,1.293-4.309,12.923-4.982,15.154
	c-0.322,0.707-0.652,0.941-1.051,0.943c-1.064,0.006-1.615-1.866-1.787-2.451c-0.414-1.406-0.465-2.931-0.381-4.455
	c0.201-2.934,2.305-4.82,2.555-6.229c2.211-7.4,9.188-28.428,9.986-31.129C765.441,88.274,765.275,88.157,765.141,88.158z"/>
<rect id="_x3C_Slice_x3E__1_" fill="none" width="800" height="156"/>
</svg>
