<svg xmlns="http://www.w3.org/2000/svg" viewBox="0.0 0.0 42.835 54.0" width="281.7442900241996" height="354.9317716125171"><path fill="#d0a353" d="M26.512 10.596c1.025.007 2.054.405 2.889 1.021 1.484.343 2.903.666 4.074.925.497-.621 1.197-.998 2.024-1.079 2.045-.199 3.595.322 4.716 1.59.211-.042.424-.045.637-.007l.313.056c1.22.22 1.907 1.689 1.596 3.416a4.529 4.529 0 0 1-.316 1.035c.854 2.676-.011 6.335-1.367 8.672-.514.886-1.341 1.974-2.367 2.126-.854.126-1.868.025-3.025-.301.932 4.875.932 9.079.921 9.935a2 2 0 0 1-1.284 1.852c-.51.196-1.301.382-2.388.311.15 1.386.61 3.523 1.985 5.282.425.543.497 1.249.183 1.799-.285.501-.829.766-1.421.688a11.18 11.18 0 0 1-1.958-.421c1.611 1.681 2.3 3.682 2.398 3.986A1.079 1.079 0 0 1 33 52.892a5.523 5.523 0 0 1-1.086-.21c-.13.372-.317.73-.573.993a1.089 1.089 0 0 1-1.354.16 6.683 6.683 0 0 1-1.351-1.144c-.266.193-.556.369-.81.462a1.097 1.097 0 0 1-1.258-.389c-.501-.691-1.068-1.905-1.443-3.093-.326-1.032-.412-1.726-.375-2.204a8.389 8.389 0 0 1-.661-.529c-.912-.133-1.771-.537-2.562-1.204l-.121.047c.002.203.103.601.49 1.377a1.801 1.801 0 0 1-.346 2.104c-1.183 1.149-3.562 2.595-8.177 2.956a1.01 1.01 0 0 1-1.082-1.049 5.932 5.932 0 0 1-.808-.082 1.003 1.003 0 0 1-.635-1.578c.066-.089.139-.177.216-.263a.992.992 0 0 1 .061-1.333c.596-.598 2.208-1.741 4.612-2.53a4.761 4.761 0 0 1-.601-.483c-.983.128-1.897-.088-2.613-.623-.705-.527-1.151-1.311-1.194-2.097a9.864 9.864 0 0 1-.01-.225c-.028-.666-.073-1.751-.594-2.812-1.573-.869-2.282-2.6-1.846-4.425a2.85 2.85 0 0 1-1.002-1.816 3.363 3.363 0 0 1 .013-.986c-1.107.139-2.076-.114-2.475-.384-.374-.253-.568-.643-.531-1.069.053-.615.569-1.057.995-1.248.221-.099.319-.239.318-.326-.002-.104-.152-.275-.477-.405-4.199-1.682-6.195-3.58-5.621-5.343.878-2.694 5.121-6.577 9.496-8.935l-4.414-.603a2.757 2.757 0 0 1-1.911-1.098c-.911-1.226-.662-2.886-.603-3.207.031-.184.36-1.925 1.682-2.784a2.716 2.716 0 0 1 2.18-.359s2.881.65 3.127.704c-.036-1.472.392-2.805.953-3.316l.012-.011c.18-1.221.798-2.179 1.42-2.564a.811.811 0 0 1 .757-.051c.971-.663 2.444-1.112 3.498-.832a.81.81 0 0 1 .498.385c2.183-.462 4.481.356 6.027 1.395 1.549 1.041 2.217.942 2.788.883 5.247-.542 6.624.108 7.178.65.324.317.483.735.447 1.176a.812.812 0 0 1-.788.746c-.139.21-.383.375-.735.384-1.181.032-4.136 1.388-5.075 3.159-.318.603-.361 1.163-.124 1.733z"/><path d="M41.962 16.375c.225-1.251-.188-2.338-.941-2.474l-.311-.056c-.254-.045-.513.022-.756.189-.835-1.202-2.071-1.988-4.377-1.763-.865.084-1.418.576-1.73 1.184a440.109 440.109 0 0 1-4.799-1.087c-.704-.556-1.557-.919-2.422-.958a3.106 3.106 0 0 0-.582.03c-2.202-3.445 3.582-6.492 5.646-6.548.108-.003.107-.039.017-.062-2.421-.596-4.853.637-5.718 1.122-3.34 1.871-5.118 1.458-5.774.975a.234.234 0 0 0-.325.053c-.08.108-.145.22-.194.334-.009.022-.042.018-.045-.005-.162-1.361 1.143-1.577 2.121-1.325.026.007.023.044-.004.046a3.11 3.11 0 0 0-.967.247c-.123.054-.128.232-.007.289 1.364.651 3.953-.509 4.983-1.102 2.781-1.6 5.462-1.409 6.647-.957.14-1.732-5.972-1.029-6.793-.946-.821.082-1.656.051-3.262-1.022-2.58-1.725-4.97-1.554-6.277-1.005a2.692 2.692 0 0 0-.005-.665c-.935-.248-2.56.333-3.272 1.083a5.147 5.147 0 0 0-.348-.294c-.468.29-1.114 1.321-1.087 2.673l-.226-.188c-.406.37-.938 1.965-.569 3.752-.657-.145-4.243-.95-4.243-.95a1.93 1.93 0 0 0-1.553.249c-1.042.677-1.316 2.191-1.326 2.25-.03.161-.269 1.599.457 2.576.328.442.801.71 1.362.776l4.056.553c.963.134 2.03.284 3.095.429C7.44 15.702 1.829 20.441.868 23.39c-.4 1.227 1.465 2.862 5.151 4.339 1.336.535 1.231 1.758.19 2.225-.407.183-.738.637-.341.905.361.245 1.976.587 3.412-.247-.426.651-.707 1.399-.601 2.18.107.787.584 1.279 1.145 1.601-.666 1.761-.048 3.422 1.498 4.144.796 1.433.78 2.943.816 3.598.055 1.004 1.214 2.377 3.279 1.889.599.69 1.352 1.081 1.931 1.203.155.246.467.445.467.445-3.26.656-5.434 2.129-6.117 2.813-.101.101-.044.278.099.312.242.057.585.109.93.049 0 0-.819.594-1.228 1.145-.082.11-.012.271.126.296.631.113 1.562.109 2.223-.098-.37.308-.603.689-.73.947-.064.129.045.282.191.27 4.027-.315 6.415-1.504 7.675-2.729a.993.993 0 0 0 .186-1.16c-.535-1.073-.77-1.846-.384-2.384.172-.045.542-.194.908-.348.725.716 1.645 1.283 2.748 1.374 0 0 .755.714 1.271.938-.597.56.59 3.916 1.512 5.188.074.103.208.145.323.103.414-.151 1.067-.693 1.227-.893.251.523 1 1.249 1.642 1.65.112.07.255.054.344-.038.335-.343.539-1.075.574-1.603.402.328 1.126.525 1.736.579a.267.267 0 0 0 .279-.353c-.397-1.228-1.756-4.068-4.418-5.257 0 0 .332-.638.463-1.221 1.192 1.144 2.829 1.657 4.39 1.859.629.081.927-.63.494-1.183-1.731-2.212-2.175-4.973-2.224-6.713 1.407.271 2.385.089 2.974-.137a1.2 1.2 0 0 0 .764-1.105c.024-1.84-.117-6.357-1.192-11.148 1.378.541 2.816.896 3.989.722 1.831-.272 4.374-6.464 2.972-10.051.183-.312.323-.694.4-1.121zM10.676 26.979c-.115-1.42-.744-2.814-2.036-3.252a15.632 15.632 0 0 0-2.066.598c2.327-1.869 4.845-1.831 4.845-1.831-.317 1.436-.593 2.98-.743 4.485zm25.33-7.016s-1.591-1.984-3.543-3.804l1.242.174c.132.569.362.979.863 1.037.729.084 1.127-.151 1.543-.633l.148.033c.063.504.191 1.968-.253 3.193z"/><g fill="#d0a353"><path d="M33.519 14.949a3.18 3.18 0 0 1 .045-.63c-.98-.215-2.171-.483-3.447-.775.188.293.341.602.448.922zM4.833 8.436c-.31.558-.266 1.713.536 1.909l7.717 1.262c-1.133-.809-1.816-1.766-2.2-2.723-.862-.19-4.757-1.064-4.757-1.065-.318-.076-.908-.083-1.296.617zM36.847 15.493l2.117.346.001-.004c.046-.254.115-.496.203-.719a20.834 20.834 0 0 1-1.877-.132 3.56 3.56 0 0 0-.444.509zM40.344 17.352c-.12-.313-.166-.765-.072-1.283.126-.699.447-1.2.753-1.382a.328.328 0 0 0-.138-.062l-.275-.049c-.343-.061-.838.49-.999 1.381-.091.505-.043.946.078 1.244z"/></g><path fill="#fff" d="M12.932 30.617c-.57-7.001 2.918-14.971 3.765-16.859a9.48 9.48 0 0 0-.907.469c-1.011-.808-1.4-3.165-1.576-4.867.52-.565.969-1.292 1.148-2.066 3.031-.297 3.14 4.478 2.676 6.218 2.086-2.069 5.185-1.896 6.396-1.281a2.77 2.77 0 0 0-.815 2.508c.067.367.2.725.384 1.063-1.04 4.016-4.944 11.164-11.071 14.815z"/><path fill="#ee3124" d="M26.63 17.985c-.235 3.927-1.779 18.244-11.087 24.127-.627.396-1.375.571-1.764-.286-.379-.837-.212-1.621-.471-2.22.508.397.971.807 1.287 1.165.069.079.194-.002.152-.099-.604-1.399-2.12-2.535-2.938-3.195-.849-.684-.92-1.81-.528-2.548.231.058.426.101.551.144.41.141.865.262 1.186.423.096.048.2-.056.149-.151-.151-.278-.537-.628-1.231-.899-1.681-.656-1.722-1.36-1.847-1.825-.11-.411.011-1.323 1.034-2.024-.004.364.005.692.027.948 0 0-.183.107-.299.241-.033.038-.01.099.04.104 2.89.324 10.028-3.902 13.772-13.891-.345 2.466-3.094 8.541-7.118 13.807-.06.078.045.177.118.111 1.641-1.463 4.801-5.716 7.002-10.071-.448 2.608-3.338 11.447-7.068 16.544-.06.082.054.177.125.104 2.21-2.261 7.132-10.059 8.908-20.509z"/><path fill="#d0a353" d="M15.131 1.686c-.066.399-.254 1.061-.588 1.522a2.443 2.443 0 0 0-.766.394 2.805 2.805 0 0 0-.386-.969c.402-.416 1.01-.845 1.74-.947z"/><path fill="#d0a353" d="M12.908 6.285a3.356 3.356 0 0 1 1.284-.876c.628-.564 1.105-1.225 1.065-1.68-.822.047-1.945.739-2.301 1.642a1.764 1.764 0 0 1 .272-1.009c-.059-.548-.373-1.332-.647-1.566-.485.553-.511 1.504-.324 2.377.271.319.5.68.651 1.112z"/><path fill="#d0a353" d="M12.82 9.734c-.211-.449.004-.756.246-.964.972-.833 1.726-2.229 1.541-2.919-.874.212-2.035 1.119-2.252 2.389-.101-.523-.052-.938.055-1.248-.063-.629-.676-1.51-.861-1.636-.624 1.051-.091 3.255 1.271 4.378zM29.783 14.648c-.242-1.321-1.642-2.497-3.018-2.55s-2.356 1.018-2.114 2.338c.242 1.321 1.642 2.497 3.018 2.55 1.376.054 2.356-1.018 2.114-2.338z"/><path fill="none" d="M27.53 13.288c.202-.001.371.013.515.043-.324-.288-.735-.482-1.151-.51-.121-.008-.235 0-.343.02.144.198.433.449.979.447z"/><ellipse cx="27.213" cy="14.394" rx="1.756" ry="2.313" transform="rotate(-49.998 27.212 14.395)"/><path fill="#d0a353" d="M26.893 12.821c.417.027.827.221 1.151.51a2.477 2.477 0 0 0-.515-.043c-.546.002-.835-.249-.979-.447.108-.019.222-.028.343-.02zM27.492 15.674c-.634-.042-1.257-.468-1.576-1.029a.363.363 0 0 1-.048-.159.477.477 0 0 1 .101-.339.364.364 0 0 1 .302-.123c.22.009.544.122.839.616l.069.117c.162.278.372.728.633.9a1.395 1.395 0 0 1-.32.017z"/><path fill="#d0a353" d="M28.485 13.88c.082.146.141.303.175.464.102.487-.06.9-.39 1.132a.207.207 0 0 1-.245-.004c-.218-.169-.468-.637-.601-.864l-.071-.121c-.385-.643-.847-.755-1.088-.765a.614.614 0 0 0-.503.206.528.528 0 0 0-.06.086c-.057-.508.181-.918.595-1.097.238.435.741.677 1.308.675.597-.002.793.133.88.288zM18.038 13.512c.464-1.74.356-6.515-2.676-6.218a4.305 4.305 0 0 1-.593 1.352c1.158-.292 3.053.926 3.269 4.866z"/><path fill="#fff" d="M18.868 4.507a4.25 4.25 0 0 1-1.226.572.268.268 0 0 0 .241.198.241.241 0 0 0 .219-.112c-.084.477-.454.821-.893.796-.348-.02-.645-.267-.788-.61.17.598.566 1.025 1.057 1.052.699.039 1.365-.751 1.39-1.896zM26.842 35.216c.002-.591.027-1.78.027-1.78-.8.228-1.853.074-2.368-.145-1.579 3.727-3.931 7.304-7.446 9.678.787.607 2.034.911 3.497.356-.291-.271-.51-.733-.66-1.146-.041-.114.107-.197.185-.105 1.678 1.98 4.381 2.721 5.954 2.208 2.386-.779 3.166-4.726 2.811-7.883-1.608.015-2.001-.812-2-1.183z"/><path fill="#ee3124" d="M29.582 17.63c-.174.122-.369.23-.581.317.211 1.01.267 2.033.198 3.206-.005.083-.123.092-.14.011a18.396 18.396 0 0 0-.896-3.004 2.917 2.917 0 0 1-.42.016c-.048.862-.308 7.356-2.763 13.84.417.281 1.154.177 1.868.075.457-.065.894-.127 1.259-.093a.251.251 0 0 0 .275-.219c.209-1.706.416-4.553.382-6.322-.002-.079.11-.097.132-.021.444 1.515.574 5.252.542 7.474a.753.753 0 0 1-.418.672c-.736.355-1.002.965-.915 1.231.095.289.388.492 1.072.336.604-.137 1.471-.258 2.197-.186a.25.25 0 0 0 .274-.257c-.078-2.881-.198-7.841-1.319-11.665-.019-.063.069-.1.101-.042 1.477 2.709 2.172 7.895 2.518 12.316a.661.661 0 0 1-.499.69c-.905.231-1.538.633-1.453 1.001.102.438.596.61 1.253.458.539-.125 1.345-.052 1.87.03a.25.25 0 0 0 .29-.254c-.071-3.34-.335-12.486-4.827-19.61z"/><path fill="#fff" d="m39.223 17.81-.237-.229c-.137-.077-.602-.242-1.258-.43.133 2.449-1.213 4.773-2.601 5.327-.079.032-.151-.062-.099-.129.285-.367.399-.712.399-.712-.968-1.313-3.87-4.212-5.028-4.881 1.441 1.953 2.503 4.285 3.284 6.69 1.373 1.054 3.469 1.625 4.047 1.463 1.487-.419 2.87-4.539 2.105-6.616-.244-.066-.453-.232-.612-.483z"/><path fill="#d0a353" d="M35.946 52.693h-.478v1.306h-.326v-1.306h-.479v-.28h1.283zM38.122 54h-.327v-1.264h-.008L37.328 54h-.314l-.445-1.264h-.008v1.263h-.326v-1.586h.563l.37 1.035h.008l.385-1.035h.56V54z"/></svg>