<?xml version="1.0" encoding="UTF-8" standalone="no"?>
<!-- Created with Inkscape (http://www.inkscape.org/) -->

<svg
   xmlns:dc="http://purl.org/dc/elements/1.1/"
   xmlns:cc="http://creativecommons.org/ns#"
   xmlns:rdf="http://www.w3.org/1999/02/22-rdf-syntax-ns#"
   xmlns:svg="http://www.w3.org/2000/svg"
   xmlns="http://www.w3.org/2000/svg"
   xmlns:sodipodi="http://sodipodi.sourceforge.net/DTD/sodipodi-0.dtd"
   xmlns:inkscape="http://www.inkscape.org/namespaces/inkscape"
   version="1.1"
   id="svg2"
   xml:space="preserve"
   width="381.97479"
   height="135.30173"
   viewBox="0 0 381.97479 135.30172"
   sodipodi:docname="2017 - Paris Roubaix.svg"
   inkscape:version="0.92.2 (5c3e80d, 2017-08-06)"><metadata
     id="metadata8"><rdf:RDF><cc:Work
         rdf:about=""><dc:format>image/svg+xml</dc:format><dc:type
           rdf:resource="http://purl.org/dc/dcmitype/StillImage" /><dc:title></dc:title></cc:Work></rdf:RDF></metadata><defs
     id="defs6"><clipPath
       clipPathUnits="userSpaceOnUse"
       id="clipPath4164"><path
         d="M 37.909,40.255 H 324.391 V 141.732 H 37.909 Z"
         id="path4162"
         inkscape:connector-curvature="0" /></clipPath></defs><sodipodi:namedview
     pagecolor="#ffffff"
     bordercolor="#666666"
     borderopacity="1"
     objecttolerance="10"
     gridtolerance="10"
     guidetolerance="10"
     inkscape:pageopacity="0"
     inkscape:pageshadow="2"
     inkscape:window-width="1920"
     inkscape:window-height="1017"
     id="namedview4"
     showgrid="false"
     fit-margin-top="0"
     fit-margin-left="0"
     fit-margin-right="0"
     fit-margin-bottom="0"
     inkscape:zoom="1.189304"
     inkscape:cx="220.38735"
     inkscape:cy="119.52421"
     inkscape:window-x="-8"
     inkscape:window-y="32"
     inkscape:window-maximized="1"
     inkscape:current-layer="g10" /><g
     id="g10"
     inkscape:groupmode="layer"
     inkscape:label="2017 - Paris Roubaix"
     transform="matrix(1.3333333,0,0,-1.3333333,-50.545332,188.976)"><g
       id="g4158"
       style="fill:#000000"><g
         id="g4160"
         clip-path="url(#clipPath4164)"
         style="fill:#000000"><g
           id="g4166"
           transform="translate(141.7834,54.0424)"
           style="fill:#000000"><path
             d="m 0,0 c -0.184,0.127 -0.32,0.222 -0.504,0.349 h -10.599 c -0.216,-0.251 -0.32,-0.371 -0.535,-0.622 1.415,-10.026 7.795,-12.029 17.159,-12.204 0.215,0.211 0.334,0.329 0.549,0.54 v 8.622 C 5.869,-3.106 5.752,-2.984 5.551,-2.776 2.364,-2.668 0.732,-2.023 0,0"
             style="fill:#000000;fill-opacity:1;fill-rule:nonzero;stroke:none"
             id="path4168"
             inkscape:connector-curvature="0" /></g><g
           id="g4170"
           transform="translate(166.5375,81.1899)"
           style="fill:#000000"><path
             d="M 0,0 0.54,0.54 V 4.855 C 0.329,5.066 0.211,5.184 0,5.395 h -10.348 c -0.211,-0.211 -0.329,-0.329 -0.54,-0.54 V 3.08 C -9.685,1.877 -9.011,1.203 -7.808,0 Z"
             style="fill:#000000;fill-opacity:1;fill-rule:nonzero;stroke:none"
             id="path4172"
             inkscape:connector-curvature="0" /></g><g
           id="g4174"
           transform="translate(140.9537,56.0167)"
           style="fill:#000000"><path
             d="M 0,0 C 0.213,0.229 0.324,0.348 0.538,0.577 0.506,1.064 0.491,1.592 0.491,2.169 v 27.909 c -0.211,0.211 -0.329,0.329 -0.541,0.54 h -10.349 c -0.21,-0.211 -0.328,-0.329 -0.539,-0.54 V 2.398 c 0,-0.654 0.015,-1.283 0.044,-1.888 0.209,-0.197 0.331,-0.313 0.54,-0.51 z"
             style="fill:#000000;fill-opacity:1;fill-rule:nonzero;stroke:none"
             id="path4176"
             inkscape:connector-curvature="0" /></g><g
           id="g4178"
           transform="translate(166.6062,79.6798)"
           style="fill:#000000"><path
             d="m 0,0 h -10.348 c -0.211,-0.211 -0.329,-0.329 -0.54,-0.54 v -18.983 -2.365 c 0,-4.993 -1.346,-6.3 -5.726,-6.509 -0.198,-0.208 -0.315,-0.331 -0.513,-0.539 v -8.642 c 0.215,-0.211 0.335,-0.329 0.55,-0.54 10.349,0.166 16.443,2.644 17.057,14.442 0.021,0.021 0.036,0.037 0.06,0.061 v 1.973 2.119 18.983 C 0.329,-0.329 0.211,-0.211 0,0"
             style="fill:#000000;fill-opacity:1;fill-rule:nonzero;stroke:none"
             id="path4180"
             inkscape:connector-curvature="0" /></g><g
           id="g4182"
           transform="translate(207.0205,65.5259)"
           style="fill:#000000"><path
             d="m 0,0 c 3.497,1.281 4.857,4.335 4.857,8.473 0,6.749 -1.183,12.636 -16.06,12.636 h -20.224 c -0.211,-0.211 -0.329,-0.329 -0.54,-0.54 V 7.633 c 0.211,-0.211 0.329,-0.329 0.54,-0.54 h 10.637 v 4.723 h 9.438 c 4.878,0 5.444,-0.682 5.444,-4.478 0,-0.908 0.012,0.106 0.012,-1.983 0,-2.105 -2.186,-2.42 -2.844,-2.49 l -11.441,2.59 c -0.036,0.004 -0.072,0.008 -0.108,0.012 h -11.138 c -0.211,-0.211 -0.329,-0.329 -0.54,-0.54 v -16.95 c 0.211,-0.211 0.329,-0.329 0.54,-0.54 h 10.097 c 0.211,0.211 0.329,0.329 0.54,0.54 v 7.887 c 0.267,0.217 0.385,0.312 0.652,0.528 1.769,-0.378 9.948,-2.252 14.297,-3.218 0.013,-0.02 0.024,-0.038 0.038,-0.06 1.182,-0.572 1.3,-1.376 1.3,-3.167 0,-1.809 0.295,-4.127 -5.199,-4.127 h -14.684 v -0.009 h -6.967 c -0.211,-0.21 -0.329,-0.329 -0.54,-0.54 v -4.513 l 0.01,-3.961 7.095,-0.012 c 0.002,-0.003 0.004,-0.004 0.005,-0.006 h 3.534 0.042 12.836 c 5.912,0 14.895,1.224 14.895,11.992 C 6.524,-2.562 4.265,-1.674 0,0"
             style="fill:#000000;fill-opacity:1;fill-rule:nonzero;stroke:none"
             id="path4184"
             inkscape:connector-curvature="0" /></g><g
           id="g4186"
           transform="translate(255.4005,46.6078)"
           style="fill:#000000"><path
             d="m 0,0 h -9.33 c -0.216,-0.304 -0.295,-0.416 -0.51,-0.719 l 1.132,-3.224 c 0.187,-0.132 0.323,-0.228 0.51,-0.36 H 2.629 c 0.215,0.31 0.291,0.42 0.506,0.73 l -0.72,1.904 C 1.531,-1.058 0.883,-0.61 0,0"
             style="fill:#000000;fill-opacity:1;fill-rule:nonzero;stroke:none"
             id="path4188"
             inkscape:connector-curvature="0" /></g><g
           id="g4190"
           transform="translate(242.1022,86.6345)"
           style="fill:#000000"><path
             d="m 0,0 h -3.854 c -0.211,-0.21 -0.33,-0.329 -0.54,-0.539 v -16.163 c 0.009,-0.059 0.019,-0.116 0.029,-0.175 l 3.877,-11.355 c 0.187,-0.134 0.323,-0.231 0.51,-0.366 h 10.384 c 0.215,0.311 0.291,0.42 0.506,0.731 L 0.505,-0.349 C 0.32,-0.222 0.185,-0.127 0,0"
             style="fill:#000000;fill-opacity:1;fill-rule:nonzero;stroke:none"
             id="path4192"
             inkscape:connector-curvature="0" /></g><g
           id="g4194"
           transform="translate(255.5858,50.8334)"
           style="fill:#000000"><path
             d="m 0,0 -1.977,5.228 c -0.185,0.128 -0.321,0.222 -0.505,0.35 h -21.999 l 4.397,13.033 c 0.01,0.06 0.019,0.117 0.029,0.177 v 13.345 c -1.433,1.432 -2.236,2.236 -3.669,3.668 h -0.609 c -0.188,-0.132 -0.322,-0.227 -0.509,-0.36 L -35.563,5.24 c -0.01,-0.006 -0.019,-0.012 -0.029,-0.019 l -4.687,-13.027 c 0.215,-0.306 0.293,-0.417 0.509,-0.723 h 10.021 c 0.188,0.134 0.323,0.232 0.511,0.366 l 1.759,5.17 c 0.188,0.134 0.324,0.231 0.512,0.367 h 11.949 V -2.6 H -1.796 C -1.032,-1.495 -0.763,-1.105 0,0"
             style="fill:#000000;fill-opacity:1;fill-rule:nonzero;stroke:none"
             id="path4196"
             inkscape:connector-curvature="0" /></g><g
           id="g4198"
           transform="translate(263.1213,56.8053)"
           style="fill:#000000"><path
             d="m 0,0 c -0.21,-0.211 -0.329,-0.329 -0.54,-0.54 v -13.421 c 0.211,-0.211 0.33,-0.329 0.54,-0.54 h 10.472 c 0.211,0.211 0.33,0.329 0.54,0.54 V -0.54 c -0.21,0.211 -0.329,0.329 -0.54,0.54 z"
             style="fill:#000000;fill-opacity:1;fill-rule:nonzero;stroke:none"
             id="path4200"
             inkscape:connector-curvature="0" /></g><g
           id="g4202"
           transform="translate(273.2473,58.9711)"
           style="fill:#000000"><path
             d="m 0,0 v 5.686 c -0.825,0.88 -1.315,1.401 -2.14,2.28 l -8.839,0.557 c -0.227,-0.214 -0.346,-0.327 -0.574,-0.54 V 0 c 0.211,-0.211 0.329,-0.329 0.541,-0.54 H -0.54 C -0.329,-0.329 -0.211,-0.211 0,0"
             style="fill:#000000;fill-opacity:1;fill-rule:nonzero;stroke:none"
             id="path4204"
             inkscape:connector-curvature="0" /></g><g
           id="g4206"
           transform="translate(263.1213,86.6345)"
           style="fill:#000000"><path
             d="m 0,0 c -0.21,-0.21 -0.329,-0.329 -0.54,-0.539 v -16.43 c 0.195,-0.208 0.311,-0.331 0.506,-0.539 l 10.472,-0.659 c 0.228,0.213 0.347,0.325 0.574,0.539 v 17.089 c -0.21,0.21 -0.329,0.329 -0.54,0.539 z"
             style="fill:#000000;fill-opacity:1;fill-rule:nonzero;stroke:none"
             id="path4208"
             inkscape:connector-curvature="0" /></g><g
           id="g4210"
           transform="translate(279.8466,43.1578)"
           style="fill:#000000"><path
             d="m 0,0 c 0.201,-0.39 0.238,-0.463 0.44,-0.854 h 11.985 c 0.154,0.081 0.284,0.147 0.439,0.227 l 8.352,11.725 c 0.034,0.107 0.065,0.206 0.099,0.314 v 16.723 c -0.494,0.163 -0.479,0.158 -0.973,0.321 z"
             style="fill:#000000;fill-opacity:1;fill-rule:nonzero;stroke:none"
             id="path4212"
             inkscape:connector-curvature="0" /></g><g
           id="g4214"
           transform="translate(296.6191,69.5228)"
           style="fill:#000000"><path
             d="m 0,0 4.211,5.692 c 0.002,0.233 0.004,0.4 0.005,0.634 l -7.497,10.558 c -0.155,0.081 -0.285,0.148 -0.44,0.228 h -12.044 c -0.201,-0.391 -0.239,-0.464 -0.439,-0.855 L -4.576,0.035 C -2.656,0.021 -1.92,0.015 0,0"
             style="fill:#000000;fill-opacity:1;fill-rule:nonzero;stroke:none"
             id="path4216"
             inkscape:connector-curvature="0" /></g><g
           id="g4218"
           transform="translate(305.222,65.2786)"
           style="fill:#000000"><path
             d="m 0,0 c 2.049,1.05 3.76,1.926 5.81,2.976 l 12.61,17.525 c -0.201,0.391 -0.238,0.463 -0.438,0.855 H 6.006 C 5.85,21.276 5.72,21.208 5.565,21.127 l -6.044,-8.571 0.03,-0.022 -0.967,-1.308 -0.919,-1.304 C -2.369,9.816 -2.401,9.717 -2.434,9.611 V 0.539 C -2.223,0.329 -2.105,0.21 -1.894,0 Z"
             style="fill:#000000;fill-opacity:1;fill-rule:nonzero;stroke:none"
             id="path4220"
             inkscape:connector-curvature="0" /></g><g
           id="g4222"
           transform="translate(309.6961,63.4299)"
           style="fill:#000000"><path
             d="m 0,0 c -0.154,0.079 -0.283,0.144 -0.437,0.223 h -5.932 c -0.21,-0.211 -0.329,-0.33 -0.539,-0.54 v -8.394 c 0.034,-0.108 0.065,-0.206 0.099,-0.313 l 8.4,-11.873 c 0.156,-0.081 0.286,-0.148 0.441,-0.228 h 12.225 c 0.2,0.392 0.237,0.464 0.437,0.856 z"
             style="fill:#000000;fill-opacity:1;fill-rule:nonzero;stroke:none"
             id="path4224"
             inkscape:connector-curvature="0" /></g><g
           id="g4226"
           transform="translate(110.604,86.8536)"
           style="fill:#000000"><path
             d="M 0,0 C -1.985,0.555 -3.987,0.869 -6.329,0.998 -6.552,0.785 -6.672,0.671 -6.896,0.458 v -8.71 c 0.18,-0.204 0.292,-0.331 0.472,-0.536 2.306,-0.273 3.744,-0.956 4.503,-1.447 1.974,-1.278 2.644,-2.934 2.872,-5.139 0.24,-0.188 0.37,-0.29 0.611,-0.479 l 10.498,1.471 c 0.18,0.233 0.283,0.366 0.461,0.599 C 11.957,-8.568 9.599,-2.588 0,0"
             style="fill:#000000;fill-opacity:1;fill-rule:nonzero;stroke:none"
             id="path4228"
             inkscape:connector-curvature="0" /></g><g
           id="g4230"
           transform="translate(99.298,50.0877)"
           style="fill:#000000"><path
             d="m 0,0 c -0.554,-0.202 -1.661,-0.433 -2.216,-0.635 l -5.975,-7.122 c 0.106,-0.332 0.14,-0.438 0.245,-0.77 0.323,-0.091 0.654,-0.179 0.993,-0.263 2.473,-0.635 4.441,-1.008 8.024,-1.042 0.21,0.187 0.327,0.292 0.537,0.48 v 7.72 C 1.004,-1.011 0.629,-0.625 0.025,-0.003 0.017,-0.002 0.008,-0.001 0,0"
             style="fill:#000000;fill-opacity:1;fill-rule:nonzero;stroke:none"
             id="path4232"
             inkscape:connector-curvature="0" /></g><g
           id="g4234"
           transform="translate(101.3049,87.4772)"
           style="fill:#000000"><path
             d="m 0,0 c -3.72,0 -9.367,-0.312 -14.474,-3.705 -5.501,-3.65 -6.365,-7.871 -6.477,-13.039 h -0.016 v -7.708 -2.802 -0.229 h 0.002 c 0.015,-5.089 0.592,-12.364 9.151,-16.174 0.207,0.047 0.353,0.082 0.561,0.13 l 6.301,7.433 c -0.081,0.319 -0.111,0.438 -0.192,0.756 -0.597,0.23 -1.055,0.469 -1.372,0.675 -2.91,1.883 -2.99,4.584 -2.99,8.663 v 1.548 4.797 c 0.019,4.092 0.251,6.404 2.746,8.165 1.373,1.004 3.812,1.759 7.214,1.759 0.01,0 0.019,-10e-4 0.027,-10e-4 V -0.48 C 0.295,-0.293 0.191,-0.187 0.005,0 Z"
             style="fill:#000000;fill-opacity:1;fill-rule:nonzero;stroke:none"
             id="path4236"
             inkscape:connector-curvature="0" /></g><g
           id="g4238"
           transform="translate(111.3701,68.8452)"
           style="fill:#000000"><path
             d="m 0,0 c 0.006,-0.428 0.008,-0.871 0.008,-1.334 v -5.265 h 10e-4 v -0.202 c 0,-4.646 -0.08,-7.159 -2.747,-9.043 -1.243,-0.908 -3.244,-1.609 -6.101,-1.735 v -9.752 c 3.715,0.03 9.094,0.457 13.981,3.702 6.054,4.018 6.492,8.727 6.492,14.63 v 8.92 c 0,0.544 -0.006,1.116 -0.026,1.706 z"
             style="fill:#000000;fill-opacity:1;fill-rule:nonzero;stroke:none"
             id="path4240"
             inkscape:connector-curvature="0" /></g><g
           id="g4242"
           transform="translate(74.6892,72.8856)"
           style="fill:#000000"><path
             d="m 0,0 c 0,3.991 0.276,13.695 -15.793,13.603 h -7.316 c -0.187,-0.187 -0.293,-0.292 -0.48,-0.479 V 4.853 c 0.187,-0.188 0.293,-0.292 0.48,-0.479 h 7.867 c 3.768,0 4.286,-1.393 4.286,-4.324 0,-2.612 -0.4,-3.75 -2.661,-4.754 -0.922,-0.444 -6.248,-2.767 -9.305,-4.075 -0.121,-0.182 -0.21,-0.319 -0.329,-0.5 l 0.033,-10.236 0.635,-0.238 c 0,0 12.692,5.746 14.449,6.649 C -6.377,-12.201 0,-9.048 0,0"
             style="fill:#000000;fill-opacity:1;fill-rule:nonzero;stroke:none"
             id="path4244"
             inkscape:connector-curvature="0" /></g><g
           id="g4246"
           transform="translate(66.8788,58.143)"
           style="fill:#000000"><path
             d="M 0,0 -6.047,-2.757 C -6.74,-4.61 -7.128,-5.649 -7.821,-7.501 v -10e-4 l -0.001,-0.002 4.004,-8.087 c 0.155,-0.095 0.275,-0.17 0.43,-0.266 H 7.838 c 0.187,0.306 0.24,0.393 0.427,0.698 L 0.626,-0.219 C 0.383,-0.134 0.242,-0.084 0,0"
             style="fill:#000000;fill-opacity:1;fill-rule:nonzero;stroke:none"
             id="path4248"
             inkscape:connector-curvature="0" /></g><g
           id="g4250"
           transform="translate(38.5862,86.4886)"
           style="fill:#000000"><path
             d="m 0,0 c -0.188,-0.187 -0.293,-0.293 -0.48,-0.48 v -32.887 c 0.187,-0.187 0.292,-0.292 0.48,-0.479 h 10.335 c 0.187,0.187 0.292,0.292 0.48,0.479 l 0.074,32.887 c -0.188,0.187 -0.293,0.293 -0.48,0.48 z"
             style="fill:#000000;fill-opacity:1;fill-rule:nonzero;stroke:none"
             id="path4252"
             inkscape:connector-curvature="0" /></g><g
           id="g4254"
           transform="translate(47.3017,50.869)"
           style="fill:#000000"><path
             d="M 0,0 H -8.912 C -9.1,-0.188 -9.205,-0.293 -9.393,-0.48 v -7.751 c 0.188,-0.188 0.293,-0.293 0.481,-0.48 H 1.45 c 0.187,0.187 0.292,0.292 0.479,0.48 v 6.31 H 1.921 C 1.171,-1.171 0.75,-0.75 0,0"
             style="fill:#000000;fill-opacity:1;fill-rule:nonzero;stroke:none"
             id="path4256"
             inkscape:connector-curvature="0" /></g><g
           id="g4258"
           transform="translate(74.8209,103.0494)"
           style="fill:#000000"><path
             d="m 0,0 23.846,-0.081 c 0.27,0.385 0.368,0.524 0.638,0.909 L 22.015,7.695 C 21.781,7.86 21.61,7.98 21.376,8.144 h -7.408 c -0.272,0.38 -0.373,0.52 -0.643,0.899 l 4.327,12.679 c 0.013,0.074 0.024,0.146 0.037,0.219 v 15.727 l -0.679,0.68 h -3.702 c -0.235,-0.165 -0.406,-0.285 -0.64,-0.45 L -0.639,0.91 C -0.369,0.525 -0.27,0.385 0,0"
             style="fill:#000000;fill-opacity:1;fill-rule:nonzero;stroke:none"
             id="path4260"
             inkscape:connector-curvature="0" /></g><g
           id="g4262"
           transform="translate(82.4809,97.8696)"
           style="fill:#000000"><path
             d="M 0,0 C -1.072,1.498 -1.472,2.057 -2.545,3.555 H -9.404 C -9.638,3.39 -9.809,3.27 -10.043,3.105 l -1.08,-2.999 c 0.272,-0.386 0.37,-0.525 0.64,-0.909 h 9.361 C -0.709,-0.508 -0.412,-0.295 0,0"
             style="fill:#000000;fill-opacity:1;fill-rule:nonzero;stroke:none"
             id="path4264"
             inkscape:connector-curvature="0" /></g><g
           id="g4266"
           transform="translate(107.9391,116.9695)"
           style="fill:#000000"><path
             d="m 0,0 -9.072,23.988 c -0.232,0.161 -0.403,0.279 -0.635,0.439 h -3.417 c -0.266,-0.265 -0.414,-0.414 -0.68,-0.679 V 7.161 c 0.013,-0.073 0.024,-0.145 0.037,-0.219 l 7.229,-20.943 1.914,-5.448 c 0.235,-0.167 0.405,-0.288 0.64,-0.454 H 6.544 c 0.271,0.391 0.366,0.528 0.635,0.919 L 0.06,-0.041 C 0.039,-0.026 0.021,-0.014 0,0"
             style="fill:#000000;fill-opacity:1;fill-rule:nonzero;stroke:none"
             id="path4268"
             inkscape:connector-curvature="0" /></g><g
           id="g4270"
           transform="translate(174.4115,123.0434)"
           style="fill:#000000"><path
             d="M 0,0 0.582,0.582 V 18.107 C 0.354,18.334 0.227,18.462 0,18.689 h -10.392 c -0.227,-0.227 -0.354,-0.355 -0.581,-0.582 V 3.38 L -7.593,0 Z"
             style="fill:#000000;fill-opacity:1;fill-rule:nonzero;stroke:none"
             id="path4272"
             inkscape:connector-curvature="0" /></g><g
           id="g4274"
           transform="translate(173.1205,97.4161)"
           style="fill:#000000"><path
             d="m 0,0 v 10.521 1.672 10.892 c -0.227,0.227 -0.354,0.354 -0.582,0.581 h -10.391 c -0.226,-0.227 -0.354,-0.354 -0.581,-0.581 V 22.585 20.913 0 c 0.227,-0.227 0.355,-0.354 0.581,-0.582 H -0.582 C -0.354,-0.354 -0.227,-0.227 0,0"
             style="fill:#000000;fill-opacity:1;fill-rule:nonzero;stroke:none"
             id="path4276"
             inkscape:connector-curvature="0" /></g><g
           id="g4278"
           transform="translate(61.0174,123.0963)"
           style="fill:#000000"><path
             d="m 0,0 c -1.126,-0.54 -6.637,-2.897 -9.663,-4.187 -0.149,-0.228 -0.261,-0.398 -0.411,-0.624 v -9.547 c 0.416,-0.268 0.545,-0.351 0.961,-0.618 l 14.194,6.469 c 8.122,3.724 8.536,7.768 8.536,13.212 0,3.475 0.656,11.215 -10.179,13.156 C 3.112,17.589 2.961,17.461 2.636,17.19 V 5.68 C 2.653,5.391 2.66,5.082 2.66,4.754 2.66,2.143 2.261,1.004 0,0"
             style="fill:#000000;fill-opacity:1;fill-rule:nonzero;stroke:none"
             id="path4280"
             inkscape:connector-curvature="0" /></g><g
           id="g4282"
           transform="translate(47.389,105.3115)"
           style="fill:#000000"><path
             d="m 0,0 h -8.323 c -0.266,-0.266 -0.415,-0.414 -0.68,-0.679 v -6.88 c 0.265,-0.265 0.414,-0.414 0.68,-0.679 H 1.62 c 0.265,0.267 0.415,0.417 0.68,0.683 L 2.275,-2.264 C 1.387,-1.381 0.887,-0.883 0,0"
             style="fill:#000000;fill-opacity:1;fill-rule:nonzero;stroke:none"
             id="path4284"
             inkscape:connector-curvature="0" /></g><g
           id="g4286"
           transform="translate(48.8062,106.7698)"
           style="fill:#000000"><path
             d="m 0,0 c 0.266,0.266 0.414,0.414 0.679,0.679 v 14.395 h 0.036 v 9.484 c 0.266,0.266 0.414,0.414 0.68,0.679 h 9.358 c 0.715,0 1.313,-0.051 1.812,-0.152 0.339,0.273 0.486,0.391 0.825,0.663 v 7.957 c -0.247,0.262 -0.393,0.417 -0.639,0.679 -0.8,0.054 -1.648,0.083 -2.548,0.083 H -9.908 c -0.265,-0.265 -0.414,-0.414 -0.679,-0.679 V 0.679 C -10.322,0.414 -10.173,0.266 -9.908,0 Z"
             style="fill:#000000;fill-opacity:1;fill-rule:nonzero;stroke:none"
             id="path4288"
             inkscape:connector-curvature="0" /></g><g
           id="g4290"
           transform="translate(130.5697,96.2062)"
           style="fill:#000000"><path
             d="M 0,0 V 6.775 H -0.004 V 23.771 H 0 v 7.671 l -0.679,0.679 h -9.944 l -0.68,-0.679 V 0 l 0.68,-0.679 h 9.944 z"
             style="fill:#000000;fill-opacity:1;fill-rule:nonzero;stroke:none"
             id="path4292"
             inkscape:connector-curvature="0" /></g><g
           id="g4294"
           transform="translate(142.5679,123.067)"
           style="fill:#000000"><path
             d="m 0,0 c -0.461,-0.222 -1.66,-0.749 -3.122,-1.382 l -6.842,-2.792 c -0.15,-0.227 -0.263,-0.398 -0.413,-0.625 v -9.545 c 0.416,-0.267 0.545,-0.351 0.962,-0.618 l 5.249,2.196 6.099,-12.751 c 0.22,-0.136 0.39,-0.242 0.61,-0.378 h 10.776 c 0.264,0.434 0.339,0.555 0.604,0.989 L 5.764,-8.948 c 0.117,0.357 0.182,0.557 0.3,0.915 7.168,3.594 7.553,7.524 7.553,12.737 0,3.466 0.207,11.238 -10.255,13.165 C 3.036,17.598 2.884,17.472 2.558,17.2 V 6.501 C 2.56,6.471 2.563,6.442 2.564,6.413 2.637,5.928 2.66,5.376 2.66,4.754 2.66,2.143 2.261,1.004 0,0"
             style="fill:#000000;fill-opacity:1;fill-rule:nonzero;stroke:none"
             id="path4296"
             inkscape:connector-curvature="0" /></g><g
           id="g4298"
           transform="translate(126.6212,130.091)"
           style="fill:#000000"><path
             d="m 0,0 c 0.845,0.845 1.319,1.318 2.163,2.164 v 8.441 l -0.679,0.679 h -8.129 l -0.68,-0.679 V 0.679 L -6.645,0 Z"
             style="fill:#000000;fill-opacity:1;fill-rule:nonzero;stroke:none"
             id="path4300"
             inkscape:connector-curvature="0" /></g><g
           id="g4302"
           transform="translate(140.6072,132.1453)"
           style="fill:#000000"><path
             d="m 0,0 c 0.704,0 1.293,-0.049 1.787,-0.147 0.315,0.26 0.457,0.378 0.771,0.639 V 8.481 C 2.31,8.742 2.165,8.898 1.918,9.159 1.141,9.21 0.321,9.235 -0.551,9.23 H -9.35 L -10.029,8.551 V 0.679 C -9.764,0.414 -9.615,0.266 -9.35,0 Z"
             style="fill:#000000;fill-opacity:1;fill-rule:nonzero;stroke:none"
             id="path4304"
             inkscape:connector-curvature="0" /></g><g
           id="g4306"
           transform="translate(193.6556,115.3873)"
           style="fill:#000000"><path
             d="M 0,0 C 0.275,0.232 0.404,0.341 0.679,0.573 V 9.301 C 0.524,9.508 0.414,9.653 0.258,9.86 c -1.658,0.496 -2.106,1.321 -2.106,3.204 0,2.376 0.576,3.62 4.566,3.62 l 0.311,0.002 c 0.013,-0.012 0.021,-0.02 0.034,-0.033 l 7.739,0.011 c 3.518,0 4.202,-1.214 4.278,-3.759 0.224,-0.22 0.353,-0.347 0.578,-0.568 l 9.802,-0.044 c 0.229,0.228 0.356,0.354 0.585,0.583 -0.01,4.304 -0.462,13.441 -15.794,13.353 L 3.049,26.195 C 3.035,26.18 3.025,26.171 3.012,26.157 -6.088,26.011 -12.677,22.748 -12.677,12.366 -12.677,3.766 -6.57,1.072 0,0"
             style="fill:#000000;fill-opacity:1;fill-rule:nonzero;stroke:none"
             id="path4308"
             inkscape:connector-curvature="0" /></g><g
           id="g4310"
           transform="translate(202.7086,124.4515)"
           style="fill:#000000"><path
             d="m 0,0 c -0.996,0.113 -1.902,0.209 -2.724,0.296 -1.474,-1.324 -2.215,-1.991 -3.689,-3.317 v -6.024 c 0.036,-0.004 0.071,-0.009 0.106,-0.012 0,0 3.647,-0.303 6.799,-0.599 4.448,-0.391 5.499,-1.609 5.724,-3.034 0.217,-0.186 0.356,-0.304 0.573,-0.489 h 10.176 c 0.228,0.237 0.352,0.366 0.581,0.603 C 17.277,-2.554 11.198,-1.272 0,0"
             style="fill:#000000;fill-opacity:1;fill-rule:nonzero;stroke:none"
             id="path4312"
             inkscape:connector-curvature="0" /></g><g
           id="g4314"
           transform="translate(210.15,109.1108)"
           style="fill:#000000"><path
             d="m 0,0 c -0.267,-2.782 -2.286,-3.248 -6.244,-3.248 h -7.13 c -3.519,0 -4.203,1.214 -4.278,3.759 -0.224,0.22 -0.354,0.348 -0.578,0.568 l -9.803,0.044 c -0.228,-0.228 -0.355,-0.354 -0.584,-0.583 0.009,-4.304 0.46,-13.441 15.793,-13.353 l 7.023,-0.074 c 8.784,0 16.176,2.264 17.047,12.787 -0.23,0.253 -0.349,0.383 -0.579,0.636 H 0.579 C 0.356,0.33 0.223,0.206 0,0"
             style="fill:#000000;fill-opacity:1;fill-rule:nonzero;stroke:none"
             id="path4316"
             inkscape:connector-curvature="0" /></g></g></g></g></svg>