<?xml version="1.0" encoding="UTF-8" standalone="no"?>
<svg id="Layer_1" enable-background="new 0 0 694 1410.58" height="447.09601" viewBox="0 0 222.00017 447.09602" width="222.00017" xmlns="http://www.w3.org/2000/svg" xmlns:xlink="http://www.w3.org/1999/xlink">
   <linearGradient id="SVGID_1_" gradientUnits="userSpaceOnUse" x1="63.9687" x2="530.54657" y1="530.54657" y2="63.9687">
      <stop id="stop59" offset=".7" stop-color="#e98700"/>
      <stop id="stop61" offset="1" stop-color="#e98700" stop-opacity="0"/>
   </linearGradient>
   <linearGradient id="SVGID_2_" gradientUnits="userSpaceOnUse" x1="187.797" x2="610.07501" y1="654.37488" y2="232.097">
      <stop id="stop66" offset=".8" stop-color="#f9b500"/>
      <stop id="stop68" offset="1" stop-color="#f9b500" stop-opacity="0"/>
   </linearGradient>
   <linearGradient id="SVGID_3_" gradientUnits="userSpaceOnUse" x1="299.00851" x2="642.64801" y1="765.58649" y2="421.94699">
      <stop id="stop73" offset=".9" stop-color="#ffe300"/>
      <stop id="stop75" offset="1" stop-color="#ffe300" stop-opacity="0"/>
   </linearGradient>
   <g id="g20" fill="#c28b4c" transform="matrix(.31412127 0 0 .31412127 2 2)">
      <path id="path2630" d="m-396.9 455.36h-14.12v-74.79h-20.55v-13.13h55.22v13.13h-20.55z" transform="translate(460.3107 638.1045)"/>
      <path id="path2634" d="m-241.05 455.36h-16.84l-21.05-37.89-7.92 11.14v26.75h-14.12v-87.91h14.12v39.38h.5l26.75-39.62h16.1l-25.75 38.14z" transform="translate(482.342 638.1045)"/>
      <path id="path2638" d="m-199.68 455.36h-14.12v-37.64l-23.28-50.02h14.61l15.6 34.42h.5l15.6-34.42h14.61l-23.28 50.02z" transform="translate(488.2209 638.1045)"/>
      <path id="path2642" d="m-46.93 455.36h-49.28v-12.63l.25-.25 32.69-42.1c1.49-1.98 2.72-4.21 2.72-8.17 0-7.18-5.7-11.39-10.65-11.39-3.22 0-5.94.99-7.92 2.97-1.98 1.98-3.22 5.2-3.47 9.91v.74h-13.62v-.74c0-7.43 2.72-14.61 7.18-19.56 4.46-4.71 10.15-7.18 16.84-7.18 7.68 0 13.62 2.48 18.08 7.18 4.71 4.71 6.93 10.9 6.93 18.33 0 6.19-1.73 11.14-6.19 16.84l-24.76 32.19.25.25h30.96v13.61z" transform="translate(509.8312 638.1045)"/>
      <path id="path2646" d="m72.92 455.36h-49.28v-12.63l.25-.25 32.69-42.1c1.49-1.98 2.72-4.21 2.72-8.17 0-7.18-5.7-11.39-10.65-11.39-3.22 0-5.94.99-7.92 2.97-1.98 1.98-3.22 5.2-3.47 9.91v.74h-13.62v-.74c0-7.43 2.72-14.61 7.18-19.56 4.46-4.71 10.15-7.18 16.84-7.18 7.43 0 13.62 2.48 18.08 7.18 4.71 4.71 6.93 10.9 6.93 18.33 0 6.19-1.73 11.14-6.19 16.84l-24.76 32.19.25.25h30.96z" transform="translate(526.7658 638.1045)"/>
      <path id="path2650" d="m-146.16 371.43c-8.17 0-14.12 6.19-14.12 14.61v31.7c0 9.16 5.7 15.35 14.12 15.35 8.42 0 14.12-6.19 14.12-15.35v-31.7c0-8.42-5.95-14.61-14.12-14.61m0 75.28c-16.1 0-27.49-11.14-27.49-26.75v-36.16c0-15.6 11.39-26.5 27.49-26.5 16.1 0 27.49 10.9 27.49 26.5v36.4c.25 15.37-11.39 26.51-27.49 26.51" transform="translate(495.7912 647.3599)"/>
      <path id="path2654" d="m-340.25 371.43c-8.17 0-14.12 6.19-14.12 14.61v31.7c0 9.16 5.7 15.35 14.12 15.35 8.42 0 14.12-6.19 14.12-15.35v-31.7c0-8.42-5.95-14.61-14.12-14.61m0 75.28c-16.1 0-27.49-11.14-27.49-26.75v-36.16c0-15.6 11.39-26.5 27.49-26.5 16.34 0 27.49 10.9 27.49 26.5v36.4c0 15.37-11.64 26.51-27.49 26.51" transform="translate(468.3234 647.3599)"/>
      <path id="path2658" d="m-7.54 371.43c-9.16 0-10.9 6.93-10.9 12.88v35.91c0 8.67 3.71 12.88 10.9 12.88 7.43 0 10.9-4.21 10.9-12.88v-35.92c-.01-5.94-1.99-12.87-10.9-12.87m0 75.28c-9.16 0-24.52-5.45-24.52-25.51v-38.14c0-15.35 9.91-25.51 24.52-25.51 14.61 0 24.52 10.15 24.52 25.51v38.14c-.26 20.31-15.61 25.51-24.52 25.51" transform="translate(515.3713 647.3599)"/>
      <path id="path2662" d="m109.53 371.43c-9.16 0-10.9 6.93-10.9 12.88v35.91c0 8.67 3.71 12.88 10.9 12.88 7.43 0 10.9-4.21 10.9-12.88v-35.92c-.01-5.94-1.99-12.87-10.9-12.87m0 75.28c-9.16 0-24.52-5.45-24.52-25.51v-38.14c0-15.35 9.91-25.51 24.52-25.51 14.61 0 24.52 10.15 24.52 25.51v38.14c-.25 20.31-15.61 25.51-24.52 25.51" transform="translate(531.9338 647.3599)"/>
   </g>
   <path id="path22" d="m53.676087 305.70187h5.107612v1.78735h-7.036315v-12.34182h1.928703z" fill="#c28b4c" stroke-width=".31412128"/>
   <path id="path24" d="m60.178403 295.1474l2.296221 4.93484 2.311938-4.93484h2.230263l-3.577849 7.19023v5.15159h-1.928703v-5.15159l-3.577839-7.19023z" fill="#c28b4c" stroke-width=".31412128"/>
   <path id="path26" d="m74.134804 303.63809l2.242827-8.49069h2.915047v12.34182h-1.862735v-8.79854l-2.629193 8.79854h-1.363292l-2.578933-8.742v8.742h-1.862734v-12.34182h2.896197z" fill="#c28b4c" stroke-width=".31412128"/>
   <path id="path28" d="m84.246372 302.98157v4.50765h-1.928703v-12.33869h3.907668c2.6449 0 4.224934 1.36014 4.224934 3.90139 0 2.50354-1.564328 3.93594-4.224934 3.93594l-1.978965-.006zm1.781072-1.78735c1.765354 0 2.497257-.73504 2.497257-2.14544 0-1.3413-.731903-2.09205-2.497257-2.09205h-1.781072v4.24064h1.781072z" fill="#c28b4c" stroke-width=".31412128"/>
   <path id="path30" d="m94.395628 307.48922h-1.928703v-12.34182h1.928703z" fill="#c28b4c" stroke-width=".31412128"/>
   <path id="path32" d="m118.41649 295.1474v1.8062h-3.29514v10.53562h-1.92871v-10.53562h-3.31083v-1.8062z" fill="#c28b4c" stroke-width=".31412128"/>
   <path id="path34" d="m136.66064 307.48922l-2.21456-5.00709h-2.23025v5.00709h-1.92871v-12.34182h3.90767c2.64491 0 4.22494 1.23448 4.22494 3.68464 0 1.69939-.74761 2.78939-2.07949 3.31083l2.44387 5.34635zm-2.59463-6.79758c1.63028 0 2.42815-.46492 2.42815-1.8596 0-1.3947-.79787-1.87844-2.42815-1.87844h-1.84704v3.73804z" fill="#c28b4c" stroke-width=".31412128"/>
   <path id="path36" d="m152.4798 300.21102h4.3914v-5.06049h1.92871v12.34183h-1.92871v-5.49084h-4.3914v5.49084h-1.92871v-12.34183h1.92871z" fill="#c28b4c" stroke-width=".31412128"/>
   <path id="path38" d="m171.37733 307.48922l-2.21455-5.00709h-2.23026v5.00709h-1.92871v-12.34182h3.90767c2.6449 0 4.22493 1.23448 4.22493 3.68464 0 1.69939-.74761 2.78939-2.07949 3.31083l2.44386 5.34635zm-2.59464-6.79758c1.63029 0 2.42816-.46492 2.42816-1.8596 0-1.3947-.79787-1.87844-2.42816-1.87844h-1.84703v3.73804z" fill="#c28b4c" stroke-width=".31412128"/>
   <path id="path40" d="m182.39042 295.1474v1.8062h-5.10761v3.25429h4.60816v1.78735h-4.60816v3.70348h5.10761v1.78735h-7.03631v-12.34181h7.03631z" fill="#c28b4c" stroke-width=".31412128"/>
   <path id="path42" d="m186.81324 305.70187h5.10762v1.78735h-7.03632v-12.34182h1.9287z" fill="#c28b4c" stroke-width=".31412128"/>
   <path id="path44" d="m193.08311 307.48922l3.99248-12.34182h1.82819l3.99247 12.34182h-2.04806l-.78216-2.55696h-4.14327l-.78216 2.55696zm3.3768-4.3443h3.06269l-1.52977-4.98825z" fill="#c28b4c" stroke-width=".31412128"/>
   <path id="path46" d="m204.3632 295.1474l2.29623 4.93484 2.31193-4.93484h2.23026l-3.57784 7.19023v5.15159h-1.92869v-5.15159l-3.57786-7.19023z" fill="#c28b4c" stroke-width=".31412128"/>
   <path id="path2654_2_" d="m123.74712 296.98814c-1.1591 0-2.00095.87954-2.00095 2.07005v4.4888c0 1.29733.80729 2.17687 2.00095 2.17687 1.19366 0 2.00096-.87954 2.00096-2.17687v-4.4888c-.003-1.19365-.84499-2.07005-2.00096-2.07005m0 10.66128c-2.28052 0-3.8951-1.57689-3.8951-3.7883v-5.12018c0-2.21141 1.61144-3.75375 3.8951-3.75375 2.31508 0 3.89511 1.54234 3.89511 3.75375v5.15787c-.003 2.17372-1.64914 3.75061-3.89511 3.75061" fill="#c28b4c" stroke-width=".31412128"/>
   <path id="path49" d="m101.0236 305.72072c-1.193674 0-2.000964-.87954-2.000964-2.17687v-4.48878c0-1.19368.841845-2.07007 2.000964-2.07007 1.13082 0 1.96011.83871 1.99779 1.98839h1.89731v-.2356c0-2.2114-1.5769-3.75374-3.8951-3.75374-2.280531 0-3.895112 1.54234-3.895112 3.75374v5.12018c0 2.21142 1.611437 3.78831 3.895112 3.78831 2.24595 0 3.8951-1.57689 3.8951-3.75376v-.23559h-1.89731c-.0503 1.23765-.84184 2.06379-1.99779 2.06379z" fill="#c28b4c" stroke-width=".31412128"/>
   <path id="path51" d="m144.37233 305.72072c-1.19367 0-2.00096-.87954-2.00096-2.17687v-4.48878c0-1.19368.84184-2.07007 2.00096-2.07007 1.13083 0 1.96011.83871 1.99781 1.98839h1.89729v-.2356c0-2.2114-1.57689-3.75374-3.8951-3.75374-2.28053 0-3.89511 1.54234-3.89511 3.75374v5.12018c0 2.21142 1.61144 3.78831 3.89511 3.78831 2.24596 0 3.8951-1.57689 3.8951-3.75376v-.23559h-1.89729c-.0503 1.23765-.84185 2.06379-1.99781 2.06379z" fill="#c28b4c" stroke-width=".31412128"/>
   <g id="g57" fill="#c28b4c" transform="matrix(.31412127 0 0 .31412127 2 2)">
      <path id="path53" d="m565.6 754.38v2.65h-7.14v20.81h-2.92v-20.81h-7.14v-2.65z"/>
      <path id="path55" d="m580.25 769l7-14.62h2.89v23.46h-2.92v-17.2l-5.71 12.31h-2.62l-5.61-12.21v17.1h-2.92v-23.46h2.86z"/>
   </g>
   <g id="g84" transform="matrix(.31412127 0 0 .31412127 2 2)">
      <polygon id="polygon64" fill="url(#SVGID_1_)" points="466.58 0 0 466.58 127.94 594.52 594.52 127.94"/>
      <polygon id="polygon71" fill="url(#SVGID_2_)" points="550.22 172.24 127.94 594.52 247.66 714.23 669.93 291.96"/>
      <polygon id="polygon78" fill="url(#SVGID_3_)" points="591.3 370.6 247.66 714.23 350.36 816.94 694 473.3"/>
      <path id="path80" d="m572.78 594.52c-56.77-56.77-148.39-57.02-205.16-.25-66.31 66.31-173.38 66.56-239.69.25l-29.13 29.13 251.56 251.56 251.56-251.56z" fill="#c28b4b"/>
   </g>
   <path id="path86" d="m12.978539 302.97844v4.50763h-1.950696v-12.34181h3.951643c2.673179 0 4.26891 1.36014 4.26891 3.89823 0 2.50356-1.580025 3.93595-4.26891 3.93595zm1.799911-1.78736c1.781072 0 2.522394-.7319 2.522394-2.14544 0-1.34131-.73818-2.09204-2.522394-2.09204h-1.799911v4.23748z" fill="#c28b4c" stroke-width=".31412128"/>
   <path id="path88" d="m19.248396 307.48607l4.033317-12.34181h1.850173l4.033318 12.34181h-2.066916l-.791584-2.55695h-4.184092l-.788452 2.55695zm3.414501-4.34429h3.094092l-1.54547-4.99138z" fill="#c28b4c" stroke-width=".31412128"/>
   <path id="path90" d="m37.011962 307.48607l-2.23655-5.00708h-2.252246v5.00708h-1.950696v-12.34181h3.951644c2.673179 0 4.26891 1.23448 4.26891 3.68463 0 1.6994-.757029 2.7894-2.101471 3.30771l2.472131 5.34947zm-2.619774-6.79758c1.645993 0 2.453283-.46489 2.453283-1.8596 0-1.39469-.80729-1.87844-2.453283-1.87844h-1.865878v3.73804z" fill="#c28b4c" stroke-width=".31412128"/>
   <path id="path92" d="m40.194004 307.48607l4.033317-12.34181h1.850173l4.036461 12.34181h-2.066916l-.791583-2.55695h-4.187236l-.791594 2.55695zm3.414501-4.34429h3.094092l-1.54548-4.99138z" fill="#c28b4c" stroke-width=".31412128"/>
   <g id="g5836" transform="matrix(.37081398 0 0 .37081398 -1.6666614 -1.5225785)">
      <path id="path5838" d="m225.67 1136.32c-4.62 2.03-77.07 7.19-69.55-54.74 7.53-61.91 117.67-105.38 138.17-97.75-27.44 14.04-84.27 25.24-105.61 88.26-21.04 62.19 36.47 63.37 36.99 64.23z" fill="#aa272f"/>
      <path id="path5840" d="m337.82 1168.98c-1.38 4.87-44 63.85-86.5 18.26-42.51-45.56-4.91-158.08 14.15-168.94-6.96 30.11-34.92 80.94-.47 137.83 33.96 56.14 71.86 12.75 72.82 12.85z" fill="#00549f"/>
      <path id="path5842" d="m430.14 1075.16c4.3 2.62 50.08 59.12-4.83 88.47-54.88 29.36-153.61-36.14-159.13-57.4 27.23 14.49 68.94 54.73 132.72 36.1 62.84-18.35 30.85-66.27 31.24-67.17z" fill="#008542"/>
   </g>
</svg>
