<svg xmlns:xlink="http://www.w3.org/1999/xlink" xmlns:dc="http://purl.org/dc/elements/1.1/" xmlns:cc="http://creativecommons.org/ns#" xmlns:rdf="http://www.w3.org/1999/02/22-rdf-syntax-ns#" xmlns:svg="http://www.w3.org/2000/svg" xmlns="http://www.w3.org/2000/svg" xmlns:sodipodi="http://sodipodi.sourceforge.net/DTD/sodipodi-0.dtd" xmlns:inkscape="http://www.inkscape.org/namespaces/inkscape" sodipodi:docname="Logo Paris 13 Atletico 2020.svg" inkscape:version="1.0 (4035a4f, 2020-05-01)" id="svg8" version="1.1" viewBox="0 0 211.66667 211.66667" height="300" width="300">
  <defs id="defs2"/>
  <sodipodi:namedview inkscape:window-maximized="0" inkscape:window-y="23" inkscape:window-x="0" inkscape:window-height="780" inkscape:window-width="1434" showgrid="false" inkscape:document-rotation="0" inkscape:current-layer="layer1" inkscape:document-units="mm" inkscape:cy="538.32" inkscape:cx="398.38284" inkscape:zoom="0.1991158" inkscape:pageshadow="2" inkscape:pageopacity="0.0" borderopacity="1.0" bordercolor="#666666" pagecolor="#ffffff" id="base"/>
  <metadata id="metadata5">
    <rdf:RDF>
      <cc:Work rdf:about="">
        <dc:format>image/svg+xml</dc:format>
        <dc:type rdf:resource="http://purl.org/dc/dcmitype/StillImage"/>
        <dc:title/>
      </cc:Work>
    </rdf:RDF>
  </metadata>
  <g transform="translate(60.949997,-60.00238)" id="layer1" inkscape:groupmode="layer" inkscape:label="Calque 1">
    <g transform="matrix(0.92944963,0,0,0.92944963,-4.3000447,4.23319)" id="g2382">
      <circle r="113.86667" cy="173.86905" cx="52.916672" id="path35" style="fill:#27fe00;fill-opacity:1;stroke:none;stroke-width:0.2;stroke-linecap:round;stroke-linejoin:round;stroke-miterlimit:4;stroke-dasharray:none"/>
      <circle cy="173.86905" cx="52.916672" id="circle862" style="fill:#000000;fill-opacity:1;stroke:none;stroke-width:0.192697;stroke-linecap:round;stroke-linejoin:round;stroke-miterlimit:4;stroke-dasharray:none" r="109.70893"/>
      <circle style="fill:#27fe00;fill-opacity:1;stroke:none;stroke-width:0.185395;stroke-linecap:round;stroke-linejoin:round;stroke-miterlimit:4;stroke-dasharray:none" id="circle864" cx="52.916672" cy="173.86905" r="105.5515"/>
      <circle cy="173.86905" cx="52.916672" id="circle866" style="fill:#000000;fill-opacity:1;stroke:none;stroke-width:0.178093;stroke-linecap:round;stroke-linejoin:round;stroke-miterlimit:4;stroke-dasharray:none" r="101.394"/>
      <path id="circle1501" style="fill:#262d35;fill-opacity:1;stroke:none;stroke-width:0.178093;stroke-linecap:round;stroke-linejoin:round;stroke-miterlimit:4;stroke-dasharray:none" d="m 154.31067,173.86905 c 0,55.99836 -45.39564,101.394 -101.393998,101.394 V 72.475052 c 55.998358,10e-7 101.393998,45.395638 101.393998,101.393998" sodipodi:nodetypes="cccc"/>
      <path id="circle1492" style="fill:#27fe00;fill-opacity:1;stroke:none;stroke-width:0.465517;stroke-linecap:round;stroke-linejoin:round;stroke-miterlimit:4;stroke-dasharray:none" d="M 199.85156,392.10938 A 265.03355,265.03355 0 0 0 -65.033203,657.14258 265.03355,265.03355 0 0 0 200,922.17578 265.03355,265.03355 0 0 0 465.0332,657.14258 265.03355,265.03355 0 0 0 200,392.10938 a 265.03355,265.03355 0 0 0 -0.14844,0 z M 200,407.82227 A 249.32033,249.32033 0 0 1 449.32031,657.14258 249.32033,249.32033 0 0 1 200,906.46289 249.32033,249.32033 0 0 1 -49.320312,657.14258 249.32033,249.32033 0 0 1 200,407.82227 Z" transform="scale(0.26458333)"/>
      <circle r="63.703503" cy="173.86905" cx="52.916672" id="circle1494" style="fill:#ffffff;fill-opacity:1;stroke:none;stroke-width:0.111892;stroke-linecap:round;stroke-linejoin:round;stroke-miterlimit:4;stroke-dasharray:none"/>
    </g>
    <g transform="matrix(0.92944963,0,0,0.92944963,-4.3000447,4.23319)" id="g2263">
      <g id="g2236">
        <path id="path895" style="font-style:normal;font-variant:normal;font-weight:normal;font-stretch:normal;font-size:10.5833px;line-height:1.25;font-family:AgencyFB;-inkscape-font-specification:AgencyFB;white-space:pre;fill:#262d35;fill-opacity:1;stroke:#27fe00;stroke-width:0.302326;stroke-miterlimit:4;stroke-dasharray:none;stroke-opacity:1" d="M -41.188664,185.55775 V 167.4281 h -1.479986 v -0.50453 l 1.984491,-7.06349 h 3.262663 v 25.69767 z"/>
        <path id="path897" style="font-style:normal;font-variant:normal;font-weight:normal;font-stretch:normal;font-size:10.5833px;line-height:1.25;font-family:AgencyFB;-inkscape-font-specification:AgencyFB;white-space:pre;fill:#262d35;fill-opacity:1;stroke:#27fe00;stroke-width:0.302326;stroke-miterlimit:4;stroke-dasharray:none;stroke-opacity:1" d="m -21.768261,183.20325 q 0,1.14361 -0.605445,1.74906 -0.605444,0.60544 -1.715426,0.60544 h -7.736214 q -1.109981,0 -1.715426,-0.60544 -0.605444,-0.60545 -0.605444,-1.74906 v -5.449 h 3.767199 v 4.50718 h 4.809899 v -7.73618 h -6.39076 q -1.109982,0 -1.715427,-0.60545 -0.571819,-0.60544 -0.571819,-1.71542 v -9.9898 q 0,-2.3545 2.287246,-2.3545 h 7.837121 q 2.354496,0 2.354496,2.3545 z m -3.800857,-20.04688 h -4.910806 v 8.10622 h 4.910806 z"/>
      </g>
      <g id="g2240">
        <path id="path888" style="font-style:normal;font-variant:normal;font-weight:normal;font-stretch:normal;font-size:10.5833px;line-height:1.25;font-family:AgencyFB;-inkscape-font-specification:AgencyFB;white-space:pre;fill:#000000;fill-opacity:1;stroke:#27fe00;stroke-width:0.285529;stroke-miterlimit:4;stroke-dasharray:none;stroke-opacity:1" d="m 137.51219,183.20325 q 0,2.3545 -2.07014,2.3545 h -6.96045 q -2.07014,0 -2.07014,-2.3545 v -20.98867 q 0,-2.3545 2.04013,-2.3545 h 6.93047 q 0.99005,0 1.53008,0.60544 0.54004,0.60545 0.54004,1.74906 v 5.44896 h -3.36022 v -4.50717 h -4.32028 v 7.73621 h 5.67037 q 1.02006,0 1.53011,0.60545 0.54003,0.60544 0.54003,1.71542 z m -3.36022,-9.04801 h -4.38029 v 8.10619 h 4.38029 z"/>
        <path id="path890" style="font-style:normal;font-variant:normal;font-weight:normal;font-stretch:normal;font-size:10.5833px;line-height:1.25;font-family:AgencyFB;-inkscape-font-specification:AgencyFB;white-space:pre;fill:#000000;fill-opacity:1;stroke:#27fe00;stroke-width:0.286288;stroke-miterlimit:4;stroke-dasharray:none;stroke-opacity:1" d="m 151.22953,183.2098 q 0,1.14432 -0.54258,1.75015 -0.54257,0.60582 -1.53725,0.60582 h -7.26444 q -2.0497,0 -2.0497,-2.35597 v -7.4718 q 0,-0.87506 0.21105,-1.37991 0.21105,-0.50486 0.7837,-0.87509 l 1.899,-1.24529 -1.86884,-1.24529 q -0.54257,-0.37024 -0.78373,-0.84142 -0.21104,-0.50484 -0.21104,-1.3126 v -6.63037 q 0,-2.35597 2.07986,-2.35597 h 7.17397 q 2.04973,0 2.04973,2.35597 v 6.63037 q 0,0.8414 -0.24124,1.3126 -0.21105,0.47118 -0.75356,0.84142 l -1.86887,1.24529 1.899,1.24529 q 0.60287,0.37023 0.81386,0.84144 0.21104,0.47117 0.21104,1.41356 v 7.4718 z m -3.46643,-20.12672 h -4.46111 v 6.1592 l 2.23055,1.48087 2.23056,-1.48087 z m 0.0302,12.11641 -2.26072,-1.44723 -2.29085,1.44723 v 7.13522 h 4.55157 z"/>
      </g>
      <g id="g1010" style="fill:#ffffff">
        <path id="path925" style="font-style:normal;font-variant:normal;font-weight:normal;font-stretch:normal;font-size:28.2223px;line-height:1.25;font-family:AgencyFB;-inkscape-font-specification:AgencyFB;letter-spacing:-1.45521px;white-space:pre;fill:#ffffff;fill-opacity:1;stroke:none" d="m 35.0043,92.230735 q 0.2611,0.923352 -0.08182,1.577572 -0.350604,0.627063 -1.273955,0.888162 l -5.024122,1.420688 2.127193,7.522593 -3.095945,0.87546 -5.867059,-20.748261 8.120066,-2.29614 q 1.901019,-0.537557 2.438577,1.363462 l 2.657071,9.396464 z m -5.56515,-7.752926 -3.802038,1.075115 2.234704,7.902808 3.802038,-1.075116 z"/>
        <path id="path927" style="font-style:normal;font-variant:normal;font-weight:normal;font-stretch:normal;font-size:28.2223px;line-height:1.25;font-family:AgencyFB;-inkscape-font-specification:AgencyFB;letter-spacing:-1.45521px;white-space:pre;fill:#ffffff;fill-opacity:1;stroke:none" d="m 46.22468,100.77465 -1.154076,-3.979421 -4.004322,0.502989 -0.134028,4.141222 -3.164254,0.39747 -0.007,-0.056 1.460552,-21.886287 3.36027,-0.422088 6.800113,20.848655 0.007,0.056 z m -4.728449,-16.131165 -0.354621,9.857751 3.136252,-0.393949 z"/>
        <path id="path929" style="font-style:normal;font-variant:normal;font-weight:normal;font-stretch:normal;font-size:28.2223px;line-height:1.25;font-family:AgencyFB;-inkscape-font-specification:AgencyFB;letter-spacing:-1.45521px;white-space:pre;fill:#ffffff;fill-opacity:1;stroke:none" d="m 57.641829,100.85105 -3.275896,-10.113963 0.05418,-1.946585 3.159675,0.08794 0.190013,-6.827152 -4.062439,-0.113065 -0.522927,18.788775 -3.216097,-0.0895 0.599875,-21.5535 8.548047,0.237908 q 1.946584,0.05418 1.891622,2.028973 l -0.218279,7.842763 q -0.05339,1.918373 -1.973336,1.921404 l -1.100244,-0.03062 3.286103,9.747232 -0.0032,0.11284 z"/>
        <path id="path931" style="font-style:normal;font-variant:normal;font-weight:normal;font-stretch:normal;font-size:28.2223px;line-height:1.25;font-family:AgencyFB;-inkscape-font-specification:AgencyFB;letter-spacing:-1.45521px;white-space:pre;fill:#ffffff;fill-opacity:1;stroke:none" d="M 61.861,101.41697 64.768002,80.052 67.955969,80.485768 65.048967,101.85074 Z"/>
        <path id="path933" style="font-style:normal;font-variant:normal;font-weight:normal;font-stretch:normal;font-size:28.2223px;line-height:1.25;font-family:AgencyFB;-inkscape-font-specification:AgencyFB;letter-spacing:-1.45521px;white-space:pre;fill:#ffffff;fill-opacity:1;stroke:none" d="m 76.9512,102.32081 q -0.252864,0.92564 -0.876779,1.28182 -0.623915,0.35618 -1.522331,0.11075 l -6.26169,-1.71055 q -0.898416,-0.24543 -1.254591,-0.86934 -0.356176,-0.62392 -0.103312,-1.549562 l 1.353571,-4.954907 3.103619,0.84784 -1.160202,4.247069 3.811463,1.0412 1.11558,-4.083713 -4.620592,-7.610885 q -0.284463,-0.458043 -0.351128,-0.856588 -0.03944,-0.391106 0.124182,-0.990052 l 1.264324,-4.628205 q 0.252865,-0.925641 0.87678,-1.281816 0.623914,-0.356175 1.522331,-0.110748 l 6.261689,1.710556 q 0.898417,0.245428 1.254593,0.869343 0.356175,0.623914 0.110748,1.522331 l -1.271762,4.65543 -3.103619,-0.847841 1.070956,-3.920363 -3.811463,-1.041207 -1.026334,3.757014 4.62803,7.583661 q 0.277026,0.485267 0.316465,0.876375 0.06666,0.398544 -0.09696,0.997489 l -1.353571,4.954899 z"/>
      </g>
      <g id="g1003" style="fill:#ffffff">
        <path id="path970" style="font-style:normal;font-variant:normal;font-weight:normal;font-stretch:normal;font-size:26.8111px;line-height:1.25;font-family:AgencyFB;-inkscape-font-specification:AgencyFB;letter-spacing:1.37583px;white-space:pre;fill:#ffffff;fill-opacity:1;stroke:none" d="m 15.114425,264.91081 0.999727,-3.80714 -3.509926,-1.54268 -2.128794,3.31089 -2.7735785,-1.21905 0.021576,-0.0491 11.8638995,-17.13116 2.945393,1.29456 -4.623143,20.31363 -0.02158,0.0491 z m 4.011579,-15.45728 -5.096379,7.86387 2.749033,1.20826 z"/>
        <path id="path972" style="font-style:normal;font-variant:normal;font-weight:normal;font-stretch:normal;font-size:26.8111px;line-height:1.25;font-family:AgencyFB;-inkscape-font-specification:AgencyFB;letter-spacing:1.37583px;white-space:pre;fill:#ffffff;fill-opacity:1;stroke:none" d="m 31.156822,251.60856 -5.017476,17.05293 -2.932178,-0.86273 5.017476,-17.05294 -3.215108,-0.94598 0.764351,-2.5978 9.388116,2.76226 -0.764351,2.5978 z"/>
        <path id="path974" style="font-style:normal;font-variant:normal;font-weight:normal;font-stretch:normal;font-size:26.8111px;line-height:1.25;font-family:AgencyFB;-inkscape-font-specification:AgencyFB;letter-spacing:1.37583px;white-space:pre;fill:#ffffff;fill-opacity:1;stroke:none" d="m 32.275446,270.21394 3.456417,-20.18996 3.012637,0.51575 -2.994958,17.49444 4.915356,0.84148 -0.461459,2.69552 z"/>
        <path id="path976" style="font-style:normal;font-variant:normal;font-weight:normal;font-stretch:normal;font-size:26.8111px;line-height:1.25;font-family:AgencyFB;-inkscape-font-specification:AgencyFB;letter-spacing:1.37583px;white-space:pre;fill:#ffffff;fill-opacity:1;stroke:none" d="m 43.370761,271.90659 1.075675,-20.45541 8.407069,0.44209 -0.142203,2.70419 -5.354821,-0.28159 -0.313973,5.97062 4.605146,0.24217 -0.139387,2.65064 -4.605146,-0.24217 -0.337908,6.42578 5.435143,0.28582 -0.142203,2.70418 z"/>
        <path id="path978" style="font-style:normal;font-variant:normal;font-weight:normal;font-stretch:normal;font-size:26.8111px;line-height:1.25;font-family:AgencyFB;-inkscape-font-specification:AgencyFB;letter-spacing:1.37583px;white-space:pre;fill:#ffffff;fill-opacity:1;stroke:none" d="m 59.630495,254.19226 1.20047,17.73518 -3.049488,0.20642 -1.200469,-17.73518 -3.343737,0.22633 -0.182877,-2.70174 9.76371,-0.66089 0.182877,2.70174 z"/>
        <path id="path980" style="font-style:normal;font-variant:normal;font-weight:normal;font-stretch:normal;font-size:26.8111px;line-height:1.25;font-family:AgencyFB;-inkscape-font-specification:AgencyFB;letter-spacing:1.37583px;white-space:pre;fill:#ffffff;fill-opacity:1;stroke:none" d="m 67.168148,271.19493 -3.322191,-20.21247 3.015997,-0.49572 3.322192,20.21247 z"/>
        <path id="path982" style="font-style:normal;font-variant:normal;font-weight:normal;font-stretch:normal;font-size:26.8111px;line-height:1.25;font-family:AgencyFB;-inkscape-font-specification:AgencyFB;letter-spacing:1.37583px;white-space:pre;fill:#ffffff;fill-opacity:1;stroke:none" d="m 83.27959,265.55481 q 0.498139,1.80946 -1.311323,2.3076 l -6.152168,1.69368 q -1.757762,0.4839 -2.255901,-1.32556 l -4.440551,-16.13005 q -0.498139,-1.80946 1.259624,-2.29337 l 6.152168,-1.69367 q 1.809461,-0.49814 2.3076,1.31132 l 1.273812,4.62705 -2.946837,0.81126 -1.074557,-3.90327 -3.825718,1.05321 4.042041,14.68248 3.825718,-1.05321 -1.14572,-4.16176 2.946837,-0.81125 z"/>
        <path id="path984" style="font-style:normal;font-variant:normal;font-weight:normal;font-stretch:normal;font-size:26.8111px;line-height:1.25;font-family:AgencyFB;-inkscape-font-specification:AgencyFB;letter-spacing:1.37583px;white-space:pre;fill:#ffffff;fill-opacity:1;stroke:none" d="m 96.102199,260.25795 q 0.363683,0.83589 0.113692,1.47096 -0.249991,0.63506 -1.061293,0.98805 l -6.097064,2.65274 q -1.671775,0.72737 -2.420533,-0.99358 l -6.674649,-15.34099 q -0.748759,-1.72095 0.923017,-2.44831 l 6.097063,-2.65275 q 0.811303,-0.35298 1.446369,-0.10299 0.635067,0.24999 0.99875,1.08587 z m -9.177827,-13.43321 -3.859834,1.67936 6.075641,13.96424 3.859835,-1.67936 z"/>
      </g>
    </g>
    <g transform="matrix(0.92944963,0,0,0.92944963,-4.3000447,4.23319)" id="g2360">
      <g id="g2289">
        <path sodipodi:nodetypes="csccc" id="path1278" d="m 52.916,249.31948 c 25.723174,-9.18244 39.817459,-19.82456 51.79728,-40.0836 12.04508,-20.3694 12.81478,-54.70707 5.07001,-95.49265 -17.492474,-3.01888 -40.086368,-4.61525 -56.86729,-4.78792 z" style="fill:#000000;fill-opacity:1;stroke:none;stroke-width:0.1;stroke-linecap:butt;stroke-linejoin:miter;stroke-miterlimit:4;stroke-dasharray:none;stroke-opacity:1"/>
        <path style="fill:#262d35;fill-opacity:1;stroke:none;stroke-width:0.1;stroke-linecap:butt;stroke-linejoin:miter;stroke-miterlimit:4;stroke-dasharray:none;stroke-opacity:1" d="M 52.916,249.31948 C 27.192826,240.13704 13.098541,229.49492 1.1187211,209.23588 -10.926361,188.86648 -11.696059,154.52881 -3.9512898,113.74323 13.541184,110.72435 36.135078,109.12798 52.916,108.95531 Z" id="path1172" sodipodi:nodetypes="csccc"/>
      </g>
      <path sodipodi:nodetypes="csccc" id="path1280" d="m 52.916,245.08615 c 19.486567,-7.00908 35.897438,-17.46014 48.2821,-37.74015 9.69003,-15.86752 11.49186,-49.71779 2.89665,-89.74741 -17.492476,-3.01888 -34.397828,-4.23728 -51.17875,-4.40995 z" style="fill:#262d35;fill-opacity:1;stroke:none;stroke-width:0.1;stroke-linecap:butt;stroke-linejoin:miter;stroke-miterlimit:4;stroke-dasharray:none;stroke-opacity:1"/>
      <g id="g2223">
        <g style="stroke:#000000" id="g2144">
          <path inkscape:connector-curvature="0" sodipodi:nodetypes="ccccc" id="path6808" d="m 20.189214,152.27296 v -28.11201 h 0.940393 v 28.16134 z" style="display:inline;overflow:visible;visibility:visible;fill:none;fill-opacity:1;fill-rule:evenodd;stroke:#000000;stroke-width:0.22551;stroke-linecap:butt;stroke-linejoin:miter;stroke-miterlimit:4;stroke-dasharray:none;stroke-dashoffset:0;stroke-opacity:1;marker:none"/>
          <path sodipodi:nodetypes="cccccccccccccccccc" id="path6784" d="m 29.218953,139.96155 9.078993,-1.07911 -0.1055,3.71617 -0.767875,0.80933 -1.068895,0.15065 c -1.208902,18.16734 -27.7984982,18.20222 -31.4828762,2.47296 l -0.7678737,-0.045 -0.6323691,-1.03448 -0.4068517,8.1e-4 -0.948222,-3.14773 c 0.3308849,0.0752 0.4962013,0.20348 1.0388895,0.40467 l 7.3625672,0.17985 -0.16584,2.68136 -0.4213585,0.0168 -0.2258465,0.76404 c 4.914685,8.49499 19.008688,6.99737 20.822967,-2.11343 l -1.283647,-0.80403 z" style="display:inline;overflow:visible;visibility:visible;fill:#262d35;fill-opacity:1;fill-rule:evenodd;stroke:#000000;stroke-width:0.22551;stroke-linecap:butt;stroke-linejoin:miter;stroke-miterlimit:4;stroke-dasharray:none;stroke-dashoffset:0;stroke-opacity:1;marker:none" inkscape:connector-curvature="0"/>
          <path inkscape:connector-curvature="0" sodipodi:nodetypes="ccccc" id="path6788" d="m 5.0986453,142.88414 1.0840591,0.0899 v 1.39539 l -1.0871412,-0.045 0.0031,-1.44035 z" style="display:inline;overflow:visible;visibility:visible;fill:none;fill-opacity:1;fill-rule:evenodd;stroke:#000000;stroke-width:0.22551;stroke-linecap:butt;stroke-linejoin:miter;stroke-miterlimit:4;stroke-dasharray:none;stroke-dashoffset:0;stroke-opacity:1;marker:none"/>
          <path inkscape:connector-curvature="0" sodipodi:nodetypes="ccccc" id="path6790" d="m 6.8992442,143.01903 1.0450566,0.045 v 1.34888 l -1.0388907,-0.0419 -0.00617,-1.35196 z" style="display:inline;overflow:visible;visibility:visible;fill:none;fill-opacity:1;fill-rule:evenodd;stroke:#000000;stroke-width:0.22551;stroke-linecap:butt;stroke-linejoin:miter;stroke-miterlimit:4;stroke-dasharray:none;stroke-dashoffset:0;stroke-opacity:1;marker:none"/>
          <path inkscape:connector-curvature="0" sodipodi:nodetypes="ccccc" id="path6792" d="m 8.5237911,143.10436 1.1790216,-0.005 0.045169,1.39999 -1.2195669,-0.0869 -0.00463,-1.30852 z" style="display:inline;overflow:visible;visibility:visible;fill:none;fill-opacity:1;fill-rule:evenodd;stroke:#000000;stroke-width:0.22551;stroke-linecap:butt;stroke-linejoin:miter;stroke-miterlimit:4;stroke-dasharray:none;stroke-dashoffset:0;stroke-opacity:1;marker:none"/>
          <path inkscape:connector-curvature="0" sodipodi:nodetypes="ccsc" id="path6794" d="m 30.385635,142.16474 1.538839,-0.093 c 0.100402,-1.18942 -0.04569,-1.85225 -0.852053,-1.74742 -0.841253,0.10938 -0.781978,0.73098 -0.686786,1.84042 z" style="display:inline;overflow:visible;visibility:visible;fill:none;fill-opacity:1;fill-rule:evenodd;stroke:#000000;stroke-width:0.22551;stroke-linecap:butt;stroke-linejoin:miter;stroke-miterlimit:4;stroke-dasharray:none;stroke-dashoffset:0;stroke-opacity:1;marker:none"/>
          <path inkscape:connector-curvature="0" sodipodi:nodetypes="ccccc" id="path6802" d="m 3.4243053,144.95244 0.6806208,1.12407 5.6461393,-0.13182 0.2725556,-0.85583 z" style="display:inline;overflow:visible;visibility:visible;fill:none;fill-opacity:1;fill-rule:evenodd;stroke:#000000;stroke-width:0.22551;stroke-linecap:butt;stroke-linejoin:miter;stroke-miterlimit:4;stroke-dasharray:none;stroke-dashoffset:0;stroke-opacity:1;marker:none"/>
          <path inkscape:connector-curvature="0" sodipodi:nodetypes="cc" id="path6806" d="m 8.5438287,145.94622 c 1.5677673,7.22919 19.3132343,12.24521 23.3852693,-2.25274" style="display:inline;overflow:visible;visibility:visible;fill:none;stroke:#000000;stroke-width:0.22551;stroke-linecap:butt;stroke-linejoin:miter;stroke-miterlimit:4;stroke-dasharray:none;stroke-dashoffset:0;stroke-opacity:1;marker:none"/>
          <path sodipodi:nodetypes="ccccc" id="path6804" d="m 34.684418,143.60355 -1.453115,0.048 c -1.238662,13.9834 -22.349647,14.01177 -26.054877,2.36553 l -1.0383325,0.0144 c 1.3230207,11.18422 26.5977015,15.54984 28.5463245,-2.42799 z" style="display:inline;overflow:visible;visibility:visible;fill:none;fill-opacity:1;fill-rule:evenodd;stroke:#000000;stroke-width:0.22551;stroke-linecap:butt;stroke-linejoin:miter;stroke-miterlimit:4;stroke-dasharray:none;stroke-dashoffset:0;stroke-opacity:1;marker:none" inkscape:connector-curvature="0"/>
          <path id="path6818" d="M 32.290128,139.60119 21.178852,127.64171 33.901045,139.37638" style="display:inline;overflow:visible;visibility:visible;fill:none;stroke:#000000;stroke-width:0.22551;stroke-linecap:butt;stroke-linejoin:miter;stroke-miterlimit:4;stroke-dasharray:none;stroke-dashoffset:0;stroke-opacity:1;marker:none" inkscape:connector-curvature="0" sodipodi:nodetypes="ccc"/>
          <path id="path6820" d="m 21.314359,127.59675 14.363448,11.56991" style="display:inline;overflow:visible;visibility:visible;fill:none;fill-opacity:1;fill-rule:evenodd;stroke:#000000;stroke-width:0.22551;stroke-linecap:butt;stroke-linejoin:miter;stroke-miterlimit:4;stroke-dasharray:none;stroke-dashoffset:0;stroke-opacity:1;marker:none" inkscape:connector-curvature="0" sodipodi:nodetypes="cc"/>
          <path inkscape:connector-curvature="0" sodipodi:nodetypes="cccccscsccccssc" id="path6832" d="m 21.136932,124.25219 c -0.340687,-0.0507 -0.681373,0.0219 -1.022062,0.0954 l 0.191638,-0.28614 c -1.899472,-0.73343 -4.508599,0.16428 -5.046425,0.4769 0.157933,0.17414 1.018968,-0.0971 1.095917,0.10254 -0.367829,-0.8903 -2.174409,1.34027 -3.299733,0.40616 -0.472385,-0.39212 -1.455415,-1.27805 -2.459335,-1.39892 1.585319,-0.69295 2.135752,0.12145 2.938424,0.63587 0.51584,0.3306 1.233253,-0.22342 1.628909,-0.44511 0.09184,-0.23157 -0.08444,-0.35638 -0.191636,-0.5087 1.829964,-0.59593 3.64229,-0.77049 5.429697,-0.34973 l 0.862364,0.19077 c -0.227787,0.0573 -0.297189,0.0732 -0.271631,0.22243 0.02438,0.14235 0.208965,0.32354 -0.04307,0.55163 -0.103601,0.0938 -0.02228,0.19011 0.186941,0.30692 z" style="display:inline;overflow:visible;visibility:visible;fill:none;fill-opacity:1;fill-rule:evenodd;stroke:#000000;stroke-width:0.22551;stroke-linecap:butt;stroke-linejoin:miter;stroke-miterlimit:4;stroke-dasharray:none;stroke-dashoffset:0;stroke-opacity:1;marker:none"/>
          <path inkscape:connector-curvature="0" sodipodi:nodetypes="cc" id="path6834" d="m 15.100388,123.82297 c 0.32881,0.71869 0.336443,0.68765 0.287453,0.61998" style="display:inline;overflow:visible;visibility:visible;fill:none;fill-opacity:1;fill-rule:evenodd;stroke:#000000;stroke-width:0.22551;stroke-linecap:butt;stroke-linejoin:miter;stroke-miterlimit:4;stroke-dasharray:none;stroke-dashoffset:0;stroke-opacity:1;marker:none"/>
          <path inkscape:connector-curvature="0" sodipodi:nodetypes="csssss" id="path9491" d="m 8.0533477,126.96999 c 6.6998223,0.96839 20.1078283,3.12556 26.9020843,4.0889 0.2901,0.0411 0.70827,0.21508 0.496862,0.71941 -0.11228,0.26785 -0.08777,0.66375 -1.084056,0.44963 -6.760871,-1.45307 -19.831274,-3.30302 -26.3787689,-4.58622 -0.6483176,-0.12706 -0.2620718,-0.71883 0.063879,-0.67172 z" style="display:inline;overflow:visible;visibility:visible;fill:none;fill-opacity:1;fill-rule:evenodd;stroke:#000000;stroke-width:0.22551;stroke-linecap:butt;stroke-linejoin:miter;stroke-miterlimit:4;stroke-dasharray:none;stroke-dashoffset:0;stroke-opacity:1;marker:none"/>
          <path inkscape:connector-curvature="0" sodipodi:nodetypes="cssscssccccccccccccccccccccccccccc" id="path9493" d="m 9.3832369,127.09891 c -0.3512461,-0.0689 -0.6473785,0.94719 -0.8350171,1.3789 -1.6299071,3.75004 -1.2689352,5.34344 -1.0494075,7.63339 0.3573967,3.72807 2.4782861,6.40589 4.4395757,8.77503 3.326278,4.01799 5.668166,5.7898 7.697393,6.70845 -1.755357,-4.76678 -0.995573,-6.38168 -0.09582,-8.26634 1.477201,-3.09419 3.854733,-5.58439 6.611458,-7.37611 2.706034,-1.75878 5.67888,-3.68431 7.537697,-3.75164 -0.209917,-0.56235 -0.18748,-1.19146 0.38327,-1.35242 l -1.309514,-0.28615 c -0.543814,0.0456 -0.598515,0.84199 -0.606851,1.41601 -0.719488,0.23268 -3.184781,0.66196 -3.039506,-0.54049 0.03176,-0.77044 0.446888,-1.26759 0.862366,-1.25704 l -0.98773,-0.16135 c -0.664068,-0.007 -0.707742,0.739 -0.928636,1.29122 -1.021691,0.80844 -2.479023,0.6448 -2.99704,-0.63588 0.01543,-0.79799 0.301903,-0.97155 0.606851,-1.16166 l -0.830422,-0.15896 c -0.765095,-0.0625 -0.773078,0.84172 -1.085944,1.41601 -0.994476,0.33881 -2.320702,0.11153 -2.823509,-0.44511 -0.0091,-0.46064 0.07231,-1.28233 0.542969,-1.33295 l -0.962975,-0.22494 c -0.394106,-0.16645 -0.726415,0.73465 -0.977747,1.23995 -2.051255,0.47522 -2.336548,-0.13932 -3.134773,-0.44511 -0.37137,-0.5466 -0.05722,-0.95672 0.415213,-1.33533 l -0.828992,-0.15897 c -0.627065,-0.10443 -0.60375,0.83891 -0.962976,1.36712 -0.582735,0.17869 -1.560877,0.13884 -1.842013,-0.39861 -0.04819,-0.46753 -0.114374,-1.07978 0.63639,-1.31824 -0.312968,-0.0636 -0.528273,-0.0954 -0.926242,-0.15897 -0.367232,0.0457 -0.59673,0.52528 -0.702667,1.36713 -1.460704,0.19786 -2.006355,-0.0225 -2.166614,-0.54049 -0.071444,-0.53668 0.244072,-1.19906 0.511031,-1.12748 z" style="display:inline;overflow:visible;visibility:visible;fill:#262d35;fill-opacity:1;fill-rule:evenodd;stroke:#000000;stroke-width:0.22551;stroke-linecap:butt;stroke-linejoin:miter;stroke-miterlimit:4;stroke-dasharray:none;stroke-dashoffset:0;stroke-opacity:1;marker:none"/>
          <path inkscape:connector-curvature="0" sodipodi:nodetypes="ccccc" id="path6800" d="m 29.399633,143.01254 8.71147,-0.35321 -0.626199,0.89926 -7.091555,0.35321 z" style="display:inline;overflow:visible;visibility:visible;fill:none;fill-opacity:1;fill-rule:evenodd;stroke:#000000;stroke-width:0.22551;stroke-linecap:butt;stroke-linejoin:miter;stroke-miterlimit:4;stroke-dasharray:none;stroke-dashoffset:0;stroke-opacity:1;marker:none"/>
          <path id="path6814" d="M 3.9242477,142.25466 20.048965,127.56754 5.1889827,142.25466" style="display:inline;overflow:visible;visibility:visible;fill:none;stroke:#000000;stroke-width:0.22551;stroke-linecap:butt;stroke-linejoin:miter;stroke-miterlimit:4;stroke-dasharray:none;stroke-dashoffset:0;stroke-opacity:1;marker:none" inkscape:connector-curvature="0" sodipodi:nodetypes="ccc"/>
          <path id="path6816" d="M 20.06446,127.5974 6.4988885,142.29962" style="display:inline;overflow:visible;visibility:visible;fill:none;fill-opacity:1;fill-rule:evenodd;stroke:#000000;stroke-width:0.22551;stroke-linecap:butt;stroke-linejoin:miter;stroke-miterlimit:4;stroke-dasharray:none;stroke-dashoffset:0;stroke-opacity:1;marker:none" inkscape:connector-curvature="0" sodipodi:nodetypes="cc"/>
          <path inkscape:connector-curvature="0" id="path10380" d="m 32.187957,139.6085 1.756672,-0.22256" style="display:inline;overflow:visible;visibility:visible;fill:none;fill-opacity:1;fill-rule:evenodd;stroke:#000000;stroke-width:0.22551;stroke-linecap:butt;stroke-linejoin:miter;stroke-miterlimit:4;stroke-dasharray:none;stroke-dashoffset:0;stroke-opacity:1;marker:none"/>
          <path inkscape:connector-curvature="0" sodipodi:nodetypes="cc" id="path10384" d="m 19.028932,131.08781 c -1.477546,1.9841 -2.415993,4.50484 -3.13006,7.24894" style="display:inline;overflow:visible;visibility:visible;fill:none;fill-opacity:1;fill-rule:evenodd;stroke:#000000;stroke-width:0.22551;stroke-linecap:butt;stroke-linejoin:miter;stroke-miterlimit:4;stroke-dasharray:none;stroke-dashoffset:0;stroke-opacity:1;marker:none"/>
          <path inkscape:connector-curvature="0" sodipodi:nodetypes="cc" id="path10386" d="m 12.225842,139.0998 c 0.13125,4.24623 2.955938,7.42 5.557454,10.68264" style="display:inline;overflow:visible;visibility:visible;fill:none;fill-opacity:1;fill-rule:evenodd;stroke:#000000;stroke-width:0.22551;stroke-linecap:butt;stroke-linejoin:miter;stroke-miterlimit:4;stroke-dasharray:none;stroke-dashoffset:0;stroke-opacity:1;marker:none"/>
          <path inkscape:connector-curvature="0" sodipodi:nodetypes="cc" id="path10388" d="m 15.994689,140.97562 c -0.77058,3.6593 1.007642,7.21592 3.19394,9.85601" style="display:inline;overflow:visible;visibility:visible;fill:none;fill-opacity:1;fill-rule:evenodd;stroke:#000000;stroke-width:0.22551;stroke-linecap:butt;stroke-linejoin:miter;stroke-miterlimit:4;stroke-dasharray:none;stroke-dashoffset:0;stroke-opacity:1;marker:none"/>
          <path inkscape:connector-curvature="0" sodipodi:nodetypes="ccsc" id="path3431" d="m 32.996374,142.01879 1.644056,-0.0994 c 0.107273,-1.27075 -0.0488,-1.9789 -0.910313,-1.86689 -0.898772,0.11685 -0.835441,0.78095 -0.733743,1.96625 z" style="display:inline;overflow:visible;visibility:visible;fill:none;fill-opacity:1;fill-rule:evenodd;stroke:#000000;stroke-width:0.22551;stroke-linecap:butt;stroke-linejoin:miter;stroke-miterlimit:4;stroke-dasharray:none;stroke-dashoffset:0;stroke-opacity:1;marker:none"/>
          <path inkscape:connector-curvature="0" style="display:inline;overflow:visible;visibility:visible;fill:none;fill-opacity:1;fill-rule:evenodd;stroke:#000000;stroke-width:0.22551;stroke-linecap:butt;stroke-linejoin:miter;stroke-miterlimit:4;stroke-dasharray:none;stroke-dashoffset:0;stroke-opacity:1;marker:none" d="m 35.722062,141.87844 1.658028,-0.1002 c 0.10818,-1.28156 -0.04923,-1.99573 -0.918048,-1.88277 -0.906411,0.11784 -0.842549,0.78759 -0.73998,1.98297 z" id="path3433" sodipodi:nodetypes="ccsc"/>
          <path inkscape:connector-curvature="0" id="path6810" d="m 18.269962,124.94393 0.573329,2.61092 h 3.853247 l 0.49686,-2.56289 -1.219567,-0.36124 v 0.81087 h -0.677536 l -0.09034,-0.81087 -1.166691,-0.003 -0.0077,0.81393 h -0.636991 l -0.03746,-0.77204 -1.087143,0.27438 z" style="display:inline;overflow:visible;visibility:visible;fill:#262d35;fill-opacity:1;fill-rule:evenodd;stroke:#000000;stroke-width:0.22551;stroke-linecap:butt;stroke-linejoin:miter;stroke-miterlimit:4;stroke-dasharray:none;stroke-dashoffset:0;stroke-opacity:1;marker:none" sodipodi:nodetypes="ccccccccccccc"/>
        </g>
        <g style="stroke:#000000" id="g2178">
          <path sodipodi:nodetypes="cssssccsc" id="path235" d="m 36.903198,153.87926 c -0.998329,-0.71198 -1.997874,-1.48597 -2.982233,-1.48597 -1.822675,0 -3.697414,2.65367 -5.520088,2.65367 -1.634011,0.25755 -3.459602,-2.69487 -5.135568,-2.65367 -1.813112,0.19498 -3.697416,2.65367 -5.52009,2.65367 -1.822673,0 -3.697414,-2.65367 -5.520086,-2.65367 -1.822675,0 -3.6974138,2.65367 -5.5200879,2.65367 -1.8226714,0 -3.4366574,-2.52465 -5.2593319,-2.52465 -0.84559793,0 -1.72532261,0.55709 -2.6075091,1.15436 l -0.5973202,16.52726 1.36792604,15.6367 7.07292826,21.29325 11.8576338,-13.68805 12.731163,-21.05698 z" style="display:inline;fill:#262d35;fill-opacity:1;stroke:#000000;stroke-width:0.25952;stroke-linecap:butt;stroke-linejoin:miter;stroke-miterlimit:4;stroke-dasharray:none;stroke-opacity:1" inkscape:connector-curvature="0"/>
          <path inkscape:connector-curvature="0" style="display:inline;fill:none;stroke:#000000;stroke-width:0.27056;stroke-linecap:butt;stroke-linejoin:miter;stroke-miterlimit:4;stroke-dasharray:none;stroke-opacity:1" d="m -1.1387344,156.32083 c 0.98881792,0.66509 1.97395136,1.37114 3.0225992,1.37114 1.9823179,0 4.0212613,-2.65196 6.0035793,-2.65196 1.9823149,0 4.0212599,2.65196 6.0035779,2.65196 1.982319,0 4.031665,-2.4571 6.003584,-2.65196 1.822759,-0.0412 3.808251,2.90935 5.58538,2.65196 1.982319,0 4.021262,-2.65196 6.003581,-2.65196 1.982317,0 4.021262,2.65196 6.003579,2.65196" id="path239" sodipodi:nodetypes="csssccsc"/>
          <path sodipodi:nodetypes="csccssc" id="path241" d="m -1.6375563,157.68586 c 1.98231483,0 5.0795923,2.65196 7.0619091,2.65196 1.9823178,0 4.5608295,-2.4571 6.5327482,-2.65196 1.822759,-0.0412 4.337418,2.90935 6.114547,2.65196 1.982319,0 4.021262,-2.65196 6.003581,-2.65196 1.982317,0 5.608762,1.71652 7.591079,1.71652 1.982318,0 2.973331,-1.52166 4.945249,-1.71652" style="display:inline;fill:none;stroke:#000000;stroke-width:0.27056;stroke-linecap:butt;stroke-linejoin:miter;stroke-miterlimit:4;stroke-dasharray:none;stroke-opacity:1" inkscape:connector-curvature="0"/>
          <path sodipodi:nodetypes="cssssccc" id="path243" d="m -1.2633622,162.32106 c 1.21771518,-0.76653 2.4553628,-1.86278 3.6267365,-1.86278 1.8010537,0 3.3958942,2.52789 5.1969456,2.52789 1.8010538,0 3.6535571,-2.65708 5.4546121,-2.65708 1.801051,0 3.653554,2.65708 5.454609,2.65708 1.801055,0 3.663007,-2.46184 5.454613,-2.65708 1.656085,-0.0413 3.460023,2.91497 5.07465,2.65708 1.801055,0 3.653556,-2.65708 5.45461,-2.65708" style="display:inline;fill:none;stroke:#000000;stroke-width:0.258143;stroke-linecap:butt;stroke-linejoin:miter;stroke-miterlimit:4;stroke-dasharray:none;stroke-opacity:1" inkscape:connector-curvature="0"/>
          <path inkscape:connector-curvature="0" style="display:inline;fill:none;stroke:#000000;stroke-width:0.271582;stroke-linecap:butt;stroke-linejoin:miter;stroke-miterlimit:4;stroke-dasharray:none;stroke-opacity:1" d="m -1.8060401,165.89286 c 1.99835126,0 4.1705407,-2.58527 6.16889,-2.58527 1.998352,0 3.7679008,2.5217 5.7662501,2.5217 1.998353,0 4.053791,-2.65058 6.052145,-2.65058 1.998348,0 4.053785,2.65058 6.052138,2.65058 1.998354,0 4.064275,-2.45582 6.052145,-2.65058 1.837502,-0.0412 3.839055,2.90784 5.630558,2.65058" id="path245" sodipodi:nodetypes="csssscc"/>
          <path sodipodi:nodetypes="cssscc" id="path247" d="m -1.6472315,166.811 c 2.00585867,0 3.7820548,2.52226 5.787911,2.52226 2.0058589,0 5.1273491,-2.65116 7.1332085,-2.65116 2.005857,0 4.069016,2.65116 6.074875,2.65116 2.00586,0 4.60871,-2.45636 6.604046,-2.65116 1.844406,-0.0412 5.440976,2.90847 7.23921,2.65116" style="display:inline;fill:none;stroke:#000000;stroke-width:0.272121;stroke-linecap:butt;stroke-linejoin:miter;stroke-miterlimit:4;stroke-dasharray:none;stroke-opacity:1" inkscape:connector-curvature="0"/>
          <path sodipodi:nodetypes="csssccc" id="path249" d="m -1.7591161,170.20393 c 1.20064699,0.74392 2.37541317,1.77554 3.6429809,1.77554 1.9823179,0 4.0212613,-2.65196 6.0035793,-2.65196 1.9823149,0 4.0212599,2.65196 6.0035779,2.65196 1.982319,0 4.031665,-2.4571 6.003584,-2.65196 1.822759,-0.0412 3.808251,2.90935 5.58538,2.65196 1.982319,0 4.021262,-2.65196 6.003581,-2.65196" style="display:inline;fill:none;stroke:#000000;stroke-width:0.27056;stroke-linecap:butt;stroke-linejoin:miter;stroke-miterlimit:4;stroke-dasharray:none;stroke-opacity:1" inkscape:connector-curvature="0"/>
          <path inkscape:connector-curvature="0" style="display:inline;fill:none;stroke:#000000;stroke-width:0.27056;stroke-linecap:butt;stroke-linejoin:miter;stroke-miterlimit:4;stroke-dasharray:none;stroke-opacity:1" d="m -0.13195166,172.1023 c 1.98231766,0 3.73766816,2.52302 5.71998336,2.52302 1.9823179,0 4.0212616,-2.65196 6.0035803,-2.65196 1.982316,0 4.021261,2.65196 6.003579,2.65196 1.982319,0 4.031665,-2.4571 6.003584,-2.65196 1.822759,-0.0412 3.808251,2.90935 5.58538,2.65196" id="path251" sodipodi:nodetypes="cssscc"/>
          <path sodipodi:nodetypes="csssscc" id="path253" d="m -1.2683533,176.78345 c 1.32387184,-0.76094 2.679237,-2.03724 3.9566069,-2.03724 1.8198843,0 3.4313994,2.52695 5.2512812,2.52695 1.8198845,0 3.6917562,-2.65609 5.5116412,-2.65609 1.819882,0 3.691754,2.65609 5.511638,2.65609 1.819886,0 3.701306,-2.46093 5.511644,-2.65609 1.673399,-0.0413 3.496198,2.91388 5.127707,2.65609" style="display:inline;fill:none;stroke:#000000;stroke-width:0.25944;stroke-linecap:butt;stroke-linejoin:miter;stroke-miterlimit:4;stroke-dasharray:none;stroke-opacity:1" inkscape:connector-curvature="0"/>
          <path inkscape:connector-curvature="0" style="display:inline;fill:none;stroke:#000000;stroke-width:0.268906;stroke-linecap:butt;stroke-linejoin:miter;stroke-miterlimit:4;stroke-dasharray:none;stroke-opacity:1" d="m -1.4119231,180.57614 c 1.95877211,0 4.0879389,-2.58579 6.0467088,-2.58579 1.9587726,0 3.6932739,2.52222 5.6520443,2.52222 1.958773,0 3.973501,-2.65112 5.932275,-2.65112 1.95877,0 3.973498,2.65112 5.93227,2.65112 1.958774,0 3.983779,-2.45633 5.932277,-2.65112" id="path255" sodipodi:nodetypes="cssssc"/>
          <path sodipodi:nodetypes="cssscc" id="path257" d="m -0.71060485,181.07705 c 1.95877255,0 3.69327385,2.52222 5.65204425,2.52222 1.958773,0 3.973501,-2.65112 5.9322746,-2.65112 1.95877,0 3.973498,2.65112 5.93227,2.65112 1.958774,0 3.983779,-2.45633 5.932277,-2.65112 0.976823,-0.0223 2.000943,0.83503 3.013865,1.58342" style="display:inline;fill:none;stroke:#000000;stroke-width:0.268906;stroke-linecap:butt;stroke-linejoin:miter;stroke-miterlimit:4;stroke-dasharray:none;stroke-opacity:1" inkscape:connector-curvature="0"/>
          <path inkscape:connector-curvature="0" style="display:inline;fill:none;stroke:#000000;stroke-width:0.268906;stroke-linecap:butt;stroke-linejoin:miter;stroke-miterlimit:4;stroke-dasharray:none;stroke-opacity:1" d="m -0.39119006,185.84063 c 0.89921942,0.61365 1.79982876,1.21167 2.75361266,1.21167 1.9587724,0 3.9735001,-2.65112 5.9322741,-2.65112 1.9587693,0 3.9734973,2.65112 5.9322693,2.65112 1.958774,0 3.983779,-2.45633 5.932277,-2.65112 0.946838,-0.0217 1.938115,0.78322 2.920558,1.51423" id="path259" sodipodi:nodetypes="cssscc"/>
          <path sodipodi:nodetypes="cssc" id="path261" d="m -0.18856307,187.18285 c 2.31727197,0 4.36922677,2.51883 6.68649817,2.51883 2.3172733,0 4.7007419,-2.64755 7.0180179,-2.64755 2.317268,0 4.700737,2.64755 7.01801,2.64755" style="display:inline;fill:none;stroke:#000000;stroke-width:0.292284;stroke-linecap:butt;stroke-linejoin:miter;stroke-miterlimit:4;stroke-dasharray:none;stroke-opacity:1" inkscape:connector-curvature="0"/>
          <path inkscape:connector-curvature="0" style="display:inline;fill:none;stroke:#000000;stroke-width:0.260865;stroke-linecap:butt;stroke-linejoin:miter;stroke-miterlimit:4;stroke-dasharray:none;stroke-opacity:1" d="m 1.5796106,190.12679 c 1.8430462,0 3.4750718,2.52269 5.3181175,2.52269 1.8430472,0 3.7387429,-2.6516 5.5817929,-2.6516 1.843043,0 3.738739,2.6516 5.581785,2.6516" id="path263" sodipodi:nodetypes="cssc"/>
          <path sodipodi:nodetypes="csssc" id="path265" d="m 2.3047503,194.4903 c 1.0707737,-0.68243 2.1443824,-1.40836 3.1706764,-1.40836 1.9365412,0 3.651357,2.52113 5.5878983,2.52113 1.936542,0 3.928403,-2.64996 5.864949,-2.64996 0.533604,0 1.071408,0.2012 1.611098,0.49272" style="display:inline;fill:none;stroke:#000000;stroke-width:0.267317;stroke-linecap:butt;stroke-linejoin:miter;stroke-miterlimit:4;stroke-dasharray:none;stroke-opacity:1" inkscape:connector-curvature="0"/>
          <path inkscape:connector-curvature="0" style="display:inline;fill:none;stroke:#000000;stroke-width:0.301596;stroke-linecap:butt;stroke-linejoin:miter;stroke-miterlimit:4;stroke-dasharray:none;stroke-opacity:1" d="m 4.2582072,199.02751 c 2.2654713,0 4.7280169,-2.81236 6.9934858,-2.81236 1.352262,0 2.612108,0.97739 3.889864,1.76536" id="path267" sodipodi:nodetypes="csc"/>
        </g>
      </g>
      <path id="path1170" style="fill:#000000;fill-opacity:1;stroke:none;stroke-width:0.377953;stroke-linecap:butt;stroke-linejoin:miter;stroke-miterlimit:4;stroke-dasharray:none;stroke-opacity:1" d="M 199.99805,427.79883 C 136.57409,428.45144 72.679694,433.05686 6.5664062,444.4668 -25.91945,595.75985 -19.110051,723.69819 17.513672,783.66992 64.321844,860.31878 126.34803,899.81954 199.99805,926.31055 Z m -40.71289,13.98633 c -5.30297,60.77881 -14.50508,113.46199 -30.375,157.13281 C 104.26647,666.73237 68.263483,728.12456 27.857422,768.21484 -1.4782345,702.39033 2.9509497,651.32003 2.890625,591.44336 2.845882,547.0327 11.23067,493.47107 18.214844,456.42773 63.053989,448.26978 108.79486,441.46639 159.28516,441.78516 Z" transform="scale(0.26458333)"/>
      <g id="g2281">
        <path style="fill:#000000;fill-opacity:1;stroke:none;stroke-width:0.1;stroke-linecap:butt;stroke-linejoin:miter;stroke-miterlimit:4;stroke-dasharray:none;stroke-opacity:1" d="m 52.916,214.75106 v 24.72243 c 11.106052,-3.25897 20.918083,-8.5014 29.529917,-16.03617 -8.355684,-5.2357 -17.794899,-8.60849 -29.529917,-8.68626 z" id="path1292" sodipodi:nodetypes="cccc"/>
        <path sodipodi:nodetypes="cccc" id="path345" d="m 52.916,214.75106 v 24.72243 c -11.106052,-3.25897 -20.918083,-8.5014 -29.529917,-16.03617 8.355684,-5.2357 17.794899,-8.60849 29.529917,-8.68626 z" style="fill:#262d35;fill-opacity:1;stroke:none;stroke-width:0.1;stroke-linecap:butt;stroke-linejoin:miter;stroke-miterlimit:4;stroke-dasharray:none;stroke-opacity:1"/>
      </g>
      <g id="g1990">
        <path transform="scale(0.26458333)" d="M 384.13281,469.82617 326.06836,509.99414 390.10547,507.5 c -1.89614,-13.40083 -3.88989,-25.95412 -5.97266,-37.67383 z" style="fill:#000000;fill-opacity:1;stroke:#ffffff;stroke-width:2.26772;stroke-linecap:butt;stroke-linejoin:miter;stroke-miterlimit:4;stroke-dasharray:none;stroke-opacity:1" id="path1323"/>
        <path transform="scale(0.26458333)" d="m 255.7832,544.76562 38.79688,-27.31445 -44.00977,0.85547 c 1.58406,9.06461 3.32153,17.88483 5.21289,26.45898 z" style="fill:#000000;fill-opacity:1;stroke:#ffffff;stroke-width:2.26772;stroke-linecap:butt;stroke-linejoin:miter;stroke-miterlimit:4;stroke-dasharray:none;stroke-opacity:1" id="path1333"/>
        <path transform="scale(0.26458333)" d="m 397.0293,641.18164 -94.41407,28.82031 c 20.23658,38.75094 43.92849,72.81798 69.52344,98.21289 20.88086,-46.85327 24.43765,-86.5394 24.89063,-127.0332 z" style="fill:#000000;fill-opacity:1;stroke:#ffffff;stroke-width:2.26772;stroke-linecap:butt;stroke-linejoin:miter;stroke-miterlimit:4;stroke-dasharray:none;stroke-opacity:1" id="path1336"/>
        <path transform="scale(0.26458333)" d="m 397.13672,598.36133 -112.40039,34.30859 c 2.57911,5.95068 5.27497,11.79353 8.01562,17.58594 l 104.45703,-31.88477 c -0.0471,-6.6625 -0.0451,-13.17801 -0.0723,-20.00976 z" style="fill:#000000;fill-opacity:1;stroke:#ffffff;stroke-width:2.26772;stroke-linecap:butt;stroke-linejoin:miter;stroke-miterlimit:4;stroke-dasharray:none;stroke-opacity:1" id="path1359"/>
        <path transform="scale(0.26458333)" d="m 395.41602,555.75 -125.93946,38.44336 c 0.54145,1.56701 1.04735,3.18339 1.60742,4.72461 1.6636,4.57787 3.50649,9.03992 5.27149,13.55469 l 120.32812,-36.72852 c -0.30324,-6.58512 -0.72451,-13.25477 -1.26757,-19.99414 z" style="fill:#000000;fill-opacity:1;stroke:#ffffff;stroke-width:2.26772;stroke-linecap:butt;stroke-linejoin:miter;stroke-miterlimit:4;stroke-dasharray:none;stroke-opacity:1" id="path1353"/>
        <path transform="scale(0.26458333)" d="m 393.00586,530.59961 -79.35352,-5.32031 -52.30859,41.75976 c 0.55843,2.09229 1.01475,4.33483 1.5957,6.39453 l 130.44532,-39.8164 c -0.11421,-1.01585 -0.26222,-2.00286 -0.37891,-3.01758 z" style="fill:#000000;fill-opacity:1;stroke:#ffffff;stroke-width:2.26772;stroke-linecap:butt;stroke-linejoin:miter;stroke-miterlimit:4;stroke-dasharray:none;stroke-opacity:1" id="path1339"/>
        <path transform="scale(0.26458333)" d="m 240.70898,441.78516 c 1.71323,19.63577 3.8893,38.3313 6.50977,56.24609 l 59.5918,2.80078 61.33593,-46.72851 c -40.52365,-7.03889 -82.03012,-12.60504 -127.4375,-12.31836 z" style="fill:#000000;fill-opacity:1;stroke:#ffffff;stroke-width:2.26772;stroke-linecap:butt;stroke-linejoin:miter;stroke-miterlimit:4;stroke-dasharray:none;stroke-opacity:1" id="path1330"/>
        <path transform="scale(0.26458333)" d="m 199.92578,427.80078 h -4.79297 c -0.002,0.0436 -0.007,0.0853 -0.01,0.12891 1.59766,-0.0216 3.20569,-0.1124 4.80273,-0.12891 z" style="fill:#ffffff;stroke:none;stroke-width:3.77953;stroke-linecap:butt;stroke-linejoin:miter;stroke-miterlimit:4;stroke-dasharray:none;stroke-opacity:1" id="path1979"/>
      </g>
      <g id="g2232">
        <g transform="matrix(-1,0,0,1,105.832,0)" id="g1286" style="stroke:none">
          <path transform="matrix(-0.26458333,0,0,0.26458333,105.832,0)" d="m 203.98242,411.85938 c 6.3233,177.55124 65.98224,315.34514 172.17188,409.06054 3.48111,-4.83572 6.89897,-9.82865 10.25781,-15.00976 C 282.55142,711.12019 229.87312,583.41123 222.10938,412.23242 c -6.20469,-0.16994 -12.24423,-0.29315 -18.12696,-0.37304 z" style="fill:#00ff00;stroke:none;stroke-width:0.999999px;stroke-linecap:butt;stroke-linejoin:miter;stroke-opacity:1" id="path1284"/>
        </g>
        <path sodipodi:nodetypes="ccsscsscccc" transform="scale(0.26458333)" d="m 199.99805,427.80078 v 348.2207 c 0.45391,-0.003 0.90522,-0.0293 1.35937,-0.0293 h 0.19531 c 54.36269,1e-4 106.99818,17.78678 150.31836,50.15234 0.89293,-1.05492 1.81457,-2.04573 2.69922,-3.11914 3.27427,-3.97292 6.49062,-8.07296 9.65039,-12.30664 0.13465,-0.1804 0.26205,-0.3777 0.39649,-0.55859 -95.74023,-90.42174 -150.81459,-218.99203 -159.7461,-382.23047 -1.59701,-0.0216 -4.84949,-0.11241 -6.44589,-0.12891 z" style="fill:#dadada;fill-opacity:1;stroke:none;stroke-width:3.77953;stroke-linecap:butt;stroke-linejoin:miter;stroke-miterlimit:4;stroke-dasharray:none;stroke-opacity:1" id="path1968"/>
        <path transform="scale(0.26458333)" d="M 201.35742,775.99023 A 251.33858,251.33858 0 0 0 36.681641,837.625 c 3.886365,4.72304 7.869076,9.27346 11.960937,13.66602 a 236.22047,236.22047 0 0 1 152.779302,-56.16797 236.22047,236.22047 0 0 1 0.13085,0 236.22047,236.22047 0 0 1 151.15821,54.69531 c 4.06647,-4.42685 8.03573,-8.99561 11.90039,-13.75586 a 251.33858,251.33858 0 0 0 -163.0586,-60.07227 251.33858,251.33858 0 0 0 -0.19531,0 z" style="fill:#00ff00;fill-opacity:1;stroke:none;stroke-width:0.377953;stroke-linecap:butt;stroke-linejoin:miter;stroke-miterlimit:4;stroke-dasharray:none;stroke-opacity:1" id="path1484"/>
        <path sodipodi:nodetypes="ccsscccc" transform="scale(0.26458333)" d="m 195.12305,427.92969 c -8.93147,163.23901 -64.00534,291.80956 -159.746097,382.23047 0.134444,0.1809 0.261831,0.37817 0.396485,0.55859 3.15977,4.23368 6.376121,8.33372 9.65039,12.30664 1.258698,1.52727 2.566358,2.94756 3.841797,4.4375 43.242656,-32.94582 96.102445,-51.10245 150.732425,-51.44141 l 0.29802,-348.21245 c -0.83466,0.008 -3.57536,0.0991 -5.17302,0.12066 z" style="fill:#ffffff;stroke:none;stroke-width:3.77953;stroke-linecap:butt;stroke-linejoin:miter;stroke-miterlimit:4;stroke-dasharray:none;stroke-opacity:1" id="path1977"/>
        <path transform="scale(0.26458333)" d="m 199.99805,613.16211 c -13.76501,33.1756 -24.84273,64.18214 -55.10157,113.85156 18.53989,-4.53698 39.77596,-6.87451 55.10157,-6.65039 15.3256,-0.22412 36.56167,2.11341 55.10156,6.65039 -30.25884,-49.66942 -41.33656,-80.67596 -55.10156,-113.85156 z" style="fill:#27fe00;fill-opacity:1;stroke:none;stroke-width:0.999999px;stroke-linecap:butt;stroke-linejoin:miter;stroke-opacity:1" id="path1290"/>
        <path id="path1992" style="fill:#00ff00;fill-opacity:1;stroke:none;stroke-width:0.377953;stroke-linecap:butt;stroke-linejoin:miter;stroke-miterlimit:4;stroke-dasharray:none;stroke-opacity:1" d="m 196.01172,411.85938 c -5.88232,0.0799 -11.92273,0.20311 -18.12695,0.37304 -7.76376,171.17878 -60.44206,298.88778 -164.302739,393.67774 3.358952,5.18128 6.778531,10.17389 10.259766,15.00976 C 130.03074,727.20455 189.68844,589.40999 196.01172,411.85938 Z" transform="scale(0.26458333)"/>
      </g>
    </g>
  </g>
</svg>