<?xml version="1.0" encoding="UTF-8" standalone="no"?>
<!-- Created with Inkscape (http://www.inkscape.org/) -->

<svg
   xmlns:dc="http://purl.org/dc/elements/1.1/"
   xmlns:cc="http://creativecommons.org/ns#"
   xmlns:rdf="http://www.w3.org/1999/02/22-rdf-syntax-ns#"
   xmlns:svg="http://www.w3.org/2000/svg"
   xmlns="http://www.w3.org/2000/svg"
   xmlns:sodipodi="http://sodipodi.sourceforge.net/DTD/sodipodi-0.dtd"
   xmlns:inkscape="http://www.inkscape.org/namespaces/inkscape"
   id="svg2"
   version="1.1"
   inkscape:version="0.48.2 r9819"
   width="200"
   height="304"
   xml:space="preserve"
   sodipodi:docname="2008 evaluation report.pdf"><metadata
     id="metadata8"><rdf:RDF><cc:Work
         rdf:about=""><dc:format>image/svg+xml</dc:format><dc:type
           rdf:resource="http://purl.org/dc/dcmitype/StillImage" /><dc:title></dc:title></cc:Work></rdf:RDF></metadata><defs
     id="defs6"><clipPath
       clipPathUnits="userSpaceOnUse"
       id="clipPath16"><path
         d="m -9,851 613,0 0,-860 -613,0 0,860 z"
         id="path18"
         inkscape:connector-curvature="0" /></clipPath><clipPath
       clipPathUnits="userSpaceOnUse"
       id="clipPath22"><path
         d="m 0.015,840.99 594.99,0 0,-840.99 -594.99,0 0,840.99 z"
         id="path24"
         inkscape:connector-curvature="0" /></clipPath><clipPath
       clipPathUnits="userSpaceOnUse"
       id="clipPath48"><path
         d="m 211.54,584.05 192.35,0 0,-278.64 -192.35,0 0,278.64 z"
         clip-rule="evenodd"
         id="path50"
         inkscape:connector-curvature="0" /></clipPath><clipPath
       clipPathUnits="userSpaceOnUse"
       id="clipPath54"><path
         d="m -9,851 613,0 0,-860 -613,0 0,860 z"
         id="path56"
         inkscape:connector-curvature="0" /></clipPath><clipPath
       clipPathUnits="userSpaceOnUse"
       id="clipPath60"><path
         d="m 0.015,840.99 594.99,0 0,-840.99 -594.99,0 0,840.99 z"
         id="path62"
         inkscape:connector-curvature="0" /></clipPath></defs><sodipodi:namedview
     pagecolor="#ffffff"
     bordercolor="#666666"
     borderopacity="1"
     objecttolerance="10"
     gridtolerance="10"
     guidetolerance="10"
     inkscape:pageopacity="0"
     inkscape:pageshadow="2"
     inkscape:window-width="2560"
     inkscape:window-height="1305"
     id="namedview4"
     showgrid="false"
     showguides="true"
     inkscape:guide-bbox="true"
     inkscape:zoom="0.8979786"
     inkscape:cx="416.15047"
     inkscape:cy="391.99153"
     inkscape:window-x="0"
     inkscape:window-y="0"
     inkscape:window-maximized="1"
     inkscape:current-layer="g10" /><g
     id="g10"
     inkscape:groupmode="layer"
     inkscape:label="2008 evaluation report"
     transform="matrix(1.25,0,0,-1.25,0,1051.25)"><g
       id="g4159"
       transform="matrix(0.9600656,0,0,0.9600656,-212.98479,289.30095)"><g
         id="g4095"><path
           d="m 357.883,528.987 c 0,-17.948 -11.653,-26.029 -28.755,-26.029 -17.102,0 -28.754,8.081 -28.754,26.029 l 0,41.672 17.478,0 0,-38.759 c 0,-8.645 2.349,-15.974 11.276,-15.974 8.927,0 11.276,7.329 11.276,15.974 l 0,38.759 17.479,0 0,-41.672"
           style="fill:#1d4e9e;fill-opacity:1;fill-rule:nonzero;stroke:none"
           id="path92"
           inkscape:connector-curvature="0" /><path
           d="m 367.511,550.175 17.386,0 0,-45.699 -17.386,0 0,45.699 z"
           style="fill:#1d4e9e;fill-opacity:1;fill-rule:nonzero;stroke:none"
           id="path94"
           inkscape:connector-curvature="0" /><path
           d="m 231.812,546.719 c 5.025,14.603 20.937,22.366 35.54,17.341 14.602,-5.025 22.367,-20.937 17.341,-35.54 -5.025,-14.603 -20.937,-22.367 -35.54,-17.341 -14.602,5.025 -22.367,20.937 -17.341,35.54 z"
           style="fill:none;stroke:#1d4e9e;stroke-width:15.21000004;stroke-linecap:butt;stroke-linejoin:miter;stroke-miterlimit:4;stroke-opacity:1;stroke-dasharray:none"
           id="path96"
           inkscape:connector-curvature="0" /><path
           d="m 367.511,555.474 17.386,0 0,15.185 -17.386,0 0,-15.185 z"
           style="fill:#ed1c24;fill-opacity:1;fill-rule:nonzero;stroke:none"
           id="path98"
           inkscape:connector-curvature="0" /></g><g
         id="g4101"><path
           d="m 225.463,498.492 13.142,0 c 12.621,0 18.546,-4.266 18.546,-13.568 0,-8.354 -6.103,-13.331 -16.413,-13.331 l -4.266,0 0,-14.457 -11.009,0 0,41.356 z m 11.009,-19.078 2.844,0 c 3.792,0 6.814,1.362 6.814,5.688 0,4.206 -3.022,5.569 -6.814,5.569 l -2.844,0 0,-11.257"
           style="fill:#000000;fill-opacity:1;fill-rule:nonzero;stroke:none"
           id="path100"
           inkscape:connector-curvature="0" /><path
           d="m 267.979,498.492 13.508,0 15.939,-41.356 -12.087,0 -3.081,8.828 -15.524,0 -3.259,-8.828 -11.198,0 15.702,41.356 z m 6.754,-8.532 -0.119,0 -5.332,-16.175 10.369,0 -4.918,16.175"
           style="fill:#000000;fill-opacity:1;fill-rule:nonzero;stroke:none"
           id="path102"
           inkscape:connector-curvature="0" /><path
           d="m 300.788,498.492 19.671,0 c 7.347,0 13.331,-3.318 13.331,-10.428 0,-5.51 -2.606,-9.183 -7.939,-10.428 l 0,-0.118 c 3.555,-0.948 3.792,-4.089 5.866,-9.125 l 4.029,-11.257 -11.494,0 -2.371,7.465 c -2.251,7.11 -3.673,8.888 -7.761,8.888 l -2.311,0 0,-16.353 -11.021,0 0,41.356 z m 11.021,-17.183 2.903,0 c 3.555,0 8.058,0.119 8.058,4.8 0,3.851 -3.851,4.562 -8.058,4.562 l -2.903,0 0,-9.362"
           style="fill:#000000;fill-opacity:1;fill-rule:nonzero;stroke:none"
           id="path104"
           inkscape:connector-curvature="0" /><path
           d="m 340.481,498.492 11.021,0 0,-41.357 -11.021,0 0,41.357 z"
           style="fill:#000000;fill-opacity:1;fill-rule:nonzero;stroke:none"
           id="path106"
           inkscape:connector-curvature="0" /><path
           d="m 358.1,467.4 c 2.844,-1.54 6.814,-2.726 11.376,-2.726 3.496,0 6.814,0.711 6.814,4.029 0,7.703 -19.553,2.844 -19.553,17.894 0,9.954 9.718,12.679 18.013,12.679 3.969,0 7.88,-0.592 10.664,-1.54 l -0.711,-8.532 c -2.843,1.303 -6.043,1.896 -9.183,1.896 -2.785,0 -7.406,-0.237 -7.406,-3.851 0,-6.695 19.552,-2.192 19.552,-17.124 0,-10.724 -9.006,-13.627 -18.19,-13.627 -3.851,0 -8.651,0.593 -12.324,1.777 l 0.948,9.125"
           style="fill:#000000;fill-opacity:1;fill-rule:nonzero;stroke:none"
           id="path108"
           inkscape:connector-curvature="0" /><path
           d="m 225.438,418.077 c 8.677,7.515 18.708,15.703 18.708,21.447 0,3.789 -2.627,5.377 -6.049,5.377 -3.666,0 -8.554,-1.405 -11.182,-2.933 l -0.427,8.86 c 6.11,2.2 10.143,2.505 12.648,2.505 9.532,0 16.376,-4.032 16.376,-12.526 0,-8.31 -8.983,-16.681 -13.015,-20.164 l -3.055,-2.627 16.864,0 0,-8.066 -30.868,0 0,8.127"
           style="fill:#000000;fill-opacity:1;fill-rule:nonzero;stroke:none"
           id="path110"
           inkscape:connector-curvature="0" /><path
           d="m 371.347,453.54 c 8.475,-0.012 14.734,-3.46 14.723,-11.014 -0.008,-5.281 -3.328,-8.408 -7.076,-9.815 l -0.001,-0.123 c 4.665,-1.48 8.653,-4.127 8.644,-10.575 -0.013,-9.211 -7.879,-12.823 -16.844,-12.81 -9.212,0.013 -16.699,3.463 -16.687,12.245 0.009,6.263 3.882,9.205 8.49,10.55 l 0,-0.062 0,0.123 c -3.989,1.357 -7.362,4.923 -7.356,9.161 0.013,9.15 7.633,12.332 16.107,12.32 z m -1.202,-24.869 c -2.766,-1.286 -4.979,-3.064 -4.984,-6.379 -0.004,-3.071 2.511,-5.347 5.52,-5.352 3.254,-0.004 5.898,2.019 5.903,5.519 0.006,3.808 -3.554,5.348 -6.439,6.212 z m 0.747,6.815 c 3.011,1.715 4.855,3.248 4.86,6.134 0.004,3.071 -2.634,4.548 -5.152,4.552 -2.764,0.004 -5.039,-2.081 -5.043,-5.029 -0.005,-3.254 2.696,-4.486 5.335,-5.657"
           style="fill:#000000;fill-opacity:1;fill-rule:nonzero;stroke:none"
           id="path112"
           inkscape:connector-curvature="0" /><path
           d="m 264.487,437.013 c 3.122,9.072 13.007,13.895 22.078,10.773 9.072,-3.122 13.895,-13.007 10.773,-22.079 -3.121,-9.071 -13.007,-13.895 -22.078,-10.773 -9.072,3.122 -13.895,13.008 -10.773,22.079 z m 48.415,-0.179 c 3.122,9.072 13.007,13.895 22.079,10.773 9.071,-3.122 13.895,-13.007 10.773,-22.079 -3.122,-9.071 -13.007,-13.894 -22.079,-10.773 -9.071,3.122 -13.895,13.007 -10.773,22.079 z"
           style="fill:none;stroke:#000000;stroke-width:10.40799999;stroke-linecap:butt;stroke-linejoin:miter;stroke-miterlimit:4;stroke-opacity:1;stroke-dasharray:none"
           id="path114"
           inkscape:connector-curvature="0" /></g><g
         id="g4138"><path
           d="m 284.013,324.79 c 9.693,0 17.551,7.858 17.551,17.55 0,9.694 -7.858,17.551 -17.551,17.551 -9.693,0 -17.551,-7.857 -17.551,-17.551 0,-9.692 7.858,-17.55 17.551,-17.55 z m -21.309,16.611 c 9.693,0 17.551,7.858 17.551,17.551 0,9.694 -7.858,17.551 -17.551,17.551 -9.692,0 -17.551,-7.857 -17.551,-17.551 0,-9.693 7.859,-17.551 17.551,-17.551 z m 63.827,-16.65 c 9.693,0 17.551,7.858 17.551,17.551 0,9.693 -7.858,17.551 -17.551,17.551 -9.693,0 -17.551,-7.858 -17.551,-17.551 0,-9.693 7.858,-17.551 17.551,-17.551 z m 21.115,16.686 c 9.693,0 17.551,7.857 17.551,17.55 0,9.692 -7.858,17.551 -17.551,17.551 -9.693,0 -17.551,-7.859 -17.551,-17.551 0,-9.693 7.858,-17.55 17.551,-17.55 z m -42.5,0.036 c 9.693,0 17.551,7.857 17.551,17.55 0,9.693 -7.858,17.551 -17.551,17.551 -9.693,0 -17.551,-7.858 -17.551,-17.551 0,-9.693 7.858,-17.55 17.551,-17.55 z"
           style="fill:none;stroke:#ffffff;stroke-width:5.17299986;stroke-linecap:butt;stroke-linejoin:miter;stroke-miterlimit:4;stroke-opacity:1;stroke-dasharray:none"
           id="path116"
           inkscape:connector-curvature="0" /><path
           d="m 284.013,324.79 c 9.693,0 17.551,7.858 17.551,17.55 0,9.694 -7.858,17.551 -17.551,17.551 -9.693,0 -17.551,-7.857 -17.551,-17.551 0,-9.692 7.858,-17.55 17.551,-17.55 z"
           style="fill:none;stroke:#f9a91f;stroke-width:4.13600016;stroke-linecap:butt;stroke-linejoin:miter;stroke-miterlimit:4;stroke-opacity:1;stroke-dasharray:none"
           id="path118"
           inkscape:connector-curvature="0" /><path
           d="m 278.864,352.093 c 0.896,2.107 1.391,4.425 1.391,6.859 0,3.235 -0.875,6.265 -2.402,8.868"
           style="fill:none;stroke:#ffffff;stroke-width:5.17299986;stroke-linecap:butt;stroke-linejoin:miter;stroke-miterlimit:4;stroke-opacity:1;stroke-dasharray:none"
           id="path120"
           inkscape:connector-curvature="0" /><path
           d="m 262.704,341.401 c 9.693,0 17.551,7.858 17.551,17.551 0,9.694 -7.858,17.551 -17.551,17.551 -9.692,0 -17.551,-7.857 -17.551,-17.551 0,-9.693 7.859,-17.551 17.551,-17.551 z"
           style="fill:none;stroke:#0b86cc;stroke-width:4.13600016;stroke-linecap:butt;stroke-linejoin:miter;stroke-miterlimit:4;stroke-opacity:1;stroke-dasharray:none"
           id="path122"
           inkscape:connector-curvature="0" /><path
           d="m 326.531,324.751 c 9.693,0 17.551,7.858 17.551,17.551 0,9.693 -7.858,17.551 -17.551,17.551 -9.693,0 -17.551,-7.858 -17.551,-17.551 0,-9.693 7.858,-17.551 17.551,-17.551 z"
           style="fill:none;stroke:#00a650;stroke-width:4.13600016;stroke-linecap:butt;stroke-linejoin:miter;stroke-miterlimit:4;stroke-opacity:1;stroke-dasharray:none"
           id="path124"
           inkscape:connector-curvature="0" /><path
           d="m 338.43,344.047 c 2.678,-1.656 5.836,-2.61 9.216,-2.61"
           style="fill:none;stroke:#ffffff;stroke-width:5.17299986;stroke-linecap:butt;stroke-linejoin:miter;stroke-miterlimit:4;stroke-opacity:1;stroke-dasharray:none"
           id="path126"
           inkscape:connector-curvature="0" /><path
           d="m 347.646,341.437 c 9.693,0 17.551,7.857 17.551,17.55 0,9.692 -7.858,17.551 -17.551,17.551 -9.693,0 -17.551,-7.859 -17.551,-17.551 0,-9.693 7.858,-17.55 17.551,-17.55 z"
           style="fill:none;stroke:#ed1c24;stroke-width:4.13600016;stroke-linecap:butt;stroke-linejoin:miter;stroke-miterlimit:4;stroke-opacity:1;stroke-dasharray:none"
           id="path128"
           inkscape:connector-curvature="0" /><path
           d="m 321.873,353.695 c 0.534,1.681 0.824,3.471 0.824,5.328 0,2.27 -0.431,4.439 -1.215,6.43"
           style="fill:none;stroke:#ffffff;stroke-width:5.17299986;stroke-linecap:butt;stroke-linejoin:miter;stroke-miterlimit:4;stroke-opacity:1;stroke-dasharray:none"
           id="path130"
           inkscape:connector-curvature="0" /><path
           d="m 305.146,341.473 c 7.835,0 14.471,5.134 16.727,12.222 0.534,1.681 0.824,3.471 0.824,5.328 0,2.27 -0.431,4.439 -1.215,6.43 -2.566,6.512 -8.913,11.121 -16.336,11.121 -9.693,0 -17.551,-7.858 -17.551,-17.551 0,-9.693 7.858,-17.55 17.551,-17.55 z"
           style="fill:none;stroke:#000000;stroke-width:4.13600016;stroke-linecap:butt;stroke-linejoin:miter;stroke-miterlimit:4;stroke-opacity:1;stroke-dasharray:none"
           id="path132"
           inkscape:connector-curvature="0" /><path
           d="m 267.856,349.206 c -0.897,-2.109 -1.394,-4.429 -1.394,-6.866 0,-3.799 1.207,-7.316 3.259,-10.189"
           style="fill:none;stroke:#ffffff;stroke-width:5.17299986;stroke-linecap:butt;stroke-linejoin:miter;stroke-miterlimit:4;stroke-opacity:1;stroke-dasharray:none"
           id="path134"
           inkscape:connector-curvature="0" /><path
           d="m 268.058,349.662 c -1.025,-2.228 -1.596,-4.709 -1.596,-7.322 0,-3.967 1.317,-7.629 3.538,-10.569"
           style="fill:none;stroke:#f9a70d;stroke-width:4.13600016;stroke-linecap:butt;stroke-linejoin:miter;stroke-miterlimit:4;stroke-opacity:1;stroke-dasharray:none"
           id="path136"
           inkscape:connector-curvature="0" /><path
           d="m 292.046,357.949 c -2.317,1.195 -4.935,1.889 -7.71,1.939"
           style="fill:none;stroke:#ffffff;stroke-width:5.17299986;stroke-linecap:butt;stroke-linejoin:miter;stroke-miterlimit:4;stroke-opacity:1;stroke-dasharray:none"
           id="path138"
           inkscape:connector-curvature="0" /><path
           d="m 292.297,357.817 c -2.467,1.323 -5.288,2.074 -8.284,2.074"
           style="fill:none;stroke:#f9a70d;stroke-width:4.13600016;stroke-linecap:butt;stroke-linejoin:miter;stroke-miterlimit:4;stroke-opacity:1;stroke-dasharray:none"
           id="path140"
           inkscape:connector-curvature="0" /><path
           d="m 296.927,343.511 c 2.248,-1.192 4.785,-1.912 7.481,-2.023"
           style="fill:none;stroke:#ffffff;stroke-width:5.17299986;stroke-linecap:butt;stroke-linejoin:miter;stroke-miterlimit:4;stroke-opacity:1;stroke-dasharray:none"
           id="path142"
           inkscape:connector-curvature="0" /><path
           d="m 296.182,343.93 c 2.624,-1.561 5.689,-2.457 8.964,-2.457"
           style="fill:none;stroke:#000000;stroke-width:4.13600016;stroke-linecap:butt;stroke-linejoin:miter;stroke-miterlimit:4;stroke-opacity:1;stroke-dasharray:none"
           id="path144"
           inkscape:connector-curvature="0" /><path
           d="m 309.494,346.538 c -0.336,-1.356 -0.514,-2.775 -0.514,-4.236 0,-2.108 0.372,-4.128 1.053,-6.001"
           style="fill:none;stroke:#ffffff;stroke-width:5.17299986;stroke-linecap:butt;stroke-linejoin:miter;stroke-miterlimit:4;stroke-opacity:1;stroke-dasharray:none"
           id="path146"
           inkscape:connector-curvature="0" /><path
           d="m 309.575,346.852 c -0.388,-1.452 -0.595,-2.976 -0.595,-4.55 0,-2.243 0.421,-4.388 1.188,-6.361"
           style="fill:none;stroke:#00a650;stroke-width:4.13600016;stroke-linecap:butt;stroke-linejoin:miter;stroke-miterlimit:4;stroke-opacity:1;stroke-dasharray:none"
           id="path148"
           inkscape:connector-curvature="0" /><path
           d="m 333.962,358.207 c -2.201,1.029 -4.651,1.617 -7.235,1.645"
           style="fill:none;stroke:#ffffff;stroke-width:5.17299986;stroke-linecap:butt;stroke-linejoin:miter;stroke-miterlimit:4;stroke-opacity:1;stroke-dasharray:none"
           id="path150"
           inkscape:connector-curvature="0" /><path
           d="m 334.16,358.112 c -2.307,1.116 -4.894,1.741 -7.629,1.741"
           style="fill:none;stroke:#00a650;stroke-width:4.13600016;stroke-linecap:butt;stroke-linejoin:miter;stroke-miterlimit:4;stroke-opacity:1;stroke-dasharray:none"
           id="path152"
           inkscape:connector-curvature="0" /></g><g
         id="text3905"
         style="font-size:33.16316223px;font-style:normal;font-variant:normal;font-weight:normal;font-stretch:normal;text-align:end;line-height:125%;letter-spacing:0px;word-spacing:0px;text-anchor:end;fill:#000000;fill-opacity:1;stroke:none;font-family:American Typewriter;-inkscape-font-specification:American Typewriter"
         transform="scale(1.0172937,-0.98300029)"><path
           id="path4112"
           style="font-style:italic;text-align:center;text-anchor:middle;font-family:Baskerville;-inkscape-font-specification:Baskerville Italic"
           d="m 235.50475,-397.77451 0.72868,0 -2.20224,7.12489 -0.68011,0 c -1e-5,-0.6801 -0.054,-1.40878 -0.16193,-2.18604 -1.57612,1.53293 -3.38434,2.29939 -5.42463,2.29939 -2.35339,0 -4.22097,-0.84743 -5.60277,-2.54229 -1.3818,-1.70565 -2.0727,-3.64341 -2.07269,-5.81327 -1e-5,-3.46528 1.24685,-6.72546 3.74057,-9.78054 2.4937,-3.06584 5.31667,-4.59878 8.46891,-4.5988 1.31701,2e-5 2.42353,0.2861 3.31956,0.85823 0.90678,0.57217 1.60308,1.4304 2.08889,2.57468 0.48576,-0.82043 0.8528,-1.66246 1.10112,-2.5261 l 0.71249,0 -1.45737,6.39621 -0.6801,0 c 0.0324,-0.29145 0.0486,-0.56673 0.0486,-0.82584 -2e-5,-1.85677 -0.43723,-3.28715 -1.31163,-4.29113 -0.87444,-1.00394 -2.02954,-1.50592 -3.46529,-1.50594 -1.57613,2e-5 -3.04429,0.57217 -4.40449,1.71645 -1.36021,1.14432 -2.56929,3.10366 -3.62722,5.87804 -1.04715,2.76361 -1.57072,5.20874 -1.57071,7.33541 -1e-5,1.86759 0.4426,3.40052 1.32782,4.59879 0.896,1.19828 2.11587,1.79742 3.65961,1.79742 3.02267,0 5.51098,-2.16985 7.46495,-6.50956"
           inkscape:connector-curvature="0" /><path
           id="path4114"
           style="font-style:italic;text-align:center;text-anchor:middle;font-family:Baskerville;-inkscape-font-specification:Baskerville Italic"
           d="m 248.68581,-404.39743 1.94315,0 -2.88234,9.48907 c -0.42103,1.371 -0.63154,2.20224 -0.63153,2.49371 -1e-5,0.21591 0.0486,0.38324 0.14574,0.50198 0.0971,0.10796 0.24288,0.16193 0.43721,0.16193 0.74486,0 1.60309,-0.85282 2.57468,-2.55848 l 0.6801,0 c -0.42103,0.97158 -1.02557,1.85679 -1.81361,2.65564 -0.77727,0.78806 -1.49516,1.18209 -2.15366,1.18209 -0.50739,0 -0.89602,-0.18892 -1.1659,-0.56676 -0.26989,-0.37783 -0.40483,-0.84203 -0.40482,-1.39259 -1e-5,-0.44261 0.10795,-1.02015 0.32386,-1.73265 -0.4858,0.83124 -1.19289,1.65708 -2.12128,2.47753 -0.9176,0.80964 -1.78123,1.21447 -2.59087,1.21447 -0.75567,0 -1.40879,-0.31847 -1.95935,-0.95539 -0.53976,-0.64771 -0.80964,-1.51674 -0.80964,-2.60706 0,-1.46816 0.42101,-3.03887 1.26305,-4.71215 0.84203,-1.68406 1.93775,-3.08745 3.28717,-4.21017 1.3602,-1.1227 2.52069,-1.68405 3.48148,-1.68407 0.56135,2e-5 1.00395,0.13496 1.32782,0.40483 0.33465,0.26989 0.55595,0.67472 0.66391,1.21447 l 0.40483,-1.3764 m -8.46892,10.84928 c 0,0.71249 0.10795,1.25225 0.32386,1.61929 0.21591,0.35625 0.53976,0.53437 0.97158,0.53437 0.71249,0 1.56531,-0.52357 2.55849,-1.57072 1.00395,-1.04714 1.87297,-2.65024 2.60706,-4.8093 0.73407,-2.15906 1.10111,-3.62721 1.10112,-4.40449 -1e-5,-0.45339 -0.11876,-0.83662 -0.35624,-1.1497 -0.22671,-0.32384 -0.55597,-0.48577 -0.98777,-0.48578 -1.31704,1e-5 -2.68264,1.30084 -4.09682,3.9025 -1.41419,2.60167 -2.12128,4.72294 -2.12128,6.36383"
           inkscape:connector-curvature="0" /><path
           id="path4116"
           style="font-style:italic;text-align:center;text-anchor:middle;font-family:Baskerville;-inkscape-font-specification:Baskerville Italic"
           d="m 263.98814,-393.96917 0.82584,0 c -0.64773,1.16589 -1.31164,2.04031 -1.99173,2.62326 -0.66932,0.58294 -1.35482,0.87442 -2.0565,0.87442 -0.4858,0 -0.90682,-0.15114 -1.26305,-0.45341 -0.34546,-0.29147 -0.51819,-0.72868 -0.51818,-1.31163 -10e-6,-0.48578 0.24829,-1.44656 0.74488,-2.88234 l 1.73264,-4.93885 c 0.46419,-1.3494 0.69629,-2.22382 0.6963,-2.62326 -1e-5,-0.35623 -0.081,-0.62072 -0.24289,-0.79345 -0.15115,-0.17271 -0.38864,-0.25908 -0.71249,-0.25909 -0.82046,10e-6 -1.89459,0.96619 -3.2224,2.89854 -1.31703,1.92157 -2.45054,4.44227 -3.40052,7.56211 l -0.79345,2.59087 -1.97554,0 2.84995,-9.1976 c 0.51817,-1.69485 0.77726,-2.66643 0.77727,-2.91473 -10e-6,-0.18351 -0.0324,-0.31845 -0.0972,-0.40482 -0.0648,-0.0864 -0.16733,-0.12953 -0.30767,-0.12955 -0.63692,2e-5 -1.39259,0.78807 -2.26701,2.36417 l -0.74488,0 c 1.34941,-2.45052 2.62866,-3.67578 3.83773,-3.6758 0.42101,2e-5 0.73408,0.12956 0.93919,0.38864 0.2159,0.2483 0.32386,0.63153 0.32386,1.1497 0,0.9284 -0.36165,2.36418 -1.08492,4.30732 1.95394,-3.89709 3.85391,-5.84564 5.69991,-5.84566 0.59373,2e-5 1.11191,0.19973 1.55453,0.59914 0.44259,0.38865 0.6639,0.9608 0.66391,1.71646 -10e-6,0.4858 -0.22132,1.3926 -0.66391,2.72041 l -1.73265,5.16555 c -0.46421,1.3926 -0.69631,2.16986 -0.6963,2.33179 -1e-5,0.20511 0.0486,0.36164 0.14574,0.46959 0.10794,0.0972 0.25908,0.14574 0.4534,0.14574 0.36703,0 0.76106,-0.20511 1.18209,-0.61533 0.421,-0.42102 0.86901,-1.04175 1.34401,-1.86219"
           inkscape:connector-curvature="0" /><path
           id="path4118"
           style="font-style:italic;text-align:center;text-anchor:middle;font-family:Baskerville;-inkscape-font-specification:Baskerville Italic"
           d="m 277.83312,-393.87201 0.79345,0 c -0.4858,0.88521 -1.10113,1.67327 -1.846,2.36417 -0.73409,0.6909 -1.40879,1.03635 -2.02411,1.03635 -0.57216,0 -1.00398,-0.17273 -1.29544,-0.51818 -0.29148,-0.34545 -0.43722,-0.85822 -0.43721,-1.53833 -1e-5,-0.31306 0.027,-0.59914 0.081,-0.85822 -1.53293,1.94315 -2.95251,2.91473 -4.25874,2.91473 -0.73408,0 -1.36021,-0.29687 -1.87838,-0.89062 -0.51818,-0.59374 -0.77727,-1.45196 -0.77727,-2.57467 0,-1.56532 0.43182,-3.24399 1.29544,-5.03601 0.86362,-1.80281 1.93236,-3.1954 3.20621,-4.17778 1.27383,-0.99316 2.38035,-1.48974 3.31955,-1.48976 0.48578,2e-5 0.896,0.11337 1.23066,0.34006 0.34544,0.22671 0.62072,0.56676 0.82584,1.02015 l 1.97554,-6.52576 c 0.23749,-0.77724 0.35624,-1.24683 0.35625,-1.40878 -10e-6,-0.25907 -0.0756,-0.44259 -0.2267,-0.55056 -0.14035,-0.10794 -0.4966,-0.16191 -1.06874,-0.16193 l -0.4534,0 0.21051,-0.68011 c 1.5653,2e-5 2.81216,-0.19429 3.74057,-0.58294 l 0.40482,0 -5.18174,17.05117 c -0.63693,2.10509 -0.95539,3.34655 -0.95538,3.72438 -10e-6,0.26989 0.0486,0.475 0.14573,0.61533 0.10795,0.12955 0.25908,0.19432 0.45341,0.19432 0.32384,0 0.68009,-0.18892 1.06873,-0.56675 0.39941,-0.37784 0.83123,-0.94459 1.29544,-1.70026 m -9.78055,0.6801 c 0,0.60454 0.10256,1.06334 0.30767,1.3764 0.2159,0.30227 0.52897,0.4534 0.93919,0.4534 0.72328,0 1.55992,-0.50198 2.50991,-1.50594 0.94998,-1.01476 1.8244,-2.67723 2.62326,-4.98743 0.79884,-2.32098 1.19826,-3.78914 1.19827,-4.40448 -10e-6,-0.39942 -0.13495,-0.76106 -0.40482,-1.08493 -0.26989,-0.32385 -0.62614,-0.48577 -1.06873,-0.48579 -0.70171,2e-5 -1.44118,0.41563 -2.21844,1.24686 -0.76647,0.82045 -1.6085,2.25083 -2.5261,4.29113 -0.90681,2.02952 -1.36021,3.72978 -1.36021,5.10078"
           inkscape:connector-curvature="0" /><path
           id="path4120"
           style="font-style:italic;text-align:center;text-anchor:middle;font-family:Baskerville;-inkscape-font-specification:Baskerville Italic"
           d="m 284.92563,-411.78142 c -1e-5,-0.38861 0.13493,-0.71786 0.40482,-0.98777 0.28067,-0.28065 0.61533,-0.42099 1.00397,-0.42101 0.38862,2e-5 0.71788,0.14036 0.98777,0.42101 0.28067,0.26991 0.421,0.59916 0.42101,0.98777 -10e-6,0.38866 -0.14034,0.72331 -0.42101,1.00397 -0.26989,0.28069 -0.59915,0.42103 -0.98777,0.42101 -0.39944,2e-5 -0.73409,-0.14032 -1.00397,-0.42101 -0.26989,-0.29146 -0.40483,-0.62611 -0.40482,-1.00397 m 1.19828,17.31027 0.77726,0 c -0.50739,1.04714 -1.1713,1.97554 -1.99173,2.78519 -0.80966,0.80964 -1.59231,1.21447 -2.34798,1.21447 -0.50738,0 -0.95539,-0.17813 -1.34402,-0.53437 -0.37783,-0.36704 -0.56675,-0.90141 -0.56675,-1.6031 0,-0.57215 0.30227,-1.66787 0.90681,-3.28717 l 1.86218,-4.93885 c 0.43181,-1.15509 0.64772,-1.85678 0.64772,-2.10509 0,-0.21589 -0.054,-0.37782 -0.16193,-0.48578 -0.0972,-0.10794 -0.24829,-0.16192 -0.4534,-0.16193 -0.42102,1e-5 -0.923,0.32927 -1.50594,0.98777 -0.57216,0.64773 -0.97698,1.23607 -1.21448,1.76503 l -0.77726,0 c 0.59374,-1.17668 1.26845,-2.10507 2.02412,-2.78519 0.76646,-0.68009 1.47895,-1.02014 2.13747,-1.02016 0.50738,2e-5 0.92299,0.17274 1.24686,0.51818 0.32385,0.34546 0.48578,0.79886 0.48579,1.36021 -1e-5,0.57216 -0.28608,1.6193 -0.85823,3.14143 l -1.55452,4.21017 c -0.57216,1.52214 -0.85823,2.47752 -0.85823,2.86615 0,0.31306 0.0594,0.55056 0.17812,0.71249 0.12954,0.15113 0.31306,0.2267 0.55056,0.2267 0.79885,0 1.73804,-0.95538 2.81758,-2.86615"
           inkscape:connector-curvature="0" /><path
           id="path4122"
           style="font-style:italic;text-align:center;text-anchor:middle;font-family:Baskerville;-inkscape-font-specification:Baskerville Italic"
           d="m 299.59644,-393.87201 0.79346,0 c -0.4858,0.88521 -1.10113,1.67327 -1.846,2.36417 -0.73409,0.6909 -1.40879,1.03635 -2.02412,1.03635 -0.57216,0 -1.00397,-0.17273 -1.29543,-0.51818 -0.29148,-0.34545 -0.43722,-0.85822 -0.43721,-1.53833 -1e-5,-0.31306 0.027,-0.59914 0.081,-0.85822 -1.53294,1.94315 -2.95252,2.91473 -4.25874,2.91473 -0.73409,0 -1.36021,-0.29687 -1.87838,-0.89062 -0.51818,-0.59374 -0.77727,-1.45196 -0.77727,-2.57467 0,-1.56532 0.43181,-3.24399 1.29544,-5.03601 0.86362,-1.80281 1.93235,-3.1954 3.2062,-4.17778 1.27384,-0.99316 2.38036,-1.48974 3.31956,-1.48976 0.48578,2e-5 0.896,0.11337 1.23066,0.34006 0.34544,0.22671 0.62072,0.56676 0.82584,1.02015 l 1.97554,-6.52576 c 0.23749,-0.77724 0.35623,-1.24683 0.35625,-1.40878 -2e-5,-0.25907 -0.0756,-0.44259 -0.2267,-0.55056 -0.14035,-0.10794 -0.4966,-0.16191 -1.06874,-0.16193 l -0.4534,0 0.21051,-0.68011 c 1.5653,2e-5 2.81216,-0.19429 3.74057,-0.58294 l 0.40482,0 -5.18174,17.05117 c -0.63693,2.10509 -0.95539,3.34655 -0.95539,3.72438 0,0.26989 0.0486,0.475 0.14574,0.61533 0.10794,0.12955 0.25908,0.19432 0.4534,0.19432 0.32385,0 0.6801,-0.18892 1.06874,-0.56675 0.39941,-0.37784 0.83122,-0.94459 1.29543,-1.70026 m -9.78054,0.6801 c 0,0.60454 0.10256,1.06334 0.30767,1.3764 0.2159,0.30227 0.52897,0.4534 0.93919,0.4534 0.72328,0 1.55992,-0.50198 2.50991,-1.50594 0.94998,-1.01476 1.82439,-2.67723 2.62326,-4.98743 0.79884,-2.32098 1.19826,-3.78914 1.19827,-4.40448 -1e-5,-0.39942 -0.13495,-0.76106 -0.40482,-1.08493 -0.26989,-0.32385 -0.62614,-0.48577 -1.06874,-0.48579 -0.7017,2e-5 -1.44117,0.41563 -2.21843,1.24686 -0.76647,0.82045 -1.6085,2.25083 -2.5261,4.29113 -0.90681,2.02952 -1.36021,3.72978 -1.36021,5.10078"
           inkscape:connector-curvature="0" /><path
           id="path4124"
           style="font-style:italic;text-align:center;text-anchor:middle;font-family:Baskerville;-inkscape-font-specification:Baskerville Italic"
           d="m 312.22694,-404.39743 1.94315,0 -2.88234,9.48907 c -0.42103,1.371 -0.63154,2.20224 -0.63153,2.49371 -1e-5,0.21591 0.0486,0.38324 0.14574,0.50198 0.0971,0.10796 0.24288,0.16193 0.43721,0.16193 0.74486,0 1.60309,-0.85282 2.57468,-2.55848 l 0.6801,0 c -0.42103,0.97158 -1.02556,1.85679 -1.81361,2.65564 -0.77727,0.78806 -1.49516,1.18209 -2.15366,1.18209 -0.50739,0 -0.89602,-0.18892 -1.16589,-0.56676 -0.26989,-0.37783 -0.40483,-0.84203 -0.40483,-1.39259 0,-0.44261 0.10795,-1.02015 0.32386,-1.73265 -0.48579,0.83124 -1.19289,1.65708 -2.12127,2.47753 -0.91761,0.80964 -1.78123,1.21447 -2.59088,1.21447 -0.75567,0 -1.40879,-0.31847 -1.95934,-0.95539 -0.53977,-0.64771 -0.80965,-1.51674 -0.80965,-2.60706 0,-1.46816 0.42101,-3.03887 1.26305,-4.71215 0.84203,-1.68406 1.93775,-3.08745 3.28717,-4.21017 1.3602,-1.1227 2.52069,-1.68405 3.48148,-1.68407 0.56135,2e-5 1.00396,0.13496 1.32782,0.40483 0.33465,0.26989 0.55595,0.67472 0.66392,1.21447 l 0.40482,-1.3764 m -8.46891,10.84928 c -1e-5,0.71249 0.10795,1.25225 0.32385,1.61929 0.21591,0.35625 0.53977,0.53437 0.97158,0.53437 0.71249,0 1.56531,-0.52357 2.55849,-1.57072 1.00395,-1.04714 1.87297,-2.65024 2.60706,-4.8093 0.73407,-2.15906 1.10111,-3.62721 1.10112,-4.40449 -1e-5,-0.45339 -0.11875,-0.83662 -0.35624,-1.1497 -0.22671,-0.32384 -0.55597,-0.48577 -0.98777,-0.48578 -1.31704,1e-5 -2.68264,1.30084 -4.09682,3.9025 -1.41419,2.60167 -2.12128,4.72294 -2.12127,6.36383"
           inkscape:connector-curvature="0" /><path
           id="path4126"
           style="font-style:italic;text-align:center;text-anchor:middle;font-family:Baskerville;-inkscape-font-specification:Baskerville Italic"
           d="m 323.8049,-404.18692 -0.2267,0.71249 -2.42894,0 -2.13747,7.07632 c -0.7125,2.32099 -1.06874,3.6704 -1.06874,4.04823 0,0.25909 0.054,0.45881 0.16193,0.59914 0.11875,0.12955 0.28607,0.19432 0.50198,0.19432 0.38863,0 0.89601,-0.36704 1.52214,-1.10112 0.62612,-0.73408 1.18748,-1.65708 1.68407,-2.769 l 0.71249,0 c -0.65852,1.60851 -1.41419,2.83917 -2.26702,3.692 -0.84204,0.84203 -1.6139,1.26305 -2.31559,1.26305 -0.55056,0 -0.99317,-0.19432 -1.32782,-0.58295 -0.32386,-0.38863 -0.48579,-0.87982 -0.48579,-1.47356 0,-0.50738 0.33465,-1.85679 1.00396,-4.04824 l 2.08889,-6.89819 -2.23462,0 0.2267,-0.71249 2.21843,0 1.48975,-4.90647 1.94316,0 -1.48975,4.90647 2.42894,0"
           inkscape:connector-curvature="0" /><path
           id="path4128"
           style="font-style:italic;text-align:center;text-anchor:middle;font-family:Baskerville;-inkscape-font-specification:Baskerville Italic"
           d="m 330.89741,-395.0541 0.77727,0 c -1.37102,3.05507 -3.13065,4.58261 -5.27891,4.58261 -0.88521,0 -1.6085,-0.30767 -2.16985,-0.923 -0.55056,-0.62613 -0.82584,-1.46816 -0.82584,-2.5261 0,-1.33861 0.35624,-2.84996 1.06873,-4.53403 0.72329,-1.68406 1.74344,-3.13602 3.06047,-4.3559 1.32782,-1.21986 2.48291,-1.82979 3.46529,-1.82981 0.60453,2e-5 1.06333,0.19433 1.3764,0.58295 0.31306,0.37785 0.46959,0.85284 0.4696,1.42498 -1e-5,1.1659 -0.58296,2.28861 -1.74884,3.36813 -1.1659,1.06875 -2.91474,2.0997 -5.24652,3.09286 -0.30227,0.93919 -0.4534,1.8298 -0.4534,2.67183 0,0.69091 0.13494,1.20908 0.40482,1.55453 0.26988,0.34545 0.66931,0.51817 1.19828,0.51817 1.47895,0 2.77979,-1.20907 3.9025,-3.62722 m -4.8093,-1.94315 c 1.39259,-0.62612 2.64484,-1.48975 3.75676,-2.59087 1.11191,-1.10112 1.66787,-2.09968 1.66788,-2.9957 -10e-6,-0.41021 -0.0864,-0.71248 -0.25909,-0.90681 -0.16194,-0.20509 -0.41023,-0.30765 -0.74488,-0.30766 -0.64772,1e-5 -1.41419,0.63154 -2.2994,1.89457 -0.87442,1.25227 -1.58151,2.88775 -2.12127,4.90647"
           inkscape:connector-curvature="0" /><path
           id="path4130"
           style="font-style:italic;text-align:center;text-anchor:middle;font-family:Baskerville;-inkscape-font-specification:Baskerville Italic"
           d="m 349.42215,-395.52369 0.64772,0 c -0.52898,1.54373 -1.26846,2.77439 -2.21844,3.69199 -0.94999,0.9068 -1.93776,1.36021 -2.96331,1.36021 -0.86362,0 -1.56532,-0.32386 -2.10508,-0.97158 -0.52897,-0.65851 -0.79345,-1.58151 -0.79345,-2.769 0,-1.39258 0.35624,-2.90932 1.06873,-4.55021 0.72328,-1.65168 1.73264,-3.04427 3.02808,-4.17779 1.30623,-1.13349 2.45593,-1.70024 3.4491,-1.70026 0.57214,2e-5 1.05793,0.18354 1.45737,0.55057 0.39941,0.36705 0.59913,0.80966 0.59914,1.32782 -1e-5,0.76647 -0.30768,1.14971 -0.923,1.1497 -0.62614,10e-6 -0.95539,-0.42641 -0.98777,-1.27925 -0.0216,-0.63691 -0.2645,-0.95537 -0.72868,-0.95538 -0.60455,1e-5 -1.30624,0.56137 -2.10509,1.68407 -0.79886,1.11192 -1.48436,2.60167 -2.0565,4.46925 -0.57216,1.8568 -0.85823,3.27098 -0.85823,4.24255 0,0.61534 0.15653,1.10652 0.4696,1.47356 0.31306,0.36704 0.69089,0.55056 1.1335,0.55056 0.63692,0 1.32782,-0.36704 2.0727,-1.10112 0.75566,-0.74487 1.3602,-1.74344 1.81361,-2.99569"
           inkscape:connector-curvature="0" /><path
           id="path4132"
           style="font-style:italic;text-align:center;text-anchor:middle;font-family:Baskerville;-inkscape-font-specification:Baskerville Italic"
           d="m 357.47005,-411.78142 c -1e-5,-0.38861 0.13493,-0.71786 0.40482,-0.98777 0.28067,-0.28065 0.61533,-0.42099 1.00396,-0.42101 0.38863,2e-5 0.71788,0.14036 0.98777,0.42101 0.28067,0.26991 0.42101,0.59916 0.42102,0.98777 -1e-5,0.38866 -0.14035,0.72331 -0.42102,1.00397 -0.26989,0.28069 -0.59914,0.42103 -0.98777,0.42101 -0.39943,2e-5 -0.73408,-0.14032 -1.00396,-0.42101 -0.26989,-0.29146 -0.40483,-0.62611 -0.40482,-1.00397 m 1.19828,17.31027 0.77726,0 c -0.50739,1.04714 -1.1713,1.97554 -1.99174,2.78519 -0.80965,0.80964 -1.59231,1.21447 -2.34797,1.21447 -0.50739,0 -0.95539,-0.17813 -1.34402,-0.53437 -0.37784,-0.36704 -0.56675,-0.90141 -0.56675,-1.6031 0,-0.57215 0.30227,-1.66787 0.9068,-3.28717 l 1.86219,-4.93885 c 0.43181,-1.15509 0.64772,-1.85678 0.64772,-2.10509 0,-0.21589 -0.054,-0.37782 -0.16193,-0.48578 -0.0972,-0.10794 -0.24829,-0.16192 -0.4534,-0.16193 -0.42102,1e-5 -0.923,0.32927 -1.50595,0.98777 -0.57215,0.64773 -0.97697,1.23607 -1.21447,1.76503 l -0.77726,0 c 0.59374,-1.17668 1.26845,-2.10507 2.02412,-2.78519 0.76646,-0.68009 1.47895,-1.02014 2.13747,-1.02016 0.50737,2e-5 0.92299,0.17274 1.24686,0.51818 0.32385,0.34546 0.48578,0.79886 0.48579,1.36021 -1e-5,0.57216 -0.28609,1.6193 -0.85823,3.14143 l -1.55452,4.21017 c -0.57216,1.52214 -0.85823,2.47752 -0.85823,2.86615 0,0.31306 0.0594,0.55056 0.17812,0.71249 0.12954,0.15113 0.31306,0.2267 0.55056,0.2267 0.79885,0 1.73804,-0.95538 2.81758,-2.86615"
           inkscape:connector-curvature="0" /><path
           id="path4134"
           style="font-style:italic;text-align:center;text-anchor:middle;font-family:Baskerville;-inkscape-font-specification:Baskerville Italic"
           d="m 368.75654,-404.18692 -0.2267,0.71249 -2.42895,0 -2.13747,7.07632 c -0.71249,2.32099 -1.06873,3.6704 -1.06873,4.04823 0,0.25909 0.054,0.45881 0.16193,0.59914 0.11874,0.12955 0.28607,0.19432 0.50198,0.19432 0.38863,0 0.896,-0.36704 1.52214,-1.10112 0.62612,-0.73408 1.18747,-1.65708 1.68406,-2.769 l 0.71249,0 c -0.65852,1.60851 -1.41419,2.83917 -2.26701,3.692 -0.84204,0.84203 -1.6139,1.26305 -2.31559,1.26305 -0.55056,0 -0.99317,-0.19432 -1.32782,-0.58295 -0.32386,-0.38863 -0.48579,-0.87982 -0.48579,-1.47356 0,-0.50738 0.33465,-1.85679 1.00396,-4.04824 l 2.08889,-6.89819 -2.23463,0 0.22671,-0.71249 2.21843,0 1.48975,-4.90647 1.94316,0 -1.48976,4.90647 2.42895,0"
           inkscape:connector-curvature="0" /><path
           id="path4136"
           style="font-style:italic;text-align:center;text-anchor:middle;font-family:Baskerville;-inkscape-font-specification:Baskerville Italic"
           d="m 369.33947,-400.25204 -0.6801,0 c 0.12954,-1.53292 0.46419,-2.64483 1.00396,-3.33574 0.55056,-0.70168 1.1389,-1.05253 1.76503,-1.05255 0.79885,2e-5 1.43577,0.4912 1.91077,1.47356 0.48578,0.97159 0.72868,2.45594 0.72868,4.45306 0,2.60168 -0.29688,4.98204 -0.89061,7.1411 1.05793,-1.1551 2.08888,-2.62326 3.09285,-4.40449 1.01475,-1.78121 1.52213,-3.29795 1.52214,-4.55022 -1e-5,-0.59373 -0.17273,-1.18207 -0.51817,-1.76503 -0.34546,-0.57214 -0.51819,-1.00395 -0.51818,-1.29543 -10e-6,-0.28067 0.081,-0.52356 0.2429,-0.72869 0.17271,-0.21589 0.37782,-0.32384 0.61533,-0.32386 0.38862,2e-5 0.70708,0.22132 0.95538,0.66392 0.24828,0.44262 0.37243,1.09573 0.37244,1.95934 -10e-6,1.29545 -0.39944,2.87696 -1.19828,4.74454 -0.78806,1.85679 -1.94856,3.70279 -3.48148,5.53799 -1.53294,1.8244 -3.06047,3.47068 -4.58261,4.93885 -1.51134,1.47895 -2.80678,2.5045 -3.88631,3.07666 -1.09032,0.58294 -2.16985,0.87441 -3.23859,0.87442 -1.37099,-1e-5 -2.05649,-0.39404 -2.0565,-1.18209 1e-5,-0.32386 0.14574,-0.58295 0.43721,-0.77726 0.29148,-0.18353 0.59914,-0.27529 0.923,-0.27528 0.24829,-10e-6 0.63692,0.0702 1.16589,0.21051 0.6909,0.19431 1.25766,0.29146 1.70026,0.29147 0.64772,-10e-6 1.28464,-0.18353 1.91077,-0.55056 0.61533,-0.35625 1.3764,-0.98238 2.2832,-1.87838 0.9176,-0.88522 1.55992,-1.67328 1.92696,-2.36417 0.36704,-0.68011 0.6909,-1.88378 0.97158,-3.61103 0.29147,-1.72725 0.43721,-3.58403 0.43721,-5.57038 0,-1.51133 -0.14034,-2.67722 -0.42102,-3.49767 -0.28068,-0.82043 -0.62613,-1.23065 -1.03634,-1.23067 -0.78806,2e-5 -1.27385,1.00937 -1.45737,3.02808"
           inkscape:connector-curvature="0" /></g></g></g></svg>