<?xml version="1.0" encoding="UTF-8" standalone="no"?>
<!-- Created with Inkscape (http://www.inkscape.org/) -->

<svg
   xmlns:dc="http://purl.org/dc/elements/1.1/"
   xmlns:cc="http://creativecommons.org/ns#"
   xmlns:rdf="http://www.w3.org/1999/02/22-rdf-syntax-ns#"
   xmlns:svg="http://www.w3.org/2000/svg"
   xmlns="http://www.w3.org/2000/svg"
   xmlns:sodipodi="http://sodipodi.sourceforge.net/DTD/sodipodi-0.dtd"
   xmlns:inkscape="http://www.inkscape.org/namespaces/inkscape"
   id="svg2"
   version="1.1"
   inkscape:version="0.48.2 r9819"
   width="200"
   height="102"
   xml:space="preserve"
   sodipodi:docname="2012_OG-Report_of_the_Evaluation_Commission.pdf"><metadata
     id="metadata8"><rdf:RDF><cc:Work
         rdf:about=""><dc:format>image/svg+xml</dc:format><dc:type
           rdf:resource="http://purl.org/dc/dcmitype/StillImage" /><dc:title></dc:title></cc:Work></rdf:RDF></metadata><defs
     id="defs6"><clipPath
       clipPathUnits="userSpaceOnUse"
       id="clipPath18"><path
         d="m -1,843 597,0 0,-844 -597,0 0,844 z"
         id="path20"
         inkscape:connector-curvature="0" /></clipPath><clipPath
       clipPathUnits="userSpaceOnUse"
       id="clipPath24"><path
         d="m 0,842.04 594.96,0 L 594.96,0 0,0 0,842.04 z"
         id="path26"
         inkscape:connector-curvature="0" /></clipPath></defs><sodipodi:namedview
     pagecolor="#ffffff"
     bordercolor="#666666"
     borderopacity="1"
     objecttolerance="10"
     gridtolerance="10"
     guidetolerance="10"
     inkscape:pageopacity="0"
     inkscape:pageshadow="2"
     inkscape:window-width="2560"
     inkscape:window-height="1305"
     id="namedview4"
     showgrid="false"
     inkscape:zoom="2.5368505"
     inkscape:cx="268.68948"
     inkscape:cy="-88.297413"
     inkscape:window-x="0"
     inkscape:window-y="0"
     inkscape:window-maximized="1"
     inkscape:current-layer="g10" /><g
     id="g10"
     inkscape:groupmode="layer"
     inkscape:label="2012_OG-Report_of_the_Evaluation_Commission"
     transform="matrix(1.25,0,0,-1.25,0,1052.5)"><g
       id="g3118"
       transform="matrix(0.35404091,0,0,0.35404091,-27.926551,673.77455)"><g
         id="g3083"><path
           d="m 101.595,415.334 c 0,0 -1.494,0.164 -1.584,-1.248 0,0 -1.086,-23.115 -6.088,-24.117 0,0 -6.782,-2.978 -12.712,7.181 0,0 -0.484,25.891 1.059,44.353 1.091,13.073 4.361,20.608 4.361,20.608 0,0 4.001,3.407 8.892,2.332 0,0 3.701,4.301 10.036,3.914 0,0 1.083,-0.591 4.505,0 0,0 19.316,2.438 27.317,-13.38 0,0 7.903,-12.592 -0.099,-20.099 0,0 -8.009,-15.325 -29.574,-18.452 0,0 -5.141,-1.092 -6.113,-1.092 m 0.263,14.762 c 0,0 -1.461,-1.46 -1.659,0.287 -0.192,1.758 -0.098,23.43 -0.098,23.43 0,0 -0.394,3.027 3.718,2.239 0,0 19.411,0.883 23.711,-9.072 0,0 1.949,-8.3 -4.879,-10.051 0,0 -16.683,-6.43 -20.793,-6.833"
           style="fill:#eb1c22;fill-opacity:1;fill-rule:evenodd;stroke:none"
           id="path50"
           inkscape:connector-curvature="0" /><path
           d="m 148.415,406.48 c 0,0 -1.367,0.287 -1.753,-1.174 0,0 -2.158,-13.268 -7.524,-12.588 0,0 -2.151,-2.452 -4.489,0 0,0 -4.382,-0.59 -2.823,4.868 0,0 2.531,14.753 6.145,21.967 0,0 8.78,23.131 9.946,25.371 0,0 5.662,15.437 11.723,16.897 0,0 3.508,3.799 6.15,2.134 0,0 2.338,0.488 2.633,-2.241 0,0 1.851,0.397 2.636,-2.74 0,0 7.622,-11.966 11.684,-25.061 8.831,-28.484 7.041,-31.732 7.041,-31.732 0,0 0.893,-3.414 -1.649,-1.461 0,0 -1.29,0.385 -1.567,-0.485 -0.28,-0.877 -0.575,-1.658 -1.273,0 0,0 -2.224,0.584 -2.736,-0.303 0,0 0.998,-3.118 -2.72,0 -3.71,3.117 -7.221,10.06 -7.221,10.06 0,0 -0.215,0.969 -1.559,0.582 0,0 -6.947,-2.15 -9.758,-2.15 -2.839,0 -6.548,-1.452 -6.548,-1.452 0,0 -4.197,-0.689 -6.338,-0.492 m 4.192,15.903 c -0.373,-0.123 -1.56,-0.295 -1.166,1.174 0.39,1.468 9.758,22.838 9.758,22.838 0,0 0.684,2.44 1.267,-0.19 0.584,-2.638 1.958,-15.435 3.217,-18.751 0,0 0.394,-2.142 -0.968,-1.845 0,0 -2.433,0.089 -12.108,-3.226"
           style="fill:#fca818;fill-opacity:1;fill-rule:evenodd;stroke:none"
           id="path52"
           inkscape:connector-curvature="0" /><path
           d="m 194.384,395.926 c 0,0 -2.253,-1.648 -2.45,1.372 -0.189,3.02 -1.449,33.865 4.686,49.485 0,0 2.149,12.293 9.666,19.034 0,0 2.536,0.496 3.225,0.886 0,0 18.144,8.284 34.063,-4.308 0,0 10.938,-8.582 3.118,-29.18 0,0 -6.048,-8.863 -10.939,-10.537 0,0 -2.445,-0.295 -0.483,-1.845 0,0 2.928,-4.588 23.136,-18.563 0,0 3.41,-3.118 3.902,-3.118 0,0 2.249,-2.526 -1.67,-0.575 -3.898,1.946 -4.869,2.035 -4.869,2.035 0,0 -4.293,2.437 -5.278,0.985 0,0 -4.965,1.658 -6.822,1.355 0,0 -1.949,2.141 -8.194,1.674 0,0 -4.981,0.68 -10.257,5.458 0,0 -7.312,2.445 -12.967,7.803 0,0 -3.52,0.59 -3.815,-0.468 0,0 -0.993,-17.677 -5.572,-24.018 0,0 -0.484,-2.249 -1.353,0.294 -0.879,2.537 -2.939,1.56 -2.939,1.56 0,0 -3.519,2.723 -4.188,0.671 m 18.245,39.537 c 0,0 -1.953,-3.125 -1.846,-0.093 0.09,3.02 -0.205,15.708 -0.205,15.708 0,0 1.074,4.87 13.08,3.029 12.009,-1.85 10.845,-8.689 10.845,-8.689 0,0 0.18,-4.785 -8.884,-7.222 -9.084,-2.441 -10.65,-2.54 -10.65,-2.54 l -2.34,-0.193"
           style="fill:#000000;fill-opacity:1;fill-rule:evenodd;stroke:none"
           id="path54"
           inkscape:connector-curvature="0" /><path
           d="m 263.083,401.991 c 0,0 -1.657,-1.172 -1.949,1.264 -0.155,1.329 -2.667,18.415 1.156,38.721 2.504,13.3 7.427,21.979 7.427,21.979 0,0 3.328,5.088 7.132,2.249 0,0 -0.078,-1.15 0.369,-3.506 0.837,-4.512 2.568,-12.608 3.18,-20.104 0.759,-9.154 -0.135,-18.061 -0.135,-18.061 0,0 -2.146,-20.491 -7.025,-26.448 0,0 -0.799,-2.052 -2.035,-0.286 0,0 -0.788,0.778 -2.166,0.179 0,0 -1.756,2.93 -3.102,2.06 0,0 -0.706,1.165 -1.575,0.969 -0.886,-0.188 -1.277,0.984 -1.277,0.984"
           style="fill:#0278bd;fill-opacity:1;fill-rule:evenodd;stroke:none"
           id="path56"
           inkscape:connector-curvature="0" /><path
           d="m 309.935,387.837 c 0,0 -0.984,-1.174 -2.042,0.286 0,0 0.193,0.878 -2.061,1.273 -2.248,0.394 -1.658,2.141 -1.658,2.141 0,0 -4.791,3.718 -4,5.277 0,0 16.212,3.709 16.686,14.244 0,0 -0.098,4.883 -8.485,9.677 0,0 -27.14,9.551 -22.836,27.804 4.288,18.241 15.32,22.054 16.879,22.842 1.568,0.78 11.218,5.563 26.543,-4.202 0,0 7.122,-5.465 7.405,-7.992 0,0 0.5,-1.96 1.58,-0.595 0,0 7.709,16.589 29.467,7.997 0,0 19.481,-10.282 4.789,-35.918 0,0 -2.929,-5.744 -19.424,-16.1 0,0 -4.39,-3.316 0,-3.905 l 14.246,-0.378 c 0,0 2.83,-0.394 1.173,-2.83 -1.657,-2.447 -2.732,-4.892 -2.732,-4.892 0,0 -0.099,-2.043 -2.249,-0.877 0,0 -8.488,0.098 -10.249,-1.947 l -12.187,0.092 c 0,0 -2.834,-0.977 -4.591,0.778 0,0 -3.129,-0.18 -4.491,2.94 0,0 -0.986,2.042 -1.461,-0.107 0,0 -1.954,-8.387 -15.625,-13.467 l -4.677,-2.141 m 22.148,28.005 c 0,0 -0.775,-2.239 -1.551,-0.295 -0.783,1.962 -6.541,7.814 -6.541,7.814 0,0 -7.131,6.532 -10.25,8.59 -3.124,2.048 -8.008,5.474 -8.008,5.474 0,0 -13.457,16.01 5.671,23.415 0,0 5.456,0.981 7.517,-0.891 0,0 5.26,0 5.945,-1.058 0,0 7.799,-4.684 8.395,-4.684 0,0 2.928,0.671 1.943,-2.446 0,0 2.742,-2.738 6.25,1.674 3.52,4.377 7.212,6.819 10.643,7.597 3.414,0.789 10.446,-1.083 11.697,-3.315 1.275,-2.252 2.939,-4.685 -0.185,-15.221 0,0 -1.463,-5.277 -12.391,-10.742 0,0 -13.863,-7.713 -17.666,-13.277 l -1.469,-2.635"
           style="fill:#019d48;fill-opacity:1;fill-rule:evenodd;stroke:none"
           id="path58"
           inkscape:connector-curvature="0" /><path
           d="m 389.565,405.406 c 0,0 -0.775,1.271 -2.728,1.074 -1.957,-0.197 -8.296,7.993 -8.497,12.194 -0.189,4.201 -1.157,11.219 0.788,15.418 1.952,4.203 0.09,4.006 6.531,17.277 6.449,13.274 18.258,14.341 18.258,14.341 0,0 10.139,2.262 13.769,-2.716 0,0 11.613,-8.307 11.21,-11.136 0,0 5.474,-8.784 1.756,-25.864 0,0 -0.489,-12.006 -12.587,-19.514 0,0 -2.052,-2.831 -9.668,-4.102 -7.61,-1.273 -12.386,0.671 -12.386,0.671 0,0 -2.35,0.396 -2.729,1.083 -0.398,0.69 -2.638,0.879 -2.638,0.879 l -1.079,0.395 m 14.163,12.398 c 0,0 -1.464,-0.492 -2.827,2.331 -1.382,2.839 -3.032,5.563 -3.418,11.431 -0.402,5.859 3.021,14.541 3.021,14.541 0,0 3.995,4.874 6.138,5.456 0,0 5.572,0.295 6.634,-0.29 0,0 0.71,-0.04 1.51,0.188 0.923,0.258 1.998,0.745 2.211,-0.092 0.382,-1.553 7.025,-6.539 1.665,-23.628 0,0 0.773,-5.266 -11.13,-9.749 0,0 -1.572,-0.573 -3.804,-0.188"
           style="fill:#fca818;fill-opacity:1;fill-rule:evenodd;stroke:none"
           id="path60"
           inkscape:connector-curvature="0" /><path
           d="m 440.905,412.429 c 0,0 -7.799,5.661 -2.942,31.03 0,0 0.888,6.541 1.772,8.202 0,0 0.379,7.313 5.27,10.254 0,0 3.023,4 5.459,3.315 2.43,-0.693 3.998,-0.292 4.203,-1.76 0,0 2.789,-7.931 2.937,-18.926 0.149,-10.311 -2.355,-23.711 -2.355,-23.711 0,0 -2.634,-9.38 -3.627,-10.456 0,0 -0.682,-2.641 -1.648,-0.385 0,0 -0.198,0.969 -1.165,-0.098 0,0 -1.264,-0.09 -2.242,1.067 0,0 -0.787,0.197 -1.472,-0.295 0,0 -3.119,-0.188 -4.19,1.763"
           style="fill:#0278bd;fill-opacity:1;fill-rule:evenodd;stroke:none"
           id="path62"
           inkscape:connector-curvature="0" /><path
           d="m 525.615,410.084 c 0,0 -9.362,0.293 -8.969,-3.702 0,0 2.143,-2.15 -1.477,-1.56 0,0 -1.559,0.871 -2.438,-1.073 0,0 1.659,-0.879 -6.833,-0.987 -8.487,-0.105 -12.883,-1.362 -12.883,-1.362 0,0 -6.926,-0.098 -16.004,-2.543 0,0 -2.633,-3.217 -8.196,-1.271 0,0 -1.947,-0.288 -2.447,1.96 0,0 -2.148,-0.188 -2.626,1.362 0,0 -0.484,0.984 -1.46,0.197 0,0 -1.566,-0.286 -3.127,1.165 0.182,0.387 -1.658,-0.089 0.682,4.21 0,0 7.114,17.561 20.006,29.656 0,0 13.172,15.058 8,19.14 0,0 -2.543,2.148 -6.539,1.367 0,0 -4.49,-0.591 -5.852,-1.765 -1.353,-1.165 -2.937,-3.02 -2.937,-3.02 0,0 -0.188,-1.557 -1.363,-2.239 0,0 -0.385,-1.765 -2.928,-0.698 -2.537,1.079 -3.127,1.765 -3.127,1.765 0,0 -1.256,2.346 0.501,4.779 0,0 2.526,8.592 10.823,11.616 0,0 0.788,-0.68 2.166,0.188 0,0 8.476,7.135 21.353,-4.678 0,0 5.545,-9.687 3.11,-19.102 -2.906,-11.243 -10.619,-22.074 -10.619,-22.074 0,0 -2.528,-2.651 0,-1.763 0,0 31.132,-0.691 36.114,-6.443 l -2.93,-3.125"
           style="fill:#eb1c22;fill-opacity:1;fill-rule:evenodd;stroke:none"
           id="path64"
           inkscape:connector-curvature="0" /></g><g
         id="g3093"><path
           d="m 378.429,350.519 c -4.952,0 -8.099,4.076 -8.099,9.876 0,5.8 3.147,9.877 8.099,9.877 3.119,0 5.199,-1.259 6.511,-3.584 l -2.544,-1.587 c -0.985,1.559 -1.999,2.298 -3.967,2.298 -3.338,0 -5.144,-2.708 -5.144,-7.004 0,-4.295 1.806,-7.004 5.144,-7.004 1.998,0 3.228,0.821 4.213,2.38 l 2.381,-1.586 c -1.369,-2.354 -3.694,-3.666 -6.594,-3.666"
           style="fill:#000000;fill-opacity:1;fill-rule:nonzero;stroke:none"
           id="path66"
           inkscape:connector-curvature="0" /><path
           d="m 162.24,350.519 c -4.952,0 -8.099,4.076 -8.099,9.875 0,5.801 3.147,9.877 8.099,9.877 3.119,0 5.198,-1.259 6.511,-3.584 l -2.544,-1.587 c -0.985,1.56 -1.997,2.299 -3.967,2.299 -3.338,0 -5.144,-2.709 -5.144,-7.005 0,-4.294 1.806,-7.003 5.144,-7.003 1.997,0 3.228,0.821 4.213,2.38 l 2.38,-1.587 c -1.368,-2.353 -3.693,-3.665 -6.593,-3.665"
           style="fill:#000000;fill-opacity:1;fill-rule:nonzero;stroke:none"
           id="path68"
           inkscape:connector-curvature="0" /><path
           d="m 190.549,350.82 -1.615,4.54 -7.661,0 -1.587,-4.54 -2.981,0 6.894,19.15 3.037,0 6.977,-19.15 -3.064,0 z m -4.022,11.516 c -0.466,1.37 -1.232,3.586 -1.45,4.406 -0.219,-0.82 -0.904,-3.01 -1.396,-4.432 l -1.532,-4.377 5.91,0 -1.532,4.403"
           style="fill:#000000;fill-opacity:1;fill-rule:nonzero;stroke:none"
           id="path70"
           inkscape:connector-curvature="0" /><path
           d="m 214.954,350.82 -7.634,12.01 c -0.465,0.71 -1.122,1.86 -1.422,2.352 0,-0.712 0.027,-3.364 0.027,-4.431 l 0,-9.931 -2.791,0 0,19.15 2.928,0 7.277,-11.682 c 0.492,-0.793 1.313,-2.217 1.587,-2.709 0,0.712 -0.028,3.448 -0.028,4.514 l 0,9.877 2.792,0 0,-19.15 -2.736,0"
           style="fill:#000000;fill-opacity:1;fill-rule:nonzero;stroke:none"
           id="path72"
           inkscape:connector-curvature="0" /><path
           d="m 234.048,350.82 -5.226,0 0,19.15 5.226,0 c 5.143,0 9.329,-2.817 9.329,-9.576 0,-6.757 -4.322,-9.574 -9.329,-9.574 z m 0,16.36 -2.353,0 0,-13.571 2.353,0 c 4.541,0 6.402,2.763 6.402,6.785 0,4.022 -1.861,6.786 -6.402,6.786"
           style="fill:#000000;fill-opacity:1;fill-rule:nonzero;stroke:none"
           id="path74"
           inkscape:connector-curvature="0" /><path
           d="m 253.231,369.97 2.872,0 0,-19.151 -2.872,0 0,19.151 z"
           style="fill:#000000;fill-opacity:1;fill-rule:nonzero;stroke:none"
           id="path76"
           inkscape:connector-curvature="0" /><path
           d="m 272.395,350.82 -5.226,0 0,19.15 5.226,0 c 5.144,0 9.329,-2.817 9.329,-9.576 0,-6.757 -4.322,-9.574 -9.329,-9.574 z m 0,16.36 -2.353,0 0,-13.571 2.353,0 c 4.542,0 6.402,2.763 6.402,6.785 0,4.022 -1.86,6.786 -6.402,6.786"
           style="fill:#000000;fill-opacity:1;fill-rule:nonzero;stroke:none"
           id="path78"
           inkscape:connector-curvature="0" /><path
           d="m 303.112,350.82 -1.614,4.54 -7.661,0 -1.586,-4.54 -2.982,0 6.894,19.15 3.037,0 6.978,-19.15 -3.066,0 z m -4.022,11.516 c -0.465,1.37 -1.231,3.586 -1.45,4.406 -0.219,-0.82 -0.902,-3.01 -1.394,-4.432 l -1.533,-4.377 5.91,0 -1.533,4.403"
           style="fill:#000000;fill-opacity:1;fill-rule:nonzero;stroke:none"
           id="path80"
           inkscape:connector-curvature="0" /><path
           d="m 320.478,367.153 0,-16.333 -2.874,0 0,16.333 -5.581,0 0,2.817 14.037,0 0,-2.817 -5.582,0"
           style="fill:#000000;fill-opacity:1;fill-rule:nonzero;stroke:none"
           id="path82"
           inkscape:connector-curvature="0" /><path
           d="m 335.529,350.82 0,19.15 12.339,0 0,-2.79 -9.466,0 0,-4.733 5.499,0 0,-2.792 -5.499,0 0,-6.046 9.876,0 0,-2.789 -12.749,0"
           style="fill:#000000;fill-opacity:1;fill-rule:nonzero;stroke:none"
           id="path84"
           inkscape:connector-curvature="0" /><path
           d="m 394.935,369.971 2.873,0 0,-19.152 -2.873,0 0,19.152 z"
           style="fill:#000000;fill-opacity:1;fill-rule:nonzero;stroke:none"
           id="path86"
           inkscape:connector-curvature="0" /><path
           d="m 415.103,367.153 0,-16.333 -2.872,0 0,16.333 -5.582,0 0,2.818 14.036,0 0,-2.818 -5.582,0"
           style="fill:#000000;fill-opacity:1;fill-rule:nonzero;stroke:none"
           id="path88"
           inkscape:connector-curvature="0" /><path
           d="m 436.998,358.398 0,-7.578 -2.872,0 0,7.578 -6.868,11.573 3.365,0 2.982,-5.28 c 0.657,-1.177 1.642,-3.092 1.97,-3.803 0.328,0.711 1.287,2.544 1.971,3.775 l 3.009,5.308 3.311,0 -6.868,-11.573"
           style="fill:#000000;fill-opacity:1;fill-rule:nonzero;stroke:none"
           id="path90"
           inkscape:connector-curvature="0" /></g><g
         id="g3108"><path
           d="m 362.366,332.226 c -14.952,0 -27.274,-11.225 -29.022,-25.706 1.64,-0.143 3.246,-0.424 4.808,-0.82 1.351,12.18 11.674,21.653 24.214,21.653 13.458,0 24.368,-10.911 24.368,-24.369 0,-13.458 -10.91,-24.369 -24.368,-24.369 -11.723,0 -21.511,8.282 -23.84,19.311 -1.644,0.596 -3.367,1.015 -5.143,1.225 1.879,-14.338 14.135,-25.408 28.983,-25.408 16.15,0 29.241,13.091 29.241,29.241 0,16.15 -13.091,29.242 -29.241,29.242"
           style="fill:#eb1c22;fill-opacity:1;fill-rule:nonzero;stroke:none"
           id="path92"
           inkscape:connector-curvature="0" /><path
           d="m 235.651,273.743 c 0.441,0 0.878,0.014 1.315,0.034 -0.062,0.792 -0.097,1.595 -0.097,2.402 0,0.833 0.035,1.658 0.1,2.474 -0.436,-0.022 -0.876,-0.036 -1.318,-0.036 -13.458,0 -24.368,10.911 -24.368,24.368 0,13.459 10.91,24.369 24.368,24.369 13.457,0 24.368,-10.91 24.368,-24.369 0,-10.316 -6.414,-19.129 -15.47,-22.686 -0.241,-1.336 -0.369,-2.713 -0.369,-4.12 0,-0.388 0.028,-0.771 0.046,-1.155 11.964,3.665 20.667,14.796 20.667,27.961 0,16.15 -13.093,29.242 -29.242,29.242 -16.15,0 -29.243,-13.092 -29.243,-29.242 0,-16.151 13.093,-29.242 29.243,-29.242"
           style="fill:#0278bd;fill-opacity:1;fill-rule:nonzero;stroke:none"
           id="path94"
           inkscape:connector-curvature="0" /><path
           d="m 267.33,300.548 c 11.734,0 21.527,-8.294 23.846,-19.338 1.636,-0.592 3.356,-1.003 5.139,-1.211 -1.872,14.344 -14.13,25.422 -28.985,25.422 -0.444,0 -0.884,-0.014 -1.323,-0.034 0.062,-0.794 0.104,-1.593 0.104,-2.403 0,-0.834 -0.045,-1.657 -0.111,-2.474 0.44,0.023 0.883,0.038 1.33,0.038"
           style="fill:#fca818;fill-opacity:1;fill-rule:nonzero;stroke:none"
           id="path96"
           inkscape:connector-curvature="0" /><path
           d="M 291.543,273.459 C 290.19,261.281 279.868,251.81 267.33,251.81 c -13.458,0 -24.369,10.91 -24.369,24.369 0,10.313 6.411,19.122 15.461,22.681 0.242,1.34 0.379,2.716 0.379,4.124 0,0.389 -0.028,0.772 -0.047,1.156 -11.964,-3.665 -20.666,-14.796 -20.666,-27.961 0,-16.151 13.092,-29.242 29.242,-29.242 14.954,0 27.278,11.228 29.022,25.713 -1.643,0.143 -3.249,0.415 -4.809,0.809"
           style="fill:#fca818;fill-opacity:1;fill-rule:nonzero;stroke:none"
           id="path98"
           inkscape:connector-curvature="0" /><path
           d="m 299,278.617 c -11.734,0 -21.528,8.293 -23.847,19.337 -1.636,0.591 -3.356,1.002 -5.139,1.211 1.872,-14.344 14.131,-25.422 28.986,-25.422 0.443,0 0.883,0.014 1.322,0.034 -0.062,0.793 -0.104,1.593 -0.104,2.402 0,0.835 0.046,1.658 0.112,2.475 -0.44,-0.023 -0.884,-0.037 -1.33,-0.037"
           style="fill:#000000;fill-opacity:1;fill-rule:nonzero;stroke:none"
           id="path100"
           inkscape:connector-curvature="0" /><path
           d="m 274.786,305.704 c 1.353,12.178 11.676,21.649 24.214,21.649 13.457,0 24.367,-10.91 24.367,-24.368 0,-10.313 -6.408,-19.123 -15.46,-22.681 -0.242,-1.339 -0.379,-2.716 -0.379,-4.125 0,-0.388 0.029,-0.771 0.047,-1.155 11.964,3.665 20.667,14.796 20.667,27.961 0,16.149 -13.094,29.242 -29.242,29.242 -14.955,0 -27.278,-11.229 -29.023,-25.713 1.644,-0.143 3.25,-0.415 4.809,-0.81"
           style="fill:#000000;fill-opacity:1;fill-rule:nonzero;stroke:none"
           id="path102"
           inkscape:connector-curvature="0" /><path
           d="m 330.698,300.546 c 11.734,0 21.527,-8.293 23.845,-19.338 1.638,-0.591 3.357,-1.002 5.141,-1.211 -1.874,14.344 -14.131,25.423 -28.986,25.423 -0.444,0 -0.884,-0.014 -1.323,-0.034 0.062,-0.794 0.103,-1.593 0.103,-2.402 0,-0.835 -0.044,-1.658 -0.111,-2.476 0.442,0.024 0.885,0.038 1.331,0.038"
           style="fill:#019d48;fill-opacity:1;fill-rule:nonzero;stroke:none"
           id="path104"
           inkscape:connector-curvature="0" /><path
           d="m 354.911,273.458 c -1.352,-12.177 -11.676,-21.648 -24.213,-21.648 -13.459,0 -24.37,10.91 -24.37,24.367 0,10.315 6.411,19.123 15.461,22.681 0.242,1.34 0.379,2.717 0.379,4.126 0,0.387 -0.027,0.77 -0.047,1.155 -11.965,-3.666 -20.665,-14.796 -20.665,-27.962 0,-16.149 13.091,-29.241 29.242,-29.241 14.953,0 27.278,11.229 29.023,25.712 -1.645,0.143 -3.25,0.415 -4.81,0.81"
           style="fill:#019d48;fill-opacity:1;fill-rule:nonzero;stroke:none"
           id="path106"
           inkscape:connector-curvature="0" /></g></g></g></svg>