<?xml version="1.0" encoding="UTF-8"?>
<!-- Created with Inkscape (http://www.inkscape.org/) -->
<svg width="295.82" height="167.73" version="1.1" viewBox="0 0 78.268 44.378" xmlns="http://www.w3.org/2000/svg" xmlns:cc="http://creativecommons.org/ns#" xmlns:dc="http://purl.org/dc/elements/1.1/" xmlns:rdf="http://www.w3.org/1999/02/22-rdf-syntax-ns#" xmlns:xlink="http://www.w3.org/1999/xlink">
 <defs>
  <clipPath id="clipPath1655">
   <path d="m9.5699 36.92c1.4152-11.052-0.2427-23.151-0.2427-23.151l-2.0708 4.1396s-3.8822-0.56272-6.388-2.2155c0 0 1.1946-4.6432 3.0873-8.7751 0.7404-1.6164 1.4743-2.5575 2.2955-3.1778 1.278-0.96531 2.7673-1.1533 4.8215-1.8992 3.3741-1.2252 3.3176-1.9603 3.7888-1.7153 0.4712 0.24505 3.0348 0.67859 5.2231 0.67859 2.1883 3e-8 4.7519-0.43354 5.2231-0.67859s0.4147 0.49009 3.7888 1.7153c2.0542 0.74592 3.5435 0.93389 4.8215 1.8992 0.82116 0.62026 1.5551 1.5614 2.2955 3.1778 1.8927 4.1319 3.0873 8.7751 3.0873 8.7751-2.5058 1.6528-6.388 2.2155-6.388 2.2155l-2.0708-4.1396s-1.6579 12.099-0.2427 23.151c-3.7065 0.8087-8.7034 0.9802-10.515 0.9802-1.8113 5e-6 -6.8082-0.1715-10.515-0.9802z" fill="none" stroke="#000" stroke-linecap="round" stroke-linejoin="round" stroke-width=".14923"/>
  </clipPath>
  <clipPath id="clipPath2712">
   <path d="m-122.02 42.604c1.4152-11.052-0.24269-23.151-0.24269-23.151l-2.0708 4.1396s-3.8822-0.5627-6.3878-2.2155c0 0 1.1946-4.6432 3.0873-8.7749 0.74038-1.6164 1.4743-2.5575 2.2955-3.1778 1.278-0.96529 2.7673-1.1533 4.8214-1.8992 3.3741-1.2252 3.3176-1.9603 3.7888-1.7153 0.4712 0.245 3.0348 0.67857 5.223 0.67857 2.1883 0 4.7518-0.43354 5.223-0.67857 0.47119-0.24505 0.41469 0.49008 3.7888 1.7153 2.0542 0.7459 3.5435 0.93387 4.8215 1.8992 0.82114 0.62024 1.5551 1.5614 2.2955 3.1778 1.8927 4.1319 3.0873 8.7749 3.0873 8.7749-2.5058 1.6528-6.3878 2.2155-6.3878 2.2155l-2.0708-4.1396s-1.6579 12.099-0.24269 23.151c-3.7065 0.80869-8.7032 0.98019-10.515 0.98019s-6.808-0.1715-10.515-0.98019z" fill="#303d56" stroke-width=".99998"/>
  </clipPath>
 </defs>
 <metadata>
  <rdf:RDF>
   <cc:Work rdf:about="">
    <dc:format>image/svg+xml</dc:format>
    <dc:type rdf:resource="http://purl.org/dc/dcmitype/StillImage"/>
    <dc:title/>
   </cc:Work>
  </rdf:RDF>
 </metadata>
 <g transform="translate(130.6 -5.6917)">
  <text x="-111.41695" y="49.085083" fill="#000000" font-family="Calibri" font-size="5.5424px" letter-spacing="0px" stroke-width=".30233" text-anchor="middle" word-spacing="0px" style="line-height:1.25" xml:space="preserve"><tspan x="-111.41695" y="49.085083" font-family="Calibri" letter-spacing="0px" stroke-width=".30233">Home</tspan></text>
  <text x="-71.630096" y="49.085083" fill="#000000" font-family="Calibri" font-size="5.5424px" letter-spacing="0px" stroke-width=".30233" text-anchor="middle" word-spacing="0px" style="line-height:1.25" xml:space="preserve"><tspan x="-71.630096" y="49.085083" font-family="Calibri" letter-spacing="0px" stroke-width=".30233">Away</tspan></text>
  <path d="m-82.141 42.604c1.4152-11.052-0.2427-23.151-0.2427-23.151l-2.0708 4.1396s-3.8822-0.5627-6.3878-2.2155c0 0 1.1946-4.6432 3.0873-8.7749 0.74038-1.6164 1.4743-2.5575 2.2955-3.1778 1.278-0.96529 2.7673-1.1533 4.8215-1.8992 3.3741-1.2252 3.3176-1.9603 3.7888-1.7153 0.4712 0.245 3.0348 0.67857 5.2229 0.67857 2.1882 0 4.7519-0.43354 5.2229-0.67857 0.4711-0.24504 0.41469 0.49009 3.7888 1.7153 2.0542 0.7459 3.5435 0.93387 4.8215 1.8992 0.82114 0.62024 1.5551 1.5614 2.2955 3.1778 1.8927 4.1319 3.0873 8.7749 3.0873 8.7749-2.5058 1.6528-6.3878 2.2155-6.3878 2.2155l-2.0708-4.1396s-1.6579 12.099-0.2427 23.151c-3.7065 0.80868-8.7032 0.98018-10.515 0.98018-1.8117 0-6.808-0.1715-10.515-0.98018z" fill="#1a1a1a" stroke-width=".99998"/>
  <use transform="translate(39.693)" width="100%" height="100%" xlink:href="#g2708"/>
  <path d="m-66.566 7.1611c-1.1099 0.34322-2.2764 0.45713-3.432 0.5311-1.9889 0.052983-4.0022 0.078827-5.9588-0.33469-0.25627 0.037731-0.75063-0.41182-0.85795-0.046048 0.81431 1.6058 2.4516 2.7367 4.2232 3.0148 1.5561 0.2423 3.2151-0.1186 4.4843-1.0661 0.68808-0.51004 1.2678-1.175 1.6655-1.9332 0.02641-0.079849-0.04022-0.16912-0.12403-0.16588z" fill="#808080" fill-rule="evenodd" stroke-width=".99998"/>
  <path d="m-71.628 15.366c-3.7399-1e-6 -7.4995 0.13565-11.24 0.39998-0.25519 0.27325-0.49 0.55766-0.70547 0.84597-1.4796 1.9797-2.0483 4.1439-2.0483 4.1439l2.0268 1.1147 1.2092-2.4169s0.12185 0.90167 0.27027 2.4045c3.4776-0.34298 6.9742-0.45372 10.487-0.45372 3.5127 0 7.0096 0.11078 10.487 0.45372 0.14842-1.5028 0.27027-2.4045 0.27027-2.4045l1.2092 2.4169 2.0268-1.1147s-0.74646-2.8405-2.7538-4.9898c-3.7399-0.26433-7.4995-0.39997-11.24-0.39998z" fill="#8d042d" fill-rule="evenodd" stroke-width=".99998"/>
  <g transform="matrix(.99998 0 0 .99998 -130.6 5.6917)" fill="none" stroke="#000" stroke-linecap="round" stroke-linejoin="round">
   <path d="m53.684 1.3695c0.43265 0.29499 2.169 0.70678 5.2941 0.70678 3.1252 0 4.8615-0.41179 5.2941-0.70678" stroke-width=".14922"/>
   <path d="m53.23 0.25294c1.0902 3.4261 3.7704 4.4251 5.7479 4.4251s4.6577-0.99904 5.7479-4.4251" stroke-width=".14929"/>
   <path d="m48.464 36.913c1.4152-11.052-0.2427-23.151-0.2427-23.151l-2.0708 4.1396s-3.8822-0.56272-6.388-2.2155c0 0 1.1946-4.6432 3.0873-8.7751 0.7404-1.6164 1.4743-2.5575 2.2955-3.1778 1.278-0.96531 2.7673-1.1533 4.8215-1.8992 3.3741-1.2252 3.3176-1.9603 3.7888-1.7153s3.0348 0.67859 5.2231 0.67859 4.7519-0.43354 5.2231-0.67859 0.4147 0.49009 3.7888 1.7153c2.0542 0.74592 3.5435 0.93389 4.8215 1.8992 0.82116 0.62026 1.5551 1.5614 2.2955 3.1778 1.8927 4.1319 3.0873 8.7751 3.0873 8.7751-2.5058 1.6528-6.388 2.2155-6.388 2.2155l-2.0708-4.1396s-1.6579 12.099-0.2427 23.151c-3.7065 0.8087-8.7034 0.9802-10.515 0.9802s-6.8082-0.1715-10.515-0.9802z" stroke-width=".14923"/>
   <path d="m65.784 0.89294c-1.0264 3.4866-4.2814 5.0417-6.8056 5.0417s-5.7792-1.5551-6.8056-5.0417" stroke-width=".14929"/>
  </g>
  <g transform="matrix(.99998 0 0 .99998 -91.716 5.6847)" clip-path="url(#clipPath1655)">
   <path d="m26.596 33.752c-0.14474 0.01271-0.2513 0.13923-0.23859 0.28396l0.14883 1.6947c0.01271 0.14473 0.1397 0.25074 0.28443 0.23803l8.3549-0.73376c0.14473-0.01271 0.2513-0.13923 0.23859-0.28396l-0.14883-1.6947c-0.01271-0.14473-0.1397-0.25074-0.28443-0.23803z" fill="#23272d" fill-rule="evenodd"/>
   <g transform="matrix(.82284 -.072265 .072265 .82284 16.246 7.1458)">
    <g transform="translate(206.18,263.23)" fill-rule="evenodd" stroke-width=".029093">
     <path d="m-196.41-229.84c-0.1045-1e-5 -0.19036 0.0857-0.19036 0.19029v1.9004c0 0.10461 0.0859 0.1903 0.19036 0.1903h2.1916c0.10439 0 0.19035-0.0856 0.19035-0.19014v-1.9003c0-0.10456-0.0858-0.19035-0.19035-0.19035z" fill="#fff"/>
     <path d="m-195.36-229.71s-6e-5 1e-3 -1.1e-4 2e-3c-9e-5 1e-3 -4.4e-4 5e-3 -9.5e-4 8e-3 -3.6e-4 3e-3 -1e-3 0.0116-3e-3 0.0187-4e-3 0.02-0.0105 0.0356-0.0198 0.0483l-6e-3 8e-3 5e-3 -4.7e-4c0.0151-2e-3 0.0335-8e-3 0.0415-0.014 2e-3 -2e-3 5e-3 -3e-3 5e-3 -3e-3 1e-3 1e-3 -3e-3 0.0144-9e-3 0.0263-7e-3 0.0138-0.0179 0.0283-0.0318 0.0427-5e-3 5e-3 -9e-3 0.01-9e-3 0.0105 0 2e-3 4e-3 2e-3 0.0209 3e-3 9e-3 4.7e-4 0.0164 1e-3 0.0164 2e-3 0 2e-3 -0.0182 0.0186-0.0297 0.0271-6e-3 5e-3 -0.013 0.01-0.0155 0.0119l-5e-3 4e-3 9.5e-4 8e-3c4.7e-4 4e-3 1e-3 9e-3 2e-3 0.01 4.3e-4 9.5e-4 4.7e-4 2e-3 4.7e-4 3e-3 -4.1e-4 2e-3 0.0111-3.8e-4 0.0233-4e-3 0.0169-6e-3 0.0195-6e-3 0.0239-3e-3 2e-3 1e-3 4e-3 2e-3 5e-3 2e-3 4.5e-4 -4.5e-4 9.5e-4 -2.6e-4 9.5e-4 4.2e-4 0 4.7e-4 3e-3 3e-3 6e-3 5e-3 4e-3 2e-3 8e-3 7e-3 0.0113 0.0112 7e-3 0.0104 0.0103 0.0131 0.0195 0.0158 8e-3 2e-3 0.0101 2e-3 0.0208-4.7e-4 5e-3 -1e-3 7e-3 -9.4e-4 0.018 2e-3 0.0162 4e-3 0.0173 5e-3 0.0219 0.012 2e-3 3e-3 5e-3 7e-3 7e-3 9e-3 1e-3 1e-3 3e-3 3e-3 3e-3 4e-3 0 4.1e-4 4e-3 6e-3 8e-3 0.0117 5e-3 6e-3 9e-3 0.0121 0.01 0.0136 9.5e-4 1e-3 2e-3 4e-3 3e-3 5e-3 9.4e-4 1e-3 5e-3 6e-3 8e-3 0.0115 3e-3 5e-3 7e-3 9e-3 7e-3 9e-3 4.8e-4 -3.8e-4 9.5e-4 3.9e-4 4.8e-4 2e-3 -3.8e-4 1e-3 1.7e-4 3e-3 1e-3 3e-3 9.5e-4 4.3e-4 2e-3 1e-3 2e-3 2e-3s2.3e-4 2e-3 6e-3 9e-3c2e-3 2e-3 4e-3 5e-3 4e-3 6e-3 0 4.8e-4 9.5e-4 3e-3 2e-3 5e-3 1e-3 3e-3 2e-3 7e-3 9.5e-4 0.0186l-9.5e-4 0.0146-6e-3 6e-3c-6e-3 6e-3 -6e-3 6e-3 -6e-3 0.0115 3.4e-4 5e-3 9.4e-4 6e-3 5e-3 9e-3 3e-3 2e-3 5e-3 4e-3 6e-3 5e-3 1e-3 3e-3 4e-3 0.024 4e-3 0.0373 3e-5 8e-3 4.8e-4 0.0129 1e-3 0.0142 4e-3 5e-3 0.0138 0.0112 0.0331 0.0215 6e-3 3e-3 0.0179 0.0112 0.0212 0.0142 1e-3 1e-3 5e-3 4e-3 8e-3 6e-3 8e-3 6e-3 0.0187 0.0163 0.0224 0.0217 0.0121 0.0178 0.0164 0.0277 0.0254 0.0582 4e-3 0.0138 0.0109 0.0265 0.0199 0.0372 2e-3 2e-3 8e-3 8e-3 0.0148 0.0126 0.0164 0.0125 0.0319 0.0247 0.0417 0.0329 5e-3 4e-3 0.0108 9e-3 0.0136 0.0113 0.0133 0.011 0.0245 0.0208 0.0249 0.0217 2.3e-4 4.7e-4 1e-3 9.5e-4 2e-3 9.5e-4 9.4e-4 0 2e-3 9.4e-4 2e-3 1e-3 3e-5 9.5e-4 2e-3 3e-3 5e-3 5e-3 5e-3 4e-3 0.0274 0.0226 0.0285 0.0238 3.5e-4 3.9e-4 4e-3 4e-3 9e-3 8e-3s0.0101 9e-3 0.0122 0.0108c4e-3 3e-3 0.0265 0.0225 0.0456 0.038 0.0141 0.0114 0.0247 0.0206 0.04 0.0348 5e-3 5e-3 0.0196 0.015 0.0253 0.0179 1e-3 9.5e-4 4e-3 1e-3 6e-3 2e-3 2e-3 3.4e-4 7e-3 1e-3 0.011 2e-3 4e-3 9.4e-4 0.0128 2e-3 0.0199 3e-3 0.0255 4e-3 0.0361 6e-3 0.04 7e-3 2e-3 4.7e-4 5e-3 9.5e-4 6e-3 9.5e-4 8e-3 0 0.0572 0.0256 0.0673 0.035 1e-3 1e-3 3e-3 2e-3 3e-3 2e-3 2e-3 0 0.0164 0.0126 0.0231 0.02 0.0107 0.0119 0.0144 0.0161 0.0193 0.0225 0.01 0.0125 0.0288 0.0349 0.0413 0.0483 4e-3 4e-3 0.0103 0.0112 0.0142 0.0154 0.0244 0.0264 0.0671 0.0671 0.079 0.0754 1e-3 9.4e-4 3e-3 3e-3 4e-3 3e-3 4.8e-4 9.5e-4 2e-3 2e-3 3e-3 2e-3 9.4e-4 0 2e-3 4.7e-4 2e-3 9.5e-4 0 2e-3 4e-3 3e-3 7e-3 1e-3 2e-3 -9.4e-4 3e-3 -2e-3 3e-3 -2e-3 0-2e-3 0.01-4e-3 0.0179-3e-3l9e-3 9.4e-4 4e-3 -5e-3c5e-3 -6e-3 8e-3 -7e-3 0.0176-4e-3 8e-3 2e-3 0.0119 5e-3 0.0191 0.0155 2e-3 3e-3 5e-3 7e-3 6e-3 8e-3 4e-3 4e-3 0.0146 0.0288 0.019 0.0433 5e-3 0.0176 6e-3 0.028 9.4e-4 0.0374-1e-3 3e-3 -2e-3 6e-3 -1e-3 7e-3 4.7e-4 9.4e-4 3e-3 6e-3 5e-3 0.0102 5e-3 0.0107 0.0109 0.0177 0.022 0.0265 0.0127 0.0101 0.0136 0.0122 0.0108 0.0262-4e-3 0.0208-0.01 0.0346-0.0124 0.0362-2e-3 1e-3 -5e-3 3e-3 -7e-3 5e-3h0.0993c0.0326 0 0.0589-0.0263 0.0589-0.0589v-1.1657c0-0.0326-0.0263-0.0589-0.0589-0.0589z" fill="#f79c15"/>
     <path d="m-195.17-228.96c-2e-3 6e-5 -6e-3 2e-3 -0.0134 6e-3 -8e-3 5e-3 -0.0297 0.0157-0.047 0.0235-3e-3 1e-3 -0.0128 5e-3 -0.0213 8e-3 -0.0178 6e-3 -0.019 7e-3 -0.0196 9e-3 -4.7e-4 2e-3 4e-3 2e-3 0.0267 4e-3 0.0102 4.7e-4 0.027 9.4e-4 0.0372 9.4e-4l0.0185-2.6e-4 4e-3 -4e-3c0.01-0.0113 0.0103-0.0126 0.011-0.0201 9.4e-4 -8e-3 2e-3 -0.0106 7e-3 -0.0176l4e-3 -5e-3 -3e-3 -2e-3c-1e-3 -9.5e-4 -2e-3 -2e-3 -4e-3 -2e-3zm-0.89793-0.37926c-4e-3 0-8e-3 3.3e-4 -9e-3 9.5e-4 -9.4e-4 9.4e-4 4e-3 0.017 6e-3 0.0207 3e-3 4e-3 0.0118 0.0123 0.0153 0.0139 1e-3 4.7e-4 6e-3 2e-3 9e-3 3e-3 4e-3 9.4e-4 7e-3 1e-3 7e-3 2e-3 2e-3 3.1e-4 9.5e-4 -5e-3 -2e-3 -8e-3 -1e-3 -2e-3 -4e-3 -6e-3 -6e-3 -9e-3 -1e-3 -3e-3 -4e-3 -7e-3 -5e-3 -8e-3s-4e-3 -5e-3 -5e-3 -8e-3l-3e-3 -5e-3zm-0.34778-0.36573c-0.0326 0-0.0589 0.0263-0.0589 0.0589v1.1657c0 0.0326 0.0263 0.0589 0.0589 0.0589h2.0292c-6e-5 -5e-5 -1.1e-4 -1.2e-4 -1.4e-4 -1.7e-4l3e-3 -7e-3c1e-3 -4e-3 5e-3 -0.0108 9e-3 -0.0153l6e-3 -8e-3 -2e-3 -5e-3c-1e-3 -2e-3 -8e-3 -0.0101-0.0159-0.0169-7e-3 -7e-3 -0.0228-0.0216-0.0341-0.0329-0.0228-0.0227-0.0342-0.0323-0.0634-0.053-0.0209-0.0149-0.0204-0.0142-0.0186-0.0245 9.5e-4 -5e-3 9.5e-4 -5e-3 5e-3 -5e-3 2e-3 0 5e-3 -4.7e-4 5e-3 -1e-3 9.4e-4 -2e-3 -0.0517-0.0487-0.0641-0.0569-6e-3 -4e-3 -0.0152-0.01-0.0206-0.0132-5e-3 -3e-3 -0.0204-0.0126-0.0331-0.0206-0.0326-0.0205-0.0443-0.0268-0.10645-0.0577-0.054-0.0268-0.0596-0.0291-0.079-0.0324-0.0102-2e-3 -0.0221-5e-3 -0.0254-7e-3 -1e-3 -4.7e-4 -3e-3 -9.4e-4 -4e-3 -9.4e-4 -5e-3 0-0.0266-0.0138-0.0421-0.0274-7e-3 -6e-3 -0.0102-8e-3 -0.02-0.01-0.03-7e-3 -0.0564-0.0145-0.0852-0.0257-0.0161-6e-3 -0.0796-0.0371-0.0987-0.0479-5e-3 -3e-3 -9e-3 -5e-3 -0.01-5e-3 -4.7e-4 0-9.5e-4 2e-3 -9.5e-4 4e-3 0 5e-3 -2e-3 0.0168-5e-3 0.0212-2e-3 3e-3 -1e-3 4e-3 2e-3 0.0129 4e-3 0.01 0.0119 0.0239 0.0164 0.0289 1e-3 1e-3 6e-3 5e-3 0.01 7e-3 8e-3 5e-3 0.0144 0.0107 0.0174 0.017 1e-3 3e-3 4e-3 5e-3 6e-3 6e-3 6e-3 2e-3 9e-3 9e-3 9e-3 0.0194 0 8e-3 2.9e-4 9e-3 4e-3 0.0129 4e-3 4e-3 5e-3 6e-3 5e-3 0.0121 9.5e-4 8e-3 4.7e-4 0.0108-3e-3 0.0182-1e-3 3e-3 -2e-3 0.0111-3e-3 0.0271-4.8e-4 0.0124-9.5e-4 0.0227-9.5e-4 0.0228-4.7e-4 1e-3 -6e-3 6e-3 -8e-3 6e-3 -9.4e-4 0-5e-3 -3e-3 -8e-3 -6e-3 -5e-3 -5e-3 -7e-3 -8e-3 -9e-3 -0.0144-2e-3 -6e-3 -4e-3 -0.0106-8e-3 -0.015-3e-3 -4e-3 -9e-3 -0.012-0.0144-0.0188-0.0133-0.0183-0.0353-0.044-0.0489-0.0571-0.0131-0.0126-0.0451-0.0275-0.0834-0.0388-7e-3 -2e-3 -0.0101-4e-3 -0.0123-8e-3 -3e-3 -6e-3 -0.0546-5e-3 -0.0865 4.7e-4 -6e-3 9.4e-4 -0.0136 2e-3 -0.0167 3e-3 -0.0196 4e-3 -0.0338 8e-3 -0.0708 0.0199-0.0283 9e-3 -0.0339 0.0111-0.0644 0.0189-0.0184 5e-3 -0.0395 6e-3 -0.0762 4e-3 -0.0237-1e-3 -0.0258-1e-3 -0.0327-5e-3 -8e-3 -4e-3 -0.0151-0.0112-0.0248-0.0255-6e-3 -9e-3 -6e-3 -9e-3 -6e-3 -0.0187 0-0.012 4e-3 -0.0221 0.0155-0.04 0.0145-0.0224 0.0532-0.0649 0.0843-0.0927 0.0586-0.0524 0.11773-0.0899 0.19059-0.1209 0.0145-6e-3 0.0232-0.0104 0.0232-0.0114 0-4.7e-4 -4.7e-4 -1e-3 -9.4e-4 -2e-3 -2e-3 -2e-3 -0.0181-0.0348-0.0181-0.0365 0-9.5e-4 -4.7e-4 -2e-3 -9.4e-4 -4e-3 -4.7e-4 -1e-3 -2e-3 -4e-3 -3e-3 -7e-3s-3e-3 -5e-3 -5e-3 -5e-3c-4e-3 -9.4e-4 -0.041-9e-3 -0.0589-0.0129-8e-3 -2e-3 -0.0116-1e-3 -0.0224 2e-3 -8e-3 3e-3 -0.0162 3e-3 -0.0258 1.7e-4 -4e-3 -9.4e-4 -9e-3 -2e-3 -0.0106-2e-3 -6e-3 0-0.0116-4e-3 -0.0233-0.0156-7e-3 -7e-3 -0.0129-0.0133-0.0142-0.0148-1e-3 -1e-3 -0.01-0.0107-0.0191-0.0204-9e-3 -0.01-0.0177-0.0191-0.0188-0.0209-1e-3 -2e-3 -3e-3 -9e-3 -4e-3 -0.0179-9.5e-4 -8e-3 -2e-3 -0.0156-3e-3 -0.0168-1e-3 -2e-3 -2e-3 -2e-3 -9e-3 4.7e-4 -0.0145 6e-3 -0.0226 7e-3 -0.0397 6e-3 -9e-3 -4e-4 -0.0209-1e-3 -0.0268-2e-3 -6e-3 -9.5e-4 -0.0122-1e-3 -0.014-9.5e-4 -3e-3 4.8e-4 -3e-3 4.8e-4 -2e-3 0.0107 4.7e-4 6e-3 9.5e-4 0.0117 1e-3 0.0137 4.1e-4 2e-3 -6e-5 5e-3 -9.5e-4 6e-3 -2e-3 3e-3 1.5e-4 4e-3 -0.0382-0.0102-0.0131-5e-3 -0.0266-9e-3 -0.0301-0.0106-9e-3 -3e-3 -0.0103-2e-3 -0.0112 0.0117-9.4e-4 0.0125-3e-3 0.0157-0.0113 0.0193-0.0106 4e-3 -0.0155 5e-3 -0.0256 4e-3 -6e-3 -4.7e-4 -0.0164-1e-3 -0.0242-2e-3 -8e-3 -4.7e-4 -0.0226-2e-3 -0.0328-3e-3 -0.0331-3e-3 -0.0457-8e-3 -0.067-0.0262-0.0182-0.0159-0.0406-0.0244-0.0682-0.0261-0.0154-9.5e-4 -0.0189-2e-3 -0.0213-8e-3l-2e-3 -4e-3 -9e-3 9e-3c-5e-3 5e-3 -0.0126 0.0109-0.0165 0.0135-6e-3 4e-3 -7e-3 6e-3 -9e-3 0.0113-1e-3 5e-3 -3e-3 8e-3 -8e-3 0.0123-3e-3 3e-3 -8e-3 6e-3 -9e-3 7e-3 -3e-3 9.5e-4 -0.0227-9.4e-4 -0.0324-3e-3 -3e-3 -4.7e-4 -0.0104-2e-3 -0.0167-3e-3 -0.0238-4e-3 -0.0363-8e-3 -0.0399-0.0121-1e-3 -2e-3 -7e-3 -8e-3 -0.0122-0.0139l-9e-3 -0.0106h-8e-3c-0.0127 0-0.0451-4e-3 -0.059-8e-3 -0.0419-0.0105-0.0496-0.0159-0.0754-0.0526-9e-3 -0.0123-0.0114-0.0143-0.0199-0.0143-0.0107-6e-5 -0.0188-4e-3 -0.0198-9e-3 -1.8e-4 -9.5e-4 -9.5e-4 -4e-3 -1e-3 -8e-3 -9.4e-4 -6e-3 -1e-3 -6e-3 -5e-3 -7e-3l-4e-3 -9.4e-4v-0.0114c0-0.0113 6e-5 -0.0114 3e-3 -0.0114 4e-3 0 7e-3 -3e-3 7e-3 -6e-3 0-6e-3 0.0104-7e-3 0.0154-2e-3 3e-3 3e-3 4e-3 3e-3 0.0102 3e-3l7e-3 -4.8e-4 9.4e-4 -0.01c9.4e-4 -9e-3 1e-3 -0.01 4e-3 -0.0105 2e-3 -4.7e-4 4e-3 2.3e-4 7e-3 2e-3l4e-3 3e-3 0.0472-9.4e-4c0.10486-2e-3 0.12126-3e-3 0.12793-6e-3 9e-3 -4e-3 0.0144-5e-3 0.0192-2e-3 2e-3 9.5e-4 7e-3 2e-3 0.01 2e-3 7e-3 0 0.0127 2e-3 0.0208 8e-3 3e-3 2e-3 8e-3 5e-3 0.0102 6e-3 4e-3 1e-3 9e-3 7e-3 0.0137 0.017 2e-3 4e-3 2e-3 6e-3 9.4e-4 0.0134-9.4e-4 5e-3 -9.4e-4 9e-3 -9.4e-4 0.01 3.7e-4 4.8e-4 6e-3 9.5e-4 0.0119 9.5e-4 0.0127 1e-5 0.0191 1e-3 0.0262 6e-3 6e-3 4e-3 7e-3 4e-3 0.0106-1.1e-4 3e-3 -3e-3 4e-3 -3e-3 0.0185-3e-3 0.0135 0 0.0162 3.8e-4 0.0236 3e-3 8e-3 3e-3 9e-3 3e-3 0.0224 2e-3 0.0126-9.5e-4 0.02-2e-3 0.0335-6e-3 2e-3 -4.7e-4 7e-3 -2e-3 0.011-3e-3 0.0266-8e-3 0.0401-0.0102 0.0592-0.0101 0.0193 0 0.0308 3e-3 0.053 0.0132 0.0101 5e-3 0.0168 7e-3 0.0237 7e-3 8e-3 0 0.0404-3e-3 0.0515-5e-3 0.0284-5e-3 0.0329-6e-3 0.0474-0.0137 0.0125-6e-3 0.0145-8e-3 0.0148-0.0109 4.7e-4 -4e-3 -2e-3 -7e-3 -0.0163-0.012-0.013-5e-3 -0.0138-7e-3 -7e-3 -0.0138 0.0122-0.0128 0.0131-0.0168 7e-3 -0.031-3e-3 -8e-3 -4e-3 -0.0107-4e-3 -0.0186 1.2e-4 -0.011-9.4e-4 -0.0117-8e-3 -4e-3 -6e-3 7e-3 -8e-3 0.013-7e-3 0.0255 9.4e-4 9e-3 9.4e-4 0.01-1e-3 8e-3 -9.4e-4 -9.5e-4 -2e-3 -2e-3 -2e-3 -3e-3 0-4.7e-4 -3e-3 -6e-3 -7e-3 -0.0118-0.0133-0.0212-0.0141-0.0289-5e-3 -0.0481 3e-3 -6e-3 5e-3 -0.0122 5e-3 -0.0136 0-1e-3 -3e-3 -4e-3 -7e-3 -7e-3 -7e-3 -5e-3 -0.0248-0.0212-0.0248-0.0235 0-4.7e-4 3e-3 1.7e-4 7e-3 2e-3 0.0136 6e-3 0.0201 6e-3 0.0325-3e-3 5e-3 -3e-3 9e-3 -6e-3 0.0103-6e-3 1e-3 0 2e-3 -1e-3 2e-3 -4e-3 6e-5 -5e-3 3e-3 -0.0168 6e-3 -0.023 3e-3 -7e-3 0.0111-0.017 0.0215-0.0265 0.0155-0.0141 0.03-0.029 0.0348-0.0357l4e-3 -6e-3 4.5e-4 4e-3c4.7e-4 5e-3 -2e-3 0.0228-4e-3 0.0307-2e-3 7e-3 -3e-3 0.0154-2e-3 0.0154 4e-4 0 3e-3 -4e-3 7e-3 -9e-3 3e-3 -5e-3 9e-3 -0.0124 0.0131-0.0162 0.0113-0.0111 0.0401-0.0232 0.0684-0.0289 0.0195-4e-3 0.0391-0.012 0.0474-0.0195 5e-3 -5e-3 0.0131-0.0154 0.0131-0.0177 8e-5 -3.7e-4 2.3e-4 -9.5e-4 3.9e-4 -9.5e-4z" fill="#23272d"/>
    </g>
    <g transform="translate(206.18,263.23)" stroke-width=".0044114">
     <path d="m-195.19-228.29-0.039 0.0928-0.0406-0.0928h-0.0426l-0.0403 0.0916-0.0383-0.0916h-0.0648l0.0802 0.1822h0.0406l0.0411-0.0918 0.0403 0.0918h0.0436l0.0795-0.1822z"/>
     <path d="m-194.39-228.22v-0.064h-0.0622v0.1822h0.0622v-0.0704h0.11154v0.0704h0.0619v-0.1822h-0.0619v0.064z"/>
     <path d="m-195.05-228.29-0.12215 0.1822h0.0676l0.0757-0.11734 0.0751 0.11734h0.0696l-0.11894-0.1822z"/>
     <path d="m-195.9-228.29h-0.0687l-0.0694 0.11092-0.0681-0.11092h-0.0704l0.11492 0.1822h0.0425z"/>
     <path d="m-194.73-228.24 0.0316-0.0478h-0.23549v0.0478h0.0791v0.1344h0.0623v-0.1344z"/>
     <path class="cls-4" d="m-196.2-228.28a0.078069 0.083111 0 0 0-0.0214-3e-3h-0.13767c-0.0315 0-0.0511 0.0158-0.0511 0.0413v0.0997a0.035316 0.037594 0 0 0 0.0214 0.0344l3e-3 1e-3 0.0379-0.0384v-0.0905h0.11599v0.0865h-0.0853l-0.0481 0.048h0.14404c0.0303 0 0.0513-0.017 0.0513-0.0413v-0.0945l-0.0285-0.0431z"/>
     <path class="cls-4" d="m-194.53-228.29h-0.12429a0.083757 0.089165 0 0 0-0.01 4.8e-4h-2e-3l-5e-3 8e-3 -0.0339 0.0518v0.0802c0 0.0243 0.021 0.0413 0.0511 0.0413h0.12429c0.0293 0 0.0513-0.0178 0.0513-0.0413v-0.0313h-0.0621v0.0247h-0.10261v-0.0865h0.10261v0.0212h0.0622v-0.0273c0-0.0254-0.0202-0.0417-0.0514-0.0417z"/>
     <path d="m-195.9-228.1h0.19295v-0.048h-0.13074v-0.023h0.0882v-0.0417h-0.0882v-0.0218h0.13074v-0.0478h-0.16123l-0.0317 0.0455z"/>
     <path class="cls-4" d="m-195.51-228.17c0.0222-9.4e-4 0.046-0.0117 0.046-0.0331v-0.0434c0-0.023-0.0179-0.0373-0.0468-0.0373h-0.17264v0.18206h0.062v-0.13532h0.0941a0.02655 0.028265 0 0 1 3e-3 0v0.0286a0.0061567 0.0065541 0 0 1 0 9.4e-4 0.0070545 0.0075098 0 0 1-3e-3 4.7e-4h-0.066v0.0367l0.0764 0.0688h0.0851l-0.0783-0.0683z"/>
    </g>
    <path d="m9.7706 35.22v0.26811h0.28515v-0.0681h-0.19777v-0.20001zm1.4428 0h-0.28791c-0.0391 0-0.0635 0.0246-0.0635 0.0612v0.14981l0.0371 0.0543c7e-3 1e-3 0.0151 3e-3 0.0237 3e-3h0.23456c0.0363 0 0.0607-0.0304 0.0607-0.0557v-0.11544h-0.16281l-0.0438 0.0653h0.116v0.0382h-0.17524v-0.13614h0.219zm-1.0237 0.10188v-0.0331h0.19678v-0.0687h-0.28654v0.26811h0.2702l0.0467-0.0696h-0.22713v-0.0349h0.13299v-0.0617zm1.1434 0.16623c-0.0438 0-0.0574-0.0254-0.0574-0.0634v-0.20468h0.0837v0.20055h0.16999v-0.20055h0.0837v0.20468c0 0.0395-0.0165 0.0634-0.0574 0.0634zm0.42305-0.17082v-0.0313h0.20275v-0.066h-0.28653v0.26811h0.28883v-0.0673h-0.20505v-0.0391h0.11873v-0.0644zm-1.3342 0.17082h0.0992l0.11107-0.17227 0.11019 0.17227h0.10216l-0.17447-0.26811h-0.069z" fill="#f79c15" fill-rule="evenodd" stroke-width=".029093"/>
   </g>
   <path d="m29.265 33.689c-0.08599 0.0075-0.15044 0.08427-0.14288 0.17034l0.13733 1.5637c0.0076 0.08608 0.08443 0.15038 0.17039 0.14283l1.8033-0.15838c0.0859-0.0075 0.15044-0.0842 0.14289-0.17021l-0.13732-1.5636c-0.0076-0.08604-0.08435-0.15043-0.17038-0.14287z" fill="none" stroke="#fff" stroke-width=".024077"/>
   <path d="m29.308 34.221c-0.08632 0.0076-0.15456 0.04437-0.15128 0.08167l0.05952 0.67768c0.0033 0.03731 0.07691 0.06163 0.1632 0.05405l1.8103-0.15899c0.08623-0.0076 0.15455-0.04433 0.15128-0.08161l-0.05952-0.67765c-0.0033-0.03729-0.07683-0.06166-0.16319-0.05407z" fill="none" stroke="#fff" stroke-width=".024077"/>
   <g transform="rotate(-5.2869)" fill="#fff" stroke-width=".021591">
    <path d="m26.132 37.361q-0.04027 0-0.0719-7e-3 -0.03142-7e-3 -0.0544-0.01729l0.01624-0.07528h0.0089q0.02172 0.01982 0.05103 0.03079 0.02931 0.01075 0.06304 0.01075 0.03458 0 0.05082-0.0093 0.01624-0.0095 0.01624-0.02699 0-0.0065-0.0027-0.01118-0.0025-0.0048-0.01012-0.0095-0.0076-0.0046-0.02088-0.0091-0.01307-0.0046-0.03395-0.01054-0.02298-0.0063-0.04133-0.01371-0.01813-0.0074-0.031-0.0175-0.01286-0.01033-0.01961-0.02383-0.0065-0.01349-0.0065-0.03226 0-0.04723 0.04154-0.07528 0.04175-0.02825 0.11407-0.02825 0.03479 0 0.06558 0.0057 0.031 0.0057 0.0525 0.01539l-0.01539 0.07232h-0.0086q-0.01645-0.01518-0.04344-0.0253-0.02678-0.01033-0.05862-0.01033-0.03121 0-0.04829 0.0091t-0.01708 0.02509q0 0.0074 0.0025 0.01223 0.0025 0.0048 0.01033 0.0095 0.0067 0.0042 0.0213 0.0093 0.01455 0.0048 0.03416 0.01012 0.05271 0.01413 0.07527 0.0331 0.02256 0.01898 0.02256 0.05145 0 0.0272-0.01223 0.04786t-0.03374 0.03352q-0.02256 0.01371-0.05124 0.02003-0.02868 0.0063-0.06494 0.0063z"/>
    <path d="m26.628 37.102h-0.09784l-0.05841 0.25324h-0.08139l0.05841-0.25324h-0.09784l0.01392-0.06073h0.27706z"/>
    <path d="m26.912 37.356h-0.0816l-0.0072-0.0641h-0.11555l-0.03669 0.0641h-0.08455l0.18829-0.31396h0.09362zm-0.09488-0.1204-0.01265-0.11281-0.06473 0.11281z"/>
    <path d="m27.266 37.129q0 0.05609-0.0466 0.09046-0.04639 0.03437-0.12989 0.03437h-0.03078l-0.02361 0.10226h-0.08139l0.07253-0.31396h0.1128q0.03079 0 0.05356 0.0042 0.02298 0.0042 0.03964 0.01455 0.01645 0.01033 0.02509 0.02699 0.0086 0.01645 0.0086 0.04112zm-0.08645 0.0078q0-0.01834-0.01328-0.0272-0.01328-0.0089-0.03943-0.0089h-0.03268l-0.02172 0.09404h0.0291q0.0369 0 0.05735-0.01497 0.02066-0.01518 0.02066-0.04301z"/>
   </g>
  </g>
  <path d="m-121.83 42.604c1.4152-11.052-0.24269-23.151-0.24269-23.151l-2.0708 4.1396s-3.8822-0.5627-6.3878-2.2155c0 0 1.1946-4.6432 3.0873-8.7749 0.74038-1.6164 1.4743-2.5575 2.2955-3.1778 1.278-0.96529 2.7673-1.1533 4.8214-1.8992 3.3741-1.2252 3.3176-1.9603 3.7888-1.7153 0.4712 0.245 3.0348 0.67857 5.223 0.67857 2.1883 0 4.7518-0.43354 5.223-0.67857 0.47119-0.24505 0.41469 0.49008 3.7888 1.7153 2.0542 0.7459 3.5435 0.93387 4.8215 1.8992 0.82114 0.62024 1.5551 1.5614 2.2955 3.1778 1.8927 4.1319 3.0873 8.7749 3.0873 8.7749-2.5058 1.6528-6.3878 2.2155-6.3878 2.2155l-2.0708-4.1396s-1.6579 12.099-0.24269 23.151c-3.7065 0.80869-8.7032 0.98019-10.515 0.98019s-6.808-0.1715-10.515-0.98019z" fill="#303d56" stroke-width=".99998"/>
  <g id="g2708" transform="translate(.18422)" clip-path="url(#clipPath2712)">
   <path id="path2541" d="m-119.37 8.2261s-0.0571-0.098917-0.22121-0.012196c-0.17182 0.091234-0.26352 0.22636-0.1716 0.36053 0.0845 0.12323 0.25093 0.058756 0.28378-0.073191 0.028-0.11233-8e-3 -0.21835 0.0372-0.25435 0.0447-0.035998 0.0719-0.020779 0.0719-0.020779zm0.0787-0.33634c0.15589 0.26692 0.0362 0.27922 0.0362 0.27922 0.0638 0.07954 0.128 0.11529 0.1955 0.06041 0.0591-0.04806 0.0553-0.13273 0.01-0.19959 0.0556-0.042468 0.17267-0.00136 0.17267-0.00136s-0.0243-0.14215-0.15729-0.18437c0.0628-0.057038 0.15102-0.068242 0.20151-0.048161 0.011-0.060196-0.0652-0.16511-0.19339-0.17639 0.0336-0.08383 0.11826-0.11932 0.21602-0.098156-0.0328-0.092409-0.18681-0.18447-0.31297-0.1557 0.023-0.081642 0.11702-0.17377 0.22409-0.16825-0.12183-0.076328-0.26526-0.13149-0.45211-0.023614-0.26596 0.15355-0.0731 0.48797 0.0601 0.71597zm-2.6731-1.2274a0.6822 0.6822 0 0 1 0.0619 0.53998 0.66272 0.66272 0 1 0-1.1326-0.68825 0.68483 0.68483 0 0 1 1.0702 0.14861zm0.31202-0.38069a0.81728 0.81728 0 0 0-1.4103-0.00916 0.84432 0.84432 0 0 1 1.397 0.84905 0.81712 0.81712 0 0 0 0.0137-0.83989zm1.582 2.946c0.22551-0.44678 0.055-1.0505 8e-3 -1.2515-0.0476-0.2011-0.0337-0.31961 0.0258-0.42372 0.0595-0.10411 0.21321-0.16392 0.37541-0.14696-0.1498-0.066279-0.25099-0.077998-0.3319-0.063587a0.016537 0.016537 0 0 0-3e-3 2.169e-4 0.37433 0.37433 0 0 0-0.0774 0.023737 0.70013 0.70013 0 0 0-0.3396 0.28745c-0.12951 0.20844-0.13116 0.49798-0.13692 0.69296-5e-3 0.19498-0.15042 0.38612-0.35427 0.40799-0.20386 0.021857-0.3846-0.12364-0.45897-0.29699-0.0744-0.17335-0.051-0.53787 0.0162-0.67463 0 0-0.26979 0.44612-0.0632 0.8039 0.16839 0.29166 0.45652 0.38085 0.70039 0.24005 0.24386-0.1408 0.29712-0.29647 0.29812-0.70429a0.78529 0.78529 0 0 1 0.0763-0.3562 1.163 1.163 0 0 0 0.0246 0.38641c0.15804 0.55443 0.0193 0.93001-0.0929 1.0887-0.11223 0.15866-0.41063 0.43462-0.93105 0.34123-0.7113-0.16898-0.75177-0.84648-0.69132-1.1158 0.0501-0.2252 0.25679-0.55426 0.52084-0.85394 0.044-0.045733 0.70411-0.86107 0.18946-1.5867-0.51467-0.72568-1.2532-0.5867-1.5834-0.37539-0.81741 0.52293-0.56431 1.3322-0.40196 1.5813 0.13129 0.20137 0.29099 0.28548 0.29099 0.28548s-0.0606-0.07066-0.0849-0.1264c-0.11414-0.24714 4e-3 -0.5579 0.21279-0.67806a0.53383 0.53383 0 0 1 0.78034 0.60973 0.59858 0.59858 0 1 0-1.1508-0.25699c-0.16269-0.56799 0.0517-0.92216 0.36461-1.1585 0.2713-0.20517 0.92386-0.2987 1.3106 0.22702 0.3659 0.49743 0.0198 1.0852-0.11387 1.2556 0 0-0.36724 0.45509-0.94298 0.93239-0.57573 0.47731-1.3587 1.0468-1.3587 1.0468l1.189-0.33506s0.0424-0.33678 0.44995-0.65614c-0.34771 0.62799 0.20549 1.3626 0.8073 1.5031 0.66908 0.15586 1.2517-0.20656 1.4772-0.65331zm-1.4099-0.4018a0.61589 0.61589 0 0 1-0.11936-0.5107 0.6145 0.6145 0 1 0 1.1612 0.3934 0.61713 0.61713 0 0 1-1.0418 0.11731zm-0.23508-0.63182a0.78342 0.78342 0 1 0 1.3906 0.42336 0.74788 0.74788 0 1 1-1.3906-0.42336z" fill="#8d042d" stroke-width=".015455"/>
   <use transform="rotate(240 -111.58 2.0254)" width="100%" height="100%" xlink:href="#path2541"/>
  </g>
  <path d="m-106.26 7.1607c-1.1099 0.34322-2.2764 0.45713-3.432 0.53111-1.9889 0.052979-4.0022 0.078829-5.9588-0.33469-0.25626 0.03773-0.75063-0.41182-0.85795-0.04605 0.81431 1.6058 2.4516 2.7367 4.2232 3.0148 1.5561 0.2423 3.2151-0.1186 4.4842-1.0661 0.68809-0.51003 1.2678-1.175 1.6655-1.9332 0.0264-0.079849-0.0402-0.16912-0.12403-0.16588z" fill="#808080" fill-rule="evenodd" stroke-width=".99998"/>
  <path d="m-111.32 15.366c-3.7399-1e-6 -7.4995 0.13565-11.24 0.39998-0.25519 0.27325-0.48999 0.55766-0.70547 0.84597-1.4796 1.9797-2.0483 4.1439-2.0483 4.1439l2.0268 1.1147 1.2092-2.4169s0.12184 0.90167 0.27026 2.4045c3.4776-0.34298 6.9742-0.45372 10.487-0.45372 3.5126 0 7.0096 0.11078 10.487 0.45372 0.14841-1.5028 0.27026-2.4045 0.27026-2.4045l1.2092 2.4169 2.0268-1.1147s-0.74646-2.8405-2.7538-4.9899c-3.7399-0.26433-7.4995-0.39996-11.24-0.39998z" fill="#8d042d" fill-rule="evenodd" stroke-width=".99998"/>
  <g transform="matrix(.99998 0 0 .99998 -130.6 5.6917)" fill="none" stroke="#000" stroke-linecap="round" stroke-linejoin="round">
   <path d="m13.997 1.3695c0.43265 0.29499 2.169 0.70678 5.2941 0.70678 3.1252 0 4.8615-0.41179 5.2941-0.70678" stroke-width=".14922"/>
   <path d="m13.543 0.25294c1.0902 3.4261 3.7704 4.4251 5.7479 4.4251s4.6577-0.99904 5.7479-4.4251" stroke-width=".14929"/>
   <path d="m8.7761 36.913c1.4152-11.052-0.2427-23.151-0.2427-23.151l-2.0708 4.1396s-3.8822-0.56272-6.388-2.2155c0 0 1.1946-4.6432 3.0873-8.7751 0.7404-1.6164 1.4743-2.5575 2.2955-3.1778 1.278-0.96531 2.7673-1.1533 4.8215-1.8992 3.3741-1.2252 3.3176-1.9603 3.7888-1.7153s3.0348 0.67859 5.2231 0.67859 4.7519-0.43354 5.2231-0.67859 0.4147 0.49009 3.7888 1.7153c2.0542 0.74592 3.5435 0.93389 4.8215 1.8992 0.82116 0.62026 1.5551 1.5614 2.2955 3.1778 1.8927 4.1319 3.0873 8.7751 3.0873 8.7751-2.5058 1.6528-6.388 2.2155-6.388 2.2155l-2.0708-4.1396s-1.6579 12.099-0.2427 23.151c-3.7065 0.8087-8.7034 0.9802-10.515 0.9802s-6.8082-0.1715-10.515-0.9802z" stroke-width=".14923"/>
   <path d="m26.096 0.89294c-1.0264 3.4866-4.2814 5.0417-6.8056 5.0417s-5.7792-1.5551-6.8056-5.0417" stroke-width=".14929"/>
  </g>
  <g transform="matrix(.99998 0 0 .99998 -131.4 5.6847)" clip-path="url(#clipPath1655)">
   <path d="m26.596 33.752c-0.14474 0.01271-0.2513 0.13923-0.23859 0.28396l0.14883 1.6947c0.01271 0.14473 0.1397 0.25074 0.28443 0.23803l8.3549-0.73376c0.14473-0.01271 0.2513-0.13923 0.23859-0.28396l-0.14883-1.6947c-0.01271-0.14473-0.1397-0.25074-0.28443-0.23803z" fill="#23272d" fill-rule="evenodd"/>
   <g transform="matrix(.82284 -.072265 .072265 .82284 16.246 7.1458)">
    <g transform="translate(206.18,263.23)" fill-rule="evenodd" stroke-width=".029093">
     <path d="m-196.41-229.84c-0.1045-1e-5 -0.19036 0.0857-0.19036 0.19029v1.9004c0 0.10461 0.0859 0.1903 0.19036 0.1903h2.1916c0.10439 0 0.19035-0.0856 0.19035-0.19014v-1.9003c0-0.10456-0.0858-0.19035-0.19035-0.19035z" fill="#fff"/>
     <path d="m-195.36-229.71s-6e-5 1e-3 -1.1e-4 2e-3c-9e-5 1e-3 -4.4e-4 5e-3 -9.5e-4 8e-3 -3.6e-4 3e-3 -1e-3 0.0116-3e-3 0.0187-4e-3 0.02-0.0105 0.0356-0.0198 0.0483l-6e-3 8e-3 5e-3 -4.7e-4c0.0151-2e-3 0.0335-8e-3 0.0415-0.014 2e-3 -2e-3 5e-3 -3e-3 5e-3 -3e-3 1e-3 1e-3 -3e-3 0.0144-9e-3 0.0263-7e-3 0.0138-0.0179 0.0283-0.0318 0.0427-5e-3 5e-3 -9e-3 0.01-9e-3 0.0105 0 2e-3 4e-3 2e-3 0.0209 3e-3 9e-3 4.7e-4 0.0164 1e-3 0.0164 2e-3 0 2e-3 -0.0182 0.0186-0.0297 0.0271-6e-3 5e-3 -0.013 0.01-0.0155 0.0119l-5e-3 4e-3 9.5e-4 8e-3c4.7e-4 4e-3 1e-3 9e-3 2e-3 0.01 4.3e-4 9.5e-4 4.7e-4 2e-3 4.7e-4 3e-3 -4.1e-4 2e-3 0.0111-3.8e-4 0.0233-4e-3 0.0169-6e-3 0.0195-6e-3 0.0239-3e-3 2e-3 1e-3 4e-3 2e-3 5e-3 2e-3 4.5e-4 -4.5e-4 9.5e-4 -2.6e-4 9.5e-4 4.2e-4 0 4.7e-4 3e-3 3e-3 6e-3 5e-3 4e-3 2e-3 8e-3 7e-3 0.0113 0.0112 7e-3 0.0104 0.0103 0.0131 0.0195 0.0158 8e-3 2e-3 0.0101 2e-3 0.0208-4.7e-4 5e-3 -1e-3 7e-3 -9.4e-4 0.018 2e-3 0.0162 4e-3 0.0173 5e-3 0.0219 0.012 2e-3 3e-3 5e-3 7e-3 7e-3 9e-3 1e-3 1e-3 3e-3 3e-3 3e-3 4e-3 0 4.1e-4 4e-3 6e-3 8e-3 0.0117 5e-3 6e-3 9e-3 0.0121 0.01 0.0136 9.5e-4 1e-3 2e-3 4e-3 3e-3 5e-3 9.4e-4 1e-3 5e-3 6e-3 8e-3 0.0115 3e-3 5e-3 7e-3 9e-3 7e-3 9e-3 4.8e-4 -3.8e-4 9.5e-4 3.9e-4 4.8e-4 2e-3 -3.8e-4 1e-3 1.7e-4 3e-3 1e-3 3e-3 9.5e-4 4.3e-4 2e-3 1e-3 2e-3 2e-3s2.3e-4 2e-3 6e-3 9e-3c2e-3 2e-3 4e-3 5e-3 4e-3 6e-3 0 4.8e-4 9.5e-4 3e-3 2e-3 5e-3 1e-3 3e-3 2e-3 7e-3 9.5e-4 0.0186l-9.5e-4 0.0146-6e-3 6e-3c-6e-3 6e-3 -6e-3 6e-3 -6e-3 0.0115 3.4e-4 5e-3 9.4e-4 6e-3 5e-3 9e-3 3e-3 2e-3 5e-3 4e-3 6e-3 5e-3 1e-3 3e-3 4e-3 0.024 4e-3 0.0373 3e-5 8e-3 4.8e-4 0.0129 1e-3 0.0142 4e-3 5e-3 0.0138 0.0112 0.0331 0.0215 6e-3 3e-3 0.0179 0.0112 0.0212 0.0142 1e-3 1e-3 5e-3 4e-3 8e-3 6e-3 8e-3 6e-3 0.0187 0.0163 0.0224 0.0217 0.0121 0.0178 0.0164 0.0277 0.0254 0.0582 4e-3 0.0138 0.0109 0.0265 0.0199 0.0372 2e-3 2e-3 8e-3 8e-3 0.0148 0.0126 0.0164 0.0125 0.0319 0.0247 0.0417 0.0329 5e-3 4e-3 0.0108 9e-3 0.0136 0.0113 0.0133 0.011 0.0245 0.0208 0.0249 0.0217 2.3e-4 4.7e-4 1e-3 9.5e-4 2e-3 9.5e-4 9.4e-4 0 2e-3 9.4e-4 2e-3 1e-3 3e-5 9.5e-4 2e-3 3e-3 5e-3 5e-3 5e-3 4e-3 0.0274 0.0226 0.0285 0.0238 3.5e-4 3.9e-4 4e-3 4e-3 9e-3 8e-3s0.0101 9e-3 0.0122 0.0108c4e-3 3e-3 0.0265 0.0225 0.0456 0.038 0.0141 0.0114 0.0247 0.0206 0.04 0.0348 5e-3 5e-3 0.0196 0.015 0.0253 0.0179 1e-3 9.5e-4 4e-3 1e-3 6e-3 2e-3 2e-3 3.4e-4 7e-3 1e-3 0.011 2e-3 4e-3 9.4e-4 0.0128 2e-3 0.0199 3e-3 0.0255 4e-3 0.0361 6e-3 0.04 7e-3 2e-3 4.7e-4 5e-3 9.5e-4 6e-3 9.5e-4 8e-3 0 0.0572 0.0256 0.0673 0.035 1e-3 1e-3 3e-3 2e-3 3e-3 2e-3 2e-3 0 0.0164 0.0126 0.0231 0.02 0.0107 0.0119 0.0144 0.0161 0.0193 0.0225 0.01 0.0125 0.0288 0.0349 0.0413 0.0483 4e-3 4e-3 0.0103 0.0112 0.0142 0.0154 0.0244 0.0264 0.0671 0.0671 0.079 0.0754 1e-3 9.4e-4 3e-3 3e-3 4e-3 3e-3 4.8e-4 9.5e-4 2e-3 2e-3 3e-3 2e-3 9.4e-4 0 2e-3 4.7e-4 2e-3 9.5e-4 0 2e-3 4e-3 3e-3 7e-3 1e-3 2e-3 -9.4e-4 3e-3 -2e-3 3e-3 -2e-3 0-2e-3 0.01-4e-3 0.0179-3e-3l9e-3 9.4e-4 4e-3 -5e-3c5e-3 -6e-3 8e-3 -7e-3 0.0176-4e-3 8e-3 2e-3 0.0119 5e-3 0.0191 0.0155 2e-3 3e-3 5e-3 7e-3 6e-3 8e-3 4e-3 4e-3 0.0146 0.0288 0.019 0.0433 5e-3 0.0176 6e-3 0.028 9.4e-4 0.0374-1e-3 3e-3 -2e-3 6e-3 -1e-3 7e-3 4.7e-4 9.4e-4 3e-3 6e-3 5e-3 0.0102 5e-3 0.0107 0.0109 0.0177 0.022 0.0265 0.0127 0.0101 0.0136 0.0122 0.0108 0.0262-4e-3 0.0208-0.01 0.0346-0.0124 0.0362-2e-3 1e-3 -5e-3 3e-3 -7e-3 5e-3h0.0993c0.0326 0 0.0589-0.0263 0.0589-0.0589v-1.1657c0-0.0326-0.0263-0.0589-0.0589-0.0589z" fill="#f79c15"/>
     <path d="m-195.17-228.96c-2e-3 6e-5 -6e-3 2e-3 -0.0134 6e-3 -8e-3 5e-3 -0.0297 0.0157-0.047 0.0235-3e-3 1e-3 -0.0128 5e-3 -0.0213 8e-3 -0.0178 6e-3 -0.019 7e-3 -0.0196 9e-3 -4.7e-4 2e-3 4e-3 2e-3 0.0267 4e-3 0.0102 4.7e-4 0.027 9.4e-4 0.0372 9.4e-4l0.0185-2.6e-4 4e-3 -4e-3c0.01-0.0113 0.0103-0.0126 0.011-0.0201 9.4e-4 -8e-3 2e-3 -0.0106 7e-3 -0.0176l4e-3 -5e-3 -3e-3 -2e-3c-1e-3 -9.5e-4 -2e-3 -2e-3 -4e-3 -2e-3zm-0.89793-0.37926c-4e-3 0-8e-3 3.3e-4 -9e-3 9.5e-4 -9.4e-4 9.4e-4 4e-3 0.017 6e-3 0.0207 3e-3 4e-3 0.0118 0.0123 0.0153 0.0139 1e-3 4.7e-4 6e-3 2e-3 9e-3 3e-3 4e-3 9.4e-4 7e-3 1e-3 7e-3 2e-3 2e-3 3.1e-4 9.5e-4 -5e-3 -2e-3 -8e-3 -1e-3 -2e-3 -4e-3 -6e-3 -6e-3 -9e-3 -1e-3 -3e-3 -4e-3 -7e-3 -5e-3 -8e-3s-4e-3 -5e-3 -5e-3 -8e-3l-3e-3 -5e-3zm-0.34778-0.36573c-0.0326 0-0.0589 0.0263-0.0589 0.0589v1.1657c0 0.0326 0.0263 0.0589 0.0589 0.0589h2.0292c-6e-5 -5e-5 -1.1e-4 -1.2e-4 -1.4e-4 -1.7e-4l3e-3 -7e-3c1e-3 -4e-3 5e-3 -0.0108 9e-3 -0.0153l6e-3 -8e-3 -2e-3 -5e-3c-1e-3 -2e-3 -8e-3 -0.0101-0.0159-0.0169-7e-3 -7e-3 -0.0228-0.0216-0.0341-0.0329-0.0228-0.0227-0.0342-0.0323-0.0634-0.053-0.0209-0.0149-0.0204-0.0142-0.0186-0.0245 9.5e-4 -5e-3 9.5e-4 -5e-3 5e-3 -5e-3 2e-3 0 5e-3 -4.7e-4 5e-3 -1e-3 9.4e-4 -2e-3 -0.0517-0.0487-0.0641-0.0569-6e-3 -4e-3 -0.0152-0.01-0.0206-0.0132-5e-3 -3e-3 -0.0204-0.0126-0.0331-0.0206-0.0326-0.0205-0.0443-0.0268-0.10645-0.0577-0.054-0.0268-0.0596-0.0291-0.079-0.0324-0.0102-2e-3 -0.0221-5e-3 -0.0254-7e-3 -1e-3 -4.7e-4 -3e-3 -9.4e-4 -4e-3 -9.4e-4 -5e-3 0-0.0266-0.0138-0.0421-0.0274-7e-3 -6e-3 -0.0102-8e-3 -0.02-0.01-0.03-7e-3 -0.0564-0.0145-0.0852-0.0257-0.0161-6e-3 -0.0796-0.0371-0.0987-0.0479-5e-3 -3e-3 -9e-3 -5e-3 -0.01-5e-3 -4.7e-4 0-9.5e-4 2e-3 -9.5e-4 4e-3 0 5e-3 -2e-3 0.0168-5e-3 0.0212-2e-3 3e-3 -1e-3 4e-3 2e-3 0.0129 4e-3 0.01 0.0119 0.0239 0.0164 0.0289 1e-3 1e-3 6e-3 5e-3 0.01 7e-3 8e-3 5e-3 0.0144 0.0107 0.0174 0.017 1e-3 3e-3 4e-3 5e-3 6e-3 6e-3 6e-3 2e-3 9e-3 9e-3 9e-3 0.0194 0 8e-3 2.9e-4 9e-3 4e-3 0.0129 4e-3 4e-3 5e-3 6e-3 5e-3 0.0121 9.5e-4 8e-3 4.7e-4 0.0108-3e-3 0.0182-1e-3 3e-3 -2e-3 0.0111-3e-3 0.0271-4.8e-4 0.0124-9.5e-4 0.0227-9.5e-4 0.0228-4.7e-4 1e-3 -6e-3 6e-3 -8e-3 6e-3 -9.4e-4 0-5e-3 -3e-3 -8e-3 -6e-3 -5e-3 -5e-3 -7e-3 -8e-3 -9e-3 -0.0144-2e-3 -6e-3 -4e-3 -0.0106-8e-3 -0.015-3e-3 -4e-3 -9e-3 -0.012-0.0144-0.0188-0.0133-0.0183-0.0353-0.044-0.0489-0.0571-0.0131-0.0126-0.0451-0.0275-0.0834-0.0388-7e-3 -2e-3 -0.0101-4e-3 -0.0123-8e-3 -3e-3 -6e-3 -0.0546-5e-3 -0.0865 4.7e-4 -6e-3 9.4e-4 -0.0136 2e-3 -0.0167 3e-3 -0.0196 4e-3 -0.0338 8e-3 -0.0708 0.0199-0.0283 9e-3 -0.0339 0.0111-0.0644 0.0189-0.0184 5e-3 -0.0395 6e-3 -0.0762 4e-3 -0.0237-1e-3 -0.0258-1e-3 -0.0327-5e-3 -8e-3 -4e-3 -0.0151-0.0112-0.0248-0.0255-6e-3 -9e-3 -6e-3 -9e-3 -6e-3 -0.0187 0-0.012 4e-3 -0.0221 0.0155-0.04 0.0145-0.0224 0.0532-0.0649 0.0843-0.0927 0.0586-0.0524 0.11773-0.0899 0.19059-0.1209 0.0145-6e-3 0.0232-0.0104 0.0232-0.0114 0-4.7e-4 -4.7e-4 -1e-3 -9.4e-4 -2e-3 -2e-3 -2e-3 -0.0181-0.0348-0.0181-0.0365 0-9.5e-4 -4.7e-4 -2e-3 -9.4e-4 -4e-3 -4.7e-4 -1e-3 -2e-3 -4e-3 -3e-3 -7e-3s-3e-3 -5e-3 -5e-3 -5e-3c-4e-3 -9.4e-4 -0.041-9e-3 -0.0589-0.0129-8e-3 -2e-3 -0.0116-1e-3 -0.0224 2e-3 -8e-3 3e-3 -0.0162 3e-3 -0.0258 1.7e-4 -4e-3 -9.4e-4 -9e-3 -2e-3 -0.0106-2e-3 -6e-3 0-0.0116-4e-3 -0.0233-0.0156-7e-3 -7e-3 -0.0129-0.0133-0.0142-0.0148-1e-3 -1e-3 -0.01-0.0107-0.0191-0.0204-9e-3 -0.01-0.0177-0.0191-0.0188-0.0209-1e-3 -2e-3 -3e-3 -9e-3 -4e-3 -0.0179-9.5e-4 -8e-3 -2e-3 -0.0156-3e-3 -0.0168-1e-3 -2e-3 -2e-3 -2e-3 -9e-3 4.7e-4 -0.0145 6e-3 -0.0226 7e-3 -0.0397 6e-3 -9e-3 -4e-4 -0.0209-1e-3 -0.0268-2e-3 -6e-3 -9.5e-4 -0.0122-1e-3 -0.014-9.5e-4 -3e-3 4.8e-4 -3e-3 4.8e-4 -2e-3 0.0107 4.7e-4 6e-3 9.5e-4 0.0117 1e-3 0.0137 4.1e-4 2e-3 -6e-5 5e-3 -9.5e-4 6e-3 -2e-3 3e-3 1.5e-4 4e-3 -0.0382-0.0102-0.0131-5e-3 -0.0266-9e-3 -0.0301-0.0106-9e-3 -3e-3 -0.0103-2e-3 -0.0112 0.0117-9.4e-4 0.0125-3e-3 0.0157-0.0113 0.0193-0.0106 4e-3 -0.0155 5e-3 -0.0256 4e-3 -6e-3 -4.7e-4 -0.0164-1e-3 -0.0242-2e-3 -8e-3 -4.7e-4 -0.0226-2e-3 -0.0328-3e-3 -0.0331-3e-3 -0.0457-8e-3 -0.067-0.0262-0.0182-0.0159-0.0406-0.0244-0.0682-0.0261-0.0154-9.5e-4 -0.0189-2e-3 -0.0213-8e-3l-2e-3 -4e-3 -9e-3 9e-3c-5e-3 5e-3 -0.0126 0.0109-0.0165 0.0135-6e-3 4e-3 -7e-3 6e-3 -9e-3 0.0113-1e-3 5e-3 -3e-3 8e-3 -8e-3 0.0123-3e-3 3e-3 -8e-3 6e-3 -9e-3 7e-3 -3e-3 9.5e-4 -0.0227-9.4e-4 -0.0324-3e-3 -3e-3 -4.7e-4 -0.0104-2e-3 -0.0167-3e-3 -0.0238-4e-3 -0.0363-8e-3 -0.0399-0.0121-1e-3 -2e-3 -7e-3 -8e-3 -0.0122-0.0139l-9e-3 -0.0106h-8e-3c-0.0127 0-0.0451-4e-3 -0.059-8e-3 -0.0419-0.0105-0.0496-0.0159-0.0754-0.0526-9e-3 -0.0123-0.0114-0.0143-0.0199-0.0143-0.0107-6e-5 -0.0188-4e-3 -0.0198-9e-3 -1.8e-4 -9.5e-4 -9.5e-4 -4e-3 -1e-3 -8e-3 -9.4e-4 -6e-3 -1e-3 -6e-3 -5e-3 -7e-3l-4e-3 -9.4e-4v-0.0114c0-0.0113 6e-5 -0.0114 3e-3 -0.0114 4e-3 0 7e-3 -3e-3 7e-3 -6e-3 0-6e-3 0.0104-7e-3 0.0154-2e-3 3e-3 3e-3 4e-3 3e-3 0.0102 3e-3l7e-3 -4.8e-4 9.4e-4 -0.01c9.4e-4 -9e-3 1e-3 -0.01 4e-3 -0.0105 2e-3 -4.7e-4 4e-3 2.3e-4 7e-3 2e-3l4e-3 3e-3 0.0472-9.4e-4c0.10486-2e-3 0.12126-3e-3 0.12793-6e-3 9e-3 -4e-3 0.0144-5e-3 0.0192-2e-3 2e-3 9.5e-4 7e-3 2e-3 0.01 2e-3 7e-3 0 0.0127 2e-3 0.0208 8e-3 3e-3 2e-3 8e-3 5e-3 0.0102 6e-3 4e-3 1e-3 9e-3 7e-3 0.0137 0.017 2e-3 4e-3 2e-3 6e-3 9.4e-4 0.0134-9.4e-4 5e-3 -9.4e-4 9e-3 -9.4e-4 0.01 3.7e-4 4.8e-4 6e-3 9.5e-4 0.0119 9.5e-4 0.0127 1e-5 0.0191 1e-3 0.0262 6e-3 6e-3 4e-3 7e-3 4e-3 0.0106-1.1e-4 3e-3 -3e-3 4e-3 -3e-3 0.0185-3e-3 0.0135 0 0.0162 3.8e-4 0.0236 3e-3 8e-3 3e-3 9e-3 3e-3 0.0224 2e-3 0.0126-9.5e-4 0.02-2e-3 0.0335-6e-3 2e-3 -4.7e-4 7e-3 -2e-3 0.011-3e-3 0.0266-8e-3 0.0401-0.0102 0.0592-0.0101 0.0193 0 0.0308 3e-3 0.053 0.0132 0.0101 5e-3 0.0168 7e-3 0.0237 7e-3 8e-3 0 0.0404-3e-3 0.0515-5e-3 0.0284-5e-3 0.0329-6e-3 0.0474-0.0137 0.0125-6e-3 0.0145-8e-3 0.0148-0.0109 4.7e-4 -4e-3 -2e-3 -7e-3 -0.0163-0.012-0.013-5e-3 -0.0138-7e-3 -7e-3 -0.0138 0.0122-0.0128 0.0131-0.0168 7e-3 -0.031-3e-3 -8e-3 -4e-3 -0.0107-4e-3 -0.0186 1.2e-4 -0.011-9.4e-4 -0.0117-8e-3 -4e-3 -6e-3 7e-3 -8e-3 0.013-7e-3 0.0255 9.4e-4 9e-3 9.4e-4 0.01-1e-3 8e-3 -9.4e-4 -9.5e-4 -2e-3 -2e-3 -2e-3 -3e-3 0-4.7e-4 -3e-3 -6e-3 -7e-3 -0.0118-0.0133-0.0212-0.0141-0.0289-5e-3 -0.0481 3e-3 -6e-3 5e-3 -0.0122 5e-3 -0.0136 0-1e-3 -3e-3 -4e-3 -7e-3 -7e-3 -7e-3 -5e-3 -0.0248-0.0212-0.0248-0.0235 0-4.7e-4 3e-3 1.7e-4 7e-3 2e-3 0.0136 6e-3 0.0201 6e-3 0.0325-3e-3 5e-3 -3e-3 9e-3 -6e-3 0.0103-6e-3 1e-3 0 2e-3 -1e-3 2e-3 -4e-3 6e-5 -5e-3 3e-3 -0.0168 6e-3 -0.023 3e-3 -7e-3 0.0111-0.017 0.0215-0.0265 0.0155-0.0141 0.03-0.029 0.0348-0.0357l4e-3 -6e-3 4.5e-4 4e-3c4.7e-4 5e-3 -2e-3 0.0228-4e-3 0.0307-2e-3 7e-3 -3e-3 0.0154-2e-3 0.0154 4e-4 0 3e-3 -4e-3 7e-3 -9e-3 3e-3 -5e-3 9e-3 -0.0124 0.0131-0.0162 0.0113-0.0111 0.0401-0.0232 0.0684-0.0289 0.0195-4e-3 0.0391-0.012 0.0474-0.0195 5e-3 -5e-3 0.0131-0.0154 0.0131-0.0177 8e-5 -3.7e-4 2.3e-4 -9.5e-4 3.9e-4 -9.5e-4z" fill="#23272d"/>
    </g>
    <g transform="translate(206.18,263.23)" stroke-width=".0044114">
     <path d="m-195.19-228.29-0.039 0.0928-0.0406-0.0928h-0.0426l-0.0403 0.0916-0.0383-0.0916h-0.0648l0.0802 0.1822h0.0406l0.0411-0.0918 0.0403 0.0918h0.0436l0.0795-0.1822z"/>
     <path d="m-194.39-228.22v-0.064h-0.0622v0.1822h0.0622v-0.0704h0.11154v0.0704h0.0619v-0.1822h-0.0619v0.064z"/>
     <path d="m-195.05-228.29-0.12215 0.1822h0.0676l0.0757-0.11734 0.0751 0.11734h0.0696l-0.11894-0.1822z"/>
     <path d="m-195.9-228.29h-0.0687l-0.0694 0.11092-0.0681-0.11092h-0.0704l0.11492 0.1822h0.0425z"/>
     <path d="m-194.73-228.24 0.0316-0.0478h-0.23549v0.0478h0.0791v0.1344h0.0623v-0.1344z"/>
     <path class="cls-4" d="m-196.2-228.28a0.078069 0.083111 0 0 0-0.0214-3e-3h-0.13767c-0.0315 0-0.0511 0.0158-0.0511 0.0413v0.0997a0.035316 0.037594 0 0 0 0.0214 0.0344l3e-3 1e-3 0.0379-0.0384v-0.0905h0.11599v0.0865h-0.0853l-0.0481 0.048h0.14404c0.0303 0 0.0513-0.017 0.0513-0.0413v-0.0945l-0.0285-0.0431z"/>
     <path class="cls-4" d="m-194.53-228.29h-0.12429a0.083757 0.089165 0 0 0-0.01 4.8e-4h-2e-3l-5e-3 8e-3 -0.0339 0.0518v0.0802c0 0.0243 0.021 0.0413 0.0511 0.0413h0.12429c0.0293 0 0.0513-0.0178 0.0513-0.0413v-0.0313h-0.0621v0.0247h-0.10261v-0.0865h0.10261v0.0212h0.0622v-0.0273c0-0.0254-0.0202-0.0417-0.0514-0.0417z"/>
     <path d="m-195.9-228.1h0.19295v-0.048h-0.13074v-0.023h0.0882v-0.0417h-0.0882v-0.0218h0.13074v-0.0478h-0.16123l-0.0317 0.0455z"/>
     <path class="cls-4" d="m-195.51-228.17c0.0222-9.4e-4 0.046-0.0117 0.046-0.0331v-0.0434c0-0.023-0.0179-0.0373-0.0468-0.0373h-0.17264v0.18206h0.062v-0.13532h0.0941a0.02655 0.028265 0 0 1 3e-3 0v0.0286a0.0061567 0.0065541 0 0 1 0 9.4e-4 0.0070545 0.0075098 0 0 1-3e-3 4.7e-4h-0.066v0.0367l0.0764 0.0688h0.0851l-0.0783-0.0683z"/>
    </g>
    <path d="m9.7706 35.22v0.26811h0.28515v-0.0681h-0.19777v-0.20001zm1.4428 0h-0.28791c-0.0391 0-0.0635 0.0246-0.0635 0.0612v0.14981l0.0371 0.0543c7e-3 1e-3 0.0151 3e-3 0.0237 3e-3h0.23456c0.0363 0 0.0607-0.0304 0.0607-0.0557v-0.11544h-0.16281l-0.0438 0.0653h0.116v0.0382h-0.17524v-0.13614h0.219zm-1.0237 0.10188v-0.0331h0.19678v-0.0687h-0.28654v0.26811h0.2702l0.0467-0.0696h-0.22713v-0.0349h0.13299v-0.0617zm1.1434 0.16623c-0.0438 0-0.0574-0.0254-0.0574-0.0634v-0.20468h0.0837v0.20055h0.16999v-0.20055h0.0837v0.20468c0 0.0395-0.0165 0.0634-0.0574 0.0634zm0.42305-0.17082v-0.0313h0.20275v-0.066h-0.28653v0.26811h0.28883v-0.0673h-0.20505v-0.0391h0.11873v-0.0644zm-1.3342 0.17082h0.0992l0.11107-0.17227 0.11019 0.17227h0.10216l-0.17447-0.26811h-0.069z" fill="#f79c15" fill-rule="evenodd" stroke-width=".029093"/>
   </g>
   <path d="m29.265 33.689c-0.08599 0.0075-0.15044 0.08427-0.14288 0.17034l0.13733 1.5637c0.0076 0.08608 0.08443 0.15038 0.17039 0.14283l1.8033-0.15838c0.0859-0.0075 0.15044-0.0842 0.14289-0.17021l-0.13732-1.5636c-0.0076-0.08604-0.08435-0.15043-0.17038-0.14287z" fill="none" stroke="#fff" stroke-width=".024077"/>
   <path d="m29.308 34.221c-0.08632 0.0076-0.15456 0.04437-0.15128 0.08167l0.05952 0.67768c0.0033 0.03731 0.07691 0.06163 0.1632 0.05405l1.8103-0.15899c0.08623-0.0076 0.15455-0.04433 0.15128-0.08161l-0.05952-0.67765c-0.0033-0.03729-0.07683-0.06166-0.16319-0.05407z" fill="none" stroke="#fff" stroke-width=".024077"/>
   <g transform="rotate(-5.2869)" fill="#fff" stroke-width=".021591">
    <path d="m26.132 37.361q-0.04027 0-0.0719-7e-3 -0.03142-7e-3 -0.0544-0.01729l0.01624-0.07528h0.0089q0.02172 0.01982 0.05103 0.03079 0.02931 0.01075 0.06304 0.01075 0.03458 0 0.05082-0.0093 0.01624-0.0095 0.01624-0.02699 0-0.0065-0.0027-0.01118-0.0025-0.0048-0.01012-0.0095-0.0076-0.0046-0.02088-0.0091-0.01307-0.0046-0.03395-0.01054-0.02298-0.0063-0.04133-0.01371-0.01813-0.0074-0.031-0.0175-0.01286-0.01033-0.01961-0.02383-0.0065-0.01349-0.0065-0.03226 0-0.04723 0.04154-0.07528 0.04175-0.02825 0.11407-0.02825 0.03479 0 0.06558 0.0057 0.031 0.0057 0.0525 0.01539l-0.01539 0.07232h-0.0086q-0.01645-0.01518-0.04344-0.0253-0.02678-0.01033-0.05862-0.01033-0.03121 0-0.04829 0.0091t-0.01708 0.02509q0 0.0074 0.0025 0.01223 0.0025 0.0048 0.01033 0.0095 0.0067 0.0042 0.0213 0.0093 0.01455 0.0048 0.03416 0.01012 0.05271 0.01413 0.07527 0.0331 0.02256 0.01898 0.02256 0.05145 0 0.0272-0.01223 0.04786t-0.03374 0.03352q-0.02256 0.01371-0.05124 0.02003-0.02868 0.0063-0.06494 0.0063z"/>
    <path d="m26.628 37.102h-0.09784l-0.05841 0.25324h-0.08139l0.05841-0.25324h-0.09784l0.01392-0.06073h0.27706z"/>
    <path d="m26.912 37.356h-0.0816l-0.0072-0.0641h-0.11555l-0.03669 0.0641h-0.08455l0.18829-0.31396h0.09362zm-0.09488-0.1204-0.01265-0.11281-0.06473 0.11281z"/>
    <path d="m27.266 37.129q0 0.05609-0.0466 0.09046-0.04639 0.03437-0.12989 0.03437h-0.03078l-0.02361 0.10226h-0.08139l0.07253-0.31396h0.1128q0.03079 0 0.05356 0.0042 0.02298 0.0042 0.03964 0.01455 0.01645 0.01033 0.02509 0.02699 0.0086 0.01645 0.0086 0.04112zm-0.08645 0.0078q0-0.01834-0.01328-0.0272-0.01328-0.0089-0.03943-0.0089h-0.03268l-0.02172 0.09404h0.0291q0.0369 0 0.05735-0.01497 0.02066-0.01518 0.02066-0.04301z"/>
   </g>
  </g>
  <g transform="matrix(.23983 0 0 .23983 -68.458 5.1005)" fill="#ffaa1d">
   <path class="cls-1" d="m-207.41 53.626-0.27701-2.1794h-8.7242v6.6339a3.1665 3.1665 0 0 0 3.1522 3.1617h5.5593l0.28338-2.1715h-5.4574a0.98863 0.98863 0 0 1-0.99022-0.97749v-0.7769h5.7933v-1.9868h-5.7933v-1.7034z" stroke-width=".1592"/>
   <polygon class="cls-1" transform="matrix(.1592 0 0 .1592 -216.42 -15.132)" points="64.71 418.21 64.71 431.93 89.28 431.93 89.28 479.64 104.63 479.64 104.63 431.93 126.96 431.93 129.14 418.21"/>
   <path class="cls-1" d="m-155.23 51.447h-2.4612l0.01 0.0207-4.5308 9.8163h2.4421l0.92654-2.0059h4.7664l0.92654 2.0059h2.4437l-4.5308-9.8131zm0.30248 5.9875h-3.0662l1.5331-3.3145z" stroke-width=".1592"/>
   <path class="cls-1" d="m-174.44 55.101c0-1.9582-1.592-3.6616-3.5422-3.6616h-6.2359v2.1842h5.7073a1.479 1.479 0 0 1 1.5315 1.4694 1.5315 1.5315 0 0 1-1.5315 1.5315h-3.2652v-1.2943h-2.4421v5.9159h2.4421v-2.5583l2.8879-0.03343 1.5442 2.5902h2.9293l-1.826-3.063a3.5406 3.5406 0 0 0 1.8006-3.0805z" stroke-width=".1592"/>
   <polygon class="cls-1" transform="matrix(.1592 0 0 .1592 -216.42 -15.132)" points="287.51 418.21 272.13 418.21 272.13 479.64 287.48 479.64 287.48 443.47 317.14 479.64 332.49 479.64 332.49 418.21 317.14 418.21 317.14 454.87"/>
   <polygon class="cls-1" transform="matrix(.1592 0 0 .1592 -216.42 -15.132)" points="436.17 418.21 420.59 418.21 420.59 480 473.7 480 473.7 466.11 436.17 466.11"/>
   <path class="cls-1" d="m-185.52 53.626-0.28338-2.1715-8.7321-8e-3v6.7756h0.0127a3.1633 3.1633 0 0 0 3.1601 3.0248h5.5593l0.28338-2.1715h-5.459a0.99022 0.99022 0 0 1-0.99022-0.97749v-0.7769h5.7949v-1.9916h-5.7949v-1.6987z" stroke-width=".1592"/>
  </g>
  <g transform="translate(-.040826)" fill="#f9f9f9" stroke-width=".1592">
   <path class="cls-2" d="m-78.505 18.981v1.5681h-0.58267v-3.8606h0.66068a2.9977 2.9977 0 0 1 0.73232 0.06686 0.99022 0.99022 0 0 1 0.44098 0.25472 1.1033 1.1033 0 0 1 0.33273 0.82147 1.0587 1.0587 0 0 1-0.35502 0.84058 1.4153 1.4153 0 0 1-0.9552 0.30885zm0-0.53969h0.2181q0.796 0 0.796-0.6177t-0.82784-0.597h-0.19263z"/>
   <path class="cls-2" d="m-73.721 19.611h-1.6541l-0.42984 0.93769h-0.62725l1.9104-3.8988 1.8435 3.8988h-0.6368zm-0.2388-0.54765-0.57153-1.3134-0.60018 1.315z"/>
   <path class="cls-2" d="m-70.356 18.906 1.1956 1.6445h-0.71322l-1.1033-1.5793h-0.11144v1.5793h-0.58267v-3.8622h0.68297c0.51103 0 0.87878 0.09552 1.1144 0.28656a1.0603 1.0603 0 0 1 0.37412 0.84535 1.0985 1.0985 0 0 1-0.23402 0.70526 1.0555 1.0555 0 0 1-0.62247 0.38049zm-0.73232-0.44417h0.18626c0.55083 0 0.82784-0.21174 0.82784-0.6368q0-0.59222-0.80555-0.59222h-0.20855z"/>
   <path class="cls-2" d="m-67.571 16.688v3.8606h-0.58267v-3.8606z"/>
   <path class="cls-2" d="m-64.189 17.263-0.4776 0.28019a0.80396 0.80396 0 0 0-0.25154-0.2993 0.58586 0.58586 0 0 0-0.3184-0.08119 0.59222 0.59222 0 0 0-0.40278 0.1385 0.42188 0.42188 0 0 0-0.1592 0.3391c0 0.18945 0.1401 0.34069 0.4187 0.45531l0.38526 0.1592a1.6445 1.6445 0 0 1 0.68774 0.46486 1.0332 1.0332 0 0 1 0.2181 0.67023 1.1797 1.1797 0 0 1-0.35502 0.88197 1.2242 1.2242 0 0 1-0.88834 0.34865 1.1844 1.1844 0 0 1-0.82943-0.2977 1.3643 1.3643 0 0 1-0.40278-0.83739l0.59063-0.13054a0.99341 0.99341 0 0 0 0.1401 0.4776 0.66386 0.66386 0 0 0 0.97749 0.06686 0.6368 0.6368 0 0 0 0.1799-0.46168 0.64954 0.64954 0 0 0-0.0318-0.20696 0.51422 0.51422 0 0 0-0.0971-0.17194 0.796 0.796 0 0 0-0.17194-0.14806 1.7194 1.7194 0 0 0-0.24994-0.13214l-0.37253-0.1592c-0.52854-0.22288-0.796-0.55083-0.796-0.98067a0.93291 0.93291 0 0 1 0.33273-0.72754 1.1988 1.1988 0 0 1 0.82784-0.29452q0.67182-0.0032 1.0459 0.64635z"/>
  </g>
 </g>
</svg>
