<?xml version="1.0" encoding="UTF-8" standalone="no"?>
<!-- Created with Inkscape (http://www.inkscape.org/) -->

<svg
   xmlns:dc="http://purl.org/dc/elements/1.1/"
   xmlns:cc="http://creativecommons.org/ns#"
   xmlns:rdf="http://www.w3.org/1999/02/22-rdf-syntax-ns#"
   xmlns:svg="http://www.w3.org/2000/svg"
   xmlns="http://www.w3.org/2000/svg"
   xmlns:sodipodi="http://sodipodi.sourceforge.net/DTD/sodipodi-0.dtd"
   xmlns:inkscape="http://www.inkscape.org/namespaces/inkscape"
   width="66.881607mm"
   height="79.375mm"
   viewBox="0 0 66.881607 79.375"
   version="1.1"
   id="svg876"
   inkscape:version="0.92.4 (5da689c313, 2019-01-14)"
   sodipodi:docname="Paris_FC.svg">
  <defs
     id="defs870">
    <linearGradient
       id="SVGID_7_"
       gradientUnits="userSpaceOnUse"
       x1="296.15231"
       y1="-361.92871"
       x2="300.34821"
       y2="-372.11841"
       gradientTransform="matrix(1.1549825,0,0,-1.1549825,-310.02246,-209.28272)">
      <stop
         offset="0"
         style="stop-color:#FFFFFF"
         id="stop769" />
      <stop
         offset="1"
         style="stop-color:#525252"
         id="stop771" />
    </linearGradient>
    <linearGradient
       id="SVGID_6_"
       gradientUnits="userSpaceOnUse"
       x1="297.91891"
       y1="-366.50339"
       x2="298.90179"
       y2="-371.1373"
       gradientTransform="matrix(1.1549825,0,0,-1.1549825,-310.02246,-209.28272)">
      <stop
         offset="0"
         style="stop-color:#FFFFFF"
         id="stop762" />
      <stop
         offset="1"
         style="stop-color:#A3B3BC"
         id="stop764" />
    </linearGradient>
    <linearGradient
       id="SVGID_5_"
       gradientUnits="userSpaceOnUse"
       x1="276.10159"
       y1="-319.2012"
       x2="319.75201"
       y2="-319.2012"
       gradientTransform="matrix(1.1549825,0,0,-1.1549825,-310.02246,-209.28272)">
      <stop
         offset="0"
         style="stop-color:#CBCED1"
         id="stop737" />
      <stop
         offset="0.0559"
         style="stop-color:#E1E3E5"
         id="stop739" />
      <stop
         offset="0.118"
         style="stop-color:#F2F3F3"
         id="stop741" />
      <stop
         offset="0.1864"
         style="stop-color:#FCFCFC"
         id="stop743" />
      <stop
         offset="0.2727"
         style="stop-color:#FFFFFF"
         id="stop745" />
      <stop
         offset="0.703"
         style="stop-color:#FFFFFF"
         id="stop747" />
      <stop
         offset="0.7723"
         style="stop-color:#FBFCFC"
         id="stop749" />
      <stop
         offset="0.8387"
         style="stop-color:#F0F1F2"
         id="stop751" />
      <stop
         offset="0.9039"
         style="stop-color:#DCDFE1"
         id="stop753" />
      <stop
         offset="0.9679"
         style="stop-color:#C1C7CA"
         id="stop755" />
      <stop
         offset="1"
         style="stop-color:#B1B8BC"
         id="stop757" />
    </linearGradient>
    <linearGradient
       id="SVGID_4_"
       gradientUnits="userSpaceOnUse"
       x1="298.16989"
       y1="-313.88379"
       x2="298.16989"
       y2="-323.7655"
       gradientTransform="matrix(1.1549825,0,0,-1.1549825,-310.02246,-209.28272)">
      <stop
         offset="0"
         style="stop-color:#FFFFFF"
         id="stop730" />
      <stop
         offset="1"
         style="stop-color:#262626"
         id="stop732" />
    </linearGradient>
    <linearGradient
       gradientTransform="matrix(1.1549825,0,0,-1.1549825,-310.02246,-209.28272)"
       y2="-343.12891"
       x2="311.97849"
       y1="-343.12891"
       x1="298.6152"
       gradientUnits="userSpaceOnUse"
       id="SVGID_3_">
      <stop
         id="stop719"
         style="stop-color:#0098CC"
         offset="0" />
      <stop
         id="stop721"
         style="stop-color:#0A71B3"
         offset="1" />
    </linearGradient>
    <radialGradient
       id="SVGID_2_"
       cx="297.94141"
       cy="-315.91211"
       r="26.4589"
       gradientTransform="matrix(1.1549825,0,0,-1.2607789,-310.02246,-205.94087)"
       gradientUnits="userSpaceOnUse">
      <stop
         offset="0.0182"
         style="stop-color:#102659"
         id="stop708" />
      <stop
         offset="0.697"
         style="stop-color:#0A0F2D"
         id="stop710" />
    </radialGradient>
    <linearGradient
       id="SVGID_1_"
       gradientUnits="userSpaceOnUse"
       x1="268.98929"
       y1="-342.47751"
       x2="326.89551"
       y2="-342.47751"
       gradientTransform="matrix(1.1549825,0,0,-1.1549825,-310.02246,-209.28272)">
      <stop
         offset="0"
         style="stop-color:#0098CC"
         id="stop701" />
      <stop
         offset="1"
         style="stop-color:#0A71B3"
         id="stop703" />
    </linearGradient>
  </defs>
  <sodipodi:namedview
     id="base"
     pagecolor="#ffffff"
     bordercolor="#666666"
     borderopacity="1.0"
     inkscape:pageopacity="0.0"
     inkscape:pageshadow="2"
     inkscape:zoom="0.98994949"
     inkscape:cx="347.52494"
     inkscape:cy="291.50486"
     inkscape:document-units="mm"
     inkscape:current-layer="layer1"
     showgrid="false"
     inkscape:window-width="1366"
     inkscape:window-height="705"
     inkscape:window-x="-8"
     inkscape:window-y="-8"
     inkscape:window-maximized="1" />
  <metadata
     id="metadata873">
    <rdf:RDF>
      <cc:Work
         rdf:about="">
        <dc:format>image/svg+xml</dc:format>
        <dc:type
           rdf:resource="http://purl.org/dc/dcmitype/StillImage" />
        <dc:title></dc:title>
      </cc:Work>
    </rdf:RDF>
  </metadata>
  <g
     inkscape:label="Layer 1"
     inkscape:groupmode="layer"
     id="layer1"
     transform="translate(-0.65485893,-146.58566)">
    <path
       inkscape:connector-curvature="0"
       style="fill:url(#SVGID_1_);stroke-width:1.15498245"
       d="m 67.535096,169.58711 c 0.0012,-0.045 -0.210188,-11.08203 -1.636612,-13.37817 -3.195836,-5.14427 -15.234218,-9.61752 -31.701959,-9.62328 -16.470051,-0.004 -31.1152293,5.44456 -32.725275,10.2597 -2.17714209,6.51292 -0.98635514,40.80785 16.020763,58.91449 7.758017,8.26044 15.235374,10.20081 16.713752,10.20081 1.461053,0 8.626567,-1.72669 16.995566,-10.17885 10.340561,-10.44452 14.195892,-24.95456 15.610747,-35.2882 0.528981,-3.88764 0.743806,-10.89031 0.723018,-10.9065 z"
       id="path706" />
    <path
       inkscape:connector-curvature="0"
       style="fill:url(#SVGID_2_);stroke-width:1.15498245"
       d="m 63.862252,181.77451 c -1.283185,9.79309 -4.78856,23.542 -14.188959,33.4344 -7.609025,8.00869 -14.124283,9.64759 -15.452513,9.64759 -1.340935,0 -8.2639,-1.71979 -15.196105,-9.66605 C 7.9033476,202.44062 4.183149,182.38666 3.665717,169.98906 c -0.016152,-0.35795 -0.028855,-0.71263 -0.036974,-1.05915 -0.1432164,-4.87746 0.2321504,-8.40593 0.8315874,-9.56439 2.1956217,-4.23415 17.1387856,-8.5457 29.6068226,-8.5457 h 0.144373 c 11.962153,0.0306 26.013671,3.00755 28.82259,7.94164 0.733412,1.2878 1.384822,4.95141 1.526886,9.97097 0.0092,0.36014 0.01615,0.72189 0.02095,1.09263 0.05081,3.50768 -0.148988,7.59399 -0.719553,11.94945 z"
       id="path713" />
    <path
       style="fill:#ffffff;stroke-width:1.15498245"
       inkscape:connector-curvature="0"
       id="path715"
       d="m 42.411915,203.51125 c -2.960219,-2.55365 -6.363953,-4.44321 -9.379612,-3.7583 -2.577921,0.58674 -4.029734,2.9302 -4.272281,4.03091 -0.743808,-0.89052 -1.015229,-1.1527 -0.974805,-1.42758 0.369596,-2.50629 7.048858,-8.45216 14.626698,1.15497 z" />
    <path
       style="fill:#ffffff;stroke-width:1.15498245"
       inkscape:connector-curvature="0"
       id="path717"
       d="m 33.955134,171.51015 c -0.785388,6.92068 -2.806608,29.0767 -15.399382,35.05488 13.983373,-0.21827 17.045232,-29.36656 15.399382,-35.05488 z" />
    <path
       inkscape:connector-curvature="0"
       style="fill:url(#SVGID_3_);stroke-width:1.15498245"
       id="path724"
       d="m 36.392147,181.5019 c -0.291056,-3.33674 -0.254095,-6.55221 0.06237,-9.53898 0.264489,-2.49939 -1.843352,-3.09997 -1.212731,-5.2136 -0.955171,1.95884 0.861616,2.5502 0.360354,5.13851 -0.702229,3.60586 -0.922831,7.71993 -0.548617,12.04995 1.173462,13.45438 8.400187,23.90353 15.252698,23.34106 -3.13924,-1.77405 -12.694411,-11.79239 -13.914074,-25.77694 z" />
    <path
       style="fill:#ffffff;stroke-width:1.15498245"
       inkscape:connector-curvature="0"
       id="path726"
       d="m 33.397277,170.22121 c 0.608676,-0.64794 1.67126,-2.109 1.181547,-3.97547 0.103951,2.58604 -1.792533,3.64746 -1.983105,3.93618 -0.747273,1.13651 1.845662,0.90899 1.928821,0.95517 -0.507037,-0.21826 -1.850282,-0.14667 -1.127263,-0.91588 z" />
    <path
       inkscape:connector-curvature="0"
       style="fill:url(#SVGID_4_);stroke-width:1.15498245"
       d="m 15.280221,157.97378 c -0.256408,-0.28068 -0.569406,-0.48048 -0.940155,-0.60062 -0.112035,-0.0349 -0.235617,-0.0576 -0.367283,-0.0703 -0.125895,-0.004 -0.284128,0.002 -0.471233,0.0175 -0.315309,0.0306 -0.731104,0.11656 -1.246226,0.26236 l -3.1069053,0.87432 1.9334403,6.86752 1.608892,-0.45391 -0.652566,-2.31574 1.558072,-0.43775 c 0.288746,-0.0808 0.533602,-0.16283 0.735724,-0.24271 0.194037,-0.0738 0.370748,-0.15148 0.530136,-0.22874 0.267955,-0.14187 0.500108,-0.33482 0.696455,-0.58093 0.197503,-0.2449 0.325707,-0.55095 0.384608,-0.91475 0.04966,-0.33263 0.01615,-0.70338 -0.100484,-1.11804 -0.117806,-0.42518 -0.307225,-0.77959 -0.562475,-1.0591 z m -1.278565,2.2672 c -0.07277,0.10957 -0.173245,0.19862 -0.30145,0.26803 -0.135131,0.0716 -0.301449,0.13489 -0.496642,0.19033 l -1.563848,0.43893 -0.481628,-1.70941 1.479533,-0.41601 c 0.457373,-0.12834 0.792318,-0.15147 1.007145,-0.0703 0.205588,0.0842 0.351113,0.27938 0.437738,0.58674 0.082,0.28636 0.05544,0.52436 -0.08085,0.71145 z m 41.53548,-1.50956 c 0.162869,-0.13969 0.346517,-0.22961 0.548617,-0.27021 0.202113,-0.0262 0.441204,-0.009 0.719556,0.0624 l 2.412756,0.60521 0.349966,-1.3848 -2.440476,-0.61215 c -1.107631,-0.27719 -1.992348,-0.18945 -2.657618,0.26454 -0.672198,0.45504 -1.1596,1.28894 -1.465672,2.50284 -0.155928,0.62022 -0.202113,1.17924 -0.136284,1.67356 0.05889,0.49088 0.227519,0.92859 0.505884,1.31321 0.227519,0.30819 0.486246,0.54283 0.773839,0.70687 0.277196,0.16632 0.681439,0.31299 1.205802,0.44579 l 2.478589,0.6214 0.354592,-1.40331 -2.413912,-0.60521 c -0.56132,-0.14187 -0.915899,-0.3741 -1.060272,-0.69875 -0.153615,-0.32783 -0.142047,-0.84429 0.03361,-1.5523 0.205605,-0.83276 0.471233,-1.38715 0.79116,-1.66898 z m -16.274858,-1.27161 -1.895326,-0.0694 c -0.254095,-0.009 -0.450443,-0.0703 -0.590196,-0.18466 -0.114344,-0.11568 -0.168627,-0.27152 -0.15939,-0.46892 0.0093,-0.27937 0.08778,-0.47123 0.23446,-0.57403 0.148992,-0.11917 0.4054,-0.17199 0.771528,-0.15802 l 3.663605,0.12834 0.05544,-1.47377 -3.879586,-0.141 c -0.85584,-0.0306 -1.492236,0.12485 -1.909184,0.4701 -0.423879,0.35097 -0.649101,0.90667 -0.67682,1.66662 -0.02541,0.71958 0.146682,1.25777 0.518587,1.61468 0.399624,0.35577 0.993285,0.54863 1.786758,0.57635 l 1.692049,0.0611 c 0.182487,0.009 0.329169,0.0218 0.440049,0.045 0.10395,0.0218 0.189418,0.0611 0.258717,0.11437 0.124738,0.12266 0.184796,0.30164 0.176711,0.53706 -0.0093,0.22874 -0.08432,0.39287 -0.227532,0.48856 -0.07392,0.0576 -0.177868,0.096 -0.311847,0.11306 -0.137441,0.0218 -0.297983,0.0306 -0.478163,0.0262 l -3.701717,-0.13401 -0.05428,1.46451 3.92694,0.14318 c 0.845448,0.0306 1.480688,-0.12223 1.903412,-0.46316 0.421569,-0.34049 0.649099,-0.88122 0.674509,-1.62157 0.02663,-0.73804 -0.128204,-1.2751 -0.468922,-1.61005 -0.337254,-0.33744 -0.921676,-0.51973 -1.749799,-0.54976 z m -9.056218,0.67798 c 0.213673,-0.37673 0.293365,-0.83853 0.240235,-1.39061 -0.07161,-0.74498 -0.329169,-1.27279 -0.771528,-1.58578 -0.418103,-0.32128 -1.059119,-0.44006 -1.919581,-0.35708 l -3.63242,0.3501 0.686059,7.10084 1.663175,-0.16064 -0.258717,-2.68536 1.492237,-0.14318 1.747489,2.54095 1.886086,-0.18116 -2.001584,-2.74769 c 0.39154,-0.15584 0.681439,-0.40291 0.868546,-0.74035 z m -1.607735,-0.61215 c -0.162852,0.13402 -0.463148,0.22307 -0.899732,0.26454 l -1.62506,0.15715 -0.143216,-1.47835 1.62506,-0.15715 c 0.450444,-0.0436 0.764599,-0.0218 0.942466,0.0729 0.159386,0.096 0.252942,0.2772 0.278353,0.544 0.02541,0.26541 -0.03466,0.46547 -0.177868,0.59713 z m -9.981359,-1.43447 -1.64816,7.55587 1.771743,-0.32565 0.300297,-1.71979 2.743084,-0.50354 0.911281,1.498 1.846817,-0.33831 -4.252646,-6.47255 z m 0.708004,3.95809 0.406552,-2.2834 1.227747,1.98311 z m 12.506151,-5.50808 0.204431,7.1297 1.740559,-0.0485 -0.203279,-7.13205 z m 17.15611,2.79737 c 0.301467,-0.19295 0.735726,-0.24621 1.301668,-0.15715 l 2.39543,0.37672 0.222891,-1.42871 -2.27878,-0.35796 c -0.349966,-0.0554 -0.65372,-0.0877 -0.918213,-0.096 -0.266806,-0.009 -0.520896,0.003 -0.756513,0.0393 -0.235594,0.0349 -0.445822,0.0891 -0.626,0.15453 -0.181334,0.0672 -0.359176,0.15934 -0.532447,0.2772 -0.319932,0.24838 -0.561319,0.56709 -0.720709,0.95866 -0.169766,0.39593 -0.328008,1.03601 -0.465458,1.92418 l -0.511655,3.24895 1.656243,0.25973 0.438895,-2.78348 4.048211,0.63637 0.221756,-1.41946 -4.047058,-0.63523 c 0.07622,-0.47931 0.265671,-0.81081 0.571717,-0.99904 z"
       id="path735" />
    <path
       inkscape:connector-curvature="0"
       style="fill:url(#SVGID_5_);stroke-width:1.15498245"
       d="m 31.551615,154.02259 0.203278,7.12969 1.742869,-0.0485 -0.204431,-7.13088 z m 23.706016,4.19028 c 0.164004,-0.13969 0.345338,-0.23005 0.549774,-0.27021 0.200977,-0.0306 0.442356,-0.009 0.717243,0.0624 l 2.413912,0.60407 0.347652,-1.38366 -2.439323,-0.61215 c -1.105317,-0.27719 -1.991192,-0.19076 -2.656461,0.26454 -0.671046,0.45504 -1.159604,1.28894 -1.46452,2.50284 -0.158241,0.62022 -0.203291,1.1781 -0.139733,1.67242 0.0612,0.49084 0.229833,0.92859 0.507037,1.31435 0.227519,0.30601 0.485093,0.54169 0.772683,0.70569 0.280644,0.16501 0.682595,0.31299 1.208111,0.44469 l 2.47744,0.62136 0.354593,-1.40213 -2.413913,-0.60521 c -0.561324,-0.14187 -0.914746,-0.3741 -1.060276,-0.69879 -0.155928,-0.32783 -0.143225,-0.84429 0.03361,-1.5523 0.207918,-0.83158 0.473542,-1.38711 0.792317,-1.66776 z m -16.273703,-1.27165 -1.894172,-0.0681 c -0.256404,-0.009 -0.453908,-0.0716 -0.591351,-0.18465 -0.114344,-0.11568 -0.168627,-0.27152 -0.160542,-0.46892 0.0093,-0.27938 0.08778,-0.47123 0.23446,-0.57404 0.148991,-0.11917 0.4054,-0.17199 0.771528,-0.15846 l 3.664759,0.12834 0.05313,-1.4749 -3.877276,-0.141 c -0.856997,-0.0306 -1.493393,0.12485 -1.910341,0.47006 -0.422722,0.35097 -0.650256,0.90667 -0.67682,1.66666 -0.02427,0.71954 0.146682,1.2566 0.518587,1.61464 0.399625,0.35577 0.99444,0.54749 1.786758,0.57635 l 1.694359,0.0611 c 0.180177,0.009 0.32686,0.0218 0.437739,0.045 0.105103,0.0218 0.190571,0.0602 0.262179,0.11437 0.122429,0.12223 0.181334,0.30165 0.173245,0.53707 -0.0093,0.22874 -0.08547,0.39156 -0.227532,0.48856 -0.07623,0.0576 -0.177868,0.0947 -0.309534,0.11306 -0.137441,0.0218 -0.300297,0.0306 -0.480473,0.0262 l -3.701714,-0.13401 -0.05428,1.46455 3.926941,0.14449 c 0.844292,0.0306 1.479532,-0.12485 1.903411,-0.46429 0.421569,-0.33831 0.650255,-0.88013 0.67451,-1.62162 0.02658,-0.73804 -0.128205,-1.2751 -0.467769,-1.61118 -0.339567,-0.33613 -0.922831,-0.5186 -1.749798,-0.54863 z m -23.983213,0.51397 c -0.256404,-0.27938 -0.569406,-0.48049 -0.940155,-0.60058 -0.112035,-0.0349 -0.23446,-0.0576 -0.36613,-0.0703 -0.127047,-0.003 -0.284124,0.002 -0.472388,0.0175 -0.315309,0.0306 -0.729949,0.11655 -1.246227,0.26235 l -3.1069018,0.87433 1.9345958,6.86638 1.608891,-0.45277 -0.653721,-2.31688 1.559227,-0.43888 c 0.288746,-0.0808 0.532447,-0.16152 0.735724,-0.2414 0.194037,-0.0738 0.370748,-0.15017 0.530137,-0.22874 0.267955,-0.14188 0.500107,-0.33482 0.697609,-0.58098 0.196347,-0.2462 0.325708,-0.5509 0.384608,-0.91475 0.04851,-0.33132 0.01615,-0.70338 -0.100484,-1.11799 -0.121272,-0.42518 -0.309534,-0.77733 -0.564787,-1.05797 z m -1.278565,2.26724 c -0.07161,0.10957 -0.172093,0.19862 -0.301449,0.26803 -0.135132,0.0729 -0.30145,0.13532 -0.497798,0.19076 l -1.561538,0.44002 -0.481627,-1.70936 1.479533,-0.41688 c 0.457373,-0.12834 0.792317,-0.15148 1.007144,-0.0703 0.20674,0.0842 0.35227,0.27938 0.438894,0.5856 0.07969,0.28767 0.05197,0.52549 -0.08316,0.71263 z m 16.204405,-2.1021 c 0.213672,-0.37673 0.293365,-0.83967 0.240235,-1.39175 -0.07161,-0.7438 -0.329169,-1.27278 -0.771529,-1.58464 -0.418103,-0.32128 -1.057964,-0.43888 -1.919581,-0.35577 l -3.631265,0.3501 0.684905,7.10084 1.663175,-0.16152 -0.258718,-2.68535 1.492237,-0.14449 1.747489,2.54212 1.886086,-0.18116 -2.000429,-2.74773 c 0.389231,-0.15584 0.67913,-0.40291 0.867394,-0.74035 z m -1.608891,-0.61328 c -0.162851,0.13401 -0.463148,0.22306 -0.900886,0.26453 l -1.625061,0.15715 -0.143216,-1.47721 1.62506,-0.15715 c 0.449289,-0.0441 0.763444,-0.0175 0.942466,0.0716 0.160542,0.096 0.251785,0.27851 0.278352,0.54518 0.02659,0.26454 -0.03235,0.46429 -0.176715,0.59595 z m -9.979049,-1.43335 -1.647005,7.55475 1.769433,-0.32565 0.301449,-1.71975 2.741929,-0.50358 0.911281,1.49799 1.845662,-0.33962 -4.25149,-6.4725 z m 0.706849,3.95701 0.406553,-2.28344 1.227746,1.9831 z m 29.662262,-2.70845 c 0.302602,-0.19512 0.735726,-0.24707 1.301663,-0.15846 l 2.395435,0.37673 0.225205,-1.42985 -2.28109,-0.35796 c -0.349965,-0.0541 -0.653719,-0.0864 -0.917055,-0.096 -0.26912,-0.009 -0.520897,0.003 -0.756514,0.0393 -0.236773,0.0349 -0.446979,0.0891 -0.625999,0.15453 -0.183648,0.0659 -0.360355,0.15802 -0.532448,0.27588 -0.32338,0.2497 -0.562476,0.56941 -0.723022,0.9598 -0.168632,0.39506 -0.32456,1.03483 -0.464301,1.92304 l -0.511656,3.25013 1.658552,0.25974 0.437738,-2.7824 4.047059,0.63642 0.222935,-1.41946 -4.048215,-0.63642 c 0.07508,-0.47817 0.265628,-0.8108 0.571717,-0.99672 z"
       id="path760" />
    <path
       inkscape:connector-curvature="0"
       style="fill:url(#SVGID_6_);stroke-width:1.15498245"
       d="m 39.597222,214.15212 a 5.5011817,5.5011817 0 0 1 -5.501182,5.50118 5.5011817,5.5011817 0 0 1 -5.501183,-5.50118 5.5011817,5.5011817 0 0 1 5.501183,-5.50118 5.5011817,5.5011817 0 0 1 5.501182,5.50118 z"
       id="circle767" />
    <path
       inkscape:connector-curvature="0"
       style="fill:url(#SVGID_7_);stroke-width:1.15498245"
       d="m 34.497976,208.05844 c -3.684395,0 -6.686194,3.00065 -6.686194,6.68618 0,3.68788 3.000644,6.68849 6.686194,6.68849 3.687859,0 6.690813,-3.00061 6.690813,-6.68849 0,-3.68553 -2.999489,-6.68618 -6.690813,-6.68618 z m 0,12.78104 c -3.358689,0 -6.092533,-2.73272 -6.092533,-6.09486 0,-3.3587 2.733844,-6.09255 6.092533,-6.09255 3.363309,0 6.094842,2.73385 6.094842,6.09255 0.0035,3.36214 -2.730379,6.09486 -6.094842,6.09486 z"
       id="path774" />
    <path
       inkscape:connector-curvature="0"
       style="fill:#cb3332;stroke-width:1.15498245"
       d="m 34.094887,207.26033 c -3.801048,0 -6.894091,3.09076 -6.894091,6.8941 0,3.80103 3.093043,6.89524 6.894091,6.89524 3.802202,0 6.8964,-3.09421 6.8964,-6.89524 0,-3.80452 -3.094198,-6.8941 -6.8964,-6.8941 z m 0,13.14834 c -3.449933,0 -6.256541,-2.80662 -6.256541,-6.25769 0,-3.44879 2.806608,-6.25772 6.256541,-6.25772 3.451087,0 6.257695,2.80893 6.257695,6.25772 0,3.45452 -2.806608,6.25769 -6.257695,6.25769 z"
       id="path776" />
    <path
       inkscape:connector-curvature="0"
       style="fill:#0a0f2d;stroke-width:1.15498245"
       d="m 29.391798,213.19001 c 2.954445,-0.73804 7.282165,-0.73341 6.26809,3.33905 3.60932,-2.6114 2.063954,-6.98533 0.270268,-7.19439 -1.220817,0.65026 -6.538356,3.85534 -6.538358,3.85534 z"
       id="path778" />
    <path
       inkscape:connector-curvature="0"
       style="fill:#0a0f2d;stroke-width:1.15498245"
       d="m 29.995854,216.56027 h 8.459092 c 0,0 -1.35595,2.2834 -4.29769,2.32958 -2.938276,0.0485 -4.161402,-2.32958 -4.161402,-2.32958 z"
       id="path780" />
    <path
       inkscape:connector-curvature="0"
       style="fill:#ffffff;stroke-width:1.15498245"
       d="m 32.312749,192.88544 c -0.082,0.31299 -0.177869,0.62022 -0.284124,0.92627 3.437228,0.26934 7.436933,-1.3721 8.323959,-2.33766 -1.389444,0.5024 -4.781628,1.68051 -8.039835,1.41139 z"
       id="path782" />
    <path
       inkscape:connector-curvature="0"
       style="fill:#ffffff;stroke-width:1.15498245"
       d="m 33.957444,183.68367 c -0.02886,0.36145 -0.07507,0.71495 -0.137441,1.06954 1.906876,0.22045 3.781412,-0.39724 4.908675,-1.34442 -1.63199,0.17199 -3.133467,0.39026 -4.771234,0.27501 z"
       id="path784" />
    <path
       inkscape:connector-curvature="0"
       style="fill:#ffffff;stroke-width:1.15498245"
       d="m 34.263514,163.31786 h -0.27142 c -11.516331,0 -23.588209,2.46477 -30.3564063,5.44574 0.00808,0.34747 0.019644,0.70342 0.036974,1.0626 6.7762803,-2.97294 18.8285233,-5.4261 30.3194443,-5.4261 h 0.271421 c 11.49092,0 23.544319,2.45316 30.320604,5.4261 0.01615,-0.36014 0.02663,-0.71609 0.0358,-1.0626 -6.767035,-2.98097 -18.838912,-5.44574 -30.356399,-5.44574 z"
       id="path786" />
    <path
       style="fill:#ffffff;stroke-width:1.15498245"
       inkscape:connector-curvature="0"
       id="path788"
       d="m 14.663461,167.29564 c -1.354795,0.27938 -4.32079,1.10992 -5.517352,1.43679 -1.9542305,4.65226 -2.7962129,38.61569 17.250819,51.20383 C 7.0486604,203.77343 12.413555,174.20244 14.663461,167.29564 Z" />
    <path
       style="fill:#ffffff;stroke-width:1.15498245"
       inkscape:connector-curvature="0"
       id="path790"
       d="m 54.05183,167.29564 c 2.248752,6.9068 7.613643,36.47779 -11.733467,52.64062 20.045875,-12.58701 19.203894,-46.55039 17.25082,-51.20383 -1.197717,-0.32696 -4.16256,-1.15728 -5.517353,-1.43679 z" />
  </g>
</svg>
