<?xml version="1.0" encoding="windows-1252"?>
<!-- Generator: Adobe Illustrator 19.0.1, SVG Export Plug-In . SVG Version: 6.00 Build 0)  -->
<svg version="1.1" id="Ebene_1" xmlns="http://www.w3.org/2000/svg" xmlns:xlink="http://www.w3.org/1999/xlink" x="0px" y="0px" viewBox="0 0 500.784 198.425" style="enable-background:new 0 0 500.784 198.425;" xml:space="preserve">
<g>
	<path style="fill:#3264AF;" d="M29.526,29.613h23.177v0.57c0,0-7.746,5.925-9.055,18.689c0,0,9.565,0.229,17.253-9.914h0.4v25.47   h-0.4c0,0-5.467-9.059-17.709-10.03v66.491h0.342l18.393-50.423h38.664c0,0,2.108,13.731,3.02,15.498c0,0-0.284,1.141-2.393,0.627   c0,0-2.335-11.454-12.583-12.364l-12.436-0.055c-0.509-0.002-1.011,0.114-1.468,0.34c-0.92,0.458-2.349,1.445-3.059,3.374   c-0.164,0.442-0.231,0.914-0.215,1.385l0.833,24.3h13.611c0,0,5.809,0,6.037-10.6c0,0,0.227-0.738,1.193-0.797   c0.969-0.057,1.481,0.344,1.424,0.742v25.809c0,0-1.195,0.57-2.447,0c0,0-0.628-11.223-6.379-11.51H72.461l1.233,25.471   c0.016,0.328,0.067,0.648,0.157,0.959c0.348,1.223,1.442,4.006,4.246,4.113l11.227-0.123c0.052,0,0.103-0.004,0.155-0.014   c1.074-0.162,12.441-2.146,17.376-14.68c0,0,1.708-0.91,2.278,1.025c0,0-6.207,16.354-5.978,17.662c0,0-43.759-0.508-49.031,0   c0,0-1.253-1.482,0.114-2.904c0,0,9.394-0.113,9.51-6.041l-1.937-51.62h-0.341L38.977,142.77c0,0-1.08,0.514-2.22,0l-21.3-59.427   h-0.282l-3.245,49.627c0,0-0.457,4.789,9.108,5.527c0,0,1.027,0,1.141,0.57c0.114,0.568,0.169,1.994-0.285,2.336   c0,0-21.536-0.898-25.966,0.113c0,0-0.627-2.391,0.454-2.678c1.084-0.283,9.909-0.342,10.82-6.836l5.125-51.851   c0,0,1.082-6.153-10.309-6.781c0,0-0.966-1.767,0.174-2.791c0,0,13.493,0.598,18.619-0.057l18.109,51.281h0.341l-0.057-67.519   c0,0-10.991,0.401-17.879,9.232h-0.415V38.958h0.557c0,0,6.32,9.316,17.082,9.914c0,0,0.427-9.192-8.985-18.765L29.526,29.613z"/>
</g>
<g>
	<path style="fill:#3264AF;" d="M139.643,87.518c0.156,0.346,0.306,0.702,0.449,1.065c0.144-0.372,0.296-0.733,0.456-1.084   c0.16-0.351,0.325-0.69,0.493-1.02l4.736-9.33c0.085-0.16,0.171-0.285,0.26-0.374c0.089-0.089,0.188-0.154,0.297-0.196   c0.11-0.042,0.235-0.064,0.374-0.064c0.14,0,0.302,0,0.488,0h3.267v18.438h-3.774V84.341c0-0.515,0.025-1.072,0.076-1.671   l-4.888,9.485c-0.152,0.295-0.356,0.519-0.614,0.671c-0.258,0.152-0.551,0.228-0.881,0.228h-0.582c-0.33,0-0.623-0.076-0.88-0.228   c-0.258-0.152-0.462-0.376-0.614-0.671l-4.913-9.498c0.033,0.296,0.058,0.589,0.076,0.88c0.016,0.291,0.025,0.559,0.025,0.804   v10.612h-3.774V76.515h3.268c0.185,0,0.348,0,0.487,0c0.14,0,0.264,0.021,0.374,0.064c0.109,0.042,0.209,0.108,0.298,0.196   c0.088,0.088,0.175,0.213,0.259,0.374l4.749,9.368C139.324,86.838,139.487,87.172,139.643,87.518z"/>
	<path style="fill:#3264AF;" d="M162.24,94.953h-4.305V76.502h4.305V94.953z"/>
	<path style="fill:#3264AF;" d="M180.703,80.25c-0.127,0.203-0.259,0.355-0.398,0.456c-0.14,0.101-0.319,0.152-0.539,0.152   c-0.194,0-0.403-0.061-0.627-0.184c-0.224-0.122-0.477-0.259-0.76-0.411c-0.283-0.152-0.605-0.289-0.969-0.411   c-0.363-0.122-0.777-0.184-1.241-0.184c-0.802,0-1.4,0.171-1.792,0.513c-0.393,0.342-0.589,0.804-0.589,1.387   c0,0.372,0.118,0.68,0.354,0.924c0.237,0.245,0.546,0.456,0.931,0.633c0.384,0.177,0.823,0.34,1.317,0.488   c0.494,0.148,0.998,0.312,1.513,0.494c0.515,0.182,1.02,0.395,1.513,0.64c0.494,0.245,0.933,0.557,1.317,0.937   c0.385,0.38,0.694,0.842,0.931,1.387c0.236,0.545,0.354,1.201,0.354,1.969c0,0.853-0.147,1.651-0.443,2.395   c-0.295,0.743-0.724,1.391-1.285,1.944c-0.561,0.553-1.254,0.987-2.077,1.304c-0.823,0.317-1.758,0.475-2.805,0.475   c-0.575,0-1.159-0.059-1.754-0.177c-0.595-0.118-1.172-0.285-1.728-0.5c-0.557-0.215-1.081-0.471-1.571-0.767   c-0.489-0.295-0.916-0.624-1.279-0.987l1.266-2.002c0.093-0.151,0.224-0.274,0.393-0.367c0.169-0.092,0.35-0.139,0.544-0.139   c0.253,0,0.509,0.081,0.766,0.241c0.257,0.161,0.549,0.338,0.874,0.533c0.325,0.194,0.698,0.372,1.121,0.532   c0.422,0.16,0.92,0.24,1.495,0.24c0.776,0,1.38-0.171,1.81-0.513c0.431-0.341,0.646-0.884,0.646-1.627   c0-0.431-0.118-0.782-0.354-1.051c-0.237-0.27-0.547-0.494-0.931-0.672c-0.384-0.177-0.821-0.333-1.311-0.469   c-0.49-0.135-0.992-0.285-1.507-0.449c-0.515-0.165-1.018-0.367-1.507-0.608c-0.49-0.241-0.927-0.557-1.311-0.95   s-0.694-0.882-0.93-1.469c-0.237-0.587-0.355-1.311-0.355-2.172c0-0.692,0.14-1.368,0.418-2.026   c0.278-0.659,0.687-1.245,1.228-1.76c0.54-0.515,1.203-0.927,1.988-1.235s1.684-0.462,2.697-0.462c0.566,0,1.117,0.044,1.653,0.133   c0.536,0.088,1.045,0.219,1.526,0.393c0.481,0.173,0.93,0.38,1.349,0.62c0.418,0.241,0.791,0.513,1.12,0.817L180.703,80.25z"/>
	<path style="fill:#3264AF;" d="M199.294,80.25c-0.127,0.203-0.259,0.355-0.398,0.456c-0.14,0.101-0.319,0.152-0.539,0.152   c-0.194,0-0.403-0.061-0.627-0.184c-0.224-0.122-0.477-0.259-0.76-0.411c-0.283-0.152-0.606-0.289-0.969-0.411   c-0.363-0.122-0.777-0.184-1.241-0.184c-0.802,0-1.4,0.171-1.792,0.513c-0.393,0.342-0.589,0.804-0.589,1.387   c0,0.372,0.118,0.68,0.354,0.924c0.237,0.245,0.546,0.456,0.931,0.633c0.384,0.177,0.823,0.34,1.317,0.488   c0.494,0.148,0.998,0.312,1.513,0.494c0.515,0.182,1.02,0.395,1.513,0.64c0.494,0.245,0.933,0.557,1.317,0.937   c0.385,0.38,0.694,0.842,0.931,1.387c0.236,0.545,0.354,1.201,0.354,1.969c0,0.853-0.147,1.651-0.443,2.395   c-0.295,0.743-0.724,1.391-1.285,1.944c-0.562,0.553-1.254,0.987-2.077,1.304c-0.823,0.317-1.758,0.475-2.805,0.475   c-0.575,0-1.159-0.059-1.754-0.177c-0.595-0.118-1.172-0.285-1.728-0.5c-0.557-0.215-1.081-0.471-1.571-0.767   c-0.489-0.295-0.916-0.624-1.279-0.987l1.266-2.002c0.093-0.151,0.224-0.274,0.393-0.367c0.169-0.092,0.35-0.139,0.544-0.139   c0.253,0,0.509,0.081,0.766,0.241c0.257,0.161,0.549,0.338,0.874,0.533c0.325,0.194,0.698,0.372,1.121,0.532   c0.422,0.16,0.92,0.24,1.495,0.24c0.776,0,1.38-0.171,1.81-0.513c0.431-0.341,0.646-0.884,0.646-1.627   c0-0.431-0.118-0.782-0.354-1.051c-0.237-0.27-0.547-0.494-0.931-0.672c-0.384-0.177-0.821-0.333-1.311-0.469   c-0.49-0.135-0.992-0.285-1.507-0.449c-0.515-0.165-1.018-0.367-1.507-0.608c-0.49-0.241-0.927-0.557-1.311-0.95   s-0.694-0.882-0.93-1.469c-0.237-0.587-0.355-1.311-0.355-2.172c0-0.692,0.14-1.368,0.418-2.026   c0.278-0.659,0.687-1.245,1.228-1.76c0.54-0.515,1.203-0.927,1.988-1.235c0.785-0.308,1.684-0.462,2.697-0.462   c0.566,0,1.117,0.044,1.653,0.133c0.536,0.088,1.045,0.219,1.526,0.393c0.481,0.173,0.93,0.38,1.349,0.62   c0.418,0.241,0.791,0.513,1.12,0.817L199.294,80.25z"/>
	<path style="fill:#3264AF;" d="M212.489,94.953h-4.305V76.502h4.305V94.953z"/>
	<path style="fill:#3264AF;" d="M238.525,85.721c0,1.334-0.23,2.575-0.69,3.723c-0.46,1.148-1.108,2.147-1.944,2.995   c-0.836,0.848-1.843,1.513-3.02,1.994c-1.178,0.482-2.484,0.722-3.919,0.722c-1.435,0-2.744-0.24-3.926-0.722   c-1.182-0.481-2.193-1.146-3.033-1.994c-0.84-0.848-1.49-1.848-1.95-2.995c-0.46-1.148-0.69-2.389-0.69-3.723   c0-1.334,0.23-2.575,0.69-3.723c0.46-1.148,1.11-2.144,1.95-2.989c0.84-0.844,1.851-1.507,3.033-1.988   c1.181-0.481,2.49-0.722,3.926-0.722c1.435,0,2.741,0.243,3.919,0.728c1.177,0.485,2.184,1.15,3.02,1.994   c0.836,0.844,1.484,1.841,1.944,2.989C238.295,83.159,238.525,84.396,238.525,85.721z M234.143,85.721   c0-0.912-0.118-1.733-0.354-2.463c-0.237-0.73-0.576-1.349-1.019-1.855c-0.444-0.506-0.986-0.895-1.627-1.165   c-0.642-0.27-1.372-0.405-2.191-0.405c-0.828,0-1.564,0.135-2.21,0.405c-0.645,0.27-1.19,0.659-1.634,1.165   c-0.443,0.506-0.783,1.125-1.019,1.855c-0.237,0.73-0.355,1.551-0.355,2.463c0,0.92,0.118,1.746,0.355,2.475   c0.236,0.73,0.576,1.35,1.019,1.856c0.443,0.506,0.988,0.892,1.634,1.159c0.646,0.266,1.382,0.398,2.21,0.398   c0.819,0,1.549-0.133,2.191-0.398c0.641-0.267,1.184-0.652,1.627-1.159c0.443-0.506,0.782-1.126,1.019-1.856   C234.025,87.467,234.143,86.641,234.143,85.721z"/>
	<path style="fill:#3264AF;" d="M247.807,76.527c0.127,0.017,0.241,0.049,0.342,0.095c0.101,0.046,0.198,0.112,0.291,0.196   c0.093,0.085,0.199,0.199,0.317,0.342l8.763,11.081c-0.034-0.355-0.059-0.698-0.076-1.032c-0.017-0.333-0.026-0.648-0.026-0.943   v-9.764h3.774v18.451h-2.229c-0.329,0-0.608-0.051-0.836-0.152c-0.228-0.101-0.447-0.287-0.659-0.557l-8.7-10.992   c0.025,0.321,0.046,0.635,0.063,0.943c0.016,0.308,0.025,0.597,0.025,0.867v9.891h-3.774V76.502h2.254   C247.524,76.502,247.68,76.51,247.807,76.527z"/>
	<path style="fill:#3264AF;" d="M279.631,80.25c-0.127,0.203-0.259,0.355-0.398,0.456c-0.14,0.101-0.319,0.152-0.539,0.152   c-0.194,0-0.403-0.061-0.627-0.184c-0.224-0.122-0.477-0.259-0.76-0.411c-0.283-0.152-0.606-0.289-0.969-0.411   c-0.363-0.122-0.777-0.184-1.241-0.184c-0.802,0-1.4,0.171-1.792,0.513c-0.393,0.342-0.589,0.804-0.589,1.387   c0,0.372,0.118,0.68,0.354,0.924c0.237,0.245,0.546,0.456,0.931,0.633c0.384,0.177,0.823,0.34,1.317,0.488   c0.494,0.148,0.998,0.312,1.513,0.494c0.515,0.182,1.02,0.395,1.513,0.64c0.494,0.245,0.933,0.557,1.317,0.937   c0.385,0.38,0.694,0.842,0.931,1.387c0.236,0.545,0.354,1.201,0.354,1.969c0,0.853-0.147,1.651-0.443,2.395   c-0.295,0.743-0.724,1.391-1.285,1.944c-0.561,0.553-1.254,0.987-2.077,1.304c-0.823,0.317-1.758,0.475-2.805,0.475   c-0.575,0-1.159-0.059-1.754-0.177c-0.595-0.118-1.172-0.285-1.728-0.5c-0.557-0.215-1.081-0.471-1.571-0.767   c-0.489-0.295-0.916-0.624-1.279-0.987l1.266-2.002c0.093-0.151,0.224-0.274,0.393-0.367c0.169-0.092,0.35-0.139,0.544-0.139   c0.253,0,0.509,0.081,0.766,0.241c0.257,0.161,0.549,0.338,0.874,0.533c0.325,0.194,0.698,0.372,1.121,0.532   c0.422,0.16,0.92,0.24,1.494,0.24c0.776,0,1.38-0.171,1.81-0.513c0.431-0.341,0.646-0.884,0.646-1.627   c0-0.431-0.118-0.782-0.354-1.051c-0.237-0.27-0.547-0.494-0.931-0.672c-0.384-0.177-0.821-0.333-1.311-0.469   c-0.49-0.135-0.992-0.285-1.507-0.449c-0.515-0.165-1.018-0.367-1.507-0.608c-0.49-0.241-0.927-0.557-1.311-0.95   s-0.694-0.882-0.93-1.469c-0.237-0.587-0.355-1.311-0.355-2.172c0-0.692,0.14-1.368,0.418-2.026   c0.278-0.659,0.687-1.245,1.228-1.76c0.54-0.515,1.203-0.927,1.988-1.235c0.785-0.308,1.684-0.462,2.697-0.462   c0.566,0,1.117,0.044,1.653,0.133c0.536,0.088,1.044,0.219,1.526,0.393c0.481,0.173,0.93,0.38,1.349,0.62   c0.418,0.241,0.791,0.513,1.12,0.817L279.631,80.25z"/>
	<path style="fill:#3264AF;" d="M309.87,76.502v3.293h-7.573V84.1h5.8v3.166h-5.8v4.394h7.573v3.292h-11.879V76.502H309.87z"/>
	<path style="fill:#3264AF;" d="M330.461,76.502v3.394h-5.192v15.057h-4.28V79.896h-5.192v-3.394H330.461z"/>
	<path style="fill:#3264AF;" d="M341.326,88.128v6.826h-4.281V76.502h6.003c1.333,0,2.471,0.137,3.413,0.412   c0.941,0.274,1.709,0.656,2.304,1.146c0.595,0.49,1.028,1.068,1.298,1.735c0.27,0.667,0.405,1.393,0.405,2.178   c0,0.6-0.08,1.165-0.24,1.697c-0.16,0.532-0.399,1.024-0.716,1.475c-0.317,0.452-0.705,0.855-1.165,1.21   c-0.46,0.354-0.99,0.646-1.589,0.874c0.287,0.144,0.555,0.321,0.804,0.532c0.249,0.211,0.467,0.468,0.652,0.772l3.926,6.421h-3.875   c-0.718,0-1.232-0.27-1.545-0.811l-3.065-5.357c-0.135-0.236-0.293-0.404-0.475-0.506c-0.182-0.101-0.437-0.151-0.766-0.151   H341.326z M341.326,85.177h1.722c0.582,0,1.078-0.074,1.488-0.222c0.409-0.148,0.745-0.352,1.007-0.614   c0.262-0.261,0.452-0.568,0.57-0.918c0.118-0.35,0.177-0.728,0.177-1.134c0-0.81-0.264-1.444-0.791-1.899   c-0.528-0.456-1.345-0.684-2.45-0.684h-1.722V85.177z"/>
	<path style="fill:#3264AF;" d="M375.518,94.953H372.2c-0.372,0-0.677-0.087-0.918-0.259c-0.241-0.173-0.407-0.395-0.5-0.665   l-1.089-3.217h-7.015l-1.089,3.217c-0.085,0.236-0.249,0.449-0.494,0.639c-0.245,0.19-0.544,0.285-0.899,0.285h-3.343l7.142-18.451   h4.381L375.518,94.953z M363.665,87.899h5.04l-1.697-5.053c-0.11-0.321-0.239-0.698-0.387-1.133   c-0.147-0.435-0.293-0.906-0.437-1.412c-0.135,0.515-0.274,0.992-0.418,1.431c-0.144,0.439-0.279,0.819-0.405,1.14L363.665,87.899z   "/>
	<path style="fill:#3264AF;" d="M384.496,76.527c0.127,0.017,0.241,0.049,0.342,0.095c0.101,0.046,0.198,0.112,0.291,0.196   c0.093,0.085,0.199,0.199,0.317,0.342l8.763,11.081c-0.034-0.355-0.059-0.698-0.076-1.032c-0.017-0.333-0.025-0.648-0.025-0.943   v-9.764h3.774v18.451h-2.229c-0.329,0-0.608-0.051-0.836-0.152c-0.228-0.101-0.447-0.287-0.659-0.557l-8.7-10.992   c0.025,0.321,0.046,0.635,0.063,0.943c0.017,0.308,0.025,0.597,0.025,0.867v9.891h-3.774V76.502h2.254   C384.213,76.502,384.369,76.51,384.496,76.527z"/>
	<path style="fill:#3264AF;" d="M414.521,91.863c0.591,0,1.115-0.05,1.571-0.151c0.456-0.102,0.886-0.237,1.292-0.405v-2.799h-1.823   c-0.27,0-0.482-0.072-0.634-0.216c-0.151-0.143-0.228-0.324-0.228-0.544v-2.355h6.56v7.788c-0.473,0.347-0.965,0.644-1.475,0.893   s-1.056,0.454-1.634,0.614c-0.578,0.16-1.195,0.278-1.849,0.354c-0.654,0.076-1.357,0.114-2.108,0.114   c-1.351,0-2.6-0.238-3.749-0.715c-1.148-0.477-2.142-1.135-2.982-1.976s-1.499-1.837-1.976-2.989   c-0.477-1.153-0.715-2.404-0.715-3.755c0-1.376,0.228-2.64,0.683-3.793c0.456-1.152,1.109-2.146,1.957-2.982   c0.848-0.836,1.874-1.486,3.077-1.95c1.203-0.464,2.547-0.697,4.033-0.697c0.769,0,1.49,0.063,2.166,0.19   c0.675,0.127,1.298,0.3,1.867,0.52c0.57,0.22,1.091,0.481,1.564,0.785c0.473,0.304,0.895,0.633,1.266,0.988l-1.241,1.887   c-0.118,0.177-0.26,0.317-0.425,0.418c-0.164,0.101-0.344,0.152-0.538,0.152c-0.253,0-0.515-0.084-0.785-0.253   c-0.338-0.203-0.656-0.378-0.956-0.525c-0.3-0.148-0.606-0.268-0.919-0.361c-0.312-0.093-0.641-0.16-0.987-0.203   s-0.735-0.063-1.165-0.063c-0.802,0-1.524,0.141-2.165,0.424c-0.642,0.283-1.189,0.682-1.64,1.197   c-0.451,0.515-0.8,1.133-1.045,1.855c-0.245,0.722-0.367,1.526-0.367,2.412c0,0.979,0.135,1.849,0.405,2.609   c0.27,0.759,0.644,1.402,1.121,1.925c0.477,0.523,1.042,0.922,1.697,1.197C413.029,91.726,413.745,91.863,414.521,91.863z"/>
	<path style="fill:#3264AF;" d="M440.81,76.502v3.293h-7.572V84.1h5.8v3.166h-5.8v4.394h7.572v3.292h-11.879V76.502H440.81z"/>
	<path style="fill:#3264AF;" d="M452.486,88.128v6.826h-4.281V76.502h6.003c1.334,0,2.471,0.137,3.413,0.412   c0.941,0.274,1.709,0.656,2.304,1.146c0.595,0.49,1.028,1.068,1.298,1.735c0.27,0.667,0.405,1.393,0.405,2.178   c0,0.6-0.08,1.165-0.24,1.697c-0.16,0.532-0.399,1.024-0.716,1.475c-0.316,0.452-0.705,0.855-1.165,1.21   c-0.46,0.354-0.99,0.646-1.59,0.874c0.287,0.144,0.555,0.321,0.804,0.532c0.249,0.211,0.467,0.468,0.652,0.772l3.926,6.421h-3.875   c-0.718,0-1.232-0.27-1.545-0.811l-3.065-5.357c-0.135-0.236-0.293-0.404-0.475-0.506c-0.182-0.101-0.437-0.151-0.766-0.151   H452.486z M452.486,85.177h1.722c0.582,0,1.078-0.074,1.488-0.222c0.409-0.148,0.745-0.352,1.007-0.614   c0.262-0.261,0.452-0.568,0.57-0.918c0.118-0.35,0.177-0.728,0.177-1.134c0-0.81-0.264-1.444-0.791-1.899   c-0.528-0.456-1.345-0.684-2.45-0.684h-1.722V85.177z"/>
	<path style="fill:#3264AF;" d="M481.789,76.502v3.293h-7.572V84.1h5.8v3.166h-5.8v4.394h7.572v3.292H469.91V76.502H481.789z"/>
	<path style="fill:#3264AF;" d="M499.467,80.25c-0.127,0.203-0.259,0.355-0.398,0.456c-0.14,0.101-0.319,0.152-0.539,0.152   c-0.194,0-0.403-0.061-0.627-0.184c-0.224-0.122-0.477-0.259-0.76-0.411c-0.283-0.152-0.605-0.289-0.969-0.411   c-0.363-0.122-0.777-0.184-1.241-0.184c-0.802,0-1.4,0.171-1.792,0.513c-0.393,0.342-0.589,0.804-0.589,1.387   c0,0.372,0.118,0.68,0.354,0.924c0.237,0.245,0.546,0.456,0.931,0.633c0.384,0.177,0.823,0.34,1.317,0.488   c0.494,0.148,0.998,0.312,1.513,0.494c0.515,0.182,1.02,0.395,1.513,0.64c0.494,0.245,0.933,0.557,1.317,0.937   c0.385,0.38,0.694,0.842,0.931,1.387c0.236,0.545,0.354,1.201,0.354,1.969c0,0.853-0.147,1.651-0.443,2.395   c-0.295,0.743-0.724,1.391-1.285,1.944c-0.561,0.553-1.254,0.987-2.077,1.304c-0.823,0.317-1.758,0.475-2.805,0.475   c-0.575,0-1.159-0.059-1.754-0.177c-0.595-0.118-1.172-0.285-1.728-0.5c-0.557-0.215-1.081-0.471-1.571-0.767   c-0.489-0.295-0.916-0.624-1.278-0.987l1.266-2.002c0.093-0.151,0.224-0.274,0.393-0.367c0.169-0.092,0.35-0.139,0.544-0.139   c0.253,0,0.509,0.081,0.766,0.241c0.257,0.161,0.549,0.338,0.874,0.533c0.325,0.194,0.698,0.372,1.121,0.532   c0.422,0.16,0.92,0.24,1.495,0.24c0.776,0,1.38-0.171,1.81-0.513c0.431-0.341,0.646-0.884,0.646-1.627   c0-0.431-0.118-0.782-0.354-1.051c-0.237-0.27-0.547-0.494-0.931-0.672c-0.384-0.177-0.821-0.333-1.311-0.469   c-0.49-0.135-0.992-0.285-1.507-0.449c-0.515-0.165-1.018-0.367-1.507-0.608c-0.49-0.241-0.927-0.557-1.311-0.95   c-0.384-0.393-0.694-0.882-0.93-1.469c-0.237-0.587-0.355-1.311-0.355-2.172c0-0.692,0.14-1.368,0.418-2.026   c0.278-0.659,0.687-1.245,1.228-1.76c0.54-0.515,1.203-0.927,1.988-1.235c0.785-0.308,1.684-0.462,2.697-0.462   c0.566,0,1.117,0.044,1.653,0.133c0.536,0.088,1.045,0.219,1.526,0.393c0.481,0.173,0.93,0.38,1.349,0.62   c0.418,0.241,0.791,0.513,1.12,0.817L499.467,80.25z"/>
	<path style="fill:#3264AF;" d="M146.133,117.485c0,1.359-0.215,2.596-0.646,3.71c-0.431,1.115-1.038,2.068-1.823,2.862   c-0.785,0.794-1.726,1.408-2.824,1.843c-1.098,0.435-2.313,0.652-3.647,0.652h-6.788v-18.147h6.788   c1.334,0,2.549,0.217,3.647,0.652c1.097,0.435,2.039,1.051,2.824,1.849c0.785,0.798,1.393,1.754,1.823,2.869   C145.917,114.889,146.133,116.126,146.133,117.485z M143.612,117.485c0-1.115-0.151-2.11-0.456-2.988   c-0.304-0.878-0.735-1.621-1.292-2.229c-0.557-0.608-1.233-1.072-2.026-1.393c-0.793-0.321-1.676-0.481-2.646-0.481h-4.318v14.171   h4.318c0.97,0,1.853-0.16,2.646-0.482c0.793-0.321,1.469-0.783,2.026-1.386c0.557-0.604,0.987-1.345,1.292-2.223   C143.461,119.596,143.612,118.599,143.612,117.485z"/>
	<path style="fill:#3264AF;" d="M164.305,108.405v2.001h-8.713v6.028h7.054v1.925h-7.054v6.192h8.713v2.001h-11.182v-18.147H164.305   z"/>
	<path style="fill:#3264AF;" d="M185.528,119.765v6.787h-2.444v-18.147h5.357c1.148,0,2.147,0.134,2.995,0.399   c0.848,0.266,1.551,0.644,2.108,1.133c0.557,0.49,0.973,1.081,1.248,1.773c0.274,0.692,0.411,1.465,0.411,2.318   c0,0.844-0.148,1.616-0.443,2.318c-0.296,0.7-0.729,1.304-1.298,1.81c-0.57,0.506-1.277,0.901-2.121,1.184   c-0.844,0.283-1.811,0.425-2.9,0.425H185.528z M185.528,117.814h2.913c0.701,0,1.319-0.092,1.855-0.279   c0.536-0.185,0.986-0.445,1.349-0.778c0.363-0.334,0.638-0.733,0.824-1.197c0.185-0.464,0.278-0.975,0.278-1.532   c0-1.157-0.356-2.06-1.07-2.71c-0.714-0.65-1.792-0.975-3.235-0.975h-2.913V117.814z"/>
	<path style="fill:#3264AF;" d="M215.617,126.552h-1.899c-0.219,0-0.397-0.055-0.532-0.164c-0.136-0.11-0.237-0.249-0.304-0.418   l-1.697-4.381h-8.143l-1.697,4.381c-0.059,0.152-0.16,0.288-0.303,0.405c-0.144,0.118-0.321,0.177-0.532,0.177h-1.9l7.256-18.147   h2.495L215.617,126.552z M203.726,119.815h6.775l-2.849-7.383c-0.186-0.456-0.367-1.026-0.544-1.71   c-0.093,0.346-0.184,0.665-0.272,0.956c-0.089,0.291-0.175,0.546-0.259,0.766L203.726,119.815z"/>
	<path style="fill:#3264AF;" d="M225.57,118.98v7.572h-2.444v-18.147h5.129c1.148,0,2.14,0.116,2.976,0.348   c0.835,0.233,1.526,0.568,2.07,1.007c0.544,0.439,0.947,0.968,1.209,1.589c0.262,0.621,0.393,1.315,0.393,2.084   c0,0.641-0.101,1.241-0.304,1.798c-0.202,0.557-0.496,1.058-0.88,1.501c-0.384,0.443-0.853,0.821-1.406,1.133   c-0.553,0.312-1.179,0.549-1.881,0.709c0.304,0.177,0.575,0.435,0.811,0.772l5.294,7.206h-2.178c-0.448,0-0.777-0.173-0.988-0.52   l-4.711-6.483c-0.144-0.203-0.3-0.348-0.469-0.437c-0.169-0.089-0.422-0.133-0.76-0.133H225.57z M225.57,117.194h2.571   c0.718,0,1.349-0.087,1.894-0.26c0.544-0.173,1-0.418,1.367-0.734c0.367-0.317,0.644-0.694,0.83-1.133   c0.185-0.439,0.279-0.925,0.279-1.457c0-1.08-0.357-1.895-1.071-2.444c-0.713-0.548-1.775-0.823-3.184-0.823h-2.685V117.194z"/>
	<path style="fill:#3264AF;" d="M245.92,126.552h-2.456v-18.147h2.456V126.552z"/>
	<path style="fill:#3264AF;" d="M265.143,111.242c-0.076,0.127-0.157,0.222-0.241,0.285c-0.085,0.063-0.194,0.095-0.33,0.095   c-0.143,0-0.31-0.072-0.5-0.215c-0.191-0.143-0.431-0.301-0.722-0.475c-0.292-0.173-0.642-0.331-1.051-0.475   c-0.409-0.144-0.906-0.215-1.488-0.215c-0.549,0-1.035,0.074-1.457,0.222c-0.422,0.148-0.775,0.348-1.058,0.601   c-0.283,0.253-0.496,0.551-0.639,0.893c-0.144,0.342-0.215,0.711-0.215,1.108c0,0.506,0.125,0.927,0.374,1.26   c0.249,0.334,0.578,0.619,0.988,0.855c0.409,0.237,0.873,0.442,1.393,0.614c0.52,0.173,1.051,0.352,1.596,0.538   c0.544,0.186,1.076,0.395,1.596,0.627c0.519,0.233,0.983,0.526,1.393,0.88c0.409,0.354,0.739,0.79,0.988,1.305   c0.248,0.515,0.374,1.148,0.374,1.899c0,0.794-0.136,1.539-0.405,2.236c-0.27,0.696-0.665,1.302-1.184,1.817   c-0.52,0.515-1.157,0.92-1.912,1.215c-0.755,0.296-1.615,0.443-2.577,0.443c-1.174,0-2.244-0.213-3.211-0.639   c-0.967-0.426-1.792-1.003-2.476-1.728l0.709-1.165c0.067-0.093,0.15-0.171,0.247-0.235c0.097-0.063,0.204-0.095,0.323-0.095   c0.178,0,0.38,0.095,0.608,0.285c0.228,0.19,0.513,0.399,0.855,0.627c0.342,0.228,0.756,0.437,1.241,0.627   c0.486,0.19,1.079,0.285,1.779,0.285c0.583,0,1.102-0.08,1.558-0.24c0.455-0.16,0.842-0.387,1.159-0.678   c0.317-0.291,0.559-0.639,0.728-1.045c0.169-0.405,0.253-0.857,0.253-1.355c0-0.549-0.125-0.998-0.374-1.349   c-0.249-0.35-0.576-0.644-0.981-0.88c-0.405-0.237-0.868-0.437-1.387-0.602c-0.52-0.164-1.051-0.333-1.596-0.506   c-0.545-0.173-1.077-0.374-1.596-0.601c-0.52-0.228-0.981-0.524-1.386-0.886c-0.405-0.363-0.733-0.817-0.982-1.362   c-0.249-0.544-0.374-1.217-0.374-2.02c0-0.641,0.125-1.262,0.374-1.861c0.249-0.599,0.61-1.131,1.083-1.596   s1.058-0.836,1.754-1.115c0.696-0.279,1.496-0.418,2.399-0.418c1.014,0,1.938,0.16,2.774,0.481   c0.835,0.321,1.566,0.785,2.191,1.393L265.143,111.242z"/>
</g>
</svg>