<?xml version="1.0" encoding="UTF-8" standalone="no"?>
<!-- Created with Inkscape (http://www.inkscape.org/) -->

<svg
   xmlns:dc="http://purl.org/dc/elements/1.1/"
   xmlns:cc="http://creativecommons.org/ns#"
   xmlns:rdf="http://www.w3.org/1999/02/22-rdf-syntax-ns#"
   xmlns:svg="http://www.w3.org/2000/svg"
   xmlns="http://www.w3.org/2000/svg"
   xmlns:sodipodi="http://sodipodi.sourceforge.net/DTD/sodipodi-0.dtd"
   xmlns:inkscape="http://www.inkscape.org/namespaces/inkscape"
   width="73.221512mm"
   height="61.959957mm"
   viewBox="0 0 73.221513 61.959957"
   version="1.1"
   id="svg8"
   inkscape:version="0.92.5 (2060ec1f9f, 2020-04-08)">
  <defs
     id="defs2" />
  <sodipodi:namedview
     id="base"
     pagecolor="#ffffff"
     bordercolor="#666666"
     borderopacity="1.0"
     inkscape:pageopacity="0.0"
     inkscape:pageshadow="2"
     inkscape:zoom="0.98994949"
     inkscape:cx="445.10904"
     inkscape:cy="87.572717"
     inkscape:document-units="mm"
     inkscape:current-layer="layer1"
     showgrid="false"
     fit-margin-top="0.5"
     fit-margin-left="1"
     fit-margin-right="0"
     fit-margin-bottom="0"
     inkscape:window-width="1362"
     inkscape:window-height="695"
     inkscape:window-x="0"
     inkscape:window-y="0"
     inkscape:window-maximized="1" />
  <metadata
     id="metadata5">
    <rdf:RDF>
      <cc:Work
         rdf:about="">
        <dc:format>image/svg+xml</dc:format>
        <dc:type
           rdf:resource="http://purl.org/dc/dcmitype/StillImage" />
        <dc:title></dc:title>
      </cc:Work>
    </rdf:RDF>
  </metadata>
  <g
     inkscape:label="Layer 1"
     inkscape:groupmode="layer"
     id="layer1"
     transform="translate(-76.944342,-120.87035)">
    <path
       style="fill:#d34949;stroke-width:0.26458335"
       d="m 98.708484,182.40105 c -0.873125,-0.22659 -1.91715,-0.64441 -2.320055,-0.92851 -0.679913,-0.47941 -0.72813,-0.63382 -0.670967,-2.14864 0.06795,-1.80073 -0.656061,-4.14564 -1.280007,-4.14564 -0.199474,0 -0.621487,-0.29766 -0.93781,-0.66146 -0.66889,-0.76929 -1.052754,-0.81826 -1.926478,-0.24578 -0.782778,0.5129 -1.648788,0.1492 -1.775892,-0.74583 -0.07037,-0.49555 -0.27397,-0.60959 -1.209103,-0.67725 -0.618464,-0.0447 -1.12448,-0.19517 -1.12448,-0.33428 0,-0.13911 -0.435261,-0.0711 -0.967247,0.15122 -0.863876,0.36095 -1.014555,0.36133 -1.409896,0.004 -0.479047,-0.43353 -0.952522,-0.51829 -1.129319,-0.20216 -0.06104,0.10914 -0.07096,0.0399 -0.02205,-0.15393 0.04891,-0.1938 0.112585,-1.38442 0.1415,-2.64583 l 0.05257,-2.29347 0.09131,1.91823 c 0.0688,1.44535 0.184677,1.91823 0.470046,1.91823 0.297221,0 0.323199,-0.14607 0.1207,-0.67868 -0.313301,-0.82404 -0.322228,-0.97972 -0.04641,-0.80925 0.116395,0.0719 0.347399,-0.0866 0.513343,-0.35234 0.231328,-0.37041 0.218712,-0.59663 -0.05408,-0.96969 -0.304877,-0.41695 -0.283681,-0.58785 0.148116,-1.19426 0.707232,-0.99321 0.644982,-1.0932 -0.554425,-0.89056 -1.0023,0.16934 -1.058333,0.14346 -1.058333,-0.48869 0,-0.36712 -0.116116,-0.9729 -0.258035,-1.34617 -0.167657,-0.44098 -0.167657,-0.67868 0,-0.67868 0.141919,0 0.258035,0.12756 0.258035,0.28348 0,0.15591 0.186919,0.0966 0.415376,-0.1319 0.228457,-0.22845 0.703885,-0.48779 1.056505,-0.57629 0.724565,-0.18185 0.613858,-0.63363 -0.15527,-0.63363 -0.277334,0 -0.631684,-0.23812 -0.787444,-0.52916 -0.44907,-0.8391 -1.053126,-0.65641 -1.093528,0.33072 -0.01936,0.47295 -0.132293,-0.0573 -0.25097,-1.17823 -0.132464,-1.25119 -0.476426,-2.5891 -0.890848,-3.46511 -0.371289,-0.78484 -0.675071,-1.82441 -0.675071,-2.31014 0,-1.41654 -0.815037,-4.01829 -1.560841,-4.9825 -0.378465,-0.4893 -0.84103,-1.09866 -1.027922,-1.35413 -0.545053,-0.74506 -0.879868,-3.46969 -0.605397,-4.92655 0.149577,-0.79395 0.149346,-1.33054 -6.09e-4,-1.38455 -0.338478,-0.12194 -0.309213,-0.83785 0.03426,-0.83785 0.153492,0 1.068709,0.47625 2.033816,1.05833 0.965108,0.58209 1.933178,1.05834 2.151268,1.05834 0.218089,0 0.666816,0.25392 0.997169,0.56427 0.468489,0.44013 1.141698,0.61989 3.059761,0.81706 3.197187,0.32864 3.208646,0.33043 3.576082,0.55752 0.367745,0.22728 1.635572,-0.0348 2.154508,-0.4454 0.273025,-0.21602 0.476891,-0.14261 0.836161,0.30107 0.261308,0.3227 0.695272,0.58673 0.964364,0.58673 0.269089,0 0.645208,0.24972 0.835816,0.55493 0.190609,0.30521 0.414809,0.48668 0.498224,0.40327 0.08342,-0.0834 0.0011,-0.33313 -0.18302,-0.55493 -0.267256,-0.32203 -0.268325,-0.48323 -0.0053,-0.80015 0.181158,-0.21828 0.507971,-0.39687 0.726253,-0.39687 0.310419,0 0.329821,0.0808 0.08906,0.37089 -0.241488,0.29097 -0.128503,0.70232 0.524353,1.90903 0.507537,0.93812 0.718191,1.57614 0.539999,1.63554 -0.160681,0.0536 -0.292158,0.26606 -0.292158,0.47221 0,0.20616 -0.105812,0.37483 -0.235138,0.37483 -0.129326,0 -0.313314,0.41672 -0.408863,0.92604 -0.09555,0.50932 -0.279908,0.92604 -0.409686,0.92604 -0.129778,0 -0.168336,-0.41672 -0.08569,-0.92604 0.211093,-1.3008 -0.05697,-1.15153 -0.554553,0.3088 -0.231413,0.67916 -0.587952,1.4233 -0.792311,1.65364 -0.66167,0.74581 -1.747096,2.8869 -1.747096,3.44629 0,0.30752 0.172688,0.54439 0.396875,0.54439 0.457913,0 0.538109,-0.43799 0.106536,-0.58184 -0.367519,-0.12251 0.648936,-2.18314 1.57279,-3.18847 0.36775,-0.40018 0.884484,-0.7276 1.1483,-0.7276 0.327961,0 0.479665,-0.19792 0.479665,-0.62578 0,-0.58171 0.816885,-1.90509 1.446088,-2.34271 0.183645,-0.12773 0.159597,-0.37442 -0.07309,-0.74974 -0.314159,-0.50674 -0.301824,-0.53422 0.13104,-0.29197 0.26281,0.14707 0.603514,0.78211 0.757121,1.4112 0.253651,1.03882 0.229481,1.16868 -0.263332,1.415 -0.716169,0.35795 -0.81965,1.27062 -0.274354,2.41974 0.41107,0.86627 0.407413,1.78998 -0.01291,3.26217 -0.06673,0.23373 0.156596,0.5226 0.543274,0.70271 0.524365,0.24425 0.656585,0.23452 0.656585,-0.0483 0,-0.19478 0.24901,-0.43318 0.553355,-0.52978 0.42094,-0.1336 0.51142,-0.31198 0.3781,-0.74543 -0.698862,-2.27223 -0.743429,-2.60793 -0.376338,-2.83481 0.301945,-0.18661 0.279072,-0.29293 -0.126884,-0.58977 -0.410337,-0.30005 -0.443036,-0.45965 -0.190746,-0.93106 0.167468,-0.31292 0.228778,-0.87058 0.136245,-1.23926 -0.09253,-0.36868 -0.0523,-0.81761 0.08941,-0.99762 0.141703,-0.18001 0.335862,-0.65471 0.431459,-1.05489 0.0956,-0.40019 0.260844,-0.72943 0.367214,-0.73166 0.10637,-0.002 0.3699,-0.11566 0.58562,-0.25206 0.32733,-0.20697 0.26304,-0.38285 -0.38851,-1.06293 -0.42941,-0.44821 -0.792567,-1.08493 -0.807014,-1.41495 -0.02987,-0.68226 -0.314745,-1.23476 -0.636666,-1.23476 -0.317723,0 -0.537208,1.03156 -0.256411,1.2051 0.131077,0.081 0.370039,0.3934 0.531024,0.69421 0.290309,0.54245 0.287216,0.54287 -0.378039,0.0514 -0.368909,-0.27253 -0.743236,-0.77479 -0.831839,-1.11613 -0.186439,-0.71825 0.30771,-1.45228 0.840136,-1.24797 0.621432,0.23847 0.713785,-0.64034 0.124939,-1.18893 -0.303652,-0.2829 -0.676135,-0.51436 -0.827741,-0.51436 -0.151603,0 -0.275645,-0.17859 -0.275645,-0.39687 0,-0.21828 -0.127085,-0.39688 -0.282414,-0.39688 -0.306171,0 -0.08635,1.01547 0.31215,1.44198 0.360791,0.38615 0.278641,0.74811 -0.133863,0.58982 -0.20279,-0.0778 -0.640263,0.14757 -0.972161,0.50086 l -0.603454,0.64234 h 0.570246 c 0.395253,0 0.612391,0.20299 0.70758,0.66146 0.423564,2.04008 0.457811,2.12945 0.633945,1.65418 0.15432,-0.41641 0.243572,-0.39557 0.895725,0.20915 0.759892,0.7046 0.867112,1.07349 0.486606,1.67415 -0.187865,0.29656 -0.275217,0.28099 -0.480364,-0.0856 -0.137909,-0.24643 -0.538774,-0.59092 -0.890807,-0.76553 -0.500425,-0.24822 -0.657815,-0.56146 -0.721424,-1.43577 -0.05045,-0.6935 -0.210759,-1.1183 -0.422013,-1.1183 -0.187359,0 -0.545901,-0.22679 -0.796758,-0.50398 -0.432813,-0.47826 -0.427842,-0.55939 0.09736,-1.58888 0.353663,-0.69324 0.516424,-1.42104 0.450855,-2.01604 -0.09726,-0.88255 0.338005,-1.63073 0.560456,-0.96338 0.0574,0.1722 0.213255,0.24578 0.346345,0.16353 0.133091,-0.0823 0.241986,-0.0235 0.241986,0.13064 0,0.15411 0.170283,0.2802 0.378404,0.2802 0.295188,0 0.328023,-0.17569 0.149299,-0.79886 -0.129214,-0.45054 -0.129132,-0.73706 1.85e-4,-0.65714 0.473649,0.29273 0.562843,-0.45487 0.156446,-1.31129 -0.231918,-0.48873 -0.354865,-1.06269 -0.273212,-1.27547 0.215964,-0.5628 -0.714629,-0.849 -1.015047,-0.31218 -0.194683,0.34788 -0.359442,0.19331 -0.870974,-0.81709 -0.34698,-0.68537 -0.566767,-1.34986 -0.488413,-1.47664 0.07835,-0.12677 0.01637,-0.2305 -0.137739,-0.2305 -0.15411,0 -0.280199,-0.12609 -0.280199,-0.2802 0,-0.15411 0.119062,-0.20661 0.264583,-0.11667 0.145521,0.0899 0.264583,-0.0221 0.264583,-0.24897 0,-0.28816 0.259199,-0.41371 0.859896,-0.41654 0.681006,-0.003 0.777333,-0.0627 0.463021,-0.28599 -0.305602,-0.21709 -0.229542,-0.24543 0.330729,-0.1232 1.026359,0.22391 0.9037,-0.0153 -0.330729,-0.6451 -0.582083,-0.29695 -1.058333,-0.65656 -1.058333,-0.79912 0,-0.14257 -0.137589,-0.25921 -0.305755,-0.25921 -0.168164,0 -0.682369,-0.28726 -1.142672,-0.63835 -1.273911,-0.97166 -2.864254,-1.29772 -5.298448,-1.08633 -1.164167,0.10109 -2.057136,0.12385 -1.984375,0.0506 0.07276,-0.0733 1.138583,-0.3901 2.368495,-0.70404 1.229912,-0.31393 2.477413,-0.69988 2.772224,-0.85766 0.490846,-0.26269 0.496917,-0.30058 0.07204,-0.44962 -0.341152,-0.11967 0.370268,-0.67598 2.687423,-2.10148 1.922413,-1.18266 3.266692,-2.19176 3.447032,-2.58757 0.162599,-0.35686 0.70639,-0.82046 1.208426,-1.03023 1.09755,-0.45858 1.94755,-0.20988 3.04979,0.89237 0.62019,0.62019 0.67911,0.7853 0.35352,0.99068 -0.22975,0.14492 -0.47063,0.90033 -0.58468,1.83355 -0.20487,1.67642 -0.66535,2.72081 -1.71117,3.88106 -0.7425,0.82375 -2.556601,1.80706 -3.333812,1.80706 -0.82227,0 -0.647526,0.41262 0.452479,1.06843 0.613262,0.36562 1.376762,0.5782 1.999173,0.55663 0.58679,-0.0204 0.94121,0.0715 0.84936,0.22014 -0.1007,0.16292 8.46819,0.25947 23.72235,0.26728 13.13399,0.007 23.95122,0.0997 24.03829,0.20665 0.0871,0.10693 0.0912,8.76691 0.009,19.24441 -0.11081,14.15716 -0.0709,19.15194 0.15533,19.44688 0.50502,0.65837 0.88666,2.41517 0.62917,2.89629 -0.13849,0.25878 -0.13568,0.59685 0.007,0.82213 0.13314,0.21044 0.2439,0.47192 0.24613,0.58106 0.002,0.10914 -4.3026,0.19844 -9.56627,0.19844 -8.721,0 -9.61544,0.0408 -10.07883,0.4602 -0.31998,0.28958 -1.01441,0.48142 -1.87292,0.51743 -2.62992,0.11028 -3.62542,0.27406 -4.08047,0.67134 -0.2524,0.22037 -0.93517,0.48382 -1.51726,0.58545 -0.58208,0.10163 -1.67741,0.53106 -2.43407,0.9543 -1.75915,0.98397 -3.27388,1.24634 -4.05139,0.70175 -0.5231,-0.36639 -0.65449,-0.35723 -1.42891,0.0997 -0.46905,0.27675 -1.49341,0.62466 -2.27636,0.77315 -0.78294,0.14848 -1.5118,0.41278 -1.61968,0.58734 -0.13749,0.22246 -0.39497,0.10284 -0.86096,-0.39997 -0.7133,-0.76966 -1.33262,-0.87707 -4.26196,-0.73919 -0.87312,0.0411 -1.76648,0.23328 -1.98523,0.42708 -0.48112,0.42623 -3.20024,1.71288 -3.57102,1.68976 -0.14552,-0.009 -0.978957,-0.20188 -1.852082,-0.42846 z m -3.836458,-21.51029 c 0,-0.14552 -0.0525,-0.26459 -0.116676,-0.26459 -0.06417,0 -0.190262,0.11907 -0.280199,0.26459 -0.08994,0.14552 -0.03743,0.26458 0.116676,0.26458 0.154109,0 0.280199,-0.11906 0.280199,-0.26458 z m 2.295702,-0.59531 c 0.674391,-0.74921 0.931709,-1.45774 0.60316,-1.66079 -0.139166,-0.086 -0.253029,-0.0157 -0.253029,0.15621 0,0.22724 -0.113017,0.2188 -0.413885,-0.0309 -0.275273,-0.22846 -0.358309,-0.56492 -0.247944,-1.00465 0.148273,-0.59077 0.119491,-0.6226 -0.270383,-0.29904 -0.285363,0.23684 -0.388662,0.60041 -0.298571,1.05086 0.07576,0.3788 0.03929,0.84804 -0.08104,1.04275 -0.321561,0.5203 -0.821732,-0.52176 -0.620252,-1.29222 0.144052,-0.55086 0.107934,-0.57549 -0.425405,-0.29006 -0.716889,0.38367 -0.923475,0.87744 -0.714862,1.70862 0.113752,0.45323 0.298625,0.60007 0.642332,0.51018 0.265432,-0.0694 0.637696,0.0607 0.827249,0.28907 0.45581,0.54922 0.617066,0.52604 1.252635,-0.18004 z m -2.560286,-3.63803 c 0,-0.14552 -0.0525,-0.26458 -0.116676,-0.26458 -0.06417,0 -0.190261,0.11906 -0.280199,0.26458 -0.08994,0.14553 -0.03743,0.26459 0.116676,0.26459 0.15411,0 0.280199,-0.11906 0.280199,-0.26459 z m 6.614588,-2.23334 c 0,-0.35521 -0.12485,-0.723 -0.27744,-0.8173 -0.19071,-0.11787 -0.18359,-0.28453 0.0228,-0.53319 0.16512,-0.19896 0.22341,-0.48601 0.12953,-0.63791 -0.49129,-0.79491 -0.7925,0.21938 -0.52692,1.77435 0.17118,1.0023 0.65205,1.16015 0.65205,0.21405 z M 94.617981,141.192 c -0.338905,-0.40836 -0.142661,-1.46791 0.271875,-1.46791 0.135713,0 0.246753,0.29766 0.246753,0.66146 0,0.3638 0.119063,0.66146 0.264583,0.66146 0.145521,0 0.264584,0.11906 0.264584,0.26458 0,0.39662 -0.684192,0.31852 -1.047795,-0.11959 z m -1.664184,-0.44003 c -0.704531,-0.52563 -0.99202,-1.62698 -0.503509,-1.9289 0.123252,-0.0762 0.562247,0.21446 0.975543,0.64585 0.413296,0.43138 0.602087,0.78434 0.419532,0.78434 -0.211508,0 -0.270986,0.19196 -0.163962,0.52916 0.20551,0.6475 0.179623,0.64642 -0.727604,-0.0305 z m 2.426506,-1.49093 c -0.01148,-0.40018 -0.08094,-0.57878 -0.154339,-0.39687 -0.156517,0.38788 -0.883105,0.44914 -0.883105,0.0744 0,-0.14095 -0.178594,-0.18774 -0.396875,-0.10398 -0.218281,0.0838 -0.392914,0.0503 -0.388072,-0.0744 0.01265,-0.32553 0.96058,-1.41847 1.224232,-1.41149 0.398952,0.0106 1.561378,1.04042 1.181288,1.04657 -0.262525,0.004 -0.319609,0.22685 -0.205052,0.79963 0.08955,0.44776 0.0463,0.79375 -0.09922,0.79375 -0.141883,0 -0.267369,-0.32742 -0.278858,-0.7276 z"
       id="path3760"
       inkscape:connector-curvature="0"
       sodipodi:nodetypes="cccsccccsccccccssscccccscsscssccccsccccscscccccsccccscccsscscscssccssccccccccsccccccccccccscccsccsssscccscccscccscccccsssccccscsscsccccsssccccccccccccsscccccccccscccccccccscccccsscssccscsccccccccccsscssccccccccssssccccssccccscccccscc" />
  </g>
</svg>
