<?xml version="1.0" encoding="utf-8"?>
<!-- Generator: Adobe Illustrator 12.0.0, SVG Export Plug-In . SVG Version: 6.00 Build 51448)  -->
<!DOCTYPE svg PUBLIC "-//W3C//DTD SVG 1.1//EN" "http://www.w3.org/Graphics/SVG/1.1/DTD/svg11.dtd" [
	<!ENTITY ns_svg "http://www.w3.org/2000/svg">
	<!ENTITY ns_xlink "http://www.w3.org/1999/xlink">
]>
<svg  version="1.1" id="Layer_1" xmlns="&ns_svg;" xmlns:xlink="&ns_xlink;" width="192" height="192" viewBox="0 0 192 192"
	 overflow="visible" enable-background="new 0 0 192 192" xml:space="preserve">
<g>
	<polygon fill-rule="evenodd" clip-rule="evenodd" fill="#ED1B2D" points="98.397,135.916 98.397,147.758 101.044,147.758 
		101.044,146.643 99.512,146.643 99.512,135.916 98.397,135.916 	"/>
	<path fill-rule="evenodd" clip-rule="evenodd" fill="#ED1B2D" d="M108.566,135.916h-0.417l-1.811,8.637h-0.697v0.977h0.559
		l-0.559,2.229h1.114l0.418-2.229h2.09l0.419,2.229h1.112L108.566,135.916L108.566,135.916z M107.452,144.553l0.837-4.596
		l0.975,4.596H107.452L107.452,144.553z"/>
	<path fill-rule="evenodd" clip-rule="evenodd" fill="#ED1B2D" d="M117.344,141.488l-1.393-2.508c0-0.834,0.696-1.531,2.09-2.09
		l-0.559-1.113c-1.672,0.836-2.508,1.951-2.508,3.064l1.533,3.205l0.975,2.646l-1.95,2.229l0.419,0.836
		c1.81-0.697,2.646-1.533,2.646-3.064L117.344,141.488L117.344,141.488z"/>
	<polygon fill-rule="evenodd" clip-rule="evenodd" fill="#ED1B2D" points="131.972,135.916 130.855,135.916 133.364,147.758 
		133.78,147.758 136.01,135.916 135.035,135.916 133.503,143.996 131.972,135.916 	"/>
	<polygon fill-rule="evenodd" clip-rule="evenodd" fill="#ED1B2D" points="143.813,135.916 141.165,135.916 141.165,141.629 
		140.607,141.629 140.607,142.742 141.165,142.742 141.165,147.758 143.813,147.758 143.813,146.643 142.278,146.643 
		142.278,142.742 144.089,142.742 144.089,141.629 142.278,141.629 142.278,136.891 143.813,136.891 143.813,135.916 	"/>
	<path fill-rule="evenodd" clip-rule="evenodd" fill="#ED1B2D" d="M152.17,137.309l0.697-0.973l-1.533-0.559
		c-1.533,0-2.508,1.951-2.508,6.131c0,3.898,0.975,5.85,2.647,5.85l1.81-0.697v-5.572h-2.367v0.977h1.254v4.178l-0.836,0.279
		c-0.976,0-1.394-1.811-1.394-5.014c0-3.344,0.418-5.018,1.394-5.018L152.17,137.309L152.17,137.309z"/>
	<path fill-rule="evenodd" clip-rule="evenodd" fill="#ED1B2D" d="M160.667,135.916h-0.419l-1.67,8.637h-0.697v0.977h0.697
		l-0.419,2.229h0.836l0.418-2.229h1.95l0.418,2.229h1.114L160.667,135.916L160.667,135.916z M160.529,139.957l0.834,4.596h-1.671
		L160.529,139.957L160.529,139.957z"/>
	<path fill-rule="evenodd" clip-rule="evenodd" fill="#ED1B2D" d="M170.14,136.891l-0.417-1.113
		c-1.532,0.836-2.369,1.951-2.369,3.064c0,1.115,0.418,2.09,1.253,3.205l1.116,2.646l-1.951,2.229l0.419,0.836
		c1.81-0.418,2.646-1.533,2.646-3.064l-1.393-3.205l-1.253-2.508L170.14,136.891L170.14,136.891z"/>
	<path fill-rule="evenodd" clip-rule="evenodd" fill="#16539F" d="M164.289,66.961l-0.975-5.154l-1.533-1.254
		c0.279,1.95-0.836,4.179-2.786,6.826c-1.949,2.786-3.064,5.015-3.064,6.687l0.419,0.974l0.696,0.697h0.557
		c1.114,0.14,2.09-0.278,3.064-1.114l2.925-2.646C164.428,70.583,164.708,68.911,164.289,66.961L164.289,66.961z"/>
	<path fill-rule="evenodd" clip-rule="evenodd" fill="#16539F" d="M170.419,86.463l-7.104,7.105
		c-1.951,3.204-2.089,5.99-0.558,8.357c3.482,4.18,4.597,8.359,3.204,12.26c-1.533,4.039-4.319,6.686-8.499,7.939
		c-1.112-0.139-1.112-1.533-0.416-3.9c0-0.975,0.416-1.811,1.253-2.646l-1.253-1.531l-2.647,0.418
		c-2.229,2.785-3.344,6.127-3.344,9.471c0.696,1.256,1.813,2.09,3.762,2.369l5.713-1.254l4.179-2.926l8.358-9.193
		c0.556-1.533,0.139-3.484-1.394-5.85l-3.901-5.992c-1.114-2.646,0.419-6.408,4.737-11.144c3.063-3.065,5.571-4.179,7.522-3.343
		l-1.951,3.343h-1.531l-1.533-0.279l-1.533,2.089c-0.277,0.14-0.277,0.836,0.419,1.812l4.737-0.14
		c3.76-4.179,5.291-7.244,4.735-9.194c-0.976-1.811-2.09-2.647-3.623-2.369C177.802,82.005,174.736,83.538,170.419,86.463
		L170.419,86.463z"/>
	<path fill-rule="evenodd" clip-rule="evenodd" fill="#16539F" d="M141.861,89.667l-2.369-0.417l-6.408,0.696
		c-3.202,8.079-8.774,14.905-16.159,20.339l-0.974-3.482l-0.141-3.482c-0.278-0.418-0.836-0.977-1.949-1.395l-3.066,1.672
		c-1.112,0.975-2.089,2.926-2.646,5.85l-2.229,6.27l-1.113-1.949c-0.696-5.99,0.277-10.727,2.367-13.93
		c1.115-1.813,2.509-2.51,4.04-2.09l0.418-0.141c2.229-0.835,3.343-1.671,3.065-2.925c-0.279-1.532-1.116-2.229-2.647-2.646
		c-1.532,0.417-3.344,1.114-5.294,3.204c-3.622,2.786-5.851,8.637-6.687,17.692c0,4.875,0.559,8.08,1.671,9.891l1.951,0.697
		l1.393-0.418l3.205-3.205l0.277-0.139l3.205-9.613l0.557-0.557l1.672,7.244l2.925-0.418l10.31-8.916l6.269-11.84l1.951-2.229
		l2.506-0.418l1.254,1.115l-0.696,6.687l0.975,6.408l7.384,0.277l1.115-1.811l-1.673-0.695l-2.506-0.141l-1.255-1.811l1.114-5.016
		l0.417-5.293L141.861,89.667L141.861,89.667z"/>
	<path fill-rule="evenodd" clip-rule="evenodd" fill="#16539F" d="M154.816,91.061c-1.533,0.696-2.229,1.393-2.368,2.368
		l-0.278,6.13l-1.115,6.406l0.696,1.951l1.255,1.115l1.811-5.154l1.114-5.154l2.647-5.154
		C158.159,92.593,156.766,91.757,154.816,91.061L154.816,91.061z"/>
	<path fill-rule="evenodd" clip-rule="evenodd" fill="#16539F" d="M126.118,42.722c1.674-6.269,1.674-11.284,0.141-15.324
		c-2.368-3.761-5.851-5.015-10.308-4.319c-4.319,0.558-10.867,4.179-19.643,10.448c-6.547,6.408-13.652,16.02-21.035,28.697
		c-3.762,6.826-6.409,14.487-7.941,22.706c-1.95,13.094-2.368,24.516-1.253,34.409c3.622,20.756,6.687,34.129,9.194,40.119
		l1.95,4.598c0.697,1.951,1.672,2.785,3.065,2.646l3.065-2.926c0.696-0.697,0.696-1.533,0.139-2.646l-0.975-2.369l-7.662-20.895
		l-3.761-24.1c-0.697-17.274,1.532-32.598,6.965-46.389c5.433-10.727,10.727-19.084,15.603-25.214
		c5.711-6.826,11.841-11.423,18.666-13.792l5.016-1.393c2.229-0.418,3.761,0.278,4.736,1.811c2.507,3.761,2.229,8.637-0.418,14.488
		l-11.979,24.239L92.965,93.15l-9.612,13.235l-3.761,5.572l-2.369,5.85l1.672,1.115c5.711-3.482,9.472-6.688,11.005-9.334
		c1.95-5.293,5.433-11.98,10.308-19.642L112.328,71C119.015,58.742,123.612,49.409,126.118,42.722L126.118,42.722z"/>
	<polygon fill-rule="evenodd" clip-rule="evenodd" fill="#ED1B2D" points="45.044,26.145 44.069,35.757 44.069,36.871 45.044,37.01 
		45.462,36.174 45.183,27.398 45.183,26.145 45.044,26.145 	"/>
	<path fill-rule="evenodd" clip-rule="evenodd" fill="#ED1B2D" d="M47.552,38.821l-0.557-0.836l-5.572,0.836l5.293,1.115
		C47.413,39.657,47.83,39.24,47.552,38.821L47.552,38.821z"/>
	<path fill-rule="evenodd" clip-rule="evenodd" fill="#ED1B2D" d="M49.781,42.165l-5.294-0.697l-2.368,0.418l-2.229,0.696v0.697
		l8.776,0.836C49.641,43.279,49.919,42.583,49.781,42.165L49.781,42.165z"/>
	<path fill-rule="evenodd" clip-rule="evenodd" fill="#ED1B2D" d="M46.716,46.762l-2.229-1.115
		c-1.114,0.418-1.671,1.532-1.671,3.065c-1.951,14.209-1.951,33.154,0.139,56.558l-5.154,0.695l-0.279-0.695l2.229-17.97
		l-0.417-0.418l-0.976,0.14l-3.482,16.856c0,2.229-1.114,3.205-3.065,2.508l-1.394,2.646l3.205,1.533l-0.975,3.482l-6.547,17.135
		v2.785l3.621-0.836l3.901-9.891l0.14-2.229l0.696-2.369l2.368-9.195l6.548-0.416l2.368,16.994l1.672,5.711l0.835-0.139
		l-2.229-18.389v-4.039c0-1.254,0.976-1.949,2.507-1.949c0.14-0.697-0.278-1.115-0.975-1.256l-1.95-0.555l-0.836-13.514
		L46.716,46.762L46.716,46.762z"/>
	<path fill-rule="evenodd" clip-rule="evenodd" fill="#ED1B2D" d="M37.243,117.807l-1.254,6.129l-2.229,10.449l2.925,0.834
		l1.672,0.279l1.532-0.697c-0.557-2.367-0.557-6.127,0.278-10.725c0.697-4.736,0.836-8.498,0.418-10.867l-1.253-1.252
		L37.243,117.807L37.243,117.807z"/>
	<path fill-rule="evenodd" clip-rule="evenodd" fill="#ED1B2D" d="M51.731,135.777l-5.712,0.836l-18.388-0.836l-6.129,0.559v2.229
		l15.742-0.141l15.462-0.975l0.418-1.254C52.845,135.916,52.427,135.777,51.731,135.777L51.731,135.777z"/>
	<path fill-rule="evenodd" clip-rule="evenodd" fill="#ED1B2D" d="M52.009,139.26l-17.134,0.139l-0.976,0.697l2.508,1.115
		l15.741,0.418l1.253-1.254C53.402,139.678,53.124,139.26,52.009,139.26L52.009,139.26z"/>
	<path fill-rule="evenodd" clip-rule="evenodd" fill="#ED1B2D" d="M32.506,142.465l-12.119-0.418l-2.369,2.924
		c-0.417,1.254-0.278,1.951,0.836,1.951l10.309-0.279l24.518-1.531v-1.951L32.506,142.465L32.506,142.465z"/>
	<path fill-rule="evenodd" clip-rule="evenodd" fill="#ED1B2D" d="M59.253,169.49c0.697,1.113,1.672,1.949,3.483,2.229l4.597,0.139
		l0.418-0.557v-0.977l-16.02-23.264c-0.836,0-1.533,0.279-1.812,0.697l0.697,2.926C55.492,160.295,58.417,166.703,59.253,169.49
		L59.253,169.49z"/>
	<path fill-rule="evenodd" clip-rule="evenodd" fill="#ED1B2D" d="M8.407,171.301c1.672,0.139,2.786-0.279,3.483-1.395l10.03-19.92
		c-0.836-0.695-1.951-0.695-3.205,0l-5.711,7.941c-2.229,3.482-4.179,6.129-5.99,7.801l-2.368,2.646
		c-1.114,0.836-1.811,1.811-1.811,2.926l1.811,0.557L8.407,171.301L8.407,171.301z"/>
	<path fill-rule="evenodd" clip-rule="evenodd" fill="#ED1B2D" d="M44.766,154.584c-7.662-3.064-13.652-3.064-17.553,0.277v0.557
		l1.114,0.279l10.727-0.418c6.408,2.369,10.169,6.965,12.259,13.793c0.418,1.531,1.393,1.949,2.647,1.67
		c0.696-0.139,0.696-0.557,0.417-1.67C52.427,162.523,49.223,157.648,44.766,154.584L44.766,154.584z"/>
	<path fill-rule="evenodd" clip-rule="evenodd" fill="#ED1B2D" d="M42.537,158.066c-2.369-1.672-5.712-2.369-9.334-2.229
		c-3.761,0.277-6.686,1.531-9.055,3.76l-5.85,9.893l1.95,1.252l5.851-1.252c3.9,0,6.547-1.115,7.8-3.346
		c-0.139-1.949,1.393-3.621,4.179-5.711l4.458-0.139l0.696-1.115L42.537,158.066L42.537,158.066z"/>
	<polygon fill-rule="evenodd" clip-rule="evenodd" fill="#16539F" points="186.16,78.663 183.93,78.663 183.93,79.359 
		184.907,79.359 184.907,83.538 185.323,83.538 185.323,79.359 186.16,79.359 186.16,78.663 	"/>
	<polygon fill-rule="evenodd" clip-rule="evenodd" fill="#16539F" points="189.503,78.663 188.806,78.663 188.109,82.005 
		188.109,82.285 187.413,78.663 186.996,78.663 186.577,83.538 187.274,83.538 187.274,80.334 187.971,83.538 188.39,83.538 
		188.946,80.892 188.946,81.866 189.225,83.538 189.921,83.538 189.503,78.663 	"/>
</g>
</svg>
