<?xml version="1.0" encoding="UTF-8"?>
<svg width="302.12" height="302.12" enable-background="new 0 0 1191.19 643.46" version="1.1" viewBox="0 0 302.12 302.12" xml:space="preserve" xmlns="http://www.w3.org/2000/svg" xmlns:cc="http://creativecommons.org/ns#" xmlns:dc="http://purl.org/dc/elements/1.1/" xmlns:rdf="http://www.w3.org/1999/02/22-rdf-syntax-ns#"><metadata><rdf:RDF><cc:Work rdf:about=""><dc:format>image/svg+xml</dc:format><dc:type rdf:resource="http://purl.org/dc/dcmitype/StillImage"/><dc:title/></cc:Work></rdf:RDF></metadata>

<g transform="translate(-804.02,-170.7)">
	
		
			
				<circle transform="matrix(.0056177 -1 1 .0056177 627.96 1275)" cx="955.09" cy="321.76" r="147.28" fill="#fff"/>
			
				
					<path d="m914.22 244.68h25.16v-13.8h-25.16c-4.09 0-7.42 3.1-7.42 6.93 0.01 3.83 3.33 6.87 7.42 6.87z" fill="none"/>
					<path d="m1003.7 237.81c0-3.82-3.32-6.93-7.42-6.93h-25.14v13.8h25.14c4.09 0 7.42-3.04 7.42-6.87z" fill="none"/>
					<path d="m914.22 256.48 26.3 0.01-0.07 13.19c0 1.92-1.12 2.56-1.12 2.56h14.08s-1.17-0.54-1.17-2.57v-48.05c0-1.71 1.67-2.49 1.67-2.49h-39.69c-11.05 0-20 8.37-20 18.68s8.95 18.67 20 18.67zm0-25.6h25.16v13.8h-25.16c-4.09 0-7.42-3.05-7.42-6.87 0.01-3.82 3.33-6.93 7.42-6.93z" fill="#475257"/>
					<path d="m958.23 221.62v48.05c0 2.03-1.17 2.57-1.17 2.57h14.35s-1.38-0.64-1.38-2.56l-0.06-13.19 26.29-0.01c11.05 0 20-8.36 20-18.67s-8.95-18.68-20-18.68h-39.68c-0.01 0 1.65 0.79 1.65 2.49zm12.88 9.26h25.14c4.1 0 7.42 3.1 7.42 6.93s-3.32 6.87-7.42 6.87h-25.14z" fill="#475257"/>
					<rect x="830.86" y="286.94" width="248.46" height="1.29"/>
					<rect x="830.86" y="289.59" width="248.46" height="1.29"/>
					<rect x="830.86" y="292.25" width="248.46" height="1.29"/>
					<rect x="990.51" y="276.24" width="88.8" height="8.57" fill="#e52744"/>
					<rect x="830.86" y="276.24" width="88.8" height="8.57" fill="#004c95"/>
					<path d="m955.55 297.81h-56.82s-1.09 11.44 0.15 29.48h112.69c1.28-18.18 0.17-29.48 0.17-29.48zm-27.84 23.97-0.52 0.84-0.41-0.9c-0.01-0.03-1.55-3.2-4.13-3.5-3.81-0.45-7.41 6.49-7.41 6.49h-0.88s-4.26-7.06-7.41-6.49c-2.56 0.46-4.12 3.47-4.14 3.5l-0.41 0.9-0.52-0.84c-1.03-1.65-1.08-3.94-0.09-5.71 0.86-1.57 2.39-2.47 4.18-2.47 2.71 0 4.67 1.38 6.07 3.15-0.24-1.4-0.41-2.86-0.41-4.32 0-8.9 3.16-12.29 3.16-12.29s3.17 3.43 3.18 12.29c0.01 1.46-0.16 2.93-0.4 4.32 1.39-1.77 3.35-3.15 6.06-3.15 1.79 0 3.31 0.91 4.19 2.48 0.97 1.77 0.93 4.05-0.11 5.7zm40.48-0.27-0.52 0.84-0.4-0.9c-0.01-0.03-1.55-3.2-4.13-3.5-3.81-0.45-7.41 6.49-7.41 6.49h-0.88s-4.26-7.06-7.41-6.49c-2.57 0.46-4.12 3.47-4.14 3.5l-0.41 0.9-0.52-0.84c-1.04-1.65-1.08-3.94-0.1-5.71 0.86-1.57 2.39-2.47 4.18-2.47 2.71 0 4.67 1.38 6.07 3.15-0.24-1.39-0.41-2.86-0.41-4.32 0-8.9 3.17-12.29 3.17-12.29s3.16 3.43 3.18 12.29c0 1.46-0.17 2.93-0.4 4.32 1.39-1.77 3.35-3.15 6.06-3.15 1.79 0 3.32 0.91 4.18 2.48 0.98 1.77 0.93 4.05-0.11 5.7zm40.63 0.14-0.52 0.83-0.41-0.9c-0.02-0.03-1.54-3.19-4.13-3.5-3.81-0.45-7.41 6.49-7.41 6.49h-0.88s-4.26-7.06-7.41-6.49c-2.56 0.46-4.12 3.47-4.14 3.5l-0.41 0.91-0.52-0.84c-1.04-1.65-1.08-3.94-0.1-5.71 0.86-1.57 2.39-2.48 4.18-2.48 2.71 0 4.67 1.39 6.07 3.15-0.24-1.4-0.41-2.86-0.41-4.32 0-8.9 3.17-12.29 3.17-12.29s3.16 3.43 3.18 12.29c0 1.46-0.16 2.93-0.4 4.32 1.39-1.77 3.35-3.15 6.07-3.15 1.78 0 3.31 0.91 4.18 2.48 0.97 1.77 0.92 4.06-0.11 5.71z" fill="#004c95"/>
				<g fill="#e52744">
				<path d="m915.86 395.49 0.15-0.12c0.02-0.01 0.52-0.37 0.53-0.38 0.28-0.15 0.54-0.3 0.82-0.43 0.03-0.02 0.07-0.04 0.09-0.04 0.25-0.13 0.51-0.25 0.76-0.36 3.93-1.76 8.83-2.02 16.12 1.61 0.52 0.26 1.06 0.5 1.62 0.74-1.89-2.54-2.54-4.59-2.54-4.59h-2.29v-2.57h-1.97v-7.09h4.6v1.95h2.07v-1.95h7.2c-14.59-7.07-9.81-28.3-9.81-28.3 9.66-6.69 16.33-9.88 23.16-12.45v-1.75s-3.97-3.45-7.65 0.23c-3.93 3.93-4.54-1-8.64 2.86s-7.08 1.43-7.08 1.43c1.21 0.04 2.75 1.82 6.18-3.49 3.42-5.27 6.6-0.85 7.85-3.52 1.72-3.66 6.9-2.26 9.32-1.35 0.78 0.3 1.27 0.53 1.27 0.53v4.61c14.85-5.32 22.52-2.97 22.52-2.97s-9.63 12.46-14.53 26.1c-3.41 9-3.74 17.75-3.46 21.85 0.2 2.97 2.35 6.08 4.87 6.08 2.74 0 2.62-2.75 2.62-2.75h-1.8v-7.09h3.94v1.95h2.26v-1.95h4.78v1.95h2.34v-1.95h4.07v7.09h-1.98v2.57h-2.29s-0.18 0.69-0.65 1.76c5.68-1.63 10.18-0.16 13.74 1.84l0.21 0.12c6.86-12.93 11.17-27.8 13.85-41.63 1.61-8.31 2.63-16.24 3.25-23.15h-112.54c1.67 18.36 6.11 43.95 17.04 64.61z"/>
				<path d="m982.42 413.47-0.03 0.01c-8.12 2.26-16.59 10.75-27.6 10.75-10.72 0-19.12-8.28-26.87-10.71l-0.23-0.02c7.27 8.93 16.25 16.87 27.39 23.08 11.15-6.23 20.15-14.17 27.42-23.11z"/>
				<path d="m955.14 409h-0.11c-21.72-0.8-20.86-15-38.08-11.49l0.05 0.09c2.25 4.06 4.76 8.02 7.56 11.83l1.24 1.59c2.74 0.08 4.85 0.74 8.69 2.29 5.98 2.41 15.12 5.51 20.57 5.51s15.5-3.26 20.48-5.51c3.68-1.66 5.87-2.26 8.79-2.24h0.03l0.62-0.8 0.62-0.81c0.8-1.09 1.53-2.22 2.29-3.33 1.89-2.79 3.69-5.62 5.29-8.53l0.06-0.1c-17.23-3.5-16.38 10.7-38.1 11.5z"/>
			</g>
		
		<path d="m955.08 170.7c-83.29 0-151.06 67.77-151.06 151.06 0 83.3 67.77 151.06 151.06 151.06 83.3 0 151.06-67.77 151.06-151.06 0.01-83.29-67.76-151.06-151.06-151.06zm0.01 298.35c-81.34 0-147.28-65.94-147.28-147.28s65.94-147.28 147.28-147.28 147.28 65.94 147.28 147.28-65.94 147.28-147.28 147.28z" fill="#1d1e1c"/>
	
</g>
<g id="structure" transform="translate(-804.02,-170.7)" display="none">
	<g display="inline"><g fill="none"><g stroke="#000" stroke-miterlimit="10" stroke-width=".983">
		
			<line x1="1190.6" y1="85.04" y2="85.04" opacity=".31"/>
	
	
		
			<line x1="1190.6" y1="170.08" y2="170.08" opacity=".31"/>
	
	
		
			<line x1="1190.6" y1="559.45" y2="559.45" opacity=".31"/>
	
	
		
			<line x1="1190.6" y1="472.82" y2="472.82" opacity=".31"/>
	
	
		</g><rect x="1591.4" y="584.83" width="19.95" height="32.29"/>
		</g><text transform="translate(1591.4 610.5)" font-family="SignPainter-HouseScript" font-size="41px">x</text>
	
	
		<rect x="1591.4" y="26.34" width="19.95" height="32.29" fill="none"/>
		<text transform="translate(1591.4 52.014)" font-family="SignPainter-HouseScript" font-size="41px">x</text>
	
	
		<rect x="1641.3" y="557.45" width="19.95" height="32.29" fill="none"/>
		<text transform="translate(1641.3 583.12)" font-family="SignPainter-HouseScript" font-size="41px">x</text>
	
	
		<rect x="1641.3" y="85.01" width="19.95" height="32.29" fill="none"/>
		<text transform="translate(1641.3 110.68)" font-family="SignPainter-HouseScript" font-size="41px">x</text><g fill="none" stroke="#000" stroke-miterlimit="10" stroke-width=".9998">
	
	
		
			<line x1="85.04" x2="85.04" y1="643.46" opacity=".31"/>
	
	
		
			<line x1="633.58" x2="633.58" y1="643.46" opacity=".31"/>
	
	
		
			<line x1="718.62" x2="718.62" y1="643.46" opacity=".31"/>
	
	
		
			<line x1="803.66" x2="803.66" y1="643.46" opacity=".31"/>
	
	
		
			<line x1="1106.2" x2="1106.2" y1="643.46" opacity=".31"/>
	
	
		</g>
			
				
					<line x1="342.84" x2="342.84" y1="86.8" y2="168.25" fill="none" stroke="#000" stroke-miterlimit="10" stroke-width=".25"/>
				
					<polygon points="344.09 87.17 341.59 87.17 342.84 85.01"/>
				
				
					<polygon points="344.09 167.89 341.59 167.89 342.84 170.05"/>
				
			
		
		<rect x="347.22" y="108.99" width="19.95" height="32.29" fill="none"/>
		<text transform="translate(347.22 134.66)" font-family="SignPainter-HouseScript" font-size="41px">x</text>
	
	
		
			
				<line x1="83.46" x2="2.01" y1="397.29" y2="397.29" fill="none" stroke="#000" stroke-miterlimit="10" stroke-width=".25"/>
				
					<polygon points="83.1 398.54 83.1 396.04 85.26 397.29"/>
				
				
					<polygon points="2.38 398.54 2.38 396.04 0.22 397.29"/>
				
			
		
		<rect x="30.76" y="391.75" width="19.95" height="32.29" fill="none"/>
		<text transform="translate(30.762 417.42)" font-family="SignPainter-HouseScript" font-size="41px">x</text>
	
	
		
			
				
					<line x1="716.83" x2="635.38" y1="397.29" y2="397.29" fill="none" stroke="#000" stroke-miterlimit="10" stroke-width=".25"/>
				
					<polygon points="716.46 398.54 716.46 396.04 718.62 397.29"/>
				
				
					<polygon points="635.74 398.54 635.74 396.04 633.58 397.29"/>
				
			
		
		<rect x="664.13" y="391.75" width="19.95" height="32.29" fill="none"/>
		<text transform="translate(664.13 417.42)" font-family="SignPainter-HouseScript" font-size="41px">x</text>
	
	
		
			
				
					<line x1="801.87" x2="720.42" y1="397.29" y2="397.29" fill="none" stroke="#000" stroke-miterlimit="10" stroke-width=".25"/>
				
					<polygon points="801.5 398.54 801.5 396.04 803.66 397.29"/>
				
				
					<polygon points="720.78 398.54 720.78 396.04 718.62 397.29"/>
				
			
		
		<rect x="749.17" y="391.75" width="19.95" height="32.29" fill="none"/>
		<text transform="translate(749.17 417.42)" font-family="SignPainter-HouseScript" font-size="41px">x</text>
	
	
		
			
				
					<line x1="1189.4" x2="1107.9" y1="397.29" y2="397.29" fill="none" stroke="#000" stroke-miterlimit="10" stroke-width=".25"/>
				
					<polygon points="1189 398.54 1189 396.04 1191.2 397.29"/>
				
				
					<polygon points="1108.3 398.54 1108.3 396.04 1106.2 397.29"/>
				
			
		
		<rect x="1136.7" y="391.75" width="19.95" height="32.29" fill="none"/>
		<text transform="translate(1136.7 417.42)" font-family="SignPainter-HouseScript" font-size="41px">x</text>
	
	
		
			
				<line x1="342.84" x2="342.84" y1="1.73" y2="83.18" fill="none" stroke="#000" stroke-miterlimit="10" stroke-width=".25"/>
				
					<polygon points="344.09 2.09 341.59 2.09 342.84 -0.06"/>
				
				
					<polygon points="344.09 82.82 341.59 82.82 342.84 84.98"/>
				
			
		
		<rect x="347.22" y="23.91" width="19.95" height="32.29" fill="none"/>
		<text transform="translate(347.22 49.586)" font-family="SignPainter-HouseScript" font-size="41px">x</text>
	
	
		
			
				
					<line x1="342.84" x2="342.84" y1="560.25" y2="641.7" fill="none" stroke="#000" stroke-miterlimit="10" stroke-width=".25"/>
				
					<polygon points="344.09 560.62 341.59 560.62 342.84 558.46"/>
				
				
					<polygon points="344.09 641.34 341.59 641.34 342.84 643.5"/>
				
			
		
		<rect x="347.22" y="582.44" width="19.95" height="32.29" fill="none"/>
		<text transform="translate(347.22 608.11)" font-family="SignPainter-HouseScript" font-size="41px">x</text>
	
	
		
			
				
					<line x1="342.84" x2="342.84" y1="476.21" y2="557.66" fill="none" stroke="#000" stroke-miterlimit="10" stroke-width=".25"/>
				
					<polygon points="344.09 476.57 341.59 476.57 342.84 474.41"/>
				
				
					<polygon points="344.09 557.29 341.59 557.29 342.84 559.45"/>
				
			
		
		<rect x="347.22" y="498.39" width="19.95" height="32.29" fill="none"/>
		<text transform="translate(347.22 524.06)" font-family="SignPainter-HouseScript" font-size="41px">x</text>
	</g>
</g>
</svg>
