<?xml version="1.0" encoding="utf-8"?>
<!-- Generator: Adobe Illustrator 12.0.0, SVG Export Plug-In  -->
<!DOCTYPE svg PUBLIC "-//W3C//DTD SVG 1.1//EN" "http://www.w3.org/Graphics/SVG/1.1/DTD/svg11.dtd" [
	<!ENTITY ns_flows "http://ns.adobe.com/Flows/1.0/">
	<!ENTITY ns_svg "http://www.w3.org/2000/svg">
	<!ENTITY ns_xlink "http://www.w3.org/1999/xlink">
]>
<svg  version="1.1" xmlns="&ns_svg;" xmlns:xlink="&ns_xlink;" xmlns:a="http://ns.adobe.com/AdobeSVGViewerExtensions/3.0/"
	 width="125" height="35" viewBox="-0.3774414 -0.6884766 125 35" enable-background="new -0.3774414 -0.6884766 125 35"
	 xml:space="preserve">
<defs>
</defs>
<rect opacity="0" fill="#FFFFFF" width="123.9995117" height="34"/>
<path fill="#8E1C35" d="M18.1948242,10.9643555c0-0.4345703-0.4375-0.7924805-0.9755859-0.7924805l18.0219727-0.0009766
	l-0.684082,3.2783203c-0.1396484,0.7011719-0.8950195,1.2485352-1.8051758,1.2485352h-5.2631836l-0.6948242,3.3061523h6.4321289
	L32.5625,21.0341797c-0.1401367,0.7026367-0.8950195,1.2490234-1.8041992,1.2490234l-4.859375-0.0073242l-0.8647461,4.1220703
	l6.1508789-0.0048828c0.909668,0,1.6640625-0.5214844,1.8046875-1.2236328l-1.0302734,4.8330078
	c-0.1352539,0.6806641-0.875,1.1420898-1.7456055,1.1733398c-0.027832,0.0014648,0.0288086,0,0,0
	c-3.0200195,0-15.1064453-0.0053711-15.1064453-0.0053711c-0.5395508,0-0.9760742-0.3530273-0.9760742-0.7875977
	L18.1948242,10.9643555z"/>
<path fill="#A57F56" d="M32.4536133,7.9370117l1.1435547-2.6411133c0.1455078-0.3691406,0.5053711-0.6474609,0.9921875-0.6474609
	c0.0541992,0,0.1079102,0.0039063,0.1591797,0.0141602c0.0136719-0.0532227,0.0214844-0.1079102,0.0214844-0.1635742
	c0-0.4467773-0.4506836-0.8071289-1.0063477-0.8071289c-0.4790039,0-0.8789063,0.2685547-0.9814453,0.6274414l-0.2827148,0.6699219
	c-0.1835938,0.4907227-0.7304688,0.809082-1.3984375,0.809082c-0.8149414,0-1.4760742-0.5327148-1.4760742-1.1889648
	c0-0.1000977,0.0048828-0.1938477,0.0341797-0.2866211C30.0625,4.1601563,30.328125,3.8310547,30.328125,3.4443359
	c0-0.5449219-0.550293-0.9858398-1.2290039-0.9858398c-0.6791992,0-1.2294922,0.440918-1.2294922,0.9858398
	c0,0.2729492,0.1386719,0.5200195,0.3623047,0.6987305v0.0014648c-0.0644531,0.605957-0.6977539,1.0825195-1.4707031,1.0825195
	h-0.0024414c-0.7719727,0-1.4052734-0.4765625-1.4707031-1.0825195l0.0014648-0.0014648
	c0.2216797-0.1787109,0.3608398-0.4257813,0.3608398-0.6987305c0-0.5449219-0.550293-0.9858398-1.2285156-0.9858398
	c-0.6791992,0-1.2299805,0.440918-1.2299805,0.9858398c0,0.3867188,0.2666016,0.7158203,0.6694336,0.878418
	c0.0288086,0.0927734,0.034668,0.1865234,0.034668,0.2866211c0,0.65625-0.6606445,1.1889648-1.4770508,1.1889648
	c-0.6669922,0-1.215332-0.3183594-1.3979492-0.809082L20.737793,4.3193359
	c-0.1025391-0.3588867-0.5014648-0.6274414-0.9804688-0.6274414c-0.5566406,0-1.0063477,0.3603516-1.0063477,0.8071289
	c0,0.0556641,0.0073242,0.1103516,0.0205078,0.1635742c0.0517578-0.0102539,0.1054688-0.0141602,0.1606445-0.0141602
	c0.4858398,0,0.8457031,0.2783203,0.9907227,0.6474609l1.144043,2.6411133"/>
<path d="M27.6918945,3.4443359c0,0.3022461,0.1464844,0.5869141,0.4135742,0.7998047
	c-0.1083984,0.4213867-0.675293,0.8398438-1.3442383,0.8398438c-0.668457,0-1.2373047-0.4179688-1.2954102-0.9521484
	c0.2158203-0.1015625,0.3623047-0.3857422,0.3623047-0.6875c0-0.6225586-0.6308594-1.1289063-1.40625-1.1289063
	c-0.7758789,0-1.4082031,0.5063477-1.4082031,1.1289063c0,0.4296875,0.2939453,0.8149414,0.7670898,1.0063477
	c-0.0917969-0.0927734-0.0629883,0.1586914-0.0629883,0.1586914c0,0.5766602-0.5830078,1.0458984-1.2988281,1.0458984
	c-0.5854492,0-1.0673828-0.2773438-1.2275391-0.706543L20.90625,4.2729492
	c-0.1191406-0.4204102-0.5932617-0.7241211-1.1489258-0.7241211c-0.652832,0-1.184082,0.4262695-1.184082,0.9501953
	l0.0410156,0.3344727L18.8125,4.8017578l0.1196289-0.0102539c0.4462891,0,0.7163086,0.2822266,0.8208008,0.546875
	l1.1455078,2.6459961l0.3369141-0.0942383l-1.1445313-2.6416016c-0.1796875-0.456543-0.6245117-0.7431641-1.1586914-0.7431641
	l-0.0029297-0.0063477c0-0.3666992,0.3720703-0.6640625,0.828125-0.6640625c0.3886719,0,0.7202148,0.2119141,0.8071289,0.5161133
	l0.2885742,0.684082c0.203125,0.5483398,0.8188477,0.9057617,1.565918,0.9057617
	c0.9125977,0,1.6547852-0.5966797,1.6547852-1.331543l-0.0405273-0.3212891
	c-0.4448242-0.2353516-0.6625977-0.5229492-0.6625977-0.84375c0-0.4648438,0.4716797-0.8427734,1.0512695-0.8427734
	c0.5786133,0,1.0498047,0.3779297,1.0498047,0.8427734c0,0.2255859-0.109375,0.4375-0.309082,0.5976563
	c0.0214844,0.7949219,0.7446289,1.3276367,1.5961914,1.3276367c0.8530273,0,1.5776367-0.5327148,1.6503906-1.2133789
	c-0.2514648-0.2744141-0.3613281-0.4868164-0.3613281-0.7119141c0-0.4648438,0.4716797-0.8427734,1.0512695-0.8427734
	c0.5791016,0,1.0512695,0.3779297,1.0512695,0.8427734c0,0.3208008-0.2192383,0.6083984-0.5703125,0.7504883
	c-0.0932617,0.0932617-0.1333008,0.4145508-0.1333008,0.4145508c0,0.7348633,0.7421875,1.331543,1.6542969,1.331543
	c0.7470703,0,1.362793-0.3569336,1.5688477-0.9111328l0.2802734-0.6650391
	c0.0922852-0.3178711,0.4243164-0.5297852,0.8134766-0.5297852c0.4570313,0,0.8286133,0.2973633,0.8286133,0.6640625
	L34.574707,4.6347656c-0.5214844-0.1293945-0.9658203,0.1572266-1.1464844,0.6176758l-1.1425781,2.6376953l0.3364258,0.0942383
	l1.144043-2.6420898c0.1049805-0.2685547,0.3754883-0.5507813,0.8232422-0.5507813H34.75l0.1733398-0.1010742l0.0249023-0.1914063
	c0-0.5239258-0.5317383-0.9501953-1.1845703-0.9501953c-0.5561523,0-1.03125,0.3037109-1.1552734,0.7387695L32.331543,4.9428711
	c-0.1625977,0.4350586-0.6450195,0.7124023-1.2304688,0.7124023c-0.715332,0-1.2983398-0.4692383-1.2983398-1.0458984
	l0.0297852-0.2514648c0.3793945-0.0976563,0.6733398-0.4838867,0.6733398-0.9135742
	c0-0.6225586-0.6313477-1.1289063-1.4067383-1.1289063C28.3227539,2.3154297,27.6918945,2.8217773,27.6918945,3.4443359z"/>
<polyline fill="#A57F56" points="26.7612305,6.6157227 26.7612305,7.9370117 32.4536133,7.9370117 32.4536133,8.8764648 
	21.0668945,8.8764648 21.0668945,7.9370117 26.7587891,7.9370117 "/>
<path d="M26.5830078,6.6157227c0,0,0,0.9506836,0,1.1787109c-0.3305664,0-5.6938477,0-5.6938477,0v1.2250977h11.7416992V7.7944336
	c0,0-5.3574219,0-5.6918945,0c0-0.2280273,0-1.1787109,0-1.1787109H26.5830078z M26.7612305,8.0800781c0,0,5.1796875,0,5.5141602,0
	c0,0.1689453,0,0.4848633,0,0.6533203c-0.3393555,0-10.6904297,0-11.0302734,0c0-0.168457,0-0.484375,0-0.6533203
	c0.3339844,0,5.5136719,0,5.5136719,0H26.7612305z"/>
<rect x="26.5830078" y="6.6157227" width="0.355957" height="1.3212891"/>
<rect x="28.6108398" y="6.6157227" width="0.355957" height="1.3212891"/>
<rect x="30.6391602" y="6.6157227" width="0.3564453" height="1.3212891"/>
<rect x="24.5546875" y="6.6157227" width="0.355957" height="1.3212891"/>
<rect x="22.5268555" y="6.6157227" width="0.3564453" height="1.3212891"/>
<path d="M100.3803711,11.7001953l-0.8398438,3.4926758c-0.1982422,0.8193359-0.5546875,1.425293-1.0625,1.815918
	c-0.5117188,0.3930664-1.2705078,0.5888672-2.2744141,0.5888672c-0.5595703,0-1.0048828-0.0493164-1.3388672-0.1464844
	c-0.3330078-0.0986328-0.6132813-0.2446289-0.8427734-0.4404297c-0.2275391-0.1953125-0.3945313-0.4169922-0.4980469-0.6674805
	c-0.1044922-0.2495117-0.15625-0.5161133-0.15625-0.8017578c0-0.3623047,0.0400391-0.7075195,0.1201172-1.0366211
	l0.671875-2.8046875h2.0263672l-0.7851563,3.2592773c-0.0361328,0.152832-0.0537109,0.3139648-0.0537109,0.4858398
	c0,0.4580078,0.3046875,0.6870117,0.9150391,0.6870117c0.3222656,0,0.5976563-0.0869141,0.8232422-0.2602539
	c0.2265625-0.1748047,0.3994141-0.5117188,0.5175781-1.012207l0.7431641-3.159668H100.3803711z"/>
<path d="M102.2553711,15.8637695l-0.3935547,1.6264648h-1.9482422l0.3935547-1.6264648H102.2553711z"/>
<path d="M111.0961914,11.7001953l-2.8144531,2.1694336l1.9921875,3.6206055h-2.1796875l-1.2353516-2.5229492l-1.4082031,1.0844727
	l-0.3447266,1.4384766h-2.0341797l1.3925781-5.7900391h2.0351563l-0.5458984,2.1679688l0.0185547,0.0200195l2.4726563-2.1879883
	H111.0961914z"/>
<path d="M112.8774414,15.8637695l-0.3935547,1.6264648h-1.9472656l0.3925781-1.6264648H112.8774414z"/>
<path d="M5.8081055,10.2583008h5.1665039c0.6264648,0,1.1425781,0.0244141,1.5473633,0.0737305
	c0.4052734,0.0493164,0.7949219,0.1743164,1.1694336,0.3730469s0.6679688,0.4614258,0.8793945,0.7871094
	c0.2114258,0.3276367,0.3168945,0.6845703,0.3168945,1.0737305c0,0.496582-0.1674805,0.9648438-0.5024414,1.40625
	c-0.3339844,0.4394531-0.8662109,0.7592773-1.5966797,0.9560547v0.0268555
	c1.1972656,0.3173828,1.7954102,1.0073242,1.7954102,2.0693359c0,0.7773438-0.3696289,1.4824219-1.1074219,2.1147461
	c-0.7387695,0.6318359-1.793457,0.9482422-3.1630859,0.9482422H3.4145508L5.8081055,10.2583008z M7.4042969,17.9780273h1.8476563
	c1.3027344,0,1.9541016-0.3793945,1.9541016-1.1381836c0-0.2666016-0.0942383-0.4775391-0.2827148-0.6318359
	c-0.1875-0.1538086-0.5727539-0.2314453-1.152832-0.2314453H7.8911133L7.4042969,17.9780273z M8.3481445,14.1005859h1.1777344
	c0.5092773,0,0.902832-0.0317383,1.1806641-0.0942383s0.5019531-0.1938477,0.6728516-0.3935547
	c0.1704102-0.2001953,0.2558594-0.4018555,0.2558594-0.6040039c0-0.2421875-0.0927734-0.4296875-0.2773438-0.5644531
	c-0.1850586-0.1352539-0.5488281-0.2021484-1.0898438-0.2021484H8.800293L8.3481445,14.1005859z"/>
<path d="M38.8300781,10.2583008h6.3671875c1.0991211,0,1.902832,0.2524414,2.4121094,0.7573242
	c0.5087891,0.503418,0.7631836,1.1103516,0.7631836,1.8203125c0,0.7685547-0.2700195,1.4389648-0.8085938,2.0131836
	c-0.5390625,0.5727539-1.4018555,0.9404297-2.5869141,1.1005859c0.7001953,0.5,1.5405273,1.8789063,2.5200195,4.1376953h-3.6660156
	c-0.3041992-0.7128906-0.6630859-1.4902344-1.0771484-2.3349609c-0.4130859-0.8427734-0.7231445-1.3320313-0.9287109-1.4672852
	c-0.2060547-0.1342773-0.4545898-0.2011719-0.7460938-0.2011719h-0.1806641l-0.9672852,4.003418h-3.4785156L38.8300781,10.2583008z
	 M41.34375,14.2436523h0.6552734c1.0966797,0,1.8066406-0.0449219,2.1289063-0.1342773s0.5629883-0.2387695,0.7202148-0.4511719
	c0.1577148-0.2124023,0.2363281-0.4165039,0.2363281-0.6132813c0-0.2490234-0.0942383-0.4458008-0.28125-0.5888672
	c-0.1879883-0.1425781-0.5961914-0.2138672-1.2250977-0.2138672h-1.75L41.34375,14.2436523z"/>
<path d="M58.2294922,17.6923828l-0.5727539,2.3950195h-9.0239258l2.3774414-9.8291016h3.4926758l-1.8164063,7.434082H58.2294922z"/>
<path d="M65.1289063,10.2583008l-2.4003906,9.8291016h-3.5083008l2.4003906-9.8291016H65.1289063z"/>
<path d="M78.2573242,10.2583008l-2.4130859,9.8291016h-3.246582l-2.7617188-5.7006836h-0.0297852l-1.3964844,5.7006836H65.152832
	l2.4082031-9.8291016h3.2431641l2.7543945,5.7250977h0.0297852l1.40625-5.7250977H78.2573242z"/>
<path d="M47.8173828,21.6953125l-1.4472656,5.9287109c-0.3417969,1.3828125-0.9521484,2.4057617-1.8291016,3.0673828
	c-0.8774414,0.6635742-2.1811523,0.9936523-3.9106445,0.9936523c-0.9589844,0-1.7250977-0.0825195-2.2988281-0.2475586
	c-0.5737305-0.1655273-1.0576172-0.4125977-1.4501953-0.7426758c-0.3930664-0.3300781-0.6787109-0.7060547-0.8569336-1.1274414
	c-0.1787109-0.421875-0.2680664-0.8730469-0.2680664-1.355957c0-0.6103516,0.0688477-1.1962891,0.206543-1.7553711
	l1.1542969-4.7607422h3.4794922l-1.347168,5.5322266c-0.0610352,0.2592773-0.0917969,0.5351563-0.0917969,0.8251953
	c0,0.7773438,0.5258789,1.1665039,1.5776367,1.1665039c0.5556641,0,1.0297852-0.1474609,1.4204102-0.4423828
	s0.6875-0.8681641,0.8916016-1.7167969l1.2768555-5.3647461H47.8173828z"/>
<path d="M50.1235352,21.6953125h6.3666992c1.0991211,0,1.9033203,0.2524414,2.4121094,0.7578125
	c0.5083008,0.503418,0.7631836,1.1098633,0.7631836,1.8203125c0,0.7680664-0.2695313,1.4389648-0.8085938,2.0126953
	c-0.5395508,0.5732422-1.4018555,0.9399414-2.5864258,1.1010742c0.7001953,0.4995117,1.5395508,1.8789063,2.5195313,4.137207
	h-3.6655273c-0.3046875-0.7124023-0.6640625-1.4897461-1.0776367-2.3344727
	c-0.4125977-0.8427734-0.7226563-1.3325195-0.9287109-1.4672852c-0.2060547-0.1342773-0.4541016-0.2011719-0.7460938-0.2011719
	h-0.1801758l-0.9677734,4.0029297h-3.4780273L50.1235352,21.6953125z M52.637207,25.6801758h0.6552734
	c1.0961914,0,1.8061523-0.0439453,2.1289063-0.1333008c0.3222656-0.0893555,0.5625-0.2392578,0.7197266-0.4516602
	c0.1577148-0.2119141,0.2363281-0.4165039,0.2363281-0.6132813c0-0.2485352-0.09375-0.4453125-0.28125-0.5883789
	c-0.1879883-0.1430664-0.5957031-0.2148438-1.2246094-0.2148438h-1.75L52.637207,25.6801758z"/>
<path d="M67.1533203,21.5351563c1.7070313,0,2.9609375,0.4008789,3.7607422,1.2016602
	c0.7998047,0.8017578,1.2006836,1.7866211,1.2006836,2.9560547c0,0.4501953-0.0756836,0.965332-0.2226563,1.5424805
	c-0.1479492,0.5786133-0.4335938,1.1772461-0.8554688,1.7954102c-0.4228516,0.6171875-0.9726563,1.1420898-1.6474609,1.5732422
	c-0.6748047,0.4316406-1.3237305,0.7182617-1.9453125,0.8637695c-0.621582,0.1450195-1.28125,0.2172852-1.9794922,0.2172852
	c-1.6005859,0-2.8491211-0.3549805-3.7456055-1.0644531c-0.8969727-0.7089844-1.3457031-1.7050781-1.3457031-2.9863281
	c0-0.6694336,0.1108398-1.3227539,0.3325195-1.9580078c0.2216797-0.6367188,0.5527344-1.2363281,0.9936523-1.8017578
	c0.440918-0.5634766,0.9838867-1.0375977,1.6279297-1.4194336c0.6450195-0.3813477,1.2792969-0.6298828,1.9038086-0.7460938
	S66.4956055,21.5351563,67.1533203,21.5351563z M65.6733398,29.4511719c0.668457,0,1.2358398-0.2211914,1.7026367-0.6630859
	c0.4667969-0.4423828,0.8066406-1,1.0214844-1.671875c0.2143555-0.6728516,0.3217773-1.1518555,0.3217773-1.4379883
	c0-0.6298828-0.1826172-1.1054688-0.5473633-1.4272461s-0.8300781-0.4824219-1.3964844-0.4824219
	c-0.6323242,0-1.1772461,0.2021484-1.6333008,0.6064453c-0.4570313,0.4042969-0.7998047,0.9428711-1.0292969,1.6147461
	c-0.2294922,0.6728516-0.34375,1.2456055-0.34375,1.7192383c0,0.5004883,0.1679688,0.9155273,0.5043945,1.246582
	C64.6103516,29.2856445,65.0771484,29.4511719,65.6733398,29.4511719z"/>
<path d="M75.090332,21.6953125h5.0976563c0.9589844,0,1.6816406,0.0996094,2.1699219,0.2988281
	c0.4863281,0.1982422,0.8574219,0.4946289,1.1123047,0.8852539c0.2558594,0.390625,0.3837891,0.8701172,0.3837891,1.4375
	c0,0.7368164-0.2285156,1.3925781-0.6855469,1.9672852c-0.4570313,0.5751953-1.0292969,0.9868164-1.7216797,1.2373047
	c-0.6904297,0.2504883-1.6494141,0.375-2.8730469,0.375h-1.5380859l-0.8769531,3.6279297h-3.4916992L75.090332,21.6953125z
	 M77.5356445,25.9487305h1.1679688c0.5429688,0,0.9902344-0.140625,1.3378906-0.4208984
	c0.3486328-0.2807617,0.5244141-0.6142578,0.5244141-1.0019531c0-0.5888672-0.3662109-0.8828125-1.0976563-0.8828125h-1.3662109
	L77.5356445,25.9487305z"/>
<path d="M95.5541992,21.6953125l-0.5117188,2.1088867h-5.6982422l-0.3837891,1.5727539h5.5039063l-0.5039063,1.9833984h-5.4814453
	l-0.4697266,1.9301758h6.1699219l-0.5517578,2.2338867h-9.6347656l2.3925781-9.8291016H95.5541992z"/>
<path d="M106.2202148,31.5244141h-3.3935547l-0.1582031-1.6088867h-3.6396484l-0.8740234,1.6088867H94.425293l6.3193359-9.8291016
	h3.6992188L106.2202148,31.5244141z M102.4624023,27.824707l-0.3535156-3.5771484h-0.0283203l-1.9150391,3.5771484H102.4624023z"/>
<path d="M120.5854492,21.6953125l-2.4140625,9.8291016h-3.2451172l-2.7617188-5.7011719h-0.03125l-1.3955078,5.7011719h-3.2558594
	l2.40625-9.8291016h3.2431641l2.7539063,5.7255859h0.03125l1.4052734-5.7255859H120.5854492z"/>
</svg>
