<svg fill-rule="evenodd" height="150.833602" viewBox="0 0 967.00141 219.997" width="662.982243" xmlns="http://www.w3.org/2000/svg"><g fill="#e6001a" transform="matrix(1.2496989 0 0 1.2496989 -29.57849 -533.38524)"><path d="m57.0801 506.659c5.76 2.304 9.216 9.432 8.928 17.496-.288 8.208-3.168 15.984-.936 25.056 2.232 8.928 7.2 13.248 17.784 14.904.792 4.464 1.944 9 4.032 12.96.216.576-5.472 3.96-7.272 7.201-.792 1.367 2.808 5.903 4.536 5.471 3.024-.792 7.92-6.48 8.064-6.408 4.968 3.24 10.1519 6.264 15.6959 8.281 0 0-7.488-.793-16.0559-.145-8.496.576-26.352 2.593-42.48-1.008-12.96-2.808-20.016-13.248-19.944-24.408.072-10.871 6.48-18.648 8.064-24.984 1.512-6.335.36-11.88-.72-16.704 3.096 1.944 6.408 5.112 7.416 11.233.936 5.903-1.584 10.871-2.016 18.215-.432 7.632 2.16 14.4 4.968 18.648 2.808 4.176 7.92 7.992 12.096 9.288 4.608 1.368 13.608 2.016 13.752-.648.072-2.664-6.408-2.304-11.952-3.96-4.104-1.224-7.272-3.6-9.72-7.631-2.52-4.105-4.32-10.224-3.528-18.145.792-7.704 7.56-17.64 9.576-24.84 2.016-6.984 1.224-13.608-.288-19.872zm141.9839-.288s-1.8 1.152-1.8 12.24c-.072 11.088 6.912 19.728 6.912 19.728.792 1.296 4.536 6.912 4.608 13.896.144 6.984-1.44 11.593-3.312 15.192-1.8 3.456-5.4 7.92-11.88 9.432-6.552 1.584-9.864 1.512-10.44 4.032-.576 2.376 8.856 1.08 12.528.216 3.744-.864 8.784-2.664 12.744-8.424 3.96-5.688 5.184-13.176 5.616-17.64s-.144-7.488-1.584-11.736c-1.512-4.248-.648-9.791 1.008-13.608 1.728-3.816 4.824-5.832 6.768-6.696-1.008 3.384-2.592 7.344-2.592 13.536 0 5.977 2.304 9.649 3.816 11.737 5.688 7.919 6.768 12.959 5.328 22.031-1.728 10.584-12.888 20.016-26.496 21.313-13.464 1.295-30.888-.432-38.016-.432-7.056 0-10.8 1.007-13.968 1.367 5.904-2.448 10.512-5.544 15.624-9.503 0 0 6.264 6.047 8.28 6.695 1.872.649 5.328-3.96 4.464-5.616-1.008-1.872-4.032-4.248-7.488-7.056 1.944-2.808 3.384-6.552 4.536-13.752 11.52.432 19.08-9.864 19.152-20.664.072-10.728-2.736-11.591-2.88-17.784-.36-14.688 9.072-18.504 9.072-18.504zm-63.792-10.296c0 1.44-2.088 1.44-2.088 0s2.088-1.44 2.088 0zm-79.6319-5.328c8.712 7.776 17.712 15.192 26.496 22.896l.144 44.857c-6.264-.937-10.008-3.169-11.736-10.009-1.656-6.912.144-12.672.504-24.048.288-11.52-5.76-20.376-18-25.056zm78.4799.792c-2.448.72-2.16.864-3.024 1.512-.792.648-1.008 1.224-1.44 1.368-.36.144-1.728.144-3.24.216-1.44 0-3.744-.072-4.464.432-.72.432 0 2.736.72 3.528s1.512 2.16 3.24 2.52c1.8.432 2.592.144 3.456.216.864.144 2.376 0 3.168.288.936.36 1.584 1.296.432 1.728-1.224.432-3.312.288-4.608.144s-2.808.216-2.592 1.368.864 2.016 2.448 2.304c1.512.36 3.312.288 4.464.648 1.152.288 1.152.648.504 1.44-.72.864-3.096 1.656-4.248 2.232-1.152.504-1.8.793-2.232 1.008-.432.216-.648.432-1.152.792-.432.288-1.08.864-1.368 1.152-.36.504-.864 1.224-1.512 1.224-.504.072-1.584-.72-1.728-.864-.792-.432-2.88-1.224-5.256-2.016-2.376-.72-5.4-1.656-5.904-1.872-.432-.288-1.44-1.152-1.8-1.512-.288-.288-1.008-1.512-1.008-1.512-.288-.504-.36-1.08-1.224-3.6-.864-2.448-2.088-3.96-2.952-4.392s-1.728-.216-2.232-.144c-.504.144-1.5119 1.008-1.9439 1.44s-.864.792-1.152 1.8 1.656 5.04 1.656 5.04c.504 2.52 2.2319 5.328 2.5199 5.832.216.433 1.008 1.512 1.584 2.232.648.72 1.656 1.728 2.664 2.808s2.592 2.232 3.888 3.169c1.296.863 4.68 2.591 4.68 2.591 2.592 1.513 4.248 2.16 4.32 2.232.072.144.36.36.36.505.072.143 0 .287-.072.503-.072.144-.648.432-1.224.864-.576.36-2.736 1.152-4.392 1.872-1.656.792-2.592 1.296-3.528 1.657-.864.359-1.656.647-2.016.647-.288 0-1.08.072-1.368-.072-.36-.072-.936-.936-.936-.936-.504-.431-2.016-2.664-2.592-3.384-.504-.792-1.584-1.943-2.232-2.304-.648-.288-1.3679-.36-1.7279-.36s-1.008.36-1.44.504c-.36.217-.792.504-1.152.936-.36.36-.864.936-1.008 1.297-.144.359-.432 1.079-.432 1.367 0 .289.072 1.008.36 1.872.288.792 2.304 2.016 3.312 2.952s2.5919 2.377 3.4559 3.096c.864.648 1.728 1.152 2.448 1.656.648.432 1.512.864 2.088 1.152s1.296.504 1.8.648c.432.072.792.216 1.44.361.648.143 2.088.287 2.88.287s2.16-.144 3.024-.287c.936-.145 3.168-.793 3.168-.793 1.728-.504 2.88-1.152 3.096-1.152s.432-.072.72.144.72 1.656.72 1.656c.36.864.864 2.593 1.224 3.385.36.791 1.368 2.231 1.512 2.88.144.647.216 1.151.144 1.367-.072.289-.288.504-.504.792-.288.289-.792.504-1.224.648s-1.152.576-2.016 1.08c-.792.576-2.232 1.873-3.312 2.808-1.08 1.008-2.232 2.664-2.88 3.529-.648.935-1.008 1.583-1.296 2.231-.36.649-.648 1.512-.936 2.16-.36.576-.72 1.656-.864 2.376-.072.72-.432 1.944-.36 3.168.072 1.152.288 1.656.432 2.088.144.504.288 1.296.216 1.8-.072.505-.576 1.224-.792 1.512-.216.36-.72.792-1.152.649-.432-.145-1.152-.721-2.592-1.441s-2.736-1.152-3.168-1.296c-.36-.216-1.152-.143-1.44 0-.36.072-1.008.72-1.368 1.008s-.864.648-1.008 1.008-.504.36-.504 1.8c0 1.296.648 1.872 1.08 2.232.432.288 1.08.504 1.584.792.504.216 1.296 1.368 2.232 1.8.936.504 2.808.936 3.312 1.08.432.144 2.16.432 4.032.936 1.944.432 3.456 1.296 4.536.936 1.152-.287 1.656-1.296 2.016-2.016.36-.719.648-1.943 1.08-2.952.432-1.08.864-2.592 1.296-3.6s1.08-2.016 1.584-2.735c.504-.721 1.296-1.513 2.016-2.305s2.232-2.088 2.88-2.664 1.728-1.368 2.016-1.512c.216-.071 1.008-.864 1.368-.864.432 0 .648.216.864.504.216.216.432 1.152.792 2.088.36 1.008 1.008 2.088 1.944 3.384s2.592 3.024 2.592 3.024 2.88 2.232 3.168 2.52c.36.289.936.504 1.152 1.08.144.504-.648 1.728-.648 1.728s-1.8.864-2.952 1.153c-1.152.287-2.304.143-3.96.719-1.584.648-1.944 2.736-1.944 3.6s1.584 3.528 2.664 3.96c1.008.432 5.688-.864 7.416-1.727 1.728-.937 3.456-2.593 4.824-3.745 1.368-1.08 3.672-3.024 4.176-4.248.504-1.296-.792-4.32-1.368-7.919-.576-3.673-.576-6.697-.648-9-.072-2.305.072-3.241.576-3.889.576-.647.432-2.16.216-3.527-.216-1.369-.792-2.161-1.08-2.809-.216-.648-1.152-1.368-1.728-3.168-.648-1.728-1.152-7.992-1.368-9.072-.288-1.08-1.44-4.535-1.368-8.639s3.024-9.865 3.096-13.177c0-2.16-.72-3.024-.864-4.031-.144-.937.072-2.737.36-3.889.36-1.08.792-2.592.864-4.176.072-1.512-.216-2.52-.576-3.6s-.72-1.944-.72-2.736c.072-.792.864-2.016.864-3.168-.072-1.152-.504-1.944-.864-2.376-.432-.432-.864-.72-1.512-.864-.648-.216-1.512-.072-2.016.072s-.36.72-1.296.648c-.864-.144-1.512-1.224-3.168-1.656-1.728-.36-3.744-.504-6.048.216zm66.384-1.08c.288.144 2.664 9 2.52 9.288-2.952 1.224-7.128 2.16-11.448 6.84s-7.416 11.448-6.48 18.72c.936 7.2 3.6 10.657 2.736 17.856-1.08 8.496-5.328 14.472-14.04 15.264v-44.927zm-31.536-1.728s.072 66.384-.072 70.632-.36 5.257-1.008 7.56c-.648 2.304-1.728 4.536-3.384 7.129-1.224 1.943-3.456 4.535-8.28 7.631-4.824 3.168-8.928 5.04-11.304 6.264-2.376 1.152-9.648 4.824-10.8 5.544-1.224.792-5.76 3.312-6.048 3.312s-4.104-2.16-6.624-3.672c-2.52-1.511-7.776-4.176-12.744-6.696-2.52-1.296-6.84-3.383-10.5119-5.76-3.816-2.448-5.688-4.824-6.984-7.487-1.368-2.665-2.808-6.409-3.24-8.353-.36-2.016-.864-4.176-1.008-7.2-.072-3.024 0-31.248 0-31.248v-37.584zm-40.464-7.992c16.416 0 37.944 2.88 37.512 3.024l-74.8079.144c1.512-.936 18.7199-3.168 37.2959-3.168zm65.808-8.568c1.512.072 25.776 29.304 25.416 30.456-.144.576-8.784 6.48-10.08 6.048-1.224-.36-6.408-19.368-7.416-22.752s-8.784-12.888-7.992-13.68c0-.072 0-.072.072-.072zm-132.2639-.72s0 .072.072.072c1.296 1.368-7.416 9.936-8.496 13.464-1.152 3.528-6.192 23.688-7.056 23.832-.936.144-9.792-5.544-9.936-6.12-.072-.504 23.4-31.536 25.416-31.248zm57.6719-.864-.144 6.048-6.984.288c-7.632.432-13.2479.936-19.2959 2.088-6.264 1.224-7.2 1.872-7.992 1.944l-1.656-6.696 7.272-1.44c3.744-.576 18.9359-2.016 18.9359-2.016zm21.384-.144c2.592 0 6.48.144 11.664.792 10.296 1.152 19.296 3.024 19.224 3.024 0 0-1.728 6.264-1.728 6.264-.72-.144 0-.144-6.408-1.296-5.76-1.008-14.544-2.016-21.528-2.376 0 0-5.256-.36-5.256-.36l.144-5.832s1.296-.216 3.888-.216zm-12.672-5.256c2.952 0 5.112 2.16 5.256 4.752s.144 6.552.144 6.552h-10.8l.144-6.552c0-2.232 2.304-4.752 5.256-4.752zm-.288-11.016s2.16 9.864 12.672 10.44c7.848.432 11.664-6.984 11.664-6.984s1.152 7.488 9.288 9.288c7.704 1.728 13.032-3.672 13.032-3.672l-1.44 6.912s-7.776-1.512-20.232-2.664c-12.312-1.152-16.632-.504-16.632-.504s-2.232-5.832-8.208-5.76-8.28 5.544-8.28 5.544-13.968.288-18.864.864c-4.8239.576-18.5039 2.448-18.5039 2.448l-1.584-7.056s5.472 4.896 11.88 3.672c6.264-1.224 8.9999-4.032 10.5119-8.784 0 0 2.16 2.808 3.96 4.248 1.8 1.512 4.32 2.52 8.424 2.448s7.128-2.016 9.432-4.536c2.232-2.448 2.88-5.904 2.88-5.904zm-38.7359-2.448c1.152 1.368 2.592 2.52 4.248 3.024 1.584.504 3.024.792 5.256.072.216 4.392-2.736 6.984-6.192 7.632-3.312.648-7.92-.648-10.152-4.536 1.8-.36 3.024-.864 4.32-2.088 1.296-1.152 2.088-2.376 2.52-4.104zm77.0399-.576c.72 3.816 2.952 5.976 6.984 6.48 0 0-2.376 6.552-10.224 5.544-4.32-.576-6.48-5.544-6.192-8.208 3.384 1.584 7.776.072 9.432-3.816zm-25.56-2.952c.216 0 .648 2.304 3.024 3.888 2.736 1.8 4.824 1.512 4.824 1.512s-1.368 7.272-8.136 6.768c-6.84-.504-7.92-7.632-7.92-7.632s2.808.144 4.968-1.08c2.16-1.152 3.096-3.456 3.24-3.456zm-25.488 0c.144.72 1.584 2.664 3.096 3.528 1.584.864 3.6 1.152 5.4.792-.432 2.16-1.152 3.384-2.16 4.824s-5.256 4.896-10.8 1.8c-2.88-1.656-3.744-5.616-3.744-5.616s2.88.072 4.68-1.08c2.88-1.728 3.312-4.248 3.528-4.248zm66.024-10.008h.36s-2.304 10.152-2.592 10.584c-.36.432-1.08-.072-2.016.72-.648.504-1.368 2.88-1.368 2.88s-.432 1.224-1.656 1.08c-1.728-.144-2.52-1.656-2.736-2.88-.216-1.296.792-2.664 1.152-3.024 1.152-1.296 4.752-1.152 5.472-1.728.72-.72.288-4.176.648-5.4.504-1.944 2.016-2.232 2.736-2.232zm-106.9199-.216c.432 0 1.152.144 1.8.936.864 1.08 1.008 2.304 1.152 2.88.072 3.024-.504 4.176 2.448 4.536.864.072 2.52.432 3.168.864.72.504 1.224 1.368 1.296 2.088 0 .648.072 1.44-.144 2.16-.144.504-.36.864-.936 1.368-.504.432-1.8 1.296-2.52.792-.648-.504-.648-2.736-1.368-3.672-.864-1.008-2.232-.648-2.52-1.224-.288-.648-2.808-10.656-2.664-10.656 0-.072.144-.072.288-.072zm80.4239-4.176c2.016-.072 2.88.936 3.24 2.304.432 1.44-.144 2.448-.648 3.168-.576.792-.792 1.8-.432 2.808.36 1.08 2.232.792 4.536 2.088 1.224.72 1.656 3.456.576 4.968-.648.864-1.368 1.368-3.024 1.512-.288 0-1.8.144-1.944-1.944-.072-1.008.288-4.176-3.096-4.248s-3.384 2.592-3.456 3.168c-.144 1.512-1.08 1.8-1.8 1.728-.72 0-2.232-.216-3.096-2.088-.792-1.872.144-3.672.432-3.96 2.016-1.944 4.68-.936 5.472-1.368.648-.36.864-1.872.432-3.024-.432-1.08-.648-2.448-.288-3.24.288-.72 1.008-1.8 3.096-1.872zm-54-.072c1.368 0 3.312 1.44 3.312 3.168 0 1.8-.72 2.16-.864 2.592-.216.432-.072 1.368.144 1.728.216.432.432.648 1.008.864.648.144 1.512-.144 2.88-.072 1.44.072 2.088.36 2.592.936.504.648.792 1.152.864 2.52.072 1.512-.576 2.52-.864 2.808-.288.36-.576.576-.864.72-.36.216-.936.36-1.224.36-.288.072-1.008 0-1.512-.576-.576-.576-.72-1.224-.864-1.656-.144-.504-.504-2.736-3.024-2.736-2.448.072-2.8079 1.44-3.0959 2.592 0 0-.288 2.16-.648 2.736-.432.648-.864 1.224-1.584 1.368-.648.216-1.944-.072-2.52-.432-.648-.288-1.008-.792-1.296-1.368-.288-.504-.432-1.368-.432-2.016.072-.648.288-1.656.72-2.16.648-.936 1.872-1.944 3.456-2.232 1.512-.288 1.872-1.872 1.296-2.88s-.864-1.08-.936-3.096 2.088-3.168 3.4559-3.168zm27.792-2.232c2.304 0 3.312 1.584 3.312 3.384 0 1.872-.864 2.088-1.152 2.952-.288.792-.432 2.304.288 2.808 1.224.792 3.312.216 4.68 1.512 1.584 1.584 1.368 2.376 1.08 3.96-.36 1.512-1.872 2.232-3.024 2.376-1.152.072-2.016-1.152-2.304-2.16-.216-1.008-.144-3.816-3.24-3.816s-3.024 3.024-3.168 3.528c-.072.288-.576 2.16-1.872 2.304-2.376.216-3.024-.864-3.528-1.8-.216-.576-.576-2.232 0-3.528.504-1.224 3.096-1.8 5.328-2.016 1.368-.144 1.296-2.592 1.008-3.456-.36-.936-1.008-1.728-.936-2.808.144-1.224 1.224-3.312 3.528-3.24zm-.576-4.68c-4.968.144-6.696 3.888-6.984 4.536-.288.72-.576 1.872-.72 2.808-.072.936.432 2.88.072 3.24-.288.36-1.728.072-3.24 1.368-1.656 1.44-2.088 3.456-2.304 3.456s-.432-1.008-1.296-1.872-1.44-1.584-2.304-1.872l-2.376-.72s0-3.096-.864-4.824c-.864-1.656-3.456-3.96-7.416-3.888-3.8879.072-5.9759 1.728-7.3439 4.392-1.368 2.736-.216 6.264-.072 6.696-.144.36-1.296.216-2.808 1.8-1.368 1.368-2.304 3.888-2.304 3.888s-1.008-1.584-2.88-2.664c-1.728-.936-2.664-.504-3.024-.936-.216-.144.288-1.728-1.08-4.536-1.872-3.672-5.904-4.32-9.072-3.744-1.584.288-3.168 1.584-3.168 1.584l13.176 50.112v17.208l-23.616-20.16s2.952-3.24 5.76-7.776c3.96-6.48 6.912-8.856 4.968-10.728-2.088-1.872-10.368 5.256-15.408 11.304-1.872 2.304-21.816 25.416-21.528 27.504s13.176 10.728 15.048 10.152c1.728-.576 4.536-9.72 4.536-9.72s2.376 7.56 2.232 13.321c-.216 5.76-1.512 12.095-5.112 17.351-.792-5.471-3.168-8.784-6.768-11.952-5.256-4.608-12.384-5.832-12.312-5.616 2.304 9.432 3.888 15.408 2.376 22.753-1.584 7.344-8.424 11.016-8.64 25.919-.216 14.832 9.288 28.008 23.616 30.816 14.256 2.736 31.608 1.656 39.816 1.008 8.28-.648 20.5919-1.872 30.3119.936 3.816 1.152 9.432 4.896 10.872 4.896 1.512 0 6.624-4.104 12.6-5.04 9.792-1.512 19.728-1.584 29.664-1.368s19.872.72 29.808.36c11.952-.432 21.6-4.968 27.72-15.264 2.088-3.528 4.104-7.776 4.104-16.56 0-9-3.168-13.968-4.824-16.703-1.656-2.665-4.896-5.113-4.608-12.241.288-7.056 2.16-16.128 3.528-19.512-3.312.36-10.224 3.168-13.68 6.552-4.752 4.68-5.688 11.88-5.688 11.88-2.808-3.168-5.04-13.104-5.112-16.848-.216-6.408 1.944-14.688 2.16-14.688s1.584 4.392 1.584 4.392c.648 1.296.936 4.392 3.168 5.04 2.16.649 14.976-7.848 14.976-9.576-.072-3.312-15.192-19.512-20.016-25.848-4.68-6.336-14.688-15.12-16.704-13.464s.936 5.4 4.104 10.08l5.904 8.64-23.184 20.232.072-18.216 13.536-49.752s-6.048-2.592-9.072-.504c-5.328 3.6-4.464 7.776-4.464 7.776s-1.656.072-3.528 1.152c-1.512.792-2.016 2.304-2.52 2.376-.144 0-.288-1.8-1.44-3.384-.792-1.152-2.736-2.448-3.24-2.448-.216-.792.144-2.232 0-3.168-.144-1.008-.216-2.52-.648-3.384-.36-.792-1.944-3.96-6.984-4.464-4.968-.504-7.704 3.888-8.064 4.608-.216.432-.432 4.032-.576 4.32-.216.288-1.8.432-3.024 1.368-1.872 1.44-2.232 3.456-2.304 3.384 0 0-.648-2.16-1.872-3.312-1.296-1.152-2.952-1.728-2.952-1.728s0-2.952-.144-3.96c-.072-1.008-.36-2.016-.648-2.664-.288-.576-1.872-4.032-7.344-4.104-.144 0-.288 0-.432 0z"/><g><path d="m524.288 528.188c2.88 1.439 5.76 3.239 5.76 9.719 0 6.336-2.808 8.64-4.752 9.864-2.448 1.512-6.12 1.8-13.032 1.8v-22.464c7.344 0 10.296.216 12.024 1.081zm252.144.359c3.6 1.944 5.256 4.824 5.256 9.505 0 4.823-2.016 8.063-5.616 9.935-3.672 1.872-7.92 1.584-12.456 1.584v-22.464c6.336 0 9.216-.432 12.816 1.44zm-27.792-14.184v81.864h14.976v-33.912c5.832 0 10.296.289 11.808 5.832 3.456 12.6 5.904 28.08 5.904 28.08h16.128s-5.112-22.032-8.424-29.448c-3.384-7.416-5.976-8.064-7.128-9.576 2.16-.648 6.984-2.088 10.512-6.911 6.12-8.209 6.192-22.537-.648-30.025-4.32-4.608-11.52-5.688-16.056-5.904-4.536-.288-27.072 0-27.072 0zm-59.832 0v81.864h14.904v-35.64h20.736v35.64h14.976v-81.864h-14.976v32.544h-20.736v-32.544zm-52.416 0v81.864h44.928v-13.68h-30.384v-22.464h26.856v-13.176h-26.856v-18.936h29.016l-.072-13.608zm-86.256 0c.576 16.92 2.808 48.816 3.024 51.696.792 10.152 3.168 20.088 4.392 30.168h18.288c4.608-22.536 10.872-55.656 12.312-65.88 1.224 10.153 8.28 43.56 12.816 65.88h17.856c.072-.144 3.816-20.736 4.824-30.528l2.736-51.336h-15.408v48.241l-1.44 17.351s-1.08-12.168-2.376-18.288l-10.08-47.304h-17.424s-8.208 39.024-10.08 48.672c-1.8 9.648-1.08 10.728-2.016 15.552-.072.144-1.08-8.064-1.368-17.856-.36-9.792-.648-46.368-.648-46.368zm-52.848 81.864h14.976s-.36-32.976 0-33.912c4.176 0 9.504-.504 11.304 4.896 2.736 8.136 6.12 29.016 6.12 29.016h16.416c-3.096-11.088-5.976-26.064-10.08-32.328-2.664-3.96-5.472-6.623-5.472-6.623 6.192-2.233 8.28-3.889 10.944-7.993 4.104-6.408 5.256-15.264 2.16-23.616-2.664-7.056-8.352-9.864-17.352-11.016-2.952-.359-14.688-.216-29.016-.216zm-55.008-81.864v81.864h44.856v-13.68h-29.88v-22.464h26.352v-13.176h-26.352v-18.936h28.584v-13.608zm-63.864 0 .072 54.504c.072 13.753 6.552 28.584 26.424 28.584 19.8 0 26.28-15.48 26.28-28.512l.072-54.576h-14.976v52.992c0 9.792-4.104 16.921-11.52 16.848-7.416-.072-11.376-6.12-11.376-16.848v-52.992zm-51.48 0v81.864h44.856v-13.68h-29.88v-22.464h26.424v-13.176h-26.424v-18.936h28.584v-13.608zm-54.576 0v81.864h14.976v-34.776h25.488v-13.68h-25.488v-19.8h27.72v-13.608z"/><path d="m281.936 465.043c3.168-.072 9.792 0 11.88.864 5.112 2.088 7.632 5.688 7.632 11.088 0 5.472-2.52 9.36-6.768 11.448-2.736 1.296-14.4.792-14.4.792v-24.192zm325.656-28.152c5.4 1.152 7.056 5.976 7.2 10.944.072 4.968-1.944 9.864-6.912 11.736-4.248 1.152-8.928.648-13.32.648v-23.76c4.32.072 8.712-.36 13.032.432zm-322.272-.504c7.416 0 13.464.936 13.464 10.296 0 11.448-9.216 11.232-18.504 11.304v-21.6h3.528zm90.504-.072c4.68.144 9.432-.36 13.824 1.008 4.32 1.296 6.192 4.968 6.192 10.152 0 8.424-3.384 11.736-8.856 12.384-5.4.648-5.112.432-11.16.432zm211.248-6.912v67.32h7.488s0-24.408 0-29.952c8.424 0 13.752-.936 16.92 9.288 3.168 10.296 3.384 13.32 4.968 20.664h8.28c-1.872-8.568-4.32-19.44-6.768-24.696-1.728-3.672-3.168-5.04-5.472-6.408 7.992-2.808 10.008-10.296 10.296-18.072.144-7.56-3.096-15.192-10.8-17.424-8.208-1.224-16.632-.72-24.912-.72zm-45.432 0 .072 67.32h32.904l-.072-7.128-25.488-.144.144-23.976h22.464v-7.488h-22.464v-21.528l24.696-.072v-6.984zm-53.208 0 .072 67.32h7.488v-55.44l20.88 55.44h10.296l.072-67.32h-7.488v54.72l-20.592-54.72zm-36.936 0v6.984h9.72v53.28h-10.584v7.056h28.584v-7.056h-10.512v-53.28h9.648v-6.984zm-36.504 0v67.32h29.88v-7.056h-21.96v-60.264zm-47.088 0v67.32h7.92v-29.952c9.144-.216 14.472.792 16.992 10.296 1.728 6.48 3.24 13.104 4.824 19.656 0 0 8.28-.072 8.28 0-.864-3.672-3.384-13.824-4.608-18.432s-2.664-9.648-7.488-12.528l-.072-.144c3.528-1.44 5.688-2.304 8.136-7.704s2.736-15.192.216-20.088c-2.52-4.824-6.768-8.424-14.472-8.424zm-44.496 0v67.32h33.48v-7.488h-25.56v-23.76h22.464v-7.488h-22.464v-21.6h24.624v-6.984zm-50.616 0v67.32c15.048.072 22.32 1.584 29.88-4.032 6.696-4.968 8.496-16.776 4.68-24.048-2.376-4.68-6.984-7.488-11.16-7.416 2.016-.72 10.512-2.952 10.512-15.12s-8.136-16.704-16.56-16.704z"/></g></g></svg>