<?xml version="1.0" encoding="utf-8"?>
<svg version="1.1" id="Layer_1" xmlns="http://www.w3.org/2000/svg" xmlns:xlink="http://www.w3.org/1999/xlink" x="0px" y="0px"
	 width="300px" height="177.871px" viewBox="-388.489 455.922 300 177.871" >
<g>
	<rect x="-264.857" y="536.056" width="3.891" height="24.519"/>
	<path d="M-256.562,547.837c0-1.999-0.073-3.413-0.135-4.973h3.385l0.18,2.066h0.073c0.833-1.419,2.331-2.365,4.178-2.365
		c2.996,0,4.55,2.292,4.55,6.403v11.605h-3.892v-11.24c0-1.745-0.36-3.491-2.078-3.491c-0.94,0-1.808,0.727-2.179,2.186
		c-0.107,0.365-0.175,0.945-0.175,1.599v10.947h-3.902v-12.737H-256.562z"/>
	<path d="M-221.557,549.987c0.034-2.838-0.912-4.505-2.292-4.505c-1.678,0-2.438,2.444-2.511,4.505H-221.557z M-226.395,552.759
		c0.034,3.964,1.892,5.057,3.965,5.057c1.284,0,2.365-0.287,3.17-0.653l0.546,2.799c-1.092,0.507-2.804,0.839-4.443,0.839
		c-4.55,0-7.022-3.312-7.022-8.802c0-5.862,2.838-9.433,6.617-9.433c3.717,0,5.609,3.391,5.609,8.12c0,1.014-0.073,1.6-0.112,2.073
		H-226.395z"/>
	<path d="M-214.715,547.837c0-1.634-0.113-3.452-0.141-4.973h3.385l0.214,2.691h0.107c0.693-1.818,2.151-2.99,3.604-2.99
		c0.366,0,0.591,0.034,0.811,0.079v3.892c-0.22-0.073-0.473-0.073-0.811-0.073c-1.334,0-2.726,1.126-3.131,3.052
		c-0.107,0.439-0.135,1.02-0.135,1.712v9.348h-3.891v-12.737H-214.715z"/>
	<path d="M-204.343,547.837c0-1.999-0.079-3.413-0.146-4.973h3.39l0.175,2.066h0.079c0.839-1.419,2.326-2.365,4.184-2.365
		c2.99,0,4.55,2.292,4.55,6.403v11.605h-3.897v-11.24c0-1.745-0.36-3.491-2.072-3.491c-0.946,0-1.813,0.727-2.179,2.186
		c-0.113,0.365-0.186,0.945-0.186,1.599v10.947h-3.891v-12.737H-204.343z"/>
	<path d="M-181.13,551.699c-1.526,0.04-4.257,0.429-4.257,3.525c0,2.005,1.059,2.726,1.932,2.726c0.94,0,1.887-0.647,2.219-2.032
		c0.073-0.254,0.113-0.58,0.113-0.907v-3.312H-181.13z M-177.312,556.543c0,1.374,0.034,2.871,0.22,4.031h-3.492l-0.22-1.813h-0.073
		c-0.906,1.385-2.219,2.111-3.745,2.111c-2.545,0-4.471-2.146-4.471-5.243c0-4.55,3.852-6.476,7.855-6.51v-0.473
		c0-1.824-0.732-3.131-2.658-3.131c-1.278,0-2.326,0.36-3.306,0.979l-0.727-2.652c0.867-0.558,2.726-1.278,4.871-1.278
		c4.584,0,5.75,3.131,5.75,6.915v7.063H-177.312z"/>
	<path d="M-168.617,538.455v4.409h3.424v2.844h-3.424v9.168c0,2.179,0.839,2.726,1.819,2.726c0.439,0,0.799-0.034,1.205-0.107
		l0.067,3.013c-0.585,0.181-1.453,0.293-2.54,0.293c-1.245,0-2.365-0.332-3.131-1.087c-0.868-0.873-1.313-2.185-1.313-4.804v-9.201
		h-2.112v-2.844h2.112v-3.053L-168.617,538.455z"/>
	<path d="M-162.434,542.858h3.891v17.716h-3.891V542.858z M-158.425,538.241c0.034,1.306-0.873,2.219-2.146,2.219
		c-1.132,0-2.044-0.913-2.004-2.219c-0.04-1.386,0.912-2.265,2.072-2.265C-159.303,535.982-158.425,536.855-158.425,538.241"/>
	<path d="M-151.335,551.699c0,2.985,0.507,6.184,2.585,6.184c1.926,0,2.365-3.525,2.365-6.184c0-2.584-0.439-6.121-2.444-6.121
		C-150.935,545.584-151.335,549.115-151.335,551.699 M-142.527,551.666c0,7.174-3.677,9.207-6.369,9.207
		c-3.739,0-6.33-3.125-6.33-9.095c0-6.397,3.165-9.201,6.476-9.201C-145.039,542.565-142.527,545.843-142.527,551.666"/>
	<path d="M-139.182,547.837c0-1.999-0.073-3.413-0.146-4.973h3.384l0.18,2.066h0.073c0.845-1.419,2.332-2.365,4.189-2.365
		c2.985,0,4.55,2.292,4.55,6.403v11.605h-3.891v-11.24c0-1.745-0.366-3.491-2.078-3.491c-0.946,0-1.819,0.727-2.179,2.186
		c-0.118,0.365-0.186,0.945-0.186,1.599v10.947h-3.891v-12.737H-139.182z"/>
	<path d="M-115.964,551.699c-1.538,0.04-4.257,0.429-4.257,3.525c0,2.005,1.059,2.726,1.932,2.726c0.946,0,1.892-0.647,2.219-2.032
		c0.073-0.254,0.118-0.58,0.118-0.907v-3.312H-115.964z M-112.146,556.543c0,1.374,0.04,2.871,0.22,4.031h-3.491l-0.214-1.813
		h-0.073c-0.912,1.385-2.224,2.111-3.75,2.111c-2.545,0-4.472-2.146-4.472-5.243c0-4.55,3.852-6.476,7.856-6.51v-0.473
		c0-1.824-0.727-3.131-2.658-3.131c-1.272,0-2.326,0.36-3.306,0.979l-0.732-2.652c0.873-0.558,2.737-1.278,4.877-1.278
		c4.589,0,5.75,3.131,5.75,6.915v7.063H-112.146z"/>
	<rect x="-108.109" y="535.396" width="3.892" height="25.178"/>
	<path d="M-92.098,549.987c0.034-2.838-0.913-4.505-2.292-4.505c-1.678,0-2.438,2.444-2.512,4.505H-92.098z M-96.93,552.759
		c0.034,3.964,1.887,5.057,3.965,5.057c1.272,0,2.365-0.287,3.165-0.653l0.546,2.799c-1.087,0.507-2.799,0.839-4.438,0.839
		c-4.55,0-7.022-3.312-7.022-8.802c0-5.862,2.838-9.433,6.611-9.433c3.722,0,5.614,3.391,5.614,8.12c0,1.014-0.084,1.6-0.118,2.073
		H-96.93z"/>
	<polygon points="-264.857,568.869 -254.771,568.869 -254.771,572.254 -260.966,572.254 -260.966,579.563 -255.177,579.563 
		-255.177,582.807 -260.966,582.807 -260.966,593.394 -264.857,593.394 	"/>
	<path d="M-251.285,575.678h3.891v17.716h-3.891V575.678z M-247.281,571.055c0.034,1.312-0.873,2.225-2.146,2.225
		c-1.132,0-2.038-0.913-1.999-2.225c-0.051-1.38,0.901-2.259,2.061-2.259C-248.154,568.796-247.281,569.675-247.281,571.055"/>
	<path d="M-235.309,580.661c0-2.004-0.084-3.424-0.146-4.983h3.384l0.214,2.112h0.073c0.845-1.347,2.264-2.405,4.117-2.405
		c1.819,0,3.17,0.873,3.778,2.546h0.079c0.473-0.767,1.087-1.459,1.785-1.893c0.727-0.439,1.565-0.653,2.472-0.653
		c2.804,0,4.449,2.186,4.449,6.555v11.46h-3.857v-10.738c0-2.141-0.293-4.032-2.044-4.032c-0.985,0-1.785,0.76-2.151,2.072
		c-0.068,0.36-0.102,0.867-0.102,1.413v11.285h-3.902v-11.324c0-1.588-0.208-3.458-1.971-3.458c-0.895,0-1.808,0.732-2.14,2.19
		c-0.113,0.36-0.175,0.873-0.175,1.38v11.206h-3.857v-12.732H-235.309z"/>
	<path d="M-210.39,593.394v-14.883h-2.286v-2.833h2.286v-0.867c0-1.971,0.366-3.857,1.718-5.276
		c1.059-1.132,2.511-1.605,3.931-1.605c1.126,0,1.965,0.187,2.579,0.406l-0.507,3.052c-0.366-0.146-0.873-0.259-1.498-0.259
		c-1.779,0-2.326,1.712-2.326,3.604v0.946h3.131v2.833h-3.131v14.883H-210.39z"/>
	<path d="M-193.282,582.802c0.034-2.833-0.912-4.5-2.292-4.5c-1.678,0-2.438,2.433-2.511,4.5H-193.282z M-198.12,585.566
		c0.034,3.97,1.887,5.057,3.965,5.057c1.278,0,2.365-0.281,3.17-0.653l0.541,2.805c-1.087,0.507-2.799,0.834-4.438,0.834
		c-4.55,0-7.022-3.301-7.022-8.797c0-5.862,2.838-9.427,6.617-9.427c3.717,0,5.609,3.391,5.609,8.109c0,1.025-0.079,1.6-0.118,2.072
		H-198.12L-198.12,585.566z"/>
	<path d="M-186.733,589.717c0.647,0.434,1.887,0.946,3.052,0.946c1.38,0,2.224-0.761,2.224-2.033c0-1.098-0.512-1.824-2.146-2.883
		c-2.624-1.561-3.604-3.278-3.604-5.058c0-3.052,2.252-5.311,5.412-5.311c1.458,0,2.551,0.4,3.424,0.873l-0.806,2.872
		c-0.681-0.439-1.492-0.766-2.438-0.766c-1.34,0-1.994,0.873-1.994,1.858c0,0.94,0.428,1.486,2.146,2.579
		c2.359,1.413,3.599,3.165,3.599,5.35c0,3.604-2.518,5.457-5.868,5.457c-1.374,0-2.979-0.4-3.778-1.02L-186.733,589.717z"/>
	<path d="M-170.149,571.269v4.409h3.418v2.838h-3.418v9.168c0,2.186,0.839,2.731,1.824,2.731c0.428,0,0.794-0.039,1.2-0.107
		l0.067,3.014c-0.585,0.186-1.453,0.287-2.545,0.287c-1.239,0-2.359-0.327-3.131-1.082c-0.862-0.872-1.307-2.185-1.307-4.809v-9.202
		h-2.111v-2.838h2.111v-3.052L-170.149,571.269z"/>
	<path d="M-164.247,589.717c0.647,0.434,1.887,0.946,3.052,0.946c1.385,0,2.219-0.761,2.219-2.033c0-1.098-0.507-1.824-2.14-2.883
		c-2.625-1.561-3.604-3.278-3.604-5.058c0-3.052,2.258-5.311,5.417-5.311c1.453,0,2.551,0.4,3.418,0.873l-0.8,2.872
		c-0.687-0.439-1.492-0.766-2.433-0.766c-1.352,0-2.005,0.873-2.005,1.858c0,0.94,0.428,1.486,2.14,2.579
		c2.365,1.413,3.598,3.165,3.598,5.35c0,3.604-2.506,5.457-5.856,5.457c-1.38,0-2.985-0.4-3.784-1.02L-164.247,589.717z"/>
	<path d="M-148.463,586.918c0,0.552,0.073,1.093,0.18,1.498c0.473,1.712,1.385,2.066,1.999,2.066c1.965,0,2.658-2.799,2.658-5.93
		c0-3.491-0.833-5.862-2.619-5.862c-0.985,0-1.847,1.099-2.066,2.27c-0.119,0.389-0.146,0.834-0.146,1.307v4.651H-148.463z
		 M-152.32,581.241c0-2.365-0.107-4.077-0.141-5.563h3.384l0.214,2.14h0.079c0.833-1.633,2.185-2.438,3.705-2.438
		c3.537,0,5.316,3.824,5.316,9.135c0,6.402-2.726,9.173-5.604,9.173c-1.56,0-2.506-0.945-3.018-1.858h-0.073v8.549h-3.857v-19.136
		H-152.32z"/>
	<path d="M-136.417,575.678h3.897v17.716h-3.897V575.678z M-132.419,571.055c0.039,1.312-0.868,2.225-2.146,2.225
		c-1.126,0-2.039-0.913-2-2.225c-0.039-1.38,0.913-2.259,2.067-2.259C-133.286,568.796-132.419,569.675-132.419,571.055"/>
	<path d="M-120.593,582.802c0.04-2.833-0.907-4.5-2.281-4.5c-1.678,0-2.438,2.433-2.523,4.5H-120.593z M-125.43,585.566
		c0.034,3.97,1.892,5.057,3.97,5.057c1.272,0,2.359-0.281,3.165-0.653l0.541,2.805c-1.081,0.507-2.798,0.834-4.432,0.834
		c-4.55,0-7.034-3.301-7.034-8.797c0-5.862,2.838-9.427,6.623-9.427c3.717,0,5.603,3.391,5.603,8.109c0,1.025-0.073,1.6-0.107,2.072
		H-125.43L-125.43,585.566z"/>
	<rect x="-113.74" y="568.222" width="3.892" height="25.167"/>
	<path d="M-97.741,582.802c0.034-2.833-0.907-4.5-2.287-4.5c-1.678,0-2.438,2.433-2.517,4.5H-97.741z M-102.578,585.566
		c0.034,3.97,1.892,5.057,3.97,5.057c1.278,0,2.365-0.281,3.165-0.653l0.546,2.805c-1.087,0.507-2.805,0.834-4.438,0.834
		c-4.55,0-7.028-3.301-7.028-8.797c0-5.862,2.838-9.427,6.622-9.427c3.711,0,5.604,3.391,5.604,8.109c0,1.025-0.073,1.6-0.113,2.072
		H-102.578L-102.578,585.566z"/>
	<path d="M-260.999,623.263c0.327,0.079,0.727,0.112,1.239,0.112c2.365,0,4.111-1.419,4.111-4.212c0-2.872-2.004-4.291-4.212-4.325
		h-1.132v8.425H-260.999z M-260.999,611.915h1.166c1.965,0,3.564-1.604,3.564-3.823c0-2.038-0.946-3.559-3.345-3.559
		c-0.591,0-1.064,0.033-1.385,0.135V611.915z M-264.857,602.055c1.312-0.332,2.985-0.473,4.837-0.473
		c2.264,0,4.331,0.366,5.823,1.712c1.2,1.053,1.751,2.618,1.751,4.358c0,2.292-1.245,4.37-3.638,5.396v0.112
		c2.833,0.8,4.443,3.097,4.443,6.037c0,2.004-0.659,3.638-1.791,4.843c-1.419,1.56-3.818,2.365-7.343,2.365
		c-1.785,0-3.131-0.118-4.077-0.26v-24.091H-264.857z"/>
	<path d="M-240.36,615.615c0.034-2.832-0.913-4.505-2.292-4.505c-1.678,0-2.438,2.444-2.512,4.505H-240.36z M-245.203,618.392
		c0.04,3.97,1.887,5.057,3.964,5.057c1.273,0,2.365-0.287,3.165-0.658l0.546,2.804c-1.087,0.507-2.799,0.834-4.438,0.834
		c-4.55,0-7.022-3.306-7.022-8.802c0-5.852,2.833-9.422,6.611-9.422c3.722,0,5.614,3.385,5.614,8.109
		c0,1.025-0.084,1.605-0.118,2.078H-245.203z"/>
	<path d="M-233.53,613.476c0-1.639-0.107-3.458-0.135-4.984h3.385l0.214,2.698h0.107c0.692-1.825,2.151-2.99,3.604-2.99
		c0.366,0,0.58,0.033,0.8,0.073v3.896c-0.22-0.079-0.473-0.079-0.8-0.079c-1.346,0-2.726,1.127-3.131,3.053
		c-0.107,0.438-0.146,1.024-0.146,1.717v9.354h-3.891v-12.738H-233.53z"/>
	<rect x="-223.162" y="601.03" width="3.897" height="25.178"/>
	<path d="M-215.081,608.491h3.891v17.717h-3.891V608.491z M-211.077,603.868c0.034,1.313-0.867,2.225-2.146,2.225
		c-1.126,0-2.044-0.912-2.005-2.225c-0.04-1.38,0.913-2.252,2.072-2.252C-211.95,601.616-211.077,602.488-211.077,603.868"/>
	<path d="M-207.186,613.476c0-2.005-0.079-3.424-0.146-4.984h3.39l0.175,2.067h0.079c0.839-1.419,2.326-2.359,4.184-2.359
		c2.99,0,4.55,2.292,4.55,6.402v11.612h-3.891v-11.246c0-1.751-0.366-3.486-2.078-3.486c-0.946,0-1.813,0.722-2.179,2.186
		c-0.113,0.36-0.186,0.946-0.186,1.594v10.953h-3.897V613.476z"/>
	<path d="M-235.675,538.455v4.409h3.418v2.844h-3.418v9.168c0,2.179,0.839,2.726,1.819,2.726c0.434,0,0.8-0.034,1.205-0.107
		l0.068,3.013c-0.586,0.181-1.453,0.293-2.54,0.293c-1.245,0-2.365-0.332-3.137-1.087c-0.861-0.873-1.306-2.185-1.306-4.804v-9.201
		h-2.112v-2.844h2.112v-3.053L-235.675,538.455z"/>
	<rect x="-243.39" y="568.222" width="3.891" height="25.167"/>
</g>
<g>
	<path d="M-380.428,559.482c0.754-0.187,1.379-0.94,1.695-1.628c0.186-0.434,0.253-1.069-0.067-1.441
		c-0.377-0.434-0.878-0.637-1.447-0.563c-0.434,0.063-0.873,0.378-1.126,0.812c-0.439,0.568-0.377,1.503-0.186,2.19
		C-381.375,559.296-380.93,559.544-380.428,559.482z"/>
	<path d="M-317.589,533.082c0.563,0.057,0.997-0.568,1.571-0.568c-0.191,0.197,0.062,0.389,0.062,0.568
		c0.248,0.124,0.062-0.247,0.31-0.371c0.129,0,0.321-0.067,0.383,0.124c-0.383,0.186-0.129,0.501-0.383,0.749
		c0,0.123,0.135,0.191,0.253,0.123c0.259,0,0.383-0.129,0.507-0.253c0.068,0.124,0.248,0.124,0.434,0.124
		c0-0.191-0.062-0.501,0.253-0.501c0.068,0.062,0.186,0.191,0.186,0.253c-0.118,0.372,0.31,0.305,0.191,0.625
		c0.191,0.13,0.304-0.062,0.372-0.186c0.067,0.124,0.067,0.434,0.321,0.434c0.18-0.372,0.366,0.315,0.62,0
		c0.377,0.067,0.248,0.434,0.377,0.692c1.695,0,3.137,0.761,4.832,0.822l1.002-0.507c0.884,0.186,0.754-1.008,1.447-1.188
		c0.574,0.688,1.132-0.32,1.689-0.58l-1.188,1.701c1.318-0.315,1.769-1.701,2.382-2.703c0.383-0.495,0.253-1.256,0.692-1.689
		c2.636-0.062,5.085-0.507,7.22-1.7c0.191,0.067,0.501,0.067,0.63-0.181c0.253-0.321,0.693-0.507,1.002-0.259
		c0.501-0.118,0.501-0.698,0.631-1.064c-0.186-0.057,0-0.248,0-0.377c0.94-0.496,0.816-1.819,0.816-2.76l1.318-1.126
		c0.439-0.822-0.563-0.822-0.625-1.51c0.191-0.32,0.445-0.631,0.878-0.692c0.067-0.625-0.687-0.501-1.008-0.692
		c-0.377-0.439,0.186-0.879,0.186-1.318c-0.248-0.377-0.749-0.687-1.132-0.878c-0.31,0.371-0.428-0.248-0.552-0.428
		c-0.62,0.067-1.571-0.191-1.943,0.507c-1.695,0-3.272,0.438-4.894,0.687c-2.523,0.94-6.217,0.248-7.293,3.328
		c-1.379,0.879-2.449,2.438-3.891,3.261C-312.881,527.429-315.206,530.515-317.589,533.082z"/>
	<path d="M-281.002,543.619c-0.259,0-0.512,0-0.631-0.192c0.372-0.062,0.31-0.434,0.248-0.681c-0.94-0.068-0.687-1.138-1.571-1.323
		c0.383-0.191,0.636-0.445,0.828-0.828c0.186-0.181,0.186-0.614-0.191-0.614c-0.062-0.76-0.692-0.191-1.002-0.512
		c0.248-0.812-0.946-0.248-1.075-0.812c0.822-0.76-0.755-1.193-0.687-1.881c-0.687,0-1.442,0-1.943-0.377l0.248-0.94
		c-0.76-0.501-1.374-1.329-2.382-1.07c-0.186,0.248-0.186-0.067-0.377-0.067c-0.631-0.062-1.25-0.191-1.825-0.31
		c-4.505-0.58-7.777,1.881-11.415,3.508c-0.693-0.377-1.571,0.124-2.326-0.259c-3.075-0.112-6.082-1.053-8.779-2.129l-2.382-0.247
		c-0.693-0.068-1.194,0.371-1.825,0.124h-0.878c0-0.507-0.873,0.112-0.873-0.507c-3.137-1.318-6.155-2.76-9.044-4.461
		c0.94-1.808,1.887-3.699,3.582-5.271c0.631-1.193,1.819-2.388,3.013-3.131c0.186-0.946,1.059-1.893,2.061-2.32
		c0.507-0.315-0.31-0.822,0.191-1.132c0.946-0.186,1.498-1.25,2.326-1.819c1.132-1.002,2.579-1.193,3.452-2.388
		c0.186-0.754,1.002-1.002,1.442-1.627l0.754-2.382c-0.253-0.067-0.253,0.124-0.372,0.253c-0.191,0.118-0.383,0.366-0.574,0.181
		c0.507-0.997-0.248-2.568,0.946-3.261c0.439-0.439,0.062-1.064-0.062-1.565c-0.253-0.946,0.248-1.824,0-2.703
		c-0.439-0.315-0.946-0.439-1.503-0.495c-0.693-0.569-1.583-0.068-2.208,0.18c-1.571,0-2.951,0.563-4.331,0.946
		c-0.563,0.067-1.312,0.067-1.875,0.315c-0.828,0.247-1.639-0.13-2.523,0.186c-0.18-0.389-0.687-0.568-0.687-1.075
		c-0.997,0.642-1.059-0.873-2.067-0.434c-0.191-0.569-0.822-0.569-1.323-0.688c0-0.253,0.31-0.389,0.377-0.58
		c-0.129-0.495,0.625-0.811,0.754-1.183c-2.072-1.064-4.64-0.371-6.91-0.186c-2.196,0.816-4.263,1.627-6.724,1.751
		c-1.307,0.124-2.821,1.194-4.015,0.124c-0.62,0.181-1.121,0.879-1.813,0.248c0-0.186-0.062-0.439-0.253-0.563
		c-0.439-0.507-1.132-0.062-1.571,0.057c-0.113-0.175-0.366-0.428-0.62-0.366c-0.501,0.062-0.878,0.625-1.132,1.002l-0.94,0.192
		c-0.94-0.192,0.129-0.885-0.062-1.324c-0.248-0.118-0.321,0.248-0.569,0.073c0.321-0.377,0.878-0.816,0.687-1.379
		c-1.002,0.056-1.819,0.872-2.314,1.745c-0.383,0.136-0.692,0.451-0.574,0.828l0.315,0.062c-0.186,0.749-0.879,1.127-1.509,1.634
		c-0.175,0.63-0.563,0.935-1.064,1.374c-0.062,0.32,0.253,0.247,0.377,0.383l-0.501,0.754c0.186,0.315,0.501,0.13,0.687,0.248
		c-0.062,0.248-0.372,0.507-0.31,0.743h0.49c-0.698,0.631,0.496,1.138,0.377,1.893c0.315,1.002,1.374,1.757,2.196,2.444
		c0.315,0.186,0.439,0.563,0.253,0.878c0.501,6.589,0.113,13.561,3.075,19.079c0,2.838-0.574,5.474-0.822,8.165
		c-0.062,1.324-0.62,2.45-0.501,3.768c0.056,0.692,0.636,0.637,1.075,1.008c0.113,2.692,0.935,5.068,1.369,7.586
		c-0.434,2.506-2.388,4.387-3.075,6.769c-0.563,2.331-2.32,4.14-2.512,6.595l-0.31,0.438c-0.569,1.881-1.633,3.521-1.633,5.587
		c-0.197,1.385-1.509,2.883-0.315,4.201c-0.569,0.563-1.571,0.444-1.819,1.385c0,2.135,0.31,4.201,0.687,6.217
		c0.637,3.892,2.202,7.468,3.706,10.92c-0.253,0.32,0.248,0.388,0.321,0.568c0.445,1.256,1.255,2.376,1.948,3.514
		c1.002,0.94,1.633,2.135,2.382,3.143c-0.377,0-0.816-0.439-1.132,0c-0.501,1.002-1.565,1.628-2.382,2.382
		c-3.013,2.579-5.84,5.581-8.858,8.036c-1.306,2.14-1.306,4.956-2.055,7.22c-0.507-1.059-0.574-2.314-0.631-3.509
		c-0.377-1.25-0.377-2.945-1.819-3.52c-1.002-3.953-1.256-8.165-2.32-12.113c1.132-0.94,2.506-2.14,3.199-3.463
		c0.501-3.013-2.833-4.572-4.894-5.834c-0.248-0.191-0.248-0.439-0.129-0.625c1.824-2.129,4.713-0.254,6.972-0.879l-0.315-2.443
		c-1.329-0.693-3.019-0.502-4.646-0.569c-0.822-0.124-1.695-0.056-2.264-0.625c0.191-1.075,1.256-1.763,1.323-2.889
		c-0.248-1.633-0.687-3.267-1.38-4.708c1.132-0.124,2.32-0.124,3.261-0.816c-0.067-0.816,0.569-1.323,0.76-2.066
		c-0.135-3.706-0.884-7.287-3.396-10.047c-0.383-0.507-0.94-1.002-0.76-1.633c1.075,0.248,2.269,0.372,3.396,0.439l2.517,1.126
		c0.558,0.315,1.442,0.445,1.751-0.372c0.248-0.63,0.062-1.379-0.118-1.948c-0.755-2.512-2.889-4.393-4.584-6.521
		c-0.377-0.89-1.385-1.701-1.194-2.703c1.627,0.507,3.001,1.948,5.023,1.441c0.366-0.057,0.755-0.501,0.682-1.002l-1.121-4.573
		c-0.631-2.32-1.949-4.393-2.326-6.904c1.25-1.694,3.39-2.072,5.079-3.198c2.641-1.565,1.2-5.271,0.946-7.591
		c1.002-0.822,1.695-1.893,1.763-3.148c-0.321-1.942-1.07-3.699-2.01-5.332c0.501-0.063,1.075,0,1.379-0.502
		c0.439-0.692,0.191-1.694-0.062-2.455c-2.072-3.947-3.705-8.024-6.465-11.668c2.067,0.439,4.702,0.558,6.589-0.568
		c1.571-0.755,2.765-2.253,2.827-4.016c-0.31-3.829-1.887-7.157-3.447-10.479c3.694-1.003,7.653-4.398,8.717-8.166
		c1.064-3.841,1.391-8.232,1.064-12.434c-0.867-5.396-2.252-10.609-5.772-14.945c-0.693-0.744-1.064-2-2.196-2.062
		c-0.816,0.563-0.439,1.757-0.754,2.636c0.315,1.193,0.884,2.32,1.317,3.502c1.194,0.451,0.569-1.12,1.07-1.56
		c1.571,1.386,2.444,3.013,3.136,4.832c1.633,4.831,2.196,10.355,1.633,15.88c-0.439,3.396-2.517,7.281-6.025,8.228
		c0.248-3.699,0.118-7.591-1.943-10.479l-1.571-0.879c-1.008-0.563-1.825-2.078-3.08-1.509c-1.887,1.503-3.508,3.322-3.582,5.704
		c0,2.709-1.064,5.846,0.383,8.233c1.25,1.881,3.199,2.697,5.271,2.956c2.072,3.075,4.145,6.268,4.145,10.232
		c-0.197,0.558-0.754,1.059-1.318,1.374c-2.708,1.385-6.656,0.946-9.1-0.755c-2.703-2.759-5.08-6.465-8.475-8.222
		c-0.884-0.135-1.763-0.563-2.574-0.253c0.118,1.256-0.63,2.826,0.558,3.699c3.081,3.334,6.605,6.161,10.424,8.036
		c3.136,3.452,5.4,7.275,6.966,11.426c0.067,0.439,0.383,1.132-0.124,1.51c-0.884,0.062-1.441-0.94-2.264-1.132
		c-0.878,0.692,0,1.942-0.315,2.889c0.574,0.563,1.385,0.884,1.943,1.509c1.138,1.07,1.886,2.388,1.639,3.959
		c-0.191,0.31-0.563,0.755-0.946,0.811c-1.126,0-2.134-0.247-3.001-0.94c-1.83-1.256-0.76-3.581-0.828-5.519
		c-0.31-0.067-0.692-0.248-1.002-0.067c-0.816,1.498-1.571,3.446-0.816,5.209c0.878,2.258,3.261,4.646,5.84,4.899
		c0.191,1.138,0.377,2.579,0,3.699c-1.892,1.701-4.46,1.949-6.594,3.019c-0.822-0.056-0.94,0.812-0.94,1.51
		c0.372,3.39,2.314,6.211,3.322,9.348c0.067,0.563,0.377,1.25-0.248,1.628c-0.693,0.501-1.324-0.13-1.954-0.315
		c-0.94-0.321-1.504-2.067-2.636-1.442c-0.558,0.693-1.25,1.256-1.121,2.196l2.314,4.14c1.138,1.627,2.833,2.996,3.711,4.764
		c0,0.248-0.135,0.445-0.315,0.445c-2.388,0-4.336-1.194-6.459-1.887c-0.636-0.067-1.385-0.574-1.959,0
		c-0.18,0.867,0.259,1.689-0.062,2.567c1.256,3.075,4.651,5.215,5.845,8.29c0.439,1.509,1.318,3.198,0.569,4.899
		c-1.07,0.371-2.45,0.123-3.582,0.191c-2.196-4.844-7.281-8.109-11.741-10.176c-1.25-0.502-3.075-0.873-4.269,0.062
		c-0.687,0.89-0.62,2.264-0.186,3.21c1.014,1.813,2.889,3.255,4.517,4.517c3.643,2.066,6.786,5.271,11.302,5.271
		c0.884,1.262,1.076,2.833,1.323,4.393c0.192,2.072-2.697,2.895-2.134,5.023c0.192,1.256,1.825,0.507,2.636,1.069l-0.878,0.574
		c-0.501,0.434-0.873,1.003-0.755,1.689c1.132,1.577,2.889,2.196,4.336,3.452c0.439,0.378,0.811,0.816,0.687,1.38
		c-0.62,0.946-1.695,1.633-2.574,2.14c-0.18-0.45-0.687-0.76-1.121-1.069c-2.078-1.577-4.967-0.439-6.848,0.692
		c-0.625,0.366-0.372,1.121-0.253,1.628c0.191,0.687,0,1.509,0.439,2.128c2.066,1.577,5.276,0.885,7.343-0.118
		c1.132,3.829,2.072,7.788,2.703,11.804l-4.46,4.955c-0.563,0.563-1.126,1.194-1.943,1.132c-0.63-0.202-1.07-0.822-1.509-1.323
		l-4.832-8.914c-0.754-1.194-1.886-2.703-3.463-2.573c-2.315,1.255-2.005,4.195-1.943,6.718c0.574,7.287,1.757,14.247,4.905,20.402
		c0.18,0.377,0.625,0.625,1.064,0.501c0.878-1.317,1.948-2.636,3.328-3.39c0.129-0.191,0.062-0.502-0.13-0.631
		c-1.002-0.063-1.881,0.191-2.759,0.507c-0.636-0.13-0.687-0.822-1.002-1.262c-2.455-5.524-4.083-11.42-3.829-18.015
		c0.253-0.884,0.253-1.875,1.002-2.444c0.563,0.119,1.002,0.688,1.447,1.121c2.128,2.889,3.322,6.217,4.702,9.359
		c-1.002-0.186-1.943-1.262-3.007-0.507c-0.135,0.507-1.137,0.377-0.754,0.946c1.813,0.687,3.508,1.689,5.271,2.567
		c0.501,0.315,0.94,1.392,1.757,0.822c3.075,1.565,6.093,3.075,9.354,4.201c0.389,0,0.636-0.383,0.816-0.692
		c0.253-0.558,0.253-1.442-0.315-1.876c-2.698-1.008-5.333-2.077-7.912-3.26l2.264-2.776c0.687-0.812,1.447-1.948,2.45-2.32
		c1.808,1.813,0.118,5.215,1.886,7.09c0.868,0.13,1.121-1.064,1.442-1.323l0.434-0.118c0.259,0.377,0.377,0.816,0.377,1.256
		c0.439-0.124,0.439,0.945,0.94,0.377c0.445,1.064,1.639,1.002,2.511,1.313c0.693,0.507,1.076,1.193,1.076,2.021
		c0.687-0.259,0.94,0.625,1.627,0.501c0.687,0.181,0.816-0.501,1.256-0.822c0.625-0.625,1.633-0.755,2.388-0.507
		c0.501,0.315,0.439,1.329,1.002,1.076c0.439-0.817,1.312-1.076,2.072-1.194c0.253,0,0.501,0.315,0.501,0.501
		c0.563,0.372,1.38,0.822,1.949,0.507l-0.631-0.32c0.439,0,0.191-0.569,0.439-0.749c1.503-0.068,2.697,0.062,4.139,0l0.383-0.187
		l3.328,0.563c0.366,0.186,0.366,0.637,0.439,1.008c0.749,0.305,0.428-0.568,0.62-0.822c0.062-0.439,0.501-0.439,0.822-0.371
		c0.681,0.186,0.811-0.698,1.121-1.07c0.754-0.439,1.447,0.124,2.275,0.062c0.805-1.694,1.369-3.891,0.614-5.777
		c-0.062-0.94-1.126-0.434-1.441-1.132c-2.45-0.304-4.697-1.256-7.22-1.374c-0.118-0.186-0.253-0.377-0.186-0.625l5.958-5.333
		l3.773-4.274c0.113-0.552,0-1.25,0.439-1.627c-0.315-0.372-0.315-0.946-0.191-1.442c0.997,0.124,1.132,1.442,2.078,1.819
		l0.558,5.198c0.445,2.331-0.186,5.034,0.754,7.095c0.253,1.194,0.062,2.512,0.94,3.391c-0.056,0.247-0.439,0.247-0.248,0.507
		c0.377,0.495,1.132,0.315,1.695,0.247c1.07-0.365,0.884,1.076,1.757,1.003v0.76l0.755,0.118c0.563,0.068,0.439,0.643,0.377,1.07
		c0.248,0.698,1.188,0.124,1.633,0.625c0.056,0.254-0.062,0.637,0.186,0.761l1.875-0.068c4.15,0.315,8.982,0.124,13.375,0.439
		c0.445,0.057,0.749,0.445,1.318,0.372c0.377-0.378,0.512-0.935,0.76-1.51l1.757-0.062c0.439,0,0.631,0.501,1.132,0.377
		c0.755-0.438,0.372-1.571,0.563-2.196c0-1.137,0.377-2.325,0-3.39c-0.501-1.008-1.509-1.262-2.511-1.386
		c-1.515-0.754-3.576-0.18-5.091-0.754c-1.008,0.507-2.01-0.191-2.883-0.439c-2.072-2.754-0.569-6.898-1.194-10.227
		c-0.129-2.568-0.822-4.899-0.507-7.591l0.186-0.315c0.191-0.191,0.439-0.063,0.63,0c0.439,0.439,0.501-0.254,0.946-0.254
		l-1.949-2.573c-0.383-0.191,0-0.89-0.507-0.816c-0.563-0.625-0.259-2.27-1.627-1.948l-2.326-3.075
		c-2.827-3.198-4.888-6.774-7.157-10.232h-0.366c-0.248,0-0.191-0.247-0.129-0.371c0-0.186-0.191-0.124-0.248-0.186
		c-0.315-1.009-1.132-1.819-1.509-2.821l2.45-4.528l0.31-0.174c0.89-2.022,2.14-3.903,3.463-5.784
		c0.501-0.821,0.754-1.757,1.374-2.517l1.126-4.071c0.569-1.763,0.383-3.83,1.633-5.339l-0.186-0.31
		c1.188-1.515,2.692-2.697,4.207-3.824c0.62-0.123,0.94,0.372,1.38,0.755c0.248,0.186,0.631,0,0.816,0.248l-0.062-0.755l0.434,0.254
		l-0.118,0.568c0.811,0.935,1.188-1.008,2.005-0.822c0-0.186,0.191-0.248,0.191-0.434c0.383,0.366,0.816,0.063,1.25,0.31
		c4.274-0.495,8.605-1.064,12.75-1.937c0.878,0.123,1.757,0.377,2.765,0.304c0.186-0.304,0.614-0.372,0.873-0.563
		c0.124-0.631,0.76-0.878,1.188-1.312c1.323,0.315,2.27-0.631,3.396-0.631c1.002-0.873,2.314-1.194,3.508-1.628
		c0.822-0.123,1.949-0.067,2.326-0.945C-280.827,543.737-280.884,543.799-281.002,543.619z M-362.414,489.631
		c-0.501-0.501-0.94-1.256-1.633-1.441c-0.439-0.067-0.63,0.507-0.816,0.811c-1.132-0.625-1.509-2.005-1.571-3.39
		c0.377-1.064-0.563-2.066,0.13-3.013c0.31-0.873,0.749-2.066,1.819-2.314c2.004-0.507,2.771,1.627,3.576,2.821
		c0.563,1.881,0.507,3.947,0.755,5.896l-0.192,0.816L-362.414,489.631z M-381.437,571.657c-1.441-1.003-3.069-2.196-4.083-3.762
		c-0.124-0.327,0.073-0.822,0.513-0.822c2.252,0.321,4.133,1.689,6.206,2.636c2.072,1.385,4.207,3.39,5.524,5.529
		C-376.346,574.923-378.863,573.223-381.437,571.657z M-376.228,599.402c-0.191-0.129-0.372-0.377-0.253-0.625
		c1.07-0.816,2.45-1.193,3.768-0.816c0.507,0.191,0.946,0.445,1.256,0.816C-372.714,599.6-374.719,600.292-376.228,599.402z"/>
</g>
</svg>
