<svg height="148.358276" viewBox="0 0 786 173" width="674.04396" xmlns="http://www.w3.org/2000/svg"><g fill="#323f67" fill-rule="evenodd"><path d="m0 2.51870761v122.54776039c12.9474506-15.842826 24.1145594-22.434822 28.8040504-24.516378.4359532-.193425.4539183-.49464.4329591-.6215931-.0365291-.2245638-.2551045-.4527206-.8198076-.4443369-2.3061206.0299418-7.0722627 1.324028-10.1880106 2.473795-.7245926.26768-.8401681-.214983-.5449415-.766511.667703-1.2509704 3.7163812-4.1205963 12.8282821-7.7992509 15.0427806-6.0722052 30.5921771-5.4098917 37.7105502-1.8366324 3.1534747 1.5869175 4.4763052 4.7415898 4.8619561 5.8787809.0485058.1437208-.0179651.223965-.1269534.2227673-11.0485391-.1227616-16.0272683.4383485-19.3232661 1.4449932-.9826912.3000172-1.0773075 1.0317959-.2131859 1.6881209 1.5587722 1.183302 6.4027631 2.425289 8.3382037 2.747463.5784763.096413.8922668-.095215 1.2503712-.505418.4137963-.473081.9383773-1.149168 1.3988828-1.598295.3616974-.351518.5437438-.388047 1.2288131-.43775 1.0246098-.073657 3.3840268-.110186 5.4613917-.073657 9.6789993.171866 20.4778235 2.566016 20.4778235 16.269797 0 4.927229-2.0192777 9.743075-2.9708294 11.215615-.623988.96772-1.614464.924604-1.5587722-.523384.2574998-6.729129-.8275925-9.493359-11.4749109-9.493359-5.3847406 0-13.8870256.777889-17.7046102 2.571405-1.4138537.66411-1.5515862 1.881545-.1221628 1.756987 2.1204812-.183244 10.4353303-.755732 16.3254891-.755732 3.8954334 0 6.9584837.389843 8.0645353 1.942028.26768.37547.3221742 1.078505-.6096159.944365-.3754707-.054494-1.3623537-.167075-2.737283-.167075-12.2557941 0-24.2361233 7.226762-24.2361233 19.740655 0 19.886772 29.268149 27.844115 65.8738455 27.844115 29.475945 0 49.322595-6.327309 49.322595-6.327309l-.002396-163.42196639z"/><path d="m773.59715 159.341492 11.856968-17.026128v-3.09419h-18.282487l-.131745 3.677457h13.473829l.041918.089825-2.107905 2.875016-11.904876 17.071041v3.049277h19.04301l.137733-3.677457h-14.192432l-.047907-.134738zm-18.779523-16.802163h6.60517v-3.318155h-6.60517v-6.916565l-3.317556.35511-.808429 6.561455h-3.862498v3.318155h3.730754v16.21171c0 4.676915 2.377382 7.232751 6.952495 7.232751 1.437208 0 2.922324-.268878 3.730753-.672494l-.269476-3.221143c-.538953.219174-1.485116.350918-2.245638.350918-2.425289 0-3.910405-1.098266-3.910405-3.821776zm-14.64156-10.102377c0-1.480325-.898255-2.288156-2.736684-2.288156s-2.736684.807831-2.736684 2.288156c0 1.704289.898255 2.287556 2.736684 2.287556s2.736684-.718005 2.736684-2.287556zm-26.229052 13.976851c0-2.152818 2.024069-3.515172 5.215869-3.515172 2.155812 0 4.718834.483261 6.958483 1.406069l.359303-3.558289c-2.149825-.986883-4.623021-1.525237-7.227961-1.525237-6.156042 0-9.341854 2.96005-9.341854 7.412402 0 8.831645 13.701386 6.063822 13.701386 11.995899 0 2.46062-1.616859 4.305637-5.527264 4.305637-2.563021 0-5.617089-.790465-7.635169-2.284563l-.538953 3.630149c2.065987 1.479726 5.024241 2.242045 8.216041 2.242045 6.60517 0 9.43168-3.363068 9.43168-8.289099 0-9.139448-13.611561-6.239281-13.611561-11.819841zm-9.557435 6.76985c.047907-.582668.089825-1.3899.089825-2.061795 0-8.138791-4.167904-11.900684-10.551504-11.900684-7.365693 0-11.042551 4.651764-11.042551 12.662404 0 10.01854 3.628951 14.639165 12.43784 14.639165 3.233719 0 6.01831-.762319 8.25796-1.973167l-.491046-3.591225c-2.287557 1.123418-4.575113 1.707284-7.275867 1.707284-5.748834 0-8.353774-2.426487-8.581332-9.481982zm-3.808602-2.91394h-13.437898c.269476-4.998491 2.293545-7.371082 6.832728-7.371082 3.862497 0 6.515344 2.03365 6.60517 7.371082zm-23.001322 2.243243v-.002994c0-10.149685-3.946335-13.782828-10.192203-13.782828-2.964242 0-5.706914.986883-7.641157 3.004963l-.089826-.044913.047907-3.588829v-7.859733l-4.215811.269476v35.475692h2.82651l.670697-2.784591.131744-.044913c1.664766 2.067783 4.449358 3.323544 7.772902 3.323544 6.784821 0 10.689237-3.90202 10.689237-13.964874zm-4.305637.089825c0 8.311256-2.784591 10.332331-6.964472 10.332331-3.281626 0-5.527264-1.527034-6.60517-3.279231v-13.881636c1.389302-2.021673 3.730753-3.190003 6.557263-3.190003 4.407439 0 7.012379 1.886934 7.012379 10.018539zm-24.486437-8.722058.269477-4.300247c-.718604-.224564-1.658778-.359302-2.646859-.359302-3.640928 0-6.557263 2.242644-8.216041 6.071008h-.089826l-.359302-5.711706-3.413369.223965v26.179349h4.263718v-13.32352c0-5.64763 3.365463-9.13286 7.545343-9.13286.940174 0 1.838429.088627 2.646859.353313zm-22.408473 13.305555v-17.965104h-4.215811v17.875279c0 3.637933-2.113894 5.479357-6.156043 5.479357-4.131974 0-6.197961-1.886336-6.197961-5.479357v-17.875279h-4.221799v17.965104c0 5.882973 3.365463 9.291552 10.371853 9.291552 7.054298 0 10.419761-3.363666 10.419761-9.291552zm-33.043815-14.646949h6.599181v-3.318155h-6.599181v-6.916565l-3.323545.35511-.808429 6.561455h-3.862498v3.318155h3.730754v16.21171c0 4.676915 2.377382 7.232751 6.958483 7.232751 1.43122 0 2.916336-.268878 3.724765-.672494l-.269476-3.221143c-.538953.219174-1.479127.350918-2.245638.350918-2.425289 0-3.904416-1.098266-3.904416-3.821776zm-19.222662 23.444461h4.263718v-35.700255l-4.263718.269476zm-8.808889-8.797512v-17.965104h-4.209823v17.875279c0 3.637933-2.113894 5.479357-6.156042 5.479357-4.137963 0-6.20395-1.886336-6.20395-5.479357v-17.875279h-4.215811v17.965104c0 5.882973 3.365463 9.291552 10.371854 9.291552 7.054297 0 10.413772-3.363666 10.413772-9.291552zm-25.632012 8.797512-12.306096-17.737546 11.632405-15.941635h-5.478758l-10.329935 14.237345h-4.985916v-14.237345h-4.575712v33.679181h4.575712v-15.539815h4.895491l10.823976 15.539815zm-47.470991-22.103067.268877-4.300247c-.719203-.224564-1.661772-.359302-2.650451-.359302-3.637335 0-6.556665 2.242644-8.218437 6.071008h-.089227l-.359302-5.711706-3.408579.223965v26.179349h4.260724v-13.32352c0-5.64763 3.368457-9.13286 7.545943-9.13286.942569 0 1.840824.088627 2.650452.353313zm-21.332963 9.30293c.044314-.582668.088628-1.3899.088628-2.061795 0-8.138791-4.170898-11.900684-10.551505-11.900684-7.367489 0-11.044946 4.651764-11.044946 12.662404 0 10.01854 3.632544 14.639165 12.437841 14.639165 3.234916 0 6.019507-.762319 8.262151-1.973167l-.493441-3.591225c-2.287557 1.123418-4.578108 1.707284-7.274071 1.707284-5.751828 0-8.357366-2.426487-8.582529-9.481982zm-3.812794-2.91394h-13.434305c.269477-4.998491 2.29115-7.371082 6.829135-7.371082 3.864294 0 6.515345 2.03365 6.60517 7.371082zm-28.339952 15.714077h4.21641v-17.740541c0-6.107536-3.184614-9.516115-9.023872-9.516115-2.830701 0-5.571577.94197-7.503425 2.96005l-.090424-.044314.044913-3.589428v-7.769907l-4.21641.26768v35.432575h4.21641v-20.255655c1.078505-1.706685 3.504991-3.054068 6.29078-3.054068 4.13437 0 6.065618 1.976162 6.065618 5.569182zm-37.23687-13.352265c0-6.779431 2.155214-9.50833 7.94896-9.50833 1.931847 0 3.862497.484459 5.434444 1.188691l.269476-3.790038c-1.750999-.76232-4.176887-1.300674-6.557263-1.300674-7.993274 0-11.491678 4.562538-11.491678 13.410351 0 9.640075 3.857108 13.936131 11.357539 13.936131 2.828905 0 5.344019-.76232 6.915966-1.838429l-.314389-3.47026c-1.61686.968319-3.593021 1.496494-5.703322 1.496494-5.120654 0-7.859733-2.7289-7.859733-10.123936zm-23.085758-6.217722c0-2.152818 2.022272-3.515172 5.212874-3.515172 2.157011 0 4.718236.483261 6.96088 1.406069l.358703-3.558289c-2.152819-.986883-4.62302-1.525237-7.229158-1.525237-6.155444 0-9.339459 2.96005-9.339459 7.412402 0 8.831645 13.698392 6.063822 13.698392 11.995899 0 2.46062-1.618057 4.305637-5.527863 4.305637-2.561225 0-5.614095-.790465-7.632175-2.284563l-.538354 3.630149c2.062993 1.479726 5.02484 2.242045 8.215442 2.242045 6.603972 0 9.429285-3.363068 9.429285-8.289099 0-9.139448-13.608567-6.239281-13.608567-11.819841zm-11.721632-13.976851c0-1.480325-.898255-2.288156-2.737283-2.288156-1.839027 0-2.736684.807831-2.736684 2.288156 0 1.704289.897657 2.287556 2.736684 2.287556 1.839028 0 2.737283-.718005 2.737283-2.287556zm-12.486346 25.042157c0-7.301617-9.876615-8.496296-9.876615-10.797027 0-1.85879 5.839856-4.115806 5.839856-8.584326 0-3.551701-3.324143-6.377013-8.131605-6.377013-6.738112 0-10.46108 4.031369-10.46108 11.553957v29.404684h4.215811v-29.80291c0-5.000287 2.067185-7.478274 6.155444-7.478274 2.561225 0 4.178683 1.194679 4.178683 2.831899 0 3.584637-6.335095 5.708711-6.335095 8.983151 0 4.159521 10.108964 4.91166 10.108964 10.398202 0 3.009155-2.65105 4.469718-6.380007 4.469718-1.685127 0-3.306777-.425773-4.673921-1.040778l-.266483 3.88705c1.709081.716208 3.839742 1.05515 5.659008 1.05515 5.975194 0 9.96704-3.228928 9.96704-8.503483zm-30.853869-.292831v-17.965104h-4.215811v17.875279c0 3.637933-2.112097 5.479357-6.156042 5.479357-4.133771 0-6.200955-1.886336-6.200955-5.479357v-17.875279h-4.215811v17.965104c0 5.882973 3.363666 9.291552 10.371853 9.291552 7.0531 0 10.416766-3.363666 10.416766-9.291552zm-27.261447-4.002625c.044913-.582668.089826-1.3899.089826-2.061795 0-8.138791-4.171497-11.900684-10.551505-11.900684-7.367489 0-11.046143 4.651764-11.046143 12.662404 0 10.01854 3.633741 14.639165 12.439038 14.639165 3.234916 0 6.019507-.762319 8.261552-1.973167l-.493441-3.591225c-2.286958 1.123418-4.578107 1.707284-7.274071 1.707284-5.751228 0-8.357366-2.426487-8.58193-9.481982zm-3.812195-2.91394h-13.434305c.269477-4.998491 2.291749-7.371082 6.829734-7.371082 3.864294 0 6.515345 2.03365 6.604571 7.371082zm-21.916229-6.38899.269476-4.300247c-.718604-.224564-1.661772-.359302-2.649852-.359302-3.637934 0-6.557263 2.242644-8.218437 6.071008h-.089825l-.358704-5.711706-3.409177.223965v26.179349h4.261322v-13.32352c0-5.64763 3.368457-9.13286 7.545344-9.13286.943168 0 1.841423.088627 2.649853.353313zm-21.064085-1.024011c0-7.322576-3.499003-10.552103-11.764149-10.552103h-11.180283v33.679181h4.575712v-12.620486h6.604571c8.354971 0 11.764149-3.587631 11.764149-10.506592zm-4.709851 0c0 5.166764-2.291749 6.649484-7.054298 6.649484h-6.604571v-13.209741h6.604571c4.897288 0 7.054298 1.662371 7.054298 6.560257zm121.475244-3.635538-4.261323.22157v26.541046h4.261323zm373.505296 0-4.25773.22157v26.541046h4.25773z"/><path d="m247.338165 74.5683569v-5.0475954h-20.398178l-.233546 6.029089h12.210282l.047309.0934185-2.245639 2.9486725-10.386225 14.1792579v5.0949035h21.240143l.186837-6.0290889h-13.006137l-.046709-.1407267 2.245638-2.9013643zm29.611283-5.0475954h-7.245925v18.1992494c0 2.9001667-1.497691 4.2571309-4.681108 4.2571309-3.183416 0-4.681706-1.4503828-4.681706-4.2571309v-18.1992494h-7.245326v18.3393772c0 6.7345188 3.879863 10.5203651 11.927032 10.5203651s11.927033-3.6457185 11.927033-10.5203651zm47.251218 18.149546c0-4.447561-2.057004-7.2058034-5.937467-8.2807154v-.0934186c2.804952-1.1683306 4.675119-3.6008057 4.675119-7.5339658 0-5.5661882-3.833154-8.9783603-11.45994-8.9783603h-14.266688v35.0822555h14.454124c8.841826 0 12.534852-3.8798636 12.534852-10.1957954zm-7.901053-.6084182c0 3.3241431-1.403673 4.3541424-4.54038 4.3541424h-6.974054v-8.5208489h6.787217c3.416962 0 4.727217 1.2168363 4.727217 4.1667065zm-.889272-13.8954093c0 2.7624342-1.216837 3.8864509-4.025381 3.8864509h-6.553072v-7.6315763h6.365636c2.949271 0 4.212817.9838889 4.212817 3.7451254zm27.507568 25.2140238c3.6038 0 6.875845-.7479472 9.259814-1.8228593l-.794656-5.8446472c-2.430679.9359819-4.908067 1.4042723-7.575885 1.4042723-4.868543 0-7.162088-1.7785453-7.536361-6.5087573h16.514721c.140128-.9814935.186837-2.3366612.186837-3.4109744 0-8.9843487-4.440374-13.1917761-11.692887-13.1917761-8.514861 0-12.488742 5.2817407-12.488742 14.3133974 0 9.9197317 4.347556 15.0613446 14.127159 15.0613446zm-6.787815-17.5848429c.327564-4.1211949 1.685127-5.7602112 5.196107-5.7602112 3.04269 0 4.915253 1.592307 5.008671 5.7602112zm29.567568 17.070442v-13.9163685c0-4.6230202 2.807347-7.3237742 6.596786-7.3237742 1.122819 0 2.198929.1826452 3.087602.4575113l.467692-7.1423266c-.748546-.2329475-1.824656-.4203834-3.087603-.4203834-3.228329 0-5.988368 1.6833303-7.765715 5.0949036h-.140128l-.654529-4.7206306-5.79674.2802556v27.6908128zm22.970781 0v-36.7661846l-7.339344.3269649v36.4392197zm15.579338 0v-28.3453414l-7.433361.322773v28.0225684zm.420384-34.4774303c0-2.0564056-1.262348-3.1313177-4.113411-3.1313177-2.80555 0-4.161316 1.1216214-4.161316 3.1313177 0 2.2905508 1.355766 3.0852072 4.161316 3.0852072 2.851063 0 4.113411-1.0282028 4.113411-3.0852072zm31.06406 34.4774303v-18.0591216c0-7.0614836-3.786445-10.8473299-9.773615-10.8473299-2.949272 0-5.711107.9808947-7.816617 2.8037539l-1.074912-2.4294809-5.235631.3263661v28.2058124h7.292036v-20.3047596c.98329-1.3563654 2.949271-2.1516206 4.775125-2.1516206 2.99598 0 4.587689 1.2629468 4.587689 4.3972586v18.0591216z"/><path d="m248.315467 27.0865865c0-11.8863118-16.140448-9.3592205-16.140448-14.8343854 0-1.8719639 1.170127-3.3690559 5.524269-3.3690559 2.668417 0 5.567386.56111009 8.465756 1.497092l.981494-6.63930366c-2.710935-1.12162134-6.403961-1.82345808-9.821523-1.82345808-8.889732 0-12.723485 4.81464793-12.723485 10.75510904 0 11.7467828 16.141047 9.4059298 16.141047 14.9290016 0 2.433074-1.685726 3.8373463-5.524869 3.8373463-3.463672 0-6.642297-.9359819-9.727505-2.5743994l-1.028801 6.781228c3.038498 1.6360221 6.778832 2.6175157 10.850324 2.6175157 8.188494 0 13.003741-4.2535379 13.003741-11.1766902zm19.453214-12.4025091v-5.42126966h-6.315932v-6.73691409l-5.703322.50002874-1.21504 6.23688535h-3.508585v5.42126966h3.181022v14.351124c0 5.3015023 2.758242 8.5723489 8.415453 8.5723489 2.011493 0 3.882858-.3736741 4.865549-.7940576l-.420982-5.272758c-.515.1814475-1.497092.3185811-2.245638.3185811-2.245638 0-3.368457-.9114296-3.368457-3.0522712v-14.1229672zm20.724544 22.9234729h5.563194v-17.5381335c0-7.7687099-2.89837-11.36771915-11.271905-11.36771915-3.651707 0-6.878839.65452863-9.729901 1.86956855l.60782 5.7985368c2.617515-1.0779063 4.67452-1.5455978 7.811227-1.5455978 3.885852 0 5.383543 1.3114526 5.383543 4.1691018v1.636621c-1.497691-.4664939-3.323544-.7934588-5.430252-.7934588-6.45606 0-10.101778 3.5978116-10.101778 8.8358371 0 5.8979438 3.412172 8.935244 8.790924 8.935244 3.230126 0 5.945252-1.1677317 7.67589-3.2241373l.140727.0461104zm-1.636022-8.6082791c0 1.4557723-2.246836 2.8600446-4.728416 2.8600446-2.387562 0-4.025979-.9216098-4.025979-3.511579 0-2.3270798 1.498289-3.5121779 4.728415-3.5121779 1.919272 0 3.324143.3078021 4.02598.5706915zm29.753207 8.6082791h5.562595v-17.5381335c0-7.7687099-2.897772-11.36771915-11.271307-11.36771915-3.651706 0-6.878838.65452863-9.7299 1.86956855l.60722 5.7985368c2.618115-1.0779063 4.675119-1.5455978 7.811827-1.5455978 3.885253 0 5.383542 1.3114526 5.383542 4.1691018v1.636621c-1.498289-.4664939-3.324143-.7934588-5.430851-.7934588-6.45546 0-10.101778 3.5978116-10.101778 8.8358371 0 5.8979438 3.412771 8.935244 8.790925 8.935244 3.230724 0 5.94585-1.1677317 7.676489-3.2241373l.140128.0461104zm-1.636023-8.6082791c0 1.4557723-2.247434 2.8600446-4.728415 2.8600446-2.387562 0-4.02598-.9216098-4.02598-3.511579 0-2.3270798 1.497691-3.5121779 4.728416-3.5121779 1.919272 0 3.323544.3078021 4.025979.5706915zm28.532179-14.3151938v-5.42126966h-6.315932v-6.73691409l-5.703322.50002874-1.215039 6.23688535h-3.508585v5.42126966h3.181021v14.351124c0 5.3015023 2.758242 8.5723489 8.415454 8.5723489 2.012091 0 3.883456-.3736741 4.865549-.7940576l-.420983-5.272758c-.514401.1814475-1.497092.3185811-2.245638.3185811-2.245638 0-3.368457-.9114296-3.368457-3.0522712v-14.1229672zm23.663635 14.1343451c0-9.518511-12.959427-7.0141755-12.959427-11.2036378 0-1.4114584 1.311453-2.322888 3.699614-2.322888 2.107306 0 5.239822.4557148 7.577082 1.4120572l.60722-5.8985425c-2.383969-.98149357-5.188322-1.54260366-8.044174-1.54260366-7.298623 0-10.758104 3.64511966-10.758104 8.67055816 0 9.6550458 13.146265 7.1051987 13.146265 11.5228178 0 1.6390164-1.217435 2.7774051-4.120596 2.7774051-2.434272 0-5.753624-.6377612-8.090286-1.9587952l-.747947 5.9320775c2.38397 1.3084584 5.468578 1.9623882 8.884942 1.9623882 7.673495 0 10.805411-3.7852475 10.805411-9.3508368zm30.502951-5.4799556c0-10.3832314-4.114009-14.59005998-10.662888-14.59005998-2.5744 0-5.055381.79465644-6.974653 2.52349828l-.140726-.0928197.093418-3.74093351v-6.59618744l-7.245326.3269649v36.43862085h4.908066l.934784-2.3384577c1.730639 1.7324349 4.351747 2.9001667 7.535164 2.9001667 7.251315 0 11.552161-4.440375 11.552161-14.8271994zm-7.480071.1437208c0 7.3477277-1.965981 8.8454185-5.242816 8.8454185-2.433673 0-4.07209-1.0767086-4.961962-2.4336728v-12.4019103c1.029999-1.4976908 2.809144-2.3875623 4.915253-2.3875623 3.464271 0 5.289525 1.3102549 5.289525 8.3777269zm21.234155 14.1253626v-28.34474256l-7.432763.32337187v28.02137069zm.420982-34.47623263c0-2.0564056-1.262947-3.13131767-4.114009-3.13131767-2.804952 0-4.160718 1.12162134-4.160718 3.13131767 0 2.28995195 1.355766 3.08460839 4.160718 3.08460839 2.851062 0 4.114009-1.02880163 4.114009-3.08460839zm32.327007 20.20714923c0-10.3832314-4.11341-14.59005998-10.662289-14.59005998-2.574998 0-5.055979.79465644-6.975251 2.52349828l-.140128-.0928197.093418-3.74093351v-6.59618744l-7.245925.3269649v36.43862085h4.908665l.934785-2.3384577c1.730039 1.7324349 4.351747 2.9001667 7.534564 2.9001667 7.251315 0 11.552161-4.440375 11.552161-14.8271994zm-7.479472.1437208c0 7.3477277-1.965981 8.8454185-5.242816 8.8454185-2.434271 0-4.072689-1.0767086-4.961962-2.4336728v-12.4019103c1.03-1.4976908 2.807946-2.3875623 4.915253-2.3875623 3.463672 0 5.289525 1.3102549 5.289525 8.3777269zm20.859283 14.1253626v-36.76558575l-7.338745.32636606v36.43921969zm15.57874 0v-28.34474256l-7.432763.32337187v28.02137069zm.421581-34.47623263c0-2.0564056-1.262947-3.13131767-4.114608-3.13131767-2.804353 0-4.161317 1.12162134-4.161317 3.13131767 0 2.28995195 1.356964 3.08460839 4.161317 3.08460839 2.851661 0 4.114608-1.02880163 4.114608-3.08460839zm31.859316 20.39757933c0-10.3874233-3.927172-14.78049008-12.956434-14.78049008-8.983151 0-13.003142 4.39306678-13.003142 14.78049008 0 10.4347314 4.019991 14.7343797 13.003142 14.7343797 9.029262 0 12.956434-4.2996483 12.956434-14.7343797zm-18.433395 0c0-6.9261465 1.450981-8.7987092 5.476961-8.7987092 3.978672 0 5.429654 1.8725627 5.429654 8.7987092 0 6.9267454-1.450982 8.7987092-5.429654 8.7987092-3.978671 0-5.476961-1.8252546-5.476961-8.7987092zm38.4058-8.8448196v-5.42126966h-6.315932v-6.73691409l-5.702723.50002874-1.215639 6.23688535h-3.508585v5.42126966h3.18162v14.351124c0 5.3015023 2.757644 8.5723489 8.414855 8.5723489 2.012092 0 3.883457-.3736741 4.865549-.7940576l-.420982-5.272758c-.514401.1814475-1.497092.3185811-2.245638.3185811-2.245638 0-3.368457-.9114296-3.368457-3.0522712v-14.1229672zm29.005858 22.9234729v-18.0579239c0-6.8291349-3.503195-10.84792875-9.491563-10.84792875-2.389359 0-4.96316.65392979-7.069868 2.43067865l-.140127-.0940174.093418-3.74033473v-6.45605962l-7.245326.37427301v36.39131274h7.245326v-20.3035619c.889273-1.2168364 2.715126-2.1528183 4.823032-2.1528183 3.089998 0 4.539183 1.497092 4.539183 4.3984563v18.0579239zm19.324464.5149997c3.604998 0 6.874646-.7479472 9.264005-1.8228592l-.796453-5.8446473c-2.431277.9365808-4.910461 1.4042723-7.575285 1.4042723-4.868543 0-7.162088-1.7791441-7.539356-6.5081584h16.51592c.137732-.9814935.185639-2.3372601.185639-3.4121721 0-8.9843486-4.437381-13.19057838-11.689295-13.19057838-8.515459 0-12.491735 5.28054298-12.491735 14.31279858 0 9.9197317 4.347555 15.0613445 14.12656 15.0613445zm-6.784821-17.5848429c.323372-4.1211949 1.682731-5.76081 5.197903-5.76081 3.042091 0 4.910462 1.5929059 5.006276 5.76081zm29.756201-19.69574255-7.245926.3269649v36.43862085h7.245926v-12.2072883h3.694823l6.036275 12.2072883h8.186099l-8.00046-15.4823268 7.719007-12.86241576h-8.048367l-5.892554 10.24310356h-3.694823z"/></g></svg>