<svg xmlns="http://www.w3.org/2000/svg" xml:space="preserve" style="enable-background:new 0 0 674.63 116.89" viewBox="0 0 674.63 116.89"><path d="M28.59 21.98v94.37c0 .2.05.36.1.54V20.98H27.6c.66.01.99.51.99 1zM97.12 0H80.44v17.36c0 1.17-.83 2-2 2H51.4c-.67 0-1 .33-1 1v96.46h46.72V0zM160.2 68.76c0-.5-.33-1-1-1h-40.72c-.67 0-1 .33-1 1v48.06h42.72V68.76zM117.48 47.56c0 .67.33 1 1 1h40.72c.67 0 1-.33 1-1V0h-42.72v47.56z"/><path d="M30.04 20.36c0-.5-.33-1-1-1H0v95.6c0 1.02.84 1.86 1.86 1.86h28.18V20.36zM180.56 0h27.69v116.82h-27.69zM229.61 19.36c-.5 0-1 .33-1 1v28.2c0 .5.33 1 1 1h45.02V19.35l-45.02.01zM229.61 68.92c-.5 0-1 .33-1 1v46.89h44.16c1.02 0 1.86-.84 1.86-1.86V68.92h-45.02zM325.23 1.67v3.16c0 .37-.25.62-.62.62h-16.16c-.19 0-.31.12-.31.31v14.92c0 .19.12.31.31.31h16.16c.37 0 .62.25.62.62v3.16c0 .37-.25.62-.62.62h-16.16c-.19 0-.31.12-.31.31v18.08c0 .37-.25.62-.62.62h-3.34c-.37 0-.62-.19-.62-.62V1.67c0-.37.25-.62.62-.62h20.44c.36 0 .61.25.61.62zM341.33 1.05h3.34c.37 0 .62.25.62.62V39.7c0 .19.12.31.31.31h16.04c.37 0 .62.25.62.62v3.16c0 .37-.25.62-.62.62h-20.31c-.37 0-.62-.25-.62-.62V1.67c0-.37.25-.62.62-.62zM374.34 29.6V1.67c0-.37.25-.62.62-.62h3.34c.37 0 .62.25.62.62v27.5c0 7.43 3.34 11.83 10.16 11.83s10.16-4.4 10.16-11.83V1.67c0-.37.25-.62.62-.62h3.34c.37 0 .62.25.62.62V29.6c0 9.48-5.33 15.85-14.74 15.85s-14.74-6.37-14.74-15.85zM442.65 26.57v-3.16c0-.37.25-.62.62-.62h18.08c.37 0 .62.25.62.62-.62 13.62-9.17 22.05-21.49 22.05-12.2 0-21.68-9.29-21.68-22.73S428.28 0 440.67 0c7.68 0 14.18 3.28 18.02 8.79.25.31.19.62-.12.87l-2.73 1.86c-.31.25-.62.19-.87-.12-3.03-4.46-8.24-6.87-14.31-6.87-9.97 0-17.09 7.31-17.09 18.21s7.12 18.21 16.91 18.21c8.42 0 14.62-4.95 16.16-13.44.06-.19-.06-.31-.25-.31h-13.13c-.36-.01-.61-.26-.61-.63zM481.6 20.44h19.2c.19 0 .31-.12.31-.31V1.67c0-.37.25-.62.62-.62h3.34c.37 0 .62.25.62.62v42.11c0 .37-.25.62-.62.62h-3.34c-.37 0-.62-.25-.62-.62V25.14c0-.19-.12-.31-.31-.31h-19.2c-.19 0-.31.12-.31.31v18.64c0 .37-.25.62-.62.62h-3.34c-.37 0-.62-.25-.62-.62V1.67c0-.37.25-.62.62-.62h3.34c.37 0 .62.25.62.62v18.46c0 .18.12.31.31.31zM541.24 1.73 554 43.72c.12.43-.06.68-.49.68h-3.47c-.37 0-.68-.19-.81-.5l-2.72-9.29c-.12-.37-.31-.5-.68-.5h-17.84c-.37 0-.56.12-.68.5l-2.72 9.29c-.12.31-.43.5-.81.5h-3.47c-.43 0-.62-.25-.5-.68l12.76-41.99c.12-.56.43-.68.81-.68h7.06c.36 0 .67.13.8.68zm-12.14 28h15.61c.19 0 .31-.12.25-.37l-7.06-23.6c-.06-.19-.12-.31-.37-.31h-1.24c-.25 0-.31.12-.37.31l-7.06 23.6c-.07.24.05.37.24.37zM589.79 1.67v3.16c0 .37-.25.62-.62.62h-16.16c-.19 0-.31.12-.31.31v14.92c0 .19.12.31.31.31h16.16c.37 0 .62.25.62.62v3.16c0 .37-.25.62-.62.62h-16.16c-.19 0-.31.12-.31.31v18.08c0 .37-.25.62-.62.62h-3.34c-.37 0-.62-.19-.62-.62V1.67c0-.37.25-.62.62-.62h20.44c.36 0 .61.25.61.62zM605.89 1.05h21.12c.37 0 .62.25.62.62v3.16c0 .37-.25.62-.62.62h-16.85c-.19 0-.31.12-.31.31v14.06c0 .19.12.31.31.31h16.85c.37 0 .62.25.62.62v3.16c0 .37-.25.62-.62.62h-16.85c-.19 0-.31.12-.31.31V39.7c0 .19.12.31.31.31h16.85c.37 0 .62.25.62.62v3.16c0 .37-.25.62-.62.62h-21.12c-.37 0-.62-.25-.62-.62V1.67c0-.37.25-.62.62-.62zM670.05 36.11V1.67c0-.37.25-.62.62-.62h3.34c.37 0 .62.25.62.62v42.11c0 .37-.25.62-.62.62h-3.96c-.56 0-.87-.12-1.11-.62L649.05 9.23c-.12-.25-.37-.19-.37.12v34.43c0 .37-.25.62-.62.62h-3.34c-.37 0-.62-.25-.62-.62V1.67c0-.37.25-.62.62-.62h3.96c.56 0 .81.12 1.12.62l19.88 34.56c.12.25.37.19.37-.12zM331.36 73.52v3.12c0 .37-.25.61-.61.61h-10.72c-.18 0-.31.12-.31.31v37.6c0 .37-.24.61-.61.61h-3.31c-.37 0-.61-.25-.61-.61v-37.6c0-.18-.12-.31-.31-.31h-10.72c-.37 0-.61-.25-.61-.61v-3.12c0-.37.24-.61.61-.61h26.58c.38 0 .62.24.62.61zM345.32 72.91h20.88c.37 0 .61.25.61.61v3.12c0 .37-.25.61-.61.61h-16.66c-.18 0-.31.12-.31.31v13.9c0 .18.12.31.31.31h16.66c.37 0 .61.25.61.61v3.12c0 .37-.25.61-.61.61h-16.66c-.18 0-.31.12-.31.31v14.7c0 .18.12.31.31.31h16.66c.37 0 .61.25.61.61v3.12c0 .37-.25.61-.61.61h-20.88c-.37 0-.61-.25-.61-.61V73.52c0-.37.24-.61.61-.61zM383.11 115.17V73.52c0-.37.25-.61.61-.61h4.23c.31 0 .61.18.8.43l11.76 19.6c.24.43.37.43.61 0l11.76-19.6c.18-.25.49-.43.8-.43h4.23c.37 0 .61.25.61.61v41.65c0 .37-.24.61-.61.61h-3.31c-.37 0-.61-.25-.61-.61V81.11c0-.43-.24-.49-.43-.12l-12.06 19.66c-.37.55-.98.55-1.35 0l-12.06-19.66c-.18-.37-.43-.31-.43.12v34.05c0 .37-.24.61-.61.61h-3.31c-.39.01-.63-.24-.63-.6zM463.4 87.91c0 9.19-6 15.01-16.17 15.01h-5.76c-.18 0-.31.12-.31.31v11.94c0 .37-.24.61-.61.61h-3.31c-.37 0-.61-.25-.61-.61V73.52c0-.37.25-.61.61-.61h9.98c10.17 0 16.18 5.82 16.18 15zm-21.93 10.66h5.33c7.53 0 11.82-3.55 11.82-10.66 0-7.1-4.29-10.66-11.82-10.66h-5.33c-.18 0-.31.12-.31.31v20.7c0 .19.13.31.31.31zM477.54 72.91h20.88c.37 0 .61.25.61.61v3.12c0 .37-.25.61-.61.61h-16.66c-.18 0-.31.12-.31.31v13.9c0 .18.12.31.31.31h16.66c.37 0 .61.25.61.61v3.12c0 .37-.25.61-.61.61h-16.66c-.18 0-.31.12-.31.31v14.7c0 .18.12.31.31.31h16.66c.37 0 .61.25.61.61v3.12c0 .37-.25.61-.61.61h-20.88c-.37 0-.61-.25-.61-.61V73.52c0-.37.24-.61.61-.61zM515.94 72.91h3.31c.37 0 .61.25.61.61v37.6c0 .18.12.31.31.31h15.86c.37 0 .61.25.61.61v3.12c0 .37-.24.61-.61.61h-20.09c-.37 0-.61-.25-.61-.61V73.52c0-.37.24-.61.61-.61zM555.07 92.08h18.99c.18 0 .31-.12.31-.31V73.52c0-.37.25-.61.61-.61h3.31c.37 0 .61.25.61.61v41.65c0 .37-.24.61-.61.61h-3.31c-.37 0-.61-.25-.61-.61V96.73c0-.18-.12-.31-.31-.31h-18.99c-.18 0-.31.12-.31.31v18.43c0 .37-.25.61-.61.61h-3.31c-.37 0-.61-.25-.61-.61V73.52c0-.37.25-.61.61-.61h3.31c.37 0 .61.25.61.61v18.25c.01.18.13.31.31.31zM594.15 94.34c0-12.92 9.74-22.48 21.93-22.48S638 81.42 638 94.34s-9.74 22.48-21.93 22.48-21.92-9.56-21.92-22.48zm39.07 0c0-10.35-7.29-18.01-17.15-18.01s-17.15 7.66-17.15 18.01 7.29 18.01 17.15 18.01 17.15-7.66 17.15-18.01zM674.62 73.52v3.12c0 .37-.24.61-.61.61h-15.99c-.18 0-.31.12-.31.31v14.76c0 .18.12.31.31.31h15.99c.37 0 .61.25.61.61v3.12c0 .37-.24.61-.61.61h-15.99c-.18 0-.31.12-.31.31v17.88c0 .37-.25.61-.61.61h-3.31c-.37 0-.61-.18-.61-.61V73.52c0-.37.24-.61.61-.61H674c.37 0 .62.24.62.61z"/></svg>